<svg width="56" height="69" viewBox="0 0 56 69" fill="none" xmlns="http://www.w3.org/2000/svg">
<path d="M46.6329 38.7201C44.7624 29.3063 53.6977 23.7852 53.6977 23.7852C53.6977 23.7852 50.2164 18.7485 44.3656 17.4528C38.5177 16.1542 35.5909 17.7767 32.6697 18.9935C29.7458 20.2133 28.2868 20.2133 28.2868 20.2133C24.0672 20.2133 20.9827 15.7457 12.9433 17.7796C7.40478 19.1774 1.5743 25.571 0.520864 33.202C-0.53257 40.8357 1.74069 50.5764 6.12367 58.1256C10.5066 65.6807 14.9715 68.5199 18.1404 68.6016C21.3095 68.6804 24.4728 66.3314 28.2868 65.7594C32.1037 65.1932 34.4527 67.1426 38.1967 68.1961C41.9259 69.2467 43.2333 68.272 47.5288 64.6184C51.8358 60.9649 55.7345 50.486 55.7345 50.486C55.7345 50.486 48.5034 48.1397 46.6329 38.7201Z" fill="black"/>
<path d="M38.3513 11.3626C42.495 7.14016 41.0914 0.603516 41.0914 0.603516C41.0914 0.603516 35.2727 1.62489 31.3741 5.68102C27.4784 9.74013 28.1233 16.1512 28.1233 16.1512C28.1233 16.1512 34.2075 15.5822 38.3513 11.3626Z" fill="black"/>
</svg>
