<svg width="140" height="47" viewBox="0 0 140 47" fill="none" xmlns="http://www.w3.org/2000/svg">
<path d="M59.9479 24.8936C59.9479 31.5342 54.7796 36.4275 48.4369 36.4275C42.0942 36.4275 36.9259 31.5342 36.9259 24.8936C36.9259 18.2062 42.0942 13.3596 48.4369 13.3596C54.7796 13.3596 59.9479 18.2062 59.9479 24.8936ZM54.9089 24.8936C54.9089 20.7439 51.9135 17.9046 48.4369 17.9046C44.9603 17.9046 41.9649 20.7439 41.9649 24.8936C41.9649 29.0017 44.9603 31.8826 48.4369 31.8826C51.9135 31.8826 54.9089 28.9965 54.9089 24.8936Z" fill="#EA4335"/>
<path d="M84.7807 24.8936C84.7807 31.5342 79.6124 36.4275 73.2697 36.4275C66.927 36.4275 61.7587 31.5342 61.7587 24.8936C61.7587 18.2114 66.927 13.3596 73.2697 13.3596C79.6124 13.3596 84.7807 18.2062 84.7807 24.8936ZM79.7417 24.8936C79.7417 20.7439 76.7463 17.9046 73.2697 17.9046C69.7931 17.9046 66.7976 20.7439 66.7976 24.8936C66.7976 29.0017 69.7931 31.8826 73.2697 31.8826C76.7463 31.8826 79.7417 28.9965 79.7417 24.8936Z" fill="#FBBC05"/>
<path d="M108.579 14.0564V34.7635C108.579 43.2813 103.581 46.7603 97.673 46.7603C92.1115 46.7603 88.7643 43.0213 87.5019 39.9636L91.8891 38.128C92.6703 40.0052 94.5844 42.2205 97.6678 42.2205C101.45 42.2205 103.793 39.8752 103.793 35.4603V33.8014H103.617C102.49 35.2003 100.317 36.4223 97.5747 36.4223C91.8373 36.4223 86.5811 31.399 86.5811 24.9352C86.5811 18.4246 91.8373 13.3596 97.5747 13.3596C100.311 13.3596 102.484 14.5817 103.617 15.9389H103.793V14.0616H108.579V14.0564ZM104.15 24.9352C104.15 20.8739 101.455 17.9046 98.0248 17.9046C94.5482 17.9046 91.6356 20.8739 91.6356 24.9352C91.6356 28.9549 94.5482 31.8826 98.0248 31.8826C101.455 31.8826 104.15 28.9549 104.15 24.9352Z" fill="#4285F4"/>
<path d="M116.468 1.91919V35.7202H111.553V1.91919H116.468Z" fill="#34A853"/>
<path d="M135.621 28.6898L139.532 31.3106C138.269 33.1879 135.227 36.4224 129.971 36.4224C123.453 36.4224 118.584 31.3574 118.584 24.8884C118.584 18.0294 123.494 13.3545 129.407 13.3545C135.362 13.3545 138.275 18.1178 139.227 20.6919L139.749 22.0024L124.41 28.3882C125.584 30.7022 127.41 31.8827 129.971 31.8827C132.537 31.8827 134.317 30.6138 135.621 28.6898ZM123.582 24.54L133.836 20.2603C133.272 18.8199 131.575 17.8162 129.578 17.8162C127.017 17.8162 123.453 20.0887 123.582 24.54Z" fill="#EA4335"/>
<path d="M18.3217 21.8931V16.9997H34.7269C34.8873 17.8526 34.97 18.8614 34.97 19.9534C34.97 23.6247 33.9715 28.1645 30.7536 31.399C27.6237 34.6751 23.6246 36.4223 18.3269 36.4223C8.50762 36.4223 0.250732 28.3829 0.250732 18.513C0.250732 8.64309 8.50762 0.603638 18.3269 0.603638C23.7591 0.603638 27.6288 2.7461 30.5363 5.53859L27.1012 8.9915C25.0162 7.02584 22.1915 5.49699 18.3217 5.49699C11.1513 5.49699 5.54321 11.3056 5.54321 18.513C5.54321 25.7204 11.1513 31.529 18.3217 31.529C22.9727 31.529 25.6215 29.6517 27.3184 27.9461C28.6946 26.5628 29.5999 24.5868 29.9569 21.8879L18.3217 21.8931Z" fill="#4285F4"/>
</svg>
