<svg width="214" height="47" viewBox="0 0 214 47" fill="none" xmlns="http://www.w3.org/2000/svg">
<g clip-path="url(#clip0_1_690)">
<path d="M213.499 21.414V17.6267H208.848V11.7388L208.691 11.7875L204.322 13.1391L204.236 13.1656V17.6269H197.34V15.1415C197.34 13.9843 197.596 13.0987 198.1 12.5081C198.601 11.9246 199.317 11.6279 200.231 11.6279C200.888 11.6279 201.568 11.7844 202.253 12.0929L202.424 12.1704V8.1818L202.343 8.1518C201.705 7.91973 200.836 7.80286 199.76 7.80286C198.403 7.80286 197.17 8.10139 196.095 8.69303C195.019 9.28551 194.173 10.1313 193.58 11.2067C192.99 12.2808 192.69 13.5214 192.69 14.8943V17.6267H189.451V21.414H192.69V37.3695H197.34V21.414H204.236V31.5534C204.236 35.7293 206.184 37.8455 210.026 37.8455C210.657 37.8455 211.322 37.7707 212 37.6243C212.691 37.4738 213.162 37.3236 213.438 37.1632L213.5 37.1266V33.3042L213.31 33.4307C213.058 33.6007 212.744 33.7396 212.375 33.8429C212.005 33.9481 211.696 34.0008 211.457 34.0008C210.557 34.0008 209.891 33.7556 209.478 33.2717C209.06 32.7834 208.848 31.9295 208.848 30.7349V21.414H213.499ZM179.067 34.0015C177.379 34.0015 176.048 33.4357 175.111 32.3211C174.167 31.2009 173.689 29.6039 173.689 27.5748C173.689 25.4814 174.167 23.8429 175.111 22.7029C176.049 21.5705 177.367 20.9957 179.029 20.9957C180.641 20.9957 181.925 21.5446 182.844 22.6281C183.768 23.7173 184.237 25.3426 184.237 27.4605C184.237 29.6043 183.796 31.2512 182.926 32.3528C182.063 33.4461 180.764 34.0015 179.067 34.0015ZM179.273 17.1511C176.054 17.1511 173.496 18.105 171.673 19.9864C169.85 21.868 168.926 24.4718 168.926 27.7263C168.926 30.8174 169.828 33.3038 171.607 35.1152C173.386 36.9272 175.807 37.8451 178.803 37.8451C181.924 37.8451 184.43 36.8778 186.253 34.9704C188.076 33.065 188.999 30.4858 188.999 27.3073C188.999 24.1679 188.132 21.663 186.423 19.8637C184.712 18.0635 182.307 17.1511 179.273 17.1511ZM161.429 17.1511C159.239 17.1511 157.427 17.7175 156.043 18.8343C154.651 19.9578 153.945 21.4313 153.945 23.2144C153.945 24.1412 154.097 24.9645 154.397 25.6628C154.699 26.3634 155.166 26.9803 155.787 27.498C156.402 28.0115 157.353 28.5494 158.613 29.0967C159.672 29.5373 160.462 29.91 160.963 30.2037C161.454 30.4916 161.802 30.781 161.998 31.0628C162.189 31.3387 162.286 31.7161 162.286 32.182C162.286 33.5084 161.304 34.1538 159.282 34.1538C158.533 34.1538 157.677 33.9954 156.74 33.6834C155.81 33.376 154.932 32.9259 154.137 32.3488L153.944 32.2088V36.7351L154.015 36.7685C154.673 37.0755 155.502 37.3345 156.48 37.5382C157.456 37.7422 158.343 37.8459 159.113 37.8459C161.49 37.8459 163.404 37.2768 164.8 36.1533C166.206 35.0221 166.918 33.5138 166.918 31.6691C166.918 30.3383 166.534 29.1971 165.779 28.2767C165.028 27.3638 163.725 26.5257 161.908 25.7849C160.46 25.1974 159.533 24.7097 159.15 24.3354C158.781 23.9737 158.594 23.4623 158.594 22.8146C158.594 22.2404 158.825 21.7805 159.3 21.408C159.778 21.0336 160.444 20.8432 161.279 20.8432C162.053 20.8432 162.846 20.967 163.634 21.2094C164.422 21.4519 165.114 21.7767 165.692 22.174L165.882 22.3052V18.0116L165.809 17.98C165.276 17.7489 164.573 17.5512 163.72 17.3908C162.87 17.2315 162.1 17.1511 161.429 17.1511ZM141.823 34.0015C140.135 34.0015 138.804 33.4357 137.867 32.3211C136.923 31.2009 136.446 29.6043 136.446 27.5748C136.446 25.4814 136.924 23.8429 137.868 22.7029C138.805 21.5705 140.123 20.9957 141.785 20.9957C143.397 20.9957 144.68 21.5446 145.6 22.6281C146.524 23.7173 146.993 25.3426 146.993 27.4605C146.993 29.6043 146.552 31.2512 145.682 32.3528C144.819 33.4461 143.521 34.0015 141.823 34.0015ZM142.03 17.1511C138.809 17.1511 136.251 18.105 134.429 19.9864C132.607 21.868 131.682 24.4718 131.682 27.7263C131.682 30.8187 132.585 33.3038 134.364 35.1152C136.143 36.9272 138.564 37.8451 141.559 37.8451C144.68 37.8451 147.187 36.8778 149.009 34.9704C150.832 33.065 151.755 30.4858 151.755 27.3073C151.755 24.1679 150.889 21.663 149.179 19.8637C147.468 18.0635 145.062 17.1511 142.03 17.1511ZM124.624 21.0457V17.6267H120.031V37.3691H124.624V27.2701C124.624 25.5528 125.009 24.142 125.769 23.0765C126.519 22.0236 127.519 21.4901 128.739 21.4901C129.153 21.4901 129.618 21.559 130.121 21.6955C130.618 21.8311 130.979 21.9784 131.192 22.1334L131.385 22.2748V17.5929L131.31 17.5606C130.883 17.3769 130.277 17.2842 129.512 17.2842C128.357 17.2842 127.325 17.6592 126.44 18.3975C125.663 19.0464 125.102 19.9362 124.673 21.0457H124.624ZM111.805 17.1511C109.698 17.1511 107.818 17.6079 106.22 18.5085C104.618 19.4112 103.379 20.6999 102.536 22.3386C101.696 23.9733 101.27 25.8828 101.27 28.0123C101.27 29.8777 101.683 31.5895 102.5 33.0982C103.317 34.6094 104.473 35.7916 105.937 36.6116C107.399 37.4305 109.088 37.8457 110.959 37.8457C113.141 37.8457 115.005 37.4045 116.499 36.5343L116.56 36.4993V32.2447L116.367 32.3872C115.69 32.8857 114.933 33.2836 114.12 33.5702C113.308 33.8567 112.568 34.0015 111.919 34.0015C110.116 34.0015 108.669 33.4313 107.619 32.3072C106.567 31.1816 106.033 29.601 106.033 27.6121C106.033 25.6107 106.59 23.9895 107.686 22.7933C108.78 21.6007 110.229 20.9957 111.994 20.9957C113.504 20.9957 114.975 21.5126 116.367 22.5334L116.56 22.6748V18.1918L116.498 18.1564C115.974 17.86 115.259 17.6152 114.373 17.4296C113.489 17.2444 112.626 17.1511 111.805 17.1511ZM98.1069 17.6269H93.5137V37.3691H98.1069V17.6269ZM95.8573 9.21655C95.1013 9.21655 94.4419 9.47675 93.9002 9.99236C93.3563 10.5094 93.0804 11.1604 93.0804 11.9287C93.0804 12.685 93.353 13.3241 93.8918 13.8274C94.4271 14.3293 95.0885 14.5836 95.8575 14.5836C96.6262 14.5836 97.2901 14.3293 97.8318 13.8283C98.377 13.3241 98.6535 12.6852 98.6535 11.9287C98.6535 11.1873 98.3844 10.543 97.8543 10.0132C97.3245 9.48446 96.6524 9.21655 95.8573 9.21655ZM84.3969 16.1703V37.3691H89.0845V9.82091H82.5967L74.3503 30.2829L66.3477 9.82091H59.5957V37.3688H64.0008V16.1682H64.152L72.6026 37.3691H75.927L84.2457 16.1703H84.3969Z" fill="#706D6E"/>
<path d="M22.1077 22.4627H0.5V0.615967H22.1077V22.4627Z" fill="#F1511B"/>
<path d="M45.9647 22.462H24.3574V0.615356H45.9647V22.462Z" fill="#80CC28"/>
<path d="M22.1071 46.5918H0.5V24.7454H22.1071V46.5918Z" fill="#00ADEF"/>
<path d="M45.9647 46.5917H24.3574V24.7452H45.9647V46.5917Z" fill="#FBBC09"/>
</g>
<defs>
<clipPath id="clip0_1_690">
<rect width="213" height="46" fill="white" transform="translate(0.5 0.603638)"/>
</clipPath>
</defs>
</svg>
