<svg width="192" height="50" viewBox="0 0 192 50" fill="none" xmlns="http://www.w3.org/2000/svg">
<path d="M61.4961 38.9932L63.8865 33.4373C66.4696 35.3664 69.9009 36.3696 73.2937 36.3696C75.7997 36.3696 77.3804 35.405 77.3804 33.9389C77.3419 29.8491 62.3828 33.0515 62.2672 22.7885C62.2286 17.5798 66.8551 13.5672 73.4093 13.5672C77.3033 13.5672 81.1973 14.5318 83.9732 16.731L81.7371 22.4026C79.1925 20.7822 76.031 19.6247 73.0238 19.6247C70.9804 19.6247 69.631 20.5893 69.631 21.8239C69.6696 25.8365 84.7443 23.6373 84.8985 33.4373C84.8985 38.7617 80.3877 42.5042 73.9106 42.5042C69.1684 42.5042 64.8118 41.3853 61.4961 38.9932ZM153.217 31.431C152.021 33.5145 149.785 34.942 147.202 34.942C143.385 34.942 140.301 31.8554 140.301 28.0357C140.301 24.216 143.385 21.1294 147.202 21.1294C149.785 21.1294 152.021 22.557 153.217 24.6404L159.809 20.9751C157.342 16.5767 152.6 13.5672 147.202 13.5672C139.221 13.5672 132.744 20.0491 132.744 28.0357C132.744 36.0223 139.221 42.5042 147.202 42.5042C152.638 42.5042 157.342 39.5333 159.809 35.0963L153.217 31.431ZM88.2142 1.56799H96.4648V41.9641H88.2142V1.56799ZM163.048 1.56799V41.9641H171.299V29.8491L181.091 41.9641H191.655L179.202 27.5727L190.73 14.1459H180.629L171.299 25.2963V1.56799H163.048ZM120.985 31.5082C119.79 33.4759 117.323 34.942 114.547 34.942C110.73 34.942 107.645 31.8554 107.645 28.0357C107.645 24.216 110.73 21.1294 114.547 21.1294C117.323 21.1294 119.79 22.6727 120.985 24.679V31.5082ZM120.985 14.1459V17.4255C119.636 15.1491 116.282 13.5672 112.773 13.5672C105.525 13.5672 99.819 19.9719 99.819 27.9971C99.819 36.0223 105.525 42.5042 112.773 42.5042C116.282 42.5042 119.636 40.9223 120.985 38.6459V41.9255H129.236V14.1459H120.985Z" fill="black"/>
<path d="M10.4887 31.4696C10.4887 34.2862 8.21404 36.5625 5.39958 36.5625C2.58512 36.5625 0.310425 34.2862 0.310425 31.4696C0.310425 28.6531 2.58512 26.3767 5.39958 26.3767H10.4887V31.4696ZM13.0333 31.4696C13.0333 28.6531 15.308 26.3767 18.1225 26.3767C20.9369 26.3767 23.2116 28.6531 23.2116 31.4696V44.2019C23.2116 47.0184 20.9369 49.2948 18.1225 49.2948C15.308 49.2948 13.0333 47.0184 13.0333 44.2019V31.4696Z" fill="#E01E5A"/>
<path d="M18.1221 11.0209C15.3076 11.0209 13.0329 8.74453 13.0329 5.928C13.0329 3.11146 15.3076 0.835083 18.1221 0.835083C20.9365 0.835083 23.2112 3.11146 23.2112 5.928V11.0209H18.1221ZM18.1221 13.6059C20.9365 13.6059 23.2112 15.8823 23.2112 18.6989C23.2112 21.5154 20.9365 23.7918 18.1221 23.7918H5.36064C2.54618 23.7918 0.271484 21.5154 0.271484 18.6989C0.271484 15.8823 2.54618 13.6059 5.36064 13.6059H18.1221Z" fill="#36C5F0"/>
<path d="M38.5178 18.6989C38.5178 15.8823 40.7925 13.6059 43.607 13.6059C46.4214 13.6059 48.6961 15.8823 48.6961 18.6989C48.6961 21.5154 46.4214 23.7918 43.607 23.7918H38.5178V18.6989ZM35.9732 18.6989C35.9732 21.5154 33.6985 23.7918 30.8841 23.7918C28.0696 23.7918 25.7949 21.5154 25.7949 18.6989V5.928C25.7949 3.11146 28.0696 0.835083 30.8841 0.835083C33.6985 0.835083 35.9732 3.11146 35.9732 5.928V18.6989Z" fill="#2EB67D"/>
<path d="M30.8841 39.1089C33.6985 39.1089 35.9732 41.3852 35.9732 44.2018C35.9732 47.0183 33.6985 49.2947 30.8841 49.2947C28.0696 49.2947 25.7949 47.0183 25.7949 44.2018V39.1089H30.8841ZM30.8841 36.5624C28.0696 36.5624 25.7949 34.286 25.7949 31.4695C25.7949 28.653 28.0696 26.3766 30.8841 26.3766H43.6455C46.46 26.3766 48.7347 28.653 48.7347 31.4695C48.7347 34.286 46.46 36.5624 43.6455 36.5624H30.8841Z" fill="#ECB22E"/>
</svg>
