<svg width="532" height="441" viewBox="0 0 532 441" fill="none" xmlns="http://www.w3.org/2000/svg">
<path d="M257.134 440.354C251.955 440.354 245.769 438.998 237.532 435.926C215.671 427.595 193.254 402.574 169.585 376.114C156.552 361.583 143.102 346.553 129.582 334.237C109.841 311.984 76.3718 296.65 43.9799 281.787C20.3116 270.937 -2.03605 260.668 -19.3442 247.992L-19.3789 247.964C-32.3774 238.111 -38.4596 228.589 -37.973 218.874C-37.0346 199.915 -11.0724 183.031 19.0256 163.491L21.9103 161.609C44.2232 147.05 72.2359 127.564 112.795 98.4748L116.236 96.0945C152.521 70.9628 197.702 39.6866 256.23 20.7271C373.46 -23.198 476.057 10.8183 508.449 47.6856C542.231 90.7803 539.312 136.532 497.328 222.639C453.362 312.399 355.978 381.788 316.148 407.445C299.848 415.915 289.63 423.416 282.192 428.896C272.739 435.815 266.587 440.354 257.134 440.354ZM-16.2857 245.335C0.640099 257.734 22.7792 267.892 46.2042 278.659C78.9785 293.688 112.9 309.243 133.058 331.995C146.612 344.312 160.132 359.424 173.2 374.01C196.555 400.083 218.625 424.716 239.409 432.66C259.949 440.271 264.78 436.729 279.134 426.211C286.711 420.648 297.102 413.009 313.507 404.484C352.85 379.103 449.539 310.24 493.122 221.282C534.516 136.421 537.539 91.4999 504.696 49.623C473.242 13.8629 373.043 -19.1293 258.038 23.9654C200.101 42.7589 155.231 73.8136 119.19 98.7516L115.784 101.132C75.1901 130.249 47.1426 149.762 24.7602 164.349L21.8756 166.231C-7.38836 185.218 -32.6207 201.631 -33.4896 218.958C-33.9066 227.621 -28.2763 236.229 -16.2857 245.335Z" fill="#CCCCCC"/>
<path d="M250.388 415.278C243.229 415.278 235.652 413.451 225.226 410.213L225.017 410.157C204.998 402.158 189.15 382.867 172.398 362.468C160.963 348.518 149.111 334.126 134.862 321.587C114.773 301.244 89.5062 285.412 65.108 270.106C48.7036 259.838 33.2027 250.123 19.6829 239.383L19.4396 239.162C-8.08653 209.297 11.6544 196.123 47.4524 172.181C51.345 169.579 55.4461 166.839 59.721 163.905C68.1317 158.951 77.0986 153.415 86.6216 147.548C128.919 121.447 186.89 85.7147 268.67 56.7081C368.626 26.2346 445.852 48.2663 478.105 83.6112C510.427 120.451 497.881 164.791 461.561 238.858C421.766 313.754 349.128 362.246 310.098 388.292L305.753 391.198C276.733 408.358 264.29 415.278 250.388 415.278ZM226.963 406.891C255.428 415.693 260.259 413.589 302.973 388.402L307.213 385.579C345.931 359.728 418.013 311.596 457.391 237.557C493.119 164.736 505.596 121.226 474.456 85.7424C443.245 51.5323 368.035 30.3032 270.407 60.0572C189.219 88.8424 131.525 124.436 89.3672 150.398C79.8443 156.266 70.8774 161.802 62.5361 166.729C58.3655 169.579 54.2644 172.319 50.3718 174.949C14.5391 198.918 -1.86535 209.879 22.9847 236.948C36.2959 247.493 51.6578 257.097 67.8885 267.283C92.53 282.7 117.971 298.67 138.303 319.262C152.691 331.911 164.647 346.442 176.186 360.503C192.556 380.431 208.056 399.28 226.963 406.891Z" fill="#CCCCCC"/>
<path d="M244.56 394.354C235.419 394.354 226.939 391.752 216.373 387.324C198.717 378.854 184.537 361.334 169.523 342.817C160.626 331.802 151.381 320.426 140.815 309.991C126.044 293.606 108.528 279.601 91.6365 266.038C77.7691 254.912 64.6664 244.422 54.344 233.6L54.205 233.434C33.2824 205.368 54.9001 192.276 94.1736 168.501L94.6254 168.224L101.889 164.266C143.248 141.819 199.899 111.069 277.508 88.788C369.122 65.5107 427.442 89.2308 449.581 116.577C473.249 145.749 467.445 184.914 429.562 251.757C401.966 298.339 356.923 340.216 295.719 376.225C272.051 389.012 257.628 394.354 244.56 394.354ZM57.9934 231.468C68.1419 242.069 81.1056 252.476 94.8339 263.464C111.864 277.11 129.485 291.253 144.395 307.777C155.065 318.267 164.344 329.753 173.311 340.852C188.013 359.037 201.915 376.197 218.597 384.196C242.648 394.326 254.639 394.133 293.113 373.291C353.656 337.642 398.213 296.235 425.461 250.234C462.614 184.665 468.522 146.497 445.793 118.487C422.819 90.1165 362.345 70.9633 278.933 92.137C201.95 114.252 145.577 144.836 104.426 167.2L96.8845 171.324C57.333 195.266 39.2255 206.226 57.9934 231.468Z" fill="#CCCCCC"/>
<path d="M241.295 375.312C231.077 375.312 221.484 372.517 210.78 367.037L210.71 367.009C194.584 358.207 181.585 341.656 167.822 324.163C161.462 316.054 154.858 307.695 147.699 299.723C138.141 288.043 127.541 277.249 117.288 266.842C104.707 254.055 92.7855 241.959 85.0003 230.224C71.411 205.452 91.291 192.499 125.629 174.037C161.01 156.6 215.68 131.745 282.688 117.076C346.673 106.586 394.6 115 417.782 140.741C442.806 168.474 436.584 212.454 400.717 261.417C363.147 319.043 303.75 352.838 286.442 361.805C268.022 370.884 254.154 375.312 241.295 375.312ZM213.212 364.02C233.231 374.233 248.941 376.06 284.009 358.761C301.039 349.932 359.671 316.579 396.755 259.673C431.719 211.929 438.044 169.36 414.098 142.844C391.993 118.321 345.699 110.433 283.696 120.591C217.383 135.122 163.095 159.783 128.027 177.082C92.6813 196.069 77.2846 207.362 88.9972 228.701C96.5391 240.022 108.321 251.979 120.798 264.655C131.121 275.145 141.79 285.967 151.383 297.731C158.577 305.702 165.181 314.144 171.576 322.281C185.13 339.414 197.885 355.633 213.212 364.02Z" fill="#CCCCCC"/>
<path d="M239.137 357.929C228.294 357.929 218.319 354.967 207.962 349.044L207.684 348.85C168.028 316.882 121.143 243.673 112.142 229.336L112.003 229.004C104.982 208.467 120.83 196.399 152.492 181.315C182.312 167.974 229.406 150.371 284.597 142.15C335.409 135.784 373.466 144.364 391.817 166.313C412.184 190.697 405.963 227.758 374.787 268.002C347.33 306.807 306.875 334.734 278.167 347.909C263.153 354.607 250.641 357.929 239.137 357.929ZM210.742 346.221C230.587 357.486 248.278 357.098 275.908 344.781C304.095 331.856 343.82 304.399 370.895 266.176C400.715 227.675 407.109 191.113 388.064 168.306C370.755 147.575 334.262 139.521 285.362 145.693C230.831 153.83 184.259 171.267 154.752 184.442C124.445 198.863 110.16 209.574 116.277 227.925C142.135 269.11 180.47 321.753 210.742 346.221Z" fill="#CCCCCC"/>
<path d="M237.551 341.905C225.942 341.905 215.898 338.833 208.287 332.882C177.841 309.383 146.144 259.812 136.795 230.003C135.266 223.111 137.455 216.385 143.225 209.964C161.019 190.174 213.743 173.096 284.296 164.295C324.091 161.222 353.772 169.72 367.952 188.236C384.009 209.216 378.24 239.745 352.139 271.963C318.183 312.732 277.554 338.75 243.459 341.628C241.443 341.822 239.462 341.905 237.551 341.905ZM299.797 167.256C295.001 167.256 290.031 167.45 284.887 167.865C215.655 176.501 164.008 193.025 146.944 212.067C141.869 217.713 139.958 223.498 141.244 229.283C150.419 258.483 181.56 307.252 211.484 330.336C219.374 336.48 230.287 339.165 243.007 338.085C275.781 335.318 315.194 309.881 348.385 270.025C373.131 239.468 379.039 209.604 364.129 190.118C352.695 175.2 330.139 167.256 299.797 167.256Z" fill="#CCCCCC"/>
<path d="M238.479 326.68C227.705 326.68 218.217 323.912 210.814 318.543C184.4 299.472 159.967 259.145 158.577 232.27V232.215C158.403 207.443 210.119 187.099 281.506 183.889C311.917 183.307 334.473 191.389 345.073 206.723C357.238 224.299 352.233 248.683 331.345 273.649C305.522 303.984 273.199 323.691 244.839 326.375C242.65 326.569 240.53 326.68 238.479 326.68ZM163.095 232.159C164.485 258.232 188.188 297.369 213.872 315.885C221.692 321.559 232.188 323.94 244.283 322.805C271.357 320.231 302.498 301.105 327.591 271.628C347.506 247.825 352.441 224.769 341.111 208.411C331.345 194.323 310.283 186.85 281.68 187.431C213.976 190.504 162.956 209.74 163.095 232.159Z" fill="#CCCCCC"/>
<path d="M239.255 312.261C229.836 312.261 221.426 309.964 214.648 305.452C190.841 289.703 173.915 257.818 177.634 235.786C181.666 214.64 225.005 199.473 276.165 201.216C298.617 202.241 315.161 209.603 322.807 221.92C331.565 236.036 327.568 254.774 311.789 273.29C293.161 294.962 268.589 309.382 246.067 311.873C243.739 312.15 241.479 312.261 239.255 312.261ZM268.067 204.676C222.677 204.676 185.593 218.045 182.118 236.312C178.642 256.877 195.185 287.904 217.533 302.712C224.901 307.583 234.528 309.521 245.442 308.331C266.747 305.978 290.137 292.111 308.071 271.27C322.911 253.86 326.804 236.451 318.775 223.497C311.894 212.398 296.671 205.756 275.957 204.787C273.315 204.732 270.674 204.676 268.067 204.676Z" fill="#CCCCCC"/>
<path d="M241.382 298.477C233.805 298.477 226.923 296.733 221.154 293.329C201.17 281.51 189.944 257.735 196.13 240.325C202.421 223.109 235.091 212.758 270.437 216.743C286.112 218.598 297.616 224.798 302.829 234.208C308.737 244.864 305.818 258.371 294.835 271.269C282.219 285.994 265.293 295.737 248.402 297.979C246.039 298.311 243.675 298.477 241.382 298.477ZM200.475 241.321C194.844 257.126 205.549 279.628 223.83 290.45C230.329 294.297 238.566 295.681 247.672 294.463C263.138 292.388 279.404 282.977 291.151 269.276C301.23 257.43 303.976 245.196 298.728 235.675C294.175 227.427 283.887 221.975 269.811 220.314C237.176 216.605 206.07 226.043 200.475 241.321Z" fill="#CCCCCC"/>
<path d="M243.127 285.136C237.879 285.136 232.805 284.057 228.356 281.732C213.481 274.065 206.53 257.79 212.82 245.474C219.146 233.212 241.702 226.597 263.146 230.749C273.051 232.659 280.28 237.336 283.512 243.868C287.057 251.065 285.25 259.811 278.577 267.838C269.367 278.853 255.708 285.136 243.127 285.136ZM230.789 278.743C243.613 285.358 263.354 279.601 274.824 265.872C280.663 258.842 282.331 251.286 279.307 245.197C276.631 239.772 270.514 235.869 262.068 234.236C242.71 230.5 222.482 236.146 216.991 246.83C211.465 257.652 217.651 271.962 230.789 278.743Z" fill="#CCCCCC"/>
<path d="M244.435 272.044C241.585 272.044 238.805 271.518 236.267 270.411C227.579 266.619 224.068 257.901 228.482 250.954C232.827 244.089 244.748 240.796 255 243.619C259.936 244.975 263.55 247.688 265.114 251.286C266.783 255.078 265.983 259.506 262.89 263.409C258.476 268.917 251.351 272.044 244.435 272.044ZM247.215 246.193C240.925 246.193 234.982 248.601 232.444 252.587C229.143 257.818 231.784 264.405 238.387 267.256C244.956 270.135 254.236 267.533 259.032 261.471C261.43 258.454 262.056 255.271 260.805 252.448C259.692 249.902 257.086 247.964 253.471 246.968C251.421 246.442 249.301 246.193 247.215 246.193Z" fill="#CCCCCC"/>
</svg>
