<svg width="288" height="233" viewBox="0 0 288 233" fill="none" xmlns="http://www.w3.org/2000/svg">
<circle cx="140.93" cy="89.2681" r="70.625" stroke="#4F9CF9" stroke-width="2" stroke-dasharray="15 15"/>
<circle cx="90.2812" cy="160.893" r="70.625" stroke="#4F9CF9" stroke-width="2" stroke-dasharray="15 15"/>
<circle cx="197.719" cy="160.893" r="70.625" stroke="#4F9CF9" stroke-width="2" stroke-dasharray="15 15"/>
<circle cx="212.045" cy="90.8031" r="17.9062" fill="white"/>
<g clip-path="url(#clip0_1_780)">
<path d="M209.166 91.4329C207.926 91.4329 206.918 92.4413 206.918 93.681V99.2989C206.918 100.539 207.926 101.547 209.166 101.547C210.406 101.547 211.414 100.539 211.414 99.299V93.681C211.414 92.4413 210.406 91.4329 209.166 91.4329Z" fill="#FF4340"/>
<path d="M205.659 91.4325H203.483C202.283 91.4325 201.307 92.4089 201.307 93.6089C201.307 94.8091 202.283 95.7854 203.483 95.7854C204.683 95.7854 205.659 94.809 205.659 93.6089V91.4325Z" fill="#FF4340"/>
<path d="M201.301 87.9255C201.301 89.1651 202.309 90.1736 203.549 90.1736H209.167C210.407 90.1736 211.415 89.1651 211.415 87.9255C211.415 86.6859 210.407 85.6774 209.167 85.6774H203.549C202.309 85.6773 201.301 86.6859 201.301 87.9255V87.9255Z" fill="#36C6FF"/>
<path d="M209.239 84.418H211.416V82.2415C211.416 81.0414 210.439 80.0651 209.239 80.0651C208.039 80.0651 207.063 81.0414 207.063 82.2415C207.063 83.4416 208.039 84.418 209.239 84.418Z" fill="#36C6FF"/>
<path d="M214.922 90.1736C216.162 90.1736 217.17 89.1651 217.17 87.9254V82.3075C217.17 81.0678 216.162 80.0593 214.922 80.0593C213.682 80.0593 212.674 81.0678 212.674 82.3075V87.9254C212.674 89.1651 213.682 90.1736 214.922 90.1736Z" fill="#0DC46E"/>
<path d="M218.43 90.1739H220.606C221.806 90.1739 222.783 89.1976 222.783 87.9975C222.783 86.7974 221.806 85.821 220.606 85.821C219.406 85.821 218.43 86.7974 218.43 87.9975V90.1739Z" fill="#0DC46E"/>
<path d="M222.788 93.6805C222.788 92.4409 221.78 91.4324 220.54 91.4324H214.922C213.682 91.4324 212.674 92.4409 212.674 93.6805C212.674 94.9201 213.682 95.9286 214.922 95.9286H220.54C221.78 95.9287 222.788 94.9201 222.788 93.6805Z" fill="#FDCB02"/>
<path d="M214.85 97.1879H212.674V99.3643C212.674 100.564 213.65 101.541 214.85 101.541C216.05 101.541 217.027 100.564 217.027 99.3643C217.027 98.1642 216.05 97.1879 214.85 97.1879Z" fill="#FDCB02"/>
</g>
<circle cx="18.6562" cy="155.266" r="17.9062" fill="white"/>
<g clip-path="url(#clip1_1_780)">
<path d="M28.7289 149.223H19.3281C18.9574 149.223 18.6566 149.524 18.6566 149.895C18.6566 150.265 18.9574 150.566 19.3281 150.566H26.7722L22.6466 153.774L19.688 151.893L18.9682 153.026L22.3256 155.162C22.4344 155.232 22.5606 155.267 22.6855 155.267C22.8306 155.267 22.9769 155.22 23.0978 155.125L28.0574 151.267V159.967H19.3281C18.9574 159.967 18.6566 160.268 18.6566 160.638C18.6566 161.009 18.9574 161.31 19.3281 161.31H28.7289C29.0995 161.31 29.4004 161.009 29.4004 160.638V149.895C29.4004 149.524 29.0995 149.223 28.7289 149.223Z" fill="#1976D2"/>
<path d="M19.7561 145.348C19.603 145.221 19.3975 145.166 19.2042 145.206L8.46041 147.22C8.14212 147.279 7.91248 147.556 7.91248 147.88V162.652C7.91248 162.975 8.14212 163.253 8.46041 163.312L19.2042 165.326C19.2444 165.334 19.2861 165.338 19.3277 165.338C19.4835 165.338 19.6353 165.285 19.7561 165.184C19.9106 165.056 19.9992 164.866 19.9992 164.667V145.865C19.9992 145.665 19.9106 145.476 19.7561 145.348Z" fill="#2196F3"/>
<path d="M13.9554 159.966C12.1048 159.966 10.598 158.159 10.598 155.938C10.598 153.716 12.1048 151.909 13.9554 151.909C15.8061 151.909 17.3129 153.716 17.3129 155.938C17.3129 158.159 15.8061 159.966 13.9554 159.966ZM13.9554 153.252C12.8448 153.252 11.941 154.456 11.941 155.938C11.941 157.419 12.8448 158.624 13.9554 158.624C15.0661 158.624 15.9699 157.419 15.9699 155.938C15.9699 154.456 15.0661 153.252 13.9554 153.252Z" fill="#FAFAFA"/>
</g>
<circle cx="269.344" cy="155.266" r="17.9062" fill="white"/>
<g clip-path="url(#clip2_1_780)">
<path d="M269.325 151.31L264.865 159.046H264.852L267.435 162.195L261.64 164.626C261.527 164.563 261.438 164.475 261.388 164.387L258.667 159.348C258.528 159.071 258.642 158.857 258.68 158.731L265.974 146.133C266.024 146.057 266.1 145.982 266.2 145.919H266.213L269.955 147.078L269.325 151.31Z" fill="#59C36A"/>
<path d="M280.088 159.045L275.036 162.195L273.839 159.045L269.325 151.31L266.213 145.918C266.301 145.855 266.415 145.818 266.516 145.818H272.176C272.302 145.855 272.554 145.843 272.718 146.133L280.012 158.73C280.062 158.819 280.088 158.932 280.088 159.045Z" fill="#FFDA2D"/>
<path d="M272.718 146.133C272.554 145.843 272.302 145.856 272.176 145.818H269.325V151.311L273.839 159.046L275.036 162.195L280.087 159.046C280.087 158.932 280.062 158.819 280.012 158.731L272.718 146.133Z" fill="#FDBF00"/>
<path d="M280.088 159.046C280.088 159.159 280.063 159.272 280.025 159.348L277.304 164.387C277.203 164.551 276.964 164.715 276.75 164.715H261.943C261.843 164.715 261.729 164.677 261.641 164.626L264.853 159.046H280.088Z" fill="#4086F4"/>
<path d="M269.325 164.714H276.749C276.963 164.714 277.202 164.55 277.303 164.387L280.024 159.348C280.062 159.272 280.087 159.159 280.087 159.045H269.325V164.714H269.325Z" fill="#4175DF"/>
</g>
<circle cx="69.3048" cy="90.8029" r="17.9062" fill="white"/>
<g clip-path="url(#clip3_1_780)">
<path d="M62.782 96.1364V94.4098L65.6982 96.098L69.305 92.7214V100.396L62.782 96.1364Z" fill="#0093EB"/>
<path d="M59.2898 91.5703L63.0885 88.1169L69.3045 91.954L65.6977 95.3306L59.2898 91.5703Z" fill="#0093EB"/>
<path d="M63.089 88.1169L58.5613 84.6635L65.0843 81.2102L69.6887 84.2798L63.089 88.1169Z" fill="#0093EB"/>
<path d="M75.8284 96.1748L69.3054 100.396V92.7214L73.0274 95.9446L75.8284 94.1795V96.1748Z" fill="#0093EB"/>
<path d="M73.0274 95.1768L69.3054 91.9537L75.5598 87.9631L79.3201 91.1863L73.0274 95.1768Z" fill="#0093EB"/>
<path d="M75.5609 87.9634L69.6902 84.2798L74.2946 81.2102L80.0502 84.6635L75.5609 87.9634Z" fill="#0093EB"/>
</g>
<circle cx="144" cy="205.915" r="17.9062" fill="white"/>
<g clip-path="url(#clip4_1_780)">
<path d="M152.83 201.55H135.204C134.856 201.55 134.574 201.268 134.574 200.92V197.059C134.574 196.018 135.422 195.171 136.463 195.171H151.571C152.613 195.171 153.46 196.018 153.46 197.059V200.92C153.46 201.268 153.178 201.55 152.83 201.55Z" fill="#E3E7EA"/>
<path d="M151.572 195.171H144.018V201.55H152.831C153.179 201.55 153.46 201.268 153.46 200.92V197.059C153.46 196.018 152.613 195.171 151.572 195.171Z" fill="#BABAC0"/>
<path d="M134.55 208.475C134.55 208.474 134.55 208.474 134.55 208.474L133.298 202.507C133.21 201.941 133.361 201.374 133.714 200.959C134.079 200.53 134.607 200.291 135.161 200.291H152.838C153.392 200.291 153.921 200.53 154.286 200.959C154.639 201.374 154.79 201.941 154.702 202.482L153.449 208.476L154.702 214.443C154.79 215.009 154.639 215.576 154.286 215.991C153.921 216.419 153.392 216.659 152.838 216.659H135.161C134.607 216.659 134.079 216.419 133.714 215.991C133.361 215.576 133.21 215.009 133.298 214.468C133.298 214.468 134.528 208.579 134.55 208.475Z" fill="#4086F4"/>
<path d="M134.55 208.474C134.55 208.474 134.55 208.474 134.55 208.475H153.45L154.702 202.482C154.79 201.941 154.639 201.374 154.286 200.959C153.921 200.53 153.392 200.291 152.838 200.291H135.161C134.607 200.291 134.079 200.53 133.714 200.959C133.361 201.374 133.21 201.941 133.298 202.507L134.55 208.474Z" fill="#4175DF"/>
<path d="M137.704 198.948C138.051 198.948 138.333 198.666 138.333 198.318C138.333 197.971 138.051 197.689 137.704 197.689C137.356 197.689 137.074 197.971 137.074 198.318C137.074 198.666 137.356 198.948 137.704 198.948Z" fill="#FFF5F5"/>
<path d="M150.296 198.948C150.643 198.948 150.925 198.666 150.925 198.318C150.925 197.971 150.643 197.689 150.296 197.689C149.948 197.689 149.666 197.971 149.666 198.318C149.666 198.666 149.948 198.948 150.296 198.948Z" fill="#E3E7EA"/>
<path d="M141.481 212.881C140.416 212.881 139.461 212.207 139.107 211.202C138.99 210.874 139.162 210.515 139.49 210.399C139.817 210.283 140.178 210.455 140.293 210.783C140.471 211.285 140.948 211.622 141.481 211.622C142.175 211.622 142.74 211.057 142.74 210.363C142.74 209.669 142.175 209.104 141.481 209.104H140.698C140.351 209.104 140.069 208.822 140.069 208.474C140.069 208.127 140.351 207.845 140.698 207.845H141.481C142.175 207.845 142.74 207.28 142.74 206.586C142.74 205.892 142.175 205.327 141.481 205.327C140.948 205.327 140.471 205.664 140.293 206.166C140.178 206.494 139.816 206.666 139.49 206.55C139.162 206.434 138.99 206.074 139.107 205.747C139.461 204.742 140.416 204.068 141.481 204.068C142.87 204.068 143.999 205.197 143.999 206.586C143.999 207.337 143.668 208.013 143.144 208.474C143.668 208.936 143.999 209.612 143.999 210.363C143.999 211.752 142.87 212.881 141.481 212.881Z" fill="#FFF5F5"/>
<path d="M139.49 206.55C139.816 206.666 140.178 206.494 140.293 206.166C140.471 205.664 140.949 205.327 141.481 205.327C142.175 205.327 142.74 205.892 142.74 206.586C142.74 207.28 142.175 207.845 141.481 207.845H140.698C140.351 207.845 140.069 208.126 140.069 208.474H143.145C143.668 208.013 143.999 207.337 143.999 206.586C143.999 205.197 142.87 204.068 141.481 204.068C140.416 204.068 139.461 204.742 139.107 205.747C138.99 206.074 139.162 206.434 139.49 206.55Z" fill="#E3E7EA"/>
<path d="M147.776 212.881C147.428 212.881 147.147 212.599 147.147 212.252V205.873L146.237 206.48C145.947 206.672 145.556 206.594 145.364 206.306C145.171 206.016 145.249 205.626 145.538 205.433L147.427 204.174C147.62 204.045 147.869 204.033 148.073 204.142C148.278 204.252 148.406 204.465 148.406 204.697V212.252C148.406 212.599 148.124 212.881 147.776 212.881Z" fill="#FFF5F5"/>
<path d="M146.237 206.48L147.147 205.873V208.474H148.406V204.697C148.406 204.465 148.278 204.252 148.073 204.142C147.869 204.033 147.62 204.045 147.427 204.173L145.538 205.433C145.249 205.626 145.171 206.016 145.364 206.306C145.556 206.594 145.947 206.672 146.237 206.48Z" fill="#E3E7EA"/>
</g>
<circle cx="142.466" cy="18.6665" r="17.9062" fill="white"/>
<g clip-path="url(#clip5_1_780)">
<path d="M150.524 10.6088H134.408V26.7244H150.524V10.6088Z" fill="#ECEFF1"/>
<path d="M142.467 20.3611L150.524 26.7241V14.162L142.467 20.3611Z" fill="#CFD8DC"/>
<path d="M151.195 10.6086H150.524L142.466 16.9716L134.408 10.6086H133.737C132.625 10.6086 131.722 11.5111 131.722 12.6231V24.7098C131.722 25.8218 132.625 26.7243 133.737 26.7243H134.408V14.1621L142.466 20.3599L150.524 14.1608V26.7243H151.195C152.307 26.7243 153.21 25.8218 153.21 24.7098V12.6231C153.21 11.5111 152.307 10.6086 151.195 10.6086Z" fill="#F44336"/>
</g>
<circle cx="143.58" cy="138.204" r="25.5804" fill="white"/>
<path d="M130 129.308V134.115C130 135.58 131.829 136.361 132.946 135.336L138.28 130.528C139.449 129.478 138.687 127.624 137.087 127.624H131.753C130.787 127.624 130 128.38 130 129.308Z" fill="#5986EF"/>
<path d="M155.247 127.624H149.913C148.339 127.624 147.551 129.478 148.72 130.528L154.054 135.336C155.171 136.336 157 135.58 157 134.115V129.308C157 128.38 156.213 127.624 155.247 127.624Z" fill="#5986EF"/>
<path d="M144.706 139.363L154.054 147.807C155.171 148.808 157 148.051 157 146.587V141.73C157 141.266 156.797 140.827 156.441 140.51L144.706 129.893C144.021 129.283 142.979 129.283 142.294 129.893L130.559 140.51C130.203 140.827 130 141.266 130 141.73V146.587C130 148.051 131.829 148.832 132.946 147.807L142.294 139.363C142.979 138.752 144.021 138.752 144.706 139.363Z" fill="#5986EF"/>
<defs>
<clipPath id="clip0_1_780">
<rect width="21.4875" height="21.4875" fill="white" transform="translate(201.301 80.0593)"/>
</clipPath>
<clipPath id="clip1_1_780">
<rect width="21.4875" height="21.4875" fill="white" transform="translate(7.91248 144.522)"/>
</clipPath>
<clipPath id="clip2_1_780">
<rect width="21.4875" height="21.4875" fill="white" transform="translate(258.6 144.522)"/>
</clipPath>
<clipPath id="clip3_1_780">
<rect width="21.4875" height="21.4875" fill="white" transform="translate(58.5613 80.0593)"/>
</clipPath>
<clipPath id="clip4_1_780">
<rect width="21.4875" height="21.4875" fill="white" transform="translate(133.256 195.171)"/>
</clipPath>
<clipPath id="clip5_1_780">
<rect width="21.4875" height="21.4875" fill="white" transform="translate(131.722 7.92273)"/>
</clipPath>
</defs>
</svg>
