<svg width="535" height="33" viewBox="0 0 535 33" fill="none" xmlns="http://www.w3.org/2000/svg">
<path d="M503.096 17.4389C502.362 17.4665 501.621 17.4855 500.903 17.5269C500.436 17.5528 500.236 17.4769 499.925 17.4372C499.821 17.4234 499.71 17.3957 499.614 17.3992C498.888 17.4268 498.162 17.4579 497.436 17.4889C497.214 17.5562 497.073 17.646 496.732 17.6788C496.399 17.7098 496.006 17.7098 495.636 17.7254C495.147 17.7444 494.658 17.7634 494.169 17.7806C493.925 17.7892 493.725 17.822 493.643 17.8842C493.628 17.8945 493.791 17.9204 493.88 17.9359C494.176 17.9877 494.465 18.0464 494.791 18.0861C495.102 18.1241 495.488 18.0619 495.821 18.1103C496.569 18.219 496.577 18.2173 497.147 18.1966C497.636 18.1776 498.125 18.1569 498.614 18.1431C498.71 18.1396 498.821 18.1655 498.925 18.1793C499.236 18.2173 499.436 18.3036 499.895 18.2708C500.244 18.2449 500.629 18.2397 500.992 18.2259C501.295 18.276 501.577 18.3329 501.903 18.3726C502.207 18.4106 502.296 18.4399 502.133 18.49C501.984 18.5366 501.777 18.5556 501.503 18.559C501.258 18.5607 501.014 18.5763 500.77 18.5849C500.644 18.5901 500.525 18.5935 500.406 18.5987C499.94 18.6177 499.94 18.6177 499.088 18.5072C498.754 18.4641 498.377 18.5245 498.058 18.4831C497.843 18.4554 497.658 18.414 497.451 18.3847C497.362 18.3726 497.221 18.3709 497.11 18.3743C496.74 18.3864 496.369 18.395 496.014 18.4175C495.762 18.433 495.614 18.4813 495.643 18.5297C495.651 18.5487 495.828 18.5763 495.932 18.578C496.169 18.5815 496.421 18.5573 496.651 18.5694C496.873 18.5814 497.103 18.616 497.266 18.6539C497.599 18.7333 497.977 18.6626 498.295 18.6833C498.628 18.7057 498.903 18.7748 499.221 18.8162C499.303 18.8265 499.458 18.8093 499.584 18.8041C499.947 18.792 500.31 18.7817 500.673 18.7696C500.977 18.8196 501.303 18.8645 501.577 18.9215C502.073 19.025 502.607 19.0647 503.251 19.0146C503.614 18.987 503.97 18.9974 504.259 19.0647C504.555 19.1337 504.896 19.1268 505.274 19.113C505.622 19.0992 505.977 19.0613 506.333 19.1096C507.103 19.2166 507.111 19.2218 508.022 19.1803C508.296 19.1683 508.503 19.1648 508.711 19.2045C508.904 19.2408 509.111 19.2718 509.311 19.3063C509.674 19.2943 510.044 19.2822 510.407 19.2684C510.874 19.2494 511.133 19.2735 511.244 19.3702C511.311 19.4289 511.341 19.4824 511.504 19.5221C511.696 19.5704 511.904 19.5687 512.185 19.5549C512.452 19.5428 512.645 19.5238 512.756 19.4617C512.8 19.4358 512.889 19.4116 512.971 19.3909C513.037 19.3754 513.141 19.3512 513.2 19.3547C513.311 19.3616 513.459 19.3805 513.496 19.403C513.859 19.6118 513.859 19.6136 514.23 19.674C514.637 19.7413 515.06 19.8017 515.43 19.8776C515.763 19.9449 516.097 19.9156 516.46 19.9156C516.734 19.9156 516.912 19.9605 516.889 20.0053C516.875 20.0312 516.771 20.0692 516.682 20.0726C515.956 20.1072 515.223 20.1365 514.489 20.1607C514.4 20.1641 514.289 20.133 514.186 20.1175C513.978 20.0864 513.793 20.0381 513.571 20.0278C513.348 20.0174 513.089 20.0433 512.845 20.0519C512.6 20.0606 512.341 20.083 512.119 20.0692C511.896 20.0554 511.719 20.0053 511.511 19.9725C511.415 19.957 511.282 19.9346 511.2 19.9398C510.659 19.9812 510.259 19.9242 509.874 19.8483C509.793 19.8327 509.652 19.8224 509.548 19.8258C508.689 19.8552 507.837 19.8897 506.978 19.9225C506.629 19.9363 506.348 19.8759 506.274 19.7741C506.237 19.7171 506.163 19.6601 506.163 19.6032C506.163 19.4996 505.755 19.4427 505.459 19.4548C504.97 19.472 504.474 19.4858 503.992 19.5117C503.599 19.5324 503.266 19.5117 502.999 19.4496C502.688 19.3788 502.333 19.3926 501.977 19.4116C501.71 19.4254 501.636 19.4824 501.651 19.6256C501.666 19.7413 501.54 19.7775 501.058 19.7965C500.451 19.8207 499.836 19.8448 499.221 19.8638C499.125 19.8673 499.014 19.8379 498.917 19.8224C498.71 19.7913 498.525 19.7413 498.303 19.7309C498.08 19.7188 497.821 19.7447 497.577 19.7551C497.332 19.7637 497.073 19.7879 496.851 19.7758C496.628 19.7637 496.443 19.7119 496.243 19.6791C496.147 19.6636 496.028 19.6412 495.932 19.6446C495.443 19.6584 494.954 19.6791 494.465 19.6981C493.917 19.7188 493.917 19.7188 493.139 19.6118C492.784 19.5635 492.428 19.6015 492.08 19.6153C491.709 19.6291 491.361 19.636 491.072 19.567C490.88 19.5221 490.665 19.4945 490.435 19.5031C489.82 19.5238 489.213 19.5497 488.598 19.5704C488.494 19.5739 488.354 19.5652 488.272 19.5497C487.88 19.4772 487.494 19.4202 486.946 19.4565C486.472 19.4876 485.961 19.4893 485.487 19.5186C485.227 19.5342 485.109 19.5894 485.161 19.6325C485.19 19.655 485.346 19.6809 485.45 19.6809C485.687 19.6826 485.946 19.6567 486.168 19.667C486.628 19.6878 486.857 19.8327 487.457 19.793C487.813 19.7689 488.183 19.7602 488.554 19.7533C488.65 19.7516 488.754 19.7844 488.857 19.8017C489.154 19.8483 489.413 19.9087 489.843 19.8776C490.198 19.8534 490.576 19.8466 490.939 19.8328C491.517 19.8103 491.517 19.812 492.265 19.9173C492.621 19.9674 492.976 19.9277 493.324 19.9156C493.584 19.907 493.828 19.8897 494.035 19.9139C494.354 19.9501 494.584 20.0329 494.976 20.0278C495.347 20.0226 495.71 19.9984 496.08 19.9898C496.31 19.9846 496.525 20.0122 496.71 20.0588C496.903 20.1054 497.11 20.1261 497.362 20.1158C497.725 20.102 498.095 20.0847 498.466 20.0761C498.569 20.0744 498.688 20.0899 498.784 20.1037C498.992 20.1348 499.191 20.171 499.392 20.2038C499.755 20.1935 500.125 20.19 500.481 20.1693C500.755 20.1538 500.947 20.1607 501.17 20.1952C501.451 20.2418 501.681 20.3246 502.14 20.2849C502.37 20.266 502.636 20.2711 502.866 20.2539C503.148 20.2314 503.34 20.2401 503.54 20.2918C503.918 20.3902 504.392 20.3919 504.881 20.354C505.414 20.3125 505.814 20.3609 506.214 20.4368C506.637 20.5162 506.637 20.5145 506.963 20.7061C507.059 20.7613 507.333 20.7872 507.563 20.7768C507.948 20.7596 508.281 20.7682 508.563 20.8338C508.859 20.9045 509.215 20.8959 509.578 20.8769C510.059 20.851 510.541 20.8286 510.933 20.9287C511.126 20.977 511.333 20.9891 511.593 20.977C512.326 20.946 513.067 20.927 513.785 20.889C514.223 20.8649 514.474 20.9201 514.771 20.9667C515.171 21.0305 515.608 21.0875 515.608 21.2238C515.608 21.2463 515.712 21.2722 515.8 21.2894C515.993 21.3257 516.201 21.3567 516.401 21.3913C516.697 21.443 516.986 21.4862 517.393 21.4586C517.749 21.4361 518.127 21.4292 518.49 21.4137C518.852 21.3982 519.186 21.3895 519.512 21.4551C519.89 21.5293 520.29 21.6001 520.719 21.6553C521.023 21.695 521.423 21.6277 521.749 21.6812C521.949 21.714 522.142 21.752 522.356 21.7796C522.445 21.7917 522.586 21.783 522.705 21.7796C522.949 21.7727 523.201 21.7675 523.438 21.7503C523.712 21.7313 523.92 21.7347 524.127 21.7744C524.32 21.8107 524.512 21.8607 524.735 21.8711C525.068 21.8866 525.438 21.8176 525.772 21.897C525.942 21.9367 526.157 21.9746 526.379 21.9867C526.601 21.9988 526.861 21.9729 527.098 21.9746C527.201 21.9746 527.327 22.0022 527.387 22.0247C527.424 22.0368 527.372 22.0695 527.32 22.0868C527.253 22.1075 527.157 22.1351 527.061 22.1386C526.327 22.1697 525.594 22.1955 524.86 22.2249C524.423 22.2421 524.423 22.2421 523.542 22.1334C523.334 22.1075 523.105 22.1127 522.846 22.1248C522.497 22.1403 522.142 22.1697 521.779 22.1386C521.305 22.0212 520.719 22.0109 520.097 22.0557C519.838 22.0747 519.601 22.0747 519.408 22.0419C519.001 21.9763 518.571 21.916 518.208 21.8383C517.927 21.7779 517.793 21.7727 517.675 21.8555C517.638 21.8814 517.601 21.909 517.608 21.9332C517.652 22.0195 517.734 22.1041 517.778 22.1904C517.793 22.2145 517.734 22.2421 517.697 22.268C517.578 22.3405 517.423 22.3353 517.164 22.2749C516.904 22.2145 516.593 22.1748 516.178 22.2025C515.823 22.2266 515.437 22.2232 515.082 22.2491C514.534 22.287 514.148 22.2318 513.756 22.1576C513.674 22.142 513.534 22.1334 513.43 22.1369C512.326 22.1766 511.23 22.2214 510.126 22.2611C509.889 22.2698 509.674 22.2439 509.489 22.1973C509.296 22.1507 509.081 22.1265 508.844 22.1351C507.866 22.1714 506.889 22.2042 505.911 22.2491C505.511 22.268 505.192 22.2456 504.918 22.1852C504.711 22.1403 504.518 22.1265 504.259 22.1317C503.977 22.1369 503.777 22.1541 503.637 22.2042C503.503 22.2525 503.599 22.2818 503.896 22.3198C504.214 22.3612 504.511 22.4147 504.814 22.4631C505.059 22.4562 505.303 22.4423 505.54 22.4441C505.644 22.4441 505.74 22.4751 505.844 22.4924C506.14 22.5424 506.414 22.5925 506.837 22.5649C507.192 22.5407 507.57 22.5356 507.933 22.52C508.437 22.501 508.437 22.501 509.252 22.6098C509.459 22.6374 509.681 22.6356 509.948 22.6201C510.178 22.608 510.415 22.6322 510.578 22.684C510.644 22.7047 510.622 22.7392 510.482 22.8531C510.482 22.9377 510.637 22.8997 510.689 22.8445C510.77 22.7651 510.615 22.7392 510.318 22.7824C510.111 22.8134 510.007 22.8583 510.059 22.8946C510.089 22.9135 510.23 22.9377 510.482 22.8531C511.133 22.7496 511.63 22.7375 512.104 22.7099C512.385 22.6943 512.563 22.7012 512.785 22.7461C513.052 22.7996 513.319 22.8566 513.756 22.829C514.23 22.7979 514.734 22.7944 515.215 22.7685C515.66 22.7444 515.889 22.8203 516.171 22.8652C516.512 22.9187 516.889 22.8583 517.201 22.8894C517.526 22.9204 517.756 22.9964 518.134 23.0102C518.682 22.9636 519.03 23.0499 519.445 23.1068C519.771 23.15 520.156 23.112 520.504 23.093C520.897 23.0723 521.223 23.0913 521.497 23.1534C521.808 23.2242 522.157 23.2087 522.512 23.1931C523.342 23.1586 523.371 23.1534 523.853 23.2484C524.201 23.3174 524.535 23.2863 524.883 23.2777C525.186 23.3243 525.483 23.3743 525.801 23.4158C525.883 23.4261 526.038 23.4089 526.164 23.4037C526.527 23.3899 526.898 23.3761 527.261 23.3623C527.505 23.3536 527.764 23.3278 527.987 23.3381C528.209 23.3502 528.394 23.4002 528.594 23.433C528.794 23.4658 529.002 23.4986 529.194 23.5331C529.491 23.5849 529.772 23.6281 530.187 23.6022C530.542 23.5797 530.913 23.5728 531.283 23.5573C531.75 23.5383 531.735 23.5435 532.602 23.6471C533.069 23.704 533.55 23.635 534.024 23.6281C534.261 23.6246 534.491 23.6436 534.654 23.6937C534.721 23.7144 534.698 23.7489 534.721 23.7782C533.498 23.8248 532.268 23.8645 531.061 23.9215C530.594 23.9439 530.35 23.8818 530.098 23.83C529.683 23.7471 529.135 23.868 528.742 23.761C528.505 23.6971 528.164 23.6609 527.757 23.6919C527.52 23.7092 527.268 23.7075 527.024 23.723C526.401 23.761 525.831 23.7627 525.335 23.6436C525.164 23.6022 524.92 23.5797 524.742 23.54C524.535 23.4969 524.334 23.4727 524.09 23.4814C522.986 23.5228 521.89 23.5642 520.793 23.6091C520.697 23.6125 520.601 23.6384 520.519 23.6574C520.312 23.7057 520.379 23.7437 520.712 23.7748C520.823 23.7851 520.912 23.8076 521.016 23.8248C521.216 23.8576 521.401 23.9094 521.623 23.9215C521.845 23.9336 522.105 23.9094 522.349 23.9008C522.594 23.8921 522.853 23.8662 523.075 23.8766C523.297 23.8887 523.483 23.9387 523.69 23.9698C523.786 23.9853 523.905 24.0112 524.001 24.0095C524.49 23.9991 524.972 23.9802 525.461 23.9646C525.764 24.0112 526.024 24.0785 526.387 24.0941C526.616 24.1044 526.861 24.0854 527.098 24.0889C527.201 24.0906 527.335 24.1165 527.387 24.1389C527.416 24.1527 527.32 24.1873 527.246 24.2045C526.964 24.2701 526.579 24.258 526.231 24.2787C525.853 24.3012 525.512 24.2943 525.223 24.227C525.031 24.1821 524.816 24.1579 524.579 24.1666C523.964 24.189 523.357 24.2149 522.742 24.2339C522.638 24.2373 522.512 24.2218 522.416 24.2097C521.638 24.1044 521.638 24.101 521.09 24.1234C520.282 24.1562 520.282 24.1562 519.742 24.0647C519.638 24.0475 519.527 24.0147 519.438 24.0164C518.578 24.044 517.726 24.0716 516.875 24.1113C516.593 24.1234 516.401 24.1234 516.193 24.0785C516.015 24.0406 515.808 23.9974 515.586 23.9871C515.356 23.9767 515.104 24.0026 514.86 24.0112C514.615 24.0199 514.356 24.0423 514.141 24.0285C513.919 24.0147 513.726 23.9664 513.534 23.9318C513.334 23.8956 513.119 23.8973 512.845 23.9111C512 23.9508 511.993 23.9456 511.156 23.8386C511.059 23.8265 510.933 23.8127 510.83 23.8162C510.215 23.8369 509.607 23.8628 508.992 23.8835C508.755 23.8921 508.526 23.8697 508.363 23.8196C508.296 23.7989 508.318 23.7644 508.274 23.6971C508.222 23.6816 508.281 23.7092 508.296 23.7351C508.407 23.7316 508.541 23.7351 508.622 23.7213C508.83 23.6885 508.933 23.6453 508.881 23.6091C508.852 23.5901 508.711 23.5659 508.622 23.5659C508.459 23.5659 508.318 23.6039 508.274 23.6971C507.807 23.754 507.311 23.7661 506.829 23.7938C506.548 23.811 506.37 23.8024 506.148 23.7575C505.881 23.7023 505.607 23.6488 505.17 23.6764C504.696 23.7074 504.192 23.7126 503.703 23.7368C503.14 23.7644 502.896 23.6091 502.421 23.6125C501.933 23.616 501.444 23.6453 500.955 23.666C500.525 23.6833 500.525 23.6833 499.636 23.5711C499.31 23.5297 498.925 23.5901 498.606 23.5469C498.392 23.5193 498.206 23.4779 497.999 23.4486C497.91 23.4365 497.769 23.4365 497.658 23.4399C497.043 23.4606 496.421 23.4745 495.828 23.5124C495.154 23.5573 494.643 23.509 494.162 23.4071C493.554 23.4261 492.939 23.4365 492.339 23.4693C491.902 23.4934 491.65 23.4365 491.354 23.3899C491.25 23.3744 491.161 23.3485 491.05 23.3416C490.939 23.3347 490.806 23.3485 490.687 23.3536C490.198 23.3726 489.694 23.3813 489.22 23.4123C488.635 23.452 488.413 23.3105 487.961 23.2932C487.657 23.3778 487.494 23.4934 486.894 23.5021C486.405 23.509 485.916 23.5366 485.427 23.5556C485.183 23.5642 484.939 23.5746 484.694 23.5832C484.301 23.5987 484.116 23.666 484.198 23.7696C484.242 23.8265 484.279 23.8835 484.316 23.9405C484.39 24.0423 484.205 24.1286 483.894 24.1407C483.035 24.1735 482.183 24.208 481.323 24.2373C481.094 24.2459 480.871 24.2166 480.686 24.17C480.494 24.1234 480.279 24.1027 480.042 24.1113C479.182 24.1441 478.331 24.1786 477.471 24.208C477.375 24.2114 477.249 24.1942 477.153 24.1804C476.945 24.1493 476.745 24.1131 476.545 24.0803C476.056 24.0958 475.575 24.1061 475.093 24.1268C474.315 24.1579 474.315 24.1596 473.745 24.0647C473.641 24.0475 473.538 24.0147 473.441 24.0164C473.071 24.0233 472.708 24.0406 472.337 24.0561C471.248 24.101 471.248 24.101 470.93 24.0492C470.641 24.0009 470.382 23.9422 469.945 23.9698C469.47 24.0009 468.967 24.0112 468.478 24.0285C468.115 24.0406 467.752 24.0544 467.389 24.0578C467.292 24.0596 467.189 24.0268 467.085 24.0095C466.789 23.956 466.5 23.9128 466.092 23.9422C465.855 23.9594 465.603 23.9629 465.359 23.9715C464.722 23.9957 464.722 23.9957 463.677 23.8921C463.574 23.8818 463.448 23.8697 463.344 23.8749C462.485 23.9059 461.633 23.9405 460.773 23.9698C460.67 23.9733 460.544 23.9629 460.44 23.9543C459.27 23.8542 459.27 23.8542 458.025 23.9025C457.551 23.9197 457.536 23.9267 457.04 23.8352C456.817 23.7955 456.632 23.7765 456.373 23.7886C455.395 23.83 454.41 23.8576 453.44 23.9059C453.002 23.9267 452.751 23.8749 452.454 23.8283C452.35 23.8127 452.239 23.7782 452.151 23.78C451.173 23.8127 450.195 23.8524 449.217 23.8852C449.128 23.8887 449.017 23.8542 448.913 23.8386C448.713 23.8076 448.52 23.761 448.298 23.7506C448.069 23.7403 447.817 23.7661 447.565 23.7748C446.95 23.7972 446.95 23.7955 446.239 23.6937C446.142 23.6799 446.017 23.6609 445.92 23.6643C444.942 23.6988 443.957 23.7282 442.987 23.7782C442.431 23.8058 442.053 23.7558 441.661 23.6833C441.579 23.6678 441.438 23.6609 441.335 23.6643C440.231 23.704 439.135 23.7489 438.031 23.7886C437.801 23.7972 437.579 23.7679 437.394 23.723C437.097 23.6522 436.749 23.6608 436.379 23.6764C435.527 23.7126 435.519 23.7109 435.016 23.6281C434.912 23.6108 434.823 23.5884 434.712 23.5797C434.608 23.5711 434.475 23.5763 434.364 23.5797C433.875 23.597 433.386 23.616 432.897 23.635C432.408 23.6539 431.912 23.6643 431.43 23.6937C430.837 23.7299 430.556 23.6177 430.141 23.5659C429.534 23.5884 428.911 23.6022 428.311 23.6384C427.852 23.666 427.637 23.5901 427.334 23.5504C427.23 23.5366 427.119 23.5072 427.022 23.5107C425.919 23.5487 424.815 23.5901 423.718 23.6367C423.452 23.647 423.274 23.6332 423.052 23.5918C422.555 23.4986 422.533 23.5021 421.703 23.5366C421.34 23.5521 420.992 23.5659 420.681 23.4952C420.407 23.4313 420.074 23.4158 419.681 23.4365C419.199 23.4624 418.703 23.4762 418.214 23.4934C417.725 23.5124 417.236 23.5383 416.747 23.5469C416.355 23.5556 416.118 23.4745 415.807 23.433C415.71 23.421 415.577 23.4192 415.466 23.4227C414.977 23.4382 414.473 23.4503 413.999 23.4796C413.421 23.5159 413.103 23.421 412.695 23.3657C412.606 23.3536 412.458 23.3606 412.347 23.3657C411.488 23.3968 410.636 23.4313 409.776 23.4641C409.473 23.4175 409.161 23.3726 408.858 23.326C408.369 23.3433 407.88 23.3623 407.391 23.3795C407.021 23.3933 406.643 23.3985 406.295 23.4244C405.843 23.4589 405.62 23.3778 405.317 23.3381C405.213 23.3243 405.102 23.295 405.006 23.2984C404.391 23.3174 403.776 23.3381 403.168 23.3675C402.591 23.3968 402.361 23.2414 401.887 23.2432C401.398 23.2449 400.894 23.2673 400.42 23.2984C399.872 23.3347 399.487 23.2794 399.094 23.2052C399.012 23.1897 398.872 23.181 398.768 23.1845C398.153 23.2052 397.546 23.2311 396.931 23.2518C396.827 23.2553 396.701 23.2466 396.598 23.2363C395.427 23.1345 395.427 23.1327 394.916 23.1534C394.553 23.1672 394.183 23.1845 393.812 23.1931C393.708 23.1966 393.582 23.181 393.486 23.1672C392.716 23.062 392.716 23.0602 392.16 23.0809C391.671 23.0999 391.182 23.1189 390.693 23.1379C390.389 23.0913 390.078 23.0464 389.775 22.9998C389.167 23.0223 388.545 23.0395 387.945 23.0706C387.663 23.0844 387.478 23.0792 387.263 23.0361C386.997 22.9843 386.73 22.9239 386.285 22.9532C385.811 22.9843 385.308 22.9877 384.826 23.0136C384.248 23.0447 384.011 22.8876 383.544 22.8894C383.056 22.8911 382.552 22.9135 382.078 22.9446C381.53 22.9808 381.144 22.9256 380.752 22.8514C380.67 22.8359 380.529 22.8272 380.426 22.8307C379.077 22.8807 377.737 22.9308 376.388 22.9843C375.559 23.0171 375.559 23.0188 373.981 22.9239C373.87 22.917 373.751 22.9101 373.64 22.9135C373.151 22.9291 372.647 22.9411 372.173 22.9705C371.595 23.0067 371.277 22.9135 370.869 22.8566C370.78 22.8445 370.64 22.8514 370.521 22.8548C370.151 22.8669 369.788 22.8825 369.417 22.8963C368.928 22.9153 368.439 22.9342 367.951 22.9532C367.647 22.9084 367.336 22.8617 367.032 22.8169C366.424 22.8393 365.802 22.8514 365.202 22.8876C364.743 22.9153 364.528 22.8428 364.224 22.8013C364.12 22.7875 364.009 22.7582 363.913 22.7599C362.809 22.7979 361.706 22.8376 360.609 22.8859C360.157 22.9066 359.95 22.8289 359.646 22.7893C359.542 22.7772 359.424 22.7547 359.328 22.7582C358.594 22.7824 357.861 22.8117 357.127 22.841C356.713 22.8583 356.713 22.8583 355.809 22.7513C355.705 22.7392 355.587 22.7271 355.483 22.7306C353.157 22.8169 350.838 22.9084 348.512 22.9946C348.275 23.0033 348.06 22.9774 347.875 22.9308C347.682 22.8842 347.467 22.86 347.23 22.8687C346.252 22.9049 345.267 22.9377 344.297 22.9826C343.897 23.0016 343.578 22.9791 343.304 22.9187C343.096 22.8738 342.904 22.8566 342.645 22.8669C342.156 22.8876 341.667 22.9049 341.178 22.9239C340.689 22.9429 340.2 22.9619 339.711 22.9808C339.222 22.9998 338.726 23.0102 338.244 23.0395C337.652 23.0758 337.363 22.9688 336.955 22.9153C336.222 22.9412 335.488 22.967 334.762 22.9946C333.785 23.0309 332.807 23.0706 331.829 23.1051C331.74 23.1086 331.629 23.0775 331.525 23.062C331.221 23.0188 330.999 22.9584 330.547 22.9774C328.354 23.0689 326.147 23.1465 323.947 23.2363C323.487 23.2553 323.287 23.181 322.976 23.1413C322.873 23.1293 322.754 23.1051 322.658 23.1086C321.435 23.1517 320.213 23.2 318.991 23.2466C318.494 23.2656 318.494 23.2656 317.665 23.1586C317.568 23.1465 317.442 23.131 317.339 23.1344C315.746 23.1931 314.161 23.2553 312.568 23.3157C312.331 23.3243 312.116 23.3001 311.923 23.2535C311.738 23.2069 311.516 23.1811 311.286 23.1897C309.82 23.2449 308.345 23.2984 306.886 23.3588C306.493 23.3761 306.167 23.3605 305.886 23.2984C305.686 23.2535 305.486 23.2345 305.234 23.2449C303.034 23.3295 300.833 23.4106 298.633 23.5004C298.211 23.5176 297.915 23.4848 297.648 23.4279C297.433 23.383 297.248 23.3744 296.981 23.3813C296.7 23.3899 296.53 23.4089 296.374 23.4606C296.174 23.528 296.048 23.6125 295.574 23.6177C295.085 23.6229 294.589 23.6436 294.107 23.6729C293.648 23.7023 293.433 23.6246 293.144 23.578C292.929 23.5452 292.729 23.54 292.455 23.5556C292.203 23.5694 292.048 23.5987 291.9 23.6539C291.574 23.7713 291.544 23.7713 291.144 23.6971C290.929 23.6574 290.736 23.6263 290.499 23.6332C289.521 23.6678 288.544 23.7057 287.566 23.7454C287.003 23.7679 286.995 23.7713 286.573 23.685C286.366 23.6419 286.166 23.6212 285.921 23.6315C283.232 23.7351 280.543 23.8352 277.854 23.9439C277.439 23.9612 277.157 23.9249 276.861 23.8731C276.765 23.8559 276.669 23.8317 276.557 23.8248C276.446 23.8179 276.32 23.8248 276.202 23.8283C274.246 23.9025 272.283 23.9733 270.335 24.0561C269.89 24.0751 269.653 24.0199 269.349 23.975C269.246 23.9595 269.157 23.9353 269.046 23.9284C268.934 23.9232 268.801 23.9353 268.683 23.9405C266.727 24.0147 264.764 24.0854 262.815 24.1683C262.349 24.1873 262.149 24.1148 261.845 24.0768C261.741 24.063 261.63 24.0371 261.534 24.0406C260.919 24.0595 260.312 24.0854 259.697 24.1079C258.23 24.1648 256.763 24.2183 255.296 24.277C254.733 24.2995 254.489 24.1458 254.015 24.1527C253.4 24.1614 252.792 24.1959 252.177 24.2201C251.688 24.239 251.2 24.2563 250.711 24.277C250.229 24.296 250.229 24.296 249.029 24.1959C248.925 24.1873 248.799 24.1752 248.696 24.1786C246.984 24.2425 245.266 24.3064 243.562 24.3754C243.169 24.3909 242.843 24.3823 242.562 24.3184C242.362 24.2736 242.154 24.2511 241.91 24.2615C239.339 24.3599 236.776 24.4582 234.205 24.5549C234.109 24.5583 233.983 24.5411 233.887 24.5273C233.68 24.4962 233.48 24.46 233.279 24.4272C233.131 24.4669 232.939 24.5031 232.843 24.548C232.709 24.6084 232.531 24.6257 232.25 24.636C231.968 24.6464 231.791 24.6429 231.568 24.598C231.302 24.5428 231.028 24.4997 230.59 24.5169C227.901 24.6256 225.212 24.724 222.523 24.831C222.078 24.8483 221.871 24.7723 221.56 24.7327C221.456 24.7206 221.338 24.7016 221.241 24.7051C220.138 24.7447 219.041 24.7879 217.937 24.8293C214.878 24.9467 211.818 25.0589 208.766 25.1831C208.211 25.2056 207.833 25.1624 207.44 25.0882C207.359 25.0727 207.218 25.064 207.114 25.0675C202.833 25.2297 198.551 25.3937 194.276 25.5577C194.047 25.5663 193.824 25.5387 193.639 25.4938C193.446 25.4472 193.232 25.4248 192.995 25.4334C191.039 25.5076 189.083 25.5818 187.127 25.6578C186.639 25.6768 186.631 25.6785 186.127 25.5956C186.024 25.5784 185.913 25.5456 185.831 25.549C185.661 25.5577 185.498 25.6008 185.379 25.6595C185.261 25.7216 185.075 25.7389 184.801 25.751C184.52 25.763 184.335 25.7579 184.12 25.7164C183.846 25.6647 183.594 25.6146 183.149 25.6319C177.527 25.8528 171.904 26.0651 166.281 26.2843C165.829 26.3015 165.622 26.229 165.311 26.1893C165.207 26.1773 165.103 26.16 164.992 26.1565C164.874 26.1531 164.748 26.1635 164.629 26.1686C155.458 26.519 146.287 26.8711 137.116 27.2215C136.568 27.2422 136.575 27.2422 135.975 27.401C135.901 27.4199 135.804 27.4458 135.701 27.4493C132.893 27.5597 130.078 27.6667 127.263 27.7737C126.041 27.8203 124.818 27.8687 123.596 27.9136C123.159 27.9291 123.159 27.9291 122.114 28.1155C122.025 28.131 121.922 28.1517 121.818 28.1552C116.929 28.3433 112.039 28.5314 107.143 28.7161C106.757 28.7299 106.446 28.761 106.268 28.8438C106.143 28.9025 105.98 28.937 105.735 28.9474C102.313 29.0786 98.8902 29.2115 95.4602 29.3392C95.0528 29.3547 94.8082 29.403 94.6082 29.4755C94.5415 29.4997 94.4822 29.5273 94.3859 29.5445C94.297 29.5601 94.1637 29.5653 94.0526 29.5704C91.119 29.6826 88.1855 29.7983 85.2445 29.9053C84.8074 29.9208 84.6296 29.9847 84.4147 30.052C84.3406 30.0744 84.2887 30.1055 84.1924 30.121C84.0961 30.1348 83.9554 30.1348 83.8369 30.1383C81.3922 30.2315 78.9476 30.3264 76.503 30.4196C76.0289 30.411 75.9251 30.5111 75.6954 30.5715C75.6139 30.5922 75.5548 30.6198 75.4585 30.6336C75.3548 30.6474 75.2213 30.6457 75.0953 30.6491C73.1396 30.7234 71.1839 30.8028 69.2208 30.8718C68.7689 30.8873 68.68 30.9753 68.4355 31.0358C68.354 31.0547 68.2726 31.0841 68.1763 31.0893C66.954 31.1393 65.7317 31.1859 64.5094 31.2308C64.1019 31.2463 64.1019 31.2446 63.3833 31.4155C63.3019 31.4345 63.2055 31.4552 63.1017 31.4603C61.2719 31.5328 59.4348 31.6019 57.5976 31.6726C57.3605 31.6813 57.1976 31.7227 57.0791 31.7814C56.9605 31.84 56.7902 31.878 56.5531 31.8866C55.0863 31.9436 53.6194 32.0023 52.1526 32.0541C51.7452 32.0679 51.4786 32.111 51.3008 32.1887C51.1674 32.2474 51.0044 32.2767 50.7452 32.2871C49.2784 32.3423 47.8116 32.4027 46.3374 32.451C45.9077 32.4648 45.6854 32.5235 45.5076 32.596C45.3669 32.6547 45.2039 32.6754 44.9298 32.6858C42.2406 32.7859 39.5442 32.8859 36.8625 32.9964C36.4106 33.0154 36.1809 32.955 35.8846 32.9118C35.4623 32.8514 35.0698 32.7858 35.0698 32.6512C35.0698 32.6305 34.9438 32.6064 34.8549 32.5891C34.1956 32.4596 34.1956 32.4597 34.0919 32.3216C34.0326 32.237 33.9659 32.1507 33.9141 32.0644C33.8178 31.9229 33.5806 31.8867 32.8991 31.9125C32.6546 31.9212 32.4102 31.9332 32.1657 31.9401C31.8027 31.9522 31.5286 31.8953 31.462 31.7917C31.4249 31.7348 31.3806 31.6778 31.3435 31.6208C31.7139 31.607 31.7064 31.6053 32.3583 31.3965C32.6324 31.3085 32.6325 31.3085 32.1066 31.2204C31.9065 31.1876 31.7139 31.1514 31.4991 31.1203C31.4027 31.1065 31.2769 31.0979 31.1731 31.1013C30.5583 31.1221 29.9508 31.1462 29.3434 31.1704C28.3655 31.2084 28.3654 31.2083 27.3727 31.0323C27.2912 31.0185 27.1653 30.9926 27.1801 30.9788C27.2616 30.9149 27.4616 30.8873 27.7135 30.8804C28.0839 30.8701 28.4468 30.8528 28.8098 30.839C29.0543 30.8304 29.2988 30.82 29.5432 30.8114C29.7729 30.7458 30.0101 30.6819 30.2249 30.6146C30.5657 30.5111 30.5655 30.5076 30.0988 30.4351C29.8025 30.3868 29.484 30.3437 29.1802 30.2988C28.8172 30.3126 28.4469 30.3281 28.0839 30.3402C27.6246 30.3557 27.4393 30.3229 27.3208 30.2108C27.2171 30.1124 27.343 30.0278 27.6986 30.0071C28.0616 29.9864 28.4025 29.9726 28.5877 29.8846C28.7655 29.8 29.0766 29.7672 29.4618 29.7603C29.7063 29.7551 29.9508 29.743 30.1952 29.7327C30.5138 29.7189 30.6842 29.6309 30.6175 29.5325C30.5805 29.4686 30.5064 29.4151 30.2175 29.4013C28.9359 29.3409 28.921 29.3426 28.2839 29.2253C28.2246 29.2149 28.1803 29.1838 28.2025 29.1683C28.2395 29.1424 28.3211 29.1044 28.41 29.0993C29.2619 29.0613 30.1138 29.0268 30.9657 29.0009C31.2472 28.9923 31.4547 28.9802 31.551 28.9163C31.6843 28.8283 31.625 28.7472 31.3658 28.6868C31.2843 28.6678 31.1508 28.6436 31.0619 28.6453C30.084 28.6764 29.1136 28.7161 28.1358 28.7472C28.0469 28.7506 27.884 28.7213 27.8469 28.6989C27.7729 28.6574 27.8839 28.6022 28.1432 28.5832C28.484 28.5573 28.8321 28.5556 29.0618 28.4693C29.3803 28.3468 29.7729 28.2346 30.1285 28.1172C30.1878 28.0965 30.2842 28.0568 30.262 28.0533C30.0768 28.0154 29.8619 27.986 29.6693 27.9498C29.3433 27.8894 29.3433 27.8048 29.4173 27.7237C29.4766 27.6581 29.6989 27.6322 29.9729 27.6322C30.0915 27.6322 30.2396 27.6322 30.3359 27.6167C30.5878 27.5787 30.6693 27.5304 30.5434 27.4941C30.4693 27.4734 30.336 27.4441 30.2471 27.4476C28.6618 27.5045 27.069 27.5597 25.491 27.6305C25.0243 27.6512 24.8096 27.5856 24.5281 27.539C24.3133 27.5028 24.1132 27.489 23.8465 27.5149C23.5946 27.539 23.3502 27.5252 23.1947 27.4683C23.0687 27.4217 23.2909 27.382 23.891 27.3371C24.0021 27.3285 24.128 27.3233 24.2095 27.306C25.0688 27.1196 25.0688 27.1179 25.6614 27.0937C26.2392 27.0713 26.2394 27.0696 26.5431 26.9695C26.6839 26.9229 26.8393 26.8763 26.9727 26.8279C27.0245 26.8089 27.1135 26.7744 27.0839 26.7641C26.9209 26.7106 26.6986 26.6985 26.4393 26.7106C25.8615 26.7399 25.18 26.7158 24.8763 26.8797C24.7578 26.9419 24.5726 26.9591 24.3059 26.9695C21.6241 27.0696 18.9423 27.1766 16.2532 27.2732C15.8161 27.2888 15.6162 27.3526 15.4459 27.4234C15.2977 27.4821 15.1347 27.4993 14.8532 27.5097C14.5717 27.52 14.3493 27.5252 14.1863 27.4683C14.09 27.4337 14.1716 27.3854 14.3938 27.3371C14.7123 27.2681 14.653 27.1818 14.5493 27.1006C14.4753 27.0471 14.2456 27.0092 14.0011 27.0126C13.6382 27.0195 13.2901 27.0385 12.9863 26.9695C12.8085 26.9298 12.5863 26.9021 12.3862 26.8676C12.001 26.7969 11.6158 26.7244 11.075 26.771C10.7046 26.7537 10.4453 26.6916 10.149 26.6433C9.65266 26.5639 9.60821 26.5518 9.96379 26.4672C10.3638 26.3723 10.0526 26.248 10.2749 26.1548C10.5119 26.0547 10.838 25.9667 11.1269 25.8735C11.201 25.8493 11.2677 25.8269 11.3418 25.8027C11.1714 25.7682 11.0158 25.7251 10.8158 25.7009C10.5565 25.6698 10.4232 25.6319 10.438 25.5249C10.3862 25.5093 10.4082 25.549 10.4675 25.5594C10.5342 25.5697 10.6973 25.5611 10.7788 25.549C10.9862 25.5162 11.0898 25.4731 11.0379 25.4368C11.0083 25.4179 10.8676 25.3937 10.7788 25.3937C10.6158 25.3937 10.475 25.4317 10.4306 25.5249C9.60089 25.5956 8.74142 25.6302 7.88209 25.6578C7.79319 25.6612 7.68214 25.6267 7.57842 25.6094C7.23765 25.5508 7.23761 25.5525 6.23752 25.5352C6.13381 25.5335 5.99313 25.5093 5.94127 25.4852C5.72644 25.3799 5.7339 25.2642 5.63019 25.1521C5.8228 25.0796 6.01526 25.0088 6.21528 24.938C6.61531 24.7948 7.13399 24.6688 7.44513 24.5117C7.37846 24.4272 7.28954 24.3426 7.6155 24.2736C8.54151 24.1873 8.53416 24.1873 8.78603 24.1044C9.50461 23.8697 10.2157 23.6332 10.964 23.402C11.164 23.3416 11.164 23.3088 10.8084 23.2829C10.6973 23.276 10.5786 23.2743 10.4601 23.2777C10.0897 23.2898 9.71928 23.3208 9.35628 23.3139C8.99329 23.3088 8.7266 23.2328 8.43028 23.1862C8.12655 23.1379 7.82283 23.0878 7.5191 23.0378C7.17092 23.043 6.82281 23.0913 6.47463 23.0136C6.20794 22.9532 5.8746 22.9101 5.57087 22.86C5.80052 22.7289 6.23025 22.6287 6.56361 22.5131C6.86734 22.4078 6.87459 22.4096 7.68947 22.3284C8.07469 22.2905 8.20804 22.0954 7.88209 22.0385C7.48946 21.9694 7.0747 21.9056 6.67466 21.84C6.32648 21.8452 5.97097 21.8918 5.63761 21.8141C5.37833 21.7554 5.08195 21.7157 4.65228 21.7382C3.92629 21.7761 3.18551 21.7951 2.45211 21.8262C2.20023 21.8365 1.92606 21.8297 1.81494 21.771C1.74086 21.7295 1.9557 21.6726 2.20017 21.6605C2.57057 21.6432 2.9039 21.6225 3.0891 21.5362C3.26689 21.4499 3.59281 21.424 3.97803 21.412C4.08174 21.4085 4.20036 21.3878 4.25221 21.3671C4.5189 21.267 4.81525 21.1807 5.38567 21.1841C5.62273 21.1496 5.74858 21.1065 5.6745 21.065C5.63005 21.0426 5.47456 21.0133 5.38567 21.0167C4.7708 21.034 4.15595 21.0513 3.5559 21.0823C3.2744 21.0961 3.05945 21.0996 2.88165 21.0478C2.75572 21.0133 2.82238 20.9667 3.05944 20.9166C3.26686 20.8735 3.32619 20.8234 3.31138 20.7647C3.27434 20.6284 3.05205 20.5887 2.34088 20.5973C1.82972 20.6042 1.70378 20.5818 1.59266 20.4644C1.56303 20.4368 1.48908 20.3988 1.54093 20.3799C1.85948 20.2625 2.06692 20.1175 2.66697 20.0623C2.90403 20.0416 3.1558 20.0416 3.30396 19.9967C3.45212 19.9518 3.58553 19.9 3.7411 19.8569C3.93371 19.8051 4.06693 19.7568 3.97803 19.724C3.82987 19.6653 3.59289 19.6602 3.31879 19.6809C3.08174 19.6981 2.82987 19.6998 2.5854 19.7102C2.14833 19.7292 1.79282 19.6843 1.74096 19.6084C1.60021 19.4082 1.45201 19.2097 1.32607 19.0095C1.31125 18.9853 1.34819 18.9542 1.40746 18.9335C1.61488 18.861 1.83721 18.792 2.05204 18.7212C2.30392 18.6401 2.70402 18.6557 3.04479 18.6401C3.52631 18.6177 3.52615 18.6194 4.17065 18.4537C4.42252 18.3881 4.85962 18.414 5.1189 18.3553C5.20039 18.3364 5.32632 18.3053 5.3041 18.288C5.27447 18.2656 5.12639 18.2483 5.01527 18.238C4.91155 18.2276 4.78565 18.2225 4.67452 18.2276C3.32626 18.2777 1.98544 18.3312 0.637172 18.3795C0.407522 18.3881 0.155641 18.3502 0.0741529 18.2967C-0.00733571 18.2466 0.0148161 18.1862 0 18.1292C0.214833 18.0585 0.459205 17.9929 0.644406 17.917C0.785159 17.8583 0.948166 17.8324 1.22967 17.8289C1.60007 17.8238 1.9631 17.803 2.37796 17.7875C3.14839 17.5355 3.90396 17.2715 4.73367 17.0195C5.06703 16.9176 4.98567 16.8141 5.05234 16.7053C5.11901 16.6052 5.61533 16.6208 5.94869 16.5914C6.21538 16.5673 6.30416 16.512 6.20045 16.4741C6.14118 16.4516 6.00791 16.4257 5.9042 16.4257C5.65973 16.4257 5.41527 16.4413 5.17081 16.4499C4.92634 16.4585 4.64485 16.4534 4.44483 16.4827C4.25222 16.5103 4.12621 16.569 4.00028 16.6191C3.85952 16.6743 3.67445 16.6933 3.39295 16.6967C3.02995 16.7002 2.66698 16.7157 2.30398 16.7278C1.90395 16.6605 1.48901 16.5949 1.10379 16.5241C1.02971 16.5103 1.01482 16.4706 1.02222 16.4447C1.03704 16.3774 0.925949 16.336 0.681483 16.3032C0.474057 16.2756 0.303658 16.2359 0.111048 16.2014C0.259209 16.1548 0.422245 16.1099 0.540773 16.0599C0.800055 15.9546 1.12605 15.8786 1.68906 15.8821C1.9113 15.8148 2.08904 15.7319 2.37796 15.6853C2.65205 15.6405 3.11878 15.6853 3.32621 15.5835C3.42992 15.5334 3.58558 15.4765 3.78559 15.4558C4.10414 15.423 4.51898 15.4403 4.70419 15.3436C4.81531 15.2884 4.97822 15.2383 5.19305 15.2245C5.43752 15.209 5.68933 15.2055 5.86712 15.1727C5.96342 15.1555 6.06715 15.1279 6.06715 15.1037C6.06715 15.0882 5.91911 15.064 5.81539 15.0536C5.71909 15.0416 5.59301 15.0329 5.48189 15.0364C5.11148 15.0467 4.7485 15.0657 4.37809 15.0761C4.27438 15.0795 4.15589 15.0675 4.04477 15.0571C3.71881 15.0295 3.74099 14.995 4.00028 14.9328C4.25956 14.8724 4.44486 14.7947 4.65969 14.724C4.89675 14.7119 5.19303 14.7171 5.35601 14.6843C5.63011 14.6308 5.82266 14.5531 6.04491 14.4858C6.28937 14.4754 6.54123 14.472 6.77088 14.453C6.86718 14.4461 6.91167 14.4081 6.99316 14.3857C7.14132 14.3426 7.26736 14.2804 7.46737 14.2597C7.79333 14.2287 8.19336 14.2407 8.38597 14.1458C8.49709 14.0906 8.66741 14.0319 8.87483 14.0284C9.45266 14.0215 9.69713 13.9266 9.99345 13.8369C10.2157 13.7695 10.6898 13.8041 10.9343 13.7368C11.0973 13.6936 11.2159 13.6401 11.3788 13.5987C11.4455 13.5814 11.5862 13.5728 11.6973 13.5676C12.3048 13.5417 12.9196 13.5227 13.5271 13.4951C13.6234 13.4899 13.7124 13.4641 13.7865 13.4434C13.942 13.3985 14.0382 13.3363 14.2308 13.307C14.4234 13.2777 14.6975 13.2777 14.9346 13.269C15.6976 13.2431 15.7569 13.25 16.1051 13.1033C16.3866 12.9842 17.0756 13.0688 17.3053 12.9376C17.4386 12.8617 17.683 12.7996 18.1201 12.7909C18.7349 12.7789 19.3424 12.7461 19.9572 12.7236C20.5054 12.7029 20.4981 12.7029 21.0907 12.5424C21.3574 12.4699 21.7501 12.4803 22.0983 12.4665C22.4687 12.4527 22.8094 12.432 22.9872 12.3457C23.165 12.2611 23.4909 12.2335 23.8687 12.2214C24.2169 12.2093 24.6096 12.2179 24.8837 12.1489C25.5504 11.9832 25.543 11.9815 26.0098 11.9642C26.7431 11.9366 27.4765 11.909 28.2099 11.8797C28.6989 11.8607 29.21 11.8572 29.6693 11.8192C30.0026 11.7916 30.1508 11.695 30.3656 11.6277C30.9731 11.6018 31.5805 11.5759 32.188 11.5517C33.0399 11.5172 33.8992 11.4861 34.7585 11.4534C35.1289 11.3878 35.1809 11.2428 35.8032 11.2359C36.1736 11.2324 36.5366 11.21 36.907 11.1962C37.5218 11.172 38.1293 11.141 38.7441 11.1289C39.2109 11.1202 39.2922 11.027 39.5367 10.9684C39.6182 10.9476 39.6923 10.9183 39.7886 10.9131C40.7517 10.8648 41.7443 10.8545 42.6851 10.7837C42.7814 10.7768 42.8703 10.7405 42.8925 10.7146C42.9074 10.7008 42.7814 10.675 42.6999 10.6629C42.6036 10.6491 42.4777 10.6353 42.374 10.6387C39.3145 10.7544 36.2551 10.8717 33.1955 10.9874C32.7659 11.0046 32.7659 11.0029 31.7213 11.1927C31.6324 11.2083 31.5286 11.2255 31.4175 11.2307C30.9286 11.2514 30.4322 11.2635 29.9507 11.2894C29.5581 11.3101 29.2322 11.2894 28.9507 11.2272C28.7507 11.1824 28.5432 11.1686 28.2913 11.172C28.0098 11.1772 27.8247 11.1962 27.6617 11.2428C27.4469 11.3067 27.3357 11.3895 26.8839 11.4067C24.8022 11.481 22.7204 11.5638 20.6461 11.6432C20.3572 11.619 20.2165 11.5828 20.2906 11.5396C20.335 11.5138 20.424 11.4792 20.5129 11.4758C21.3648 11.4395 22.2241 11.4085 23.076 11.374C23.1945 11.3688 23.3575 11.3722 23.4242 11.355C23.7501 11.2773 23.8688 11.1513 24.4836 11.1427C24.8392 11.1375 25.2022 11.1116 25.5429 11.0875C25.6393 11.0806 25.7282 11.0443 25.7504 11.0184C25.7578 11.0046 25.6393 10.9787 25.5504 10.9666C25.2244 10.9166 24.8467 10.977 24.5207 10.9425C24.4096 10.9304 24.2539 10.9131 24.2317 10.8924C24.2169 10.8734 24.3428 10.8424 24.4317 10.8234C24.5132 10.8061 24.6243 10.7906 24.7354 10.7854C25.7133 10.7457 26.6913 10.7043 27.6691 10.6732C28.0692 10.6611 28.3506 10.618 28.5284 10.5386C28.6618 10.4799 28.8247 10.4489 29.0766 10.4402C30.7879 10.3764 32.4991 10.3056 34.2178 10.2469C34.6474 10.2331 34.8697 10.1762 35.0475 10.102C35.1883 10.0433 35.3513 10.0226 35.6254 10.0122C38.0775 9.92246 40.5146 9.82236 42.9667 9.73606C43.4186 9.72053 43.552 9.64631 43.7817 9.58245C43.8632 9.56001 43.9149 9.5324 44.0186 9.51859C44.1223 9.50478 44.2556 9.50649 44.3816 9.50304C46.3373 9.42883 48.2932 9.34945 50.2563 9.28041C50.7156 9.26488 50.8043 9.17857 51.0414 9.11816C51.1229 9.09918 51.197 9.06812 51.2933 9.06294C52.7601 9.00426 54.2269 8.94903 55.6937 8.89208C56.6715 8.85411 57.6494 8.81613 58.6272 8.77989C59.1088 8.76263 59.1088 8.76089 59.7607 8.59693C59.8348 8.57794 59.9386 8.5555 60.0349 8.55033C62.8499 8.43987 65.6575 8.3346 68.4726 8.22587C68.7096 8.21724 68.88 8.17752 68.9985 8.11884C69.117 8.06016 69.2876 8.02047 69.5172 8.01184C71.7174 7.92554 73.9176 7.84098 76.1252 7.75986C76.5252 7.74605 76.8066 7.70462 76.9844 7.62696C77.1178 7.56828 77.2807 7.53722 77.5326 7.52859C79.7328 7.44574 81.9331 7.35771 84.1407 7.27832C84.563 7.26278 84.7703 7.20411 84.9777 7.13507C85.0518 7.11091 85.1111 7.07121 85.2 7.06776C86.2964 7.01943 87.3853 6.96938 88.4891 6.93658C88.9484 6.92278 89.1041 6.85028 89.2893 6.78125C89.4374 6.72602 89.6079 6.70704 89.8894 6.70013C90.5042 6.6846 91.1117 6.65527 91.7117 6.62593C91.8006 6.62075 91.9118 6.58278 91.9192 6.55862C91.934 6.51374 91.7635 6.48267 91.482 6.46714C88.5484 6.57932 85.6075 6.6915 82.6739 6.80368C82.1924 6.82267 82.1924 6.82268 81.5405 6.98664C81.4664 7.00563 81.3626 7.02807 81.2589 7.03325C78.4438 7.14198 75.6362 7.24899 72.8212 7.35772C72.5841 7.36635 72.4138 7.40605 72.2952 7.46473C72.1767 7.52341 72.0062 7.56311 71.7765 7.57174C69.0874 7.67529 66.3984 7.78058 63.7018 7.87896C63.3018 7.89276 63.0204 7.93244 62.8426 8.01184C62.7092 8.07052 62.5463 8.1016 62.2944 8.11023C59.7238 8.20688 57.1605 8.3087 54.5825 8.4019C54.3232 8.41053 54.1307 8.36047 54.1455 8.31387C54.1529 8.28971 54.2639 8.25003 54.3528 8.24658C55.6936 8.18963 57.0272 8.13094 58.3755 8.08779C58.8274 8.07398 58.9606 7.99804 59.1903 7.93418C59.2643 7.91174 59.3237 7.8824 59.42 7.87032C59.5237 7.85651 59.657 7.85824 59.7829 7.85479C62.961 7.73225 66.1391 7.60799 69.3246 7.49235C69.7839 7.47509 69.8727 7.39051 70.1097 7.3301C70.1912 7.30939 70.2654 7.27833 70.3617 7.27488C71.3395 7.23346 72.3174 7.19721 73.2952 7.16096C75.0065 7.09538 76.7177 7.02979 78.4364 6.96421C78.9327 6.94522 78.9327 6.94521 79.5698 6.78297C79.6439 6.76399 79.7477 6.73984 79.844 6.73639C84.3703 6.56207 88.8967 6.38775 93.423 6.21516C93.6601 6.20653 93.8304 6.16683 93.949 6.10815C94.0675 6.05119 94.2378 6.00977 94.4675 5.99942C100.587 5.76469 106.698 5.52995 112.817 5.29868C113.217 5.28314 113.499 5.2469 113.677 5.16578C113.802 5.1071 113.973 5.07604 114.225 5.06568C120.951 4.80852 127.678 4.55136 134.412 4.29247C138.938 4.11988 143.464 3.94383 147.991 3.77469C148.406 3.75916 148.628 3.70564 148.835 3.63488C148.902 3.61072 148.968 3.57102 149.057 3.56756C150.028 3.52442 150.998 3.48473 151.969 3.44503C152.272 3.49163 152.576 3.53651 152.88 3.58311C153.11 3.51753 153.332 3.45021 153.562 3.38463C155.028 3.33458 156.473 3.25691 157.954 3.23274C158.051 3.23102 158.154 3.26382 158.258 3.28108C158.947 3.38981 159.34 3.38118 159.777 3.2362C159.932 3.18442 160.066 3.13782 160.303 3.12919C161.036 3.09813 161.777 3.07741 162.503 3.04117C162.896 3.02218 163.222 3.03944 163.503 3.10157C163.703 3.14645 163.911 3.16544 164.155 3.15509C165.503 3.10331 166.844 3.05325 168.192 2.99802C168.289 2.99457 168.378 2.96522 168.452 2.94451C168.607 2.89963 168.741 2.85132 168.889 2.80472C169.089 2.83406 169.311 2.8565 169.474 2.89447C169.681 2.93934 169.874 2.93933 170.156 2.92725C175.534 2.71841 180.919 2.51476 186.298 2.30419C186.757 2.28693 186.957 2.35943 187.268 2.3974C187.372 2.41121 187.476 2.42846 187.587 2.43191C187.705 2.43536 187.831 2.42502 187.95 2.41984C191.987 2.2645 196.025 2.11089 200.062 1.95555C200.595 1.93484 200.595 1.93484 201.388 2.04185C201.484 2.05566 201.61 2.07119 201.714 2.06601C203.551 1.9987 205.388 1.92622 207.218 1.85718C207.455 1.84855 207.655 1.87616 207.87 1.91586C208.292 1.99353 208.322 1.99353 208.633 1.87962C208.781 1.82612 208.937 1.79331 209.181 1.77778C209.448 1.76052 209.663 1.76571 209.87 1.79678C210.166 1.83993 210.381 1.91241 210.833 1.89342C212.789 1.8123 214.752 1.745 216.7 1.66215C217.145 1.64317 217.382 1.70184 217.678 1.74499C217.782 1.76053 217.878 1.78469 217.989 1.78987C218.1 1.79505 218.234 1.78295 218.352 1.77778C220.797 1.68458 223.249 1.59312 225.686 1.49301C226.146 1.47403 226.346 1.54823 226.657 1.5862C226.76 1.60001 226.879 1.62418 226.975 1.62073C228.442 1.56723 229.916 1.51026 231.383 1.4533C231.909 1.43259 231.909 1.43431 232.709 1.5396C232.805 1.5534 232.931 1.56721 233.035 1.56376C234.746 1.4999 236.465 1.43432 238.176 1.36873C238.702 1.34802 238.702 1.34802 240.221 1.43777C240.332 1.44468 240.451 1.45505 240.562 1.45159C242.517 1.37738 244.48 1.30488 246.436 1.22549C246.829 1.20995 247.155 1.22376 247.436 1.28589C247.636 1.33076 247.844 1.34976 248.088 1.3394C250.288 1.25483 252.496 1.17372 254.689 1.08397C255.111 1.06671 255.385 1.10467 255.681 1.15472C255.778 1.17198 255.874 1.19614 255.985 1.20305C256.096 1.20995 256.222 1.20304 256.341 1.19787C258.541 1.11329 260.749 1.03391 262.941 0.942431C263.386 0.923446 263.623 0.982124 263.919 1.02527C264.023 1.04081 264.134 1.07187 264.223 1.07015C265.082 1.04081 265.942 1.01493 266.794 0.971779C267.253 0.947616 267.453 1.02699 267.764 1.06497C267.868 1.07705 267.986 1.10295 268.082 1.0995C269.92 1.03219 271.757 0.961427 273.587 0.888938C273.846 0.878583 274.039 0.894102 274.246 0.938976C274.52 0.999383 274.839 1.02355 275.239 1.00456C276.091 0.964866 276.95 0.937258 277.809 0.904466C278.313 0.88548 278.313 0.885486 279.854 0.975235C279.965 0.982138 280.084 0.992486 280.195 0.989035C281.662 0.933805 283.136 0.880304 284.595 0.819897C284.988 0.802637 285.314 0.818167 285.595 0.8803C285.795 0.925174 285.995 0.94417 286.247 0.933814C287.595 0.882036 288.936 0.830254 290.285 0.778476C290.774 0.759491 291.262 0.72669 291.751 0.72669C292.107 0.728416 292.366 0.811257 292.685 0.852679C292.774 0.864761 292.922 0.850969 293.04 0.847517C294.752 0.781932 296.47 0.721519 298.174 0.647304C298.619 0.628318 298.856 0.686997 299.152 0.730145C299.256 0.745678 299.367 0.776747 299.456 0.775021C300.071 0.756036 300.678 0.730144 301.293 0.707707C302.026 0.680092 302.767 0.659381 303.493 0.62141C304.086 0.590344 304.308 0.740495 304.782 0.745672C305.145 0.75085 305.515 0.721514 305.878 0.707707C306.612 0.680092 307.345 0.649029 308.079 0.624866C308.338 0.616236 308.538 0.588609 308.62 0.526476C308.634 0.514394 308.508 0.488516 308.427 0.472983C307.442 0.296938 307.442 0.29693 306.449 0.3349C305.834 0.359063 305.227 0.38323 304.612 0.403941C304.508 0.407393 304.389 0.393587 304.286 0.383231C303.989 0.35389 304.019 0.319375 304.271 0.257242C304.523 0.195108 304.715 0.119174 304.93 0.0484107C305.234 0.0932849 305.53 0.138143 305.834 0.183017C306.079 0.174388 306.323 0.164047 306.567 0.155418C307.79 0.110543 309.012 0.0639399 310.234 0.0225176C310.323 0.0190657 310.434 0.0535894 310.538 0.0708487C310.834 0.120901 311.101 0.164037 311.531 0.145052C312.627 0.0949999 313.731 0.0587554 314.827 0.0156071C315.309 -0.00337813 315.309 -0.00337644 316.153 0.103631C316.25 0.115713 316.376 0.129521 316.479 0.126069C317.583 0.0863728 318.68 0.0432296 319.783 0.00180725C320.02 -0.00682241 320.25 0.0156139 320.421 0.0656658C320.487 0.086377 320.472 0.120889 320.754 0.403941C321.628 0.63349 322.228 0.609339 322.836 0.588628C323.095 0.579998 323.324 0.57136 323.495 0.536842C323.584 0.517856 323.695 0.490237 323.695 0.4678C323.695 0.450541 323.532 0.422921 323.428 0.419469C322.695 0.38495 321.998 0.45745 321.28 0.472983C320.946 0.479887 320.658 0.419478 320.598 0.3211C320.583 0.293485 320.561 0.264146 320.539 0.236531C320.517 0.208916 320.502 0.179577 320.48 0.151962C320.191 0.143333 320.02 0.174394 319.895 0.233076C319.791 0.281402 319.643 0.336632 319.443 0.362521C319.243 0.390136 318.968 0.384967 318.724 0.393597C318.487 0.402227 318.228 0.424661 318.005 0.41258C317.783 0.398772 317.605 0.348712 317.398 0.317645C317.302 0.302112 317.183 0.279683 317.087 0.283135C316.235 0.312476 315.39 0.341805 314.546 0.379776C314.101 0.400487 313.879 0.328009 313.598 0.283135C313.375 0.248616 313.153 0.257235 313.116 0.336628C313.02 0.52648 313.361 0.605869 314.116 0.569624C314.739 0.538557 315.302 0.533396 315.79 0.650759C315.857 0.666292 316.013 0.673193 316.109 0.669742C316.716 0.64903 317.316 0.623139 317.924 0.602428C318.035 0.598976 318.154 0.605869 318.257 0.612772C319.769 0.705973 319.769 0.707708 320.28 0.686997C320.524 0.676641 320.761 0.668011 320.739 0.405669C321.206 0.124342 321.947 0.105361 322.665 0.0639382C323.132 0.0380493 323.332 0.113994 323.635 0.15369C323.739 0.167497 323.85 0.195107 323.947 0.191655C325.539 0.1347 327.125 0.0742837 328.71 0.0104243C328.977 6.86748e-05 329.169 0.0104259 329.377 0.0553001C329.643 0.112256 329.94 0.148508 330.362 0.127797C331.207 0.0863745 332.066 0.0604914 332.925 0.0259728C333.362 0.0087135 333.362 0.0086958 334.244 0.115704C334.34 0.127785 334.466 0.141593 334.57 0.138141C335.429 0.108801 336.281 0.072567 337.133 0.0415003C337.37 0.0328706 337.585 0.0570311 337.77 0.103631C337.955 0.150231 338.178 0.174392 338.407 0.165762C339.267 0.134695 340.119 0.100188 340.97 0.0691211C341.074 0.0656692 341.2 0.0777499 341.296 0.0898314C342.2 0.196839 342.2 0.196821 342.615 0.179562C343.222 0.153673 343.845 0.141605 344.445 0.107086C345.03 0.0725679 345.334 0.172663 345.734 0.227893C346.83 0.188197 347.934 0.155413 349.023 0.107086C349.467 0.0863753 349.704 0.143326 350.001 0.1882C350.105 0.203734 350.208 0.23653 350.304 0.234804C350.675 0.2279 351.038 0.208918 351.401 0.195111C351.764 0.181303 352.134 0.167497 352.497 0.15369C352.912 0.203742 353.186 0.321104 353.779 0.281407C354.135 0.257244 354.512 0.252066 354.875 0.238259C355.238 0.224451 355.609 0.210646 355.972 0.196838C356.216 0.188209 356.468 0.183023 356.705 0.16749C357.142 0.141601 357.357 0.226182 357.668 0.264152C357.772 0.276234 357.89 0.296931 357.987 0.293479C358.72 0.269316 359.461 0.248607 360.179 0.20891C360.735 0.177844 361.113 0.229628 361.506 0.302117C361.587 0.317651 361.728 0.32628 361.831 0.322828C362.691 0.293487 363.543 0.257232 364.395 0.226166C364.624 0.217536 364.847 0.24515 365.032 0.290024C365.224 0.336624 365.439 0.359078 365.676 0.350449C366.528 0.319382 367.388 0.284853 368.24 0.253786C368.343 0.250334 368.469 0.264144 368.565 0.277952C369.395 0.38496 369.395 0.386687 369.884 0.365976C370.003 0.360798 370.129 0.357333 370.247 0.352155C370.855 0.327992 371.484 0.319374 372.077 0.277952C372.758 0.231352 373.255 0.290036 373.736 0.388414C374.344 0.367703 374.966 0.355619 375.559 0.3211C376.003 0.295211 376.24 0.360793 376.536 0.403941C376.64 0.419475 376.751 0.450542 376.84 0.44709C377.699 0.417749 378.559 0.391869 379.403 0.348721C379.863 0.324558 380.063 0.40221 380.374 0.441907C380.478 0.455714 380.589 0.47989 380.685 0.476438C381.174 0.462631 381.663 0.441909 382.152 0.422924C382.722 0.400487 382.722 0.402211 383.478 0.507493C383.833 0.557545 384.189 0.517847 384.537 0.505765C384.908 0.491958 385.256 0.481606 385.552 0.552369C385.737 0.597243 385.96 0.624859 386.189 0.617955C386.678 0.602422 387.174 0.586896 387.656 0.561007C388.041 0.540296 388.374 0.554096 388.656 0.617955C388.856 0.662829 389.063 0.68528 389.308 0.674924C390.404 0.633502 391.508 0.590338 392.605 0.550641C392.701 0.547189 392.834 0.562729 392.923 0.578262C393.13 0.609329 393.331 0.64384 393.531 0.678359C394.012 0.662825 394.508 0.655939 394.982 0.631776C395.486 0.607613 395.946 0.598981 396.338 0.693907C396.42 0.714618 396.538 0.743943 396.634 0.742217C397.005 0.735313 397.368 0.718059 397.731 0.704252C398.094 0.690444 398.464 0.676639 398.827 0.662831C399.249 0.705979 399.516 0.830245 400.109 0.790548C400.465 0.766385 400.842 0.761207 401.205 0.7474C401.568 0.733593 401.939 0.718061 402.302 0.705979C402.42 0.702527 402.554 0.693893 402.657 0.700797C402.768 0.7077 402.865 0.731868 402.961 0.749128C403.257 0.79918 403.531 0.849238 403.954 0.819897C404.309 0.795734 404.687 0.790554 405.05 0.775021C405.546 0.756036 405.546 0.756039 406.369 0.864773C406.702 0.909647 407.08 0.850968 407.398 0.888938C407.613 0.914827 407.798 0.957966 408.006 0.987307C408.095 0.999388 408.235 1.00456 408.339 1.00111C408.828 0.985573 409.324 0.970048 409.806 0.944159C410.199 0.923447 410.525 0.944156 410.799 1.00629C410.999 1.05116 411.199 1.07016 411.451 1.0598C412.673 1.01148 413.895 0.970042 415.11 0.916538C415.525 0.897553 415.858 0.926901 416.088 0.989035C416.481 1.09604 417.036 0.970052 417.444 1.05635C417.696 1.10985 417.948 1.17199 418.407 1.1461C419.251 1.10123 420.111 1.07705 420.963 1.04598C421.266 1.09258 421.57 1.13919 421.881 1.18579C422.37 1.16681 422.859 1.14781 423.348 1.13055C423.711 1.11674 424.081 1.10121 424.444 1.08913C424.563 1.08568 424.689 1.07877 424.8 1.0874C424.911 1.09603 425 1.11848 425.104 1.13573C425.615 1.22031 425.615 1.22204 426.459 1.18752C426.822 1.17199 427.171 1.16163 427.474 1.23067C427.756 1.29453 428.089 1.3066 428.474 1.28762C429.2 1.2531 429.934 1.22721 430.675 1.20305C430.904 1.19442 431.119 1.22376 431.312 1.26863C431.6 1.3394 431.956 1.3325 432.319 1.31351C432.801 1.28935 433.275 1.26519 433.682 1.36184C433.764 1.38255 433.89 1.41188 433.979 1.41015C434.586 1.39634 435.201 1.386 435.793 1.3532C436.386 1.32041 436.675 1.42741 437.082 1.47919C437.69 1.45676 438.305 1.43432 438.912 1.41188C439.031 1.4067 439.172 1.39118 439.275 1.39981C439.712 1.43605 439.964 1.56549 440.564 1.5258C440.912 1.50336 441.29 1.49646 441.653 1.49129C441.75 1.48956 441.876 1.51889 441.942 1.54132C441.979 1.55341 441.942 1.5862 441.898 1.60345C441.764 1.65178 441.601 1.69667 441.483 1.74672C441.468 1.75362 441.609 1.78468 441.69 1.79849C441.89 1.82955 442.12 1.82439 442.387 1.81058C442.616 1.7985 442.853 1.82266 443.016 1.87444C443.083 1.89515 443.061 1.92966 442.92 2.04358C442.92 2.12815 443.076 2.09017 443.127 2.03494C443.209 1.95554 443.053 1.92966 442.757 1.97281C442.55 2.00387 442.446 2.04875 442.498 2.085C442.527 2.10398 442.668 2.12815 442.92 2.04358C443.572 1.94002 444.061 1.92104 444.55 1.90206C444.676 1.89688 444.824 1.87961 444.913 1.88997C445.231 1.93139 445.528 1.98145 445.839 2.02805C446.194 2.01769 446.528 1.99179 446.876 2.0591C447.365 2.15403 447.387 2.1454 447.861 2.12642C448.106 2.11606 448.35 2.10745 448.595 2.09882C448.839 2.09019 449.032 2.11607 449.246 2.15577C449.684 2.23688 449.721 2.23688 450.009 2.12642C450.18 2.05911 450.298 2.03667 450.513 2.06774C451.224 2.17302 451.232 2.17992 451.839 2.14885C452.343 2.12297 452.817 2.11606 453.188 2.21444C453.439 2.28348 453.521 2.26795 453.721 2.19546C454.254 2.00388 454.499 2.00733 455.499 2.1454C455.966 2.21098 456.447 2.14023 456.921 2.1316C457.321 2.1247 457.603 2.16611 457.632 2.27484C457.655 2.34216 457.721 2.39049 457.988 2.41293C458.092 2.42156 458.218 2.43363 458.321 2.43018C458.936 2.40947 459.544 2.3853 460.159 2.36114C460.47 2.34906 460.64 2.26796 460.581 2.16095C460.514 2.04704 460.633 2.0056 461.077 1.97281C461.344 1.95382 461.559 1.95729 461.774 1.98836C462.011 2.02287 461.944 2.05394 461.737 2.11607C461.24 2.26795 461.299 2.36114 461.937 2.46642C462.159 2.50266 462.336 2.53547 462.388 2.58898C462.418 2.61659 462.388 2.65283 462.455 2.67354C462.818 2.78918 463.322 2.8634 463.885 2.91863C464.426 2.87203 464.796 2.94969 465.211 3.01182C465.537 3.06015 465.922 3.01873 466.27 3.00148C466.663 2.98249 466.989 2.99629 467.27 3.06015C467.47 3.10503 467.678 3.12573 467.922 3.1171C468.411 3.09811 468.907 3.08604 469.389 3.05842C469.804 3.03426 470.115 3.06878 470.374 3.12747C470.7 3.20168 471.063 3.15162 471.404 3.16198C471.863 3.17406 472.093 3.32766 472.693 3.28624C473.049 3.26207 473.419 3.25345 473.789 3.24654C473.886 3.24482 474.004 3.27416 474.086 3.29488C474.478 3.3898 474.938 3.38462 475.441 3.35701C475.79 3.33802 476.13 3.32077 476.471 3.38635C477.034 3.49681 477.656 3.59347 478.249 3.6953C478.331 3.7747 478.271 3.86788 478.693 3.91448C478.916 3.93864 479.123 3.9749 479.294 4.0146C479.501 4.0612 479.694 4.07328 479.96 4.0612C480.442 4.03704 480.946 4.03184 481.42 4.00077C481.857 3.97316 482.131 4.03013 482.397 4.08364C482.612 4.12679 482.812 4.14749 483.072 4.11642C483.338 4.08708 483.531 4.10606 483.746 4.15266C484.05 4.21652 484.072 4.20962 485.079 4.22861C485.183 4.23034 485.309 4.25621 485.368 4.27865C485.398 4.29073 485.331 4.32527 485.279 4.34253C485.213 4.36324 485.109 4.38739 485.013 4.39256C483.916 4.43744 482.812 4.47714 481.716 4.52201C481.605 4.52719 481.486 4.53928 481.405 4.55654C481.316 4.57553 481.205 4.6014 481.205 4.62556C481.205 4.64282 481.353 4.66354 481.457 4.67562C481.783 4.71532 482.168 4.65491 482.486 4.69979C482.701 4.72913 482.879 4.77054 483.094 4.79815C483.183 4.81024 483.324 4.80852 483.435 4.80506C483.805 4.79298 484.168 4.77573 484.539 4.76537C484.642 4.76365 484.761 4.78091 484.857 4.79472C485.568 4.89828 485.568 4.89827 486.183 4.87583C486.428 4.8672 486.687 4.84131 486.916 4.85167C487.139 4.86202 487.331 4.90862 487.531 4.93796C487.946 5.0001 488.339 5.0605 488.368 5.19513C488.383 5.2469 488.628 5.29177 488.872 5.29522C489.109 5.29867 489.361 5.27971 489.605 5.26935C490.183 5.24864 490.183 5.24864 490.932 5.35392C491.139 5.38326 491.361 5.38671 491.628 5.36945C491.732 5.36254 491.858 5.36946 491.969 5.37809C492.332 5.40397 492.332 5.43676 492.095 5.49889C491.761 5.59037 491.791 5.599 492.724 5.67667C493.08 5.70601 493.354 5.76124 493.65 5.80957C494.132 5.88723 494.125 5.88722 493.806 5.98905C493.732 6.01149 493.665 6.03566 493.591 6.05982C493.376 6.12713 493.206 6.19962 492.761 6.20652C492.272 6.21342 491.783 6.24105 491.295 6.26003C490.82 6.27902 490.695 6.32042 490.739 6.43779C490.791 6.57931 490.887 6.59485 491.739 6.59313C491.984 6.59313 492.198 6.60693 492.384 6.65353C492.295 6.70876 492.132 6.75191 491.895 6.76226C491.287 6.78815 490.672 6.8106 490.065 6.83303C489.576 6.85202 489.087 6.871 488.598 6.88998C488.294 6.90206 488.102 6.99182 488.183 7.09192C488.228 7.14888 488.265 7.20583 488.302 7.26279C488.383 7.3767 488.539 7.40605 489.035 7.40087C489.161 7.39914 489.28 7.38533 489.398 7.38878C489.88 7.40086 490.109 7.54411 490.687 7.51477C491.169 7.4906 491.672 7.48543 492.147 7.45436C492.584 7.42675 492.828 7.4889 493.132 7.5355C493.235 7.55103 493.347 7.58381 493.436 7.58208C494.05 7.5631 494.665 7.54413 495.265 7.51133C495.547 7.49753 495.717 7.50788 495.939 7.5493C496.473 7.6494 496.488 7.64422 497.28 7.61316C497.858 7.58899 497.866 7.59244 498.606 7.69773C498.814 7.72707 499.036 7.72706 499.303 7.71325C499.651 7.69599 500.014 7.66838 500.377 7.69427C500.488 7.70117 500.629 7.72189 500.666 7.74433C500.688 7.75986 500.584 7.79783 500.495 7.80992C499.844 7.89966 499.08 7.88413 498.369 7.92038C498.147 7.93073 497.925 7.89794 497.74 7.85134C497.547 7.80474 497.34 7.78576 497.088 7.79439C496.599 7.81337 496.102 7.82545 495.621 7.85306C495.206 7.87723 494.917 7.83753 494.628 7.78402C494.532 7.76676 494.421 7.73397 494.325 7.73569C493.228 7.77021 492.124 7.80474 491.035 7.85306C490.598 7.87377 490.346 7.81855 490.05 7.77195C489.946 7.75642 489.843 7.72362 489.746 7.72535C489.376 7.73225 489.013 7.75123 488.643 7.76504C487.294 7.81682 485.953 7.8686 484.605 7.91692C484.516 7.92037 484.405 7.88412 484.301 7.86859C484.101 7.83752 483.894 7.80818 483.686 7.77884C483.316 7.79265 482.953 7.8099 482.583 7.82026C482.316 7.82716 482.079 7.85134 482.042 7.91692C482.02 7.96007 482.264 7.99976 482.524 7.99631C482.775 7.99286 483.027 7.97214 483.235 7.99458C484.264 8.10504 484.264 8.10677 484.909 8.08433C485.472 8.06362 485.413 8.04635 485.909 8.14128C486.124 8.1827 486.316 8.20688 486.561 8.19652C487.168 8.17236 487.783 8.14819 488.398 8.12748C488.494 8.12403 488.62 8.14129 488.717 8.1551C489.443 8.25866 489.443 8.2621 490.043 8.23622C490.828 8.20515 490.858 8.19652 491.384 8.3018C491.747 8.37429 492.08 8.32424 492.428 8.32078C492.828 8.3881 493.265 8.44851 493.628 8.52445C494.058 8.6142 494.51 8.59865 494.999 8.57276C495.362 8.55378 495.717 8.54688 496.014 8.61764C496.295 8.68322 496.636 8.69014 497.021 8.67288C497.369 8.65735 497.725 8.62454 498.088 8.66251C498.184 8.67287 498.332 8.69877 498.325 8.7143C498.317 8.73846 498.221 8.77299 498.125 8.78334C497.443 8.85411 496.695 8.85237 495.977 8.88517C495.88 8.89034 495.754 8.87135 495.658 8.85755C495.451 8.82648 495.251 8.79024 495.051 8.75745C494.688 8.76781 494.317 8.77125 493.962 8.79196C493.687 8.80749 493.48 8.80578 493.28 8.76436C493.095 8.72639 492.895 8.67978 492.673 8.6677C492.45 8.65562 492.191 8.68151 491.947 8.69186C491.702 8.70222 491.421 8.69703 491.228 8.72465C491.035 8.75226 490.917 8.81267 490.791 8.861C490.65 8.9145 490.457 8.93178 490.176 8.93695C489.917 8.94213 489.709 8.93522 489.517 8.88689C489.435 8.86618 489.324 8.85064 489.213 8.83684C489.109 8.82475 488.991 8.80576 488.894 8.80921C487.791 8.84891 486.694 8.89208 485.59 8.9335C485.042 8.95421 485.05 8.95419 483.909 8.85236C483.805 8.84373 483.679 8.83166 483.575 8.83511C482.961 8.85582 482.353 8.87999 481.738 8.90415C481.116 8.92831 481.123 8.92486 480.064 8.81613C479.871 8.79541 479.59 8.82303 479.36 8.81958C478.879 8.81095 478.642 8.66598 478.079 8.69359C477.597 8.71775 477.093 8.72293 476.612 8.75399C476.175 8.78161 475.923 8.72121 475.627 8.67461C475.523 8.65907 475.412 8.62455 475.323 8.62801C474.219 8.66598 473.123 8.70912 471.656 8.7143C471.293 8.7143 471.456 8.75055 471.693 8.76263C472.034 8.78162 472.145 8.74537 471.96 8.67634C471.826 8.62801 471.634 8.60383 471.478 8.61591C471.397 8.62282 471.293 8.65562 471.656 8.7143C472.041 8.77989 472.019 8.81612 472.086 8.83684C472.249 8.88689 472.478 8.9076 472.715 8.90069C473.086 8.88861 473.449 8.87136 473.819 8.861C473.923 8.85755 474.049 8.86963 474.145 8.88344C474.96 8.99045 474.967 8.99736 475.834 8.95594C476.108 8.94385 476.308 8.94385 476.523 8.97665C476.819 9.02152 477.034 9.09745 477.486 9.07329C478.086 9.04049 478.701 9.02152 479.316 9.00254C479.412 8.99909 479.516 9.03015 479.627 9.04396C479.931 9.08538 480.153 9.16305 480.605 9.13026C480.953 9.10437 481.331 9.09745 481.701 9.09227C481.797 9.09054 481.946 9.11816 481.99 9.1406C482.079 9.1803 481.968 9.22691 481.716 9.2597C481.612 9.27351 481.472 9.27005 481.353 9.27523C480.864 9.29421 480.375 9.31492 479.886 9.33045C479.627 9.33908 479.383 9.36498 479.353 9.42884C479.331 9.47199 479.597 9.50995 479.849 9.5065C480.22 9.50132 480.59 9.48751 480.946 9.46508C481.575 9.42711 482.123 9.43746 482.635 9.54619C482.998 9.62213 482.975 9.59453 483.361 9.8189C483.457 9.87586 483.746 9.88103 483.998 9.87758C484.605 9.86895 484.887 9.89484 484.835 9.94835C484.768 10.0139 484.553 10.0346 484.279 10.0433C483.79 10.0571 483.301 10.0795 482.812 10.0985C482.694 10.1037 482.561 10.114 482.449 10.1106C482.338 10.1071 482.235 10.0864 482.138 10.0709C481.931 10.0381 481.753 9.98803 481.531 9.97595C481.309 9.96386 481.049 9.98976 480.805 10.0001C480.56 10.0087 480.301 10.0346 480.079 10.0225C479.857 10.0105 479.671 9.9587 479.471 9.92764C479.375 9.9121 479.257 9.88792 479.16 9.88965C478.671 9.90346 478.182 9.9259 477.693 9.94316C477.093 9.9656 477.093 9.9656 476.367 9.85859C476.16 9.82753 475.945 9.82926 475.671 9.84307C475.078 9.87068 475.071 9.86549 473.989 9.76539C473.886 9.75503 473.76 9.74295 473.656 9.74813C472.552 9.78783 471.456 9.83097 470.359 9.87239C469.419 9.90864 469.419 9.90865 468.9 10.0812C468.515 10.209 468.507 10.209 468.885 10.2676C469.189 10.316 469.463 10.3867 469.796 10.4126C470.108 10.4368 470.493 10.3591 470.834 10.4385C471.004 10.4782 471.226 10.5214 471.441 10.5283C471.782 10.5369 472.145 10.4868 472.471 10.5628C472.634 10.6007 472.878 10.6404 473.086 10.6422C473.449 10.6456 473.819 10.618 474.182 10.6059C474.293 10.6025 474.419 10.6025 474.523 10.6111C474.634 10.6215 474.73 10.6422 474.826 10.6594C475.123 10.7181 475.441 10.7457 475.827 10.7164C476.456 10.6681 477.019 10.6922 477.508 10.8027C477.575 10.8182 477.738 10.8199 477.842 10.813C478.108 10.7958 478.338 10.794 478.538 10.8268C478.619 10.8406 478.738 10.8648 478.723 10.8803C478.701 10.9062 478.612 10.9407 478.516 10.9494C477.819 11.0081 477.071 11.015 476.353 11.046C476.256 11.0495 476.138 11.027 476.042 11.0115C475.834 10.9804 475.656 10.9287 475.434 10.9166C475.212 10.9045 474.952 10.9269 474.708 10.9356C474.464 10.9442 474.204 10.9701 473.982 10.9597C473.76 10.9477 473.552 10.9045 473.375 10.8665C473.167 10.8234 472.967 10.8182 472.693 10.8355C472.337 10.8579 471.967 10.8614 471.604 10.8734C471.404 10.8406 471.204 10.8044 470.997 10.7733C470.9 10.7578 470.782 10.7388 470.678 10.7405C470.189 10.7543 469.7 10.775 469.211 10.794C468.722 10.813 468.722 10.813 467.893 10.706C467.796 10.694 467.67 10.6801 467.567 10.6836C466.952 10.7043 466.344 10.7302 465.729 10.7509C465.492 10.7595 465.278 10.7354 465.085 10.6888C464.9 10.6422 464.677 10.6163 464.448 10.6249C463.47 10.6611 462.492 10.6957 461.514 10.7388C461.122 10.7561 460.788 10.7405 460.521 10.6784C460.21 10.6076 459.862 10.6249 459.499 10.6387C458.677 10.6732 458.669 10.6715 458.144 10.5835C458.04 10.5662 457.936 10.5334 457.84 10.5351C456.988 10.561 456.129 10.5852 455.284 10.6266C454.84 10.6491 454.603 10.5887 454.306 10.5438C454.203 10.5282 454.091 10.4955 454.003 10.4989C453.388 10.5179 452.773 10.5352 452.173 10.5697C451.573 10.6042 451.343 10.4437 450.891 10.4454C450.276 10.4471 449.669 10.4868 449.061 10.511C448.572 10.53 448.083 10.549 447.594 10.5679C447.106 10.5869 446.617 10.6025 446.128 10.6249C445.868 10.637 445.676 10.6214 445.461 10.5783C445.187 10.5213 444.861 10.4765 444.565 10.4247C444.113 10.3505 444.113 10.3505 443.565 10.3712C443.446 10.3764 443.32 10.3798 443.202 10.385C442.305 10.423 442.305 10.4195 441.164 10.3108C441.112 10.3056 440.979 10.3246 440.927 10.3384C440.772 10.3833 440.631 10.4316 440.49 10.4782C440.29 10.4506 440.046 10.4351 439.912 10.3954C439.535 10.2832 438.942 10.4368 438.557 10.3263C438.416 10.2849 438.171 10.2486 437.949 10.2383C437.72 10.2279 437.46 10.2521 437.223 10.2625C436.608 10.2883 436.608 10.2866 436.082 10.4402C435.816 10.5162 435.431 10.5024 435.082 10.5196C434.719 10.5386 434.371 10.549 434.067 10.4782C433.793 10.4143 433.46 10.3988 433.067 10.4195C432.586 10.4454 432.09 10.4609 431.601 10.4765C431.497 10.4799 431.371 10.4713 431.267 10.4609C430.134 10.3591 430.134 10.3574 429.585 10.3798C429.341 10.3902 429.089 10.3936 428.852 10.4092C428.452 10.4368 428.148 10.4005 427.859 10.3453C427.763 10.328 427.652 10.2953 427.556 10.297C427.067 10.3056 426.585 10.3211 426.104 10.3367C425.733 10.3488 425.363 10.3557 425.007 10.3798C424.415 10.4195 424.126 10.3073 423.718 10.2555C423.111 10.278 422.496 10.2935 421.889 10.3246C421.607 10.3384 421.422 10.3332 421.207 10.2918C420.933 10.24 420.681 10.1813 420.237 10.2072C419.644 10.2418 419.022 10.2538 418.414 10.2745C418.007 10.221 417.71 10.1123 417.125 10.152C416.77 10.1762 416.392 10.1813 416.029 10.1951C415.54 10.2141 415.051 10.2314 414.562 10.2521C414.036 10.2728 414.044 10.2676 413.236 10.1658C412.769 10.1054 412.288 10.1727 411.814 10.1831C411.443 10.1917 411.258 10.2711 411.347 10.3729C411.436 10.4747 411.236 10.5541 410.895 10.5679C410.043 10.6007 409.184 10.6352 408.332 10.6646C408.228 10.668 408.102 10.656 408.006 10.6439C407.095 10.5351 407.095 10.5369 406.687 10.5524C406.08 10.5783 405.458 10.5921 404.857 10.6249C404.443 10.6473 404.139 10.6111 403.872 10.5524C403.665 10.5075 403.472 10.4972 403.205 10.5075C400.272 10.6232 397.338 10.7302 394.412 10.8493C393.975 10.8665 393.723 10.8165 393.427 10.7699C393.323 10.7544 393.227 10.7216 393.123 10.7216C392.879 10.7216 392.634 10.7371 392.39 10.7475C391.293 10.7889 390.197 10.8389 389.093 10.87C388.626 10.8838 388.5 10.9632 388.3 11.0288C388.145 11.0788 387.967 11.0995 387.693 11.1064C387.426 11.1133 387.234 11.1047 387.026 11.0598C386.76 11.0012 386.456 10.9649 386.041 10.9891C385.56 11.0167 385.07 11.0288 384.574 11.0478C384.322 11.0564 384.13 11.0875 384.048 11.1496C384.033 11.1599 384.189 11.1858 384.278 11.2014C384.574 11.2532 384.856 11.3136 385.189 11.3498C385.53 11.386 385.9 11.3446 386.256 11.3343C386.382 11.3308 386.5 11.3205 386.619 11.3222C386.73 11.3239 386.863 11.3325 386.945 11.3481C387.33 11.4257 387.737 11.4792 388.271 11.4326C388.73 11.4551 388.967 11.5983 389.552 11.5604C389.908 11.5379 390.278 11.5276 390.649 11.5189C390.745 11.5172 390.849 11.5483 390.953 11.5638C391.249 11.607 391.486 11.676 391.93 11.6467C392.405 11.6156 392.908 11.6104 393.39 11.5863C393.656 11.5724 393.849 11.5845 394.056 11.6294C394.323 11.6864 394.627 11.7295 395.042 11.7019C395.397 11.6777 395.775 11.6725 396.138 11.657C396.612 11.638 396.612 11.6397 397.457 11.7468C397.553 11.7588 397.679 11.7726 397.783 11.7692C398.398 11.7485 399.005 11.7226 399.62 11.7019C399.857 11.6932 400.087 11.7157 400.25 11.7657C400.316 11.7864 400.294 11.821 400.316 11.8503C399.094 11.8969 397.872 11.9366 396.657 11.9936C396.197 12.016 395.99 11.9452 395.686 11.9055C395.582 11.8917 395.471 11.8624 395.375 11.8659C394.516 11.8952 393.664 11.9262 392.812 11.9642C392.545 11.9763 392.345 11.9694 392.145 11.9193C391.634 11.7864 391.012 11.8589 390.434 11.8779C389.99 11.8917 389.849 11.9452 389.901 12.0592C389.967 12.1938 390.234 12.2352 390.915 12.211C391.16 12.2024 391.404 12.1903 391.649 12.1834C391.886 12.1765 392.101 12.1989 392.293 12.2455C392.479 12.2921 392.701 12.3163 392.93 12.3094C393.419 12.2939 393.916 12.2783 394.39 12.2525C394.782 12.2317 395.108 12.249 395.383 12.3129C395.686 12.3836 396.042 12.3681 396.398 12.3526C397.227 12.318 397.235 12.3198 397.753 12.4061C397.857 12.4233 397.961 12.4561 398.057 12.4544C398.909 12.4285 399.768 12.4061 400.605 12.3646C401.042 12.3439 401.294 12.3992 401.583 12.444C401.687 12.4596 401.791 12.4941 401.887 12.4906C402.502 12.4717 403.117 12.4527 403.717 12.4199C403.998 12.4043 404.168 12.4147 404.398 12.4561C404.946 12.5579 404.961 12.5545 405.739 12.5217C405.976 12.5113 406.235 12.4924 406.458 12.5062C406.68 12.52 406.858 12.57 407.065 12.6011C407.161 12.6149 407.28 12.6339 407.384 12.6304C407.872 12.6166 408.361 12.5959 408.85 12.5769C409.31 12.5579 409.31 12.5597 410.169 12.6667C410.517 12.7116 410.88 12.6736 411.228 12.6598C411.606 12.6442 411.947 12.6443 412.236 12.7116C412.525 12.7789 412.873 12.7754 413.243 12.7616C413.592 12.7478 413.947 12.7098 414.303 12.7564C415.118 12.8634 415.118 12.8652 415.621 12.8444C416.355 12.8151 417.081 12.7875 417.822 12.7616C417.918 12.7581 418.044 12.7789 418.14 12.7927C418.347 12.8237 418.525 12.8755 418.748 12.8876C418.97 12.9014 419.229 12.8807 419.466 12.8703C420.229 12.8375 420.281 12.8255 420.792 12.9394C421.222 13.0326 421.755 12.898 422.155 13.005C422.385 13.0654 422.696 13.1137 423.126 13.0843C423.481 13.0602 423.852 13.0533 424.222 13.0395C424.807 13.017 424.807 13.0188 425.548 13.1223C425.644 13.1361 425.77 13.1534 425.867 13.1499C426.356 13.1361 426.852 13.1241 427.326 13.093C427.882 13.0567 428.237 13.1223 428.652 13.1862C428.978 13.2362 429.363 13.1948 429.712 13.1776C430.089 13.1603 430.43 13.1655 430.711 13.2328C431.008 13.3018 431.356 13.2932 431.726 13.2794C432.075 13.2673 432.43 13.2276 432.786 13.2759C433.549 13.3829 433.549 13.3829 434.104 13.3622C434.593 13.3432 435.082 13.3225 435.571 13.3087C435.668 13.3053 435.786 13.3277 435.882 13.3432C436.09 13.3743 436.268 13.4261 436.49 13.4382C436.712 13.4503 436.971 13.4278 437.216 13.4192C437.46 13.4106 437.72 13.3847 437.942 13.395C438.164 13.4054 438.371 13.4485 438.549 13.4865C438.757 13.5314 438.949 13.5365 439.231 13.5193C439.586 13.4968 439.957 13.4917 440.32 13.4796C440.52 13.5124 440.727 13.5452 440.92 13.5814C441.12 13.6194 441.335 13.6159 441.609 13.6039C442.52 13.5624 442.527 13.5676 443.29 13.6746C443.639 13.7229 444.002 13.6832 444.35 13.6712C444.72 13.6574 445.068 13.6505 445.357 13.7195C445.639 13.7851 445.987 13.7937 446.357 13.773C446.594 13.7592 446.846 13.7506 447.091 13.7454C447.202 13.7437 447.335 13.7506 447.417 13.7644C447.809 13.8369 448.195 13.9025 448.735 13.8559C449.209 13.8697 449.446 14.0112 450.017 13.9836C450.498 13.9594 451.002 13.9542 451.476 13.9231C451.913 13.8955 452.225 13.9439 452.447 14.0043C452.847 14.1113 453.41 13.9663 453.81 14.0716C454.04 14.132 454.336 14.1803 454.78 14.1544C455.269 14.1268 455.425 14.1631 455.566 14.2718C455.647 14.3339 455.632 14.384 455.484 14.4323C455.336 14.4824 455.173 14.4737 454.936 14.4168C454.662 14.3529 454.336 14.3408 453.943 14.3546C453.558 14.3684 453.321 14.2787 453.002 14.2442C452.684 14.2079 452.306 14.2684 451.973 14.2218C451.187 14.113 451.187 14.113 450.654 14.1337C450.291 14.1475 449.913 14.1544 449.558 14.1786C449.135 14.2079 448.861 14.1544 448.572 14.1061C448.469 14.0888 448.365 14.056 448.276 14.0578C447.424 14.0837 446.565 14.1078 445.72 14.151C445.276 14.1734 445.039 14.1113 444.742 14.0681C444.639 14.0526 444.528 14.0215 444.439 14.025C443.705 14.0492 442.979 14.0802 442.246 14.1096C442.105 14.1562 441.95 14.201 441.816 14.2511C441.675 14.3029 441.483 14.3253 441.201 14.3236C440.735 14.3236 440.275 14.3961 439.809 14.3046C439.327 14.2114 439.29 14.2166 438.823 14.239C438.231 14.2683 437.601 14.2614 437.045 14.3288C436.949 14.3408 436.845 14.3736 436.845 14.3978C436.838 14.4133 436.994 14.4358 437.09 14.4496C437.416 14.491 437.794 14.4306 438.12 14.4737C438.334 14.5013 438.512 14.5428 438.727 14.5721C438.816 14.5842 438.949 14.5825 439.068 14.5807C439.194 14.579 439.312 14.5669 439.431 14.5687C439.542 14.5704 439.661 14.5807 439.749 14.5963C440.157 14.6619 440.586 14.7223 440.949 14.7999C441.305 14.8759 441.638 14.8241 441.994 14.8206C443.416 14.9415 443.416 14.9432 444.372 14.9052C444.609 14.8966 444.854 14.8862 445.098 14.888C445.202 14.888 445.298 14.919 445.402 14.9363C445.698 14.988 445.98 15.0347 446.394 15.007C446.75 14.9829 447.128 14.9777 447.491 14.9622C447.98 14.9432 447.98 14.9432 448.809 15.0519C449.017 15.0795 449.239 15.0761 449.506 15.0623C449.735 15.0502 449.972 15.0761 450.135 15.1261C450.202 15.1468 450.18 15.1814 450.202 15.2107C449.469 15.2383 448.728 15.2573 448.017 15.2987C447.557 15.3246 447.35 15.2504 447.046 15.2107C446.943 15.1969 446.832 15.1676 446.735 15.171C446.009 15.1969 445.283 15.2262 444.557 15.2607C444.468 15.2642 444.357 15.3039 444.35 15.3281C444.335 15.3729 444.52 15.4161 444.787 15.4144C445.142 15.4126 445.491 15.3833 445.809 15.454C446.076 15.5162 446.409 15.5438 446.802 15.5162C447.039 15.5007 447.291 15.5007 447.528 15.4869C448.158 15.4454 448.728 15.4541 449.202 15.5714C449.565 15.6025 449.921 15.5732 450.269 15.5576C450.528 15.5455 450.78 15.5334 450.965 15.5662C451.358 15.6353 451.743 15.7043 452.284 15.6577C452.869 15.706 453.314 15.8079 453.803 15.8907C454.032 15.9304 454.21 15.9529 454.477 15.927C454.588 15.9166 454.721 15.9166 454.84 15.9114C455.084 15.9028 455.343 15.8769 455.566 15.8873C455.788 15.8993 455.973 15.9494 456.173 15.9805C456.269 15.996 456.38 16.0219 456.477 16.0202C456.847 16.0115 457.21 15.9943 457.573 15.9805C457.936 15.9684 458.299 15.9563 458.662 15.9442C458.966 15.9891 459.277 16.034 459.581 16.0789C460.07 16.0599 460.559 16.0409 461.04 16.0236C461.581 16.0029 461.581 16.0046 462.359 16.1116C462.707 16.16 463.077 16.1289 463.411 16.1065C463.966 16.0702 464.337 16.1358 464.729 16.2048C464.811 16.2187 464.959 16.2273 465.055 16.2204C465.441 16.1962 465.774 16.2152 466.055 16.279C466.255 16.3239 466.455 16.3446 466.7 16.336C467.552 16.3032 468.404 16.2687 469.256 16.2394C469.359 16.2359 469.478 16.2514 469.574 16.2652C470.33 16.3705 470.337 16.3757 470.893 16.3481C471.389 16.3239 471.848 16.3136 472.241 16.4085C472.323 16.4292 472.448 16.4585 472.537 16.4568C473.145 16.4396 473.76 16.4206 474.36 16.3912C474.634 16.3774 474.827 16.3826 475.041 16.4223C475.315 16.4724 475.56 16.5328 476.012 16.5103C477.264 16.4465 477.271 16.4568 478.753 16.5759C478.856 16.5845 478.997 16.5707 479.116 16.5638C479.368 16.5466 479.553 16.5707 479.775 16.6104C480.271 16.7002 480.286 16.695 480.76 16.676C481.123 16.6605 481.501 16.657 481.857 16.6311C482.405 16.5932 482.768 16.6605 483.175 16.7243C483.501 16.7744 483.879 16.733 484.227 16.7174C484.605 16.7002 484.946 16.7053 485.227 16.7709C485.42 16.8158 485.627 16.84 485.872 16.8314C486.724 16.8003 487.576 16.7658 488.428 16.7347C488.531 16.7312 488.657 16.7451 488.754 16.7571C489.598 16.8641 489.598 16.8693 490.435 16.8296C490.702 16.8175 490.924 16.8141 491.124 16.8503C491.317 16.8849 491.524 16.9176 491.724 16.9504C492.087 16.9384 492.458 16.9349 492.813 16.9142C493.087 16.8987 493.28 16.9056 493.495 16.9418C493.776 16.9884 494.013 17.0695 494.458 17.0298C494.687 17.0108 494.954 17.016 495.184 16.9988C495.458 16.9763 495.643 16.9901 495.858 17.035C496.125 17.0885 496.399 17.1437 496.828 17.1161C497.302 17.0851 497.806 17.0799 498.288 17.0557C498.554 17.0419 498.74 17.0557 498.955 17.1006C499.221 17.1575 499.525 17.1938 499.94 17.1714C500.784 17.1282 500.792 17.1368 501.614 17.2456C501.821 17.2732 502.044 17.2697 502.31 17.2559C502.54 17.2438 502.777 17.2697 502.94 17.3198C503.096 17.375 503.081 17.4095 503.096 17.4389ZM437.082 1.87271C436.838 1.88134 436.593 1.89169 436.238 1.74154C436.216 1.71565 436.231 1.68459 436.179 1.66215C436.06 1.61555 435.875 1.58276 435.653 1.57758C435.253 1.57068 434.771 1.62935 434.779 1.67422C434.786 1.71219 434.912 1.74498 435.156 1.77605C435.26 1.78813 435.342 1.80884 435.438 1.82265C435.719 1.86235 435.942 1.94003 436.349 1.90033C436.312 1.84683 436.275 1.79332 436.349 1.90033C436.312 1.96592 436.423 2.01252 436.69 2.0315C436.764 2.03668 436.875 2.03322 436.934 2.02287C437.164 1.98489 437.201 1.93313 437.031 1.79678C437.001 1.81922 437.023 1.8589 437.09 1.86925C437.157 1.87961 437.319 1.87099 437.401 1.85891C437.608 1.82612 437.712 1.78297 437.66 1.74672C437.631 1.72774 437.49 1.70357 437.401 1.70357C437.245 1.70357 437.105 1.74154 437.082 1.87271ZM496.984 21.8883C496.443 21.9211 495.821 21.909 495.28 21.9763C495.184 21.9884 495.088 22.0195 495.08 22.0437C495.073 22.0592 495.221 22.0816 495.31 22.0937C495.51 22.1213 495.732 22.1127 495.991 22.1041C496.384 22.092 496.614 22.1714 496.917 22.2111C497.014 22.2232 497.14 22.2318 497.243 22.2283C497.843 22.2076 498.436 22.1852 499.036 22.161C499.14 22.1559 499.251 22.1438 499.34 22.1282C499.636 22.0782 499.606 22.0454 499.318 22.0074C498.999 21.966 498.747 21.8969 498.421 21.8642C497.954 21.8176 497.48 21.8797 496.984 21.8883ZM454.914 23.1483C454.551 23.1621 454.195 23.1759 453.832 23.1897C453.713 23.1949 453.588 23.1966 453.476 23.2035C453.247 23.2156 453.076 23.2518 452.965 23.3088C453.136 23.3536 453.343 23.3795 453.573 23.3743C453.936 23.364 454.291 23.3416 454.654 23.3364C455.047 23.3295 455.277 23.4071 455.58 23.4468C455.677 23.4589 455.795 23.4606 455.906 23.4624C456.454 23.4693 456.788 23.3795 456.684 23.2535C456.61 23.1552 456.329 23.0965 455.988 23.1086C455.632 23.1206 455.269 23.1345 454.914 23.1483ZM499.518 19.3374C499.606 19.3081 499.703 19.2873 499.747 19.2615C499.881 19.1734 499.829 19.1078 499.584 19.0388C499.288 18.9542 498.925 19.0112 498.592 19.0198C498.51 19.0216 498.421 19.0578 498.377 19.0802C498.347 19.0958 498.347 19.1286 498.392 19.1372C498.755 19.2062 499.14 19.2701 499.518 19.3374ZM435.253 14.239C434.897 14.2528 434.534 14.2632 434.179 14.2822C434.09 14.2873 434.008 14.3201 433.956 14.3426C433.86 14.384 433.964 14.4409 434.267 14.4461C434.616 14.453 434.979 14.4237 435.342 14.4099C435.801 14.3926 436.075 14.3287 435.905 14.2735C435.742 14.22 435.519 14.2097 435.253 14.239ZM45.3002 10.5507C45.5372 10.5421 45.7817 10.5352 46.0187 10.5231C46.241 10.511 46.4115 10.473 46.5226 10.4161C46.3374 10.3712 46.1299 10.347 45.9003 10.3522C45.5373 10.3626 45.1817 10.3764 44.8261 10.3936C44.6039 10.404 44.3891 10.442 44.3373 10.5006C44.2854 10.5455 44.7816 10.5714 45.3002 10.5507ZM403.924 10.2849C404.02 10.3004 404.117 10.3315 404.213 10.3315C404.45 10.3315 404.695 10.3211 404.917 10.3039C405.013 10.297 405.087 10.2659 405.131 10.2417C405.161 10.2262 405.154 10.1986 405.109 10.1848C404.895 10.102 404.035 10.1313 403.894 10.2262C403.88 10.2435 403.917 10.2659 403.924 10.2849ZM380.552 0.833697C380.574 0.861311 380.581 0.888923 380.611 0.916538C380.67 0.968316 380.833 1.00629 381.07 1.03218C381.255 0.989035 381.352 0.940716 381.344 0.888938C381.337 0.861323 381.315 0.833691 381.285 0.806076C381.226 0.754298 381.063 0.716341 380.826 0.690452C380.641 0.731874 380.552 0.780193 380.552 0.833697ZM516.637 23.4486C516.571 23.471 516.504 23.4934 516.43 23.5142C516.63 23.5642 516.815 23.5797 516.956 23.5521C517.045 23.5349 517.097 23.509 517.164 23.4865C516.964 23.4365 516.786 23.4227 516.637 23.4486ZM512.03 23.6833C512.126 23.6988 512.215 23.7195 512.319 23.7299C512.489 23.7472 512.645 23.7178 512.763 23.6557C512.667 23.6401 512.578 23.6194 512.474 23.6091C512.304 23.5918 512.148 23.6212 512.03 23.6833ZM514.948 23.3675C514.897 23.4089 515 23.4434 515.275 23.4727C515.341 23.4503 515.43 23.4296 515.475 23.4054C515.549 23.3657 515.423 23.3295 515.156 23.3019C515.082 23.3226 515.015 23.345 514.948 23.3675ZM499.31 21.5069C499.258 21.5483 499.362 21.5828 499.636 21.6122C499.703 21.5897 499.792 21.569 499.836 21.5449C499.91 21.5052 499.784 21.4689 499.518 21.4413C499.443 21.462 499.377 21.4845 499.31 21.5069ZM478.005 9.29421C477.938 9.31665 477.871 9.33909 477.797 9.3598C477.997 9.40985 478.182 9.42538 478.323 9.39776C478.412 9.3805 478.464 9.35461 478.531 9.33218C478.331 9.28213 478.153 9.26832 478.005 9.29421ZM457.595 2.81506C457.773 2.82714 457.921 2.80299 458.047 2.73913C457.951 2.7236 457.862 2.70288 457.758 2.69253C457.588 2.67527 457.432 2.70462 457.314 2.76675C457.41 2.78401 457.506 2.79953 457.595 2.81506ZM446.757 2.40947C446.691 2.43191 446.624 2.45435 446.55 2.47506C446.75 2.52511 446.935 2.54064 447.076 2.51302C447.165 2.49576 447.217 2.46987 447.283 2.44744C447.083 2.39739 446.906 2.38531 446.757 2.40947ZM373.262 0.831969C373.196 0.854406 373.129 0.876844 373.055 0.897555C373.255 0.947607 373.44 0.963135 373.581 0.935521C373.67 0.918261 373.721 0.892371 373.788 0.869934C373.588 0.819882 373.41 0.807806 373.262 0.831969ZM7.31165 14.8741C7.21535 14.8586 7.11913 14.8431 7.03023 14.8258C6.8154 14.8724 6.74875 14.9156 6.86728 14.9484C6.94136 14.9691 7.05239 14.9812 7.1487 14.9967C7.37094 14.9501 7.42277 14.9087 7.31165 14.8741Z" fill="#FFE492"/>
</svg>
