<svg width="489" height="53" viewBox="0 0 489 53" fill="none" xmlns="http://www.w3.org/2000/svg">
<path d="M460.079 28.0079C459.408 28.0522 458.731 28.0827 458.074 28.1493C457.647 28.1908 457.464 28.0689 457.18 28.0051C457.085 27.983 456.983 27.9386 456.895 27.9441C456.231 27.9885 455.567 28.0384 454.903 28.0883C454.7 28.1964 454.571 28.3405 454.26 28.3932C453.955 28.4431 453.596 28.4431 453.257 28.468C452.81 28.4985 452.363 28.529 451.916 28.5568C451.692 28.5706 451.509 28.6233 451.435 28.7231C451.421 28.7397 451.57 28.7813 451.651 28.8062C451.922 28.8894 452.187 28.9836 452.485 29.0474C452.769 29.1083 453.122 29.0086 453.426 29.0862C454.111 29.2608 454.117 29.258 454.639 29.2248C455.086 29.1943 455.533 29.161 455.98 29.1389C456.069 29.1333 456.17 29.1749 456.265 29.1971C456.549 29.258 456.732 29.3966 457.152 29.344C457.471 29.3024 457.823 29.2941 458.155 29.2719C458.433 29.3523 458.69 29.4438 458.988 29.5075C459.266 29.5685 459.347 29.6156 459.198 29.696C459.063 29.7709 458.873 29.8014 458.622 29.8069C458.399 29.8097 458.175 29.8346 457.952 29.8485C457.837 29.8568 457.728 29.8623 457.62 29.8707C457.193 29.9011 457.193 29.9011 456.414 29.7237C456.109 29.6544 455.764 29.7514 455.472 29.6849C455.276 29.6406 455.106 29.5741 454.917 29.5269C454.835 29.5075 454.707 29.5047 454.605 29.5103C454.266 29.5297 453.928 29.5436 453.603 29.5796C453.372 29.6045 453.237 29.6822 453.264 29.7598C453.271 29.7903 453.433 29.8346 453.528 29.8374C453.745 29.8429 453.975 29.8041 454.185 29.8235C454.388 29.8429 454.598 29.8984 454.747 29.9593C455.052 30.0869 455.398 29.9732 455.689 30.0065C455.994 30.0425 456.245 30.1534 456.536 30.2199C456.61 30.2366 456.753 30.2088 456.868 30.2005C457.2 30.1811 457.532 30.1645 457.864 30.1451C458.142 30.2255 458.44 30.2975 458.69 30.389C459.144 30.5553 459.632 30.6191 460.221 30.5387C460.553 30.4943 460.878 30.511 461.143 30.6191C461.414 30.7299 461.725 30.7189 462.071 30.6967C462.389 30.6745 462.714 30.6135 463.04 30.6911C463.744 30.863 463.751 30.8713 464.584 30.8048C464.835 30.7854 465.024 30.7799 465.214 30.8436C465.39 30.9018 465.58 30.9517 465.763 31.0071C466.095 30.9877 466.434 30.9683 466.766 30.9462C467.192 30.9157 467.429 30.9545 467.531 31.1097C467.592 31.204 467.619 31.2899 467.768 31.3536C467.944 31.4313 468.134 31.4285 468.391 31.4063C468.635 31.3869 468.811 31.3564 468.913 31.2566C468.954 31.215 469.035 31.1762 469.11 31.143C469.171 31.118 469.265 31.0792 469.32 31.0848C469.421 31.0959 469.557 31.1263 469.591 31.1624C469.923 31.4978 469.922 31.5006 470.261 31.5976C470.634 31.7057 471.02 31.8027 471.359 31.9246C471.664 32.0328 471.968 31.9857 472.3 31.9857C472.551 31.9857 472.714 32.0577 472.693 32.1298C472.68 32.1714 472.585 32.2323 472.504 32.2379C471.84 32.2933 471.169 32.3404 470.498 32.3792C470.417 32.3848 470.316 32.3349 470.221 32.3099C470.031 32.2601 469.862 32.1824 469.658 32.1658C469.455 32.1492 469.218 32.1908 468.994 32.2046C468.771 32.2185 468.534 32.2545 468.331 32.2324C468.127 32.2102 467.965 32.1298 467.775 32.0771C467.687 32.0522 467.565 32.0161 467.491 32.0245C466.996 32.091 466.63 31.9995 466.278 31.8775C466.203 31.8526 466.075 31.836 465.98 31.8415C465.194 31.8886 464.415 31.9441 463.629 31.9967C463.311 32.0189 463.053 31.9219 462.985 31.7583C462.951 31.6669 462.884 31.5754 462.884 31.4839C462.884 31.3176 462.511 31.2261 462.24 31.2455C461.793 31.2732 461.339 31.2954 460.899 31.337C460.54 31.3703 460.235 31.337 459.991 31.2372C459.706 31.1236 459.381 31.1457 459.056 31.1762C458.812 31.1984 458.744 31.2899 458.758 31.52C458.771 31.7057 458.656 31.7639 458.216 31.7944C457.66 31.8332 457.098 31.872 456.536 31.9025C456.448 31.908 456.346 31.8609 456.258 31.836C456.068 31.7861 455.899 31.7057 455.696 31.689C455.493 31.6696 455.255 31.7112 455.032 31.7278C454.808 31.7417 454.571 31.7805 454.368 31.7611C454.165 31.7417 453.995 31.6586 453.812 31.6059C453.724 31.5809 453.616 31.5449 453.528 31.5504C453.081 31.5726 452.634 31.6059 452.187 31.6364C451.685 31.6696 451.685 31.6696 450.974 31.4978C450.649 31.4202 450.324 31.4812 450.005 31.5033C449.666 31.5255 449.348 31.5366 449.084 31.4257C448.908 31.3536 448.711 31.3093 448.501 31.3232C447.939 31.3564 447.383 31.398 446.821 31.4313C446.726 31.4368 446.598 31.4229 446.523 31.398C446.164 31.2816 445.812 31.1901 445.31 31.2483C444.877 31.2982 444.409 31.301 443.976 31.3481C443.739 31.373 443.63 31.4617 443.678 31.531C443.705 31.5671 443.847 31.6087 443.942 31.6087C444.159 31.6114 444.396 31.5698 444.599 31.5865C445.019 31.6197 445.229 31.8526 445.778 31.7888C446.103 31.75 446.442 31.7362 446.78 31.7251C446.868 31.7223 446.963 31.775 447.058 31.8027C447.329 31.8775 447.566 31.9745 447.959 31.9246C448.284 31.8858 448.63 31.8748 448.962 31.8526C449.49 31.8166 449.49 31.8193 450.175 31.9884C450.5 32.0688 450.825 32.0051 451.143 31.9857C451.38 31.9718 451.604 31.9441 451.794 31.9829C452.085 32.0411 452.295 32.1741 452.654 32.1658C452.993 32.1575 453.325 32.1187 453.663 32.1048C453.873 32.0965 454.07 32.1409 454.239 32.2157C454.415 32.2906 454.605 32.3238 454.835 32.3072C455.167 32.285 455.506 32.2573 455.845 32.2434C455.94 32.2407 456.048 32.2656 456.136 32.2878C456.326 32.3377 456.509 32.3959 456.692 32.4485C457.024 32.4319 457.362 32.4264 457.688 32.3931C457.938 32.3682 458.114 32.3793 458.318 32.4347C458.575 32.5096 458.785 32.6426 459.205 32.5789C459.415 32.5484 459.659 32.5567 459.869 32.5289C460.126 32.4929 460.303 32.5068 460.486 32.5899C460.831 32.7479 461.265 32.7507 461.712 32.6897C462.2 32.6232 462.565 32.7008 462.931 32.8228C463.317 32.9503 463.317 32.9475 463.615 33.2552C463.704 33.3439 463.954 33.3855 464.164 33.3689C464.516 33.3411 464.821 33.355 465.079 33.4603C465.35 33.574 465.675 33.5601 466.007 33.5296C466.447 33.488 466.887 33.452 467.247 33.6128C467.423 33.6904 467.612 33.7098 467.85 33.6904C468.52 33.6405 469.198 33.61 469.855 33.549C470.255 33.5102 470.485 33.5989 470.756 33.6738C471.122 33.7763 471.521 33.8678 471.521 34.0868C471.521 34.1228 471.616 34.1644 471.698 34.1921C471.874 34.2503 472.063 34.3002 472.246 34.3556C472.517 34.4388 472.781 34.5081 473.154 34.4638C473.479 34.4277 473.825 34.4166 474.157 34.3917C474.489 34.3667 474.794 34.3529 475.092 34.4582C475.437 34.5774 475.803 34.6911 476.196 34.7798C476.474 34.8435 476.84 34.7354 477.138 34.8214C477.321 34.874 477.497 34.935 477.693 34.9793C477.774 34.9987 477.903 34.9849 478.012 34.9793C478.235 34.9682 478.465 34.96 478.682 34.9322C478.933 34.9017 479.123 34.9073 479.312 34.971C479.488 35.0293 479.665 35.1096 479.868 35.1263C480.173 35.1512 480.511 35.0403 480.816 35.1678C480.972 35.2316 481.168 35.2926 481.372 35.312C481.575 35.3314 481.812 35.2898 482.029 35.2926C482.124 35.2926 482.239 35.3369 482.293 35.373C482.327 35.3924 482.28 35.445 482.232 35.4728C482.171 35.506 482.083 35.5504 481.995 35.5559C481.324 35.6058 480.654 35.6474 479.983 35.6945C479.583 35.7222 479.583 35.7222 478.777 35.5476C478.587 35.506 478.377 35.5143 478.14 35.5337C477.822 35.5587 477.497 35.6058 477.165 35.5559C476.731 35.3674 476.196 35.3508 475.627 35.4228C475.39 35.4533 475.173 35.4533 474.997 35.4007C474.624 35.2953 474.231 35.1983 473.899 35.0736C473.642 34.9766 473.52 34.9683 473.412 35.1013C473.378 35.1429 473.344 35.1872 473.351 35.226C473.391 35.3646 473.466 35.5005 473.506 35.6391C473.52 35.6779 473.466 35.7222 473.432 35.7638C473.323 35.8802 473.181 35.8719 472.944 35.7749C472.707 35.6779 472.422 35.6141 472.043 35.6585C471.718 35.6973 471.366 35.6918 471.04 35.7333C470.539 35.7943 470.187 35.7056 469.828 35.5864C469.753 35.5615 469.625 35.5476 469.53 35.5532C468.52 35.6169 467.518 35.689 466.508 35.7527C466.291 35.7666 466.095 35.725 465.926 35.6502C465.749 35.5753 465.553 35.5365 465.336 35.5504C464.442 35.6086 463.548 35.6613 462.653 35.7333C462.288 35.7638 461.996 35.7278 461.746 35.6307C461.556 35.5587 461.38 35.5365 461.143 35.5448C460.885 35.5531 460.702 35.5809 460.574 35.6613C460.452 35.7389 460.54 35.786 460.811 35.847C461.102 35.9135 461.373 35.9994 461.651 36.0771C461.874 36.066 462.098 36.0438 462.315 36.0465C462.409 36.0465 462.498 36.0964 462.592 36.1242C462.863 36.2045 463.114 36.2849 463.5 36.2406C463.825 36.2018 464.171 36.1935 464.503 36.1685C464.963 36.138 464.963 36.138 465.709 36.3127C465.898 36.357 466.102 36.3542 466.345 36.3293C466.556 36.3099 466.772 36.3487 466.921 36.4318C466.982 36.4651 466.962 36.5206 466.833 36.7035C466.833 36.8393 466.976 36.7783 467.023 36.6896C467.097 36.5621 466.955 36.5206 466.684 36.5899C466.495 36.6398 466.4 36.7118 466.447 36.77C466.474 36.8005 466.603 36.8393 466.833 36.7035C467.43 36.5372 467.883 36.5178 468.317 36.4734C468.574 36.4485 468.737 36.4596 468.94 36.5316C469.184 36.6176 469.428 36.7091 469.828 36.6647C470.261 36.6148 470.722 36.6092 471.162 36.5677C471.569 36.5289 471.779 36.6508 472.036 36.7229C472.348 36.8088 472.693 36.7118 472.978 36.7617C473.276 36.8116 473.486 36.9336 473.831 36.9557C474.333 36.8809 474.651 37.0195 475.031 37.111C475.329 37.1803 475.681 37.1193 475.999 37.0888C476.358 37.0555 476.657 37.086 476.907 37.1858C477.192 37.2995 477.51 37.2745 477.835 37.2496C478.594 37.1941 478.621 37.1858 479.061 37.3383C479.38 37.4491 479.685 37.3993 480.003 37.3854C480.281 37.4602 480.552 37.5406 480.843 37.6071C480.918 37.6238 481.06 37.5961 481.175 37.5877C481.507 37.5656 481.846 37.5434 482.178 37.5212C482.401 37.5074 482.639 37.4658 482.842 37.4824C483.045 37.5018 483.214 37.5822 483.397 37.6349C483.58 37.6876 483.77 37.7402 483.946 37.7956C484.217 37.8788 484.474 37.9481 484.854 37.9065C485.179 37.8705 485.518 37.8594 485.856 37.8345C486.283 37.804 486.27 37.8123 487.062 37.9786C487.489 38.0701 487.929 37.9592 488.363 37.9481C488.58 37.9426 488.79 37.9731 488.939 38.0535C489 38.0867 488.98 38.1422 489 38.1893C487.882 38.2641 486.757 38.3279 485.653 38.4193C485.226 38.4554 485.003 38.3556 484.773 38.2724C484.393 38.1394 483.892 38.3334 483.533 38.1615C483.316 38.059 483.004 38.0008 482.632 38.0507C482.415 38.0784 482.185 38.0756 481.961 38.1006C481.392 38.1615 480.87 38.1643 480.416 37.9731C480.261 37.9065 480.037 37.8705 479.875 37.8067C479.685 37.7374 479.502 37.6986 479.278 37.7125C478.269 37.779 477.266 37.8455 476.264 37.9176C476.176 37.9231 476.087 37.9647 476.013 37.9952C475.823 38.0728 475.884 38.1338 476.189 38.1837C476.291 38.2004 476.372 38.2364 476.467 38.2641C476.65 38.3168 476.819 38.3999 477.022 38.4193C477.226 38.4387 477.463 38.3999 477.686 38.3861C477.91 38.3722 478.147 38.3306 478.35 38.3473C478.554 38.3667 478.723 38.4471 478.912 38.497C479.001 38.5219 479.109 38.5635 479.197 38.5607C479.644 38.5441 480.085 38.5136 480.532 38.4886C480.809 38.5635 481.047 38.6716 481.379 38.6965C481.589 38.7132 481.812 38.6827 482.029 38.6882C482.124 38.691 482.246 38.7326 482.293 38.7686C482.32 38.7908 482.232 38.8462 482.164 38.8739C481.907 38.9793 481.555 38.9599 481.236 38.9931C480.891 39.0291 480.579 39.0181 480.315 38.91C480.139 38.8379 479.942 38.7991 479.725 38.813C479.163 38.849 478.608 38.8906 478.045 38.9211C477.95 38.9266 477.835 38.9017 477.747 38.8823C477.036 38.7132 477.036 38.7076 476.535 38.7437C475.796 38.7963 475.796 38.7963 475.302 38.6494C475.207 38.6217 475.105 38.569 475.024 38.5718C474.238 38.6162 473.459 38.6605 472.68 38.7242C472.422 38.7436 472.246 38.7437 472.057 38.6716C471.894 38.6106 471.704 38.5413 471.501 38.5247C471.291 38.508 471.061 38.5496 470.837 38.5635C470.614 38.5773 470.376 38.6134 470.18 38.5912C469.977 38.569 469.801 38.4914 469.624 38.436C469.442 38.3778 469.245 38.3805 468.994 38.4027C468.222 38.4664 468.215 38.4582 467.45 38.2863C467.362 38.2669 467.247 38.2447 467.152 38.2503C466.589 38.2835 466.034 38.3251 465.472 38.3584C465.255 38.3722 465.045 38.3362 464.896 38.2558C464.835 38.2225 464.855 38.1671 464.815 38.059C464.767 38.034 464.821 38.0784 464.835 38.12C464.936 38.1144 465.058 38.12 465.133 38.0978C465.323 38.0451 465.417 37.9758 465.37 37.9176C465.343 37.8871 465.214 37.8483 465.133 37.8483C464.984 37.8483 464.855 37.9093 464.815 38.059C464.388 38.1504 463.934 38.1699 463.493 38.2142C463.236 38.2419 463.073 38.2281 462.87 38.156C462.626 38.0673 462.376 37.9814 461.976 38.0257C461.542 38.0756 461.082 38.0839 460.635 38.1228C460.12 38.1671 459.896 37.9176 459.463 37.9231C459.015 37.9287 458.568 37.9758 458.121 38.0091C457.728 38.0368 457.728 38.0368 456.915 37.8566C456.617 37.7901 456.265 37.8871 455.974 37.8178C455.777 37.7735 455.608 37.7069 455.418 37.6598C455.337 37.6404 455.208 37.6404 455.106 37.646C454.544 37.6792 453.975 37.7014 453.433 37.7624C452.817 37.8345 452.349 37.7568 451.909 37.5933C451.353 37.6238 450.791 37.6404 450.242 37.6931C449.843 37.7319 449.612 37.6404 449.341 37.5656C449.246 37.5406 449.165 37.4991 449.064 37.488C448.962 37.4769 448.84 37.499 448.731 37.5074C448.284 37.5378 447.824 37.5517 447.39 37.6016C446.855 37.6654 446.652 37.4381 446.238 37.4103C445.961 37.5462 445.812 37.7319 445.263 37.7457C444.816 37.7568 444.369 37.8012 443.922 37.8317C443.698 37.8455 443.474 37.8622 443.251 37.876C442.892 37.901 442.722 38.0091 442.797 38.1754C442.838 38.2669 442.871 38.3583 442.905 38.4498C442.973 38.6134 442.804 38.752 442.519 38.7714C441.733 38.824 440.954 38.8795 440.168 38.9266C439.958 38.9404 439.755 38.8933 439.586 38.8185C439.41 38.7436 439.213 38.7104 438.996 38.7242C438.211 38.7769 437.431 38.8324 436.646 38.8795C436.558 38.885 436.442 38.8573 436.354 38.8351C436.165 38.7852 435.982 38.727 435.799 38.6744C435.352 38.6993 434.911 38.7159 434.471 38.7492C433.76 38.7991 433.76 38.8019 433.238 38.6494C433.143 38.6217 433.048 38.569 432.96 38.5718C432.622 38.5829 432.29 38.6106 431.951 38.6356C430.955 38.7076 430.955 38.7076 430.664 38.6245C430.399 38.5468 430.162 38.4526 429.762 38.497C429.329 38.5469 428.868 38.5635 428.421 38.5912C428.089 38.6106 427.757 38.6328 427.425 38.6383C427.337 38.6411 427.242 38.5884 427.148 38.5607C426.877 38.4748 426.612 38.4055 426.24 38.4526C426.023 38.4803 425.793 38.4859 425.569 38.4997C424.986 38.5385 424.986 38.5385 424.031 38.3722C423.936 38.3556 423.821 38.3362 423.726 38.3445C422.94 38.3944 422.161 38.4498 421.376 38.497C421.281 38.5025 421.166 38.4858 421.071 38.472C420 38.3112 420 38.3112 418.862 38.3888C418.429 38.4166 418.415 38.4277 417.961 38.2807C417.758 38.217 417.589 38.1865 417.351 38.2059C416.457 38.2724 415.556 38.3168 414.669 38.3944C414.269 38.4277 414.039 38.3445 413.768 38.2696C413.673 38.2447 413.571 38.1893 413.49 38.1921C412.596 38.2447 411.701 38.3085 410.807 38.3611C410.726 38.3667 410.624 38.3112 410.529 38.2863C410.346 38.2364 410.17 38.1615 409.967 38.1449C409.757 38.1283 409.527 38.1699 409.296 38.1837C408.734 38.2198 408.734 38.217 408.084 38.0535C407.996 38.0313 407.88 38.0008 407.792 38.0063C406.898 38.0618 405.997 38.1089 405.11 38.1893C404.602 38.2336 404.256 38.1532 403.897 38.0368C403.822 38.0119 403.694 38.0008 403.599 38.0063C402.589 38.0701 401.587 38.1421 400.577 38.2059C400.367 38.2198 400.164 38.1726 399.995 38.1006C399.724 37.9869 399.405 38.0008 399.067 38.0257C398.288 38.0839 398.281 38.0812 397.82 37.9481C397.725 37.9204 397.644 37.8844 397.542 37.8705C397.448 37.8566 397.326 37.865 397.224 37.8705C396.777 37.8982 396.33 37.9287 395.883 37.9592C395.436 37.9897 394.981 38.0063 394.541 38.0535C393.999 38.1117 393.742 37.9315 393.362 37.8483C392.807 37.8843 392.238 37.9065 391.689 37.9647C391.269 38.0091 391.073 37.8871 390.795 37.8234C390.7 37.8012 390.598 37.7541 390.51 37.7596C389.501 37.8206 388.491 37.8871 387.489 37.962C387.245 37.9786 387.082 37.9564 386.879 37.8899C386.425 37.7402 386.405 37.7458 385.646 37.8012C385.314 37.8261 384.996 37.8483 384.711 37.7347C384.46 37.6321 384.156 37.6071 383.797 37.6404C383.356 37.682 382.902 37.7042 382.455 37.7319C382.008 37.7624 381.561 37.804 381.114 37.8178C380.755 37.8317 380.538 37.7014 380.254 37.6349C380.165 37.6155 380.044 37.6127 379.942 37.6182C379.495 37.6432 379.034 37.6626 378.601 37.7097C378.072 37.7679 377.781 37.6155 377.408 37.5268C377.327 37.5074 377.191 37.5185 377.09 37.5268C376.304 37.5767 375.525 37.6321 374.739 37.6848C374.461 37.6099 374.177 37.5379 373.899 37.463C373.452 37.4907 373.005 37.5212 372.557 37.5489C372.219 37.5711 371.873 37.5794 371.555 37.621C371.142 37.6765 370.938 37.5462 370.661 37.4824C370.566 37.4602 370.464 37.4131 370.376 37.4187C369.814 37.4492 369.251 37.4824 368.696 37.5296C368.168 37.5767 367.958 37.3272 367.524 37.3299C367.077 37.3327 366.616 37.3688 366.183 37.4187C365.681 37.4769 365.329 37.3882 364.97 37.269C364.895 37.244 364.767 37.2302 364.672 37.2357C364.11 37.269 363.554 37.3106 362.992 37.3438C362.897 37.3494 362.782 37.3355 362.687 37.3189C361.617 37.1553 361.617 37.1526 361.149 37.1858C360.817 37.208 360.478 37.2357 360.14 37.2496C360.045 37.2551 359.93 37.2302 359.841 37.208C359.137 37.0389 359.137 37.0361 358.629 37.0694C358.182 37.0999 357.735 37.1304 357.287 37.1609C357.01 37.086 356.725 37.014 356.447 36.9391C355.892 36.9752 355.323 37.0029 354.774 37.0527C354.517 37.0749 354.347 37.0666 354.151 36.9973C353.907 36.9142 353.663 36.8172 353.257 36.8643C352.823 36.9142 352.362 36.9197 351.922 36.9613C351.394 37.0112 351.177 36.7589 350.75 36.7617C350.303 36.7645 349.842 36.8005 349.409 36.8504C348.907 36.9086 348.555 36.8199 348.196 36.7007C348.121 36.6758 347.993 36.6619 347.898 36.6675C346.665 36.7479 345.439 36.8282 344.206 36.9142C343.447 36.9668 343.447 36.9696 342.004 36.8171C341.902 36.8061 341.794 36.795 341.692 36.8005C341.245 36.8255 340.784 36.8449 340.351 36.892C339.822 36.9502 339.531 36.8005 339.158 36.709C339.077 36.6896 338.948 36.7007 338.84 36.7063C338.501 36.7257 338.169 36.7506 337.831 36.7728C337.384 36.8033 336.936 36.8338 336.489 36.8643C336.212 36.7922 335.927 36.7174 335.649 36.6453C335.094 36.6813 334.525 36.7007 333.976 36.7589C333.556 36.8033 333.359 36.6869 333.082 36.6203C332.987 36.5982 332.885 36.551 332.797 36.5538C331.788 36.6148 330.778 36.6785 329.776 36.7562C329.362 36.7894 329.173 36.6647 328.895 36.6009C328.8 36.5815 328.692 36.5455 328.604 36.551C327.933 36.5899 327.262 36.637 326.592 36.6841C326.212 36.7118 326.212 36.7118 325.386 36.5399C325.291 36.5205 325.183 36.5011 325.088 36.5067C322.961 36.6453 320.84 36.7922 318.713 36.9308C318.496 36.9447 318.3 36.9031 318.13 36.8282C317.954 36.7534 317.757 36.7146 317.541 36.7285C316.646 36.7867 315.745 36.8393 314.858 36.9114C314.492 36.9419 314.201 36.9058 313.95 36.8088C313.76 36.7367 313.584 36.709 313.347 36.7257C312.9 36.7589 312.453 36.7867 312.006 36.8171C311.559 36.8476 311.112 36.8781 310.664 36.9086C310.217 36.9391 309.763 36.9557 309.323 37.0029C308.781 37.0611 308.517 36.8892 308.144 36.8033C307.474 36.8449 306.803 36.8865 306.139 36.9308C305.245 36.989 304.35 37.0528 303.456 37.1082C303.375 37.1138 303.273 37.0639 303.178 37.0389C302.901 36.9696 302.697 36.8726 302.284 36.9031C300.279 37.05 298.26 37.1747 296.248 37.3189C295.828 37.3494 295.645 37.2302 295.361 37.1664C295.266 37.147 295.157 37.1082 295.069 37.1138C293.951 37.1831 292.834 37.2607 291.716 37.3355C291.262 37.366 291.262 37.366 290.503 37.1941C290.415 37.1747 290.3 37.1498 290.205 37.1553C288.748 37.2496 287.299 37.3494 285.842 37.4464C285.625 37.4602 285.429 37.4214 285.253 37.3466C285.083 37.2717 284.88 37.2302 284.67 37.244C283.329 37.3327 281.981 37.4187 280.646 37.5157C280.287 37.5434 279.989 37.5185 279.731 37.4187C279.548 37.3466 279.366 37.3161 279.135 37.3327C277.123 37.4685 275.111 37.5989 273.099 37.743C272.713 37.7707 272.442 37.718 272.198 37.6266C272.002 37.5545 271.832 37.5406 271.588 37.5517C271.331 37.5656 271.175 37.5961 271.033 37.6792C270.85 37.7873 270.735 37.9232 270.301 37.9315C269.854 37.9398 269.4 37.9731 268.96 38.0202C268.54 38.0673 268.343 37.9426 268.079 37.8677C267.883 37.8151 267.7 37.8067 267.449 37.8317C267.219 37.8539 267.076 37.901 266.941 37.9897C266.643 38.1782 266.616 38.1782 266.25 38.059C266.053 37.9952 265.877 37.9453 265.66 37.9564C264.766 38.0118 263.872 38.0728 262.978 38.1366C262.463 38.1726 262.456 38.1782 262.07 38.0396C261.88 37.9703 261.697 37.937 261.474 37.9536C259.015 38.1199 256.555 38.2807 254.096 38.4554C253.717 38.4831 253.459 38.4249 253.188 38.3417C253.1 38.314 253.012 38.2752 252.911 38.2641C252.809 38.253 252.694 38.2641 252.586 38.2696C250.797 38.3888 249.002 38.5025 247.22 38.6356C246.813 38.666 246.597 38.5774 246.319 38.5053C246.224 38.4803 246.143 38.4415 246.041 38.4304C245.94 38.4221 245.818 38.4415 245.709 38.4498C243.921 38.569 242.125 38.6827 240.344 38.8157C239.917 38.8462 239.734 38.7298 239.456 38.6688C239.361 38.6466 239.26 38.605 239.172 38.6106C238.609 38.6411 238.054 38.6827 237.492 38.7187C236.15 38.8102 234.809 38.8961 233.467 38.9904C232.953 39.0264 232.729 38.7797 232.295 38.7908C231.733 38.8046 231.178 38.8601 230.615 38.8989C230.168 38.9294 229.721 38.9571 229.274 38.9904C228.834 39.0209 228.834 39.0208 227.736 38.8601C227.641 38.8462 227.526 38.8268 227.431 38.8324C225.866 38.9349 224.295 39.0375 222.736 39.1484C222.377 39.1733 222.079 39.1595 221.822 39.0569C221.639 38.9848 221.449 38.9488 221.226 38.9654C218.875 39.1234 216.531 39.2814 214.18 39.4367C214.092 39.4422 213.977 39.4145 213.889 39.3923C213.699 39.3424 213.516 39.2842 213.333 39.2315C213.198 39.2953 213.022 39.3535 212.934 39.4256C212.812 39.5226 212.649 39.5503 212.392 39.5669C212.134 39.5836 211.972 39.578 211.768 39.506C211.524 39.4172 211.274 39.3479 210.874 39.3756C208.415 39.5503 205.956 39.7083 203.496 39.8802C203.09 39.9079 202.9 39.7859 202.616 39.7221C202.521 39.7027 202.412 39.6723 202.324 39.6778C201.315 39.7416 200.312 39.8109 199.303 39.8774C196.505 40.0659 193.707 40.2461 190.916 40.4456C190.408 40.4817 190.062 40.4124 189.703 40.2932C189.629 40.2682 189.5 40.2544 189.405 40.2599C185.49 40.5205 181.574 40.7838 177.665 41.0471C177.455 41.061 177.251 41.0166 177.082 40.9446C176.906 40.8697 176.71 40.8337 176.493 40.8476C174.704 40.9668 172.916 41.086 171.127 41.2079C170.68 41.2384 170.673 41.2412 170.213 41.1081C170.118 41.0804 170.016 41.0278 169.942 41.0333C169.786 41.0472 169.637 41.1164 169.528 41.2107C169.42 41.3105 169.251 41.3382 169 41.3576C168.743 41.377 168.573 41.3687 168.377 41.3022C168.126 41.219 167.896 41.1386 167.489 41.1663C162.347 41.5212 157.205 41.8621 152.063 42.2141C151.65 42.2418 151.46 42.1254 151.176 42.0617C151.081 42.0423 150.986 42.0145 150.885 42.009C150.776 42.0035 150.661 42.0201 150.553 42.0284C142.166 42.5911 133.779 43.1566 125.392 43.7193C124.89 43.7526 124.897 43.7526 124.348 44.0076C124.281 44.0381 124.193 44.0796 124.098 44.0852C121.53 44.2626 118.956 44.4345 116.381 44.6063C115.264 44.6812 114.146 44.7588 113.028 44.8309C112.628 44.8558 112.628 44.8558 111.673 45.1552C111.592 45.1801 111.497 45.2134 111.402 45.2189C106.931 45.5211 102.46 45.8232 97.9815 46.1198C97.6292 46.142 97.3447 46.1919 97.1821 46.3249C97.0669 46.4192 96.9179 46.4746 96.6944 46.4912C93.5645 46.7019 90.4347 46.9154 87.298 47.1205C86.9254 47.1454 86.7018 47.2231 86.5188 47.3395C86.4579 47.3783 86.4036 47.4226 86.3156 47.4503C86.2343 47.4753 86.1124 47.4836 86.0107 47.4919C83.328 47.6721 80.6453 47.8578 77.9558 48.0297C77.5561 48.0546 77.3934 48.1572 77.1969 48.2653C77.1292 48.3013 77.0817 48.3512 76.9937 48.3762C76.9056 48.3984 76.7769 48.3984 76.6685 48.4039C74.4329 48.5536 72.1973 48.706 69.9617 48.8557C69.5281 48.8419 69.4332 49.0026 69.2232 49.0997C69.1487 49.1329 69.0946 49.1773 69.0065 49.1995C68.9117 49.2216 68.7896 49.2188 68.6744 49.2244C66.8859 49.3436 65.0974 49.4711 63.3022 49.582C62.8889 49.6069 62.8076 49.7483 62.584 49.8453C62.5095 49.8758 62.4351 49.9229 62.347 49.9312C61.2292 50.0116 60.1114 50.0865 58.9936 50.1585C58.621 50.1835 58.621 50.1807 57.9638 50.4552C57.8893 50.4856 57.8011 50.5189 57.7063 50.5272C56.033 50.6436 54.3529 50.7545 52.6728 50.8682C52.456 50.882 52.307 50.9486 52.1986 51.0428C52.0902 51.1371 51.9344 51.198 51.7176 51.2119C50.3762 51.3034 49.0347 51.3976 47.6934 51.4808C47.3208 51.5029 47.0769 51.5722 46.9143 51.697C46.7924 51.7912 46.6434 51.8383 46.4062 51.855C45.0649 51.9437 43.7235 52.0407 42.3754 52.1183C41.9824 52.1405 41.7791 52.2347 41.6165 52.3512C41.4878 52.4454 41.3388 52.4787 41.0881 52.4953C38.6289 52.6561 36.163 52.8168 33.7106 52.9942C33.2973 53.0247 33.0873 52.9277 32.8163 52.8584C32.4301 52.7614 32.0712 52.6561 32.0712 52.4398C32.0712 52.4066 31.956 52.3678 31.8747 52.3401C31.2718 52.1322 31.2717 52.1322 31.1769 51.9104C31.1227 51.7746 31.0617 51.636 31.0143 51.4974C30.9262 51.2701 30.7094 51.2119 30.0861 51.2535C29.8625 51.2673 29.639 51.2867 29.4154 51.2978C29.0835 51.3172 28.8328 51.2257 28.7719 51.0594C28.738 50.9679 28.6974 50.8765 28.6635 50.785C29.0023 50.7628 28.9954 50.7601 29.5916 50.4247C29.8422 50.2833 29.8423 50.2833 29.3613 50.1419C29.1784 50.0893 29.0022 50.031 28.8058 49.9811C28.7177 49.9589 28.6026 49.9451 28.5077 49.9506C27.9454 49.9839 27.3899 50.0227 26.8344 50.0615C25.9402 50.1225 25.94 50.1225 25.0322 49.8398C24.9577 49.8176 24.8425 49.776 24.8561 49.7538C24.9306 49.6513 25.1135 49.6069 25.3439 49.5958C25.6826 49.5792 26.0145 49.5515 26.3465 49.5293C26.57 49.5154 26.7936 49.4988 27.0172 49.485C27.2272 49.3796 27.4441 49.2771 27.6405 49.169C27.9522 49.0026 27.9521 48.9971 27.5253 48.8807C27.2543 48.8031 26.963 48.7337 26.6852 48.6617C26.3533 48.6839 26.0145 48.7088 25.6826 48.7282C25.2626 48.7531 25.0932 48.7005 24.9848 48.5203C24.8899 48.3623 25.0051 48.2265 25.3303 48.1932C25.6622 48.16 25.974 48.1378 26.1434 47.9964C26.306 47.8606 26.5905 47.8079 26.9427 47.7968C27.1663 47.7885 27.3899 47.7691 27.6134 47.7525C27.9047 47.7303 28.0606 47.5889 27.9996 47.4309C27.9657 47.3284 27.898 47.2425 27.6338 47.2203C26.4618 47.1233 26.4481 47.126 25.8655 46.9375C25.8113 46.9209 25.7708 46.871 25.7911 46.8461C25.825 46.8045 25.8995 46.7435 25.9808 46.7352C26.7599 46.6742 27.5389 46.6188 28.318 46.5772C28.5754 46.5633 28.7652 46.5439 28.8532 46.4413C28.9752 46.3 28.921 46.1697 28.6839 46.0727C28.6093 46.0422 28.4873 46.0034 28.406 46.0062C27.5117 46.0561 26.6243 46.1198 25.7301 46.1697C25.6488 46.1752 25.4998 46.1281 25.4659 46.0921C25.3982 46.0256 25.4997 45.9369 25.7368 45.9064C26.0485 45.8648 26.3669 45.862 26.5769 45.7234C26.8682 45.5266 27.2272 45.3465 27.5524 45.158C27.6066 45.1247 27.6948 45.0609 27.6745 45.0554C27.5051 44.9944 27.3086 44.9473 27.1324 44.8891C26.8344 44.792 26.8343 44.6562 26.9021 44.5259C26.9562 44.4206 27.1595 44.379 27.4101 44.379C27.5185 44.379 27.654 44.379 27.7421 44.3541C27.9724 44.2931 28.047 44.2155 27.9318 44.1573C27.8641 44.124 27.7422 44.0769 27.6609 44.0824C26.2111 44.1739 24.7545 44.2626 23.3115 44.3763C22.8847 44.4095 22.6883 44.3042 22.4309 44.2293C22.2344 44.1711 22.0514 44.1489 21.8075 44.1905C21.5772 44.2293 21.3537 44.2072 21.2114 44.1157C21.0963 44.0409 21.2995 43.9771 21.8482 43.905C21.9498 43.8912 22.0649 43.8828 22.1395 43.8551C22.9253 43.5558 22.9253 43.553 23.4673 43.5142C23.9957 43.4781 23.9958 43.4754 24.2736 43.3146C24.4023 43.2398 24.5444 43.1649 24.6664 43.0873C24.7138 43.0568 24.7952 43.0014 24.7681 42.9847C24.6191 42.8988 24.4157 42.8794 24.1786 42.8988C23.6502 42.9459 23.027 42.9071 22.7493 43.1705C22.6409 43.2702 22.4715 43.298 22.2276 43.3146C19.7752 43.4754 17.3227 43.6472 14.8635 43.8025C14.4638 43.8274 14.281 43.93 14.1252 44.0436C13.9897 44.1379 13.8406 44.1656 13.5832 44.1822C13.3257 44.1989 13.1224 44.2072 12.9734 44.1157C12.8853 44.0603 12.9598 43.9826 13.1631 43.905C13.4544 43.7942 13.4002 43.6556 13.3053 43.5253C13.2376 43.4393 13.0276 43.3784 12.804 43.3839C12.472 43.395 12.1537 43.4255 11.876 43.3146C11.7134 43.2509 11.5101 43.2065 11.3272 43.151C10.9749 43.0374 10.6226 42.921 10.128 42.9958C9.78932 42.9681 9.5522 42.8683 9.28122 42.7907C8.82732 42.6632 8.78667 42.6438 9.11185 42.508C9.47768 42.3555 9.19309 42.1559 9.39633 42.0062C9.61312 41.8454 9.9113 41.7041 10.1755 41.5544C10.2433 41.5156 10.3043 41.4796 10.372 41.4408C10.2162 41.3853 10.0739 41.316 9.89103 41.2772C9.65392 41.2273 9.53197 41.1663 9.54552 40.9945C9.4981 40.9695 9.51828 41.0333 9.57248 41.0499C9.63345 41.0665 9.78261 41.0527 9.85713 41.0333C10.0468 40.9806 10.1416 40.9113 10.0941 40.8531C10.067 40.8226 9.93842 40.7838 9.85713 40.7838C9.70809 40.7838 9.57939 40.8448 9.53874 40.9945C8.77998 41.1081 7.994 41.1636 7.20814 41.2079C7.12684 41.2135 7.02528 41.158 6.93044 41.1303C6.61881 41.0361 6.61877 41.0388 5.70419 41.0111C5.60934 41.0083 5.48069 40.9695 5.43327 40.9307C5.23681 40.7616 5.24363 40.5759 5.14879 40.3957C5.32493 40.2793 5.50093 40.1657 5.68385 40.052C6.04968 39.8219 6.52401 39.6196 6.80854 39.3674C6.74757 39.2315 6.66626 39.0957 6.96434 38.9848C7.81117 38.8462 7.80445 38.8462 8.03479 38.7132C8.69193 38.3362 9.34225 37.9564 10.0265 37.585C10.2094 37.488 10.2094 37.4353 9.88425 37.3937C9.78263 37.3826 9.67409 37.3799 9.5657 37.3854C9.22697 37.4048 8.88824 37.4547 8.55628 37.4436C8.22433 37.4353 7.98044 37.3133 7.70946 37.2385C7.4317 37.1609 7.15395 37.0805 6.87619 37.0001C6.55778 37.0084 6.23943 37.086 5.92102 36.9613C5.67714 36.8643 5.3723 36.795 5.09454 36.7146C5.30455 36.5039 5.69754 36.3431 6.0024 36.1574C6.28016 35.9883 6.28678 35.9911 7.03199 35.8608C7.38427 35.7998 7.50622 35.4866 7.20814 35.3951C6.84908 35.2843 6.46978 35.1817 6.10395 35.0763C5.78555 35.0847 5.46043 35.1595 5.15557 35.0348C4.91846 34.9406 4.64742 34.8768 4.25449 34.9128C3.59058 34.9738 2.91313 35.0043 2.24244 35.0542C2.01211 35.0708 1.76137 35.0597 1.65975 34.9655C1.59201 34.899 1.78848 34.8075 2.01205 34.7881C2.35078 34.7604 2.6556 34.7271 2.82497 34.5885C2.98756 34.4499 3.28561 34.4083 3.63789 34.3889C3.73274 34.3834 3.84121 34.3501 3.88863 34.3168C4.13252 34.1561 4.40353 34.0175 4.92517 34.023C5.14196 33.9676 5.25706 33.8983 5.18931 33.8317C5.14866 33.7957 5.00647 33.7486 4.92517 33.7542C4.36288 33.7819 3.8006 33.8096 3.25186 33.8595C2.99442 33.8817 2.79785 33.8872 2.63526 33.804C2.52009 33.7486 2.58106 33.6737 2.79784 33.5934C2.98753 33.5241 3.04179 33.4437 3.02824 33.3494C2.99437 33.1304 2.79109 33.0667 2.14073 33.0806C1.67328 33.0916 1.5581 33.0556 1.45648 32.8671C1.42938 32.8228 1.36175 32.7618 1.40918 32.7313C1.70049 32.5428 1.89019 32.31 2.43893 32.2213C2.65572 32.188 2.88597 32.188 3.02146 32.1159C3.15695 32.0439 3.27896 31.9607 3.42122 31.8914C3.59736 31.8082 3.71919 31.7306 3.63789 31.678C3.5024 31.5837 3.28568 31.5754 3.03502 31.6087C2.81824 31.6364 2.5879 31.6391 2.36434 31.6558C1.96464 31.6863 1.63953 31.6142 1.59211 31.4922C1.46339 31.1707 1.32785 30.8519 1.21269 30.5304C1.19914 30.4916 1.23292 30.4417 1.28711 30.4084C1.4768 30.292 1.68012 30.1811 1.87659 30.0675C2.10692 29.9372 2.47281 29.9621 2.78445 29.9372C3.2248 29.9011 3.22465 29.9039 3.81404 29.6378C4.04438 29.5325 4.4441 29.574 4.68121 29.4798C4.75573 29.4493 4.8709 29.3994 4.85058 29.3717C4.82348 29.3357 4.68806 29.3079 4.58644 29.2913C4.4916 29.2747 4.37645 29.2664 4.27483 29.2747C3.04185 29.3551 1.81568 29.441 0.582691 29.5186C0.372678 29.5325 0.142334 29.4715 0.0678125 29.3856C-0.00670848 29.3052 0.0135493 29.2081 0 29.1167C0.196464 29.003 0.419941 28.8977 0.589307 28.7757C0.718025 28.6815 0.867094 28.6399 1.12453 28.6343C1.46326 28.626 1.79525 28.5928 2.17463 28.5678C2.87919 28.1631 3.57016 27.739 4.32892 27.3343C4.63378 27.1708 4.55938 27.0044 4.62035 26.8298C4.68132 26.669 5.13519 26.694 5.44005 26.6469C5.68394 26.6081 5.76513 26.5194 5.67028 26.4584C5.61609 26.4223 5.49421 26.3807 5.39936 26.3807C5.1758 26.3807 4.95225 26.4057 4.72868 26.4196C4.50512 26.4334 4.2477 26.4251 4.06478 26.4722C3.88864 26.5166 3.77341 26.6108 3.65824 26.6912C3.52952 26.7799 3.36027 26.8104 3.10284 26.816C2.77088 26.8215 2.43894 26.8464 2.10698 26.8658C1.74115 26.7577 1.3617 26.6524 1.00941 26.5388C0.941668 26.5166 0.928046 26.4528 0.93482 26.4113C0.94837 26.3032 0.846777 26.2366 0.623214 26.1839C0.433524 26.1396 0.277694 26.0759 0.101553 26.0204C0.237046 25.9456 0.386141 25.8735 0.494535 25.7931C0.731647 25.624 1.02976 25.5021 1.54464 25.5076C1.74788 25.3995 1.91042 25.2664 2.17463 25.1916C2.42529 25.1195 2.85211 25.1916 3.0418 25.028C3.13665 24.9476 3.279 24.8562 3.46191 24.8229C3.75322 24.7702 4.13259 24.798 4.30196 24.6428C4.40358 24.5541 4.55256 24.4737 4.74903 24.4515C4.97259 24.4265 5.20287 24.421 5.36546 24.3683C5.45353 24.3406 5.54839 24.2963 5.54839 24.2575C5.54839 24.2325 5.413 24.1937 5.31815 24.1771C5.23008 24.1577 5.11478 24.1438 5.01316 24.1493C4.67443 24.166 4.34248 24.1965 4.00375 24.2131C3.9089 24.2186 3.80054 24.1992 3.69892 24.1826C3.40084 24.1383 3.42112 24.0828 3.65824 23.983C3.89535 23.886 4.06481 23.7613 4.26127 23.6476C4.47806 23.6282 4.74901 23.6365 4.89805 23.5839C5.14871 23.4979 5.3248 23.3732 5.52804 23.2651C5.75161 23.2484 5.98193 23.2429 6.19194 23.2124C6.28001 23.2013 6.32069 23.1404 6.39522 23.1043C6.53071 23.035 6.64597 22.9352 6.82889 22.902C7.12697 22.8521 7.49279 22.8715 7.66893 22.719C7.77055 22.6303 7.92631 22.5361 8.116 22.5305C8.64442 22.5195 8.86799 22.367 9.13898 22.2228C9.34222 22.1147 9.77581 22.1702 9.99937 22.0621C10.1484 21.9928 10.2569 21.9068 10.4059 21.8403C10.4669 21.8126 10.5956 21.7987 10.6972 21.7904C11.2527 21.7488 11.815 21.7183 12.3705 21.674C12.4586 21.6657 12.5399 21.6241 12.6077 21.5908C12.7499 21.5188 12.8379 21.419 13.014 21.3718C13.1902 21.3247 13.4408 21.3247 13.6576 21.3109C14.3554 21.2693 14.4096 21.2804 14.7281 21.0447C14.9855 20.8535 15.6156 20.9893 15.8256 20.7786C15.9476 20.6567 16.171 20.5569 16.5707 20.543C17.133 20.5236 17.6885 20.471 18.2508 20.4349C18.7522 20.4017 18.7454 20.4017 19.2874 20.1439C19.5313 20.0274 19.8904 20.0441 20.2088 20.0219C20.5475 19.9997 20.8591 19.9665 21.0217 19.8279C21.1843 19.6921 21.4823 19.6477 21.8279 19.6283C22.1463 19.6089 22.5054 19.6228 22.7561 19.5119C23.3658 19.2458 23.359 19.243 23.7858 19.2153C24.4565 19.1709 25.1272 19.1266 25.7979 19.0794C26.245 19.0489 26.7124 19.0434 27.1324 18.9824C27.4373 18.9381 27.5728 18.7829 27.7692 18.6747C28.3247 18.6332 28.8802 18.5916 29.4358 18.5528C30.2148 18.4973 31.0007 18.4474 31.7865 18.3948C32.1253 18.2894 32.1728 18.0566 32.7419 18.0455C33.0806 18.04 33.4125 18.0039 33.7513 17.9818C34.3136 17.943 34.8691 17.8931 35.4314 17.8736C35.8582 17.8598 35.9326 17.7101 36.1561 17.6158C36.2307 17.5826 36.2985 17.5355 36.3865 17.5272C37.2672 17.4495 38.175 17.4329 39.0354 17.3193C39.1234 17.3082 39.2047 17.25 39.2251 17.2084C39.2386 17.1862 39.1234 17.1446 39.0489 17.1252C38.9609 17.1031 38.8457 17.0809 38.7509 17.0864C35.953 17.2721 33.1551 17.4606 30.3572 17.6464C29.9643 17.6741 29.9643 17.6713 29.009 17.9762C28.9277 18.0012 28.8328 18.0289 28.7312 18.0372C28.284 18.0704 27.8302 18.0899 27.3898 18.1315C27.0307 18.1647 26.7328 18.1314 26.4753 18.0316C26.2924 17.9596 26.1026 17.9374 25.8723 17.9429C25.6149 17.9513 25.4456 17.9818 25.2965 18.0566C25.1001 18.1592 24.9984 18.2922 24.5852 18.3199C22.6815 18.4391 20.7777 18.5722 18.8808 18.6997C18.6166 18.6609 18.4879 18.6027 18.5557 18.5334C18.5963 18.4918 18.6776 18.4364 18.7589 18.4308C19.538 18.3726 20.3238 18.3227 21.1029 18.2673C21.2113 18.259 21.3603 18.2645 21.4213 18.2368C21.7194 18.112 21.8279 17.9097 22.3902 17.8958C22.7154 17.8875 23.0473 17.8459 23.3589 17.8071C23.447 17.796 23.5283 17.7378 23.5486 17.6962C23.5554 17.6741 23.447 17.6325 23.3657 17.6131C23.0676 17.5327 22.7222 17.6297 22.4241 17.5743C22.3225 17.5549 22.1801 17.5272 22.1598 17.4939C22.1463 17.4634 22.2614 17.4135 22.3427 17.383C22.4173 17.3553 22.5188 17.3304 22.6204 17.322C23.5147 17.2583 24.4091 17.1917 25.3033 17.1419C25.6692 17.1224 25.9265 17.0531 26.0891 16.9256C26.2111 16.8314 26.3601 16.7815 26.5904 16.7676C28.1554 16.6651 29.7203 16.5514 31.292 16.4572C31.6849 16.435 31.8882 16.3435 32.0508 16.2244C32.1796 16.1301 32.3286 16.0968 32.5793 16.0802C34.8217 15.9361 37.0505 15.7753 39.2929 15.6367C39.7061 15.6118 39.8281 15.4926 40.0382 15.39C40.1127 15.354 40.16 15.3096 40.2548 15.2874C40.3497 15.2653 40.4716 15.268 40.5868 15.2625C42.3753 15.1433 44.1639 15.0158 45.9592 14.9049C46.3792 14.88 46.4604 14.7413 46.6772 14.6443C46.7517 14.6138 46.8195 14.564 46.9076 14.5556C48.2489 14.4614 49.5903 14.3727 50.9317 14.2812C51.8259 14.2202 52.7201 14.1592 53.6144 14.101C54.0547 14.0733 54.0548 14.0705 54.6509 13.8072C54.7187 13.7767 54.8136 13.7407 54.9017 13.7323C57.476 13.5549 60.0435 13.3859 62.6179 13.2112C62.8347 13.1974 62.9905 13.1336 63.0989 13.0394C63.2073 12.9451 63.3632 12.8814 63.5732 12.8675C65.5853 12.7289 67.5973 12.5931 69.6162 12.4628C69.982 12.4406 70.2394 12.3741 70.402 12.2494C70.5239 12.1551 70.6729 12.1052 70.9033 12.0914C72.9153 11.9583 74.9275 11.8169 76.9464 11.6894C77.3325 11.6645 77.5221 11.5702 77.7118 11.4594C77.7796 11.4205 77.8338 11.3568 77.9151 11.3512C78.9177 11.2736 79.9136 11.1932 80.923 11.1406C81.343 11.1184 81.4853 11.002 81.6547 10.8911C81.7902 10.8024 81.946 10.7719 82.2035 10.7608C82.7658 10.7359 83.3213 10.6888 83.87 10.6416C83.9513 10.6333 84.053 10.5723 84.0597 10.5335C84.0733 10.4615 83.9174 10.4116 83.66 10.3866C80.9772 10.5668 78.2878 10.747 75.605 10.9271C75.1646 10.9576 75.1646 10.9576 74.5685 11.221C74.5007 11.2515 74.4058 11.2875 74.3109 11.2958C71.7366 11.4705 69.1691 11.6423 66.5947 11.8169C66.3779 11.8308 66.2221 11.8946 66.1137 11.9888C66.0053 12.0831 65.8494 12.1468 65.6394 12.1607C63.1802 12.327 60.721 12.4961 58.2551 12.6541C57.8893 12.6763 57.6319 12.74 57.4693 12.8675C57.3473 12.9617 57.1983 13.0117 56.968 13.0255C54.6172 13.1807 52.273 13.3443 49.9155 13.494C49.6784 13.5078 49.5023 13.4274 49.5159 13.3526C49.5226 13.3138 49.6241 13.2501 49.7054 13.2445C50.9316 13.153 52.1512 13.0588 53.3842 12.9895C53.7974 12.9673 53.9193 12.8453 54.1293 12.7428C54.197 12.7067 54.2513 12.6596 54.3393 12.6402C54.4342 12.618 54.5561 12.6208 54.6713 12.6153C57.5776 12.4185 60.484 12.2189 63.3971 12.0332C63.8171 12.0054 63.8983 11.8696 64.1151 11.7726C64.1896 11.7393 64.2574 11.6894 64.3455 11.6839C65.2397 11.6174 66.134 11.5592 67.0282 11.5009C68.5931 11.3956 70.158 11.2903 71.7298 11.1849C72.1837 11.1544 72.1837 11.1544 72.7663 10.8939C72.834 10.8634 72.929 10.8246 73.017 10.8191C77.1563 10.5391 81.2957 10.2591 85.435 9.98192C85.6518 9.96806 85.8076 9.90431 85.916 9.81006C86.0244 9.71859 86.1801 9.65206 86.3902 9.63543C91.986 9.25844 97.5751 8.88144 103.171 8.51C103.537 8.48505 103.794 8.42683 103.957 8.29655C104.072 8.20231 104.228 8.15242 104.458 8.13579C110.609 7.72277 116.761 7.30976 122.919 6.89396C127.058 6.61677 131.198 6.33403 135.337 6.06238C135.716 6.03743 135.919 5.95149 136.109 5.83784C136.17 5.79903 136.231 5.73527 136.312 5.72973C137.2 5.66043 138.087 5.59668 138.975 5.53293C139.253 5.60777 139.53 5.67985 139.808 5.7547C140.018 5.64936 140.221 5.54125 140.431 5.43592C141.773 5.35553 143.094 5.23079 144.449 5.19198C144.537 5.18921 144.632 5.24189 144.726 5.26961C145.356 5.44424 145.716 5.43038 146.115 5.19753C146.258 5.11437 146.379 5.03953 146.596 5.02567C147.267 4.97578 147.945 4.94251 148.608 4.8843C148.968 4.85381 149.266 4.88152 149.523 4.98131C149.706 5.05338 149.896 5.08389 150.119 5.06726C151.352 4.9841 152.578 4.9037 153.811 4.815C153.899 4.80946 153.981 4.76232 154.048 4.72906C154.191 4.65698 154.313 4.57939 154.448 4.50455C154.631 4.55167 154.834 4.58771 154.983 4.64869C155.173 4.72076 155.349 4.72075 155.607 4.70134C160.525 4.36594 165.45 4.03885 170.369 3.70067C170.789 3.67295 170.971 3.78939 171.256 3.85037C171.351 3.87255 171.446 3.90025 171.547 3.90579C171.656 3.91134 171.771 3.89472 171.879 3.88641C175.571 3.63693 179.264 3.39021 182.956 3.14073C183.444 3.10747 183.444 3.10747 184.169 3.27933C184.257 3.30151 184.372 3.32646 184.467 3.31814C186.147 3.21004 187.827 3.09363 189.5 2.98275C189.717 2.96889 189.9 3.01323 190.096 3.07698C190.482 3.20172 190.509 3.20173 190.794 3.01878C190.929 2.93285 191.072 2.88016 191.295 2.85522C191.539 2.8275 191.736 2.83584 191.925 2.88574C192.196 2.95504 192.393 3.07144 192.806 3.04095C194.595 2.91067 196.39 2.80257 198.172 2.66952C198.578 2.63902 198.795 2.73327 199.066 2.80256C199.161 2.82751 199.249 2.86632 199.35 2.87464C199.452 2.88295 199.574 2.86353 199.682 2.85522C201.918 2.70553 204.16 2.55864 206.389 2.39787C206.809 2.36738 206.992 2.48655 207.277 2.54753C207.372 2.56971 207.48 2.60854 207.568 2.60299C208.909 2.51706 210.258 2.42556 211.599 2.33409C212.08 2.30082 212.08 2.3036 212.812 2.47268C212.9 2.49486 213.015 2.51704 213.11 2.5115C214.675 2.40893 216.246 2.3036 217.811 2.19826C218.292 2.165 218.292 2.16501 219.681 2.30915C219.783 2.32024 219.891 2.33689 219.993 2.33135C221.781 2.21215 223.576 2.09571 225.365 1.96821C225.724 1.94326 226.022 1.96543 226.28 2.06522C226.463 2.13729 226.652 2.16779 226.876 2.15116C228.888 2.01534 230.907 1.88506 232.912 1.74092C233.298 1.7132 233.549 1.77416 233.82 1.85455C233.908 1.88227 233.996 1.92108 234.098 1.93217C234.199 1.94326 234.314 1.93216 234.423 1.92384C236.435 1.78802 238.454 1.66051 240.459 1.5136C240.865 1.48311 241.082 1.57735 241.353 1.64665C241.448 1.6716 241.55 1.72149 241.631 1.71872C242.417 1.6716 243.203 1.63004 243.982 1.56074C244.402 1.52193 244.585 1.64942 244.869 1.7104C244.964 1.7298 245.072 1.7714 245.16 1.76586C246.841 1.65775 248.521 1.54411 250.194 1.42769C250.431 1.41106 250.607 1.43598 250.797 1.50805C251.048 1.60507 251.339 1.64388 251.705 1.61339C252.484 1.54963 253.27 1.50529 254.056 1.45263C254.516 1.42214 254.516 1.42214 255.925 1.56629C256.027 1.57737 256.135 1.59399 256.237 1.58845C257.578 1.49975 258.927 1.41382 260.261 1.3168C260.62 1.28908 260.918 1.31403 261.176 1.41382C261.359 1.48589 261.542 1.51639 261.772 1.49976C263.005 1.4166 264.231 1.33344 265.464 1.25028C265.911 1.21979 266.358 1.16711 266.806 1.16711C267.131 1.16988 267.368 1.30293 267.659 1.36945C267.74 1.38886 267.876 1.36671 267.984 1.36116C269.549 1.25583 271.121 1.1588 272.679 1.03961C273.086 1.00912 273.302 1.10336 273.573 1.17266C273.668 1.1976 273.77 1.2475 273.851 1.24473C274.413 1.21424 274.969 1.17266 275.531 1.13662C276.202 1.09227 276.879 1.05901 277.543 0.998023C278.085 0.948128 278.288 1.18928 278.722 1.1976C279.054 1.20591 279.393 1.1588 279.725 1.13662C280.395 1.09227 281.066 1.04238 281.737 1.00357C281.974 0.989712 282.157 0.945342 282.231 0.845552C282.245 0.826148 282.13 0.784587 282.055 0.759639C281.154 0.4769 281.154 0.476887 280.246 0.53787C279.684 0.576677 279.128 0.615491 278.566 0.648755C278.471 0.654298 278.363 0.632124 278.268 0.615492C277.997 0.568369 278.024 0.512936 278.255 0.413146C278.485 0.313355 278.661 0.1914 278.857 0.0777506C279.135 0.149821 279.406 0.221866 279.684 0.293937C279.908 0.280077 280.131 0.26347 280.355 0.24961C281.473 0.177539 282.59 0.102691 283.708 0.0361646C283.789 0.0306207 283.891 0.0860678 283.986 0.113787C284.257 0.194174 284.501 0.263454 284.894 0.232962C285.896 0.152576 286.906 0.0943647 287.908 0.025066C288.349 -0.00542548 288.349 -0.00542276 289.121 0.166438C289.209 0.185842 289.324 0.208019 289.419 0.202475C290.429 0.13872 291.431 0.0694293 292.441 0.00290255C292.657 -0.0109572 292.867 0.0250768 293.023 0.105463C293.084 0.138727 293.071 0.194155 293.328 0.648755C294.128 1.01742 294.676 0.978635 295.232 0.945372C295.469 0.931512 295.679 0.917639 295.835 0.8622C295.916 0.831709 296.018 0.787351 296.018 0.751315C296.018 0.723596 295.869 0.679236 295.774 0.673693C295.103 0.618254 294.466 0.734692 293.809 0.759639C293.504 0.770727 293.24 0.673707 293.186 0.515706C293.172 0.471355 293.152 0.424235 293.132 0.379884C293.111 0.335532 293.098 0.288412 293.078 0.244061C292.813 0.230201 292.658 0.280088 292.542 0.374334C292.448 0.451949 292.312 0.540651 292.129 0.58223C291.946 0.626582 291.695 0.618281 291.472 0.63214C291.255 0.646 291.018 0.682031 290.815 0.662628C290.612 0.640452 290.449 0.560052 290.259 0.510157C290.171 0.48521 290.063 0.449188 289.975 0.454732C289.196 0.501855 288.423 0.54896 287.651 0.609943C287.245 0.643207 287.041 0.526802 286.784 0.454732C286.581 0.399293 286.377 0.413135 286.343 0.540644C286.255 0.845559 286.567 0.973062 287.258 0.914851C287.827 0.864956 288.342 0.856666 288.789 1.04516C288.85 1.07011 288.992 1.08119 289.08 1.07565C289.636 1.04238 290.185 1.0008 290.74 0.967535C290.842 0.961992 290.95 0.973062 291.045 0.98415C292.427 1.13383 292.427 1.13662 292.895 1.10336C293.118 1.08673 293.335 1.07287 293.315 0.651529C293.741 0.199701 294.419 0.169215 295.076 0.102689C295.503 0.0611094 295.686 0.183081 295.963 0.246835C296.058 0.269011 296.16 0.313354 296.248 0.30781C297.705 0.216336 299.154 0.119304 300.604 0.016742C300.848 0.000110297 301.024 0.0167447 301.214 0.0888154C301.458 0.18029 301.729 0.238513 302.115 0.205249C302.887 0.138723 303.673 0.0971529 304.459 0.0417139C304.859 0.0139944 304.859 0.013966 305.665 0.185827C305.753 0.20523 305.868 0.227407 305.963 0.221864C306.749 0.17474 307.528 0.116547 308.307 0.066652C308.524 0.0527922 308.72 0.0915955 308.889 0.166438C309.059 0.241281 309.262 0.280084 309.472 0.266224C310.258 0.216329 311.037 0.160908 311.816 0.111013C311.911 0.105469 312.026 0.124871 312.114 0.144275C312.941 0.316136 312.941 0.316107 313.32 0.288388C313.876 0.246808 314.445 0.227426 314.993 0.171987C315.529 0.116548 315.806 0.277308 316.172 0.36601C317.175 0.302255 318.184 0.249602 319.18 0.171987C319.587 0.138724 319.803 0.23019 320.074 0.302261C320.169 0.327208 320.264 0.379881 320.352 0.377109C320.691 0.366021 321.023 0.335535 321.355 0.313359C321.687 0.291184 322.026 0.269011 322.358 0.246835C322.737 0.327222 322.988 0.515712 323.53 0.451957C323.855 0.41315 324.2 0.404834 324.532 0.382658C324.864 0.360483 325.203 0.33831 325.535 0.316134C325.758 0.302274 325.989 0.293946 326.205 0.268999C326.605 0.22742 326.802 0.363261 327.086 0.424244C327.181 0.443648 327.289 0.47689 327.377 0.471346C328.048 0.432538 328.726 0.399278 329.383 0.335523C329.891 0.285628 330.236 0.368797 330.595 0.485219C330.67 0.510167 330.799 0.524025 330.893 0.518481C331.679 0.471358 332.458 0.413131 333.237 0.363236C333.447 0.349376 333.651 0.393726 333.82 0.465796C333.996 0.540639 334.193 0.576701 334.409 0.562842C335.189 0.512947 335.975 0.457491 336.754 0.407596C336.848 0.402052 336.964 0.424232 337.052 0.446408C337.81 0.618268 337.81 0.621043 338.258 0.58778C338.366 0.579464 338.481 0.573898 338.59 0.565583C339.145 0.526775 339.721 0.512934 340.263 0.446408C340.886 0.371565 341.34 0.465815 341.78 0.623816C342.336 0.590553 342.905 0.571145 343.447 0.515706C343.853 0.474127 344.07 0.579456 344.341 0.648755C344.436 0.673702 344.538 0.723597 344.619 0.718053C345.405 0.67093 346.191 0.629366 346.963 0.560067C347.383 0.52126 347.566 0.645974 347.85 0.709729C347.945 0.731905 348.047 0.770732 348.135 0.765189C348.582 0.743013 349.029 0.709733 349.476 0.679242C349.998 0.643207 349.998 0.645976 350.689 0.815065C351.014 0.895451 351.339 0.831694 351.658 0.81229C351.997 0.790114 352.315 0.773488 352.586 0.887138C352.755 0.959209 352.959 1.00356 353.169 0.992473C353.616 0.967526 354.07 0.942591 354.51 0.901011C354.862 0.867748 355.167 0.889911 355.424 0.992473C355.607 1.06454 355.797 1.1006 356.021 1.08397C357.023 1.01744 358.033 0.948118 359.035 0.884363C359.123 0.87882 359.245 0.903777 359.327 0.928724C359.516 0.978619 359.699 1.03405 359.882 1.08948C360.323 1.06454 360.776 1.05348 361.21 1.01467C361.671 0.975863 362.091 0.962 362.45 1.11446C362.524 1.14772 362.633 1.19482 362.721 1.19205C363.059 1.18096 363.391 1.15325 363.723 1.13107C364.055 1.1089 364.394 1.08672 364.726 1.06455C365.112 1.13385 365.356 1.33342 365.898 1.26967C366.223 1.23086 366.569 1.22255 366.901 1.20037C367.233 1.17819 367.571 1.15325 367.903 1.13385C368.012 1.1283 368.134 1.11443 368.229 1.12552C368.33 1.13661 368.418 1.17542 368.506 1.20314C368.777 1.28353 369.028 1.36393 369.414 1.3168C369.739 1.278 370.085 1.26968 370.417 1.24473C370.871 1.21424 370.871 1.21424 371.623 1.38888C371.928 1.46095 372.273 1.36671 372.564 1.42769C372.761 1.46927 372.93 1.53855 373.12 1.58567C373.201 1.60508 373.33 1.61338 373.425 1.60784C373.872 1.58289 374.326 1.55796 374.766 1.51638C375.125 1.48311 375.423 1.51637 375.674 1.61616C375.857 1.68823 376.04 1.71874 376.27 1.70211C377.388 1.62449 378.506 1.55795 379.617 1.47202C379.996 1.44152 380.301 1.48866 380.511 1.58845C380.87 1.76031 381.378 1.55796 381.751 1.69656C381.981 1.78249 382.211 1.88229 382.631 1.84071C383.404 1.76864 384.19 1.72981 384.969 1.67991C385.246 1.75475 385.524 1.82961 385.809 1.90446C386.256 1.87396 386.703 1.84345 387.15 1.81573C387.482 1.79356 387.821 1.76861 388.153 1.74921C388.261 1.74367 388.376 1.73258 388.478 1.74644C388.579 1.7603 388.661 1.79634 388.756 1.82406C389.223 1.95988 389.223 1.96267 389.995 1.90723C390.327 1.88228 390.646 1.86565 390.924 1.97653C391.181 2.07909 391.486 2.09848 391.838 2.06799C392.502 2.01255 393.173 1.97098 393.85 1.93217C394.06 1.91831 394.257 1.96543 394.433 2.0375C394.697 2.15115 395.022 2.14007 395.354 2.10958C395.795 2.07077 396.228 2.03197 396.601 2.1872C396.675 2.22046 396.79 2.26756 396.872 2.26479C397.427 2.24261 397.99 2.22599 398.531 2.17333C399.073 2.12066 399.338 2.29252 399.71 2.37567C400.266 2.33964 400.828 2.3036 401.384 2.26756C401.492 2.25925 401.621 2.23431 401.716 2.24817C402.115 2.30639 402.346 2.51428 402.894 2.45052C403.213 2.41449 403.558 2.40341 403.89 2.3951C403.978 2.39232 404.094 2.43942 404.154 2.47546C404.188 2.49486 404.154 2.54753 404.114 2.57525C403.992 2.65286 403.843 2.72495 403.734 2.80534C403.721 2.81643 403.85 2.8663 403.924 2.88848C404.107 2.93837 404.317 2.93008 404.561 2.9079C404.771 2.8885 404.988 2.9273 405.137 3.01046C405.198 3.04372 405.177 3.09916 405.049 3.28211C405.049 3.41793 405.191 3.35694 405.238 3.26823C405.313 3.14072 405.171 3.09915 404.9 3.16845C404.71 3.21834 404.615 3.29042 404.663 3.34863C404.69 3.37912 404.818 3.41793 405.049 3.28211C405.645 3.11579 406.092 3.08531 406.539 3.05482C406.654 3.04651 406.79 3.01877 406.871 3.0354C407.162 3.10193 407.433 3.18233 407.718 3.25717C408.043 3.24054 408.348 3.19894 408.666 3.30704C409.113 3.4595 409.134 3.44565 409.567 3.41515C409.791 3.39852 410.015 3.38469 410.238 3.37083C410.462 3.35697 410.638 3.39853 410.834 3.46229C411.234 3.59257 411.268 3.59256 411.532 3.41515C411.688 3.30705 411.796 3.27102 411.993 3.32092C412.643 3.49001 412.65 3.50109 413.205 3.45119C413.666 3.40961 414.1 3.39853 414.438 3.55653C414.669 3.6674 414.743 3.64246 414.926 3.52604C415.414 3.21835 415.637 3.22389 416.552 3.44564C416.979 3.55098 417.419 3.43734 417.853 3.42348C418.219 3.41239 418.476 3.47891 418.503 3.65354C418.523 3.76164 418.584 3.83927 418.828 3.87531C418.923 3.88917 419.038 3.90856 419.133 3.90302C419.695 3.86976 420.251 3.83094 420.813 3.79214C421.098 3.77273 421.254 3.64247 421.199 3.47061C421.138 3.28767 421.247 3.22111 421.653 3.16845C421.897 3.13796 422.094 3.14352 422.29 3.19342C422.507 3.24886 422.446 3.29875 422.256 3.39854C421.802 3.64247 421.857 3.79213 422.439 3.96122C422.642 4.01943 422.805 4.07212 422.852 4.15805C422.879 4.2024 422.852 4.26061 422.913 4.29387C423.245 4.4796 423.706 4.5988 424.221 4.6875C424.715 4.61266 425.054 4.73738 425.434 4.83717C425.732 4.91478 426.084 4.84827 426.402 4.82055C426.761 4.79006 427.059 4.81223 427.317 4.91479C427.5 4.98686 427.689 5.02011 427.913 5.00625C428.36 4.97576 428.814 4.95636 429.254 4.91201C429.634 4.87321 429.918 4.92865 430.155 5.0229C430.454 5.14209 430.786 5.06169 431.097 5.07832C431.517 5.09773 431.727 5.34442 432.276 5.2779C432.601 5.23909 432.94 5.22523 433.279 5.21415C433.367 5.21137 433.475 5.25851 433.55 5.29177C433.909 5.44423 434.329 5.43591 434.789 5.39156C435.108 5.36106 435.419 5.33336 435.731 5.43869C436.246 5.6161 436.815 5.77134 437.357 5.93488C437.431 6.06239 437.377 6.21205 437.763 6.28689C437.967 6.3257 438.156 6.38393 438.312 6.44768C438.502 6.52253 438.678 6.54194 438.922 6.52253C439.362 6.48373 439.823 6.47538 440.257 6.42549C440.656 6.38114 440.907 6.47264 441.151 6.55857C441.347 6.62787 441.53 6.66111 441.767 6.61122C442.011 6.5641 442.187 6.59458 442.384 6.66942C442.661 6.77198 442.682 6.76091 443.603 6.7914C443.698 6.79418 443.813 6.83573 443.867 6.87177C443.894 6.89117 443.833 6.94664 443.786 6.97436C443.725 7.00762 443.63 7.04641 443.542 7.05473C442.539 7.1268 441.53 7.19055 440.527 7.26262C440.426 7.27094 440.317 7.29036 440.243 7.31808C440.162 7.34857 440.06 7.39012 440.06 7.42893C440.06 7.45665 440.195 7.48993 440.29 7.50933C440.588 7.57308 440.941 7.47607 441.232 7.54814C441.428 7.59526 441.591 7.66178 441.787 7.70613C441.869 7.72553 441.998 7.72277 442.099 7.71723C442.438 7.69782 442.77 7.67011 443.109 7.65348C443.203 7.6507 443.312 7.67844 443.4 7.70061C444.05 7.86693 444.05 7.86692 444.613 7.83088C444.836 7.81702 445.073 7.77544 445.283 7.79207C445.487 7.8087 445.663 7.88355 445.846 7.93067C446.225 8.03046 446.584 8.12748 446.611 8.34369C446.625 8.42685 446.848 8.4989 447.072 8.50445C447.288 8.50999 447.519 8.47953 447.742 8.4629C448.271 8.42963 448.271 8.42963 448.955 8.59872C449.145 8.64584 449.348 8.65138 449.592 8.62366C449.687 8.61257 449.802 8.62367 449.904 8.63753C450.236 8.67911 450.235 8.73176 450.019 8.83155C449.714 8.97847 449.741 8.99234 450.594 9.11707C450.92 9.1642 451.17 9.2529 451.441 9.33052C451.882 9.45526 451.875 9.45523 451.584 9.61878C451.516 9.65481 451.455 9.69363 451.387 9.73244C451.191 9.84054 451.035 9.95696 450.628 9.96805C450.181 9.97913 449.734 10.0235 449.287 10.054C448.853 10.0845 448.738 10.151 448.779 10.3395C448.826 10.5668 448.914 10.5917 449.694 10.589C449.917 10.589 450.113 10.6111 450.283 10.686C450.202 10.7747 450.053 10.844 449.836 10.8606C449.28 10.9022 448.718 10.9382 448.162 10.9743C447.715 11.0048 447.268 11.0352 446.821 11.0657C446.543 11.0851 446.367 11.2293 446.442 11.3901C446.482 11.4815 446.516 11.573 446.55 11.6645C446.625 11.8474 446.767 11.8946 447.221 11.8862C447.336 11.8835 447.444 11.8613 447.553 11.8668C447.993 11.8862 448.203 12.1163 448.731 12.0692C449.172 12.0304 449.633 12.0221 450.066 11.9722C450.466 11.9278 450.689 12.0276 450.967 12.1025C451.062 12.1274 451.164 12.1801 451.245 12.1773C451.807 12.1468 452.37 12.1163 452.918 12.0637C453.176 12.0415 453.331 12.0581 453.535 12.1246C454.022 12.2854 454.036 12.2771 454.761 12.2272C455.289 12.1884 455.296 12.1939 455.974 12.363C456.163 12.4101 456.367 12.4101 456.61 12.388C456.929 12.3602 457.261 12.3159 457.593 12.3575C457.694 12.3686 457.823 12.4018 457.857 12.4379C457.877 12.4628 457.782 12.5238 457.701 12.5432C457.105 12.6873 456.407 12.6624 455.757 12.7206C455.554 12.7372 455.35 12.6846 455.181 12.6097C455.005 12.5349 454.815 12.5044 454.585 12.5183C454.138 12.5488 453.684 12.5681 453.243 12.6125C452.864 12.6513 452.6 12.5875 452.336 12.5016C452.248 12.4739 452.146 12.4212 452.058 12.424C451.055 12.4794 450.046 12.5349 449.05 12.6125C448.65 12.6458 448.42 12.5571 448.149 12.4822C448.054 12.4573 447.959 12.4046 447.871 12.4074C447.532 12.4185 447.201 12.4489 446.862 12.4711C445.629 12.5543 444.402 12.6374 443.169 12.7151C443.088 12.7206 442.987 12.6624 442.892 12.6374C442.709 12.5875 442.519 12.5404 442.329 12.4933C441.991 12.5155 441.659 12.5432 441.32 12.5598C441.076 12.5709 440.859 12.6097 440.826 12.7151C440.805 12.7844 441.029 12.8481 441.266 12.8426C441.496 12.837 441.727 12.8037 441.916 12.8398C442.858 13.0172 442.858 13.02 443.447 12.9839C443.962 12.9507 443.908 12.9229 444.362 13.0754C444.558 13.1419 444.735 13.1807 444.958 13.1641C445.514 13.1253 446.076 13.0865 446.638 13.0532C446.726 13.0477 446.841 13.0754 446.929 13.0976C447.593 13.2639 447.593 13.2694 448.142 13.2279C448.86 13.178 448.887 13.1641 449.368 13.3332C449.7 13.4496 450.005 13.3692 450.324 13.3637C450.689 13.4718 451.089 13.5688 451.421 13.6908C451.814 13.8349 452.227 13.81 452.674 13.7684C453.006 13.7379 453.332 13.7268 453.603 13.8405C453.86 13.9458 454.171 13.9569 454.524 13.9292C454.842 13.9042 455.167 13.8515 455.499 13.9125C455.588 13.9292 455.723 13.9707 455.716 13.9957C455.709 14.0345 455.621 14.0899 455.533 14.1066C454.91 14.2202 454.226 14.2174 453.569 14.2701C453.481 14.2784 453.365 14.2479 453.277 14.2258C453.088 14.1759 452.905 14.1177 452.722 14.065C452.39 14.0816 452.051 14.0872 451.726 14.1204C451.475 14.1454 451.285 14.1426 451.103 14.0761C450.933 14.0151 450.75 13.9403 450.547 13.9208C450.344 13.9014 450.107 13.943 449.883 13.9597C449.66 13.9763 449.402 13.968 449.226 14.0123C449.05 14.0567 448.942 14.1537 448.826 14.2313C448.698 14.3172 448.521 14.345 448.264 14.3533C448.027 14.3616 447.837 14.3505 447.661 14.2729C447.587 14.2396 447.485 14.2147 447.383 14.1925C447.288 14.1731 447.18 14.1426 447.092 14.1481C446.083 14.2119 445.08 14.2812 444.071 14.3477C443.569 14.381 443.576 14.381 442.533 14.2174C442.438 14.2036 442.323 14.1842 442.228 14.1897C441.666 14.223 441.11 14.2618 440.548 14.3006C439.979 14.3394 439.985 14.3339 439.017 14.1592C438.841 14.126 438.583 14.1703 438.373 14.1648C437.933 14.1509 437.716 13.9181 437.201 13.9624C436.761 14.0012 436.3 14.0096 435.86 14.0594C435.46 14.1038 435.23 14.0068 434.959 13.9319C434.864 13.907 434.762 13.8516 434.681 13.8571C433.671 13.9181 432.669 13.9874 431.327 13.9957C430.995 13.9957 431.145 14.0539 431.361 14.0733C431.673 14.1038 431.775 14.0456 431.605 13.9347C431.483 13.8571 431.307 13.8183 431.165 13.8377C431.09 13.8488 430.995 13.9015 431.327 13.9957C431.68 14.101 431.659 14.1592 431.72 14.1925C431.869 14.2729 432.08 14.3061 432.296 14.2951C432.635 14.2757 432.967 14.2479 433.306 14.2313C433.401 14.2258 433.516 14.2452 433.604 14.2673C434.349 14.4392 434.356 14.4503 435.148 14.3838C435.399 14.3644 435.582 14.3644 435.778 14.417C436.049 14.4891 436.246 14.6111 436.659 14.5722C437.208 14.5196 437.77 14.4891 438.332 14.4586C438.421 14.4531 438.515 14.503 438.617 14.5251C438.895 14.5917 439.098 14.7164 439.511 14.6637C439.83 14.6222 440.175 14.6111 440.514 14.6027C440.602 14.6 440.737 14.6443 440.778 14.6804C440.859 14.7441 440.758 14.819 440.527 14.8716C440.433 14.8938 440.304 14.8883 440.195 14.8966C439.748 14.9271 439.301 14.9603 438.854 14.9853C438.617 14.9991 438.393 15.0407 438.366 15.1433C438.346 15.2126 438.59 15.2736 438.82 15.268C439.159 15.2597 439.498 15.2375 439.823 15.2015C440.399 15.1405 440.9 15.1571 441.367 15.3318C441.699 15.4537 441.679 15.4094 442.031 15.7698C442.119 15.8612 442.384 15.8695 442.614 15.864C443.17 15.8501 443.427 15.8917 443.38 15.9776C443.319 16.083 443.122 16.1162 442.871 16.1301C442.424 16.1523 441.977 16.1883 441.53 16.2188C441.422 16.2271 441.3 16.2437 441.198 16.2382C441.097 16.2326 441.002 16.1994 440.914 16.1744C440.724 16.1218 440.561 16.0414 440.358 16.022C440.155 16.0026 439.918 16.0442 439.694 16.0608C439.471 16.0746 439.234 16.1162 439.03 16.0968C438.827 16.0774 438.658 15.9943 438.475 15.9444C438.387 15.9194 438.278 15.8806 438.19 15.8834C437.743 15.9056 437.296 15.9416 436.849 15.9693C436.3 16.0054 436.3 16.0054 435.636 15.8335C435.446 15.7836 435.25 15.7864 434.999 15.8086C434.457 15.8529 434.451 15.8446 433.462 15.6838C433.367 15.6672 433.251 15.6478 433.157 15.6561C432.147 15.7198 431.145 15.7891 430.142 15.8557C429.281 15.9139 429.282 15.9139 428.807 16.1911C428.455 16.3962 428.448 16.3962 428.794 16.4905C429.071 16.5681 429.322 16.6817 429.627 16.7233C429.912 16.7621 430.264 16.6374 430.576 16.7649C430.731 16.8286 430.934 16.8979 431.131 16.909C431.443 16.9229 431.775 16.8425 432.073 16.9644C432.222 17.0254 432.445 17.0892 432.635 17.092C432.967 17.0975 433.306 17.0531 433.638 17.0337C433.739 17.0282 433.854 17.0282 433.949 17.0421C434.051 17.0587 434.139 17.092 434.227 17.1197C434.498 17.2139 434.789 17.2583 435.142 17.2112C435.717 17.1335 436.232 17.1723 436.68 17.3497C436.74 17.3747 436.889 17.3775 436.984 17.3664C437.228 17.3387 437.438 17.3359 437.621 17.3886C437.696 17.4107 437.804 17.4495 437.79 17.4745C437.77 17.5161 437.689 17.5715 437.601 17.5854C436.964 17.6796 436.28 17.6907 435.623 17.7406C435.535 17.7461 435.426 17.7101 435.338 17.6851C435.148 17.6352 434.986 17.5521 434.783 17.5327C434.579 17.5133 434.342 17.5493 434.119 17.5632C433.895 17.5771 433.658 17.6186 433.455 17.602C433.252 17.5826 433.062 17.5133 432.899 17.4523C432.71 17.383 432.527 17.3747 432.276 17.4024C431.951 17.4385 431.612 17.444 431.28 17.4634C431.097 17.4107 430.914 17.3525 430.725 17.3026C430.637 17.2777 430.528 17.2472 430.433 17.25C429.986 17.2721 429.539 17.3054 429.092 17.3359C428.645 17.3664 428.645 17.3664 427.886 17.1945C427.798 17.1751 427.683 17.153 427.588 17.1585C427.026 17.1918 426.47 17.2333 425.908 17.2666C425.691 17.2804 425.495 17.2416 425.318 17.1668C425.149 17.0919 424.946 17.0504 424.736 17.0642C423.841 17.1224 422.947 17.1779 422.053 17.2472C421.694 17.2749 421.389 17.25 421.145 17.1502C420.861 17.0365 420.542 17.0643 420.21 17.0864C419.458 17.1419 419.452 17.1391 418.971 16.9977C418.876 16.97 418.781 16.9173 418.693 16.9201C417.914 16.9617 417.128 17.0005 416.356 17.067C415.949 17.103 415.732 17.006 415.461 16.934C415.366 16.909 415.265 16.8563 415.184 16.8619C414.621 16.8924 414.059 16.9201 413.51 16.9755C412.961 17.031 412.751 16.7732 412.338 16.776C411.776 16.7787 411.22 16.8425 410.665 16.8813C410.218 16.9118 409.771 16.9423 409.323 16.9728C408.876 17.0033 408.429 17.0282 407.982 17.0642C407.745 17.0836 407.569 17.0587 407.372 16.9894C407.122 16.8979 406.824 16.8259 406.553 16.7427C406.139 16.6235 406.139 16.6235 405.638 16.6568C405.53 16.6651 405.415 16.6706 405.306 16.6789C404.486 16.7399 404.486 16.7344 403.443 16.5597C403.396 16.5514 403.274 16.5819 403.226 16.6041C403.084 16.6762 402.955 16.7538 402.827 16.8286C402.644 16.7843 402.42 16.7593 402.298 16.6956C401.953 16.5154 401.411 16.7621 401.058 16.5847C400.93 16.5182 400.706 16.4599 400.503 16.4433C400.293 16.4267 400.056 16.4655 399.839 16.4821C399.277 16.5237 399.277 16.5209 398.796 16.7676C398.552 16.8896 398.2 16.8674 397.881 16.8951C397.549 16.9256 397.231 16.9423 396.953 16.8286C396.702 16.7261 396.398 16.7011 396.038 16.7344C395.598 16.776 395.144 16.8009 394.697 16.8258C394.602 16.8314 394.487 16.8175 394.392 16.8009C393.356 16.6374 393.356 16.6346 392.854 16.6706C392.631 16.6873 392.4 16.6928 392.184 16.7177C391.818 16.7621 391.54 16.7039 391.276 16.6152C391.188 16.5875 391.086 16.5348 390.998 16.5376C390.551 16.5514 390.111 16.5764 389.67 16.6013C389.331 16.6207 388.993 16.6318 388.668 16.6706C388.126 16.7344 387.861 16.5542 387.489 16.471C386.933 16.5071 386.371 16.532 385.815 16.5819C385.558 16.6041 385.389 16.5958 385.192 16.5293C384.942 16.4461 384.711 16.3519 384.305 16.3934C383.763 16.4489 383.194 16.4683 382.638 16.5015C382.266 16.4156 381.995 16.241 381.459 16.3047C381.134 16.3435 380.789 16.3518 380.457 16.374C380.01 16.4045 379.563 16.4322 379.115 16.4655C378.634 16.4988 378.641 16.4905 377.903 16.3269C377.476 16.2299 377.035 16.338 376.602 16.3546C376.263 16.3685 376.094 16.496 376.175 16.6595C376.256 16.8231 376.074 16.9506 375.762 16.9728C374.983 17.0254 374.197 17.0809 373.418 17.128C373.323 17.1335 373.208 17.1141 373.12 17.0947C372.287 16.9201 372.287 16.9229 371.914 16.9478C371.358 16.9894 370.789 17.0116 370.241 17.0642C369.861 17.1003 369.583 17.0421 369.34 16.9478C369.15 16.8758 368.974 16.8591 368.73 16.8758C366.047 17.0615 363.364 17.2333 360.688 17.4246C360.289 17.4523 360.058 17.3719 359.787 17.2971C359.693 17.2722 359.604 17.2195 359.51 17.2195C359.286 17.2195 359.062 17.2444 358.839 17.2611C357.836 17.3276 356.834 17.408 355.824 17.4579C355.397 17.48 355.282 17.6076 355.099 17.7129C354.957 17.7933 354.794 17.8265 354.544 17.8376C354.3 17.8487 354.124 17.8348 353.934 17.7628C353.69 17.6685 353.412 17.6103 353.033 17.6491C352.593 17.6935 352.145 17.7129 351.692 17.7434C351.461 17.7572 351.285 17.8071 351.211 17.9069C351.197 17.9235 351.339 17.9651 351.421 17.9901C351.692 18.0732 351.949 18.1703 352.254 18.2285C352.566 18.2867 352.904 18.2201 353.229 18.2035C353.345 18.198 353.453 18.1813 353.561 18.1841C353.663 18.1869 353.785 18.2007 353.86 18.2257C354.212 18.3504 354.584 18.4364 355.072 18.3615C355.492 18.3976 355.709 18.6276 356.244 18.5666C356.569 18.5306 356.908 18.514 357.247 18.5001C357.335 18.4973 357.43 18.5472 357.525 18.5722C357.796 18.6415 358.012 18.7524 358.419 18.7052C358.852 18.6553 359.313 18.647 359.753 18.6082C359.997 18.586 360.173 18.6055 360.363 18.6775C360.607 18.769 360.885 18.8383 361.264 18.7939C361.589 18.7551 361.935 18.7468 362.267 18.7218C362.7 18.6914 362.7 18.6941 363.473 18.866C363.561 18.8854 363.676 18.9076 363.771 18.902C364.333 18.8688 364.889 18.8272 365.451 18.7939C365.668 18.7801 365.878 18.8161 366.027 18.8965C366.088 18.9297 366.067 18.9852 366.088 19.0323C364.97 19.1072 363.852 19.1709 362.741 19.2624C362.321 19.2984 362.131 19.1848 361.854 19.121C361.759 19.0989 361.657 19.0517 361.569 19.0573C360.783 19.1044 360.004 19.1543 359.225 19.2153C358.981 19.2347 358.798 19.2236 358.615 19.1432C358.148 18.9298 357.579 19.0462 357.05 19.0767C356.644 19.0988 356.515 19.1848 356.563 19.3677C356.624 19.5839 356.867 19.6505 357.491 19.6117C357.714 19.5978 357.938 19.5784 358.161 19.5673C358.378 19.5562 358.575 19.5923 358.751 19.6671C358.92 19.7419 359.123 19.7807 359.333 19.7697C359.78 19.7447 360.234 19.7198 360.668 19.6782C361.027 19.6449 361.325 19.6726 361.576 19.7752C361.854 19.8889 362.179 19.8639 362.504 19.839C363.263 19.7835 363.269 19.7863 363.744 19.9249C363.838 19.9526 363.933 20.0053 364.022 20.0025C364.801 19.9609 365.586 19.9249 366.352 19.8584C366.752 19.8251 366.982 19.9138 367.246 19.9859C367.341 20.0108 367.436 20.0663 367.524 20.0607C368.086 20.0302 368.649 19.9997 369.197 19.9471C369.455 19.9221 369.61 19.9387 369.82 20.0053C370.322 20.1688 370.335 20.1633 371.047 20.1106C371.264 20.094 371.501 20.0635 371.704 20.0857C371.907 20.1078 372.07 20.1882 372.259 20.2381C372.348 20.2603 372.456 20.2908 372.551 20.2852C372.998 20.2631 373.445 20.2298 373.892 20.1993C374.312 20.1688 374.312 20.1716 375.098 20.3435C375.416 20.4155 375.748 20.3545 376.067 20.3324C376.412 20.3074 376.724 20.3074 376.988 20.4155C377.252 20.5236 377.571 20.5181 377.91 20.4959C378.228 20.4737 378.553 20.4128 378.878 20.4876C379.623 20.6595 379.623 20.6622 380.084 20.629C380.755 20.5818 381.419 20.5375 382.096 20.4959C382.184 20.4904 382.299 20.5236 382.387 20.5458C382.577 20.5957 382.74 20.6788 382.943 20.6982C383.146 20.7204 383.383 20.6872 383.6 20.6705C384.298 20.6179 384.345 20.5985 384.813 20.7814C385.206 20.9311 385.694 20.7149 386.059 20.8868C386.269 20.9838 386.554 21.0614 386.947 21.0143C387.272 20.9754 387.611 20.9644 387.949 20.9422C388.485 20.9061 388.485 20.9089 389.162 21.0753C389.25 21.0974 389.365 21.1251 389.453 21.1196C389.9 21.0974 390.355 21.078 390.788 21.0281C391.296 20.9699 391.621 21.0753 392.001 21.1778C392.299 21.2582 392.651 21.1917 392.97 21.164C393.315 21.1362 393.627 21.1445 393.884 21.2526C394.155 21.3635 394.473 21.3497 394.812 21.3275C395.131 21.3081 395.456 21.2443 395.781 21.3219C396.479 21.4938 396.479 21.4938 396.987 21.4605C397.434 21.43 397.881 21.3968 398.328 21.3746C398.416 21.3691 398.525 21.4051 398.613 21.43C398.802 21.4799 398.965 21.5631 399.168 21.5825C399.372 21.6019 399.609 21.5659 399.832 21.552C400.056 21.5382 400.293 21.4966 400.496 21.5132C400.699 21.5299 400.889 21.5992 401.052 21.6601C401.241 21.7322 401.417 21.7405 401.675 21.7128C402 21.6768 402.339 21.6684 402.671 21.649C402.854 21.7017 403.043 21.7544 403.219 21.8126C403.402 21.8736 403.599 21.868 403.849 21.8486C404.683 21.7821 404.69 21.7904 405.387 21.9623C405.706 22.0399 406.038 21.9761 406.356 21.9567C406.695 21.9346 407.013 21.9235 407.277 22.0343C407.535 22.1397 407.853 22.1535 408.192 22.1203C408.409 22.0981 408.639 22.0842 408.863 22.0759C408.964 22.0732 409.086 22.0842 409.161 22.1064C409.52 22.2228 409.872 22.3282 410.367 22.2533C410.8 22.2755 411.017 22.5028 411.539 22.4585C411.979 22.4197 412.44 22.4113 412.873 22.3614C413.273 22.3171 413.558 22.3947 413.761 22.4917C414.127 22.6636 414.642 22.4307 415.007 22.5998C415.217 22.6969 415.488 22.7745 415.895 22.7329C416.342 22.6885 416.484 22.7467 416.613 22.9214C416.687 23.0211 416.674 23.1016 416.539 23.1792C416.403 23.2596 416.254 23.2457 416.037 23.1542C415.787 23.0517 415.488 23.0322 415.129 23.0544C414.777 23.0766 414.56 22.9325 414.269 22.877C413.978 22.8188 413.632 22.9158 413.327 22.841C412.609 22.6664 412.609 22.6664 412.121 22.6996C411.789 22.7218 411.444 22.7329 411.119 22.7717C410.733 22.8188 410.482 22.7329 410.218 22.6553C410.123 22.6275 410.028 22.5749 409.947 22.5776C409.168 22.6192 408.382 22.658 407.609 22.7273C407.203 22.7634 406.986 22.6636 406.715 22.5943C406.62 22.5693 406.519 22.5194 406.437 22.525C405.767 22.5638 405.103 22.6137 404.432 22.6608C404.303 22.7357 404.161 22.8077 404.039 22.8881C403.91 22.9713 403.734 23.0073 403.477 23.0045C403.05 23.0045 402.63 23.121 402.203 22.974C401.763 22.8244 401.729 22.8327 401.302 22.8687C400.76 22.9158 400.184 22.9047 399.676 23.0129C399.588 23.0323 399.493 23.0849 399.493 23.1237C399.487 23.1487 399.629 23.1847 399.717 23.2069C400.015 23.2734 400.361 23.1764 400.659 23.2457C400.855 23.29 401.018 23.3566 401.214 23.4037C401.295 23.4231 401.417 23.4203 401.526 23.4175C401.641 23.4148 401.749 23.3954 401.858 23.3982C401.959 23.4009 402.068 23.4175 402.149 23.4425C402.522 23.5478 402.915 23.6449 403.247 23.7696C403.572 23.8916 403.877 23.8084 404.202 23.8029C405.503 23.9969 405.503 23.9997 406.377 23.9387C406.593 23.9248 406.817 23.9082 407.04 23.911C407.135 23.911 407.223 23.9608 407.318 23.9886C407.589 24.0717 407.847 24.1466 408.226 24.1022C408.551 24.0634 408.897 24.0551 409.229 24.0301C409.676 23.9996 409.676 23.9997 410.435 24.1743C410.624 24.2186 410.827 24.2131 411.071 24.1909C411.281 24.1715 411.498 24.2131 411.647 24.2935C411.708 24.3268 411.688 24.3822 411.708 24.4293C411.037 24.4737 410.36 24.5042 409.71 24.5707C409.29 24.6123 409.1 24.4931 408.822 24.4293C408.727 24.4071 408.626 24.36 408.538 24.3656C407.874 24.4071 407.21 24.4542 406.546 24.5097C406.465 24.5152 406.363 24.579 406.356 24.6178C406.343 24.6899 406.512 24.7592 406.756 24.7564C407.081 24.7536 407.399 24.7065 407.691 24.8201C407.935 24.9199 408.239 24.9643 408.599 24.92C408.815 24.895 409.046 24.895 409.263 24.8728C409.838 24.8063 410.36 24.8202 410.793 25.0086C411.125 25.0585 411.451 25.0114 411.769 24.9865C412.006 24.9671 412.237 24.9477 412.406 25.0003C412.765 25.1112 413.117 25.2221 413.612 25.1472C414.147 25.2249 414.554 25.3884 415.001 25.5214C415.211 25.5852 415.373 25.6213 415.617 25.5797C415.719 25.563 415.841 25.563 415.949 25.5547C416.173 25.5409 416.41 25.4993 416.613 25.5159C416.816 25.5353 416.986 25.6157 417.169 25.6656C417.257 25.6905 417.358 25.7321 417.446 25.7293C417.785 25.7155 418.117 25.6878 418.449 25.6656C418.781 25.6462 419.113 25.6268 419.445 25.6074C419.722 25.6795 420.007 25.7515 420.285 25.8236C420.732 25.7931 421.179 25.7626 421.62 25.7349C422.114 25.7016 422.114 25.7044 422.825 25.8763C423.144 25.9539 423.482 25.904 423.787 25.8679C424.295 25.8097 424.634 25.9151 424.993 26.026C425.068 26.0481 425.203 26.062 425.291 26.0509C425.644 26.0121 425.948 26.0426 426.206 26.1451C426.389 26.2172 426.572 26.2505 426.795 26.2366C427.574 26.184 428.353 26.1285 429.132 26.0814C429.227 26.0758 429.336 26.1008 429.424 26.123C430.115 26.2921 430.122 26.3004 430.63 26.256C431.084 26.2172 431.504 26.2006 431.863 26.353C431.937 26.3863 432.052 26.4334 432.134 26.4307C432.689 26.4029 433.252 26.3724 433.8 26.3253C434.051 26.3031 434.227 26.3115 434.423 26.3752C434.674 26.4556 434.898 26.5526 435.311 26.5166C436.456 26.414 436.463 26.4306 437.818 26.6219C437.912 26.6358 438.041 26.6136 438.15 26.6025C438.38 26.5748 438.549 26.6136 438.752 26.6774C439.206 26.8215 439.22 26.8132 439.654 26.7827C439.985 26.7578 440.331 26.7522 440.656 26.7106C441.157 26.6496 441.489 26.7578 441.862 26.8603C442.16 26.9407 442.506 26.8742 442.824 26.8492C443.169 26.8215 443.481 26.8298 443.739 26.9351C443.915 27.0072 444.104 27.046 444.328 27.0322C445.107 26.9823 445.886 26.9268 446.665 26.8769C446.76 26.8714 446.875 26.8936 446.963 26.913C447.736 27.0848 447.736 27.0932 448.501 27.0294C448.745 27.01 448.948 27.0045 449.131 27.0627C449.307 27.1181 449.497 27.1708 449.68 27.2234C450.012 27.204 450.351 27.1985 450.676 27.1652C450.927 27.1403 451.103 27.1514 451.299 27.2096C451.556 27.2844 451.773 27.4147 452.18 27.3509C452.39 27.3204 452.634 27.3288 452.844 27.3011C453.094 27.265 453.264 27.2872 453.46 27.3593C453.704 27.4452 453.955 27.5339 454.348 27.4895C454.781 27.4396 455.242 27.4313 455.682 27.3925C455.926 27.3703 456.096 27.3925 456.292 27.4646C456.536 27.5561 456.814 27.6143 457.193 27.5782C457.965 27.5089 457.972 27.5228 458.724 27.6974C458.914 27.7418 459.117 27.7362 459.361 27.7141C459.571 27.6947 459.788 27.7362 459.937 27.8166C460.079 27.9053 460.065 27.9608 460.079 28.0079ZM399.71 3.00769C399.487 3.02155 399.263 3.03817 398.938 2.79702C398.918 2.75544 398.931 2.70555 398.884 2.66952C398.775 2.59467 398.606 2.54201 398.403 2.53369C398.037 2.52261 397.596 2.61683 397.603 2.68891C397.61 2.74989 397.725 2.80255 397.949 2.85244C398.044 2.87184 398.118 2.90511 398.206 2.92729C398.464 2.99104 398.667 3.1158 399.04 3.05205C399.006 2.96612 398.972 2.88019 399.04 3.05205C399.006 3.15738 399.107 3.23223 399.351 3.26272C399.419 3.27103 399.521 3.26548 399.575 3.24884C399.785 3.18786 399.819 3.10472 399.663 2.88574C399.636 2.92177 399.656 2.98551 399.717 3.00214C399.778 3.01877 399.927 3.00493 400.002 2.98552C400.191 2.93286 400.286 2.86355 400.239 2.80534C400.212 2.77485 400.083 2.73604 400.002 2.73604C399.859 2.73604 399.731 2.79702 399.71 3.00769ZM454.49 35.154C453.995 35.2066 453.426 35.1872 452.932 35.2953C452.844 35.3147 452.756 35.3646 452.749 35.4035C452.742 35.4284 452.878 35.4644 452.959 35.4839C453.142 35.5282 453.345 35.5143 453.582 35.5005C453.941 35.4811 454.151 35.6086 454.429 35.6723C454.517 35.6917 454.632 35.7056 454.727 35.7C455.276 35.6668 455.818 35.6308 456.366 35.592C456.461 35.5836 456.563 35.5642 456.644 35.5393C456.915 35.4589 456.888 35.4062 456.624 35.3453C456.333 35.2787 456.102 35.1678 455.804 35.1152C455.377 35.0403 454.944 35.1401 454.49 35.154ZM416.017 37.1775C415.685 37.1997 415.36 37.2219 415.028 37.244C414.919 37.2523 414.804 37.2551 414.702 37.2662C414.492 37.2856 414.337 37.3438 414.235 37.4353C414.391 37.5074 414.581 37.5489 414.791 37.5406C415.123 37.524 415.448 37.488 415.78 37.4796C416.139 37.4686 416.349 37.5933 416.626 37.6571C416.715 37.6765 416.823 37.6792 416.925 37.682C417.426 37.6931 417.731 37.5489 417.636 37.3466C417.568 37.1886 417.311 37.0944 416.999 37.1138C416.674 37.1332 416.342 37.1553 416.017 37.1775ZM456.807 31.057C456.888 31.0099 456.976 30.9767 457.017 30.9351C457.139 30.7937 457.091 30.6884 456.868 30.5775C456.597 30.4417 456.265 30.5331 455.96 30.547C455.886 30.5498 455.804 30.608 455.764 30.644C455.736 30.669 455.737 30.7216 455.777 30.7355C456.109 30.8464 456.461 30.9489 456.807 31.057ZM398.037 22.8687C397.712 22.8909 397.38 22.9075 397.055 22.938C396.973 22.9463 396.899 22.999 396.851 23.035C396.763 23.1015 396.858 23.193 397.136 23.2013C397.454 23.2124 397.786 23.1653 398.118 23.1431C398.538 23.1154 398.789 23.0128 398.633 22.9241C398.484 22.8382 398.281 22.8216 398.037 22.8687ZM41.4268 16.9451C41.6436 16.9312 41.8672 16.9201 42.084 16.9007C42.2872 16.8813 42.4431 16.8203 42.5447 16.7288C42.3754 16.6568 42.1856 16.618 41.9756 16.6263C41.6437 16.6429 41.3185 16.6651 40.9933 16.6928C40.7901 16.7094 40.5937 16.7704 40.5463 16.8647C40.4988 16.9367 40.9526 16.9783 41.4268 16.9451ZM369.387 16.5182C369.475 16.5431 369.563 16.593 369.651 16.593C369.868 16.593 370.092 16.5764 370.295 16.5487C370.383 16.5376 370.451 16.4877 370.491 16.4489C370.518 16.4239 370.512 16.3796 370.471 16.3574C370.275 16.2243 369.489 16.2715 369.36 16.4239C369.346 16.4516 369.38 16.4877 369.387 16.5182ZM348.013 1.33897C348.033 1.38332 348.04 1.42766 348.067 1.47202C348.121 1.55517 348.27 1.61617 348.487 1.65775C348.657 1.58845 348.745 1.51085 348.738 1.42769C348.731 1.38334 348.711 1.33896 348.684 1.29461C348.629 1.21145 348.481 1.15049 348.264 1.10891C348.094 1.17543 348.013 1.25304 348.013 1.33897ZM472.463 37.6598C472.402 37.6959 472.341 37.7319 472.273 37.7652C472.456 37.8455 472.626 37.8705 472.754 37.8261C472.836 37.7984 472.883 37.7568 472.944 37.7208C472.761 37.6404 472.599 37.6182 472.463 37.6598ZM468.249 38.0368C468.337 38.0618 468.419 38.095 468.513 38.1117C468.669 38.1394 468.811 38.0922 468.92 37.9924C468.832 37.9675 468.751 37.9342 468.656 37.9176C468.5 37.8899 468.358 37.937 468.249 38.0368ZM470.918 37.5296C470.871 37.5961 470.966 37.6515 471.217 37.6986C471.278 37.6626 471.359 37.6293 471.4 37.5905C471.467 37.5268 471.352 37.4686 471.108 37.4242C471.04 37.4575 470.979 37.4935 470.918 37.5296ZM456.617 34.5414C456.57 34.6079 456.665 34.6633 456.915 34.7105C456.976 34.6744 457.058 34.6412 457.098 34.6024C457.166 34.5386 457.051 34.4804 456.807 34.436C456.739 34.4693 456.678 34.5053 456.617 34.5414ZM437.133 14.9271C437.072 14.9631 437.011 14.9991 436.944 15.0324C437.127 15.1128 437.296 15.1377 437.425 15.0934C437.506 15.0657 437.553 15.0241 437.614 14.988C437.431 14.9077 437.269 14.8855 437.133 14.9271ZM418.469 4.52116C418.632 4.54056 418.767 4.50177 418.883 4.39921C418.794 4.37426 418.713 4.34099 418.618 4.32436C418.462 4.29664 418.32 4.34378 418.212 4.44357C418.3 4.47129 418.388 4.49621 418.469 4.52116ZM408.558 3.86976C408.497 3.90579 408.436 3.94183 408.368 3.97509C408.551 4.05548 408.721 4.08042 408.849 4.03607C408.931 4.00835 408.978 3.96677 409.039 3.93073C408.856 3.85035 408.693 3.83095 408.558 3.86976ZM341.347 1.33619C341.286 1.37223 341.225 1.40826 341.157 1.44153C341.34 1.52191 341.509 1.54685 341.638 1.5025C341.719 1.47478 341.767 1.4332 341.828 1.39717C341.645 1.31678 341.482 1.29739 341.347 1.33619ZM6.68648 23.8888C6.59841 23.8638 6.51042 23.8389 6.42912 23.8112C6.23266 23.886 6.17171 23.9553 6.2801 24.008C6.34785 24.0412 6.44939 24.0607 6.53746 24.0856C6.7407 24.0108 6.7881 23.9442 6.68648 23.8888Z" fill="#FFE492"/>
</svg>
