<svg width="513" height="38" viewBox="0 0 513 38" fill="none" xmlns="http://www.w3.org/2000/svg">
<path d="M482.406 19.369C481.703 19.4016 480.994 19.4247 480.306 19.4725C479.859 19.5025 479.666 19.4192 479.368 19.3762C479.268 19.3613 479.161 19.331 479.069 19.3351C478.373 19.3678 477.678 19.4042 476.983 19.4406C476.771 19.5156 476.638 19.6152 476.312 19.6524C475.993 19.6877 475.617 19.6888 475.262 19.7071C474.794 19.7295 474.326 19.7519 473.857 19.7724C473.623 19.7826 473.432 19.8194 473.355 19.8883C473.341 19.8998 473.498 19.9279 473.583 19.9448C473.868 20.0012 474.146 20.0652 474.459 20.1081C474.758 20.1492 475.126 20.0794 475.446 20.1318C476.165 20.2498 476.172 20.2479 476.718 20.2234C477.186 20.201 477.655 20.1767 478.123 20.16C478.215 20.1559 478.322 20.1842 478.422 20.1992C478.72 20.2402 478.914 20.335 479.353 20.2974C479.686 20.2678 480.055 20.261 480.403 20.2447C480.695 20.2991 480.966 20.3612 481.279 20.4042C481.57 20.4452 481.656 20.4774 481.501 20.5332C481.36 20.5851 481.161 20.6067 480.898 20.6113C480.664 20.6139 480.43 20.6318 480.196 20.642C480.075 20.6481 479.962 20.6523 479.848 20.6583C479.402 20.6807 479.402 20.6807 478.583 20.5611C478.263 20.5143 477.902 20.5822 477.596 20.5373C477.39 20.5074 477.212 20.4622 477.012 20.4304C476.927 20.4173 476.792 20.4158 476.686 20.4199C476.331 20.4343 475.976 20.4449 475.636 20.4708C475.395 20.4886 475.253 20.5425 475.283 20.5958C475.29 20.6168 475.461 20.6468 475.56 20.6484C475.788 20.6515 476.028 20.6241 476.249 20.6367C476.462 20.6495 476.683 20.6869 476.839 20.7284C477.16 20.8152 477.521 20.7359 477.827 20.7579C478.146 20.7817 478.41 20.8572 478.716 20.9021C478.795 20.9133 478.943 20.8937 479.064 20.8876C479.412 20.8733 479.759 20.8608 480.107 20.8464C480.399 20.9008 480.712 20.9494 480.976 21.0116C481.453 21.1246 481.965 21.1669 482.582 21.1097C482.929 21.0782 483.27 21.0886 483.548 21.1621C483.833 21.2376 484.159 21.229 484.521 21.2126C484.855 21.1963 485.195 21.1534 485.536 21.2057C486.276 21.3218 486.284 21.3275 487.156 21.2791C487.419 21.2649 487.617 21.2605 487.817 21.3038C488.002 21.3433 488.201 21.377 488.393 21.4146C488.741 21.4002 489.096 21.3857 489.443 21.3694C489.89 21.3471 490.139 21.3731 490.247 21.4795C490.312 21.5442 490.342 21.6032 490.498 21.6466C490.684 21.6995 490.882 21.6969 491.152 21.6809C491.407 21.6668 491.592 21.6452 491.697 21.5763C491.739 21.5475 491.824 21.5206 491.902 21.4974C491.965 21.4801 492.064 21.4531 492.121 21.4567C492.228 21.464 492.37 21.4846 492.406 21.5093C492.757 21.739 492.757 21.7409 493.113 21.8066C493.505 21.8798 493.911 21.9453 494.267 22.0281C494.588 22.1016 494.906 22.0682 495.254 22.0672C495.517 22.0664 495.688 22.1154 495.668 22.1651C495.654 22.1937 495.555 22.236 495.47 22.24C494.775 22.2803 494.072 22.3148 493.37 22.3436C493.285 22.3477 493.178 22.3137 493.078 22.2968C492.879 22.2631 492.701 22.2102 492.488 22.1994C492.274 22.1886 492.026 22.218 491.792 22.2282C491.558 22.2385 491.31 22.264 491.097 22.2494C490.884 22.2348 490.712 22.18 490.513 22.1444C490.421 22.1275 490.292 22.1031 490.214 22.109C489.697 22.1564 489.313 22.0946 488.942 22.0118C488.864 21.9949 488.729 21.9838 488.629 21.9879C487.806 22.0228 486.991 22.0634 486.168 22.1021C485.834 22.1184 485.563 22.0525 485.491 21.9402C485.454 21.8773 485.382 21.8146 485.381 21.7517C485.38 21.6372 484.988 21.5755 484.705 21.5897C484.236 21.6102 483.761 21.6269 483.3 21.6568C482.924 21.6809 482.604 21.6589 482.348 21.5911C482.048 21.5138 481.708 21.5301 481.367 21.5521C481.112 21.5681 481.042 21.6312 481.058 21.7895C481.075 21.9172 480.954 21.9576 480.493 21.98C479.912 22.0085 479.323 22.0369 478.734 22.0597C478.642 22.0638 478.535 22.0317 478.442 22.0148C478.243 21.9811 478.065 21.9263 477.851 21.9155C477.638 21.9028 477.39 21.9321 477.156 21.9443C476.922 21.9545 476.674 21.982 476.461 21.9693C476.248 21.9566 476.069 21.8999 475.877 21.8642C475.784 21.8473 475.671 21.8229 475.578 21.827C475.11 21.8436 474.642 21.8679 474.174 21.8903C473.649 21.9148 473.649 21.9148 472.901 21.7988C472.56 21.7464 472.22 21.7894 471.886 21.8057C471.532 21.822 471.198 21.8306 470.92 21.7552C470.735 21.7062 470.528 21.6763 470.308 21.6865C469.72 21.7111 469.138 21.7415 468.549 21.7661C468.45 21.7703 468.315 21.7611 468.236 21.7442C467.859 21.6652 467.489 21.6034 466.964 21.645C466.51 21.6807 466.02 21.6841 465.567 21.7179C465.318 21.7358 465.206 21.7972 465.256 21.8447C465.285 21.8694 465.434 21.8976 465.534 21.8973C465.761 21.8985 466.009 21.8691 466.222 21.8799C466.663 21.9015 466.885 22.061 467.46 22.0154C467.8 21.9877 468.155 21.9771 468.51 21.9684C468.602 21.9662 468.702 22.0022 468.801 22.0209C469.086 22.0716 469.336 22.1376 469.747 22.102C470.087 22.0743 470.449 22.0656 470.797 22.0493C471.35 22.0228 471.35 22.0247 472.069 22.1389C472.411 22.1932 472.751 22.1483 473.084 22.1339C473.332 22.1236 473.566 22.1039 473.765 22.13C474.071 22.1691 474.293 22.26 474.669 22.2531C475.024 22.2463 475.371 22.2186 475.726 22.208C475.946 22.2016 476.152 22.2315 476.331 22.2824C476.516 22.3334 476.715 22.3557 476.956 22.3435C477.304 22.3272 477.659 22.307 478.013 22.2964C478.113 22.2942 478.227 22.3111 478.319 22.326C478.519 22.3598 478.711 22.3992 478.903 22.4349C479.251 22.4224 479.606 22.4175 479.946 22.3936C480.208 22.3757 480.393 22.3827 480.607 22.4202C480.877 22.4709 481.099 22.5618 481.538 22.5166C481.758 22.495 482.014 22.4999 482.233 22.4802C482.503 22.4546 482.687 22.4636 482.88 22.5202C483.244 22.6278 483.698 22.6283 484.166 22.585C484.676 22.5377 485.061 22.5899 485.445 22.6727C485.851 22.7592 485.851 22.7573 486.167 22.968C486.26 23.0288 486.523 23.0566 486.743 23.0445C487.112 23.0243 487.431 23.0329 487.702 23.1045C487.987 23.1819 488.328 23.1713 488.675 23.1493C489.136 23.1193 489.598 23.0931 489.975 23.2026C490.161 23.2554 490.36 23.2682 490.608 23.2541C491.311 23.2176 492.02 23.1945 492.708 23.1505C493.126 23.1225 493.369 23.1828 493.653 23.2335C494.038 23.3029 494.458 23.3646 494.46 23.5152C494.46 23.54 494.56 23.5683 494.646 23.5871C494.831 23.6266 495.03 23.6604 495.222 23.6979C495.507 23.7543 495.785 23.8011 496.175 23.7694C496.515 23.7436 496.877 23.7349 497.225 23.7167C497.572 23.6985 497.892 23.688 498.205 23.7595C498.568 23.8404 498.953 23.9175 499.366 23.9773C499.657 24.0202 500.04 23.9447 500.353 24.0029C500.545 24.0385 500.73 24.0799 500.937 24.1098C501.022 24.1229 501.157 24.113 501.27 24.1088C501.504 24.1005 501.746 24.0941 501.973 24.0743C502.235 24.0525 502.434 24.0558 502.633 24.099C502.818 24.1385 503.004 24.1933 503.217 24.2041C503.537 24.2203 503.89 24.1429 504.211 24.2297C504.375 24.273 504.582 24.3144 504.795 24.3271C505.008 24.3398 505.256 24.3104 505.483 24.3117C505.583 24.3114 505.704 24.3415 505.761 24.3661C505.797 24.3794 505.748 24.4158 505.698 24.435C505.635 24.4581 505.543 24.4889 505.451 24.493C504.748 24.5294 504.046 24.5601 503.344 24.5947C502.925 24.615 502.925 24.615 502.078 24.4974C501.879 24.4694 501.659 24.4758 501.411 24.4899C501.078 24.508 500.737 24.5415 500.389 24.5082C499.933 24.3799 499.372 24.3701 498.776 24.4215C498.528 24.4432 498.301 24.4439 498.116 24.4082C497.724 24.3369 497.311 24.2714 496.962 24.1867C496.691 24.1207 496.563 24.1154 496.451 24.2073C496.416 24.236 496.381 24.2666 496.389 24.2933C496.433 24.3885 496.512 24.4817 496.556 24.577C496.571 24.6036 496.515 24.6343 496.48 24.663C496.367 24.7435 496.218 24.7382 495.969 24.6722C495.719 24.6062 495.42 24.5632 495.023 24.5949C494.683 24.6227 494.314 24.62 493.973 24.6496C493.449 24.6931 493.079 24.6332 492.701 24.5523C492.623 24.5354 492.488 24.5263 492.388 24.5304C491.331 24.5774 490.281 24.6302 489.224 24.6772C488.997 24.6875 488.791 24.6595 488.613 24.6085C488.427 24.5576 488.221 24.5315 487.994 24.5417C487.057 24.5846 486.121 24.6237 485.185 24.6761C484.802 24.6982 484.496 24.6743 484.232 24.6083C484.033 24.5594 483.848 24.5447 483.6 24.5511C483.33 24.5577 483.139 24.5773 483.005 24.633C482.878 24.6868 482.97 24.719 483.255 24.7601C483.561 24.8049 483.846 24.8632 484.138 24.9157C484.372 24.9074 484.606 24.8914 484.833 24.8926C484.932 24.8923 485.025 24.9264 485.125 24.9452C485.41 24.9996 485.673 25.0541 486.077 25.0224C486.418 24.9947 486.78 24.9879 487.127 24.9696C487.61 24.9472 487.61 24.9472 488.392 25.065C488.592 25.0949 488.805 25.0924 489.06 25.0744C489.28 25.0604 489.507 25.0864 489.664 25.1432C489.729 25.1659 489.708 25.2041 489.575 25.3304C489.576 25.4238 489.725 25.3814 489.773 25.3202C489.85 25.2323 489.701 25.2041 489.418 25.2526C489.219 25.2876 489.121 25.3375 489.171 25.3774C489.2 25.3983 489.335 25.4246 489.575 25.3304C490.198 25.2141 490.673 25.1993 491.127 25.1674C491.397 25.1494 491.567 25.1565 491.781 25.2055C492.037 25.2638 492.294 25.326 492.712 25.2942C493.166 25.2585 493.649 25.2532 494.11 25.2232C494.535 25.1953 494.757 25.2785 495.027 25.3273C495.355 25.3854 495.716 25.3176 496.014 25.351C496.327 25.3844 496.549 25.4677 496.911 25.4818C497.435 25.4287 497.771 25.5231 498.169 25.5848C498.482 25.6316 498.851 25.5885 499.184 25.5665C499.56 25.5425 499.873 25.5626 500.136 25.6304C500.436 25.7077 500.769 25.6895 501.11 25.6714C501.904 25.6308 501.932 25.625 502.395 25.7285C502.73 25.8038 503.049 25.7685 503.383 25.758C503.675 25.8086 503.959 25.863 504.265 25.9079C504.344 25.9191 504.492 25.8996 504.613 25.8935C504.961 25.8772 505.315 25.8608 505.663 25.8445C505.897 25.8343 506.145 25.8049 506.358 25.8157C506.571 25.8285 506.75 25.8832 506.942 25.9189C507.134 25.9546 507.333 25.9902 507.519 26.0278C507.803 26.0841 508.074 26.131 508.471 26.1012C508.811 26.0754 509.166 26.0667 509.521 26.0484C509.968 26.0261 509.954 26.0319 510.786 26.1438C511.234 26.2054 511.694 26.1277 512.149 26.1187C512.376 26.1142 512.596 26.1345 512.753 26.1894C512.817 26.2121 512.797 26.2503 512.819 26.2826C511.648 26.3377 510.47 26.3851 509.314 26.4515C508.867 26.4776 508.632 26.4097 508.39 26.3532C507.991 26.2628 507.467 26.3979 507.089 26.2808C506.861 26.2109 506.534 26.1719 506.144 26.2074C505.917 26.2271 505.676 26.2259 505.442 26.2438C504.846 26.2876 504.299 26.2911 503.822 26.161C503.658 26.1157 503.423 26.0916 503.252 26.0483C503.053 26.0012 502.861 25.975 502.626 25.9853C501.569 26.0342 500.519 26.0832 499.47 26.1359C499.377 26.14 499.285 26.1689 499.208 26.1901C499.01 26.2441 499.074 26.2859 499.394 26.3193C499.501 26.3304 499.587 26.3549 499.686 26.3737C499.878 26.4093 500.057 26.466 500.27 26.4787C500.483 26.4914 500.731 26.464 500.965 26.4537C501.199 26.4435 501.447 26.4141 501.661 26.4249C501.874 26.4377 502.052 26.4924 502.251 26.5262C502.344 26.5431 502.458 26.5713 502.55 26.5691C503.019 26.5563 503.48 26.5339 503.948 26.5153C504.24 26.5659 504.489 26.6396 504.838 26.6557C505.058 26.6665 505.292 26.6448 505.519 26.6479C505.618 26.6495 505.747 26.6778 505.797 26.7024C505.825 26.7176 505.734 26.756 505.663 26.7753C505.394 26.8486 505.025 26.8363 504.692 26.8602C504.33 26.8861 504.003 26.8795 503.725 26.8059C503.54 26.7569 503.334 26.7308 503.106 26.741C502.518 26.7676 501.936 26.798 501.347 26.8207C501.248 26.8248 501.127 26.808 501.034 26.7949C500.287 26.6809 500.287 26.677 499.762 26.7034C498.989 26.742 498.989 26.742 498.469 26.6424C498.37 26.6237 498.262 26.5878 498.177 26.5899C497.354 26.6229 496.538 26.6559 495.723 26.7022C495.453 26.7164 495.269 26.7169 495.069 26.668C494.898 26.6265 494.698 26.5794 494.485 26.5686C494.265 26.5579 494.024 26.5872 493.79 26.5974C493.556 26.6077 493.308 26.6332 493.102 26.6186C492.889 26.604 492.703 26.5511 492.518 26.5135C492.326 26.4741 492.12 26.4766 491.857 26.4926C491.049 26.5389 491.042 26.5332 490.238 26.4174C490.145 26.4043 490.024 26.3894 489.925 26.3936C489.336 26.4182 488.754 26.4486 488.165 26.4732C487.938 26.4835 487.718 26.4593 487.561 26.4045C487.497 26.3818 487.517 26.3436 487.474 26.2693C487.424 26.2523 487.481 26.2827 487.496 26.3112C487.602 26.3071 487.73 26.3105 487.808 26.295C488.006 26.2582 488.105 26.2102 488.054 26.1703C488.026 26.1494 487.89 26.1231 487.805 26.1234C487.649 26.1238 487.515 26.1662 487.474 26.2693C487.027 26.3336 486.552 26.3484 486.091 26.3803C485.821 26.4002 485.651 26.3912 485.437 26.3422C485.181 26.282 484.917 26.2236 484.499 26.2554C484.045 26.2911 483.562 26.2983 483.094 26.3264C482.555 26.3585 482.318 26.1876 481.864 26.1928C481.396 26.198 480.927 26.2318 480.459 26.2561C480.048 26.2764 480.048 26.2764 479.194 26.155C478.881 26.1102 478.513 26.1781 478.207 26.1313C478.001 26.1014 477.822 26.0562 477.623 26.0244C477.538 26.0113 477.403 26.0117 477.296 26.0158C476.708 26.0405 476.112 26.0575 475.544 26.1012C474.899 26.1527 474.408 26.1008 473.945 25.9897C473.363 26.0124 472.774 26.0256 472.2 26.0636C471.781 26.0915 471.539 26.0293 471.254 25.9787C471.155 25.9618 471.069 25.9335 470.963 25.9262C470.856 25.9189 470.728 25.9345 470.615 25.9406C470.146 25.963 469.664 25.974 469.21 26.0097C468.65 26.0552 468.435 25.8995 468.001 25.8817C467.712 25.976 467.557 26.1043 466.983 26.1155C466.514 26.1246 466.046 26.1565 465.578 26.1789C465.344 26.1891 465.11 26.2013 464.876 26.2115C464.5 26.2298 464.323 26.3047 464.403 26.4189C464.447 26.4817 464.483 26.5446 464.52 26.6074C464.592 26.7197 464.416 26.8156 464.118 26.8298C463.295 26.8686 462.48 26.9092 461.657 26.9441C461.437 26.9543 461.223 26.9225 461.045 26.8715C460.859 26.8206 460.653 26.7983 460.426 26.8085C459.603 26.8473 458.788 26.8879 457.965 26.9228C457.872 26.9269 457.751 26.9081 457.659 26.8932C457.46 26.8594 457.267 26.82 457.075 26.7843C456.607 26.8029 456.146 26.8157 455.684 26.84C454.94 26.8766 454.94 26.8785 454.391 26.7752C454.292 26.7564 454.192 26.7205 454.099 26.7227C453.745 26.7314 453.397 26.7515 453.042 26.7698C452 26.8225 452 26.8225 451.693 26.7662C451.416 26.7136 451.166 26.6495 450.748 26.6813C450.294 26.717 449.811 26.7299 449.343 26.7504C448.996 26.7648 448.648 26.7811 448.3 26.786C448.208 26.7881 448.108 26.7522 448.008 26.7334C447.723 26.6752 447.446 26.6283 447.056 26.6619C446.829 26.6817 446.588 26.6862 446.354 26.6965C445.743 26.725 445.743 26.725 444.741 26.6136C444.641 26.6024 444.52 26.5894 444.421 26.5955C443.598 26.6323 442.782 26.6729 441.959 26.7078C441.86 26.7119 441.739 26.7008 441.64 26.6916C440.516 26.5843 440.516 26.5843 439.324 26.6413C438.87 26.6618 438.856 26.6694 438.379 26.5698C438.165 26.5266 437.988 26.5061 437.739 26.5202C436.803 26.5688 435.859 26.6022 434.93 26.6584C434.512 26.6825 434.269 26.626 433.985 26.5754C433.885 26.5585 433.778 26.5207 433.693 26.5229C432.756 26.5619 431.82 26.6086 430.883 26.6477C430.798 26.6518 430.691 26.6139 430.592 26.5971C430.399 26.5633 430.214 26.5124 430.001 26.5016C429.781 26.4908 429.54 26.5201 429.298 26.5304C428.71 26.557 428.709 26.5551 428.026 26.4446C427.934 26.4296 427.813 26.409 427.721 26.4131C426.784 26.4541 425.84 26.4893 424.911 26.5474C424.379 26.5796 424.016 26.5253 423.639 26.4464C423.561 26.4294 423.426 26.4222 423.326 26.4263C422.269 26.4734 421.219 26.5261 420.162 26.5732C419.942 26.5834 419.729 26.5516 419.551 26.5025C419.265 26.4252 418.932 26.4357 418.577 26.454C417.762 26.4965 417.754 26.4946 417.27 26.4045C417.171 26.3857 417.085 26.3612 416.978 26.352C416.879 26.3428 416.751 26.3489 416.645 26.353C416.177 26.3735 415.708 26.3959 415.24 26.4182C414.772 26.4406 414.296 26.4535 413.835 26.4873C413.268 26.5291 412.996 26.4059 412.598 26.3499C412.016 26.3765 411.42 26.3935 410.846 26.4353C410.406 26.4671 410.199 26.3838 409.907 26.3409C409.808 26.3259 409.701 26.2938 409.608 26.2979C408.551 26.343 407.494 26.392 406.444 26.4467C406.189 26.4589 406.018 26.4441 405.805 26.399C405.328 26.2974 405.306 26.3013 404.512 26.3419C404.164 26.3601 403.831 26.3763 403.531 26.299C403.268 26.2293 402.948 26.2131 402.572 26.2371C402.111 26.2671 401.636 26.2838 401.167 26.3043C400.699 26.3266 400.231 26.3567 399.763 26.3676C399.387 26.3783 399.158 26.2893 398.859 26.2445C398.767 26.2314 398.639 26.2299 398.532 26.234C398.064 26.2526 397.582 26.2674 397.128 26.3012C396.575 26.3429 396.268 26.2389 395.876 26.1791C395.791 26.166 395.649 26.174 395.543 26.1801C394.72 26.2169 393.904 26.2575 393.081 26.2962C392.789 26.2456 392.49 26.1969 392.198 26.1463C391.73 26.1668 391.262 26.1891 390.794 26.2096C390.439 26.2259 390.077 26.2328 389.744 26.2624C389.311 26.3018 389.097 26.2128 388.805 26.1698C388.706 26.1549 388.599 26.1228 388.506 26.1269C387.918 26.1496 387.329 26.1743 386.747 26.2085C386.194 26.2426 385.971 26.0716 385.517 26.0748C385.048 26.0782 384.566 26.1044 384.112 26.1401C383.588 26.1817 383.217 26.1218 382.84 26.0409C382.762 26.024 382.627 26.0149 382.527 26.019C381.938 26.0437 381.357 26.074 380.768 26.0987C380.668 26.1028 380.548 26.0936 380.448 26.0825C379.325 25.9733 379.325 25.9714 378.835 25.9958C378.488 26.0121 378.133 26.0322 377.778 26.0429C377.679 26.047 377.558 26.0302 377.465 26.0152C376.725 25.9011 376.725 25.8992 376.193 25.9237C375.725 25.946 375.257 25.9684 374.788 25.9908C374.497 25.9402 374.198 25.8915 373.906 25.8409C373.324 25.8675 372.728 25.8883 372.154 25.9244C371.884 25.9404 371.707 25.9353 371.5 25.8882C371.243 25.8318 370.987 25.7658 370.561 25.7995C370.108 25.8352 369.625 25.8404 369.164 25.8704C368.611 25.9064 368.381 25.7336 367.934 25.7368C367.465 25.7401 366.983 25.7664 366.529 25.8021C366.004 25.8437 365.634 25.7838 365.257 25.7029C365.178 25.686 365.043 25.6769 364.944 25.681C363.653 25.7402 362.369 25.7994 361.078 25.8624C360.283 25.901 360.283 25.9029 358.77 25.8026C358.663 25.7953 358.549 25.788 358.443 25.7921C357.974 25.8107 357.492 25.8255 357.038 25.8593C356.485 25.901 356.178 25.7989 355.787 25.7372C355.701 25.7241 355.567 25.7321 355.453 25.7363C355.098 25.7507 354.751 25.7689 354.396 25.7852C353.928 25.8076 353.46 25.83 352.991 25.8524C352.699 25.8037 352.401 25.7531 352.109 25.7044C351.527 25.7309 350.931 25.7461 350.356 25.7879C349.917 25.8197 349.71 25.7402 349.418 25.6953C349.318 25.6804 349.211 25.6483 349.119 25.6505C348.062 25.6956 347.005 25.7427 345.955 25.7992C345.522 25.8234 345.322 25.7382 345.031 25.6952C344.931 25.6821 344.817 25.6577 344.725 25.6618C344.022 25.6906 343.32 25.7251 342.618 25.7597C342.221 25.7799 342.221 25.7799 341.353 25.6643C341.253 25.6513 341.139 25.6383 341.04 25.6424C338.812 25.7444 336.592 25.8522 334.364 25.9543C334.137 25.9645 333.931 25.9365 333.753 25.8856C333.567 25.8346 333.361 25.8085 333.134 25.8188C332.197 25.8616 331.254 25.9007 330.325 25.9531C329.942 25.9752 329.636 25.9514 329.372 25.8854C329.173 25.8364 328.988 25.8179 328.74 25.8301C328.271 25.8544 327.803 25.8749 327.335 25.8973C326.867 25.9196 326.399 25.9421 325.93 25.9644C325.462 25.9868 324.987 25.9997 324.526 26.0335C323.958 26.0753 323.68 25.9579 323.288 25.8999C322.586 25.9306 321.884 25.9614 321.188 25.994C320.252 26.0368 319.315 26.0835 318.379 26.1245C318.294 26.1286 318.187 26.0946 318.087 26.0777C317.795 26.0309 317.581 25.9648 317.149 25.9871C315.049 26.0945 312.935 26.1867 310.828 26.2922C310.388 26.3145 310.195 26.2331 309.896 26.1901C309.797 26.177 309.683 26.1507 309.591 26.1548C308.42 26.206 307.249 26.2629 306.079 26.3179C305.604 26.3403 305.604 26.3403 304.807 26.2245C304.714 26.2114 304.593 26.1946 304.494 26.1987C302.968 26.2682 301.45 26.3414 299.925 26.4128C299.698 26.423 299.492 26.3969 299.307 26.346C299.128 26.295 298.915 26.2671 298.695 26.2772C297.29 26.3425 295.878 26.4059 294.481 26.4768C294.105 26.4971 293.792 26.4808 293.521 26.413C293.329 26.364 293.137 26.3436 292.896 26.3557C290.789 26.4555 288.682 26.5515 286.575 26.6571C286.171 26.6774 285.886 26.642 285.63 26.5798C285.423 26.5308 285.245 26.5218 284.99 26.5302C284.72 26.5406 284.557 26.562 284.409 26.6197C284.219 26.6947 284.099 26.7885 283.645 26.7956C283.177 26.8027 282.701 26.827 282.24 26.8608C281.801 26.8946 281.594 26.8094 281.316 26.7587C281.109 26.7231 280.918 26.718 280.655 26.7359C280.414 26.7519 280.266 26.7848 280.125 26.8462C279.814 26.9768 279.786 26.9769 279.401 26.8961C279.195 26.8528 279.009 26.8191 278.782 26.8274C277.846 26.8683 276.91 26.9131 275.973 26.9598C275.434 26.9862 275.427 26.9901 275.021 26.8959C274.821 26.8489 274.629 26.8265 274.395 26.8387C271.82 26.9609 269.245 27.0793 266.67 27.2072C266.272 27.2274 266.002 27.1882 265.717 27.1318C265.625 27.113 265.532 27.0866 265.425 27.0793C265.319 27.072 265.198 27.08 265.085 27.0842C263.212 27.1718 261.332 27.2557 259.466 27.3529C259.04 27.3751 258.812 27.3148 258.521 27.2661C258.421 27.2492 258.335 27.2228 258.229 27.2154C258.122 27.21 257.994 27.2238 257.881 27.2298C256.008 27.3175 254.128 27.4014 252.262 27.4985C251.816 27.5209 251.623 27.4413 251.331 27.4002C251.231 27.3853 251.124 27.357 251.032 27.3611C250.443 27.3838 249.862 27.4142 249.273 27.4408C247.868 27.5079 246.463 27.5713 245.059 27.6404C244.52 27.6668 244.283 27.4978 243.828 27.5067C243.239 27.5181 242.658 27.558 242.069 27.5864C241.601 27.6088 241.133 27.6293 240.664 27.6536C240.203 27.676 240.203 27.676 239.052 27.5688C238.952 27.5596 238.831 27.5466 238.732 27.5507C237.093 27.6262 235.447 27.7017 233.816 27.7829C233.44 27.8012 233.127 27.7927 232.856 27.7229C232.664 27.6739 232.465 27.6497 232.231 27.6618C229.769 27.778 227.314 27.8941 224.852 28.0083C224.76 28.0124 224.639 27.9937 224.547 27.9787C224.347 27.945 224.155 27.9055 223.963 27.8699C223.822 27.9141 223.638 27.9547 223.546 28.0046C223.419 28.0717 223.249 28.0913 222.98 28.1036C222.71 28.1158 222.54 28.1125 222.326 28.0636C222.07 28.0033 221.806 27.9564 221.388 27.9768C218.812 28.1047 216.237 28.2212 213.662 28.3472C213.236 28.3675 213.036 28.2842 212.738 28.2412C212.638 28.2282 212.524 28.2076 212.432 28.2117C211.375 28.2587 210.325 28.3095 209.268 28.3585C206.338 28.497 203.408 28.6298 200.485 28.7759C199.953 28.8023 199.59 28.7557 199.213 28.6749C199.134 28.6579 198.999 28.6488 198.9 28.6529C194.8 28.8446 190.699 29.0381 186.606 29.2316C186.386 29.2418 186.172 29.2119 185.994 29.1629C185.809 29.1119 185.602 29.0878 185.375 29.098C183.503 29.1857 181.63 29.2733 179.757 29.3629C179.289 29.3853 179.282 29.3872 178.797 29.2971C178.698 29.2783 178.591 29.2424 178.513 29.2465C178.35 29.2565 178.194 29.3046 178.081 29.3698C177.969 29.4388 177.792 29.4584 177.529 29.4726C177.26 29.4867 177.082 29.4815 176.876 29.4364C176.612 29.38 176.37 29.3254 175.944 29.3457C170.56 29.6061 165.175 29.8569 159.791 30.1153C159.358 30.1357 159.158 30.0562 158.859 30.0132C158.759 30.0002 158.66 29.9814 158.553 29.9779C158.44 29.9744 158.319 29.9863 158.206 29.9923C149.423 30.4059 140.64 30.8215 131.858 31.2351C131.333 31.2596 131.34 31.2596 130.767 31.4367C130.697 31.4579 130.605 31.4868 130.506 31.4909C127.817 31.6211 125.121 31.7474 122.425 31.8738C121.255 31.9288 120.084 31.9858 118.914 32.0389C118.495 32.0573 118.495 32.0573 117.497 32.2663C117.412 32.2837 117.313 32.3069 117.214 32.311C112.532 32.533 107.849 32.755 103.16 32.9732C102.791 32.9896 102.494 33.0248 102.325 33.1169C102.205 33.1821 102.049 33.2207 101.815 33.2328C98.5377 33.3876 95.2603 33.5444 91.9756 33.6954C91.5854 33.7138 91.3519 33.7679 91.1614 33.8485C91.0979 33.8754 91.0416 33.9061 90.9496 33.9255C90.8647 33.9429 90.737 33.949 90.6306 33.955C87.8213 34.0875 85.0121 34.2237 82.1956 34.3505C81.777 34.3689 81.6076 34.4399 81.4029 34.5149C81.3323 34.54 81.2831 34.5744 81.191 34.5919C81.099 34.6074 80.9641 34.6078 80.8506 34.612C78.5095 34.722 76.1685 34.834 73.8274 34.944C73.3729 34.9358 73.2751 35.0468 73.0561 35.1142C72.9783 35.1373 72.9221 35.168 72.8301 35.1835C72.7309 35.1991 72.6029 35.1975 72.4823 35.2017C70.6094 35.2894 68.7367 35.3827 66.8566 35.4647C66.4238 35.4832 66.3401 35.5807 66.1068 35.6481C66.0291 35.6694 65.9516 35.702 65.8594 35.708C64.6889 35.7669 63.5184 35.8219 62.3478 35.875C61.9576 35.8933 61.9575 35.8914 61.2718 36.0823C61.1941 36.1035 61.102 36.1267 61.0027 36.1327C59.2505 36.2181 57.4911 36.2997 55.7318 36.3832C55.5048 36.3934 55.3493 36.4396 55.2367 36.5048C55.1241 36.57 54.9615 36.6125 54.7345 36.6227C53.3298 36.6898 51.9251 36.7589 50.5204 36.8204C50.1301 36.8368 49.8754 36.8852 49.7063 36.9716C49.5795 37.0368 49.4238 37.0697 49.1755 37.0819C47.7709 37.1471 46.3663 37.2181 44.9544 37.2758C44.5429 37.2923 44.3308 37.3578 44.1617 37.4384C44.0278 37.5036 43.872 37.527 43.6095 37.5392C41.0342 37.6576 38.4519 37.776 35.8839 37.9058C35.4512 37.9281 35.2301 37.862 34.9454 37.8152C34.5397 37.7496 34.1625 37.6783 34.1602 37.5295C34.1599 37.5067 34.0387 37.4803 33.9533 37.4615C33.3193 37.3204 33.3192 37.3204 33.2175 37.1681C33.1593 37.0748 33.094 36.9797 33.0428 36.8845C32.9481 36.7284 32.7203 36.689 32.0676 36.7196C31.8335 36.7298 31.5994 36.7438 31.3653 36.7522C31.0176 36.7666 30.754 36.7044 30.6884 36.5902C30.6519 36.5274 30.6084 36.4646 30.572 36.4017C30.9267 36.3854 30.9195 36.3835 31.5407 36.1509C31.8019 36.0528 31.802 36.0528 31.2965 35.9571C31.1042 35.9214 30.919 35.8819 30.7126 35.8482C30.6201 35.8332 30.4993 35.8241 30.4 35.8282C29.8111 35.8528 29.2294 35.8813 28.6477 35.9097C27.7113 35.9545 27.7111 35.9545 26.7569 35.7629C26.6786 35.7478 26.5575 35.7196 26.5714 35.7043C26.6484 35.6335 26.8396 35.6024 27.0809 35.594C27.4356 35.5815 27.7832 35.5614 28.1308 35.5451C28.3649 35.5349 28.599 35.5227 28.8331 35.5125C29.0521 35.4394 29.2783 35.3681 29.4831 35.2931C29.8079 35.1777 29.8077 35.1739 29.3592 35.0951C29.0744 35.0426 28.7685 34.9958 28.4766 34.9471C28.129 34.9634 27.7744 34.9816 27.4267 34.996C26.9868 35.0145 26.8088 34.9788 26.6933 34.8552C26.5923 34.7468 26.7115 34.653 27.0519 34.6291C27.3994 34.6051 27.7259 34.5889 27.9019 34.4911C28.0708 34.3971 28.3684 34.36 28.7374 34.3513C28.9716 34.3448 29.2057 34.3308 29.4397 34.3186C29.7448 34.3025 29.9066 34.2047 29.8411 34.0962C29.8045 34.0257 29.7326 33.9668 29.4555 33.9524C28.2263 33.8893 28.2121 33.8913 27.5996 33.7634C27.5426 33.7522 27.4996 33.718 27.5206 33.7007C27.5557 33.672 27.6332 33.6298 27.7183 33.6239C28.534 33.5794 29.3498 33.5389 30.1657 33.5078C30.4353 33.4974 30.6339 33.4835 30.7252 33.4126C30.8514 33.315 30.7933 33.2255 30.5438 33.1595C30.4654 33.1388 30.3371 33.1125 30.2519 33.1146C29.3154 33.1518 28.3861 33.1984 27.4496 33.2356C27.3644 33.2397 27.2078 33.2077 27.172 33.183C27.1003 33.1375 27.2058 33.0761 27.4539 33.0544C27.78 33.0248 28.1136 33.0219 28.3323 32.9259C28.6354 32.7895 29.0098 32.6645 29.3485 32.5337C29.405 32.5107 29.4967 32.4665 29.4754 32.4628C29.2972 32.4213 29.0908 32.3896 28.9057 32.3501C28.5923 32.2842 28.5908 32.1908 28.6604 32.101C28.7161 32.0283 28.9286 31.9991 29.1913 31.9983C29.3049 31.9979 29.4469 31.9975 29.5389 31.9801C29.7796 31.9374 29.8569 31.8837 29.7356 31.844C29.6643 31.8214 29.5361 31.7894 29.4509 31.7934C27.9327 31.8609 26.4072 31.9266 24.8963 32.0093C24.4494 32.0335 24.2426 31.9617 23.972 31.911C23.7656 31.8716 23.5735 31.8569 23.3184 31.8863C23.0775 31.9137 22.843 31.8992 22.693 31.8367C22.5715 31.7855 22.7838 31.741 23.358 31.6897C23.4644 31.6799 23.5849 31.6738 23.6627 31.6545C24.4831 31.446 24.483 31.4441 25.0505 31.4157C25.6039 31.3892 25.604 31.3873 25.8934 31.2758C26.0274 31.2239 26.1756 31.172 26.3026 31.1182C26.352 31.0971 26.4367 31.0587 26.4081 31.0473C26.251 30.9887 26.0378 30.976 25.7895 30.9901C25.2363 31.0242 24.5829 30.9994 24.2946 31.1815C24.182 31.2505 24.0048 31.2701 23.7494 31.2823C21.1813 31.4006 18.6131 31.5266 16.0378 31.6412C15.6193 31.6596 15.4288 31.7308 15.2667 31.8094C15.1257 31.8747 14.9698 31.8943 14.7002 31.9065C14.4306 31.9188 14.2176 31.9251 14.0605 31.8627C13.9676 31.8248 14.0449 31.7712 14.257 31.7171C14.5611 31.6399 14.5029 31.5447 14.4021 31.4554C14.3302 31.3965 14.1095 31.3552 13.8753 31.3597C13.5276 31.3684 13.1943 31.3904 12.9021 31.315C12.731 31.2716 12.5176 31.2417 12.3253 31.2042C11.955 31.1271 11.5846 31.0481 11.0671 31.1012C10.7119 31.0832 10.4624 31.0152 10.1776 30.9627C9.70064 30.8764 9.65784 30.8632 9.99716 30.7687C10.3789 30.6627 10.0786 30.5262 10.29 30.4226C10.5155 30.3113 10.8265 30.2131 11.1017 30.1093C11.1723 30.0824 11.2359 30.0574 11.3064 30.0305C11.1426 29.9928 10.9928 29.9456 10.8007 29.9195C10.5517 29.8859 10.4233 29.8443 10.4357 29.726C10.3857 29.709 10.4076 29.7528 10.4645 29.7641C10.5286 29.7753 10.6847 29.7653 10.7626 29.7518C10.9609 29.7149 11.0594 29.6669 11.0091 29.627C10.9804 29.6062 10.8452 29.5799 10.76 29.5801C10.6038 29.5806 10.4696 29.6229 10.4286 29.7261C9.6347 29.8067 8.81166 29.8473 7.98864 29.8803C7.90351 29.8843 7.7965 29.8465 7.69682 29.8277C7.36928 29.7639 7.36927 29.7658 6.41061 29.7496C6.31119 29.748 6.17597 29.7217 6.12587 29.6952C5.91822 29.5794 5.92343 29.4516 5.82215 29.328C6.0055 29.2473 6.18873 29.1686 6.37921 29.0898C6.76014 28.9303 7.25506 28.7896 7.55057 28.6152C7.48525 28.5219 7.39862 28.4287 7.70982 28.3515C8.59574 28.2535 8.58869 28.2535 8.82866 28.1612C9.51331 27.8998 10.1908 27.6364 10.9039 27.3787C11.0945 27.3114 11.094 27.2752 10.7528 27.2476C10.6462 27.2403 10.5325 27.2387 10.4189 27.2429C10.0642 27.2573 9.70976 27.2927 9.36179 27.2861C9.01385 27.2814 8.75701 27.1983 8.47226 27.1476C8.18038 27.0951 7.88849 27.0407 7.59659 26.9863C7.26302 26.993 6.93024 27.0474 6.59528 26.9626C6.33869 26.8966 6.01853 26.8499 5.72663 26.7954C5.94448 26.6498 6.3546 26.538 6.67211 26.4092C6.96139 26.292 6.96836 26.2939 7.74788 26.2019C8.11639 26.1589 8.24089 25.943 7.92757 25.881C7.55016 25.8058 7.15162 25.7364 6.76716 25.6651C6.4336 25.6719 6.0937 25.7244 5.77293 25.6395C5.52348 25.5754 5.23879 25.5324 4.82743 25.5584C4.13236 25.6025 3.4228 25.6256 2.72052 25.6621C2.47933 25.6742 2.21647 25.6674 2.109 25.6029C2.03731 25.5573 2.24223 25.4938 2.4763 25.4797C2.83096 25.4596 3.15003 25.4357 3.32605 25.3398C3.49497 25.244 3.80685 25.2144 4.1758 25.1999C4.27513 25.1958 4.38845 25.1726 4.43779 25.1496C4.69167 25.0382 4.97419 24.942 5.52087 24.9441C5.74746 24.9053 5.86734 24.8573 5.79565 24.8117C5.75268 24.787 5.60318 24.7551 5.51805 24.7592C4.92912 24.78 4.34021 24.8008 3.76572 24.8369C3.49619 24.853 3.29026 24.8574 3.11901 24.8007C2.99775 24.7629 3.06084 24.7112 3.28717 24.6552C3.48521 24.607 3.54122 24.5515 3.52604 24.4867C3.48824 24.3361 3.27456 24.2929 2.5932 24.3045C2.10348 24.3136 1.98241 24.2892 1.87395 24.1598C1.84508 24.1294 1.77358 24.0876 1.82295 24.0665C2.12623 23.9359 2.32257 23.7751 2.89666 23.7123C3.12348 23.6888 3.36475 23.688 3.50597 23.638C3.64719 23.588 3.77417 23.5304 3.92252 23.4823C4.10622 23.4245 4.23306 23.3707 4.14732 23.3348C4.00435 23.2704 3.77717 23.2653 3.51485 23.289C3.28798 23.3087 3.04665 23.3114 2.81255 23.3235C2.39403 23.3458 2.0526 23.2972 2.00162 23.2134C1.86336 22.9926 1.71799 22.7737 1.59393 22.5529C1.57932 22.5262 1.6142 22.4918 1.67064 22.4687C1.86819 22.388 2.08008 22.3111 2.28476 22.2323C2.52476 22.1419 2.90843 22.1579 3.23472 22.1398C3.69578 22.1136 3.69565 22.1155 4.31047 21.9305C4.55073 21.8573 4.97003 21.8847 5.2175 21.8191C5.29527 21.7979 5.41543 21.7632 5.39384 21.7442C5.36507 21.7195 5.22287 21.7008 5.11621 21.6897C5.01665 21.6786 4.89591 21.6732 4.78951 21.6793C3.49833 21.7384 2.21435 21.8014 0.923139 21.8587C0.703215 21.8689 0.461201 21.8277 0.382209 21.7688C0.303275 21.7137 0.323483 21.6469 0.308324 21.584C0.513002 21.5052 0.746073 21.432 0.922268 21.3476C1.05616 21.2823 1.21193 21.2533 1.48163 21.2486C1.8365 21.2418 2.18404 21.2179 2.58132 21.1995C3.31537 20.9189 4.03496 20.6249 4.8258 20.3441C5.14354 20.2306 5.06383 20.1164 5.12589 19.996C5.18809 19.8852 5.66396 19.901 5.98292 19.8676C6.23808 19.8401 6.32222 19.7788 6.22219 19.7372C6.16502 19.7126 6.03687 19.6843 5.93749 19.6846C5.70322 19.6853 5.46922 19.7032 5.2351 19.7134C5.00098 19.7237 4.73114 19.7188 4.53996 19.7518C4.35585 19.7829 4.23609 19.8481 4.11625 19.9037C3.9823 19.9652 3.80527 19.9867 3.53556 19.9913C3.18777 19.9962 2.8402 20.0144 2.49255 20.0288C2.10807 19.9555 1.70933 19.8843 1.33899 19.8072C1.26777 19.7922 1.25282 19.7483 1.25949 19.7197C1.27255 19.6453 1.16539 19.5998 0.93057 19.5643C0.731331 19.5344 0.56737 19.491 0.382213 19.4534C0.523407 19.4015 0.678884 19.3514 0.791624 19.2958C1.03831 19.1787 1.34942 19.0939 1.88901 19.0961C2.10084 19.021 2.26977 18.929 2.54585 18.8767C2.80776 18.8263 3.25577 18.8745 3.45283 18.7614C3.55137 18.7058 3.69957 18.6424 3.8909 18.6189C4.1956 18.5818 4.59343 18.5997 4.76928 18.4923C4.87483 18.431 5.0301 18.3752 5.23574 18.3593C5.46975 18.3414 5.71099 18.3369 5.88082 18.3002C5.97281 18.2808 6.07175 18.25 6.07134 18.2233C6.07108 18.2061 5.9288 18.1799 5.82924 18.1687C5.73675 18.1556 5.61578 18.1465 5.50935 18.1506C5.15458 18.1631 4.80705 18.1851 4.45227 18.1977C4.35294 18.2018 4.23919 18.1888 4.13253 18.1776C3.81971 18.1481 3.84038 18.1099 4.0878 18.0405C4.33525 17.973 4.51151 17.8866 4.71619 17.8078C4.94315 17.7937 5.22716 17.7986 5.38278 17.7619C5.64454 17.702 5.82776 17.6156 6.0396 17.5406C6.27369 17.5284 6.51498 17.5239 6.73473 17.5023C6.8269 17.4944 6.86889 17.4523 6.9466 17.4272C7.08786 17.3791 7.20759 17.3101 7.39891 17.2867C7.71074 17.2514 8.09429 17.2636 8.27726 17.1581C8.38282 17.0968 8.54504 17.0315 8.74376 17.027C9.29736 17.0177 9.53004 16.9121 9.81248 16.8121C10.0243 16.7371 10.4793 16.7739 10.7124 16.6988C10.8678 16.6506 10.9806 16.5912 11.1361 16.5449C11.1997 16.5257 11.3344 16.5157 11.4408 16.5097C12.0224 16.4793 12.6113 16.4566 13.193 16.4243C13.2852 16.4183 13.37 16.3894 13.4406 16.3663C13.589 16.3163 13.6801 16.2474 13.8642 16.2144C14.0482 16.1814 14.3109 16.1806 14.5379 16.1704C15.2687 16.1396 15.3256 16.147 15.6568 15.9839C15.9246 15.8515 16.5863 15.943 16.8041 15.7974C16.9306 15.7131 17.1638 15.6437 17.5824 15.6329C18.1715 15.6178 18.753 15.5798 19.3419 15.5532C19.8668 15.5288 19.8598 15.5288 20.425 15.3497C20.6793 15.2688 21.0558 15.2792 21.3892 15.2629C21.744 15.2466 22.0701 15.2227 22.239 15.1268C22.408 15.0329 22.7198 15.0014 23.0817 14.987C23.4151 14.9726 23.7916 14.981 24.0531 14.9039C24.6892 14.7189 24.6821 14.717 25.1291 14.6966C25.8314 14.664 26.5337 14.6314 27.236 14.5968C27.7042 14.5744 28.194 14.5691 28.6335 14.5259C28.9525 14.4944 29.0928 14.3872 29.2975 14.3122C29.8792 14.2818 30.4609 14.2514 31.0426 14.223C31.8584 14.1824 32.6813 14.1456 33.5043 14.1069C33.8581 14.0333 33.9055 13.873 34.5017 13.8635C34.8566 13.8587 35.204 13.8328 35.5588 13.8165C36.1476 13.788 36.7291 13.7519 37.3182 13.7368C37.7653 13.7259 37.8416 13.6227 38.0749 13.5571C38.1527 13.534 38.2232 13.5014 38.3154 13.4954C39.2375 13.4392 40.1885 13.4249 41.0889 13.344C41.1811 13.3361 41.2657 13.2958 41.2865 13.2671C41.3005 13.2518 41.1794 13.2236 41.1011 13.2105C41.0086 13.1955 40.8877 13.1806 40.7883 13.1847C37.8584 13.3213 34.9286 13.4598 31.9986 13.5964C31.5872 13.6168 31.5871 13.6148 30.5894 13.8276C30.5045 13.8451 30.4052 13.8644 30.2988 13.8705C29.8307 13.8948 29.3552 13.9096 28.8942 13.9396C28.5183 13.9636 28.2057 13.9416 27.9349 13.8738C27.7425 13.8248 27.5434 13.8101 27.3021 13.8147C27.0324 13.8212 26.8554 13.8427 26.7 13.8947C26.4952 13.9659 26.3901 14.0577 25.9573 14.0781C23.9637 14.1661 21.9702 14.2637 19.9838 14.3574C19.7065 14.3315 19.571 14.2919 19.6413 14.244C19.6835 14.2152 19.7681 14.1768 19.8532 14.1728C20.669 14.1303 21.4919 14.0935 22.3078 14.0529C22.4212 14.0468 22.5775 14.0501 22.6411 14.0309C22.9521 13.9441 23.0637 13.8045 23.6528 13.7932C23.9934 13.7865 24.3408 13.7568 24.6669 13.7291C24.7591 13.7212 24.8437 13.6809 24.8646 13.6523C24.8714 13.637 24.7574 13.6087 24.672 13.5956C24.3588 13.5412 23.9979 13.6091 23.6849 13.5719C23.5782 13.5589 23.4288 13.5402 23.4071 13.5174C23.3926 13.4965 23.5128 13.4618 23.5976 13.4406C23.6754 13.4212 23.7816 13.4038 23.888 13.3977C24.8244 13.351 25.7609 13.3024 26.6975 13.2653C27.0806 13.2508 27.3496 13.2023 27.5186 13.114C27.6454 13.0488 27.8011 13.014 28.0423 13.0038C29.6811 12.9283 31.3197 12.8451 32.9657 12.7753C33.3772 12.7588 33.5893 12.6953 33.7584 12.6127C33.8923 12.5475 34.0482 12.5241 34.3107 12.5119C36.6589 12.4056 38.9928 12.288 41.3411 12.1856C41.7739 12.1671 41.9005 12.0847 42.1194 12.0135C42.1972 11.9884 42.2463 11.9578 42.3454 11.9422C42.4446 11.9267 42.5724 11.9282 42.693 11.924C44.5659 11.8363 46.4388 11.743 48.3189 11.661C48.7588 11.6425 48.8424 11.5469 49.0685 11.4795C49.1463 11.4583 49.2168 11.4237 49.309 11.4177C50.7136 11.3487 52.1183 11.2834 53.5229 11.2162C54.4593 11.1714 55.3958 11.1267 56.3322 11.0838C56.7934 11.0633 56.7933 11.0614 57.4153 10.8783C57.486 10.8572 57.5851 10.8321 57.6773 10.8261C60.373 10.6959 63.0617 10.5715 65.7575 10.4432C65.9845 10.433 66.1471 10.3886 66.2597 10.3234C66.3723 10.2582 66.535 10.2139 66.755 10.2037C68.8619 10.1019 70.9688 10.0022 73.083 9.90615C73.4661 9.88974 73.7351 9.84315 73.9042 9.75681C74.031 9.69159 74.1866 9.6568 74.4278 9.64653C76.5348 9.54864 78.6419 9.44501 80.7561 9.35091C81.1604 9.33253 81.3581 9.26709 81.5557 9.19021C81.6263 9.16329 81.6825 9.11926 81.7676 9.11518C82.8175 9.05862 83.8601 9.00017 84.9173 8.96075C85.3572 8.94416 85.5052 8.86361 85.6815 8.78679C85.8225 8.72533 85.9855 8.70387 86.2552 8.69542C86.8441 8.67649 87.4257 8.64232 88.0002 8.60817C88.0853 8.60219 88.1912 8.55991 88.1979 8.53319C88.2113 8.48356 88.0475 8.44972 87.7775 8.43337C84.9681 8.5658 82.1518 8.69824 79.3425 8.83068C78.8813 8.85305 78.8813 8.85306 78.2594 9.03612C78.1887 9.05731 78.0896 9.08241 77.9903 9.08843C75.2945 9.2167 72.6059 9.34305 69.9101 9.47133C69.683 9.48155 69.5205 9.5259 69.4079 9.59109C69.2953 9.65627 69.1325 9.70063 68.9126 9.71083C66.3374 9.83302 63.7623 9.95712 61.1799 10.0736C60.7968 10.09 60.5278 10.1347 60.3587 10.2229C60.2319 10.2882 60.0763 10.323 59.8351 10.3332C57.3733 10.4474 54.9187 10.5674 52.4498 10.6778C52.2015 10.6881 52.0162 10.6333 52.0296 10.5818C52.0363 10.5551 52.1419 10.5109 52.2271 10.5068C53.511 10.44 54.788 10.3713 56.0793 10.3197C56.5121 10.3032 56.6385 10.2189 56.8575 10.1477C56.9281 10.1226 56.9844 10.0901 57.0765 10.0764C57.1757 10.0609 57.3035 10.0624 57.4241 10.0582C60.4675 9.91364 63.511 9.76716 66.5616 9.63018C67.0015 9.60979 67.0851 9.51607 67.3112 9.44863C67.389 9.42551 67.4595 9.39098 67.5517 9.38689C68.4881 9.33829 69.4245 9.29541 70.361 9.25254C71.9998 9.17513 73.6385 9.09772 75.2844 9.02028C75.7597 8.99787 75.7597 8.99786 76.3675 8.81675C76.4382 8.79556 76.5372 8.76858 76.6294 8.76449C80.964 8.5588 85.2986 8.35311 89.6332 8.14933C89.8602 8.13911 90.0228 8.09475 90.1354 8.02957C90.248 7.96629 90.4106 7.92003 90.6305 7.90792C96.4903 7.63088 102.343 7.35386 108.203 7.08064C108.586 7.06232 108.855 7.02145 109.024 6.9313C109.144 6.8661 109.307 6.83129 109.548 6.81912C115.989 6.51553 122.431 6.21196 128.88 5.90645C133.214 5.70267 137.549 5.49507 141.883 5.29511C142.281 5.27674 142.493 5.21697 142.69 5.13818C142.754 5.11129 142.817 5.06723 142.902 5.06316C143.831 5.01268 144.761 4.96602 145.69 4.91935C145.982 4.96997 146.274 5.01869 146.565 5.0693C146.784 4.99617 146.996 4.92114 147.215 4.84801C148.62 4.78847 150.003 4.69847 151.422 4.6675C151.515 4.66531 151.615 4.70125 151.714 4.72003C152.376 4.83819 152.752 4.82752 153.169 4.66606C153.317 4.60839 153.444 4.55652 153.671 4.5463C154.373 4.50985 155.083 4.48482 155.778 4.44268C156.154 4.42057 156.467 4.43869 156.737 4.50654C156.93 4.55554 157.129 4.57594 157.363 4.56379C158.654 4.50268 159.938 4.4435 161.229 4.37858C161.322 4.37448 161.406 4.34179 161.477 4.3187C161.625 4.26866 161.752 4.21489 161.893 4.16297C162.086 4.19481 162.299 4.21897 162.456 4.26045C162.655 4.30944 162.84 4.30887 163.109 4.29471C168.26 4.04842 173.417 3.80783 178.568 3.55964C179.008 3.53924 179.2 3.61877 179.499 3.65983C179.599 3.67479 179.698 3.69355 179.805 3.69704C179.919 3.70052 180.039 3.68872 180.153 3.68266C184.019 3.49936 187.885 3.31796 191.752 3.13466C192.263 3.11023 192.263 3.11023 193.024 3.22619C193.117 3.24117 193.237 3.25797 193.337 3.25195C195.096 3.17227 196.855 3.08687 198.608 3.0053C198.835 2.99508 199.027 3.02501 199.234 3.06826C199.64 3.15286 199.668 3.15278 199.964 3.02601C200.105 2.96647 200.254 2.92976 200.488 2.91189C200.743 2.89205 200.949 2.89717 201.148 2.9309C201.433 2.97773 201.64 3.05719 202.073 3.03491C203.946 2.93963 205.826 2.85959 207.691 2.76242C208.117 2.74016 208.345 2.80432 208.63 2.85114C208.729 2.86801 208.822 2.89443 208.929 2.89983C209.035 2.90523 209.163 2.89148 209.276 2.88542C211.617 2.77538 213.966 2.66724 216.299 2.54959C216.739 2.52729 216.932 2.6087 217.231 2.64976C217.331 2.66472 217.445 2.69109 217.537 2.687C218.942 2.62364 220.353 2.55643 221.758 2.48926C222.262 2.46486 222.262 2.46676 223.03 2.58079C223.123 2.59577 223.244 2.61067 223.343 2.60655C224.982 2.53105 226.628 2.45362 228.266 2.3762C228.77 2.3518 228.77 2.3518 230.227 2.44659C230.334 2.4539 230.447 2.46502 230.554 2.46088C232.427 2.37323 234.307 2.28745 236.179 2.19408C236.555 2.17578 236.868 2.19009 237.139 2.25794C237.331 2.30694 237.53 2.32733 237.764 2.31519C239.871 2.21538 241.986 2.11938 244.085 2.01388C244.49 1.99359 244.753 2.03474 245.038 2.08919C245.13 2.10798 245.223 2.13441 245.33 2.14172C245.436 2.14903 245.557 2.14103 245.67 2.13497C247.777 2.03516 249.891 1.94107 251.991 1.83366C252.417 1.8114 252.645 1.87555 252.93 1.92237C253.029 1.93924 253.136 1.97325 253.221 1.97109C254.044 1.93618 254.868 1.90511 255.683 1.85497C256.123 1.82694 256.316 1.91408 256.615 1.95514C256.714 1.96819 256.828 1.99647 256.921 1.99238C258.68 1.91269 260.439 1.8292 262.192 1.74382C262.44 1.73163 262.625 1.74822 262.824 1.79721C263.088 1.86317 263.394 1.88895 263.777 1.86682C264.592 1.82049 265.415 1.78751 266.238 1.74879C266.721 1.72636 266.721 1.72636 268.199 1.82109C268.305 1.82839 268.419 1.83949 268.526 1.83535C269.93 1.77009 271.342 1.70672 272.74 1.63575C273.116 1.61555 273.428 1.63177 273.699 1.69961C273.891 1.74862 274.083 1.76903 274.325 1.75686C275.616 1.69576 276.9 1.63467 278.191 1.57356C278.659 1.55117 279.127 1.51351 279.596 1.5121C279.937 1.51298 280.186 1.60377 280.492 1.64863C280.578 1.66172 280.72 1.64605 280.833 1.6419C282.472 1.56449 284.118 1.49277 285.749 1.40584C286.175 1.38358 286.403 1.44774 286.688 1.49456C286.787 1.51142 286.894 1.54543 286.98 1.54327C287.568 1.52052 288.15 1.49015 288.739 1.46359C289.441 1.43095 290.151 1.40593 290.846 1.36188C291.413 1.32584 291.629 1.49111 292.083 1.49547C292.431 1.50014 292.786 1.46665 293.133 1.45035C293.836 1.41772 294.538 1.38128 295.24 1.35246C295.488 1.34217 295.68 1.31107 295.757 1.24218C295.771 1.22878 295.65 1.20055 295.571 1.18362C294.624 0.991938 294.624 0.991929 293.674 1.03675C293.085 1.06523 292.503 1.09368 291.914 1.11835C291.815 1.12246 291.701 1.10755 291.601 1.0964C291.317 1.06484 291.345 1.02661 291.585 0.957226C291.825 0.887842 292.009 0.803379 292.213 0.724566C292.505 0.773275 292.79 0.821987 293.082 0.870696C293.316 0.860455 293.55 0.848323 293.784 0.838082C294.955 0.784968 296.125 0.729943 297.296 0.680643C297.381 0.676572 297.488 0.7144 297.588 0.733172C297.873 0.787624 298.129 0.83452 298.54 0.812301C299.59 0.753829 300.647 0.710593 301.697 0.659749C302.158 0.63738 302.158 0.637382 302.969 0.753188C303.062 0.76626 303.183 0.781154 303.282 0.777041C304.339 0.72999 305.389 0.679152 306.446 0.630195C306.673 0.619975 306.894 0.644104 307.058 0.698919C307.122 0.721612 307.108 0.759791 307.383 1.07175C308.225 1.32288 308.799 1.29446 309.381 1.26982C309.629 1.25954 309.849 1.24933 310.012 1.21069C310.097 1.18946 310.203 1.15862 310.202 1.13382C310.202 1.11475 310.045 1.0847 309.946 1.08119C309.243 1.04516 308.576 1.12728 307.888 1.14652C307.569 1.15511 307.291 1.0892 307.233 0.98066C307.218 0.950188 307.196 0.917833 307.174 0.887383C307.152 0.856933 307.138 0.824555 307.116 0.794105C306.839 0.785403 306.676 0.820218 306.557 0.885425C306.458 0.939124 306.317 1.00058 306.126 1.02977C305.935 1.06086 305.672 1.05594 305.438 1.06618C305.211 1.0764 304.963 1.10194 304.749 1.08923C304.536 1.07461 304.365 1.01981 304.166 0.98608C304.073 0.969194 303.959 0.944752 303.867 0.948844C303.051 0.983725 302.242 1.01857 301.434 1.06297C301.008 1.08714 300.794 1.00769 300.523 0.958916C300.31 0.921414 300.097 0.93158 300.063 1.01942C299.974 1.22948 300.302 1.31622 301.025 1.27399C301.621 1.23786 302.16 1.23053 302.631 1.35881C302.695 1.37578 302.844 1.38296 302.936 1.37887C303.518 1.35423 304.093 1.32388 304.674 1.29925C304.781 1.29511 304.895 1.30238 304.994 1.30971C306.444 1.40834 306.444 1.41025 306.933 1.38589C307.168 1.37375 307.394 1.36352 307.369 1.0737C307.811 0.76149 308.521 0.738376 309.209 0.690531C309.656 0.660576 309.848 0.743917 310.14 0.786905C310.24 0.801863 310.347 0.832051 310.439 0.827958C311.964 0.760425 313.483 0.689089 315.001 0.613949C315.256 0.601736 315.441 0.612625 315.64 0.661612C315.897 0.723778 316.181 0.762981 316.586 0.738877C317.394 0.690667 318.217 0.659586 319.04 0.618963C319.459 0.59863 319.459 0.59861 320.305 0.714309C320.398 0.727381 320.519 0.742275 320.618 0.738162C321.441 0.70326 322.257 0.660762 323.073 0.623974C323.3 0.613754 323.506 0.639832 323.684 0.69079C323.863 0.741748 324.076 0.767804 324.296 0.757605C325.119 0.720796 325.935 0.680206 326.751 0.643418C326.85 0.639305 326.971 0.652291 327.063 0.665363C327.931 0.780997 327.931 0.780977 328.328 0.760708C328.91 0.730348 329.506 0.715216 330.081 0.675341C330.641 0.635509 330.934 0.745238 331.318 0.805112C332.368 0.758082 333.425 0.71867 334.468 0.662126C334.893 0.637957 335.122 0.700203 335.406 0.748934C335.506 0.765799 335.606 0.801739 335.698 0.799554C336.053 0.790856 336.401 0.768833 336.748 0.752528C337.096 0.736223 337.451 0.719899 337.798 0.703594C338.197 0.757703 338.461 0.886597 339.028 0.841021C339.369 0.813295 339.731 0.806483 340.078 0.790178C340.426 0.773873 340.781 0.757548 341.128 0.741243C341.362 0.731002 341.604 0.724545 341.831 0.706697C342.249 0.676828 342.456 0.769669 342.755 0.810728C342.855 0.823779 342.969 0.846308 343.061 0.842215C343.763 0.813398 344.473 0.788376 345.161 0.742437C345.693 0.706505 346.056 0.762636 346.433 0.841603C346.511 0.858532 346.646 0.867661 346.746 0.863547C347.569 0.828645 348.384 0.786125 349.2 0.749337C349.42 0.739138 349.634 0.76901 349.812 0.818061C349.997 0.868998 350.203 0.89319 350.43 0.88297C351.246 0.846182 352.069 0.805547 352.885 0.768759C352.985 0.764646 353.105 0.779542 353.198 0.794521C353.995 0.91037 353.995 0.912279 354.463 0.887982C354.577 0.881918 354.697 0.877725 354.811 0.871662C355.392 0.843208 355.996 0.831868 356.563 0.784386C357.215 0.730925 357.692 0.794338 358.155 0.901656C358.737 0.877017 359.333 0.861868 359.9 0.822014C360.326 0.792124 360.554 0.863907 360.839 0.910731C360.938 0.927596 361.045 0.961604 361.13 0.957533C361.953 0.922631 362.776 0.891553 363.585 0.841437C364.025 0.813411 364.218 0.898639 364.517 0.941606C364.616 0.956563 364.723 0.982957 364.815 0.978865C365.284 0.962196 365.752 0.937887 366.22 0.915497C366.766 0.889058 366.766 0.890964 367.492 1.00512C367.834 1.0594 368.174 1.01451 368.507 1.00015C368.862 0.983825 369.195 0.971381 369.481 1.04872C369.659 1.09777 369.872 1.12764 370.092 1.11935C370.561 1.10078 371.036 1.08219 371.497 1.05219C371.866 1.02819 372.185 1.04248 372.456 1.11223C372.649 1.16124 372.848 1.18545 373.082 1.1733C374.132 1.12436 375.189 1.07348 376.239 1.02645C376.331 1.02236 376.459 1.03915 376.545 1.05605C376.744 1.08978 376.936 1.12734 377.128 1.16491C377.59 1.14635 378.065 1.13731 378.519 1.10924C379.001 1.08109 379.441 1.07022 379.819 1.17398C379.898 1.19663 380.012 1.2287 380.104 1.22651C380.459 1.21781 380.806 1.1977 381.154 1.18139C381.502 1.16509 381.856 1.14876 382.204 1.13246C382.609 1.17892 382.867 1.31546 383.434 1.26989C383.775 1.24216 384.137 1.23535 384.484 1.21904C384.832 1.20274 385.187 1.18451 385.534 1.17011C385.648 1.16595 385.775 1.15603 385.875 1.16336C385.981 1.17066 386.074 1.19709 386.167 1.21588C386.451 1.27034 386.715 1.32486 387.119 1.29122C387.46 1.26349 387.822 1.25668 388.169 1.23847C388.644 1.21605 388.644 1.21606 389.434 1.33384C389.754 1.38246 390.115 1.31653 390.421 1.35757C390.628 1.38555 390.806 1.43269 391.005 1.46451C391.091 1.4776 391.226 1.48291 391.325 1.4788C391.793 1.46022 392.268 1.44163 392.729 1.41163C393.105 1.38762 393.418 1.40956 393.682 1.47742C393.874 1.52643 394.066 1.54684 394.307 1.53467C395.478 1.47775 396.649 1.42843 397.812 1.3658C398.209 1.34363 398.529 1.37509 398.75 1.44309C399.128 1.5602 399.659 1.41938 400.05 1.51356C400.293 1.57195 400.535 1.63989 400.975 1.60995C401.783 1.55793 402.606 1.52873 403.422 1.49195C403.714 1.54256 404.006 1.59319 404.305 1.64378C404.773 1.62139 405.241 1.59899 405.71 1.57851C406.057 1.5622 406.412 1.54397 406.76 1.52957C406.873 1.52542 406.994 1.51742 407.1 1.52664C407.207 1.53585 407.293 1.5604 407.392 1.57917C407.884 1.67114 407.883 1.67306 408.692 1.63248C409.04 1.61427 409.373 1.60182 409.666 1.67723C409.936 1.74698 410.256 1.75936 410.625 1.73727C411.32 1.69703 412.022 1.66631 412.732 1.63747C412.952 1.62727 413.158 1.65907 413.343 1.7081C413.622 1.78546 413.962 1.77681 414.31 1.75478C414.771 1.72669 415.225 1.69863 415.617 1.80425C415.695 1.8269 415.816 1.85894 415.902 1.85678C416.483 1.83977 417.072 1.82656 417.64 1.78861C418.207 1.75067 418.486 1.86807 418.877 1.92411C419.459 1.89756 420.048 1.87099 420.629 1.84445C420.743 1.83838 420.878 1.82082 420.977 1.83006C421.397 1.86885 421.64 2.01115 422.214 1.96556C422.548 1.93976 422.91 1.93105 423.257 1.92428C423.35 1.9221 423.471 1.95414 423.535 1.97874C423.571 1.99198 423.536 2.02832 423.494 2.04752C423.367 2.10131 423.211 2.15138 423.098 2.20703C423.084 2.2147 423.22 2.24861 423.298 2.26363C423.49 2.29738 423.71 2.29101 423.966 2.27498C424.185 2.26097 424.413 2.28698 424.57 2.34373C424.634 2.36642 424.614 2.40462 424.481 2.5309C424.482 2.62435 424.631 2.58194 424.679 2.52076C424.756 2.43279 424.607 2.40464 424.323 2.45317C424.125 2.4881 424.027 2.53799 424.077 2.57789C424.106 2.59878 424.241 2.62508 424.481 2.5309C425.104 2.41459 425.572 2.39221 426.04 2.36982C426.161 2.36374 426.302 2.34422 426.388 2.35541C426.694 2.40026 426.979 2.45472 427.278 2.50532C427.618 2.49285 427.937 2.46327 428.272 2.53664C428.742 2.64012 428.763 2.63052 429.217 2.60818C429.451 2.59603 429.685 2.5858 429.92 2.57556C430.154 2.56532 430.339 2.59336 430.545 2.63661C430.965 2.72498 431.001 2.72487 431.276 2.60198C431.438 2.52711 431.551 2.50198 431.758 2.53569C432.441 2.64997 432.448 2.65757 433.03 2.62149C433.512 2.59143 433.966 2.58243 434.323 2.69007C434.565 2.76563 434.643 2.74823 434.834 2.66755C435.342 2.45432 435.576 2.45742 436.536 2.60711C436.985 2.67823 437.445 2.59866 437.899 2.58775C438.283 2.57897 438.553 2.62392 438.583 2.74398C438.606 2.8183 438.67 2.87152 438.926 2.89554C439.026 2.90478 439.147 2.91776 439.246 2.91364C439.835 2.88898 440.417 2.86053 441.005 2.83205C441.303 2.8178 441.465 2.72769 441.407 2.60962C441.341 2.48394 441.454 2.43781 441.879 2.40029C442.134 2.37854 442.34 2.38175 442.547 2.41546C442.775 2.45292 442.711 2.48744 442.513 2.5567C442.04 2.72596 442.099 2.82875 442.711 2.94325C442.925 2.98266 443.096 3.0184 443.146 3.07737C443.175 3.1078 443.147 3.14793 443.211 3.17063C443.561 3.29736 444.045 3.37792 444.586 3.43732C445.103 3.38427 445.459 3.46901 445.858 3.53647C446.171 3.58892 446.54 3.54205 446.873 3.52198C447.249 3.49986 447.562 3.51417 447.832 3.58393C448.025 3.63293 448.224 3.65521 448.458 3.64497C448.926 3.62258 449.402 3.60781 449.863 3.5759C450.26 3.548 450.559 3.58525 450.808 3.64935C451.122 3.73041 451.469 3.67405 451.795 3.68451C452.236 3.69653 452.458 3.8656 453.033 3.8181C453.373 3.79037 453.728 3.77977 454.083 3.77107C454.175 3.76889 454.289 3.80097 454.367 3.82362C454.745 3.92738 455.185 3.92033 455.668 3.88836C456.001 3.86638 456.327 3.84633 456.655 3.91782C457.196 4.03825 457.794 4.14326 458.364 4.25408C458.443 4.34157 458.388 4.44471 458.793 4.49498C459.007 4.52104 459.206 4.56051 459.37 4.60388C459.57 4.65477 459.754 4.66757 460.01 4.65345C460.471 4.62536 460.954 4.61817 461.407 4.58247C461.826 4.55069 462.089 4.61286 462.346 4.67121C462.552 4.71827 462.745 4.74057 462.992 4.70549C463.248 4.6723 463.432 4.69271 463.639 4.74358C463.931 4.81327 463.952 4.80559 464.918 4.82366C465.018 4.82527 465.139 4.8535 465.196 4.87812C465.224 4.89138 465.161 4.92974 465.112 4.94896C465.048 4.97204 464.949 4.99903 464.857 5.00502C463.807 5.05778 462.75 5.10483 461.7 5.15758C461.594 5.16362 461.48 5.17732 461.403 5.19663C461.318 5.21787 461.212 5.24678 461.212 5.27348C461.212 5.29255 461.355 5.31501 461.454 5.32806C461.767 5.37099 462.135 5.30313 462.441 5.35179C462.648 5.3836 462.819 5.42884 463.025 5.45874C463.111 5.47183 463.246 5.46953 463.352 5.46539C463.707 5.45097 464.054 5.43086 464.409 5.41834C464.508 5.41614 464.622 5.43488 464.715 5.44985C465.398 5.56223 465.398 5.56222 465.987 5.53566C466.221 5.52542 466.469 5.49606 466.689 5.50684C466.902 5.51764 467.088 5.56857 467.28 5.60042C467.679 5.66788 468.056 5.73349 468.086 5.88217C468.101 5.93934 468.336 5.98821 468.571 5.99132C468.798 5.99445 469.039 5.97276 469.273 5.96061C469.827 5.93606 469.827 5.93606 470.545 6.05023C470.745 6.08206 470.958 6.08522 471.213 6.06538C471.312 6.05745 471.433 6.06473 471.54 6.07394C471.888 6.1015 471.888 6.13773 471.662 6.20707C471.344 6.30911 471.373 6.31857 472.269 6.40169C472.61 6.43309 472.874 6.49333 473.158 6.54588C473.621 6.63031 473.614 6.63031 473.311 6.74375C473.24 6.76876 473.176 6.79566 473.106 6.82257C472.901 6.89757 472.739 6.97816 472.313 6.98707C471.845 6.99611 471.377 7.02805 470.908 7.05044C470.454 7.07279 470.334 7.1189 470.379 7.24846C470.431 7.4047 470.524 7.42159 471.34 7.41722C471.574 7.41652 471.78 7.43115 471.959 7.48211C471.874 7.54339 471.719 7.59154 471.492 7.60367C470.91 7.63403 470.322 7.6606 469.74 7.68715C469.272 7.70954 468.803 7.73192 468.335 7.75431C468.044 7.76854 467.861 7.86828 467.941 7.97865C467.984 8.04146 468.021 8.10429 468.057 8.16712C468.137 8.29276 468.287 8.32474 468.762 8.31758C468.883 8.31531 468.996 8.2997 469.11 8.30317C469.572 8.31513 469.794 8.47276 470.347 8.43867C470.808 8.41058 471.291 8.40341 471.745 8.36771C472.163 8.33593 472.399 8.4039 472.691 8.45452C472.79 8.47139 472.897 8.50728 472.982 8.50512C473.571 8.48236 474.16 8.45963 474.735 8.42166C475.004 8.40559 475.168 8.41654 475.381 8.46167C475.894 8.57074 475.908 8.56497 476.667 8.52836C477.221 8.49999 477.228 8.50378 477.94 8.61798C478.139 8.6498 478.352 8.64915 478.607 8.63313C478.94 8.61305 479.288 8.58149 479.636 8.60905C479.743 8.61636 479.878 8.63884 479.914 8.66353C479.935 8.68063 479.837 8.72289 479.752 8.73649C479.129 8.83755 478.397 8.82259 477.716 8.86469C477.503 8.87678 477.29 8.84118 477.111 8.79022C476.926 8.73928 476.727 8.71891 476.486 8.72917C476.018 8.75156 475.542 8.76634 475.081 8.79824C474.684 8.82614 474.407 8.78311 474.129 8.72482C474.036 8.70603 473.929 8.67011 473.837 8.67229C472.787 8.7136 471.73 8.75494 470.687 8.81148C470.269 8.83563 470.026 8.77533 469.741 8.72469C469.642 8.70783 469.542 8.67189 469.45 8.67407C469.095 8.68277 468.747 8.70479 468.393 8.72112C467.101 8.78223 465.817 8.84331 464.526 8.90061C464.441 8.90468 464.334 8.86494 464.234 8.84808C464.042 8.81433 463.843 8.7825 463.643 8.75068C463.289 8.767 462.941 8.78712 462.586 8.79963C462.331 8.80803 462.104 8.83543 462.07 8.908C462.049 8.95575 462.284 8.9989 462.533 8.99434C462.774 8.98979 463.015 8.96618 463.214 8.99037C464.203 9.10946 464.203 9.11137 464.82 9.08472C465.359 9.06021 465.302 9.0413 465.779 9.14476C465.986 9.18991 466.171 9.21607 466.405 9.20392C466.987 9.17546 467.575 9.14698 468.164 9.12232C468.257 9.11823 468.377 9.13695 468.47 9.15192C469.167 9.26426 469.168 9.26807 469.742 9.23773C470.494 9.20113 470.522 9.19151 471.028 9.30633C471.377 9.38538 471.696 9.32911 472.029 9.32429C472.414 9.39751 472.834 9.46301 473.183 9.54588C473.596 9.64381 474.029 9.62532 474.497 9.59531C474.845 9.57328 475.185 9.56463 475.47 9.64196C475.741 9.71362 476.068 9.72028 476.437 9.7001C476.77 9.68193 477.11 9.64465 477.459 9.68556C477.551 9.69673 477.694 9.72492 477.687 9.7421C477.68 9.76883 477.588 9.80725 477.496 9.81897C476.844 9.89913 476.127 9.89938 475.439 9.93769C475.347 9.94369 475.226 9.92307 475.134 9.90809C474.934 9.87436 474.742 9.83489 474.55 9.79923C474.202 9.81173 473.847 9.8166 473.507 9.84051C473.244 9.85847 473.046 9.85718 472.853 9.81198C472.675 9.77056 472.483 9.71963 472.27 9.70692C472.056 9.69421 471.808 9.72357 471.574 9.73572C471.34 9.74787 471.07 9.74295 470.886 9.77402C470.702 9.80509 470.59 9.87219 470.47 9.92595C470.336 9.98548 470.151 10.0051 469.882 10.0117C469.633 10.0181 469.434 10.0111 469.249 9.95824C469.171 9.93559 469.064 9.91874 468.957 9.90381C468.858 9.89076 468.744 9.87011 468.651 9.8742C467.594 9.92126 466.544 9.97212 465.487 10.0211C464.962 10.0455 464.969 10.0455 463.875 9.93627C463.775 9.92704 463.654 9.91406 463.555 9.91817C462.966 9.94283 462.384 9.97129 461.795 9.99976C461.2 10.0283 461.207 10.0244 460.19 9.90733C460.005 9.885 459.735 9.91633 459.515 9.91318C459.054 9.90503 458.824 9.74552 458.285 9.77766C457.824 9.80575 457.341 9.81292 456.88 9.84864C456.462 9.88042 456.22 9.8144 455.935 9.76376C455.835 9.7469 455.728 9.70907 455.643 9.71314C454.586 9.75829 453.536 9.80913 452.13 9.81909C451.783 9.82013 451.939 9.85972 452.167 9.87238C452.494 9.89238 452.6 9.85201 452.421 9.77626C452.292 9.72324 452.107 9.69708 451.958 9.71088C451.88 9.71874 451.782 9.75529 452.13 9.81909C452.501 9.89045 452.48 9.93055 452.544 9.95324C452.701 10.0081 452.922 10.0303 453.149 10.022C453.504 10.0076 453.851 9.98746 454.206 9.97494C454.305 9.97083 454.426 9.98382 454.519 9.9988C455.301 10.1147 455.308 10.1223 456.138 10.074C456.401 10.0599 456.592 10.0593 456.799 10.0949C457.084 10.1437 457.291 10.2269 457.723 10.1989C458.298 10.161 458.887 10.1382 459.476 10.1155C459.568 10.1114 459.668 10.1454 459.774 10.1603C460.066 10.2052 460.281 10.2904 460.713 10.2529C461.046 10.2233 461.408 10.2145 461.763 10.2077C461.855 10.2056 461.998 10.2357 462.041 10.2603C462.126 10.3039 462.021 10.3557 461.78 10.3927C461.681 10.4083 461.546 10.4049 461.433 10.4109C460.964 10.4333 460.496 10.4576 460.028 10.4762C459.78 10.4865 459.546 10.5158 459.518 10.5864C459.498 10.6342 459.754 10.6754 459.995 10.6708C460.35 10.664 460.705 10.6477 461.045 10.6219C461.648 10.5781 462.174 10.588 462.665 10.7066C463.014 10.7895 462.993 10.7591 463.365 11.0059C463.459 11.0685 463.736 11.0734 463.977 11.0689C464.559 11.0576 464.829 11.0854 464.78 11.1447C464.718 11.2173 464.512 11.2408 464.25 11.2511C463.781 11.2678 463.313 11.294 462.845 11.3164C462.731 11.3225 462.604 11.3343 462.497 11.3308C462.391 11.3273 462.291 11.3047 462.198 11.2878C461.999 11.2522 461.828 11.1974 461.615 11.1847C461.402 11.172 461.154 11.2013 460.919 11.2135C460.685 11.2237 460.437 11.2531 460.224 11.2404C460.011 11.2277 459.833 11.171 459.64 11.1373C459.548 11.1204 459.434 11.094 459.342 11.0962C458.873 11.1128 458.405 11.1391 457.937 11.1595C457.362 11.1861 457.362 11.1861 456.665 11.0699C456.465 11.0362 456.26 11.0387 455.997 11.0548C455.43 11.087 455.423 11.0813 454.384 10.9738C454.285 10.9627 454.164 10.9497 454.065 10.9557C453.007 11.0027 451.958 11.0536 450.908 11.1025C450.007 11.1453 450.007 11.1453 449.513 11.3375C449.146 11.4798 449.138 11.4798 449.502 11.5435C449.793 11.596 450.057 11.6734 450.377 11.7011C450.676 11.7269 451.044 11.64 451.372 11.7267C451.536 11.7701 451.749 11.8171 451.955 11.8241C452.282 11.8327 452.629 11.7763 452.942 11.8593C453.099 11.9008 453.334 11.9439 453.533 11.9453C453.881 11.948 454.236 11.9164 454.583 11.902C454.69 11.8979 454.81 11.8975 454.91 11.9068C455.016 11.9179 455.109 11.9405 455.202 11.9593C455.487 12.0233 455.792 12.0529 456.161 12.0193C456.764 11.9641 457.304 11.9892 457.774 12.1098C457.838 12.1268 457.994 12.1283 458.094 12.1203C458.349 12.1005 458.569 12.0979 458.761 12.1336C458.839 12.1486 458.953 12.1749 458.939 12.1921C458.919 12.2208 458.834 12.2592 458.742 12.269C458.075 12.3359 457.359 12.3457 456.671 12.3821C456.578 12.3862 456.464 12.3617 456.372 12.3448C456.173 12.3111 456.001 12.2544 455.788 12.2417C455.575 12.229 455.327 12.2545 455.093 12.2648C454.859 12.275 454.611 12.3044 454.397 12.2936C454.184 12.2809 453.985 12.2338 453.814 12.1923C453.614 12.1453 453.422 12.1401 453.16 12.16C452.82 12.1858 452.465 12.1907 452.117 12.2051C451.925 12.1694 451.733 12.1299 451.533 12.0962C451.441 12.0793 451.327 12.0587 451.228 12.0609C450.759 12.0776 450.291 12.1019 449.823 12.1242C449.355 12.1466 449.355 12.1467 448.558 12.0308C448.465 12.0177 448.344 12.0028 448.245 12.007C447.656 12.0316 447.074 12.062 446.485 12.0866C446.258 12.0968 446.052 12.0708 445.867 12.0198C445.689 11.9689 445.475 11.9409 445.255 11.9511C444.319 11.994 443.382 12.0349 442.446 12.0854C442.07 12.1056 441.75 12.0894 441.494 12.0216C441.194 11.9443 440.861 11.9643 440.513 11.9807C439.726 12.0212 439.719 12.0193 439.213 11.9235C439.114 11.9048 439.014 11.8688 438.921 11.871C438.105 11.9021 437.282 11.9312 436.474 11.9795C436.048 12.0055 435.82 11.9395 435.535 11.8907C435.436 11.8739 435.329 11.838 435.244 11.842C434.655 11.8648 434.066 11.8856 433.491 11.9255C432.917 11.9654 432.694 11.7887 432.261 11.7919C431.672 11.7956 431.09 11.8412 430.509 11.8697C430.04 11.892 429.572 11.9144 429.104 11.9368C428.636 11.9592 428.168 11.9778 427.699 12.004C427.451 12.0181 427.266 12.0015 427.06 11.9544C426.796 11.8923 426.483 11.8436 426.198 11.7873C425.764 11.7066 425.764 11.7066 425.239 11.731C425.125 11.7371 425.005 11.7413 424.891 11.7473C424.033 11.7919 424.033 11.7881 422.938 11.6712C422.888 11.6656 422.76 11.687 422.711 11.7024C422.563 11.7525 422.429 11.8062 422.295 11.8581C422.102 11.8282 421.868 11.8118 421.739 11.7683C421.376 11.6454 420.81 11.8168 420.439 11.6959C420.304 11.6505 420.069 11.6112 419.855 11.6004C419.635 11.5896 419.387 11.6171 419.16 11.6292C418.571 11.6596 418.571 11.6577 418.07 11.8289C417.816 11.9136 417.446 11.8994 417.113 11.9195C416.765 11.9416 416.432 11.954 416.14 11.8767C415.876 11.8069 415.556 11.7907 415.18 11.8147C414.719 11.8447 414.244 11.8633 413.776 11.8819C413.676 11.886 413.555 11.8768 413.456 11.8657C412.368 11.7565 412.368 11.7546 411.843 11.7809C411.609 11.7931 411.368 11.7976 411.141 11.8154C410.758 11.8471 410.466 11.8079 410.189 11.7478C410.096 11.729 409.989 11.6931 409.897 11.6952C409.428 11.7062 408.967 11.7247 408.506 11.7433C408.151 11.7577 407.796 11.7664 407.456 11.7941C406.889 11.8397 406.61 11.7166 406.219 11.6605C405.637 11.6871 405.048 11.706 404.466 11.7421C404.197 11.7582 404.019 11.753 403.813 11.7078C403.549 11.6514 403.307 11.5873 402.881 11.6172C402.314 11.6571 401.718 11.6722 401.136 11.6968C400.745 11.6389 400.459 11.5196 399.899 11.5651C399.558 11.5929 399.196 11.5997 398.849 11.616C398.381 11.6384 397.912 11.6589 397.444 11.6832C396.941 11.7076 396.948 11.7018 396.172 11.5916C395.724 11.5262 395.263 11.602 394.809 11.6148C394.454 11.6254 394.278 11.7137 394.365 11.8259C394.452 11.9382 394.262 12.0265 393.935 12.0428C393.12 12.0814 392.297 12.1221 391.481 12.1569C391.381 12.1611 391.261 12.1481 391.168 12.135C390.293 12.0175 390.293 12.0194 389.903 12.0377C389.321 12.0681 388.725 12.0851 388.151 12.1231C387.754 12.1491 387.462 12.1099 387.205 12.0459C387.006 11.9969 386.821 11.986 386.566 11.9982C383.756 12.1344 380.947 12.2612 378.145 12.4012C377.726 12.4215 377.484 12.367 377.199 12.3163C377.1 12.2995 377.007 12.2635 376.907 12.2638C376.673 12.2645 376.439 12.2824 376.205 12.2945C375.155 12.3435 374.105 12.4019 373.048 12.4394C372.601 12.456 372.482 12.5441 372.291 12.6172C372.143 12.6729 371.973 12.6963 371.71 12.7048C371.455 12.7132 371.27 12.7042 371.071 12.6552C370.814 12.5911 370.523 12.5519 370.125 12.5798C369.664 12.6117 369.196 12.6265 368.721 12.6489C368.479 12.6592 368.295 12.6941 368.218 12.763C368.204 12.7744 368.354 12.8026 368.439 12.8195C368.724 12.8759 368.995 12.9418 369.315 12.9809C369.642 13.02 369.996 12.9731 370.337 12.9606C370.458 12.9565 370.571 12.9447 370.685 12.9462C370.791 12.9478 370.919 12.957 370.997 12.9739C371.368 13.0586 371.759 13.1166 372.27 13.0635C372.71 13.087 372.94 13.2446 373.5 13.201C373.84 13.1751 374.195 13.1626 374.55 13.152C374.642 13.1498 374.742 13.1839 374.842 13.2007C375.126 13.2476 375.355 13.3232 375.78 13.2895C376.234 13.2538 376.717 13.2466 377.178 13.2185C377.433 13.2025 377.618 13.2153 377.817 13.2643C378.074 13.3264 378.366 13.3732 378.763 13.3415C379.103 13.3138 379.465 13.307 379.813 13.2887C380.267 13.2664 380.267 13.2683 381.078 13.3841C381.17 13.3972 381.291 13.4121 381.39 13.408C381.979 13.3833 382.561 13.3529 383.15 13.3283C383.377 13.3181 383.597 13.3422 383.754 13.397C383.819 13.4197 383.798 13.4579 383.82 13.4903C382.649 13.5453 381.478 13.5927 380.315 13.6592C379.875 13.6853 379.675 13.6077 379.384 13.5647C379.284 13.5497 379.177 13.5176 379.085 13.5217C378.262 13.5566 377.446 13.5934 376.63 13.6378C376.375 13.6519 376.183 13.6449 375.991 13.5902C375.499 13.4448 374.903 13.5267 374.35 13.5493C373.924 13.5659 373.79 13.6254 373.842 13.7511C373.908 13.8997 374.164 13.9447 374.817 13.916C375.051 13.9058 375.285 13.8917 375.519 13.8834C375.746 13.8751 375.953 13.8992 376.138 13.9502C376.316 14.0011 376.53 14.0272 376.75 14.0189C377.218 14.0003 377.693 13.9817 378.147 13.9518C378.523 13.9278 378.836 13.9459 379.099 14.0157C379.392 14.093 379.732 14.0748 380.073 14.0566C380.867 14.016 380.874 14.0179 381.373 14.1118C381.472 14.1306 381.572 14.1665 381.665 14.1643C382.481 14.1333 383.304 14.106 384.105 14.0578C384.524 14.0337 384.766 14.0939 385.044 14.1427C385.143 14.1596 385.243 14.1974 385.335 14.1933C385.924 14.1706 386.513 14.1478 387.088 14.1098C387.357 14.0919 387.521 14.1028 387.741 14.1479C388.268 14.2589 388.283 14.255 389.027 14.2165C389.254 14.2044 389.503 14.1827 389.716 14.1973C389.929 14.2119 390.1 14.2667 390.3 14.3004C390.392 14.3154 390.506 14.336 390.605 14.3319C391.074 14.3152 391.542 14.291 392.01 14.2686C392.45 14.2463 392.45 14.2482 393.275 14.3639C393.61 14.4125 393.957 14.3695 394.29 14.3532C394.652 14.335 394.979 14.334 395.257 14.4076C395.535 14.4811 395.868 14.4763 396.223 14.4599C396.556 14.4437 396.896 14.4007 397.238 14.4512C398.021 14.5671 398.021 14.569 398.503 14.5446C399.205 14.5101 399.901 14.4775 400.61 14.4467C400.702 14.4426 400.823 14.4652 400.916 14.4802C401.115 14.5139 401.286 14.5706 401.5 14.5833C401.713 14.5979 401.961 14.5743 402.188 14.5621C402.918 14.5237 402.968 14.5102 403.46 14.6346C403.873 14.7363 404.382 14.586 404.767 14.7031C404.988 14.7692 405.287 14.8217 405.698 14.7881C406.039 14.7603 406.394 14.7516 406.748 14.7353C407.309 14.7088 407.309 14.7108 408.02 14.823C408.113 14.838 408.234 14.8567 408.326 14.8526C408.794 14.836 409.27 14.8212 409.724 14.7855C410.256 14.7438 410.597 14.8153 410.996 14.8846C411.309 14.939 411.678 14.8921 412.011 14.872C412.373 14.8519 412.699 14.8566 412.97 14.9302C413.255 15.0056 413.589 14.9951 413.944 14.9787C414.277 14.9644 414.617 14.9195 414.959 14.9719C415.692 15.0879 415.692 15.0879 416.224 15.0634C416.692 15.041 417.16 15.0167 417.629 15.0001C417.721 14.996 417.835 15.0204 417.927 15.0373C418.127 15.071 418.298 15.1277 418.511 15.1405C418.724 15.1532 418.972 15.1276 419.206 15.1174C419.44 15.1071 419.688 15.0778 419.902 15.0886C420.115 15.0994 420.314 15.1465 420.485 15.1879C420.685 15.2369 420.869 15.2421 421.139 15.2222C421.479 15.1964 421.834 15.1896 422.182 15.1752C422.374 15.2108 422.573 15.2465 422.759 15.286C422.951 15.3273 423.157 15.3229 423.419 15.3088C424.292 15.2604 424.299 15.2661 425.032 15.3821C425.366 15.4345 425.714 15.3896 426.047 15.3752C426.402 15.3589 426.735 15.3503 427.013 15.4257C427.284 15.4974 427.618 15.5059 427.973 15.4819C428.2 15.466 428.441 15.4558 428.675 15.4493C428.781 15.4471 428.909 15.4543 428.988 15.4694C429.365 15.5483 429.735 15.6197 430.253 15.5666C430.707 15.5805 430.937 15.7362 431.483 15.7041C431.944 15.676 432.427 15.6688 432.88 15.6331C433.299 15.6013 433.598 15.6538 433.812 15.7199C434.197 15.837 434.734 15.6752 435.119 15.7904C435.34 15.8565 435.625 15.909 436.051 15.8791C436.519 15.8472 436.668 15.8868 436.805 16.0065C436.884 16.075 436.871 16.1303 436.73 16.1841C436.589 16.2399 436.432 16.2308 436.204 16.1686C435.94 16.0988 435.628 16.0864 435.252 16.1028C434.883 16.1191 434.654 16.0207 434.348 15.9834C434.042 15.9443 433.682 16.0121 433.361 15.9616C432.607 15.8437 432.607 15.8437 432.096 15.8682C431.749 15.8845 431.387 15.8932 431.046 15.9209C430.642 15.9545 430.378 15.8962 430.101 15.8436C430.001 15.8249 429.901 15.7889 429.816 15.7911C429 15.8222 428.177 15.8513 427.368 15.9015C426.943 15.9275 426.715 15.8596 426.43 15.8127C426.33 15.7959 426.223 15.7619 426.138 15.7659C425.436 15.7948 424.741 15.8312 424.038 15.8657C423.904 15.9176 423.756 15.9676 423.629 16.0233C423.495 16.081 423.311 16.1063 423.041 16.1052C422.594 16.1066 422.155 16.188 421.706 16.0883C421.243 15.9867 421.208 15.9925 420.761 16.0186C420.193 16.0528 419.59 16.047 419.058 16.1229C418.966 16.1366 418.867 16.1731 418.868 16.1998C418.861 16.217 419.011 16.2413 419.103 16.2563C419.416 16.3011 419.777 16.2333 420.09 16.28C420.297 16.3099 420.468 16.3552 420.674 16.387C420.759 16.4001 420.887 16.3978 421.001 16.3955C421.121 16.3933 421.235 16.3796 421.348 16.3812C421.455 16.3827 421.569 16.3938 421.654 16.4107C422.046 16.482 422.458 16.5476 422.808 16.6323C423.15 16.7152 423.468 16.657 423.809 16.6522C425.174 16.7816 425.174 16.7835 426.089 16.7388C426.316 16.7286 426.55 16.7164 426.785 16.7176C426.884 16.7173 426.977 16.7514 427.076 16.7701C427.361 16.8265 427.632 16.8772 428.029 16.8455C428.369 16.8177 428.731 16.8109 429.079 16.7927C429.547 16.7703 429.547 16.7703 430.344 16.8881C430.543 16.918 430.756 16.9135 431.011 16.8975C431.231 16.8835 431.459 16.9114 431.616 16.9663C431.68 16.989 431.659 17.0272 431.681 17.0595C430.979 17.0922 430.269 17.1153 429.588 17.1631C429.149 17.193 428.949 17.1116 428.657 17.0686C428.557 17.0537 428.45 17.0216 428.358 17.0257C427.663 17.0564 426.968 17.0909 426.273 17.1311C426.188 17.1352 426.082 17.1794 426.075 17.2061C426.062 17.2557 426.24 17.3029 426.495 17.3002C426.836 17.2972 427.169 17.2638 427.476 17.3411C427.732 17.409 428.052 17.4386 428.428 17.4069C428.655 17.3891 428.896 17.3883 429.123 17.3724C429.726 17.3248 430.273 17.3327 430.729 17.461C431.077 17.4943 431.418 17.4608 431.751 17.4427C431.999 17.4286 432.24 17.4145 432.418 17.4502C432.796 17.5253 433.166 17.6005 433.684 17.5475C434.245 17.5992 434.673 17.7104 435.143 17.8005C435.364 17.8437 435.534 17.868 435.789 17.8387C435.896 17.8269 436.024 17.8265 436.137 17.8204C436.371 17.8102 436.619 17.7808 436.832 17.7916C437.045 17.8043 437.224 17.8591 437.416 17.8929C437.509 17.9098 437.615 17.938 437.708 17.9358C438.063 17.9252 438.41 17.9051 438.758 17.8888C439.105 17.8744 439.453 17.86 439.801 17.8456C440.092 17.8943 440.391 17.943 440.683 17.9917C441.151 17.9694 441.62 17.947 442.081 17.9265C442.599 17.902 442.599 17.904 443.346 18.02C443.68 18.0724 444.035 18.0369 444.354 18.0112C444.886 17.9695 445.242 18.041 445.619 18.1161C445.698 18.1311 445.84 18.1402 445.932 18.1323C446.301 18.1045 446.62 18.1245 446.891 18.1943C447.083 18.2433 447.276 18.2656 447.51 18.2554C448.326 18.2167 449.141 18.1761 449.957 18.1412C450.057 18.1371 450.17 18.1539 450.263 18.1689C450.989 18.283 450.996 18.2887 451.528 18.2566C452.003 18.2285 452.443 18.2157 452.821 18.3195C452.899 18.3421 453.021 18.3742 453.106 18.372C453.688 18.3512 454.277 18.3284 454.851 18.2943C455.114 18.2782 455.298 18.2834 455.505 18.3266C455.768 18.3812 456.004 18.4472 456.436 18.4211C457.635 18.3469 457.642 18.3583 459.064 18.4856C459.163 18.4949 459.298 18.4792 459.412 18.4713C459.653 18.4515 459.83 18.4776 460.044 18.5209C460.521 18.6186 460.535 18.6128 460.989 18.5905C461.337 18.5723 461.699 18.5674 462.039 18.5377C462.564 18.4942 462.913 18.5675 463.305 18.6369C463.618 18.6913 463.979 18.6444 464.312 18.6262C464.674 18.6061 465.001 18.6108 465.272 18.6825C465.457 18.7315 465.656 18.7576 465.89 18.7474C466.706 18.7106 467.522 18.67 468.338 18.6332C468.437 18.6291 468.558 18.644 468.651 18.657C469.462 18.7728 469.462 18.7786 470.263 18.7323C470.519 18.7182 470.732 18.7137 470.924 18.7532C471.109 18.7908 471.308 18.8264 471.501 18.8621C471.848 18.8477 472.203 18.8428 472.544 18.8189C472.806 18.8009 472.991 18.808 473.197 18.8474C473.468 18.8981 473.696 18.987 474.121 18.9419C474.341 18.9203 474.597 18.9252 474.817 18.9055C475.079 18.8799 475.257 18.8946 475.463 18.9436C475.72 19.0019 475.983 19.0622 476.395 19.0304C476.848 18.9947 477.331 18.9875 477.792 18.9594C478.047 18.9434 478.225 18.9581 478.432 19.0071C478.688 19.0693 478.98 19.1085 479.377 19.0825C480.186 19.0323 480.193 19.0419 480.983 19.1596C481.182 19.1895 481.395 19.1851 481.65 19.1691C481.87 19.1551 482.098 19.183 482.255 19.2378C482.405 19.2984 482.391 19.3366 482.406 19.369ZM418.884 2.35895C418.65 2.36919 418.416 2.38133 418.072 2.21644C418.05 2.1879 418.064 2.15353 418.014 2.12889C417.9 2.07774 417.722 2.04204 417.509 2.03696C417.125 2.03048 416.665 2.09671 416.673 2.14627C416.68 2.18821 416.802 2.22407 417.036 2.25769C417.136 2.27075 417.214 2.2934 417.307 2.30838C417.577 2.35143 417.792 2.43662 418.181 2.39158C418.145 2.33257 418.109 2.27355 418.181 2.39158C418.147 2.46416 418.254 2.51534 418.51 2.53555C418.581 2.54105 418.688 2.53691 418.744 2.52529C418.964 2.48267 418.998 2.42537 418.833 2.27519C418.805 2.30007 418.827 2.34386 418.891 2.35511C418.955 2.36636 419.111 2.35636 419.189 2.34278C419.387 2.30594 419.486 2.25796 419.435 2.21806C419.407 2.19717 419.271 2.17087 419.186 2.17113C419.037 2.17158 418.903 2.21394 418.884 2.35895ZM476.624 24.3032C476.106 24.341 475.51 24.3295 474.993 24.4054C474.901 24.419 474.809 24.4536 474.802 24.4804C474.796 24.4976 474.938 24.5219 475.023 24.535C475.216 24.565 475.428 24.5548 475.677 24.5445C476.053 24.53 476.274 24.6171 476.566 24.6601C476.658 24.6731 476.779 24.6823 476.878 24.6782C477.453 24.6536 478.021 24.6271 478.595 24.5986C478.695 24.5926 478.801 24.5789 478.886 24.5615C479.169 24.5054 479.14 24.4692 478.862 24.4281C478.557 24.3832 478.314 24.3077 478.001 24.2724C477.553 24.2222 477.1 24.2923 476.624 24.3032ZM436.33 25.8169C435.983 25.8332 435.642 25.8495 435.294 25.8658C435.181 25.8718 435.06 25.8741 434.954 25.8821C434.734 25.8961 434.571 25.9366 434.466 25.9999C434.63 26.049 434.829 26.077 435.049 26.0706C435.397 26.0581 435.737 26.0323 436.085 26.0255C436.461 26.0168 436.682 26.1019 436.974 26.1449C437.067 26.158 437.18 26.1595 437.287 26.1611C437.812 26.1672 438.13 26.067 438.029 25.9281C437.956 25.8196 437.685 25.7556 437.359 25.7699C437.018 25.7843 436.671 25.8006 436.33 25.8169ZM479.009 21.4771C479.094 21.4445 479.186 21.4213 479.228 21.3926C479.354 21.2949 479.303 21.2226 479.068 21.147C478.782 21.0544 478.436 21.1184 478.116 21.1289C478.038 21.131 477.954 21.1714 477.911 21.1963C477.883 21.2135 477.884 21.2498 477.927 21.2592C478.276 21.3344 478.646 21.4039 479.009 21.4771ZM417.339 16.0289C416.999 16.0452 416.651 16.0577 416.31 16.0797C416.225 16.0857 416.148 16.1222 416.098 16.1471C416.007 16.1932 416.107 16.2558 416.398 16.2606C416.732 16.2673 417.079 16.2338 417.427 16.2175C417.867 16.1971 418.128 16.1257 417.964 16.0652C417.807 16.0065 417.594 15.9958 417.339 16.0289ZM43.5909 13.079C43.818 13.0688 44.0521 13.0604 44.2791 13.0464C44.4918 13.0324 44.6546 12.99 44.7601 12.9267C44.5819 12.8776 44.3826 12.8515 44.1627 12.8579C43.815 12.8704 43.4745 12.8867 43.134 12.9068C42.9212 12.9189 42.7161 12.9615 42.6674 13.0265C42.6184 13.0762 43.0944 13.1034 43.5909 13.079ZM387.25 11.7501C387.343 11.767 387.436 11.801 387.528 11.8008C387.755 11.8001 387.989 11.7879 388.202 11.7682C388.294 11.7603 388.365 11.7258 388.407 11.6989C388.435 11.6817 388.428 11.6512 388.385 11.6361C388.177 11.5451 387.354 11.58 387.221 11.6853C387.207 11.7045 387.243 11.7291 387.25 11.7501ZM364.694 1.37402C364.715 1.40447 364.723 1.43496 364.752 1.46539C364.809 1.52243 364.966 1.56393 365.194 1.59185C365.371 1.54364 365.462 1.48997 365.454 1.43277C365.447 1.40228 365.425 1.37181 365.396 1.34138C365.338 1.28434 365.182 1.24287 364.954 1.21494C364.777 1.26125 364.693 1.3149 364.694 1.37402ZM495.484 25.9706C495.421 25.9955 495.357 26.0205 495.287 26.0436C495.479 26.0984 495.657 26.115 495.791 26.0841C495.876 26.0647 495.926 26.036 495.989 26.011C495.797 25.9563 495.626 25.9415 495.484 25.9706ZM491.073 26.2432C491.165 26.2601 491.251 26.2828 491.35 26.2939C491.514 26.3125 491.662 26.2796 491.775 26.2106C491.682 26.1937 491.597 26.1711 491.497 26.1599C491.334 26.1414 491.185 26.1742 491.073 26.2432ZM493.864 25.8858C493.815 25.9317 493.915 25.9696 494.179 26.0012C494.242 25.9762 494.327 25.9531 494.369 25.9262C494.439 25.8822 494.318 25.8425 494.062 25.8127C493.991 25.8358 493.928 25.8608 493.864 25.8858ZM478.847 23.875C478.798 23.921 478.898 23.9588 479.161 23.9904C479.225 23.9654 479.309 23.9423 479.352 23.9155C479.422 23.8714 479.301 23.8317 479.045 23.802C478.974 23.8251 478.91 23.8501 478.847 23.875ZM458.224 10.4416C458.161 10.4665 458.097 10.4915 458.026 10.5146C458.219 10.5694 458.397 10.586 458.531 10.5551C458.616 10.5357 458.665 10.507 458.729 10.482C458.536 10.4273 458.366 10.4125 458.224 10.4416ZM438.557 3.34103C438.727 3.35387 438.869 3.32675 438.989 3.25582C438.896 3.23894 438.811 3.2163 438.711 3.20516C438.547 3.18658 438.399 3.21946 438.286 3.28846C438.379 3.30725 438.471 3.32412 438.557 3.34103ZM428.164 2.92414C428.101 2.94912 428.037 2.97411 427.967 2.99721C428.159 3.05194 428.337 3.06856 428.471 3.03764C428.556 3.01832 428.605 2.98956 428.669 2.96457C428.476 2.90984 428.306 2.89701 428.164 2.92414ZM357.708 1.39315C357.645 1.41814 357.581 1.44312 357.51 1.46622C357.703 1.52095 357.881 1.53758 358.015 1.50666C358.1 1.48733 358.149 1.45857 358.213 1.43358C358.02 1.37885 357.85 1.36602 357.708 1.39315ZM7.26005 17.966C7.1675 17.9492 7.07504 17.9323 6.98956 17.9135C6.78447 17.9656 6.72133 18.0134 6.83547 18.0493C6.90681 18.072 7.01341 18.085 7.10596 18.1019C7.31815 18.0498 7.36712 18.0039 7.26005 17.966Z" fill="#FFE492"/>
</svg>
