<svg width="230" height="30" viewBox="0 0 230 30" fill="none" xmlns="http://www.w3.org/2000/svg">
<path d="M215.573 12.3119C215.26 12.3408 214.944 12.363 214.637 12.4026C214.438 12.4276 214.351 12.3697 214.217 12.3414C214.172 12.3315 214.124 12.3109 214.083 12.3145C213.773 12.3433 213.463 12.3749 213.153 12.4064C213.059 12.4616 213 12.5337 212.855 12.5629C212.713 12.5906 212.545 12.5944 212.387 12.6103C212.178 12.63 211.969 12.6497 211.76 12.668C211.656 12.6772 211.571 12.705 211.537 12.7548C211.531 12.7631 211.601 12.7819 211.64 12.7933C211.767 12.8312 211.892 12.8746 212.032 12.9027C212.166 12.9296 212.33 12.8769 212.473 12.9117C212.795 12.9901 212.798 12.9887 213.042 12.9668C213.251 12.9471 213.46 12.9261 213.669 12.9104C213.71 12.9068 213.758 12.9261 213.803 12.936C213.936 12.9629 214.024 13.0289 214.219 12.9986C214.368 12.9748 214.533 12.967 214.688 12.9526C214.819 12.9891 214.94 13.0312 215.08 13.0593C215.211 13.0863 215.249 13.1085 215.181 13.1496C215.118 13.1877 215.03 13.2047 214.912 13.2101C214.808 13.2138 214.704 13.2284 214.599 13.2376C214.545 13.2429 214.495 13.2468 214.444 13.252C214.245 13.2715 214.245 13.2715 213.878 13.1928C213.735 13.162 213.574 13.2133 213.437 13.1838C213.345 13.1641 213.265 13.1333 213.176 13.1122C213.137 13.1035 213.077 13.1035 213.03 13.1073C212.871 13.1204 212.713 13.1308 212.561 13.152C212.454 13.1667 212.391 13.2062 212.405 13.244C212.408 13.2589 212.485 13.2789 212.529 13.2792C212.631 13.2797 212.738 13.2582 212.837 13.2655C212.932 13.2728 213.031 13.2978 213.101 13.3261C213.245 13.3854 213.406 13.326 213.542 13.3392C213.685 13.3537 213.804 13.4054 213.941 13.4349C213.976 13.4423 214.042 13.4272 214.096 13.4219C214.251 13.4088 214.406 13.3971 214.561 13.3841C214.692 13.4206 214.832 13.4528 214.951 13.495C215.165 13.5718 215.394 13.5979 215.669 13.5521C215.824 13.5269 215.976 13.5316 216.101 13.5818C216.229 13.6333 216.375 13.6246 216.536 13.61C216.685 13.5957 216.836 13.5624 216.989 13.597C217.321 13.6738 217.324 13.6778 217.713 13.6363C217.83 13.6241 217.919 13.6194 218.008 13.6487C218.091 13.6754 218.181 13.6978 218.267 13.7231C218.422 13.71 218.58 13.6969 218.735 13.6825C218.935 13.663 219.046 13.6795 219.095 13.7546C219.125 13.8002 219.139 13.842 219.209 13.8717C219.292 13.908 219.381 13.9046 219.501 13.891C219.615 13.8788 219.697 13.862 219.744 13.812C219.762 13.7911 219.8 13.7712 219.834 13.7541C219.862 13.7412 219.906 13.7212 219.932 13.7233C219.979 13.7277 220.043 13.7412 220.059 13.7585C220.219 13.9195 220.219 13.9209 220.378 13.9649C220.554 14.014 220.736 14.0575 220.895 14.1137C221.039 14.1635 221.181 14.1372 221.337 14.1336C221.454 14.131 221.531 14.1646 221.522 14.2002C221.516 14.2207 221.473 14.2516 221.435 14.2552C221.125 14.2895 220.811 14.3198 220.498 14.3459C220.46 14.3495 220.412 14.3261 220.367 14.3149C220.278 14.2924 220.198 14.2561 220.103 14.2501C220.007 14.2441 219.897 14.2671 219.792 14.2762C219.688 14.2854 219.577 14.3056 219.482 14.2969C219.387 14.2882 219.31 14.2505 219.22 14.2266C219.179 14.2153 219.121 14.199 219.087 14.2038C218.856 14.2417 218.684 14.2007 218.518 14.1446C218.482 14.1332 218.422 14.1264 218.378 14.1301C218.011 14.1616 217.647 14.1971 217.28 14.2313C217.131 14.2456 217.009 14.2007 216.976 14.1212C216.959 14.0767 216.926 14.0325 216.925 13.9876C216.923 13.906 216.748 13.8651 216.621 13.8775C216.413 13.8958 216.2 13.9116 215.995 13.9366C215.827 13.9568 215.684 13.9437 215.569 13.8973C215.435 13.8446 215.283 13.8589 215.131 13.8774C215.017 13.8908 214.986 13.9364 214.995 14.0492C215.004 14.1402 214.95 14.1699 214.745 14.1896C214.485 14.2145 214.223 14.2396 213.96 14.2605C213.919 14.2642 213.871 14.2421 213.829 14.2308C213.74 14.2083 213.66 14.1707 213.565 14.1647C213.469 14.1573 213.359 14.1803 213.254 14.1908C213.15 14.2 213.039 14.2215 212.944 14.2142C212.849 14.2068 212.769 14.1678 212.682 14.1439C212.641 14.1326 212.59 14.1161 212.549 14.1198C212.34 14.1354 212.131 14.1565 211.922 14.1762C211.688 14.1978 211.688 14.1978 211.353 14.1211C211.2 14.0865 211.049 14.1198 210.9 14.1341C210.742 14.1486 210.593 14.1574 210.468 14.1058C210.385 14.0723 210.292 14.0527 210.194 14.0617C209.932 14.084 209.672 14.1103 209.409 14.1326C209.365 14.1363 209.305 14.1309 209.27 14.1195C209.1 14.0662 208.934 14.025 208.701 14.0589C208.498 14.088 208.28 14.0943 208.077 14.1221C207.967 14.1368 207.917 14.1815 207.94 14.215C207.953 14.2324 208.02 14.2513 208.064 14.2503C208.166 14.2493 208.276 14.2264 208.372 14.2324C208.568 14.2442 208.669 14.3563 208.925 14.3191C209.077 14.2966 209.235 14.2862 209.394 14.2772C209.435 14.2749 209.48 14.2997 209.525 14.3123C209.652 14.3462 209.764 14.3912 209.947 14.3626C210.099 14.3401 210.261 14.331 210.416 14.3166C210.663 14.2933 210.663 14.2946 210.985 14.3703C211.138 14.4063 211.289 14.3716 211.438 14.3587C211.549 14.3493 211.653 14.3334 211.742 14.3504C211.879 14.3758 211.979 14.4389 212.147 14.431C212.305 14.4233 212.46 14.4007 212.618 14.3903C212.716 14.384 212.809 14.4037 212.889 14.4386C212.972 14.4735 213.061 14.4878 213.169 14.4771C213.324 14.4627 213.482 14.4455 213.641 14.4351C213.685 14.4328 213.736 14.4438 213.777 14.4538C213.867 14.4763 213.953 14.5029 214.039 14.5268C214.194 14.5151 214.353 14.5088 214.504 14.489C214.621 14.4741 214.704 14.4776 214.8 14.5027C214.921 14.5367 215.021 14.5997 215.217 14.564C215.314 14.5468 215.429 14.5483 215.527 14.5324C215.647 14.512 215.729 14.5169 215.816 14.5558C215.979 14.6296 216.182 14.6264 216.391 14.5917C216.618 14.5539 216.79 14.5881 216.963 14.644C217.145 14.7025 217.145 14.7011 217.288 14.8489C217.33 14.8915 217.448 14.9092 217.546 14.8988C217.71 14.8815 217.853 14.885 217.975 14.934C218.103 14.9869 218.255 14.9766 218.41 14.9581C218.615 14.933 218.821 14.9107 218.991 14.9857C219.074 15.022 219.163 15.0294 219.274 15.0174C219.587 14.9858 219.903 14.9636 220.21 14.9267C220.397 14.9034 220.505 14.9445 220.633 14.9783C220.805 15.0248 220.993 15.0654 220.996 15.1728C220.996 15.1905 221.041 15.2099 221.08 15.2227C221.163 15.2493 221.252 15.2718 221.338 15.2971C221.466 15.335 221.59 15.3662 221.764 15.3404C221.916 15.3193 222.077 15.3102 222.232 15.2944C222.387 15.2787 222.53 15.2686 222.671 15.3171C222.834 15.3719 223.006 15.4238 223.191 15.4631C223.322 15.4915 223.492 15.4345 223.632 15.4735C223.718 15.4974 223.801 15.5255 223.894 15.5451C223.932 15.5538 223.992 15.5456 224.043 15.5418C224.147 15.5339 224.255 15.5274 224.356 15.5115C224.473 15.4939 224.562 15.4946 224.651 15.5239C224.734 15.5505 224.817 15.5881 224.913 15.5941C225.056 15.6031 225.213 15.5451 225.357 15.6044C225.431 15.634 225.523 15.6619 225.619 15.6692C225.714 15.6766 225.824 15.6537 225.926 15.6527C225.97 15.6517 226.024 15.6723 226.05 15.6894C226.066 15.6985 226.045 15.7249 226.023 15.739C225.995 15.7559 225.954 15.7786 225.913 15.7823C225.6 15.8139 225.286 15.8414 224.973 15.8717C224.786 15.8895 224.786 15.8895 224.407 15.8124C224.318 15.7941 224.22 15.8004 224.109 15.8124C223.96 15.828 223.809 15.8546 223.653 15.8337C223.448 15.7458 223.197 15.7433 222.932 15.7847C222.821 15.8022 222.72 15.8045 222.637 15.7806C222.461 15.7328 222.276 15.6894 222.12 15.6317C221.998 15.5869 221.941 15.5841 221.892 15.6505C221.876 15.6713 221.861 15.6934 221.865 15.7124C221.885 15.7799 221.922 15.8458 221.942 15.9134C221.949 15.9323 221.924 15.9546 221.909 15.9754C221.859 16.0336 221.793 16.0311 221.681 15.986C221.569 15.9409 221.435 15.9127 221.258 15.9385C221.106 15.961 220.941 15.962 220.79 15.9858C220.556 16.0211 220.39 15.9813 220.221 15.9267C220.185 15.9152 220.125 15.9098 220.081 15.9135C219.609 15.9555 219.141 16.0015 218.669 16.0436C218.568 16.0527 218.476 16.0344 218.396 15.9994C218.312 15.9646 218.22 15.9476 218.119 15.9567C217.701 15.9948 217.283 16.0302 216.866 16.075C216.695 16.0939 216.558 16.0793 216.44 16.0344C216.35 16.001 216.267 15.992 216.157 15.9986C216.036 16.0054 215.951 16.021 215.892 16.0618C215.836 16.1012 215.877 16.1234 216.005 16.1504C216.142 16.1799 216.27 16.2192 216.4 16.2544C216.505 16.2465 216.609 16.2333 216.711 16.2323C216.755 16.2313 216.797 16.2549 216.842 16.2674C216.969 16.304 217.087 16.3408 217.268 16.3149C217.419 16.2924 217.581 16.2847 217.736 16.2689C217.951 16.249 217.951 16.249 218.302 16.3268C218.391 16.3465 218.486 16.343 218.6 16.3282C218.698 16.3164 218.8 16.3332 218.87 16.3724C218.899 16.388 218.89 16.4155 218.832 16.5066C218.834 16.5732 218.9 16.5418 218.921 16.4978C218.954 16.4344 218.887 16.4155 218.761 16.4524C218.673 16.4789 218.63 16.5153 218.652 16.5434C218.665 16.558 218.726 16.5757 218.832 16.5066C219.109 16.4187 219.321 16.4043 219.524 16.3779C219.644 16.363 219.72 16.3667 219.816 16.3999C219.931 16.4394 220.046 16.4817 220.233 16.4557C220.435 16.4266 220.651 16.419 220.856 16.3939C221.046 16.3705 221.146 16.4282 221.267 16.4608C221.414 16.4996 221.574 16.4484 221.708 16.4698C221.848 16.4911 221.947 16.5487 222.109 16.5559C222.343 16.5139 222.494 16.5785 222.672 16.6194C222.812 16.6502 222.976 16.6165 223.125 16.5982C223.293 16.578 223.433 16.5898 223.551 16.6361C223.685 16.6889 223.834 16.6732 223.986 16.6575C224.34 16.6223 224.353 16.6179 224.561 16.688C224.711 16.739 224.853 16.7113 225.002 16.7011C225.133 16.7349 225.26 16.7714 225.397 16.801C225.432 16.8083 225.499 16.7932 225.552 16.7879C225.707 16.7735 225.866 16.759 226.021 16.7446C226.125 16.7354 226.236 16.7125 226.331 16.7185C226.426 16.7259 226.506 16.7635 226.593 16.7874C226.679 16.8113 226.768 16.8351 226.851 16.8605C226.979 16.8984 227.1 16.9297 227.277 16.9052C227.429 16.8841 227.587 16.875 227.745 16.8592C227.945 16.8397 227.938 16.8439 228.311 16.9171C228.512 16.9574 228.717 16.8984 228.919 16.8883C229.021 16.8833 229.119 16.896 229.19 16.9339C229.219 16.9495 229.21 16.9769 229.22 16.9998C228.698 17.0485 228.173 17.0917 227.657 17.1483C227.458 17.1705 227.352 17.124 227.243 17.0856C227.064 17.0244 226.832 17.1249 226.662 17.0444C226.559 16.9964 226.413 16.9711 226.239 16.9996C226.138 17.0155 226.03 17.0166 225.926 17.0312C225.66 17.0672 225.416 17.0741 225.202 16.985C225.128 16.9541 225.023 16.9388 224.946 16.9092C224.857 16.8772 224.771 16.8601 224.666 16.8693C224.195 16.9127 223.726 16.956 223.258 17.002C223.217 17.0057 223.176 17.027 223.142 17.0428C223.054 17.0829 223.083 17.1121 223.226 17.1334C223.274 17.1405 223.313 17.1573 223.357 17.1698C223.443 17.1937 223.524 17.2328 223.619 17.2401C223.714 17.2475 223.825 17.2259 223.929 17.2167C224.034 17.2076 224.144 17.1846 224.239 17.1906C224.335 17.198 224.415 17.2356 224.504 17.2581C224.546 17.2694 224.597 17.2886 224.638 17.2863C224.847 17.2734 225.053 17.2538 225.262 17.2368C225.392 17.2706 225.504 17.3211 225.66 17.3298C225.759 17.3357 225.863 17.3184 225.964 17.3188C226.009 17.3191 226.066 17.3383 226.089 17.3554C226.102 17.366 226.061 17.3942 226.03 17.4085C225.91 17.4629 225.745 17.4571 225.597 17.4768C225.436 17.4982 225.29 17.4961 225.165 17.4458C225.082 17.4123 224.989 17.3954 224.888 17.4045C224.625 17.4282 224.366 17.4545 224.103 17.4754C224.059 17.4791 224.005 17.4681 223.963 17.4595C223.629 17.3841 223.628 17.3814 223.394 17.4044C223.049 17.4381 223.049 17.4381 222.816 17.3713C222.772 17.3587 222.724 17.334 222.686 17.3362C222.318 17.3663 221.954 17.3963 221.591 17.4359C221.47 17.4482 221.388 17.45 221.298 17.4167C221.222 17.3885 221.132 17.3565 221.037 17.3505C220.938 17.3446 220.831 17.3674 220.727 17.3766C220.622 17.3858 220.512 17.406 220.419 17.3972C220.324 17.3885 220.241 17.3523 220.158 17.327C220.072 17.3003 219.98 17.3038 219.863 17.3173C219.502 17.3568 219.499 17.3528 219.139 17.2766C219.097 17.2681 219.043 17.2584 218.999 17.2621C218.736 17.2844 218.477 17.3107 218.214 17.333C218.113 17.3421 218.014 17.3267 217.943 17.2888C217.914 17.2732 217.923 17.2457 217.903 17.1931C217.881 17.1814 217.906 17.2026 217.913 17.2229C217.961 17.219 218.018 17.2205 218.053 17.2088C218.141 17.1809 218.184 17.1459 218.161 17.1179C218.148 17.1032 218.088 17.0855 218.05 17.0864C217.98 17.088 217.92 17.1193 217.903 17.1931C217.704 17.2426 217.492 17.2569 217.287 17.2834C217.167 17.2997 217.09 17.2946 216.995 17.2614C216.879 17.2205 216.761 17.181 216.575 17.207C216.372 17.2361 216.157 17.2451 215.948 17.2689C215.708 17.2961 215.6 17.1761 215.398 17.1834C215.188 17.1909 214.98 17.2188 214.771 17.2398C214.587 17.2576 214.587 17.2576 214.205 17.1779C214.065 17.1484 213.901 17.1997 213.764 17.1688C213.672 17.1492 213.592 17.1183 213.502 17.0972C213.464 17.0886 213.404 17.0899 213.356 17.0937C213.094 17.116 212.828 17.133 212.575 17.1687C212.287 17.2106 212.068 17.1775 211.86 17.1019C211.6 17.1228 211.337 17.1369 211.081 17.1686C210.895 17.1919 210.786 17.1495 210.658 17.1156C210.613 17.1044 210.575 17.0848 210.527 17.0805C210.48 17.0761 210.423 17.0883 210.372 17.0935C210.163 17.1132 209.948 17.125 209.746 17.154C209.496 17.191 209.398 17.0816 209.205 17.0724C209.076 17.142 209.009 17.2347 208.752 17.2474C208.543 17.2576 208.334 17.2841 208.125 17.3038C208.021 17.313 207.917 17.3235 207.812 17.3327C207.644 17.3488 207.566 17.4036 207.603 17.4844C207.623 17.5289 207.64 17.5734 207.657 17.6179C207.691 17.6974 207.613 17.7672 207.48 17.7798C207.113 17.814 206.749 17.8495 206.382 17.8809C206.284 17.89 206.188 17.869 206.108 17.8341C206.025 17.7993 205.932 17.785 205.831 17.7941C205.464 17.8283 205.1 17.8638 204.733 17.8953C204.692 17.899 204.638 17.8866 204.596 17.8766C204.507 17.8542 204.421 17.8276 204.335 17.8037C204.126 17.8207 203.92 17.8335 203.714 17.8545C203.382 17.8865 203.382 17.8879 203.136 17.8186C203.091 17.8061 203.047 17.7812 203.005 17.7835C202.847 17.7926 202.692 17.8097 202.534 17.8255C202.069 17.8715 202.069 17.8715 201.931 17.8338C201.807 17.7985 201.695 17.7548 201.508 17.7808C201.306 17.8099 201.091 17.823 200.882 17.8413C200.727 17.8544 200.572 17.8688 200.416 17.875C200.375 17.8773 200.33 17.8525 200.286 17.8399C200.158 17.8006 200.033 17.7694 199.86 17.7965C199.759 17.8124 199.651 17.8176 199.546 17.8268C199.274 17.852 199.274 17.852 198.825 17.7806C198.781 17.7734 198.727 17.7651 198.683 17.7702C198.315 17.803 197.952 17.8385 197.584 17.87C197.54 17.8737 197.486 17.8668 197.442 17.861C196.939 17.7935 196.939 17.7935 196.407 17.8437C196.205 17.8619 196.198 17.8675 195.984 17.8002C195.889 17.7711 195.809 17.758 195.698 17.77C195.281 17.8122 194.86 17.8435 194.445 17.891C194.259 17.9116 194.15 17.8732 194.022 17.8394C193.978 17.8282 193.93 17.8021 193.892 17.8043C193.474 17.8396 193.056 17.8804 192.638 17.9158C192.6 17.9194 192.552 17.8932 192.507 17.882C192.421 17.8595 192.338 17.8246 192.243 17.8186C192.144 17.8127 192.037 17.8355 191.929 17.8448C191.667 17.8685 191.667 17.8671 191.361 17.7938C191.319 17.7838 191.265 17.7701 191.224 17.7737C190.806 17.8105 190.385 17.8432 189.971 17.892C189.733 17.9192 189.571 17.8834 189.402 17.8301C189.366 17.8187 189.306 17.8146 189.262 17.8183C188.79 17.8604 188.322 17.9064 187.85 17.9484C187.752 17.9574 187.657 17.9365 187.577 17.9029C187.448 17.85 187.3 17.8602 187.141 17.8761C186.778 17.9129 186.774 17.9116 186.557 17.8512C186.513 17.8387 186.474 17.8218 186.427 17.8161C186.382 17.8103 186.325 17.8157 186.278 17.8195C186.069 17.8379 185.86 17.8576 185.651 17.8773C185.442 17.897 185.23 17.91 185.024 17.9378C184.772 17.9721 184.649 17.8864 184.471 17.8497C184.211 17.8733 183.945 17.8902 183.689 17.9246C183.493 17.9508 183.4 17.8931 183.269 17.8647C183.224 17.8549 183.176 17.8328 183.135 17.8365C182.664 17.8772 182.192 17.9205 181.724 17.9679C181.61 17.9787 181.534 17.9695 181.438 17.939C181.224 17.8704 181.214 17.8734 180.86 17.9086C180.705 17.9244 180.556 17.9387 180.422 17.8859C180.303 17.8383 180.16 17.8293 179.993 17.8494C179.787 17.8745 179.575 17.8902 179.366 17.9086C179.157 17.9283 178.949 17.9534 178.74 17.965C178.572 17.9756 178.469 17.914 178.335 17.8844C178.294 17.8758 178.237 17.8757 178.189 17.8795C177.98 17.8965 177.765 17.9109 177.562 17.9387C177.316 17.9728 177.178 17.9012 177.003 17.8616C176.964 17.8529 176.901 17.8598 176.854 17.865C176.486 17.8978 176.123 17.9333 175.755 17.9675C175.625 17.9337 175.491 17.9014 175.36 17.8676C175.151 17.886 174.942 17.9057 174.733 17.9241C174.575 17.9385 174.414 17.9463 174.265 17.9701C174.072 18.0017 173.976 17.9399 173.845 17.9116C173.8 17.9017 173.752 17.8797 173.711 17.8833C173.448 17.9043 173.186 17.9266 172.926 17.9556C172.68 17.9844 172.579 17.8642 172.376 17.8701C172.167 17.8763 171.952 17.8988 171.749 17.9279C171.515 17.9618 171.349 17.9221 171.18 17.8674C171.145 17.8559 171.085 17.8505 171.04 17.8542C170.778 17.8765 170.518 17.9029 170.255 17.9252C170.211 17.9289 170.157 17.9233 170.113 17.9162C169.61 17.8473 169.61 17.8459 169.392 17.8672C169.237 17.8816 169.078 17.8988 168.92 17.9092C168.876 17.913 168.821 17.902 168.78 17.892C168.448 17.8165 168.448 17.8152 168.211 17.8369C168.002 17.8566 167.793 17.8763 167.585 17.8961C167.454 17.8623 167.32 17.83 167.189 17.7962C166.929 17.8198 166.664 17.8394 166.407 17.8697C166.287 17.8834 166.208 17.8811 166.115 17.8492C166 17.811 165.885 17.766 165.695 17.7934C165.493 17.8225 165.278 17.8301 165.072 17.8552C164.825 17.8853 164.721 17.7638 164.521 17.7697C164.312 17.7759 164.097 17.7984 163.895 17.8275C163.661 17.8614 163.495 17.8216 163.326 17.767C163.291 17.7555 163.23 17.7501 163.186 17.7538C162.61 17.8064 162.037 17.8589 161.461 17.9141C161.107 17.948 161.107 17.9494 160.43 17.8899C160.382 17.8856 160.331 17.8813 160.284 17.8851C160.075 17.9021 159.86 17.9165 159.657 17.9443C159.411 17.9784 159.273 17.9081 159.097 17.8672C159.059 17.8585 158.999 17.8653 158.948 17.8692C158.79 17.8823 158.635 17.8981 158.477 17.9126C158.268 17.9323 158.059 17.952 157.85 17.9717C157.72 17.9393 157.586 17.9056 157.455 17.8732C157.195 17.8968 156.929 17.9124 156.673 17.9468C156.477 17.973 156.384 17.918 156.253 17.8883C156.209 17.8784 156.161 17.8564 156.119 17.8587C155.648 17.8993 155.176 17.9413 154.708 17.9901C154.515 18.0108 154.425 17.9516 154.294 17.9233C154.25 17.9148 154.199 17.8982 154.157 17.9019C153.844 17.9281 153.531 17.9583 153.218 17.9886C153.04 18.0062 153.04 18.0062 152.652 17.9307C152.607 17.9222 152.556 17.9138 152.512 17.9175C151.518 18.0082 150.528 18.1028 149.534 18.1934C149.433 18.2025 149.34 18.1842 149.26 18.1493C149.177 18.1144 149.085 18.0975 148.983 18.1066C148.566 18.1447 148.145 18.1801 147.73 18.2249C147.56 18.2438 147.423 18.2292 147.304 18.1842C147.215 18.1509 147.132 18.1392 147.021 18.1498C146.813 18.1709 146.604 18.1893 146.395 18.209C146.186 18.2287 145.977 18.2484 145.768 18.2681C145.56 18.2879 145.347 18.3008 145.142 18.3286C144.889 18.363 144.763 18.2815 144.588 18.2433C144.275 18.2708 143.961 18.2983 143.651 18.3271C143.234 18.3652 142.816 18.406 142.398 18.4427C142.36 18.4463 142.312 18.4229 142.267 18.4117C142.137 18.3806 142.04 18.3352 141.847 18.3545C140.911 18.448 139.968 18.5306 139.028 18.6228C138.832 18.6422 138.745 18.5856 138.611 18.5574C138.566 18.5489 138.515 18.531 138.474 18.5346C137.952 18.5805 137.43 18.6305 136.908 18.6791C136.696 18.6989 136.696 18.6989 136.339 18.6226C136.297 18.6141 136.243 18.603 136.199 18.6068C135.518 18.6685 134.841 18.7329 134.161 18.796C134.06 18.8051 133.967 18.7881 133.884 18.7533C133.804 18.7184 133.708 18.7001 133.61 18.7092C132.984 18.7669 132.354 18.8234 131.731 18.8852C131.563 18.9027 131.423 18.8936 131.302 18.8474C131.215 18.814 131.129 18.8009 131.022 18.8115C130.082 18.8996 129.142 18.9849 128.202 19.077C128.022 19.0947 127.894 19.0718 127.779 19.0295C127.687 18.9962 127.607 18.9912 127.493 18.9993C127.373 19.0088 127.3 19.0254 127.235 19.0677C127.15 19.1227 127.098 19.1906 126.895 19.1993C126.686 19.2081 126.474 19.2293 126.269 19.2571C126.073 19.2847 125.979 19.2255 125.855 19.1916C125.762 19.1679 125.677 19.1657 125.56 19.1806C125.452 19.194 125.386 19.2186 125.324 19.2636C125.186 19.3592 125.174 19.3595 125.001 19.3049C124.909 19.2757 124.826 19.2531 124.724 19.2609C124.307 19.2976 123.889 19.337 123.471 19.3778C123.231 19.401 123.228 19.4037 123.045 19.3399C122.956 19.3079 122.87 19.2935 122.766 19.304C121.617 19.4118 120.468 19.5168 119.32 19.6287C119.142 19.6463 119.021 19.6205 118.893 19.5826C118.852 19.5699 118.81 19.5518 118.763 19.5474C118.715 19.5431 118.661 19.5497 118.611 19.5536C117.775 19.6311 116.936 19.706 116.104 19.7902C115.914 19.8095 115.812 19.7683 115.681 19.7359C115.637 19.7246 115.598 19.7065 115.55 19.7021C115.503 19.6991 115.446 19.7099 115.395 19.7151C114.56 19.7926 113.721 19.8675 112.889 19.9517C112.69 19.9712 112.603 19.9161 112.472 19.8891C112.428 19.8792 112.38 19.8599 112.339 19.8635C112.076 19.8845 111.816 19.9108 111.554 19.9345C110.927 19.9936 110.301 20.05 109.674 20.1106C109.434 20.1337 109.326 20.015 109.123 20.0251C108.86 20.0379 108.601 20.071 108.339 20.096C108.13 20.1157 107.921 20.1341 107.712 20.1552C107.506 20.1748 107.506 20.1748 106.991 20.1076C106.946 20.1018 106.892 20.0935 106.848 20.0972C106.117 20.1642 105.383 20.2312 104.655 20.3022C104.487 20.3183 104.348 20.3146 104.226 20.267C104.14 20.2336 104.051 20.218 103.946 20.2285C102.848 20.331 101.753 20.4335 100.655 20.5346C100.614 20.5383 100.56 20.5259 100.518 20.516C100.429 20.4935 100.343 20.4669 100.257 20.443C100.194 20.4757 100.112 20.5062 100.072 20.5425C100.016 20.5914 99.9401 20.6067 99.8199 20.6176C99.6996 20.6285 99.6235 20.6275 99.5276 20.5943C99.4125 20.5534 99.2944 20.522 99.1077 20.5399C97.9591 20.6517 96.8103 20.7554 95.6617 20.8659C95.4718 20.8838 95.3817 20.826 95.2479 20.7977C95.2033 20.7892 95.1522 20.7754 95.111 20.7791C94.6395 20.8211 94.1712 20.8657 93.6996 20.9091C92.3927 21.0314 91.0857 21.1495 89.7821 21.2771C89.5448 21.3002 89.3824 21.2699 89.213 21.2152C89.1779 21.2038 89.1175 21.1983 89.0732 21.2021C87.2441 21.3716 85.415 21.5424 83.5891 21.7132C83.491 21.7222 83.3954 21.7026 83.3153 21.6691C83.2321 21.6342 83.1398 21.6186 83.0385 21.6277C82.2031 21.7052 81.3677 21.7827 80.5323 21.8616C80.3234 21.8813 80.3203 21.8827 80.1032 21.8224C80.0585 21.8098 80.0104 21.785 79.9756 21.7885C79.9029 21.797 79.8339 21.8326 79.7843 21.88C79.7347 21.9301 79.6557 21.9455 79.5387 21.9577C79.4185 21.9699 79.3392 21.9676 79.2465 21.9371C79.1283 21.899 79.0196 21.862 78.8297 21.8799C76.428 22.1087 74.0261 22.3306 71.6243 22.558C71.4313 22.576 71.3412 22.5209 71.2074 22.4927C71.1628 22.4842 71.1181 22.4716 71.0705 22.4699C71.0197 22.4684 70.966 22.4778 70.9154 22.483C66.9978 22.8483 63.0802 23.2149 59.1626 23.5802C58.9284 23.6019 58.9316 23.6018 58.6778 23.7328C58.6464 23.7484 58.6056 23.7698 58.5613 23.7735C57.362 23.8879 56.1596 23.9996 54.9571 24.1113C54.4349 24.1599 53.9128 24.2098 53.3907 24.2571C53.2039 24.2736 53.2039 24.2736 52.7604 24.4306C52.7227 24.4437 52.6786 24.4611 52.6343 24.4648C50.5458 24.6606 48.4572 24.8564 46.3655 25.0495C46.2009 25.0642 46.0684 25.0917 45.9938 25.1587C45.941 25.2062 45.8719 25.2349 45.7675 25.2455C44.3055 25.3821 42.8436 25.5201 41.3784 25.6541C41.2043 25.6704 41.1006 25.7108 41.0163 25.7699C40.9882 25.7896 40.9634 25.8119 40.9225 25.8264C40.8847 25.8395 40.8278 25.8449 40.7803 25.8501C39.5272 25.967 38.2742 26.0867 37.0178 26.1996C36.831 26.2161 36.7561 26.2681 36.6654 26.3233C36.6341 26.3417 36.6125 26.3667 36.5716 26.3798C36.5306 26.3917 36.4704 26.393 36.4197 26.3969C35.3754 26.4941 34.3312 26.5927 33.287 26.6899C33.0839 26.6877 33.0414 26.7676 32.9442 26.8175C32.9097 26.8346 32.8849 26.8569 32.844 26.8687C32.7998 26.8806 32.7427 26.8805 32.6889 26.8845C31.8534 26.962 31.0181 27.0436 30.1794 27.1171C29.9864 27.1337 29.9499 27.2039 29.8464 27.2539C29.8119 27.2697 29.7776 27.2936 29.7365 27.2986C29.2144 27.3499 28.6923 27.3985 28.1701 27.4458C27.9961 27.462 27.996 27.4606 27.6917 27.6023C27.6572 27.618 27.6163 27.6353 27.572 27.6404C26.7904 27.7153 26.0057 27.7876 25.2209 27.8612C25.1196 27.8703 25.0506 27.9045 25.001 27.9519C24.9514 27.9993 24.8792 28.0309 24.7779 28.04C24.1513 28.0991 23.5248 28.1597 22.8981 28.2147C22.724 28.2296 22.6108 28.2662 22.5361 28.3291C22.4801 28.3766 22.4109 28.4013 22.3002 28.412C21.6736 28.4698 21.0471 28.5317 20.4172 28.5841C20.2337 28.5992 20.1396 28.6476 20.0648 28.7064C20.0057 28.754 19.9363 28.7719 19.8192 28.7828C18.6705 28.8878 17.5186 28.9929 16.3732 29.106C16.1802 29.1254 16.0808 29.08 15.9533 29.0489C15.7715 29.0054 15.6023 28.9575 15.5999 28.8514C15.5995 28.8351 15.5452 28.8173 15.5068 28.8046C15.2224 28.709 15.2224 28.709 15.1755 28.6012C15.1486 28.5351 15.1185 28.4678 15.0947 28.4003C15.0509 28.2897 14.9488 28.2634 14.6577 28.2905C14.5532 28.2996 14.4489 28.3115 14.3444 28.3193C14.1893 28.3324 14.071 28.2902 14.0406 28.2092C14.0237 28.1647 14.0037 28.1203 13.9868 28.0757C14.145 28.0612 14.1418 28.06 14.4169 27.8891C14.5326 27.817 14.5326 27.817 14.306 27.7528C14.2198 27.7289 14.1367 27.7022 14.0442 27.6798C14.0028 27.6699 13.9487 27.6643 13.9044 27.668C13.6417 27.6903 13.3823 27.7153 13.1228 27.7402C12.7051 27.7796 12.7051 27.7796 12.2771 27.6506C12.242 27.6405 12.1876 27.6213 12.1937 27.6103C12.2274 27.5592 12.3125 27.5355 12.4201 27.5276C12.5784 27.5158 12.7334 27.4987 12.8885 27.4843C12.9929 27.4751 13.0973 27.4646 13.2018 27.4554C13.2988 27.4015 13.3992 27.3488 13.4898 27.2937C13.6338 27.2088 13.6337 27.2061 13.4326 27.1535C13.305 27.1183 13.1679 27.0874 13.0371 27.055C12.8821 27.0694 12.7239 27.0852 12.5688 27.0983C12.3726 27.115 12.2927 27.0909 12.2399 27.0037C12.1938 26.9272 12.2461 26.8593 12.3979 26.8395C12.5528 26.8197 12.6984 26.8055 12.7761 26.7343C12.8506 26.666 12.9831 26.6371 13.1478 26.6279C13.2523 26.6214 13.3567 26.6095 13.4611 26.599C13.5971 26.585 13.6685 26.514 13.6381 26.4371C13.6211 26.3872 13.5884 26.3457 13.4646 26.3377C12.9151 26.3025 12.9088 26.304 12.6341 26.2177C12.6085 26.2101 12.589 26.1861 12.5982 26.1736C12.6136 26.1529 12.6478 26.1222 12.6857 26.1172C13.0495 26.079 13.4134 26.0435 13.7774 26.0148C13.8977 26.0053 13.9862 25.9938 14.0263 25.9425C14.0817 25.8718 14.0549 25.8085 13.9429 25.7634C13.9077 25.7492 13.8501 25.7315 13.8121 25.7337C13.3943 25.7677 12.9798 25.8084 12.562 25.8424C12.524 25.846 12.4538 25.8245 12.4375 25.8072C12.4051 25.7752 12.4516 25.7306 12.5622 25.7132C12.7075 25.6894 12.8564 25.6847 12.9531 25.6145C13.0872 25.5148 13.2531 25.4226 13.4031 25.3266C13.4281 25.3097 13.4686 25.2775 13.4591 25.275C13.3791 25.2469 13.2867 25.2259 13.2036 25.1992C13.063 25.1547 13.0615 25.0881 13.0917 25.0235C13.1158 24.9712 13.2105 24.9486 13.3277 24.946C13.3784 24.9448 13.4418 24.9434 13.4828 24.9302C13.5898 24.8978 13.6238 24.8589 13.5693 24.8316C13.5372 24.816 13.4797 24.7942 13.4417 24.7978C12.7644 24.8581 12.0839 24.9171 11.4101 24.9882C11.2107 25.0091 11.1177 24.9595 10.9964 24.9255C10.9038 24.899 10.8179 24.8901 10.7043 24.9131C10.597 24.9346 10.4922 24.9261 10.4246 24.8827C10.3698 24.8472 10.4642 24.8138 10.7201 24.7726C10.7675 24.7647 10.8213 24.7594 10.8558 24.745C11.2201 24.5897 11.22 24.5884 11.4732 24.5636C11.72 24.5403 11.72 24.5389 11.8482 24.4571C11.9075 24.419 11.9732 24.3807 12.0294 24.3414C12.0512 24.3259 12.0887 24.2978 12.0758 24.29C12.0051 24.2494 11.9097 24.242 11.799 24.2541C11.5523 24.2828 11.2603 24.2704 11.1334 24.4026C11.0838 24.4527 11.0048 24.4681 10.8909 24.4788C9.74534 24.5838 8.59985 24.6942 7.45103 24.7965C7.26431 24.813 7.17994 24.8653 7.10833 24.9227C7.04601 24.9704 6.97657 24.9856 6.85632 24.9965C6.73606 25.0074 6.64102 25.0136 6.57025 24.9703C6.52841 24.944 6.56241 24.9052 6.65662 24.8649C6.79165 24.8074 6.76471 24.74 6.71886 24.6771C6.68619 24.6356 6.58724 24.608 6.48271 24.6131C6.32752 24.622 6.17894 24.6404 6.04772 24.5889C5.97093 24.5594 5.87532 24.5398 5.78911 24.5145C5.623 24.4625 5.45685 24.4091 5.22632 24.4511C5.06752 24.4411 4.95546 24.3947 4.82779 24.3595C4.61398 24.3017 4.59474 24.2926 4.74534 24.2225C4.91477 24.1438 4.77936 24.0489 4.87275 23.9733C4.97236 23.8921 5.11026 23.8196 5.23218 23.7434C5.26344 23.7236 5.29157 23.7053 5.32282 23.6855C5.24929 23.66 5.18196 23.6275 5.09594 23.6104C4.98444 23.5884 4.92669 23.5598 4.93108 23.4753C4.90861 23.4636 4.91877 23.4947 4.94432 23.5022C4.97304 23.5098 5.04266 23.5014 5.07731 23.4911C5.16546 23.4632 5.209 23.4282 5.18616 23.4001C5.17313 23.3855 5.11251 23.3678 5.07448 23.3687C5.00475 23.3702 4.94523 23.4015 4.92791 23.4754C4.5742 23.5392 4.20709 23.5748 3.83991 23.6049C3.80194 23.6085 3.7538 23.5824 3.70911 23.5698C3.56224 23.5269 3.56225 23.5282 3.13403 23.5243C3.08963 23.524 3.029 23.5063 3.00637 23.4878C2.91253 23.4069 2.91362 23.3157 2.8672 23.2283C2.94829 23.1693 3.02935 23.1117 3.11364 23.054C3.28219 22.9372 3.50182 22.8329 3.63208 22.7061C3.60202 22.6401 3.56243 22.5743 3.70064 22.5167C4.09527 22.4397 4.09213 22.4398 4.19838 22.3721C4.50156 22.1801 4.80152 21.9869 5.11744 21.7973C5.20192 21.7478 5.20134 21.722 5.04872 21.705C5.00105 21.7007 4.95024 21.7005 4.89959 21.7043C4.74133 21.7174 4.58341 21.7455 4.42798 21.7436C4.27257 21.7431 4.15708 21.6858 4.02945 21.652C3.89861 21.6169 3.76775 21.5804 3.63688 21.5439C3.48801 21.5513 3.33994 21.5928 3.18956 21.535C3.07435 21.49 2.93094 21.4592 2.80007 21.4227C2.89594 21.3171 3.07798 21.2341 3.21851 21.1397C3.34655 21.0538 3.34968 21.0551 3.69686 20.9832C3.86099 20.9496 3.91449 20.7946 3.77399 20.7529C3.60474 20.7023 3.42612 20.656 3.25376 20.6082C3.10489 20.6157 2.95362 20.6559 2.80958 20.5979C2.69757 20.5542 2.57004 20.5258 2.38661 20.5476C2.07668 20.5846 1.76007 20.6068 1.44684 20.6384C1.33926 20.649 1.22183 20.6462 1.17321 20.6011C1.14076 20.5692 1.23165 20.5222 1.33603 20.5103C1.49419 20.4931 1.63643 20.4735 1.7141 20.4037C1.7886 20.334 1.92758 20.3104 2.09218 20.2971C2.13649 20.2934 2.18687 20.2759 2.20868 20.2591C2.32096 20.1776 2.44618 20.1068 2.69031 20.1039C2.79111 20.0744 2.84417 20.0392 2.81172 20.0073C2.79229 19.99 2.72523 19.9684 2.68726 19.972C2.42449 19.9916 2.16174 20.0112 1.90556 20.0415C1.78537 20.0551 1.69346 20.0599 1.61645 20.0208C1.56194 19.9949 1.58961 19.9575 1.69013 19.9157C1.77809 19.8797 1.80256 19.8397 1.79516 19.7936C1.77682 19.6865 1.68099 19.6574 1.37687 19.6711C1.15829 19.6815 1.10399 19.6651 1.05431 19.5737C1.04113 19.5522 1.0088 19.523 1.03064 19.5075C1.16479 19.4119 1.25091 19.2957 1.50664 19.2463C1.60769 19.2277 1.71542 19.2253 1.77799 19.1885C1.84057 19.1516 1.89671 19.1095 1.96248 19.074C2.04395 19.0314 2.10007 18.992 2.06143 18.967C1.99697 18.9222 1.89548 18.9204 1.77859 18.9394C1.67747 18.9553 1.56974 18.9591 1.46533 18.9697C1.27867 18.9889 1.12574 18.957 1.10217 18.8976C1.0383 18.7412 0.971276 18.5863 0.913746 18.4297C0.906966 18.4108 0.922205 18.386 0.947185 18.3691C1.03461 18.31 1.12848 18.2534 1.21911 18.1955C1.3254 18.1292 1.49687 18.1375 1.64239 18.122C1.84801 18.0996 1.84797 18.101 2.12071 17.9641C2.22728 17.91 2.41477 17.9261 2.52464 17.8774C2.55916 17.8616 2.61248 17.8359 2.60265 17.8225C2.58957 17.8051 2.52589 17.793 2.47816 17.7859C2.4336 17.7787 2.37963 17.7759 2.33218 17.7811C1.75622 17.8336 1.18351 17.8888 0.607517 17.94C0.509416 17.949 0.400954 17.9216 0.365114 17.8802C0.329336 17.8416 0.337713 17.7937 0.330337 17.749C0.420967 17.6911 0.52433 17.6371 0.602187 17.5754C0.661341 17.5278 0.730614 17.5058 0.850997 17.5004C1.00938 17.4927 1.16433 17.4729 1.34155 17.4566C1.6666 17.2505 1.98507 17.0351 2.33548 16.8284C2.47626 16.745 2.43956 16.6641 2.46611 16.5778C2.49281 16.4983 2.70545 16.5057 2.84755 16.4793C2.96121 16.4577 2.99819 16.4133 2.95313 16.3844C2.92736 16.3673 2.86987 16.3482 2.82549 16.3492C2.72089 16.3516 2.61658 16.3662 2.51214 16.3754C2.4077 16.3845 2.28717 16.3832 2.20212 16.4083C2.12022 16.4319 2.06737 16.4794 2.0144 16.52C1.95518 16.5649 1.87634 16.5817 1.75596 16.5872C1.60071 16.5934 1.44569 16.6092 1.2906 16.6222C1.11821 16.5731 0.939482 16.5254 0.773372 16.4734C0.741424 16.4633 0.734328 16.4321 0.737026 16.4116C0.742139 16.3585 0.693853 16.3269 0.588658 16.3034C0.499405 16.2837 0.425774 16.2541 0.342735 16.2287C0.405279 16.1906 0.474218 16.1536 0.52402 16.113C0.63304 16.0275 0.771136 15.9645 1.01209 15.9618C1.10595 15.9066 1.18049 15.8396 1.30326 15.8C1.41972 15.762 1.62023 15.7928 1.70713 15.7106C1.75059 15.6701 1.81615 15.6237 1.90135 15.6054C2.03705 15.5765 2.21486 15.5861 2.29234 15.5081C2.33888 15.4635 2.40767 15.4225 2.49934 15.4095C2.60366 15.3949 2.71133 15.3897 2.78681 15.3622C2.8277 15.3476 2.87157 15.3249 2.87113 15.3058C2.87085 15.2936 2.80707 15.276 2.76251 15.2688C2.72108 15.2602 2.66698 15.2547 2.6195 15.2585C2.4612 15.2702 2.30624 15.2887 2.14795 15.3005C2.10364 15.3042 2.05272 15.2958 2.00498 15.2888C1.86502 15.2702 1.87388 15.2428 1.98368 15.1913C2.09352 15.1411 2.17139 15.0781 2.26202 15.0203C2.36323 15.0085 2.49009 15.0097 2.55922 14.9822C2.67553 14.9374 2.7565 14.8743 2.85036 14.8191C2.95477 14.8086 3.06247 14.8034 3.16038 14.7862C3.20146 14.7798 3.2198 14.7495 3.25426 14.731C3.31687 14.6956 3.36966 14.6454 3.45487 14.6271C3.59376 14.5995 3.76514 14.6051 3.84582 14.5284C3.89236 14.4838 3.96416 14.4359 4.05285 14.4312C4.29996 14.4201 4.40283 14.3429 4.52798 14.2693C4.62184 14.2141 4.82533 14.2367 4.9287 14.1813C4.99765 14.1457 5.04742 14.1024 5.1164 14.0682C5.14461 14.0539 5.20465 14.0458 5.2521 14.0406C5.51154 14.0143 5.77427 13.9933 6.03367 13.9657C6.07478 13.9607 6.11238 13.9394 6.1437 13.9224C6.20944 13.8855 6.24947 13.8356 6.33134 13.8106C6.41322 13.7856 6.53048 13.7829 6.63175 13.7738C6.95775 13.746 6.98326 13.7509 7.12956 13.6319C7.24784 13.5353 7.54419 13.5952 7.64006 13.4896C7.69573 13.4285 7.79915 13.3772 7.986 13.3661C8.24886 13.3506 8.50817 13.3189 8.77084 13.2952C9.00501 13.2735 9.00185 13.2736 9.2525 13.1414C9.36528 13.0816 9.5335 13.086 9.68222 13.0717C9.84045 13.0572 9.98586 13.0376 10.0604 12.9679C10.1349 12.8995 10.2738 12.8746 10.4353 12.8614C10.584 12.8485 10.7522 12.8515 10.8682 12.7944C11.1505 12.6573 11.1473 12.656 11.3466 12.6379C11.6599 12.609 11.9732 12.5801 12.2865 12.5499C12.4953 12.5301 12.714 12.5225 12.9098 12.4881C13.0519 12.4631 13.1135 12.3855 13.2042 12.3303C13.4637 12.304 13.7231 12.2777 13.9825 12.2528C14.3464 12.2173 14.7135 12.1844 15.0806 12.1502C15.2379 12.095 15.2575 11.9802 15.5236 11.9687C15.682 11.9624 15.8369 11.9412 15.9952 11.9267C16.2578 11.9017 16.5171 11.8713 16.78 11.8558C16.9795 11.8444 17.0126 11.7702 17.1162 11.7216C17.1507 11.7045 17.1818 11.6806 17.223 11.6756C17.6341 11.6282 18.0586 11.6104 18.4599 11.5454C18.501 11.5391 18.5384 11.5096 18.5474 11.489C18.5535 11.478 18.4991 11.4588 18.464 11.4501C18.4226 11.4402 18.3685 11.4305 18.3242 11.4342C17.0172 11.5551 15.7103 11.6774 14.4034 11.7982C14.2198 11.816 14.2198 11.8146 13.7764 11.9744C13.7386 11.9875 13.6945 12.0021 13.647 12.0073C13.4382 12.0284 13.2261 12.0427 13.0205 12.0678C12.8529 12.0879 12.7131 12.0748 12.5916 12.0286C12.5052 11.9951 12.4161 11.9863 12.3084 11.9914C12.1881 11.9983 12.1092 12.015 12.0403 12.0533C11.9496 12.1058 11.9035 12.1721 11.7105 12.1901C10.8212 12.2688 9.93196 12.3544 9.04591 12.4371C8.92185 12.4209 8.86098 12.3937 8.89189 12.359C8.91043 12.3381 8.94786 12.3101 8.98583 12.3065C9.34968 12.2696 9.71677 12.2368 10.0807 12.2013C10.1313 12.1961 10.2011 12.1972 10.2293 12.1829C10.3673 12.1186 10.4158 12.0181 10.6787 12.0054C10.8308 11.9978 10.9856 11.9739 11.1309 11.9515C11.172 11.9452 11.2094 11.9157 11.2184 11.8951C11.2214 11.8842 11.1702 11.8649 11.1319 11.8563C10.9915 11.82 10.831 11.8713 10.6909 11.8472C10.6432 11.8388 10.5762 11.8267 10.5664 11.8106C10.5597 11.7958 10.613 11.7701 10.6507 11.7543C10.6852 11.7399 10.7325 11.7265 10.7799 11.7214C11.1976 11.6806 11.6153 11.6384 12.0331 11.6044C12.2041 11.591 12.3237 11.5543 12.3983 11.49C12.4543 11.4425 12.5235 11.4164 12.6311 11.4071C13.3621 11.3402 14.093 11.2678 14.8273 11.2048C15.0108 11.1898 15.1049 11.1427 15.1797 11.0825C15.2388 11.0349 15.3082 11.017 15.4253 11.0062C16.4728 10.9116 17.5137 10.809 18.5613 10.7172C18.7544 10.7005 18.8101 10.6407 18.9072 10.5882C18.9417 10.5697 18.9633 10.5474 19.0074 10.5356C19.0515 10.5237 19.1086 10.5237 19.1624 10.5198C19.9979 10.4423 20.8332 10.3607 21.6719 10.2872C21.8682 10.2705 21.9046 10.2016 22.0049 10.1517C22.0394 10.136 22.0706 10.1108 22.1117 10.1057C22.7382 10.0452 23.3648 9.98745 23.9913 9.92831C24.409 9.88887 24.8267 9.84944 25.2444 9.81137C25.4502 9.79308 25.4501 9.79172 25.7261 9.65617C25.7574 9.64049 25.8014 9.6218 25.8425 9.61678C27.045 9.50236 28.2443 9.3921 29.4468 9.27904C29.5481 9.26993 29.6202 9.23698 29.6699 9.18958C29.7195 9.14219 29.7918 9.10925 29.8899 9.10022C30.8297 9.01082 31.7695 8.92278 32.7126 8.83739C32.8835 8.82261 33.0031 8.78723 33.0778 8.7243C33.1338 8.67676 33.2029 8.6507 33.3105 8.64145C34.2504 8.55477 35.1902 8.464 36.1334 8.37997C36.3137 8.36362 36.4014 8.31537 36.4889 8.25895C36.5201 8.23918 36.5448 8.20732 36.5828 8.20374C37.051 8.155 37.516 8.10496 37.9877 8.06838C38.1839 8.05304 38.2492 7.9944 38.3272 7.93819C38.3896 7.89323 38.4621 7.87662 38.5825 7.86844C38.8453 7.85022 39.1046 7.8212 39.3608 7.79224C39.3988 7.7873 39.4456 7.75629 39.4484 7.73718C39.4539 7.70167 39.3804 7.67885 39.2596 7.66934C38.0065 7.78628 36.7503 7.90328 35.4971 8.02022C35.2914 8.03986 35.2914 8.03987 35.0155 8.17541C34.9841 8.19109 34.9401 8.20979 34.8959 8.21488C33.6934 8.32794 32.4941 8.43957 31.2916 8.55263C31.1903 8.56174 31.1182 8.59468 31.0685 8.64207C31.0189 8.68947 30.9466 8.7224 30.8485 8.73144C29.6998 8.8392 28.5512 8.94832 27.3993 9.05207C27.2284 9.06684 27.1087 9.10084 27.034 9.16513C26.978 9.21267 26.9089 9.23875 26.8013 9.248C25.7032 9.34916 24.6083 9.45433 23.507 9.55285C23.3962 9.56217 23.3129 9.5246 23.3184 9.48773C23.3211 9.46862 23.3679 9.43627 23.4058 9.43269C23.9785 9.37476 24.548 9.31555 25.1241 9.26843C25.3172 9.25316 25.3728 9.19202 25.4699 9.13946C25.5012 9.12106 25.5261 9.09736 25.567 9.0869C25.6112 9.07502 25.6683 9.07508 25.7221 9.07114C27.0796 8.94366 28.4372 8.81483 29.798 8.69273C29.9942 8.67466 30.0306 8.60715 30.131 8.55724C30.1654 8.54012 30.1966 8.51493 30.2378 8.51127C30.6554 8.46912 31.0731 8.43104 31.4908 8.39297C32.2218 8.32465 32.9528 8.25632 33.687 8.18792C33.899 8.16813 33.899 8.16813 34.1686 8.03409C34.2 8.0184 34.2439 7.99837 34.2851 7.99471C36.2185 7.81332 38.152 7.63193 40.0855 7.4519C40.1868 7.4428 40.259 7.40986 40.3086 7.36247C40.3583 7.31643 40.4304 7.28213 40.5285 7.27174C43.1423 7.02726 45.753 6.78284 48.3669 6.54108C48.5378 6.52495 48.6575 6.49365 48.7321 6.42799C48.785 6.38053 48.8573 6.3544 48.9649 6.34379C51.8382 6.07572 54.7115 5.80765 57.588 5.53815C59.5215 5.35812 61.455 5.17537 63.3885 4.99806C63.5658 4.98179 63.6598 4.93745 63.7473 4.87968C63.7754 4.85999 63.8032 4.82805 63.8412 4.82447C64.2556 4.78103 64.6701 4.74031 65.0846 4.6996C65.2154 4.73336 65.3462 4.76578 65.477 4.79954C65.574 4.74563 65.6679 4.69042 65.765 4.6365C66.3917 4.5828 67.0083 4.50754 67.6418 4.47409C67.683 4.4718 67.7279 4.49663 67.7726 4.50923C68.0694 4.58821 68.2372 4.57759 68.4216 4.45909C68.4872 4.41678 68.5434 4.37876 68.6447 4.36965C68.9579 4.33804 69.2745 4.31451 69.5845 4.27889C69.7522 4.26011 69.8919 4.27054 70.0135 4.31676C70.0999 4.35018 70.189 4.36313 70.2934 4.35259C70.8693 4.29868 71.4421 4.24619 72.018 4.18955C72.0591 4.1859 72.0966 4.16191 72.1279 4.14486C72.1936 4.10799 72.2498 4.06862 72.3124 4.03046C72.3985 4.05163 72.494 4.06715 72.5644 4.09549C72.654 4.12883 72.7364 4.12695 72.8566 4.11469C75.154 3.89782 77.4546 3.68495 79.7519 3.46672C79.9481 3.44865 80.035 3.50383 80.1688 3.53073C80.2135 3.5406 80.2581 3.55319 80.3057 3.55483C80.3565 3.55639 80.4102 3.54701 80.4608 3.54178C82.1854 3.38011 83.9101 3.21979 85.6347 3.05812C85.8626 3.03661 85.8626 3.03661 86.2037 3.11322C86.2451 3.12316 86.2993 3.13418 86.3436 3.12909C87.1284 3.05818 87.9131 2.9832 88.6948 2.911C88.796 2.90189 88.8822 2.9217 88.9748 2.9509C89.1569 3.00799 89.1695 3.00771 89.3006 2.91492C89.363 2.87132 89.4289 2.84395 89.5332 2.82933C89.647 2.81314 89.7391 2.81514 89.8284 2.83761C89.956 2.86873 90.0493 2.92375 90.2423 2.90439C91.0776 2.82145 91.9163 2.74932 92.7484 2.66509C92.9382 2.6458 93.0407 2.68974 93.1683 2.72086C93.2129 2.73209 93.2546 2.7502 93.3022 2.75319C93.3498 2.75619 93.4067 2.74537 93.4573 2.74013C94.5016 2.64292 95.549 2.547 96.59 2.44441C96.7862 2.42498 96.8731 2.48151 97.0069 2.5084C97.0516 2.51827 97.1027 2.53617 97.1438 2.53252C97.7705 2.47609 98.4002 2.41685 99.0268 2.35771C99.2514 2.33627 99.2514 2.33763 99.5957 2.41281C99.6371 2.42276 99.6913 2.43241 99.7356 2.42869C100.467 2.36172 101.201 2.29332 101.932 2.225C102.156 2.20356 102.156 2.20356 102.808 2.25952C102.856 2.26388 102.906 2.27089 102.954 2.26709C103.789 2.18959 104.628 2.11337 105.463 2.03178C105.631 2.01572 105.771 2.02343 105.892 2.06965C105.979 2.10307 106.068 2.11602 106.172 2.10548C107.112 2.01744 108.055 1.93205 108.992 1.84C109.172 1.82229 109.29 1.84954 109.418 1.8861C109.459 1.89876 109.501 1.91687 109.549 1.92123C109.596 1.92559 109.65 1.91892 109.701 1.91369C110.64 1.82564 111.583 1.74161 112.52 1.6482C112.71 1.62892 112.812 1.67285 112.94 1.70397C112.985 1.7152 113.033 1.73861 113.071 1.73638C113.438 1.7049 113.805 1.67615 114.169 1.63387C114.365 1.61036 114.452 1.67096 114.586 1.69786C114.63 1.70637 114.681 1.72563 114.723 1.72197C115.507 1.65106 116.292 1.57743 117.074 1.50251C117.185 1.49183 117.267 1.50219 117.357 1.53553C117.475 1.58047 117.612 1.59641 117.783 1.57756C118.147 1.53799 118.514 1.50788 118.881 1.47368C119.096 1.45382 119.096 1.45383 119.757 1.50956C119.805 1.51392 119.855 1.52092 119.903 1.51712C120.53 1.45934 121.159 1.40284 121.783 1.34104C121.95 1.32362 122.09 1.33269 122.212 1.37891C122.298 1.41233 122.384 1.42536 122.492 1.41475C123.067 1.36083 123.64 1.30698 124.216 1.25307C124.425 1.23335 124.634 1.20275 124.843 1.19799C124.995 1.1959 125.107 1.25865 125.245 1.2882C125.283 1.29685 125.346 1.28454 125.397 1.28067C126.128 1.21235 126.862 1.14802 127.589 1.07297C127.779 1.05369 127.882 1.09762 128.009 1.12874C128.054 1.13997 128.102 1.16337 128.14 1.16115C128.403 1.14021 128.662 1.1139 128.925 1.09024C129.238 1.06134 129.555 1.03782 129.865 1.00083C130.118 0.970589 130.216 1.08675 130.419 1.08622C130.574 1.08677 130.732 1.06005 130.887 1.04564C131.2 1.01674 131.513 0.985132 131.827 0.958959C131.938 0.949637 132.023 0.925919 132.056 0.876165C132.063 0.8665 132.008 0.847333 131.973 0.835885C131.548 0.706742 131.548 0.706736 131.124 0.746312C130.862 0.771333 130.602 0.796285 130.339 0.818586C130.295 0.822315 130.244 0.812587 130.2 0.805436C130.072 0.785197 130.084 0.75771 130.191 0.706298C130.298 0.654887 130.379 0.593177 130.469 0.535325C130.6 0.567732 130.728 0.600198 130.858 0.632605C130.963 0.623427 131.067 0.612901 131.172 0.603723C131.694 0.556474 132.216 0.507862 132.738 0.463332C132.776 0.459747 132.824 0.485872 132.869 0.498464C132.997 0.535024 133.112 0.566422 133.295 0.547282C133.763 0.497177 134.235 0.457881 134.703 0.413216C134.909 0.393572 134.909 0.393573 135.272 0.469683C135.314 0.478267 135.368 0.487924 135.412 0.484195C135.884 0.442178 136.352 0.397517 136.823 0.354141C136.925 0.345035 137.023 0.36048 137.097 0.398265C137.126 0.413937 137.12 0.441278 137.246 0.661589C137.624 0.833975 137.881 0.809107 138.14 0.786878C138.251 0.777556 138.349 0.768517 138.421 0.739658C138.459 0.723833 138.506 0.700988 138.506 0.683307C138.505 0.669707 138.435 0.649526 138.391 0.647814C138.076 0.627746 137.779 0.69165 137.472 0.71088C137.33 0.719562 137.205 0.674769 137.178 0.597822C137.171 0.576205 137.161 0.553302 137.151 0.531757C137.141 0.510212 137.134 0.487236 137.124 0.465691C137 0.461701 136.928 0.487835 136.875 0.535302C136.832 0.574392 136.769 0.619356 136.684 0.641702C136.599 0.665408 136.482 0.664001 136.377 0.673179C136.276 0.682285 136.166 0.702485 136.07 0.695126C135.975 0.686407 135.898 0.648689 135.809 0.626225C135.767 0.614921 135.716 0.598399 135.675 0.602056C135.311 0.633463 134.95 0.664788 134.589 0.702923C134.4 0.723567 134.303 0.668615 134.182 0.635991C134.086 0.610952 133.991 0.619906 133.977 0.682829C133.939 0.833372 134.086 0.892616 134.409 0.856706C134.675 0.826173 134.916 0.816629 135.127 0.904358C135.156 0.91595 135.222 0.919876 135.264 0.916219C135.523 0.89399 135.779 0.867752 136.039 0.845523C136.086 0.841722 136.137 0.845999 136.182 0.850431C136.83 0.909176 136.83 0.910543 137.048 0.889251C137.153 0.878713 137.254 0.869608 137.24 0.663095C137.434 0.436866 137.751 0.414703 138.058 0.375072C138.257 0.350132 138.344 0.408033 138.474 0.436361C138.519 0.446233 138.567 0.466908 138.608 0.463251C139.289 0.402878 139.966 0.339851 140.643 0.27411C140.757 0.263356 140.84 0.269645 140.929 0.30299C141.044 0.345278 141.172 0.370962 141.352 0.350535C141.713 0.30968 142.08 0.280926 142.447 0.245367C142.634 0.227516 142.634 0.227501 143.013 0.303251C143.054 0.311835 143.108 0.321492 143.153 0.317763C143.52 0.286284 143.884 0.249444 144.248 0.216677C144.349 0.207571 144.441 0.224522 144.521 0.259442C144.601 0.294362 144.697 0.311239 144.795 0.302205C145.162 0.269366 145.526 0.233888 145.89 0.201122C145.934 0.197393 145.988 0.205688 146.03 0.214272C146.418 0.289805 146.418 0.289791 146.596 0.272156C146.855 0.245847 147.121 0.230285 147.377 0.197248C147.627 0.164355 147.759 0.240278 147.931 0.279909C148.399 0.237964 148.871 0.201395 149.336 0.152722C149.526 0.132078 149.628 0.17465 149.756 0.207129C149.8 0.218361 149.845 0.243197 149.887 0.2409C150.045 0.231857 150.2 0.213367 150.355 0.198956C150.51 0.184546 150.668 0.170064 150.823 0.155653C151.002 0.19106 151.121 0.280877 151.374 0.243832C151.526 0.221332 151.687 0.213578 151.842 0.199167C151.997 0.184756 152.156 0.170275 152.311 0.155864C152.415 0.146686 152.523 0.14015 152.624 0.125604C152.81 0.100952 152.904 0.165513 153.038 0.192408C153.082 0.20092 153.133 0.216078 153.175 0.212421C153.488 0.186247 153.804 0.162723 154.111 0.124453C154.348 0.0945682 154.511 0.1317 154.68 0.185004C154.715 0.196452 154.776 0.201883 154.82 0.198155C155.187 0.166676 155.551 0.129821 155.915 0.0970543C156.013 0.0880205 156.109 0.107618 156.189 0.141179C156.272 0.176027 156.364 0.191633 156.466 0.182527C156.83 0.14976 157.197 0.114191 157.561 0.0814247C157.605 0.0776959 157.659 0.0873539 157.701 0.0972977C158.057 0.173552 158.058 0.174913 158.266 0.153837C158.317 0.148604 158.371 0.144648 158.421 0.139415C158.681 0.114467 158.95 0.101552 159.203 0.0631462C159.494 0.019796 159.707 0.0612127 159.915 0.134053C160.174 0.111824 160.44 0.0962497 160.693 0.0632846C160.883 0.0385607 160.986 0.0879342 161.113 0.119054C161.158 0.130285 161.206 0.153686 161.244 0.150102C161.611 0.118623 161.978 0.0898719 162.339 0.0476567C162.535 0.0241488 162.622 0.0833944 162.756 0.11165C162.801 0.121521 162.848 0.139492 162.89 0.135835C163.099 0.120199 163.307 0.0991139 163.516 0.079398C163.76 0.0561694 163.76 0.0575296 164.085 0.133144C164.238 0.169127 164.39 0.134385 164.538 0.121478C164.697 0.106995 164.845 0.0954522 164.973 0.148333C165.054 0.181893 165.149 0.201492 165.247 0.193818C165.456 0.176823 165.668 0.159761 165.874 0.134677C166.038 0.114609 166.181 0.122243 166.303 0.169827C166.389 0.203243 166.478 0.218916 166.583 0.208378C167.051 0.165073 167.523 0.120324 167.991 0.0783796C168.032 0.0747229 168.089 0.0856716 168.128 0.0970476C168.217 0.119511 168.303 0.144761 168.389 0.170016C168.595 0.153093 168.807 0.142839 169.01 0.119187C169.225 0.0952471 169.421 0.0839772 169.591 0.154962C169.626 0.17049 169.677 0.192446 169.719 0.190149C169.877 0.181107 170.032 0.16398 170.187 0.149569C170.342 0.135158 170.5 0.120677 170.655 0.106266C170.837 0.13616 170.953 0.231488 171.206 0.194442C171.358 0.171943 171.519 0.164189 171.674 0.149778C171.83 0.135367 171.988 0.119525 172.143 0.106474C172.193 0.102601 172.25 0.0945004 172.295 0.098932C172.343 0.103291 172.384 0.1214 172.426 0.134064C172.553 0.170624 172.672 0.207404 172.852 0.180176C173.003 0.157677 173.165 0.149921 173.32 0.13415C173.532 0.114362 173.532 0.114364 173.886 0.19205C174.029 0.22417 174.19 0.174256 174.327 0.201079C174.419 0.219391 174.499 0.251583 174.589 0.272687C174.627 0.281342 174.687 0.284048 174.731 0.280319C174.94 0.263323 175.152 0.246262 175.358 0.221177C175.526 0.201038 175.665 0.214186 175.784 0.260482C175.87 0.293898 175.956 0.306923 176.064 0.296312C176.586 0.246343 177.108 0.201801 177.627 0.147823C177.804 0.128828 177.947 0.148714 178.047 0.195442C178.217 0.275947 178.452 0.171261 178.628 0.235301C178.737 0.275013 178.846 0.321528 179.042 0.29666C179.402 0.253084 179.769 0.225676 180.133 0.192909C180.264 0.226676 180.395 0.260452 180.529 0.294147C180.738 0.274431 180.947 0.254706 181.155 0.23635C181.31 0.22194 181.469 0.206098 181.624 0.193047C181.674 0.189174 181.728 0.182508 181.776 0.188228C181.824 0.193947 181.862 0.210766 181.907 0.223358C182.127 0.285029 182.127 0.286397 182.488 0.250982C182.643 0.235211 182.792 0.223664 182.923 0.275112C183.044 0.322696 183.187 0.32897 183.352 0.310263C183.662 0.276 183.975 0.248466 184.292 0.222221C184.39 0.213187 184.482 0.23422 184.565 0.267708C184.69 0.320661 184.842 0.311763 184.997 0.293272C185.203 0.269547 185.405 0.245901 185.581 0.318101C185.617 0.333629 185.671 0.355512 185.709 0.353287C185.969 0.336498 186.232 0.322364 186.484 0.290759C186.737 0.259154 186.863 0.340665 187.038 0.377504C187.298 0.353915 187.56 0.330253 187.82 0.306664C187.871 0.301431 187.931 0.287829 187.975 0.29362C188.163 0.317931 188.273 0.417483 188.529 0.380365C188.677 0.359298 188.839 0.35019 188.994 0.34258C189.035 0.340283 189.09 0.362167 189.119 0.379199C189.135 0.388359 189.12 0.414559 189.101 0.428592C189.045 0.467971 188.976 0.504928 188.926 0.545523C188.92 0.551107 188.98 0.574209 189.016 0.584297C189.102 0.606833 189.2 0.600529 189.314 0.587054C189.412 0.5753 189.514 0.592034 189.584 0.631251C189.613 0.646923 189.604 0.674339 189.546 0.765472C189.548 0.832114 189.614 0.800673 189.635 0.756647C189.668 0.693292 189.601 0.674406 189.475 0.711289C189.387 0.737788 189.343 0.77416 189.366 0.802217C189.379 0.81689 189.44 0.834564 189.546 0.765472C189.823 0.677528 190.032 0.657818 190.241 0.638102C190.295 0.632797 190.358 0.617746 190.396 0.625042C190.533 0.654585 190.661 0.691151 190.795 0.724847C190.947 0.713228 191.089 0.689576 191.239 0.739232C191.45 0.80928 191.459 0.802265 191.662 0.782693C191.766 0.772155 191.871 0.762989 191.975 0.753811C192.08 0.744633 192.162 0.763156 192.255 0.792348C192.444 0.85202 192.459 0.851653 192.581 0.761799C192.653 0.7071 192.703 0.688272 192.796 0.710663C193.102 0.78671 193.105 0.792074 193.364 0.761685C193.579 0.736385 193.782 0.726333 193.942 0.800254C194.051 0.852207 194.086 0.839176 194.17 0.780108C194.395 0.623954 194.5 0.624292 194.93 0.72337C195.131 0.770513 195.336 0.710072 195.538 0.698661C195.709 0.68933 195.831 0.719227 195.845 0.804623C195.856 0.857449 195.885 0.894889 196 0.909976C196.045 0.915768 196.099 0.92406 196.143 0.920331C196.406 0.898031 196.665 0.873078 196.928 0.848058C197.061 0.835511 197.132 0.769943 197.105 0.686195C197.074 0.59708 197.124 0.563274 197.314 0.53311C197.427 0.515556 197.519 0.516197 197.612 0.538589C197.714 0.563484 197.686 0.588613 197.598 0.639592C197.389 0.764105 197.416 0.836959 197.69 0.913726C197.786 0.940126 197.863 0.96425 197.886 1.00591C197.899 1.02738 197.887 1.05623 197.916 1.0719C198.073 1.15949 198.29 1.21308 198.532 1.25113C198.763 1.20915 198.923 1.26674 199.101 1.31166C199.242 1.34658 199.406 1.3102 199.554 1.29321C199.722 1.27443 199.862 1.28213 199.983 1.32972C200.07 1.36314 200.159 1.37743 200.263 1.36826C200.472 1.34854 200.684 1.3342 200.89 1.30775C201.067 1.28468 201.201 1.30885 201.313 1.35258C201.453 1.40789 201.608 1.36491 201.754 1.36975C201.951 1.37481 202.052 1.49361 202.308 1.45514C202.459 1.43264 202.618 1.42224 202.776 1.4132C202.817 1.4109 202.868 1.43287 202.904 1.4484C203.073 1.51938 203.27 1.51083 203.485 1.48417C203.633 1.46583 203.779 1.44892 203.926 1.49729C204.169 1.57885 204.437 1.64897 204.692 1.72345C204.729 1.78522 204.705 1.85923 204.886 1.89184C204.982 1.90872 205.071 1.93527 205.145 1.9649C205.235 1.9996 205.317 2.00725 205.431 1.99514C205.637 1.97142 205.852 1.96242 206.054 1.93333C206.241 1.90732 206.359 1.94955 206.474 1.98912C206.567 2.02103 206.653 2.03539 206.763 2.00839C206.877 1.98268 206.96 1.99576 207.052 2.03039C207.184 2.07776 207.193 2.07211 207.624 2.07727C207.669 2.07762 207.723 2.09679 207.749 2.11389C207.762 2.12313 207.734 2.15099 207.712 2.1651C207.684 2.18207 207.64 2.2021 207.599 2.20712C207.131 2.25315 206.659 2.29516 206.191 2.34119C206.143 2.34635 206.093 2.35703 206.058 2.37142C206.021 2.38725 205.973 2.40872 205.974 2.42776C205.974 2.44136 206.038 2.45625 206.083 2.46476C206.223 2.49287 206.386 2.44152 206.524 2.47378C206.616 2.49482 206.693 2.52572 206.785 2.54539C206.824 2.55405 206.884 2.55132 206.931 2.54752C207.09 2.5344 207.245 2.51727 207.403 2.50551C207.447 2.50314 207.498 2.51559 207.54 2.52554C207.846 2.60022 207.846 2.60022 208.108 2.57656C208.213 2.56738 208.323 2.54446 208.422 2.55038C208.517 2.55638 208.6 2.59123 208.686 2.61241C208.865 2.65733 209.034 2.70112 209.049 2.80691C209.057 2.84757 209.162 2.88055 209.267 2.88089C209.368 2.88131 209.476 2.86391 209.58 2.85337C209.827 2.83143 209.827 2.83143 210.149 2.90712C210.238 2.92822 210.333 2.92877 210.447 2.91258C210.491 2.90613 210.545 2.91035 210.593 2.91607C210.749 2.93294 210.749 2.95878 210.649 3.01004C210.508 3.08537 210.521 3.09189 210.922 3.14401C211.074 3.16367 211.193 3.20453 211.32 3.23973C211.528 3.29625 211.525 3.29631 211.39 3.37965C211.359 3.39805 211.331 3.41775 211.3 3.43751C211.209 3.49264 211.137 3.55142 210.947 3.56118C210.738 3.57138 210.53 3.5979 210.321 3.61762C210.118 3.63719 210.065 3.67104 210.086 3.76309C210.111 3.87411 210.152 3.88542 210.517 3.87577C210.622 3.8734 210.714 3.88218 210.794 3.9171C210.757 3.96149 210.688 3.99708 210.587 4.00754C210.327 4.03385 210.064 4.05752 209.805 4.08111C209.596 4.10082 209.387 4.12053 209.178 4.14025C209.049 4.15272 208.968 4.22533 209.005 4.30342C209.025 4.34787 209.042 4.39239 209.058 4.43691C209.095 4.52588 209.162 4.54749 209.375 4.53859C209.429 4.536 209.479 4.52396 209.53 4.52553C209.736 4.53036 209.837 4.64101 210.084 4.61227C210.289 4.58855 210.505 4.57957 210.707 4.55048C210.893 4.52447 210.999 4.57106 211.13 4.60483C211.175 4.61606 211.223 4.64081 211.261 4.63858C211.524 4.61764 211.786 4.59672 212.042 4.56504C212.163 4.55142 212.236 4.55792 212.332 4.5884C212.562 4.6621 212.568 4.65787 212.906 4.62568C213.153 4.60102 213.156 4.60367 213.475 4.67942C213.565 4.70053 213.66 4.69836 213.774 4.68489C213.922 4.6679 214.077 4.64261 214.233 4.65948C214.28 4.66384 214.341 4.6788 214.357 4.69612C214.367 4.70814 214.323 4.73907 214.286 4.74946C214.008 4.82652 213.682 4.8217 213.378 4.85718C213.283 4.8675 213.187 4.84382 213.107 4.8089C213.024 4.77405 212.935 4.76112 212.827 4.77037C212.618 4.79008 212.406 4.80442 212.201 4.83087C212.024 4.85394 211.899 4.82547 211.775 4.78612C211.733 4.77345 211.685 4.74869 211.644 4.75099C211.175 4.78885 210.704 4.82679 210.239 4.87547C210.052 4.89604 209.943 4.85497 209.816 4.82113C209.771 4.8099 209.726 4.78506 209.685 4.78736C209.527 4.7964 209.372 4.81489 209.213 4.82937C208.637 4.88329 208.065 4.93713 207.489 4.98833C207.451 4.99191 207.403 4.96443 207.358 4.9532C207.272 4.93066 207.182 4.90956 207.093 4.88845C206.935 4.90293 206.78 4.92006 206.622 4.93183C206.508 4.93986 206.407 4.96122 206.392 5.01326C206.383 5.04748 206.489 5.07637 206.6 5.07113C206.707 5.06596 206.815 5.04719 206.904 5.06285C207.346 5.13988 207.346 5.14124 207.622 5.1173C207.862 5.0955 207.837 5.08247 208.051 5.15245C208.143 5.183 208.226 5.20017 208.331 5.18964C208.59 5.16469 208.853 5.13966 209.115 5.11736C209.157 5.11371 209.211 5.12609 209.252 5.13603C209.565 5.21057 209.565 5.21329 209.821 5.18705C210.156 5.15493 210.169 5.14784 210.396 5.22569C210.553 5.27928 210.694 5.2366 210.843 5.23049C211.016 5.27964 211.204 5.323 211.36 5.37931C211.546 5.44586 211.739 5.42921 211.948 5.40406C212.103 5.38556 212.255 5.37667 212.383 5.42955C212.504 5.47849 212.65 5.48063 212.815 5.46328C212.963 5.44765 213.115 5.41834 213.271 5.44473C213.312 5.45196 213.376 5.47093 213.373 5.48324C213.371 5.50235 213.33 5.53049 213.289 5.53959C212.999 5.60198 212.679 5.60789 212.372 5.64072C212.331 5.64574 212.276 5.632 212.235 5.62205C212.146 5.59959 212.059 5.57298 211.973 5.54909C211.818 5.56078 211.66 5.56709 211.508 5.58687C211.391 5.60178 211.302 5.60245 211.216 5.57175C211.136 5.54363 211.049 5.50885 210.954 5.50149C210.859 5.49413 210.748 5.51705 210.644 5.52759C210.54 5.53813 210.419 5.53678 210.337 5.56041C210.255 5.58405 210.206 5.63281 210.153 5.67211C210.093 5.71565 210.011 5.73113 209.891 5.73795C209.78 5.74455 209.691 5.74112 209.608 5.70491C209.573 5.68938 209.525 5.67822 209.477 5.66842C209.432 5.65991 209.381 5.64609 209.34 5.64975C208.869 5.69177 208.4 5.73645 207.929 5.77982C207.695 5.80147 207.698 5.80139 207.208 5.73224C207.163 5.72645 207.109 5.71816 207.065 5.72189C206.802 5.74419 206.543 5.76914 206.28 5.79416C206.014 5.81925 206.017 5.81646 205.562 5.74108C205.479 5.72663 205.359 5.75113 205.261 5.75065C205.055 5.74853 204.951 5.63659 204.71 5.66383C204.505 5.68755 204.289 5.69653 204.084 5.7257C203.897 5.75171 203.789 5.70656 203.661 5.67272C203.616 5.66149 203.568 5.63537 203.53 5.63895C203.058 5.67961 202.59 5.72427 201.963 5.74262C201.807 5.74615 201.878 5.77313 201.979 5.78034C202.126 5.79199 202.173 5.76235 202.092 5.70975C202.034 5.67296 201.951 5.65578 201.885 5.66681C201.85 5.67305 201.806 5.69991 201.963 5.74262C202.129 5.79055 202.12 5.81933 202.149 5.835C202.219 5.87285 202.318 5.88694 202.419 5.87919C202.578 5.86607 202.733 5.84894 202.891 5.83718C202.935 5.83345 202.989 5.84175 203.031 5.85169C203.381 5.92809 203.385 5.93346 203.755 5.89239C203.872 5.88021 203.957 5.87826 204.05 5.90201C204.178 5.93449 204.271 5.99224 204.464 5.9688C204.72 5.93712 204.983 5.91619 205.245 5.89525C205.287 5.8916 205.331 5.91507 205.379 5.92487C205.51 5.95456 205.606 6.0136 205.799 5.98336C205.948 5.95957 206.109 5.95045 206.268 5.94276C206.309 5.94047 206.373 5.96079 206.392 5.97804C206.431 6.00846 206.384 6.04627 206.277 6.07456C206.233 6.08645 206.173 6.08509 206.122 6.09032C205.913 6.11004 205.704 6.13111 205.495 6.1481C205.385 6.15743 205.281 6.18021 205.269 6.23082C205.26 6.26504 205.375 6.29236 205.483 6.28719C205.641 6.27951 205.799 6.26503 205.951 6.24389C206.22 6.20784 206.455 6.21067 206.675 6.29138C206.832 6.34769 206.822 6.32616 206.991 6.49922C207.033 6.54317 207.157 6.54443 207.265 6.53926C207.524 6.52655 207.645 6.54422 207.624 6.58689C207.597 6.63922 207.505 6.65762 207.388 6.66708C207.179 6.68272 206.97 6.70516 206.761 6.72488C206.711 6.73011 206.654 6.73956 206.606 6.73792C206.559 6.73628 206.514 6.72097 206.472 6.70967C206.383 6.68585 206.306 6.64813 206.211 6.64077C206.116 6.63341 206.005 6.65633 205.901 6.66687C205.796 6.67605 205.686 6.69897 205.59 6.69162C205.495 6.68426 205.415 6.64527 205.329 6.62273C205.287 6.61143 205.236 6.59353 205.195 6.59582C204.986 6.61146 204.777 6.6339 204.568 6.65226C204.312 6.67577 204.312 6.67578 203.999 6.59851C203.91 6.57605 203.818 6.5795 203.701 6.59305C203.448 6.62057 203.445 6.61656 202.98 6.54819C202.936 6.54104 202.882 6.53275 202.837 6.53784C202.366 6.57986 201.897 6.62452 201.429 6.66782C201.027 6.70553 201.027 6.70554 200.809 6.84659C200.646 6.95098 200.643 6.95105 200.806 6.99362C200.936 7.02874 201.055 7.08184 201.198 7.099C201.332 7.11501 201.495 7.05006 201.642 7.10931C201.716 7.13894 201.812 7.17078 201.904 7.17413C202.05 7.17762 202.204 7.13464 202.345 7.19131C202.415 7.21965 202.521 7.24856 202.61 7.2479C202.765 7.24709 202.923 7.22172 203.078 7.20867C203.126 7.20487 203.179 7.20365 203.224 7.20944C203.272 7.21652 203.313 7.23191 203.355 7.24457C203.483 7.28793 203.619 7.30659 203.784 7.27972C204.052 7.23551 204.294 7.24908 204.505 7.33137C204.534 7.34296 204.603 7.34274 204.648 7.33629C204.761 7.3201 204.86 7.3165 204.946 7.34039C204.981 7.35048 205.032 7.36836 205.026 7.38075C205.017 7.40136 204.98 7.42943 204.938 7.43717C204.642 7.49018 204.322 7.50291 204.015 7.53438C203.974 7.53803 203.923 7.5215 203.881 7.51019C203.792 7.48773 203.715 7.44867 203.619 7.44131C203.524 7.43395 203.414 7.45415 203.309 7.46333C203.205 7.47251 203.094 7.49543 202.999 7.48943C202.904 7.48207 202.814 7.45008 202.737 7.42189C202.648 7.38991 202.562 7.38778 202.445 7.40405C202.293 7.42519 202.135 7.4315 201.98 7.44456C201.894 7.42066 201.807 7.39403 201.718 7.37157C201.677 7.36027 201.626 7.34647 201.581 7.34883C201.372 7.36447 201.163 7.38554 200.955 7.40526C200.746 7.42497 200.746 7.42499 200.389 7.34873C200.347 7.34015 200.293 7.33049 200.249 7.33422C199.986 7.35652 199.727 7.38282 199.464 7.40512C199.363 7.41422 199.271 7.39727 199.187 7.36242C199.107 7.3275 199.012 7.30927 198.913 7.3183C198.496 7.35637 198.078 7.39309 197.66 7.4366C197.493 7.45402 197.35 7.44502 197.235 7.39866C197.1 7.34592 196.951 7.36291 196.796 7.37732C196.445 7.41252 196.442 7.41122 196.215 7.34697C196.171 7.33438 196.126 7.30955 196.085 7.31184C195.721 7.34053 195.353 7.36793 194.993 7.40879C194.803 7.43079 194.7 7.3855 194.573 7.35302C194.528 7.34179 194.48 7.31702 194.442 7.32061C194.179 7.34155 193.916 7.36114 193.66 7.39417C193.404 7.42721 193.303 7.30296 193.11 7.30872C192.847 7.31606 192.588 7.35325 192.328 7.3782C192.119 7.39791 191.91 7.41762 191.702 7.43734C191.493 7.45705 191.284 7.47404 191.075 7.49648C190.964 7.50852 190.882 7.49815 190.789 7.46624C190.671 7.42402 190.53 7.39185 190.403 7.35393C190.208 7.29984 190.208 7.29983 189.974 7.32148C189.923 7.32672 189.869 7.33066 189.819 7.33589C189.436 7.37453 189.436 7.37182 188.946 7.29723C188.923 7.29365 188.867 7.30992 188.845 7.3213C188.779 7.35817 188.72 7.39762 188.66 7.43571C188.574 7.41589 188.469 7.40603 188.412 7.37605C188.248 7.29132 187.997 7.41812 187.83 7.33483C187.769 7.30355 187.664 7.27737 187.569 7.27137C187.47 7.26544 187.36 7.28701 187.258 7.29747C186.996 7.32386 186.996 7.3225 186.774 7.44866C186.661 7.5111 186.496 7.50396 186.347 7.52094C186.192 7.53943 186.043 7.55098 185.912 7.49817C185.794 7.45052 185.651 7.44152 185.483 7.46166C185.278 7.48675 185.066 7.50381 184.857 7.5208C184.812 7.52453 184.758 7.51896 184.714 7.51181C184.227 7.44259 184.227 7.44124 183.993 7.46425C183.888 7.47479 183.781 7.47995 183.679 7.49449C183.509 7.52014 183.378 7.49454 183.254 7.45382C183.212 7.44116 183.164 7.41641 183.123 7.41871C182.914 7.43027 182.708 7.44719 182.502 7.46411C182.344 7.47723 182.186 7.48628 182.034 7.50878C181.781 7.54582 181.655 7.46021 181.48 7.42338C181.221 7.44696 180.958 7.46519 180.698 7.49558C180.578 7.5092 180.499 7.50692 180.406 7.47637C180.288 7.43824 180.179 7.39445 179.99 7.41917C179.737 7.45213 179.471 7.46771 179.211 7.48994C179.036 7.45174 178.907 7.36893 178.657 7.4059C178.506 7.4284 178.344 7.43615 178.189 7.45056C177.98 7.47028 177.771 7.48865 177.562 7.50972C177.338 7.53116 177.341 7.52701 176.993 7.45462C176.793 7.41155 176.588 7.46928 176.385 7.48205C176.227 7.49245 176.149 7.55681 176.189 7.63619C176.229 7.71557 176.145 7.78008 175.999 7.79427C175.635 7.8284 175.268 7.86395 174.904 7.89536C174.86 7.89908 174.806 7.89079 174.764 7.88221C174.373 7.80538 174.373 7.80676 174.199 7.82296C173.939 7.84927 173.673 7.86619 173.417 7.89787C173.24 7.91958 173.109 7.89399 172.994 7.85034C172.905 7.817 172.822 7.81071 172.708 7.82146C171.455 7.94112 170.202 8.05397 168.952 8.17627C168.765 8.19412 168.657 8.15714 168.529 8.1233C168.484 8.11207 168.442 8.08716 168.398 8.08817C168.293 8.09054 168.189 8.10517 168.085 8.1157C167.616 8.15901 167.148 8.20911 166.676 8.24432C166.477 8.25974 166.425 8.32354 166.34 8.37717C166.275 8.41812 166.199 8.43616 166.082 8.44427C165.968 8.4523 165.885 8.44737 165.796 8.41403C165.68 8.37038 165.55 8.34477 165.373 8.36784C165.167 8.39429 164.958 8.40858 164.746 8.42837C164.639 8.43762 164.557 8.46396 164.523 8.51372C164.517 8.52202 164.584 8.54092 164.622 8.55229C164.75 8.59021 164.872 8.63508 165.015 8.66039C165.161 8.68564 165.319 8.64939 165.471 8.63777C165.525 8.63382 165.575 8.62452 165.626 8.62472C165.674 8.625 165.731 8.63051 165.766 8.64196C165.932 8.69941 166.107 8.73761 166.335 8.6957C166.532 8.70892 166.636 8.81949 166.886 8.78388C167.037 8.76274 167.196 8.75098 167.354 8.74058C167.395 8.73828 167.44 8.76175 167.485 8.77299C167.612 8.80411 167.715 8.8562 167.905 8.82875C168.107 8.79966 168.322 8.79069 168.528 8.76696C168.642 8.75349 168.724 8.76114 168.814 8.79448C168.929 8.83677 169.06 8.8678 169.237 8.84201C169.389 8.81951 169.55 8.81175 169.705 8.79598C169.908 8.77641 169.908 8.77777 170.271 8.85388C170.312 8.86247 170.367 8.87212 170.411 8.86839C170.674 8.84609 170.933 8.81978 171.196 8.79748C171.297 8.78838 171.396 8.80382 171.466 8.84168C171.495 8.85735 171.486 8.88479 171.496 8.90769C170.974 8.9563 170.452 8.99946 169.933 9.05616C169.737 9.07831 169.647 9.02456 169.516 8.99624C169.472 8.98636 169.424 8.96433 169.382 8.96798C169.015 8.99946 168.651 9.03222 168.288 9.07043C168.174 9.08254 168.088 9.07904 168.002 9.04155C167.78 8.9418 167.515 9.00497 167.269 9.02555C167.079 9.04076 167.019 9.08429 167.044 9.17355C167.075 9.27899 167.189 9.30904 167.481 9.28337C167.585 9.27419 167.689 9.26229 167.794 9.25447C167.895 9.24672 167.988 9.26231 168.071 9.29716C168.151 9.33208 168.246 9.34896 168.345 9.34129C168.553 9.32429 168.766 9.30723 168.968 9.28222C169.136 9.26208 169.275 9.2725 169.394 9.32016C169.525 9.37297 169.677 9.35727 169.829 9.34157C170.183 9.3063 170.186 9.30759 170.41 9.37055C170.454 9.38315 170.499 9.40798 170.541 9.40568C170.905 9.377 171.272 9.35096 171.629 9.31017C171.816 9.2896 171.925 9.33067 172.049 9.36322C172.094 9.37445 172.139 9.40065 172.18 9.39699C172.443 9.37605 172.705 9.3551 172.962 9.32343C173.082 9.30845 173.155 9.31495 173.254 9.34536C173.49 9.42027 173.496 9.4174 173.829 9.384C173.93 9.37353 174.041 9.35605 174.136 9.36477C174.231 9.37349 174.308 9.41121 174.398 9.43367C174.439 9.44362 174.49 9.45742 174.534 9.45369C174.743 9.43805 174.952 9.41698 175.161 9.39727C175.357 9.37784 175.357 9.3792 175.727 9.45517C175.877 9.48714 176.031 9.45369 176.18 9.43942C176.341 9.4235 176.487 9.4202 176.612 9.47043C176.737 9.52066 176.886 9.51454 177.044 9.50006C177.193 9.48579 177.344 9.45243 177.497 9.48569C177.848 9.56209 177.848 9.56343 178.063 9.54221C178.376 9.51196 178.686 9.48314 179.003 9.45553C179.044 9.45188 179.098 9.46698 179.14 9.47692C179.229 9.49939 179.306 9.53845 179.401 9.54581C179.497 9.55453 179.607 9.53569 179.708 9.52522C180.034 9.49196 180.056 9.48194 180.277 9.56673C180.463 9.636 180.688 9.52472 180.861 9.60516C180.961 9.65052 181.095 9.68558 181.278 9.65828C181.43 9.63578 181.588 9.62673 181.746 9.61225C181.996 9.58888 181.996 9.59025 182.315 9.66465C182.357 9.67459 182.411 9.68696 182.452 9.6833C182.661 9.66767 182.873 9.65332 183.075 9.62423C183.313 9.59027 183.466 9.6385 183.644 9.68478C183.785 9.72105 183.949 9.68466 184.098 9.66767C184.259 9.6504 184.405 9.65116 184.526 9.70146C184.655 9.75298 184.803 9.7428 184.962 9.72831C185.11 9.71541 185.262 9.68066 185.415 9.71529C185.743 9.79219 185.743 9.79219 185.981 9.77047C186.189 9.75075 186.398 9.72968 186.607 9.71405C186.648 9.71039 186.699 9.72691 186.741 9.73822C186.83 9.76068 186.907 9.79976 187.003 9.80712C187.098 9.81448 187.208 9.79428 187.313 9.7851C187.417 9.77592 187.528 9.753 187.623 9.75899C187.718 9.76499 187.808 9.79698 187.885 9.82517C187.974 9.85852 188.057 9.86072 188.177 9.84438C188.328 9.82324 188.487 9.81556 188.642 9.80251C188.728 9.8264 188.817 9.85022 188.901 9.87691C188.987 9.90489 189.079 9.90008 189.196 9.88789C189.585 9.84639 189.588 9.8504 189.917 9.9273C190.066 9.962 190.221 9.92718 190.37 9.91428C190.528 9.89979 190.677 9.89097 190.802 9.94256C190.923 9.99151 191.072 9.99491 191.231 9.97499C191.332 9.9618 191.439 9.95257 191.544 9.94611C191.591 9.94367 191.649 9.94781 191.684 9.9579C191.853 10.0112 192.019 10.0591 192.25 10.0172C192.453 10.0234 192.557 10.1326 192.8 10.1053C193.006 10.0816 193.221 10.0726 193.424 10.0435C193.61 10.0175 193.744 10.0526 193.84 10.098C194.013 10.1785 194.252 10.0587 194.425 10.1378C194.524 10.1832 194.652 10.2184 194.841 10.1937C195.05 10.1671 195.117 10.1942 195.18 10.2785C195.215 10.3267 195.21 10.3663 195.148 10.4058C195.085 10.4467 195.015 10.4414 194.913 10.3989C194.794 10.3512 194.655 10.3449 194.487 10.3595C194.322 10.3742 194.219 10.3058 194.082 10.2817C193.945 10.2562 193.785 10.3075 193.641 10.274C193.303 10.196 193.303 10.196 193.076 10.2175C192.921 10.2319 192.759 10.241 192.607 10.2635C192.427 10.2907 192.309 10.2512 192.184 10.2159C192.14 10.2034 192.095 10.1785 192.057 10.1807C191.693 10.2094 191.325 10.2368 190.965 10.279C190.775 10.3011 190.673 10.2544 190.545 10.2233C190.5 10.212 190.452 10.1886 190.414 10.1922C190.101 10.2184 189.791 10.2499 189.478 10.2802C189.418 10.3183 189.352 10.3552 189.296 10.3959C189.237 10.4381 189.155 10.4576 189.035 10.459C188.835 10.4635 188.64 10.5251 188.438 10.4576C188.231 10.3888 188.215 10.3933 188.016 10.4155C187.763 10.4444 187.493 10.4451 187.256 10.5035C187.215 10.514 187.172 10.5408 187.172 10.5598C187.169 10.5722 187.236 10.5883 187.278 10.5983C187.418 10.6277 187.578 10.5765 187.719 10.6073C187.811 10.627 187.888 10.6579 187.98 10.6789C188.019 10.6876 188.076 10.6849 188.126 10.6824C188.18 10.6798 188.231 10.6692 188.281 10.6694C188.329 10.6696 188.38 10.6766 188.418 10.688C188.594 10.7357 188.779 10.7792 188.935 10.8368C189.089 10.8932 189.231 10.8492 189.383 10.843C189.993 10.9244 189.994 10.9257 190.402 10.8865C190.503 10.8774 190.607 10.8669 190.712 10.8658C190.756 10.8648 190.798 10.8884 190.843 10.901C190.971 10.9389 191.092 10.9729 191.269 10.9471C191.421 10.9246 191.582 10.9168 191.737 10.901C191.946 10.8813 191.946 10.8813 192.303 10.9589C192.392 10.9787 192.487 10.9738 192.601 10.9603C192.699 10.9486 192.801 10.9667 192.872 11.0045C192.901 11.0202 192.892 11.0476 192.902 11.0705C192.589 11.0994 192.272 11.1216 191.968 11.1612C191.772 11.186 191.682 11.1296 191.552 11.1012C191.507 11.0914 191.459 11.0693 191.418 11.073C191.108 11.1004 190.797 11.1306 190.487 11.1649C190.45 11.1685 190.403 11.2008 190.4 11.2199C190.394 11.2554 190.474 11.2876 190.588 11.2837C190.741 11.2789 190.889 11.2524 191.027 11.305C191.142 11.3514 191.285 11.3699 191.452 11.3443C191.554 11.3298 191.661 11.3273 191.763 11.3142C192.031 11.2754 192.275 11.2766 192.48 11.3645C192.636 11.3855 192.788 11.3589 192.937 11.3433C193.047 11.3312 193.155 11.3192 193.235 11.3433C193.404 11.3939 193.57 11.4445 193.801 11.4025C194.052 11.4349 194.244 11.5108 194.455 11.5714C194.554 11.6004 194.63 11.6164 194.744 11.5934C194.791 11.5841 194.848 11.5828 194.899 11.5776C195.003 11.5684 195.114 11.5455 195.209 11.5515C195.304 11.5589 195.384 11.5965 195.471 11.619C195.512 11.6303 195.56 11.6497 195.601 11.6474C195.76 11.637 195.915 11.6198 196.07 11.6054C196.225 11.5924 196.38 11.5793 196.535 11.5663C196.666 11.5987 196.8 11.631 196.93 11.6634C197.139 11.6437 197.348 11.624 197.554 11.6057C197.785 11.5841 197.785 11.5855 198.12 11.6622C198.269 11.6969 198.427 11.6689 198.57 11.6479C198.807 11.614 198.966 11.6621 199.136 11.7126C199.171 11.7227 199.234 11.7281 199.275 11.7217C199.44 11.6989 199.583 11.7106 199.704 11.7582C199.791 11.7916 199.877 11.806 199.981 11.7968C200.345 11.7627 200.709 11.7272 201.073 11.6958C201.117 11.6921 201.168 11.7032 201.21 11.7131C201.535 11.7887 201.538 11.7927 201.775 11.7656C201.987 11.7417 202.184 11.7291 202.353 11.8001C202.388 11.8156 202.443 11.8375 202.481 11.8353C202.74 11.8158 203.003 11.7948 203.259 11.7659C203.377 11.7523 203.459 11.7545 203.552 11.7837C203.67 11.8205 203.776 11.8657 203.968 11.8436C204.503 11.7811 204.506 11.7892 205.142 11.8686C205.187 11.8744 205.247 11.8622 205.298 11.8556C205.405 11.8396 205.485 11.8568 205.58 11.8859C205.794 11.9518 205.801 11.9476 206.003 11.928C206.158 11.9122 206.32 11.9059 206.471 11.882C206.705 11.8467 206.862 11.8963 207.037 11.9426C207.178 11.9789 207.339 11.9426 207.487 11.9269C207.649 11.9097 207.795 11.9104 207.916 11.9594C207.999 11.9929 208.089 12.0099 208.193 12.0007C208.557 11.9679 208.921 11.9324 209.285 11.8997C209.329 11.896 209.383 11.9056 209.425 11.9142C209.788 11.9903 209.788 11.9944 210.146 11.955C210.259 11.9429 210.354 11.938 210.441 11.9646C210.524 11.9899 210.613 12.0137 210.699 12.0376C210.854 12.0246 211.013 12.0183 211.165 11.9985C211.282 11.9836 211.364 11.9871 211.457 12.0136C211.578 12.0476 211.681 12.1092 211.87 12.0736C211.968 12.0564 212.082 12.0579 212.18 12.0421C212.297 12.0217 212.377 12.0308 212.469 12.0641C212.585 12.1036 212.703 12.1445 212.886 12.1185C213.088 12.0895 213.304 12.0805 213.509 12.0568C213.623 12.0433 213.703 12.0524 213.796 12.0856C213.911 12.1279 214.041 12.1535 214.218 12.1318C214.579 12.0896 214.582 12.0963 214.936 12.174C215.025 12.1938 215.12 12.1889 215.234 12.1754C215.332 12.1636 215.434 12.1817 215.505 12.2196C215.572 12.2616 215.567 12.2889 215.573 12.3119ZM187.045 0.687602C186.941 0.696779 186.837 0.707317 186.682 0.59245C186.672 0.572266 186.678 0.547645 186.655 0.530468C186.603 0.494899 186.524 0.470861 186.428 0.468942C186.257 0.467392 186.052 0.51831 186.056 0.5536C186.06 0.583449 186.114 0.608061 186.22 0.630164C186.264 0.638676 186.299 0.654206 186.341 0.664149C186.462 0.692693 186.559 0.751744 186.732 0.7165C186.715 0.674698 186.699 0.632897 186.732 0.7165C186.718 0.768542 186.766 0.804185 186.88 0.816552C186.912 0.819911 186.96 0.816103 186.985 0.807367C187.082 0.775212 187.097 0.734059 187.022 0.628272C187.01 0.646241 187.02 0.677295 187.049 0.684807C187.077 0.692319 187.147 0.683942 187.181 0.673629C187.27 0.645771 187.313 0.610757 187.29 0.5827C187.277 0.568027 187.217 0.550356 187.179 0.551221C187.112 0.552734 187.053 0.584021 187.045 0.687602ZM213.04 15.8776C212.809 15.9087 212.542 15.9052 212.312 15.9635C212.271 15.974 212.231 15.9994 212.228 16.0185C212.225 16.0308 212.289 16.0471 212.327 16.0557C212.413 16.0756 212.508 16.0666 212.619 16.0573C212.787 16.0439 212.886 16.1042 213.017 16.1326C213.058 16.1412 213.112 16.1467 213.157 16.143C213.413 16.1208 213.666 16.0974 213.923 16.0725C213.967 16.0675 214.014 16.0568 214.052 16.0437C214.178 16.0014 214.165 15.9759 214.04 15.9488C213.903 15.9192 213.794 15.8672 213.654 15.8446C213.454 15.8124 213.252 15.866 213.04 15.8776ZM195.062 17.2796C194.907 17.294 194.755 17.3084 194.6 17.3228C194.55 17.328 194.496 17.3306 194.448 17.3371C194.35 17.3489 194.278 17.3791 194.232 17.425C194.305 17.4587 194.395 17.4771 194.493 17.4708C194.648 17.4591 194.8 17.438 194.955 17.4304C195.123 17.4211 195.222 17.4801 195.353 17.5084C195.394 17.517 195.445 17.5172 195.493 17.5175C195.727 17.5176 195.868 17.4436 195.822 17.3454C195.788 17.2686 195.667 17.2251 195.521 17.2379C195.369 17.2509 195.214 17.2653 195.062 17.2796ZM214.077 13.8428C214.115 13.8188 214.156 13.8016 214.174 13.7807C214.23 13.7101 214.206 13.6589 214.1 13.6069C213.972 13.5431 213.818 13.5915 213.675 13.6015C213.64 13.6037 213.603 13.6331 213.584 13.6512C213.572 13.6638 213.573 13.6896 213.592 13.696C213.748 13.7469 213.914 13.7934 214.077 13.8428ZM186.488 10.4502C186.336 10.4646 186.181 10.4762 186.029 10.4947C185.991 10.4996 185.957 10.5262 185.935 10.5444C185.895 10.578 185.94 10.6219 186.07 10.623C186.219 10.6251 186.374 10.5984 186.529 10.584C186.725 10.5659 186.841 10.5129 186.767 10.4711C186.697 10.4305 186.601 10.4245 186.488 10.4502ZM19.5745 11.3364C19.6758 11.3273 19.7803 11.3195 19.8815 11.3077C19.9764 11.296 20.0486 11.2644 20.0951 11.2184C20.0151 11.1849 19.9258 11.1678 19.8277 11.1742C19.6726 11.1859 19.5207 11.2002 19.3689 11.2172C19.274 11.2276 19.1828 11.2596 19.1616 11.3063C19.1403 11.3422 19.353 11.3578 19.5745 11.3364ZM173.011 7.63902C173.053 7.65032 173.095 7.67387 173.136 7.67293C173.237 7.67063 173.342 7.66008 173.437 7.64432C173.478 7.63795 173.509 7.61275 173.527 7.59327C173.54 7.58075 173.536 7.55906 173.517 7.54861C173.423 7.48542 173.056 7.5169 172.998 7.59307C172.992 7.60681 173.008 7.62413 173.011 7.63902ZM162.839 0.418656C162.849 0.440201 162.853 0.461887 162.866 0.48336C162.892 0.523585 162.963 0.551928 163.065 0.570023C163.143 0.534221 163.183 0.495207 163.179 0.454478C163.176 0.432789 163.166 0.411231 163.152 0.389758C163.126 0.349533 163.056 0.321206 162.954 0.303111C162.875 0.337554 162.838 0.376495 162.839 0.418656ZM221.477 16.9159C221.449 16.9343 221.421 16.9526 221.389 16.9696C221.476 17.0071 221.556 17.0176 221.615 16.9944C221.653 16.98 221.675 16.9591 221.703 16.9407C221.616 16.9033 221.54 16.8941 221.477 16.9159ZM219.51 17.1457C219.551 17.157 219.59 17.1725 219.634 17.1796C219.708 17.1916 219.774 17.1669 219.823 17.1168C219.782 17.1055 219.743 17.0901 219.699 17.0829C219.625 17.071 219.559 17.0956 219.51 17.1457ZM220.753 16.8685C220.731 16.9016 220.777 16.9278 220.894 16.9482C220.922 16.9299 220.96 16.9127 220.979 16.8933C221.01 16.8613 220.955 16.8339 220.84 16.8148C220.809 16.8318 220.781 16.8501 220.753 16.8685ZM214.028 15.5544C214.007 15.5876 214.052 15.6137 214.169 15.6342C214.197 15.6159 214.235 15.5987 214.254 15.5792C214.285 15.5472 214.23 15.5199 214.116 15.5007C214.084 15.5177 214.056 15.5361 214.028 15.5544ZM204.69 6.13785C204.662 6.15618 204.633 6.17451 204.602 6.19155C204.689 6.22905 204.768 6.23948 204.828 6.21635C204.866 6.20189 204.887 6.18098 204.915 6.16265C204.829 6.12515 204.753 6.11601 204.69 6.13785ZM195.839 1.23068C195.916 1.23847 195.979 1.218 196.031 1.16645C195.99 1.15515 195.951 1.13969 195.907 1.13254C195.834 1.1206 195.768 1.14524 195.718 1.19535C195.76 1.20801 195.801 1.21931 195.839 1.23068ZM191.195 1.01648C191.167 1.03481 191.139 1.05314 191.107 1.07018C191.194 1.10768 191.273 1.11811 191.333 1.09498C191.371 1.08052 191.392 1.05961 191.421 1.04128C191.334 1.00379 191.258 0.995998 191.195 1.01648ZM159.72 0.488191C159.692 0.50652 159.664 0.52485 159.633 0.541891C159.719 0.579388 159.799 0.589823 159.858 0.566693C159.896 0.552228 159.918 0.531322 159.946 0.512993C159.859 0.475497 159.783 0.467709 159.72 0.488191ZM3.39943 15.1128C3.35794 15.1015 3.31649 15.0902 3.27814 15.0775C3.18707 15.1163 3.15934 15.1509 3.21065 15.1756C3.24272 15.1912 3.29045 15.1997 3.33194 15.211C3.42618 15.1721 3.4476 15.1389 3.39943 15.1128Z" fill="#FFE492"/>
</svg>
