<svg width="289" height="27" viewBox="0 0 289 27" fill="none" xmlns="http://www.w3.org/2000/svg">
<path d="M271.286 13.8652C270.891 13.8872 270.491 13.9023 270.104 13.9352C269.852 13.9558 269.744 13.8954 269.577 13.8639C269.521 13.8529 269.461 13.8309 269.409 13.8337C269.017 13.8556 268.626 13.8803 268.234 13.905C268.114 13.9585 268.039 14.0299 267.855 14.056C267.675 14.0807 267.463 14.0807 267.264 14.093C267 14.1081 266.736 14.1232 266.473 14.1369C266.341 14.1438 266.233 14.1699 266.189 14.2193C266.181 14.2275 266.269 14.2481 266.317 14.2604C266.477 14.3016 266.632 14.3483 266.808 14.3798C266.976 14.41 267.184 14.3606 267.363 14.399C267.767 14.4855 267.771 14.4841 268.079 14.4676C268.342 14.4525 268.606 14.4361 268.869 14.4251C268.921 14.4224 268.981 14.4429 269.037 14.4539C269.205 14.4841 269.313 14.5527 269.561 14.5267C269.748 14.5061 269.956 14.502 270.152 14.491C270.316 14.5308 270.467 14.576 270.643 14.6076C270.807 14.6378 270.855 14.6611 270.767 14.7009C270.687 14.738 270.575 14.7531 270.427 14.7558C270.296 14.7572 270.164 14.7695 270.032 14.7764C269.964 14.7805 269.9 14.7833 269.836 14.7874C269.584 14.8025 269.584 14.8025 269.125 14.7146C268.945 14.6803 268.742 14.7284 268.57 14.6954C268.454 14.6735 268.354 14.6406 268.242 14.6172C268.194 14.6076 268.118 14.6062 268.059 14.609C267.859 14.6186 267.659 14.6255 267.467 14.6433C267.332 14.6556 267.252 14.6941 267.268 14.7325C267.272 14.7476 267.367 14.7695 267.423 14.7709C267.551 14.7737 267.687 14.7544 267.811 14.764C267.931 14.7737 268.055 14.8011 268.142 14.8313C268.322 14.8944 268.526 14.8382 268.698 14.8546C268.877 14.8725 269.025 14.9274 269.197 14.9603C269.241 14.9685 269.325 14.9548 269.393 14.9507C269.588 14.9411 269.784 14.9328 269.98 14.9232C270.144 14.963 270.32 14.9987 270.467 15.044C270.735 15.1263 271.023 15.1579 271.37 15.1181C271.566 15.0961 271.758 15.1044 271.913 15.1579C272.073 15.2128 272.257 15.2073 272.461 15.1963C272.648 15.1853 272.84 15.1551 273.032 15.1936C273.447 15.2786 273.451 15.2828 273.943 15.2498C274.09 15.2402 274.202 15.2375 274.314 15.269C274.418 15.2979 274.53 15.3226 274.638 15.35C274.833 15.3404 275.033 15.3308 275.229 15.3198C275.481 15.3047 275.62 15.3239 275.68 15.4008C275.716 15.4474 275.732 15.49 275.82 15.5215C275.924 15.56 276.036 15.5586 276.188 15.5476C276.331 15.538 276.435 15.5229 276.495 15.4735C276.519 15.4529 276.567 15.4337 276.611 15.4172C276.647 15.4049 276.703 15.3857 276.735 15.3884C276.795 15.3939 276.875 15.409 276.895 15.4268C277.09 15.5929 277.09 15.5943 277.29 15.6423C277.51 15.6958 277.738 15.7438 277.937 15.8042C278.117 15.8577 278.297 15.8344 278.493 15.8344C278.64 15.8344 278.736 15.8701 278.724 15.9058C278.716 15.9263 278.66 15.9565 278.612 15.9593C278.221 15.9867 277.825 16.01 277.43 16.0293C277.382 16.032 277.322 16.0073 277.266 15.9949C277.154 15.9702 277.055 15.9318 276.935 15.9236C276.815 15.9154 276.675 15.9359 276.543 15.9428C276.411 15.9497 276.272 15.9675 276.152 15.9565C276.032 15.9456 275.936 15.9058 275.824 15.8797C275.772 15.8673 275.7 15.8495 275.656 15.8536C275.365 15.8866 275.149 15.8413 274.941 15.7809C274.897 15.7685 274.822 15.7603 274.766 15.763C274.302 15.7864 273.843 15.8138 273.379 15.8399C273.192 15.8509 273.04 15.8028 273 15.7219C272.98 15.6766 272.94 15.6313 272.94 15.586C272.94 15.5037 272.72 15.4584 272.561 15.468C272.297 15.4817 272.029 15.4927 271.77 15.5133C271.558 15.5298 271.378 15.5133 271.234 15.4639C271.067 15.4076 270.875 15.4186 270.683 15.4337C270.539 15.4447 270.499 15.49 270.507 15.6039C270.515 15.6958 270.447 15.7246 270.188 15.7397C269.86 15.7589 269.529 15.7781 269.197 15.7932C269.145 15.796 269.085 15.7726 269.033 15.7603C268.921 15.7356 268.821 15.6958 268.702 15.6876C268.582 15.678 268.442 15.6985 268.31 15.7068C268.178 15.7136 268.039 15.7329 267.919 15.7232C267.799 15.7136 267.699 15.6725 267.591 15.6464C267.539 15.6341 267.475 15.6162 267.423 15.619C267.16 15.6299 266.896 15.6464 266.632 15.6615C266.337 15.678 266.337 15.678 265.917 15.5929C265.726 15.5545 265.534 15.5847 265.346 15.5956C265.146 15.6066 264.959 15.6121 264.803 15.5572C264.699 15.5215 264.583 15.4996 264.459 15.5064C264.128 15.5229 263.8 15.5435 263.469 15.56C263.413 15.5627 263.337 15.5558 263.293 15.5435C263.081 15.4859 262.873 15.4406 262.578 15.4694C262.322 15.4941 262.047 15.4955 261.791 15.5188C261.651 15.5311 261.587 15.575 261.615 15.6094C261.631 15.6272 261.715 15.6478 261.771 15.6478C261.899 15.6492 262.039 15.6286 262.158 15.6368C262.406 15.6533 262.53 15.7685 262.853 15.737C263.045 15.7178 263.245 15.7109 263.445 15.7054C263.497 15.704 263.553 15.7301 263.608 15.7438C263.768 15.7809 263.908 15.8289 264.14 15.8042C264.331 15.785 264.535 15.7795 264.731 15.7685C265.043 15.7507 265.043 15.7521 265.446 15.8358C265.638 15.8756 265.829 15.844 266.017 15.8344C266.157 15.8275 266.289 15.8138 266.401 15.833C266.572 15.8618 266.696 15.9277 266.908 15.9236C267.108 15.9195 267.304 15.9003 267.503 15.8934C267.627 15.8893 267.743 15.9112 267.843 15.9483C267.947 15.9853 268.058 16.0018 268.194 15.9936C268.39 15.9826 268.59 15.9689 268.789 15.962C268.845 15.9606 268.909 15.973 268.961 15.984C269.073 16.0087 269.181 16.0375 269.289 16.0636C269.485 16.0553 269.684 16.0526 269.876 16.0361C270.024 16.0238 270.128 16.0293 270.248 16.0567C270.399 16.0938 270.523 16.1596 270.771 16.1281C270.895 16.113 271.039 16.1171 271.162 16.1034C271.314 16.0855 271.418 16.0924 271.526 16.1335C271.73 16.2118 271.985 16.2131 272.249 16.1829C272.537 16.15 272.752 16.1884 272.968 16.2488C273.196 16.312 273.196 16.3106 273.371 16.4629C273.423 16.5068 273.571 16.5274 273.695 16.5192C273.903 16.5054 274.082 16.5123 274.234 16.5644C274.394 16.6207 274.586 16.6138 274.782 16.5987C275.041 16.5782 275.301 16.5603 275.513 16.6399C275.616 16.6783 275.728 16.6879 275.868 16.6783C276.264 16.6536 276.663 16.6385 277.051 16.6084C277.286 16.5891 277.422 16.633 277.582 16.6701C277.797 16.7209 278.033 16.7662 278.033 16.8746C278.033 16.8924 278.089 16.913 278.137 16.9267C278.241 16.9555 278.353 16.9802 278.461 17.0077C278.62 17.0488 278.776 17.0831 278.996 17.0612C279.188 17.0433 279.391 17.0379 279.587 17.0255C279.783 17.0132 279.963 17.0063 280.138 17.0584C280.342 17.1174 280.558 17.1737 280.79 17.2176C280.953 17.2492 281.169 17.1957 281.345 17.2382C281.453 17.2643 281.556 17.2945 281.672 17.3164C281.72 17.326 281.796 17.3192 281.86 17.3164C281.992 17.3109 282.128 17.3068 282.256 17.2931C282.403 17.278 282.515 17.2808 282.627 17.3123C282.731 17.3411 282.835 17.3809 282.955 17.3892C283.134 17.4015 283.334 17.3466 283.514 17.4097C283.606 17.4413 283.722 17.4715 283.841 17.4811C283.961 17.4907 284.101 17.4701 284.229 17.4715C284.285 17.4715 284.353 17.4934 284.385 17.5113C284.405 17.5209 284.377 17.547 284.349 17.5607C284.313 17.5772 284.261 17.5991 284.209 17.6019C283.814 17.6266 283.418 17.6471 283.023 17.6705C282.787 17.6842 282.787 17.6842 282.312 17.5977C282.2 17.5772 282.076 17.5813 281.936 17.5909C281.748 17.6032 281.557 17.6266 281.361 17.6019C281.105 17.5085 280.79 17.5003 280.454 17.536C280.314 17.5511 280.186 17.5511 280.082 17.525C279.863 17.4729 279.631 17.4248 279.435 17.3631C279.284 17.3151 279.212 17.3109 279.148 17.3768C279.128 17.3974 279.108 17.4193 279.112 17.4386C279.136 17.5072 279.18 17.5744 279.204 17.643C279.212 17.6622 279.18 17.6842 279.16 17.7048C279.096 17.7624 279.012 17.7583 278.872 17.7103C278.732 17.6622 278.565 17.6307 278.341 17.6526C278.149 17.6718 277.941 17.6691 277.75 17.6897C277.454 17.7199 277.246 17.676 277.035 17.617C276.991 17.6046 276.915 17.5977 276.859 17.6005C276.264 17.632 275.672 17.6677 275.077 17.6993C274.949 17.7061 274.834 17.6856 274.734 17.6485C274.63 17.6115 274.514 17.5923 274.386 17.5991C273.859 17.6279 273.331 17.654 272.804 17.6897C272.588 17.7048 272.417 17.6869 272.269 17.6389C272.157 17.6032 272.053 17.5922 271.913 17.5964C271.762 17.6005 271.654 17.6142 271.578 17.654C271.506 17.6924 271.558 17.7157 271.718 17.7459C271.889 17.7789 272.049 17.8214 272.213 17.8598C272.345 17.8544 272.477 17.8434 272.604 17.8447C272.66 17.8447 272.712 17.8694 272.768 17.8832C272.928 17.923 273.076 17.9628 273.303 17.9408C273.495 17.9216 273.699 17.9175 273.895 17.9051C274.166 17.89 274.166 17.89 274.606 17.9765C274.718 17.9984 274.837 17.9971 274.981 17.9847C275.105 17.9751 275.233 17.9943 275.321 18.0355C275.357 18.0519 275.345 18.0794 275.269 18.17C275.269 18.2372 275.353 18.207 275.381 18.1631C275.425 18.1 275.341 18.0794 275.181 18.1137C275.069 18.1384 275.013 18.1741 275.041 18.2029C275.057 18.218 275.133 18.2372 275.269 18.17C275.62 18.0876 275.888 18.078 276.144 18.0561C276.296 18.0437 276.391 18.0492 276.511 18.0849C276.655 18.1274 276.799 18.1727 277.035 18.1508C277.29 18.1261 277.562 18.1233 277.822 18.1027C278.061 18.0835 278.185 18.1439 278.337 18.1796C278.521 18.2221 278.724 18.1741 278.892 18.1988C279.068 18.2235 279.192 18.2839 279.395 18.2948C279.691 18.2578 279.879 18.3264 280.102 18.3717C280.278 18.406 280.486 18.3758 280.674 18.3607C280.885 18.3442 281.061 18.3593 281.209 18.4087C281.377 18.465 281.565 18.4527 281.756 18.4403C282.204 18.4129 282.22 18.4087 282.479 18.4842C282.667 18.5391 282.847 18.5144 283.035 18.5075C283.198 18.5446 283.358 18.5844 283.53 18.6173C283.574 18.6255 283.658 18.6118 283.726 18.6077C283.921 18.5967 284.121 18.5858 284.317 18.5748C284.449 18.5679 284.588 18.5473 284.708 18.5556C284.828 18.5652 284.928 18.605 285.036 18.631C285.144 18.6571 285.256 18.6832 285.359 18.7106C285.519 18.7518 285.671 18.7861 285.895 18.7655C286.086 18.7477 286.286 18.7422 286.486 18.7298C286.738 18.7147 286.73 18.7189 287.197 18.8012C287.449 18.8465 287.708 18.7916 287.964 18.7861C288.092 18.7834 288.216 18.7985 288.304 18.8383C288.339 18.8547 288.328 18.8822 288.34 18.9055C287.68 18.9425 287.017 18.9741 286.366 19.0194C286.114 19.0372 285.983 18.9878 285.847 18.9466C285.623 18.8808 285.328 18.9768 285.116 18.8918C284.988 18.841 284.804 18.8122 284.584 18.8369C284.457 18.8506 284.321 18.8492 284.189 18.8616C283.853 18.8918 283.546 18.8931 283.278 18.7985C283.186 18.7655 283.055 18.7477 282.959 18.7161C282.847 18.6818 282.739 18.6626 282.607 18.6695C282.012 18.7024 281.421 18.7353 280.829 18.771C280.778 18.7737 280.726 18.7943 280.682 18.8094C280.57 18.8478 280.606 18.878 280.786 18.9027C280.845 18.911 280.893 18.9288 280.949 18.9425C281.057 18.9686 281.157 19.0098 281.277 19.0194C281.397 19.029 281.537 19.0098 281.668 19.0029C281.8 18.9961 281.94 18.9755 282.06 18.9837C282.18 18.9933 282.28 19.0331 282.391 19.0578C282.443 19.0702 282.507 19.0907 282.559 19.0894C282.823 19.0811 283.083 19.066 283.346 19.0537C283.51 19.0907 283.65 19.1443 283.845 19.1566C283.969 19.1648 284.101 19.1497 284.229 19.1525C284.285 19.1539 284.357 19.1744 284.385 19.1923C284.401 19.2033 284.349 19.2307 284.309 19.2444C284.157 19.2966 283.949 19.287 283.762 19.3034C283.558 19.3213 283.374 19.3158 283.218 19.2623C283.114 19.2266 282.999 19.2074 282.871 19.2142C282.539 19.2321 282.212 19.2527 281.88 19.2678C281.824 19.2705 281.756 19.2582 281.704 19.2486C281.285 19.1648 281.285 19.1621 280.989 19.1799C280.554 19.206 280.554 19.206 280.262 19.1333C280.206 19.1196 280.146 19.0935 280.098 19.0949C279.635 19.1168 279.176 19.1388 278.716 19.1703C278.565 19.1799 278.461 19.1799 278.349 19.1443C278.253 19.1141 278.141 19.0798 278.021 19.0715C277.897 19.0633 277.762 19.0839 277.63 19.0907C277.498 19.0976 277.358 19.1154 277.242 19.1045C277.122 19.0935 277.019 19.0551 276.915 19.0276C276.807 18.9988 276.691 19.0002 276.543 19.0111C276.088 19.0427 276.084 19.0386 275.632 18.9535C275.58 18.9439 275.513 18.9329 275.457 18.9357C275.125 18.9521 274.798 18.9727 274.466 18.9892C274.338 18.9961 274.214 18.9782 274.126 18.9384C274.09 18.922 274.103 18.8945 274.079 18.841C274.051 18.8286 274.082 18.8506 274.09 18.8712C274.15 18.8684 274.222 18.8712 274.266 18.8602C274.378 18.8341 274.434 18.7998 274.406 18.771C274.39 18.7559 274.314 18.7367 274.266 18.7367C274.178 18.7367 274.103 18.7669 274.079 18.841C273.827 18.8863 273.559 18.8959 273.299 18.9178C273.148 18.9316 273.052 18.9247 272.932 18.889C272.788 18.8451 272.64 18.8026 272.405 18.8245C272.149 18.8492 271.877 18.8533 271.614 18.8726C271.31 18.8945 271.178 18.771 270.923 18.7737C270.659 18.7765 270.395 18.7998 270.132 18.8163C269.9 18.83 269.9 18.83 269.421 18.7408C269.245 18.7079 269.037 18.7559 268.865 18.7216C268.75 18.6996 268.65 18.6667 268.538 18.6434C268.49 18.6338 268.414 18.6338 268.354 18.6365C268.023 18.653 267.687 18.664 267.367 18.6942C267.004 18.7298 266.728 18.6914 266.469 18.6105C266.141 18.6256 265.81 18.6338 265.486 18.6599C265.25 18.6791 265.114 18.6338 264.955 18.5967C264.899 18.5844 264.851 18.5638 264.791 18.5583C264.731 18.5528 264.659 18.5638 264.595 18.5679C264.331 18.583 264.06 18.5899 263.804 18.6146C263.489 18.6461 263.369 18.5336 263.125 18.5199C262.961 18.5871 262.873 18.6791 262.55 18.6859C262.286 18.6914 262.023 18.7134 261.759 18.7285C261.627 18.7353 261.495 18.7436 261.363 18.7504C261.152 18.7628 261.052 18.8163 261.096 18.8986C261.12 18.9439 261.14 18.9892 261.16 19.0345C261.2 19.1154 261.1 19.1841 260.932 19.1937C260.469 19.2197 260.009 19.2472 259.546 19.2705C259.422 19.2774 259.302 19.254 259.202 19.217C259.098 19.1799 258.983 19.1635 258.855 19.1703C258.391 19.1964 257.932 19.2239 257.469 19.2472C257.417 19.2499 257.349 19.2362 257.297 19.2252C257.185 19.2005 257.077 19.1717 256.969 19.1456C256.706 19.158 256.446 19.1662 256.186 19.1827C255.767 19.2074 255.767 19.2087 255.459 19.1333C255.403 19.1196 255.348 19.0935 255.296 19.0949C255.096 19.1004 254.9 19.1141 254.7 19.1264C254.113 19.1621 254.113 19.1621 253.941 19.1209C253.786 19.0825 253.646 19.0359 253.41 19.0578C253.154 19.0825 252.883 19.0907 252.619 19.1045C252.423 19.1141 252.228 19.1251 252.032 19.1278C251.98 19.1292 251.924 19.1031 251.868 19.0894C251.708 19.0468 251.553 19.0125 251.333 19.0358C251.205 19.0496 251.069 19.0523 250.937 19.0592C250.594 19.0784 250.594 19.0784 250.031 18.996C249.975 18.9878 249.907 18.9782 249.851 18.9823C249.387 19.007 248.928 19.0345 248.465 19.0578C248.409 19.0606 248.341 19.0523 248.285 19.0454C247.654 18.9659 247.654 18.9659 246.983 19.0043C246.727 19.018 246.719 19.0235 246.451 18.9508C246.331 18.9192 246.232 18.9041 246.092 18.9137C245.565 18.9467 245.033 18.9686 244.51 19.007C244.274 19.0235 244.138 18.9823 243.979 18.9453C243.923 18.9329 243.863 18.9055 243.815 18.9069C243.288 18.9329 242.76 18.9645 242.233 18.9906C242.185 18.9933 242.125 18.9659 242.069 18.9535C241.961 18.9288 241.857 18.8918 241.738 18.8835C241.614 18.8753 241.478 18.8959 241.342 18.9027C241.011 18.9206 241.011 18.9192 240.627 18.8383C240.575 18.8273 240.507 18.8122 240.455 18.8149C239.928 18.8424 239.397 18.8657 238.873 18.9055C238.574 18.9274 238.37 18.8876 238.158 18.83C238.114 18.8177 238.039 18.8122 237.983 18.8149C237.387 18.8465 236.796 18.8822 236.201 18.9137C236.077 18.9206 235.957 18.8972 235.857 18.8616C235.698 18.8053 235.51 18.8122 235.31 18.8245C234.851 18.8533 234.847 18.852 234.575 18.7861C234.519 18.7724 234.471 18.7545 234.411 18.7477C234.355 18.7408 234.284 18.7449 234.224 18.7477C233.96 18.7614 233.696 18.7765 233.433 18.7916C233.169 18.8067 232.901 18.8149 232.642 18.8383C232.322 18.8671 232.17 18.7779 231.947 18.7367C231.619 18.7545 231.284 18.7655 230.96 18.7943C230.712 18.8163 230.597 18.7559 230.433 18.7243C230.377 18.7134 230.317 18.69 230.265 18.6928C229.67 18.723 229.075 18.7559 228.483 18.793C228.339 18.8012 228.244 18.7902 228.124 18.7573C227.856 18.6832 227.844 18.6859 227.397 18.7134C227.201 18.7257 227.013 18.7367 226.845 18.6804C226.698 18.6297 226.518 18.6173 226.306 18.6338C226.047 18.6544 225.779 18.6653 225.515 18.6791C225.252 18.6942 224.988 18.7147 224.724 18.7216C224.513 18.7285 224.385 18.664 224.217 18.631C224.165 18.6214 224.093 18.6201 224.033 18.6228C223.77 18.6352 223.498 18.6448 223.242 18.6681C222.931 18.6969 222.759 18.6214 222.539 18.5775C222.491 18.5679 222.411 18.5734 222.351 18.5775C221.888 18.6022 221.429 18.6297 220.965 18.6557C220.802 18.6187 220.634 18.583 220.47 18.546C220.206 18.5597 219.943 18.5748 219.679 18.5885C219.479 18.5995 219.276 18.6036 219.088 18.6242C218.844 18.6516 218.724 18.5871 218.56 18.5556C218.505 18.5446 218.445 18.5213 218.393 18.524C218.061 18.5391 217.73 18.5556 217.402 18.5789C217.09 18.6022 216.967 18.4787 216.711 18.4801C216.447 18.4815 216.176 18.4993 215.92 18.524C215.624 18.5528 215.417 18.5089 215.205 18.4499C215.161 18.4375 215.085 18.4307 215.029 18.4334C214.698 18.4499 214.37 18.4705 214.039 18.4869C213.983 18.4897 213.915 18.4828 213.859 18.4746C213.228 18.3936 213.228 18.3923 212.952 18.4087C212.756 18.4197 212.557 18.4334 212.357 18.4403C212.301 18.443 212.233 18.4307 212.181 18.4197C211.766 18.336 211.766 18.3346 211.466 18.3511C211.202 18.3662 210.939 18.3813 210.675 18.3964C210.511 18.3593 210.343 18.3237 210.18 18.2866C209.852 18.3044 209.517 18.3182 209.193 18.3429C209.041 18.3538 208.941 18.3497 208.826 18.3154C208.682 18.2743 208.538 18.2262 208.298 18.2496C208.043 18.2743 207.771 18.277 207.511 18.2976C207.2 18.3223 207.072 18.1974 206.82 18.1988C206.557 18.2002 206.285 18.218 206.029 18.2427C205.734 18.2715 205.526 18.2276 205.314 18.1686C205.27 18.1562 205.194 18.1494 205.138 18.1521C204.411 18.1919 203.688 18.2317 202.961 18.2742C202.514 18.3003 202.514 18.3017 201.663 18.2262C201.603 18.2207 201.539 18.2153 201.479 18.218C201.216 18.2303 200.944 18.2399 200.688 18.2633C200.377 18.2921 200.205 18.218 199.985 18.1727C199.937 18.1631 199.861 18.1686 199.798 18.1713C199.598 18.1809 199.402 18.1933 199.202 18.2043C198.939 18.2194 198.675 18.2345 198.411 18.2496C198.248 18.2139 198.08 18.1768 197.916 18.1411C197.588 18.159 197.253 18.1686 196.929 18.1974C196.682 18.2194 196.566 18.1617 196.402 18.1288C196.346 18.1178 196.286 18.0945 196.234 18.0959C195.639 18.1261 195.044 18.1576 194.453 18.196C194.209 18.2125 194.097 18.1507 193.933 18.1192C193.877 18.1096 193.814 18.0917 193.762 18.0945C193.366 18.1137 192.971 18.137 192.575 18.1604C192.352 18.1741 192.352 18.1741 191.864 18.089C191.808 18.0794 191.744 18.0698 191.688 18.0725C190.434 18.1411 189.184 18.2139 187.929 18.2825C187.802 18.2893 187.686 18.2688 187.586 18.2317C187.482 18.1947 187.366 18.1755 187.238 18.1823C186.711 18.2111 186.18 18.2372 185.656 18.2729C185.441 18.288 185.269 18.2701 185.121 18.2221C185.009 18.1864 184.905 18.1727 184.766 18.1809C184.502 18.1974 184.238 18.2111 183.975 18.2262C183.711 18.2413 183.447 18.2564 183.184 18.2715C182.92 18.2866 182.652 18.2948 182.393 18.3182C182.073 18.347 181.917 18.2619 181.698 18.2194C181.302 18.24 180.907 18.2605 180.515 18.2825C179.988 18.3113 179.461 18.3429 178.933 18.3703C178.885 18.3731 178.826 18.3484 178.77 18.336C178.606 18.3017 178.486 18.2537 178.242 18.2688C177.06 18.3415 175.869 18.4032 174.683 18.4746C174.435 18.4897 174.328 18.4307 174.16 18.3991C174.104 18.3895 174.04 18.3703 173.988 18.3731C173.329 18.4074 172.67 18.4458 172.011 18.4828C171.743 18.4979 171.743 18.4979 171.296 18.4128C171.244 18.4032 171.176 18.3909 171.12 18.3936C170.261 18.4403 169.406 18.4897 168.547 18.5377C168.419 18.5446 168.304 18.5254 168.2 18.4883C168.1 18.4513 167.98 18.4307 167.856 18.4376C167.065 18.4815 166.27 18.524 165.483 18.572C165.272 18.5858 165.096 18.5734 164.944 18.524C164.836 18.4883 164.728 18.4732 164.593 18.4815C163.406 18.5487 162.22 18.6132 161.033 18.6846C160.806 18.6983 160.646 18.6722 160.502 18.6269C160.386 18.5912 160.286 18.5844 160.142 18.5899C159.991 18.5967 159.899 18.6118 159.815 18.653C159.707 18.7065 159.639 18.7737 159.383 18.7779C159.12 18.782 158.852 18.7985 158.593 18.8218C158.345 18.8451 158.229 18.7834 158.073 18.7463C157.957 18.7202 157.85 18.7161 157.702 18.7285C157.566 18.7394 157.482 18.7628 157.402 18.8067C157.226 18.9 157.21 18.9 156.995 18.841C156.879 18.8094 156.775 18.7847 156.647 18.7902C156.12 18.8177 155.592 18.8479 155.065 18.8794C154.762 18.8973 154.758 18.9 154.53 18.8314C154.418 18.7971 154.31 18.7806 154.178 18.7888C152.728 18.8712 151.278 18.9508 149.828 19.0372C149.605 19.0509 149.453 19.0221 149.293 18.981C149.241 18.9672 149.189 18.948 149.129 18.9425C149.069 18.937 149.001 18.9425 148.937 18.9453C147.883 19.0043 146.824 19.0606 145.774 19.1264C145.534 19.1415 145.406 19.0976 145.242 19.0619C145.186 19.0496 145.138 19.0304 145.079 19.0249C145.019 19.0208 144.947 19.0304 144.883 19.0345C143.828 19.0935 142.77 19.1498 141.719 19.2156C141.467 19.2307 141.359 19.1731 141.196 19.1429C141.14 19.1319 141.08 19.1113 141.028 19.1141C140.696 19.1292 140.369 19.1497 140.037 19.1676C139.246 19.2129 138.455 19.2554 137.664 19.3021C137.361 19.3199 137.229 19.1978 136.973 19.2033C136.642 19.2101 136.314 19.2376 135.983 19.2568C135.719 19.2719 135.455 19.2856 135.192 19.3021C134.932 19.3172 134.932 19.3172 134.285 19.2376C134.229 19.2307 134.161 19.2211 134.105 19.2238C133.182 19.2746 132.256 19.3254 131.337 19.3803C131.125 19.3926 130.949 19.3858 130.798 19.335C130.69 19.2993 130.578 19.2815 130.446 19.2897C129.06 19.3679 127.678 19.4462 126.292 19.523C126.24 19.5257 126.172 19.512 126.12 19.501C126.008 19.4763 125.9 19.4475 125.792 19.4215C125.712 19.453 125.609 19.4818 125.557 19.5175C125.485 19.5655 125.389 19.5793 125.237 19.5875C125.085 19.5957 124.989 19.593 124.87 19.5573C124.726 19.5134 124.578 19.4791 124.342 19.4928C122.892 19.5793 121.442 19.6575 119.992 19.7426C119.752 19.7563 119.64 19.6959 119.473 19.6643C119.417 19.6547 119.353 19.6396 119.301 19.6424C118.706 19.6739 118.114 19.7083 117.519 19.7412C115.869 19.8345 114.22 19.9237 112.574 20.0225C112.274 20.0403 112.071 20.006 111.859 19.947C111.815 19.9347 111.739 19.9278 111.683 19.9306C109.374 20.0595 107.065 20.1899 104.76 20.3203C104.636 20.3271 104.517 20.3052 104.417 20.2695C104.313 20.2324 104.197 20.2146 104.069 20.2215C103.015 20.2805 101.96 20.3395 100.905 20.3999C100.642 20.415 100.638 20.4163 100.366 20.3505C100.31 20.3367 100.25 20.3107 100.206 20.3134C100.115 20.3203 100.027 20.3546 99.9627 20.4012C99.8988 20.4506 99.7989 20.4644 99.6511 20.474C99.4993 20.4836 99.3995 20.4795 99.2836 20.4465C99.1358 20.4054 99 20.3656 98.7603 20.3793C95.7283 20.5549 92.6964 20.7237 89.6644 20.898C89.4207 20.9117 89.3089 20.8541 89.1411 20.8225C89.0852 20.8129 89.0293 20.7992 88.9693 20.7964C88.9054 20.7937 88.8375 20.8019 88.7736 20.806C83.8282 21.0846 78.8828 21.3646 73.9374 21.6431C73.6418 21.6596 73.6458 21.6596 73.3222 21.7858C73.2823 21.8009 73.2303 21.8215 73.1744 21.8242C71.6604 21.9121 70.1425 21.9971 68.6245 22.0822C67.9654 22.1193 67.3063 22.1577 66.6472 22.1934C66.4115 22.2057 66.4115 22.2057 65.8482 22.3539C65.8003 22.3663 65.7443 22.3828 65.6884 22.3855C63.0519 22.5351 60.4154 22.6847 57.7749 22.8315C57.5672 22.8425 57.3994 22.8672 57.3036 22.933C57.2357 22.9797 57.1478 23.0071 57.016 23.0154C55.1704 23.1197 53.3249 23.2253 51.4754 23.3269C51.2557 23.3392 51.1238 23.3776 51.016 23.4353C50.98 23.4545 50.948 23.4764 50.8961 23.4902C50.8482 23.5025 50.7763 23.5066 50.7164 23.5107C49.1345 23.5999 47.5526 23.6919 45.9667 23.777C45.731 23.7893 45.6351 23.8401 45.5193 23.8936C45.4793 23.9114 45.4513 23.9361 45.3994 23.9485C45.3475 23.9595 45.2716 23.9595 45.2077 23.9622C43.8894 24.0363 42.5712 24.1118 41.253 24.1859C40.9973 24.179 40.9414 24.2586 40.8175 24.3066C40.7736 24.3231 40.7417 24.3451 40.6898 24.356C40.6339 24.367 40.5619 24.3656 40.4939 24.3684C39.4394 24.4274 38.3848 24.4905 37.3262 24.5454C37.0825 24.5578 37.0346 24.6277 36.9027 24.6758C36.8588 24.6909 36.8149 24.7142 36.763 24.7183C36.1039 24.7581 35.4448 24.7952 34.7856 24.8308C34.5659 24.8432 34.5659 24.8418 34.1784 24.9777C34.1345 24.9928 34.0825 25.0092 34.0266 25.0134C33.0399 25.071 32.0493 25.1259 31.0586 25.1821C30.9308 25.189 30.8429 25.2219 30.779 25.2686C30.7151 25.3153 30.6232 25.3454 30.4954 25.3523C29.7044 25.3976 28.9134 25.4442 28.1225 25.4854C27.9028 25.4964 27.759 25.5307 27.6631 25.5924C27.5912 25.6391 27.5033 25.6624 27.3635 25.6707C26.5726 25.7146 25.7816 25.7626 24.9867 25.801C24.755 25.812 24.6351 25.8587 24.5392 25.9163C24.4633 25.9629 24.3755 25.9794 24.2277 25.9876C22.7776 26.0672 21.3236 26.1468 19.8775 26.2346C19.6338 26.2497 19.51 26.2017 19.3502 26.1674C19.1225 26.1194 18.9108 26.0672 18.9108 25.9602C18.9108 25.9437 18.8429 25.9245 18.795 25.9108C18.4394 25.8079 18.4394 25.8079 18.3835 25.6981C18.3515 25.6309 18.3156 25.5623 18.2876 25.4936C18.2357 25.3811 18.1078 25.3523 17.7403 25.3729C17.6085 25.3797 17.4767 25.3893 17.3448 25.3948C17.1491 25.4044 17.0013 25.3592 16.9654 25.2768C16.9454 25.2315 16.9215 25.1863 16.9015 25.141C17.1012 25.13 17.0972 25.1286 17.4487 24.9626C17.5965 24.8926 17.5966 24.8926 17.3129 24.8226C17.2051 24.7965 17.1012 24.7677 16.9854 24.743C16.9334 24.732 16.8655 24.7252 16.8096 24.7279C16.4781 24.7444 16.1505 24.7636 15.8229 24.7828C15.2956 24.813 15.2956 24.813 14.7603 24.673C14.7164 24.662 14.6484 24.6415 14.6564 24.6305C14.7004 24.5797 14.8082 24.5578 14.944 24.5523C15.1438 24.544 15.3395 24.5303 15.5352 24.5193C15.6671 24.5125 15.7989 24.5043 15.9307 24.4974C16.0545 24.4452 16.1824 24.3945 16.2983 24.341C16.482 24.2586 16.482 24.2559 16.2303 24.1982C16.0705 24.1598 15.8988 24.1255 15.735 24.0898C15.5392 24.1008 15.3395 24.1131 15.1438 24.1228C14.8961 24.1351 14.7962 24.109 14.7323 24.0198C14.6764 23.9416 14.7443 23.8744 14.936 23.8579C15.1318 23.8415 15.3156 23.8305 15.4155 23.7605C15.5113 23.6933 15.6791 23.6672 15.8868 23.6617C16.0186 23.6576 16.1505 23.648 16.2823 23.6397C16.4541 23.6288 16.546 23.5588 16.51 23.4806C16.49 23.4298 16.4501 23.3872 16.2943 23.3763C15.6032 23.3282 15.5952 23.3296 15.2516 23.2363C15.2197 23.2281 15.1958 23.2034 15.2077 23.191C15.2277 23.1704 15.2717 23.1402 15.3196 23.1361C15.779 23.1059 16.2384 23.0785 16.6978 23.0579C16.8495 23.051 16.9614 23.0414 17.0133 22.9907C17.0853 22.9207 17.0533 22.8562 16.9135 22.8082C16.8695 22.7931 16.7976 22.7738 16.7496 22.7752C16.2223 22.7999 15.6991 22.8315 15.1718 22.8562C15.1238 22.8589 15.036 22.8356 15.016 22.8178C14.9761 22.7848 15.0359 22.7409 15.1758 22.7258C15.3595 22.7052 15.5473 22.7039 15.6711 22.6352C15.8429 22.5378 16.0546 22.4486 16.2463 22.3553C16.2783 22.3389 16.3303 22.3073 16.3183 22.3045C16.2184 22.2743 16.1025 22.251 15.9987 22.2222C15.8229 22.1742 15.8229 22.1069 15.8628 22.0424C15.8948 21.9903 16.0146 21.9697 16.1624 21.9697C16.2263 21.9697 16.3062 21.9697 16.3582 21.9574C16.494 21.9272 16.5379 21.8887 16.47 21.8599C16.4301 21.8435 16.3582 21.8201 16.3103 21.8229C15.4554 21.8682 14.5965 21.9121 13.7456 21.9683C13.494 21.9848 13.3782 21.9327 13.2264 21.8956C13.1106 21.8668 13.0026 21.8558 12.8588 21.8764C12.723 21.8956 12.5912 21.8846 12.5073 21.8394C12.4394 21.8023 12.5593 21.7707 12.8828 21.7351C12.9427 21.7282 13.0106 21.7241 13.0546 21.7104C13.5179 21.5622 13.5179 21.5608 13.8375 21.5416C14.1491 21.5237 14.1492 21.5224 14.3129 21.4428C14.3888 21.4057 14.4727 21.3687 14.5446 21.3302C14.5725 21.3151 14.6205 21.2877 14.6045 21.2795C14.5167 21.2369 14.3968 21.2273 14.257 21.2369C13.9454 21.2603 13.5779 21.2411 13.4141 21.3714C13.3502 21.4208 13.2504 21.4345 13.1065 21.4428C11.6605 21.5224 10.2144 21.6074 8.76429 21.6843C8.5286 21.6966 8.42081 21.7474 8.32893 21.8037C8.24904 21.8503 8.16114 21.8641 8.00934 21.8723C7.85754 21.8805 7.73764 21.8846 7.64976 21.8394C7.59783 21.8119 7.64178 21.7735 7.76162 21.7351C7.93339 21.6802 7.90142 21.6116 7.84549 21.5471C7.80555 21.5045 7.68172 21.4743 7.54989 21.4771C7.35415 21.4826 7.16645 21.4977 7.00267 21.4428C6.9068 21.4112 6.78694 21.3892 6.67908 21.3618C6.47136 21.3055 6.26363 21.2479 5.97202 21.285C5.77228 21.2712 5.63247 21.2218 5.47268 21.1834C5.20504 21.1203 5.18107 21.1107 5.37282 21.0434C5.58853 20.968 5.42072 20.8692 5.54056 20.7951C5.66839 20.7155 5.84421 20.6455 6.00001 20.5714C6.03995 20.5522 6.07592 20.5343 6.11587 20.5151C6.02399 20.4877 5.94012 20.4534 5.83226 20.4342C5.69245 20.4095 5.62054 20.3793 5.62853 20.2942C5.60057 20.2819 5.61247 20.3134 5.64443 20.3216C5.68038 20.3299 5.76833 20.323 5.81227 20.3134C5.92412 20.2873 5.97999 20.253 5.95202 20.2242C5.93604 20.2091 5.8602 20.1899 5.81227 20.1899C5.72439 20.1899 5.6485 20.2201 5.62453 20.2942C5.17713 20.3505 4.71367 20.3779 4.25029 20.3999C4.20235 20.4026 4.14247 20.3752 4.08654 20.3614C3.90279 20.3148 3.90276 20.3162 3.36348 20.3024C3.30756 20.3011 3.2317 20.2819 3.20374 20.2626C3.08789 20.1789 3.09192 20.087 3.03599 19.9978C3.13985 19.9402 3.24363 19.8839 3.35149 19.8276C3.5672 19.7137 3.84689 19.6136 4.01467 19.4887C3.97871 19.4215 3.93077 19.3542 4.10654 19.2993C4.60587 19.2307 4.60191 19.2307 4.73772 19.1648C5.12521 18.9782 5.50867 18.7902 5.91214 18.6063C6.01999 18.5583 6.02001 18.5322 5.82826 18.5117C5.76834 18.5062 5.70434 18.5048 5.64043 18.5075C5.44069 18.5171 5.24096 18.5418 5.04523 18.5364C4.84949 18.5322 4.70568 18.4719 4.54589 18.4348C4.38211 18.3964 4.21834 18.3566 4.05455 18.3168C3.8668 18.3209 3.67909 18.3593 3.49134 18.2976C3.34753 18.2496 3.16778 18.2152 3.004 18.1754C3.12784 18.0712 3.35956 17.9916 3.53932 17.8996C3.7031 17.8159 3.70701 17.8173 4.14642 17.7528C4.35415 17.7226 4.42605 17.5675 4.25029 17.5223C4.03857 17.4674 3.81492 17.4166 3.5992 17.3644C3.41145 17.3686 3.21975 17.4056 3.03999 17.3439C2.90018 17.2972 2.74036 17.2657 2.50867 17.2835C2.11719 17.3137 1.71773 17.3288 1.32226 17.3535C1.18644 17.3617 1.0386 17.3562 0.978675 17.3096C0.938729 17.2766 1.05458 17.2314 1.18641 17.2217C1.38614 17.208 1.56588 17.1916 1.66575 17.1229C1.76162 17.0543 1.93737 17.0337 2.14509 17.0241C2.20101 17.0214 2.26498 17.0049 2.29294 16.9885C2.43675 16.9089 2.59655 16.8403 2.90413 16.843C3.03196 16.8156 3.09983 16.7812 3.05988 16.7483C3.03592 16.7305 2.95207 16.7072 2.90413 16.7099C2.57258 16.7236 2.24103 16.7373 1.91746 16.762C1.76566 16.773 1.64976 16.7758 1.55388 16.7346C1.48598 16.7071 1.52192 16.6701 1.64975 16.6303C1.7616 16.596 1.7936 16.5562 1.78561 16.5095C1.76563 16.4011 1.64577 16.3696 1.26228 16.3764C0.986649 16.3819 0.918736 16.3641 0.858816 16.2708C0.842837 16.2488 0.80296 16.2186 0.830923 16.2035C1.00269 16.1102 1.11455 15.995 1.43812 15.951C1.56595 15.9346 1.70171 15.9346 1.78161 15.8989C1.8615 15.8632 1.93344 15.822 2.01733 15.7877C2.12119 15.7466 2.19302 15.7082 2.14509 15.6821C2.0652 15.6354 1.93741 15.6313 1.78961 15.6478C1.66178 15.6615 1.52596 15.6629 1.39414 15.6711C1.15845 15.6862 0.96675 15.6505 0.938787 15.5901C0.862888 15.431 0.782972 15.2732 0.715062 15.114C0.707073 15.0948 0.726991 15.0701 0.758949 15.0536C0.8708 14.996 0.990687 14.9411 1.10653 14.8848C1.24235 14.8203 1.4581 14.8327 1.64185 14.8203C1.90151 14.8025 1.90142 14.8038 2.24895 14.6721C2.38477 14.62 2.62047 14.6405 2.76028 14.5939C2.80423 14.5788 2.87213 14.5541 2.86015 14.5404C2.84417 14.5225 2.76432 14.5088 2.7044 14.5006C2.64848 14.4923 2.58058 14.4882 2.52066 14.4923C1.79363 14.5321 1.07062 14.5747 0.343585 14.6131C0.21975 14.62 0.0839271 14.5898 0.0399857 14.5472C-0.00395566 14.5074 0.00798935 14.4594 0 14.4141C0.115846 14.3579 0.247619 14.3057 0.347486 14.2453C0.423385 14.1987 0.511283 14.1781 0.663081 14.1753C0.862814 14.1712 1.05857 14.1548 1.28227 14.1424C1.69772 13.9421 2.10515 13.7321 2.55255 13.5318C2.73231 13.4508 2.68844 13.3685 2.72439 13.282C2.76035 13.2024 3.02797 13.2148 3.20773 13.1915C3.35154 13.1722 3.39942 13.1283 3.34349 13.0981C3.31153 13.0803 3.23967 13.0597 3.18374 13.0597C3.05192 13.0597 2.9201 13.0721 2.78827 13.0789C2.65645 13.0858 2.50466 13.0817 2.3968 13.105C2.29294 13.127 2.22499 13.1736 2.15708 13.2134C2.08119 13.2573 1.98139 13.2724 1.82959 13.2752C1.63385 13.2779 1.43813 13.2903 1.24239 13.2999C1.02667 13.2463 0.802925 13.1942 0.595202 13.1379C0.555256 13.127 0.547223 13.0954 0.551218 13.0748C0.559207 13.0213 0.499303 12.9884 0.367479 12.9623C0.255628 12.9403 0.163743 12.9088 0.0598811 12.8813C0.139775 12.8443 0.227689 12.8086 0.291603 12.7688C0.431417 12.6851 0.607202 12.6247 0.910797 12.6275C1.03064 12.574 1.12648 12.5081 1.28227 12.471C1.43008 12.4354 1.68175 12.471 1.7936 12.3901C1.84953 12.3503 1.93346 12.305 2.04132 12.2885C2.21309 12.2624 2.43679 12.2762 2.53666 12.1993C2.59658 12.1554 2.68442 12.1156 2.80027 12.1046C2.93209 12.0923 3.06788 12.0896 3.16375 12.0635C3.21568 12.0498 3.27161 12.0278 3.27161 12.0086C3.27161 11.9962 3.19178 11.977 3.13586 11.9688C3.08393 11.9592 3.01594 11.9523 2.95602 11.9551C2.75629 11.9633 2.56055 11.9784 2.36082 11.9866C2.30489 11.9894 2.241 11.9798 2.18108 11.9715C2.00531 11.9496 2.01727 11.9221 2.15708 11.8727C2.2969 11.8247 2.39682 11.7629 2.51266 11.7067C2.64049 11.6971 2.80026 11.7012 2.88814 11.6751C3.03594 11.6326 3.13978 11.5708 3.25962 11.5173C3.39144 11.5091 3.52725 11.5063 3.65109 11.4912C3.70302 11.4858 3.72701 11.4556 3.77095 11.4377C3.85084 11.4034 3.91881 11.354 4.02666 11.3376C4.20243 11.3129 4.41814 11.3225 4.522 11.247C4.58192 11.2031 4.67376 11.1564 4.78561 11.1537C5.09719 11.1482 5.22902 11.0727 5.38881 11.0013C5.50865 10.9478 5.76432 10.9753 5.89614 10.9218C5.98402 10.8875 6.04798 10.8449 6.13586 10.812C6.17181 10.7983 6.24768 10.7914 6.3076 10.7873C6.63517 10.7667 6.96671 10.7516 7.29428 10.7296C7.34621 10.7255 7.39418 10.705 7.43413 10.6885C7.51802 10.6528 7.56989 10.6034 7.67375 10.5801C7.77761 10.5567 7.9254 10.5567 8.05323 10.5499C8.46468 10.5293 8.49667 10.5348 8.68441 10.4181C8.83621 10.3235 9.20776 10.3907 9.3316 10.2864C9.4035 10.226 9.53527 10.1766 9.77095 10.1698C10.1025 10.1602 10.4301 10.1341 10.7616 10.1163C11.0572 10.0998 11.0532 10.0998 11.3728 9.97216C11.5166 9.91453 11.7284 9.92277 11.9161 9.91179C12.1159 9.90081 12.2996 9.88435 12.3955 9.81574C12.4914 9.7485 12.6671 9.72653 12.8708 9.71692C13.0586 9.70732 13.2703 9.71419 13.4181 9.6593C13.7777 9.52757 13.7737 9.52618 14.0253 9.51246C14.4208 9.49051 14.8163 9.46855 15.2117 9.44522C15.4754 9.43013 15.751 9.42739 15.9987 9.3972C16.1784 9.37524 16.2583 9.2984 16.3742 9.24488C16.7017 9.2243 17.0293 9.2037 17.3568 9.18449C17.8162 9.15705 18.2796 9.13235 18.743 9.10628C18.9427 9.05414 18.9707 8.93887 19.3063 8.93338C19.506 8.93063 19.7018 8.9128 19.9015 8.90182C20.233 8.88261 20.5606 8.8579 20.8922 8.8483C21.1438 8.84144 21.1877 8.76733 21.3195 8.72067C21.3635 8.70421 21.4034 8.68089 21.4554 8.67677C21.9747 8.63835 22.5099 8.63011 23.0173 8.57385C23.0692 8.56836 23.1171 8.53954 23.1291 8.51896C23.1371 8.50798 23.0692 8.48741 23.0253 8.4778C22.9733 8.46682 22.9054 8.45584 22.8495 8.45859C21.1997 8.55053 19.55 8.64384 17.9002 8.73578C17.6685 8.74951 17.6685 8.74812 17.1052 8.89907C17.0573 8.91142 17.0013 8.92514 16.9414 8.92926C16.6777 8.94572 16.4101 8.95534 16.1504 8.97593C15.9387 8.99239 15.763 8.97591 15.6112 8.92651C15.5034 8.89083 15.3915 8.87986 15.2556 8.88261C15.1038 8.88672 15.004 8.90182 14.9161 8.93887C14.8003 8.98965 14.7404 9.05551 14.4967 9.06923C13.3742 9.12824 12.2516 9.1941 11.1331 9.25723C10.9773 9.23801 10.9014 9.2092 10.9414 9.17489C10.9653 9.15431 11.0133 9.12687 11.0612 9.12412C11.5206 9.0953 11.984 9.07061 12.4434 9.04316C12.5073 9.03905 12.5952 9.04178 12.6311 9.02806C12.8069 8.9663 12.8709 8.86613 13.2024 8.85927C13.3942 8.85515 13.5899 8.83458 13.7736 8.81537C13.8256 8.80988 13.8735 8.78106 13.8855 8.76047C13.8895 8.7495 13.8256 8.72891 13.7776 8.7193C13.6019 8.67951 13.3982 8.72755 13.2224 8.7001C13.1625 8.6905 13.0785 8.67677 13.0666 8.6603C13.0586 8.64521 13.1265 8.6205 13.1744 8.60541C13.2184 8.59169 13.2782 8.57934 13.3382 8.57522C13.8655 8.54366 14.3928 8.51073 14.9201 8.48602C15.1359 8.47642 15.2876 8.44211 15.3835 8.37899C15.4554 8.33233 15.5433 8.30764 15.6791 8.30078C16.6019 8.25 17.5246 8.19374 18.4514 8.14708C18.6831 8.13611 18.8029 8.09083 18.8988 8.03182C18.9747 7.98516 19.0626 7.96869 19.2104 7.96046C20.5327 7.8891 21.8469 7.80952 23.1691 7.74091C23.4128 7.72856 23.4847 7.66955 23.6086 7.61877C23.6525 7.60093 23.6804 7.57898 23.7363 7.568C23.7922 7.55702 23.8641 7.55838 23.9321 7.55564C24.9866 7.49663 26.0413 7.43352 27.0999 7.37863C27.3476 7.36628 27.3954 7.29766 27.5233 7.24963C27.5672 7.23454 27.6072 7.20984 27.6591 7.20573C28.4501 7.15907 29.241 7.11516 30.0319 7.06988C30.5592 7.03969 31.0865 7.00949 31.6138 6.98068C31.8735 6.96695 31.8735 6.96557 32.225 6.83521C32.2649 6.82012 32.3209 6.80227 32.3728 6.79816C33.8908 6.71033 35.4048 6.62664 36.9227 6.54019C37.0506 6.53333 37.1424 6.50175 37.2063 6.45509C37.2703 6.40844 37.3622 6.37688 37.486 6.37002C38.6725 6.3014 39.8589 6.23417 41.0493 6.16967C41.265 6.1587 41.4167 6.12576 41.5126 6.06401C41.5845 6.01735 41.6724 5.99266 41.8082 5.9858C42.9946 5.91993 44.1811 5.84994 45.3715 5.78681C45.5992 5.77446 45.711 5.72781 45.8229 5.67292C45.8628 5.65371 45.8948 5.62215 45.9427 5.6194C46.5339 5.58098 47.1211 5.54118 47.7163 5.51511C47.964 5.50413 48.0479 5.44649 48.1478 5.3916C48.2277 5.34769 48.3196 5.3326 48.4714 5.32711C48.803 5.31476 49.1305 5.29144 49.4541 5.26812C49.502 5.264 49.5619 5.23381 49.5659 5.2146C49.5739 5.17892 49.482 5.15421 49.3302 5.14186C47.7483 5.23106 46.1625 5.32025 44.5806 5.40944C44.3209 5.42454 44.3209 5.42455 43.9694 5.55491C43.9294 5.57001 43.8735 5.58785 43.8175 5.59196C42.2996 5.67842 40.7856 5.7635 39.2677 5.84995C39.1398 5.85681 39.048 5.88837 38.984 5.93503C38.9201 5.98168 38.8282 6.01324 38.7043 6.0201C37.2543 6.10244 35.8043 6.18615 34.3502 6.26437C34.1345 6.27535 33.9827 6.30689 33.8868 6.37002C33.8149 6.41667 33.7271 6.44138 33.5912 6.44824C32.2051 6.52509 30.8229 6.60604 29.4327 6.68015C29.2929 6.68701 29.1891 6.64721 29.1971 6.61016C29.2011 6.59095 29.2609 6.5594 29.3089 6.55666C30.0319 6.51137 30.751 6.46471 31.478 6.4304C31.7217 6.41943 31.7936 6.35904 31.9174 6.30827C31.9573 6.29043 31.9893 6.26711 32.0413 6.2575C32.0972 6.24652 32.1691 6.2479 32.237 6.24515C33.9507 6.14772 35.6645 6.04893 37.3822 5.95699C37.6298 5.94326 37.6777 5.87601 37.8055 5.82799C37.8495 5.81152 37.8895 5.78683 37.9414 5.78408C38.4687 5.75115 38.996 5.72233 39.5233 5.69351C40.446 5.64136 41.3688 5.58922 42.2956 5.53707C42.5632 5.52198 42.5632 5.52197 42.9067 5.39298C42.9467 5.37788 43.0027 5.35869 43.0546 5.35594C45.4953 5.21734 47.9361 5.07875 50.3769 4.94152C50.5047 4.93466 50.5966 4.9031 50.6605 4.85644C50.7244 4.81116 50.8162 4.77822 50.9401 4.76999C54.2397 4.58337 57.5353 4.39673 60.8349 4.21285C61.0506 4.2005 61.2024 4.17168 61.2982 4.10718C61.3661 4.06053 61.458 4.03583 61.5938 4.0276C65.221 3.82314 68.8482 3.61867 72.4793 3.41284C74.9201 3.27561 77.3608 3.13564 79.8016 3.00116C80.0253 2.98881 80.1451 2.94627 80.2569 2.89C80.2929 2.87079 80.3289 2.83923 80.3768 2.83648C80.9001 2.80218 81.4234 2.77062 81.9467 2.73906C82.1105 2.77611 82.2742 2.8118 82.438 2.84885C82.5618 2.7967 82.6818 2.74318 82.8056 2.69103C83.5965 2.65124 84.3755 2.58949 85.1744 2.57028C85.2263 2.5689 85.2822 2.59498 85.3382 2.6087C85.7097 2.69515 85.9214 2.68829 86.1571 2.57302C86.241 2.53186 86.3129 2.49481 86.4407 2.48795C86.8362 2.46324 87.2357 2.44678 87.6272 2.41796C87.8389 2.40286 88.0146 2.41658 88.1664 2.46598C88.2743 2.50166 88.3862 2.51677 88.518 2.50853C89.245 2.46736 89.968 2.42757 90.6951 2.38365C90.747 2.38091 90.7949 2.35757 90.8348 2.34111C90.9187 2.30543 90.9906 2.26701 91.0705 2.22996C91.1784 2.25329 91.2983 2.27113 91.3861 2.30132C91.498 2.337 91.6018 2.33699 91.7536 2.32739C94.6537 2.16134 97.5579 1.99942 100.458 1.83201C100.706 1.81829 100.814 1.87593 100.981 1.90611C101.037 1.91709 101.093 1.93081 101.153 1.93355C101.217 1.9363 101.285 1.92807 101.349 1.92395C103.526 1.80045 105.703 1.67831 107.88 1.55481C108.168 1.53834 108.168 1.53834 108.595 1.62342C108.647 1.6344 108.715 1.64675 108.771 1.64264C109.762 1.58912 110.752 1.53149 111.739 1.4766C111.867 1.46974 111.975 1.49169 112.091 1.52325C112.318 1.585 112.334 1.58501 112.502 1.49444C112.582 1.4519 112.666 1.42582 112.798 1.41347C112.941 1.39974 113.057 1.40388 113.169 1.42858C113.329 1.46288 113.445 1.52051 113.688 1.50541C114.743 1.44092 115.802 1.3874 116.852 1.32154C117.092 1.30644 117.22 1.3531 117.38 1.3874C117.435 1.39975 117.487 1.41896 117.547 1.42308C117.607 1.4272 117.679 1.41758 117.743 1.41347C119.061 1.33936 120.383 1.26665 121.698 1.18706C121.945 1.17196 122.053 1.23096 122.221 1.26115C122.277 1.27213 122.341 1.29135 122.393 1.2886C123.184 1.24606 123.979 1.20077 124.77 1.15548C125.053 1.13902 125.053 1.14039 125.485 1.2241C125.537 1.23507 125.605 1.24605 125.66 1.24331C126.583 1.19254 127.51 1.14039 128.433 1.08824C128.716 1.07178 128.716 1.07178 129.535 1.14314C129.595 1.14863 129.659 1.15687 129.719 1.15413C130.774 1.09512 131.832 1.03748 132.887 0.974354C133.098 0.962004 133.274 0.972979 133.426 1.02238C133.534 1.05806 133.646 1.07316 133.778 1.06493C134.964 0.997687 136.154 0.933194 137.337 0.861838C137.565 0.848115 137.712 0.878292 137.872 0.918088C137.924 0.93181 137.976 0.951025 138.036 0.956514C138.096 0.962003 138.164 0.95651 138.228 0.952394C139.414 0.885154 140.604 0.822033 141.787 0.749304C142.027 0.734209 142.154 0.780863 142.314 0.815169C142.37 0.827519 142.43 0.852221 142.478 0.850849C142.941 0.827521 143.405 0.806944 143.864 0.772638C144.112 0.753427 144.22 0.816539 144.387 0.846728C144.443 0.856334 144.507 0.876928 144.559 0.874183C145.55 0.820665 146.541 0.764407 147.527 0.706773C147.667 0.69854 147.771 0.710878 147.883 0.746557C148.031 0.794585 148.202 0.813798 148.418 0.798703C148.877 0.767141 149.341 0.745191 149.804 0.719119C150.076 0.704024 150.076 0.704029 150.907 0.775385C150.967 0.780874 151.031 0.789102 151.09 0.786357C151.881 0.742445 152.676 0.699909 153.463 0.65188C153.675 0.638158 153.851 0.650504 154.003 0.699905C154.11 0.735584 154.218 0.750686 154.354 0.742453C155.081 0.701285 155.804 0.660115 156.531 0.618947C156.795 0.603853 157.059 0.577773 157.322 0.577773C157.514 0.579146 157.654 0.645011 157.826 0.677945C157.873 0.68755 157.953 0.676585 158.017 0.673841C158.94 0.621695 159.867 0.573662 160.786 0.514655C161.025 0.499561 161.153 0.546214 161.313 0.580521C161.369 0.592871 161.429 0.617573 161.477 0.6162C161.808 0.601106 162.136 0.58052 162.467 0.562681C162.863 0.540725 163.262 0.524258 163.654 0.494068C163.973 0.469368 164.093 0.588749 164.349 0.592866C164.545 0.596983 164.744 0.573659 164.94 0.562681C165.335 0.540725 165.731 0.516027 166.126 0.496816C166.266 0.489954 166.374 0.467989 166.418 0.418588C166.426 0.408982 166.358 0.388407 166.314 0.376057C165.783 0.236088 165.783 0.236082 165.248 0.266271C164.916 0.285482 164.588 0.304697 164.257 0.321164C164.201 0.323909 164.137 0.312931 164.081 0.304698C163.921 0.28137 163.937 0.253927 164.073 0.204527C164.209 0.155126 164.313 0.0947523 164.429 0.0384902C164.592 0.0741686 164.752 0.109834 164.916 0.145513C165.048 0.138651 165.18 0.13043 165.312 0.123569C165.971 0.0878904 166.63 0.0508371 167.289 0.0179032C167.337 0.0151587 167.397 0.0426076 167.453 0.0563301C167.612 0.0961252 167.756 0.130422 167.988 0.115327C168.579 0.0755321 169.174 0.046715 169.766 0.0124088C170.025 -0.00268587 170.025 -0.00268453 170.481 0.0823947C170.533 0.0920004 170.6 0.102979 170.656 0.100235C171.252 0.0686729 171.843 0.0343708 172.438 0.0014369C172.566 -0.00542433 172.69 0.0124142 172.782 0.0522093C172.818 0.0686763 172.81 0.0961158 172.961 0.321164C173.433 0.503673 173.756 0.484471 174.084 0.468004C174.224 0.461142 174.347 0.454275 174.439 0.42683C174.487 0.411735 174.547 0.389776 174.547 0.371937C174.547 0.358214 174.459 0.336254 174.403 0.33351C174.008 0.306065 173.632 0.363707 173.245 0.376057C173.065 0.381546 172.909 0.333517 172.877 0.255299C172.869 0.233343 172.857 0.210016 172.845 0.18806C172.833 0.166104 172.826 0.142778 172.814 0.120822C172.658 0.11396 172.566 0.138657 172.498 0.185313C172.442 0.223736 172.362 0.267648 172.254 0.288232C172.146 0.310187 171.999 0.306078 171.867 0.312939C171.739 0.319801 171.599 0.337638 171.479 0.328032C171.359 0.317054 171.264 0.277252 171.152 0.252552C171.1 0.240202 171.036 0.222369 170.984 0.225114C170.525 0.248442 170.069 0.271761 169.614 0.301951C169.374 0.318418 169.254 0.260792 169.103 0.225114C168.983 0.197669 168.863 0.204521 168.843 0.267644C168.791 0.418592 168.975 0.481711 169.382 0.452894C169.718 0.428194 170.021 0.42409 170.285 0.517403C170.321 0.529753 170.405 0.53524 170.457 0.532495C170.784 0.516028 171.108 0.495443 171.435 0.478976C171.495 0.476231 171.559 0.481711 171.615 0.4872C172.43 0.561302 172.43 0.562681 172.706 0.546214C172.838 0.537981 172.965 0.531119 172.953 0.322538C173.205 0.0988616 173.605 0.0837696 173.992 0.0508357C174.244 0.030252 174.351 0.0906335 174.515 0.122195C174.571 0.133173 174.631 0.155125 174.683 0.152381C175.542 0.107096 176.397 0.0590612 177.252 0.00828807C177.395 5.46016e-05 177.499 0.00828942 177.611 0.0439678C177.755 0.0892519 177.915 0.118075 178.142 0.101608C178.598 0.0686743 179.061 0.0480953 179.525 0.0206503C179.76 0.00692789 179.76 0.00691383 180.236 0.091993C180.288 0.101599 180.355 0.112577 180.411 0.109833C180.875 0.0865047 181.334 0.0576963 181.794 0.0329959C181.921 0.0261346 182.037 0.0453441 182.137 0.0823947C182.237 0.119445 182.357 0.138655 182.481 0.131794C182.944 0.107093 183.403 0.0796569 183.863 0.0549565C183.919 0.052212 183.987 0.061817 184.039 0.0714228C184.526 0.156502 184.526 0.156488 184.75 0.142765C185.077 0.122182 185.413 0.112587 185.736 0.0851419C186.052 0.057697 186.216 0.13728 186.431 0.181192C187.023 0.149631 187.618 0.123565 188.205 0.0851419C188.445 0.0686749 188.573 0.113955 188.732 0.149633C188.788 0.161984 188.844 0.188059 188.896 0.186687C189.096 0.181198 189.292 0.166106 189.487 0.155128C189.683 0.14415 189.883 0.133173 190.079 0.122195C190.302 0.16199 190.45 0.255302 190.77 0.22374C190.961 0.204529 191.165 0.200412 191.361 0.189434C191.557 0.178456 191.756 0.167479 191.952 0.156501C192.084 0.14964 192.22 0.145517 192.348 0.133167C192.583 0.112583 192.699 0.179831 192.867 0.210021C192.923 0.219627 192.987 0.236083 193.039 0.233338C193.434 0.214127 193.833 0.197661 194.221 0.1661C194.521 0.141399 194.724 0.182572 194.936 0.240206C194.98 0.252556 195.056 0.259417 195.112 0.256673C195.575 0.233344 196.035 0.204519 196.494 0.179819C196.618 0.172958 196.738 0.194913 196.838 0.230591C196.941 0.267642 197.057 0.285494 197.185 0.278633C197.644 0.253933 198.108 0.22648 198.567 0.201779C198.623 0.199035 198.691 0.210015 198.743 0.220993C199.19 0.306072 199.19 0.307446 199.454 0.290979C199.518 0.286862 199.586 0.284107 199.65 0.27999C199.977 0.260779 200.317 0.253927 200.636 0.220993C201.004 0.183942 201.272 0.230601 201.531 0.308819C201.859 0.292352 202.194 0.282744 202.514 0.255299C202.754 0.234715 202.881 0.286858 203.041 0.321164C203.097 0.333514 203.157 0.358215 203.205 0.35547C203.668 0.332142 204.132 0.311566 204.587 0.27726C204.835 0.258048 204.943 0.319788 205.11 0.351349C205.166 0.362327 205.226 0.381549 205.278 0.378804C205.542 0.367826 205.806 0.351351 206.069 0.336257C206.377 0.318418 206.377 0.319788 206.784 0.403495C206.976 0.443291 207.168 0.411728 207.356 0.402122C207.555 0.391144 207.743 0.382913 207.903 0.439175C208.003 0.474854 208.122 0.49681 208.246 0.491321C208.51 0.478971 208.778 0.466627 209.037 0.446043C209.245 0.429576 209.425 0.440548 209.576 0.491321C209.684 0.527 209.796 0.54485 209.928 0.536616C210.519 0.503682 211.114 0.469363 211.706 0.437802C211.758 0.435057 211.829 0.447412 211.877 0.459762C211.989 0.484463 212.097 0.511902 212.205 0.539346C212.465 0.526996 212.732 0.521521 212.988 0.50231C213.26 0.483098 213.507 0.476235 213.719 0.551709C213.763 0.568176 213.827 0.591491 213.879 0.590119C214.078 0.58463 214.274 0.570911 214.47 0.559933C214.666 0.548956 214.865 0.537979 215.061 0.527001C215.289 0.561307 215.433 0.660107 215.752 0.628546C215.944 0.609334 216.148 0.605218 216.344 0.59424C216.539 0.583262 216.739 0.570913 216.935 0.561307C216.999 0.558563 217.071 0.551697 217.126 0.557186C217.186 0.562675 217.238 0.581891 217.29 0.595613C217.45 0.635408 217.598 0.675208 217.826 0.65188C218.017 0.632669 218.221 0.62855 218.417 0.6162C218.684 0.601106 218.684 0.601108 219.128 0.68756C219.308 0.723238 219.511 0.676584 219.683 0.706773C219.799 0.727357 219.899 0.761656 220.011 0.784984C220.059 0.794589 220.134 0.7987 220.19 0.795956C220.454 0.783606 220.722 0.771261 220.981 0.750678C221.193 0.734211 221.369 0.750676 221.517 0.800076C221.624 0.835755 221.732 0.850858 221.868 0.842624C222.527 0.804201 223.186 0.771257 223.842 0.728717C224.065 0.713622 224.245 0.736957 224.369 0.786357C224.58 0.871437 224.88 0.771265 225.1 0.839877C225.236 0.882417 225.371 0.93182 225.619 0.911236C226.075 0.875558 226.538 0.856336 226.997 0.831635C227.161 0.868686 227.325 0.905745 227.493 0.942795C227.756 0.927701 228.02 0.912597 228.284 0.898874C228.479 0.887896 228.679 0.875547 228.875 0.865942C228.939 0.863197 229.007 0.857707 229.066 0.864568C229.126 0.871429 229.174 0.889272 229.23 0.902995C229.506 0.970235 229.506 0.971614 229.961 0.944169C230.157 0.931819 230.345 0.923585 230.509 0.978475C230.66 1.02925 230.84 1.03885 231.048 1.02375C231.439 0.996308 231.835 0.975726 232.234 0.956514C232.358 0.949653 232.474 0.972982 232.578 1.00866C232.734 1.06492 232.925 1.05943 233.121 1.04434C233.381 1.02513 233.636 1.00592 233.856 1.08277C233.9 1.09923 233.968 1.12255 234.016 1.12118C234.344 1.1102 234.675 1.10197 234.995 1.0759C235.314 1.04983 235.47 1.1349 235.69 1.17607C236.017 1.15823 236.349 1.14039 236.676 1.12255C236.74 1.11843 236.816 1.10609 236.872 1.11295C237.108 1.14177 237.244 1.24469 237.567 1.21312C237.755 1.19528 237.959 1.1898 238.154 1.18569C238.206 1.18431 238.274 1.20763 238.31 1.22547C238.33 1.23507 238.31 1.26115 238.286 1.27487C238.214 1.31329 238.126 1.34898 238.063 1.38878C238.055 1.39426 238.13 1.41895 238.174 1.42993C238.282 1.45463 238.406 1.45053 238.55 1.43955C238.674 1.42994 238.802 1.44915 238.889 1.49032C238.925 1.50679 238.913 1.53423 238.837 1.6248C238.837 1.69204 238.921 1.66184 238.949 1.61793C238.993 1.55481 238.909 1.53422 238.75 1.56853C238.638 1.59323 238.582 1.62891 238.61 1.65773C238.626 1.67282 238.702 1.69204 238.837 1.6248C239.189 1.54246 239.453 1.52738 239.716 1.51228C239.784 1.50816 239.864 1.49443 239.912 1.50267C240.084 1.5356 240.244 1.5754 240.411 1.61245C240.603 1.60422 240.783 1.58363 240.971 1.63714C241.234 1.71262 241.246 1.70576 241.502 1.69066C241.634 1.68243 241.766 1.67558 241.897 1.66872C242.029 1.66186 242.133 1.68244 242.249 1.714C242.485 1.77849 242.505 1.77849 242.66 1.69066C242.752 1.63714 242.816 1.61931 242.932 1.64401C243.315 1.72772 243.319 1.7332 243.647 1.7085C243.919 1.68792 244.174 1.68243 244.374 1.76065C244.51 1.81554 244.554 1.80319 244.662 1.74556C244.949 1.59324 245.081 1.59598 245.62 1.70576C245.872 1.7579 246.132 1.70164 246.387 1.69478C246.603 1.68929 246.755 1.72222 246.771 1.80867C246.783 1.86219 246.819 1.90062 246.963 1.91846C247.019 1.92532 247.086 1.93492 247.142 1.93218C247.474 1.91571 247.802 1.8965 248.133 1.87729C248.301 1.86768 248.393 1.8032 248.361 1.71812C248.325 1.62755 248.389 1.5946 248.628 1.56853C248.772 1.55344 248.888 1.55619 249.004 1.58089C249.132 1.60834 249.096 1.63304 248.984 1.68244C248.716 1.8032 248.748 1.87728 249.092 1.96099C249.212 1.98981 249.308 2.01589 249.335 2.05843C249.351 2.08039 249.336 2.1092 249.371 2.12567C249.567 2.21761 249.839 2.27662 250.142 2.32054C250.434 2.28348 250.634 2.34522 250.857 2.39463C251.033 2.43305 251.241 2.40012 251.429 2.3864C251.64 2.37131 251.816 2.38228 251.968 2.43305C252.076 2.46873 252.188 2.48519 252.319 2.47833C252.583 2.46324 252.851 2.45363 253.11 2.43168C253.334 2.41247 253.502 2.43992 253.642 2.48657C253.818 2.54558 254.013 2.50578 254.197 2.51401C254.445 2.52362 254.569 2.64574 254.892 2.61281C255.084 2.5936 255.284 2.58674 255.483 2.58125C255.535 2.57988 255.599 2.60321 255.643 2.61968C255.855 2.69515 256.102 2.69103 256.374 2.66907C256.562 2.65398 256.746 2.64026 256.929 2.69241C257.233 2.78023 257.569 2.85708 257.888 2.93805C257.932 3.00117 257.9 3.07526 258.128 3.11231C258.248 3.13152 258.359 3.16035 258.451 3.19191C258.563 3.22896 258.667 3.23857 258.811 3.22896C259.07 3.20975 259.342 3.20562 259.598 3.18092C259.834 3.15896 259.981 3.20426 260.125 3.2468C260.241 3.28111 260.349 3.29757 260.489 3.27287C260.632 3.24954 260.736 3.26463 260.852 3.30168C261.016 3.35245 261.028 3.34697 261.571 3.36206C261.627 3.36344 261.695 3.38401 261.727 3.40185C261.743 3.41145 261.707 3.43892 261.679 3.45264C261.643 3.4691 261.587 3.4883 261.535 3.49242C260.944 3.5281 260.349 3.55966 259.758 3.59534C259.698 3.59946 259.634 3.60907 259.59 3.62279C259.542 3.63789 259.482 3.65846 259.482 3.67767C259.482 3.69139 259.562 3.70787 259.618 3.71747C259.794 3.74903 260.001 3.70101 260.173 3.73669C260.289 3.76001 260.385 3.79294 260.501 3.8149C260.548 3.8245 260.624 3.82313 260.684 3.82039C260.884 3.81078 261.08 3.79706 261.28 3.78883C261.336 3.78746 261.399 3.80119 261.451 3.81217C261.835 3.8945 261.835 3.8945 262.166 3.87666C262.298 3.8698 262.438 3.84921 262.562 3.85744C262.682 3.86568 262.786 3.90273 262.893 3.92606C263.117 3.97546 263.329 4.02348 263.345 4.13052C263.353 4.17169 263.485 4.20736 263.616 4.2101C263.744 4.21285 263.88 4.19777 264.012 4.18953C264.323 4.17307 264.323 4.17306 264.727 4.25677C264.839 4.2801 264.959 4.28284 265.102 4.26912C265.158 4.26363 265.226 4.26912 265.286 4.27599C265.482 4.29657 265.482 4.32263 265.354 4.37204C265.174 4.44476 265.19 4.45163 265.694 4.51338C265.885 4.53671 266.033 4.58062 266.193 4.61905C266.453 4.6808 266.449 4.68079 266.277 4.76175C266.237 4.77959 266.201 4.7988 266.161 4.81802C266.045 4.87153 265.953 4.92916 265.714 4.93465C265.45 4.94014 265.186 4.96211 264.923 4.9772C264.667 4.9923 264.599 5.02522 264.623 5.11853C264.651 5.23105 264.703 5.24341 265.162 5.24203C265.294 5.24203 265.41 5.25301 265.51 5.29006C265.462 5.33397 265.374 5.36828 265.246 5.37651C264.919 5.3971 264.587 5.41494 264.26 5.43278C263.996 5.44787 263.732 5.46296 263.469 5.47806C263.305 5.48766 263.201 5.55903 263.245 5.63862C263.269 5.6839 263.289 5.72918 263.309 5.77447C263.353 5.86503 263.437 5.88837 263.704 5.88425C263.772 5.88288 263.836 5.87189 263.9 5.87464C264.16 5.88424 264.284 5.99814 264.595 5.97481C264.855 5.9556 265.126 5.95148 265.382 5.92678C265.618 5.90483 265.75 5.95424 265.913 5.99129C265.969 6.00364 266.029 6.0297 266.077 6.02833C266.409 6.01323 266.74 5.99815 267.064 5.97208C267.216 5.9611 267.308 5.96933 267.427 6.00226C267.715 6.08185 267.723 6.07774 268.15 6.05304C268.462 6.03383 268.466 6.03657 268.865 6.12028C268.977 6.1436 269.097 6.1436 269.241 6.13262C269.429 6.1189 269.624 6.09694 269.82 6.11753C269.88 6.12302 269.956 6.13949 269.976 6.15733C269.988 6.16968 269.932 6.19987 269.884 6.20947C269.533 6.28083 269.121 6.26848 268.738 6.2973C268.618 6.30553 268.498 6.27946 268.398 6.24241C268.294 6.20536 268.182 6.19027 268.047 6.19713C267.783 6.21222 267.515 6.22182 267.256 6.24378C267.032 6.26299 266.876 6.23143 266.72 6.18889C266.668 6.17517 266.608 6.14909 266.557 6.15046C265.965 6.17791 265.37 6.20536 264.783 6.24378C264.547 6.26025 264.411 6.21634 264.252 6.17929C264.196 6.16694 264.14 6.14086 264.088 6.14224C263.888 6.14772 263.692 6.16282 263.493 6.17379C262.766 6.21496 262.043 6.25613 261.315 6.29455C261.268 6.2973 261.208 6.26848 261.152 6.25613C261.044 6.23143 260.932 6.20809 260.82 6.18477C260.62 6.19574 260.425 6.20947 260.225 6.2177C260.081 6.22319 259.953 6.24241 259.933 6.29455C259.921 6.32886 260.053 6.36042 260.193 6.35767C260.329 6.35493 260.465 6.33846 260.577 6.3563C261.132 6.44412 261.132 6.4455 261.479 6.42766C261.783 6.41119 261.751 6.39746 262.019 6.47293C262.134 6.50587 262.238 6.52509 262.37 6.51686C262.698 6.49764 263.029 6.47843 263.361 6.46196C263.413 6.45922 263.481 6.47295 263.533 6.48392C263.924 6.56626 263.924 6.569 264.248 6.54842C264.671 6.52371 264.687 6.51685 264.971 6.60056C265.166 6.6582 265.346 6.6184 265.534 6.61565C265.75 6.66917 265.985 6.71721 266.181 6.77759C266.413 6.84894 266.656 6.83658 266.92 6.816C267.116 6.8009 267.308 6.79541 267.467 6.85168C267.619 6.90382 267.803 6.90932 268.011 6.8956C268.198 6.88325 268.39 6.85717 268.586 6.88736C268.638 6.89559 268.718 6.91618 268.714 6.92853C268.71 6.94774 268.658 6.97519 268.606 6.98342C268.238 7.03968 267.835 7.03831 267.447 7.06438C267.395 7.0685 267.328 7.0534 267.276 7.04242C267.164 7.01772 267.056 6.98891 266.948 6.96284C266.752 6.97107 266.553 6.97381 266.361 6.99027C266.213 7.00262 266.101 7.00126 265.993 6.96833C265.893 6.93814 265.786 6.90108 265.666 6.89148C265.546 6.88187 265.406 6.90246 265.274 6.91069C265.142 6.91892 264.991 6.9148 264.887 6.93675C264.783 6.95871 264.719 7.00674 264.651 7.04517C264.575 7.08771 264.471 7.10144 264.319 7.10555C264.18 7.10967 264.068 7.10418 263.964 7.06575C263.92 7.04929 263.86 7.03693 263.8 7.02595C263.744 7.01635 263.68 7.00125 263.628 7.00399C263.033 7.03555 262.442 7.06987 261.847 7.10281C261.551 7.11927 261.555 7.11926 260.94 7.0383C260.884 7.03144 260.816 7.02184 260.76 7.02458C260.429 7.04105 260.101 7.06026 259.77 7.07947C259.434 7.09868 259.438 7.09594 258.867 7.00949C258.763 6.99302 258.611 7.01498 258.487 7.01223C258.228 7.00537 258.1 6.89011 257.796 6.91206C257.537 6.93128 257.265 6.93539 257.005 6.96009C256.77 6.98204 256.634 6.93402 256.474 6.89697C256.418 6.88462 256.358 6.85717 256.31 6.85992C255.715 6.89011 255.124 6.92441 254.333 6.92853C254.137 6.92853 254.225 6.95735 254.353 6.96696C254.537 6.98205 254.597 6.95323 254.497 6.89834C254.425 6.85992 254.321 6.8407 254.237 6.8503C254.193 6.85579 254.137 6.88187 254.333 6.92853C254.541 6.98068 254.529 7.00949 254.565 7.02595C254.652 7.06575 254.776 7.08222 254.904 7.07673C255.104 7.06712 255.3 7.0534 255.499 7.04517C255.555 7.04242 255.623 7.05203 255.675 7.06301C256.114 7.14809 256.118 7.15358 256.586 7.12065C256.734 7.11104 256.841 7.11104 256.957 7.13711C257.117 7.17279 257.233 7.23316 257.477 7.21395C257.8 7.18788 258.132 7.1728 258.463 7.1577C258.515 7.15496 258.571 7.17966 258.631 7.19063C258.795 7.22357 258.915 7.28532 259.158 7.25925C259.346 7.23866 259.55 7.23316 259.75 7.22904C259.802 7.22767 259.881 7.24963 259.905 7.26747C259.953 7.29903 259.893 7.33609 259.758 7.36216C259.702 7.37314 259.626 7.37039 259.562 7.37451C259.298 7.3896 259.035 7.40606 258.771 7.41841C258.631 7.42528 258.499 7.44587 258.483 7.49664C258.471 7.53095 258.615 7.56113 258.751 7.55839C258.951 7.55427 259.15 7.54329 259.342 7.52545C259.682 7.49526 259.977 7.50349 260.253 7.58994C260.449 7.65032 260.437 7.62838 260.644 7.80677C260.696 7.85205 260.852 7.85617 260.988 7.85342C261.316 7.84656 261.467 7.86715 261.439 7.90969C261.403 7.96183 261.288 7.97829 261.14 7.98515C260.876 7.99613 260.612 8.01398 260.349 8.02907C260.285 8.03319 260.213 8.04142 260.153 8.03867C260.093 8.03593 260.037 8.01946 259.985 8.00711C259.873 7.98104 259.778 7.94124 259.658 7.93163C259.538 7.92203 259.398 7.94261 259.266 7.95085C259.134 7.95771 258.995 7.97829 258.875 7.96869C258.755 7.95908 258.655 7.91792 258.547 7.89322C258.495 7.88087 258.431 7.86165 258.379 7.86302C258.116 7.874 257.852 7.89185 257.589 7.90557C257.265 7.92341 257.265 7.92341 256.873 7.83833C256.762 7.81363 256.646 7.81501 256.498 7.82598C256.178 7.84794 256.174 7.84381 255.591 7.76422C255.535 7.75599 255.467 7.74639 255.411 7.7505C254.816 7.78207 254.225 7.81637 253.634 7.8493C253.126 7.87812 253.126 7.87813 252.847 8.01535C252.639 8.1169 252.635 8.11689 252.839 8.16355C253.003 8.20197 253.15 8.25823 253.33 8.27881C253.498 8.29803 253.706 8.23628 253.889 8.2994C253.981 8.33096 254.101 8.36527 254.217 8.37076C254.401 8.37762 254.596 8.33782 254.772 8.3982C254.86 8.42839 254.992 8.45996 255.104 8.46133C255.3 8.46408 255.499 8.44211 255.695 8.43251C255.755 8.42976 255.823 8.42977 255.879 8.43663C255.939 8.44486 255.991 8.46133 256.043 8.47505C256.202 8.52171 256.374 8.54366 256.582 8.52033C256.921 8.48191 257.225 8.50112 257.489 8.58894C257.525 8.60129 257.612 8.60267 257.668 8.59719C257.812 8.58346 257.936 8.58208 258.044 8.60816C258.088 8.61914 258.152 8.63834 258.144 8.65069C258.132 8.67127 258.084 8.69872 258.032 8.70558C257.656 8.75224 257.253 8.75773 256.865 8.78243C256.814 8.78518 256.75 8.76733 256.698 8.75498C256.586 8.73028 256.49 8.68912 256.37 8.67952C256.25 8.66991 256.11 8.68775 255.979 8.69461C255.847 8.70147 255.707 8.72206 255.587 8.71382C255.467 8.70422 255.355 8.66991 255.26 8.63972C255.148 8.60541 255.04 8.6013 254.892 8.61502C254.7 8.63286 254.501 8.6356 254.305 8.64521C254.197 8.61914 254.089 8.59031 253.977 8.56561C253.925 8.55326 253.861 8.53817 253.806 8.53955C253.542 8.55052 253.278 8.56698 253.015 8.58208C252.751 8.59717 252.751 8.59719 252.304 8.51211C252.252 8.5025 252.184 8.49152 252.128 8.49427C251.796 8.51073 251.469 8.5313 251.137 8.54777C251.009 8.55463 250.893 8.53542 250.79 8.49837C250.69 8.46132 250.57 8.44074 250.446 8.4476C249.919 8.47642 249.391 8.50386 248.864 8.53817C248.652 8.55189 248.473 8.53955 248.329 8.49015C248.161 8.43388 247.973 8.44761 247.778 8.45859C247.334 8.48603 247.33 8.48465 247.047 8.41467C246.991 8.40094 246.935 8.37487 246.883 8.37624C246.423 8.39682 245.96 8.41604 245.505 8.44897C245.265 8.46681 245.137 8.41879 244.977 8.38311C244.921 8.37076 244.862 8.34468 244.814 8.34743C244.482 8.36252 244.15 8.37625 243.827 8.40369C243.503 8.43114 243.379 8.30352 243.136 8.3049C242.804 8.30627 242.477 8.33783 242.149 8.35704C241.885 8.37214 241.622 8.38723 241.358 8.40232C241.094 8.41741 240.831 8.42976 240.567 8.4476C240.427 8.4572 240.324 8.44485 240.208 8.41055C240.06 8.36526 239.884 8.3296 239.724 8.28843C239.481 8.22942 239.481 8.22942 239.185 8.24588C239.121 8.25 239.053 8.25274 238.989 8.25685C238.506 8.28704 238.506 8.28431 237.891 8.19786C237.863 8.19374 237.791 8.20884 237.763 8.21982C237.679 8.2555 237.603 8.29391 237.527 8.33096C237.419 8.309 237.288 8.29666 237.216 8.2651C237.012 8.1759 236.692 8.29803 236.485 8.2102C236.409 8.17727 236.277 8.14845 236.157 8.14022C236.033 8.13198 235.893 8.1512 235.766 8.15943C235.434 8.18001 235.434 8.17865 235.15 8.30078C235.007 8.36115 234.799 8.35017 234.611 8.36389C234.415 8.37899 234.228 8.38722 234.064 8.33096C233.916 8.28019 233.736 8.26784 233.525 8.28431C233.265 8.30489 232.997 8.31724 232.734 8.32959C232.678 8.33233 232.61 8.32548 232.554 8.31724C231.943 8.23628 231.943 8.23491 231.647 8.25275C231.515 8.26098 231.379 8.26372 231.252 8.27607C231.036 8.29802 230.872 8.26921 230.716 8.2253C230.664 8.21157 230.604 8.18551 230.553 8.18688C230.289 8.19375 230.029 8.20609 229.77 8.21844C229.57 8.22805 229.37 8.23354 229.178 8.25275C228.859 8.28431 228.703 8.1951 228.483 8.15394C228.156 8.17177 227.824 8.18413 227.497 8.20883C227.345 8.21981 227.245 8.2157 227.129 8.18276C226.981 8.1416 226.846 8.09494 226.606 8.11553C226.286 8.14297 225.951 8.15258 225.623 8.16905C225.403 8.12651 225.244 8.04004 224.928 8.0716C224.736 8.09082 224.533 8.09493 224.337 8.10591C224.073 8.12101 223.81 8.13474 223.546 8.15121C223.262 8.16767 223.266 8.16356 222.831 8.08259C222.579 8.03456 222.319 8.08808 222.064 8.09631C221.864 8.10317 221.764 8.16629 221.812 8.24726C221.86 8.32822 221.752 8.39134 221.568 8.40232C221.109 8.42839 220.646 8.45583 220.186 8.47916C220.13 8.4819 220.063 8.4723 220.011 8.46269C219.519 8.37624 219.519 8.37762 219.3 8.38997C218.972 8.41056 218.636 8.42153 218.313 8.4476C218.089 8.46544 217.925 8.43663 217.782 8.38997C217.67 8.3543 217.566 8.34606 217.422 8.35429C215.84 8.44624 214.258 8.53131 212.68 8.626C212.445 8.63972 212.309 8.59993 212.149 8.56288C212.093 8.55053 212.041 8.52445 211.985 8.52445C211.853 8.52445 211.722 8.53681 211.59 8.54504C210.999 8.57797 210.407 8.61776 209.812 8.64246C209.561 8.65344 209.493 8.71657 209.385 8.76872C209.301 8.80851 209.205 8.82497 209.057 8.83046C208.913 8.83595 208.81 8.82908 208.698 8.79341C208.554 8.74675 208.39 8.71793 208.166 8.73714C207.907 8.7591 207.643 8.76871 207.375 8.78381C207.24 8.79067 207.136 8.81537 207.092 8.86477C207.084 8.873 207.168 8.89359 207.216 8.90594C207.375 8.94711 207.527 8.99513 207.707 9.02395C207.891 9.05277 208.09 9.01982 208.282 9.01159C208.35 9.00884 208.414 9.00062 208.478 9.00199C208.538 9.00336 208.61 9.01023 208.654 9.02258C208.862 9.08433 209.081 9.12687 209.369 9.08982C209.616 9.10766 209.744 9.22155 210.06 9.19136C210.252 9.17352 210.451 9.16529 210.651 9.15843C210.703 9.15706 210.759 9.18176 210.815 9.19411C210.975 9.22841 211.103 9.2833 211.342 9.25997C211.598 9.23527 211.869 9.23116 212.129 9.21195C212.273 9.20097 212.377 9.21058 212.489 9.24625C212.632 9.29154 212.796 9.32583 213.02 9.30388C213.212 9.28467 213.415 9.28055 213.611 9.2682C213.867 9.2531 213.867 9.25448 214.322 9.33956C214.374 9.34916 214.442 9.36014 214.498 9.3574C214.829 9.34093 215.157 9.32034 215.489 9.30388C215.616 9.29702 215.74 9.31485 215.828 9.35465C215.864 9.37112 215.852 9.39858 215.864 9.42191C215.205 9.45896 214.546 9.49051 213.891 9.5358C213.643 9.55364 213.531 9.49737 213.367 9.46581C213.311 9.45483 213.252 9.43151 213.2 9.43425C212.736 9.45758 212.277 9.48227 211.818 9.51246C211.674 9.52207 211.566 9.51658 211.458 9.47678C211.182 9.37112 210.847 9.42875 210.535 9.44385C210.296 9.45483 210.22 9.49737 210.248 9.58794C210.284 9.69498 210.427 9.72791 210.795 9.7087C210.927 9.70184 211.059 9.69223 211.19 9.68674C211.318 9.68125 211.434 9.69909 211.538 9.73614C211.638 9.77319 211.758 9.7924 211.881 9.78691C212.145 9.77456 212.413 9.76222 212.668 9.74163C212.88 9.72517 213.056 9.73888 213.204 9.78966C213.367 9.84592 213.559 9.83357 213.751 9.82122C214.198 9.79377 214.202 9.79515 214.482 9.86376C214.538 9.87749 214.594 9.90356 214.646 9.90219C215.105 9.88161 215.569 9.86377 216.02 9.83083C216.256 9.81436 216.391 9.85827 216.547 9.89395C216.603 9.9063 216.659 9.93375 216.711 9.931C217.043 9.91591 217.374 9.90081 217.698 9.87474C217.849 9.86239 217.941 9.87061 218.065 9.90355C218.361 9.98451 218.369 9.98177 218.788 9.95569C218.916 9.94746 219.056 9.93237 219.176 9.94335C219.296 9.95433 219.391 9.99413 219.503 10.0188C219.555 10.0298 219.619 10.0449 219.675 10.0421C219.939 10.0312 220.202 10.0147 220.466 9.99962C220.714 9.98452 220.714 9.9859 221.177 10.071C221.365 10.1067 221.561 10.0765 221.748 10.0655C221.952 10.0531 222.136 10.0531 222.292 10.1067C222.447 10.1602 222.635 10.1574 222.835 10.1464C223.023 10.1355 223.214 10.1053 223.406 10.1423C223.845 10.2274 223.846 10.2288 224.117 10.2123C224.513 10.189 224.904 10.167 225.304 10.1464C225.355 10.1437 225.423 10.1602 225.475 10.1711C225.587 10.1958 225.683 10.237 225.803 10.2466C225.923 10.2576 226.063 10.2411 226.19 10.2329C226.602 10.2068 226.63 10.1972 226.905 10.2878C227.137 10.3619 227.425 10.2549 227.64 10.3399C227.764 10.388 227.932 10.4264 228.164 10.403C228.355 10.3838 228.555 10.3783 228.755 10.3674C229.07 10.3495 229.071 10.3509 229.47 10.4332C229.522 10.4442 229.59 10.4579 229.642 10.4552C229.905 10.4442 230.173 10.4346 230.429 10.4099C230.728 10.3811 230.92 10.4332 231.144 10.484C231.319 10.5238 231.527 10.4909 231.715 10.4772C231.919 10.4634 232.102 10.4675 232.254 10.5211C232.414 10.5759 232.602 10.5691 232.802 10.5581C232.989 10.5485 233.181 10.5169 233.373 10.5554C233.784 10.6404 233.784 10.6404 234.084 10.624C234.347 10.6089 234.611 10.5924 234.875 10.5814C234.927 10.5787 234.991 10.5965 235.043 10.6089C235.154 10.6336 235.25 10.6748 235.37 10.6844C235.49 10.694 235.63 10.6761 235.762 10.6693C235.893 10.6624 236.033 10.6418 236.153 10.6501C236.273 10.6583 236.385 10.6926 236.481 10.7228C236.592 10.7585 236.696 10.7626 236.848 10.7489C237.04 10.731 237.24 10.7269 237.435 10.7173C237.543 10.7434 237.655 10.7694 237.759 10.7983C237.867 10.8284 237.983 10.8257 238.13 10.8161C238.622 10.7832 238.626 10.7873 239.037 10.8724C239.225 10.9108 239.421 10.8792 239.608 10.8696C239.808 10.8586 239.996 10.8532 240.152 10.908C240.304 10.9602 240.491 10.967 240.691 10.9506C240.819 10.9396 240.955 10.9327 241.087 10.9286C241.146 10.9273 241.218 10.9327 241.262 10.9437C241.474 11.0014 241.682 11.0535 241.973 11.0165C242.229 11.0274 242.357 11.14 242.664 11.118C242.924 11.0988 243.196 11.0947 243.451 11.07C243.687 11.048 243.855 11.0864 243.975 11.1345C244.19 11.2195 244.494 11.1043 244.71 11.188C244.834 11.236 244.993 11.2744 245.233 11.2538C245.497 11.2319 245.58 11.2607 245.656 11.3472C245.7 11.3966 245.692 11.4364 245.613 11.4748C245.533 11.5146 245.445 11.5077 245.317 11.4624C245.169 11.4117 244.993 11.402 244.782 11.413C244.574 11.424 244.446 11.3527 244.274 11.3252C244.102 11.2964 243.899 11.3444 243.719 11.3074C243.296 11.2209 243.296 11.2209 243.008 11.2374C242.812 11.2484 242.609 11.2539 242.417 11.2731C242.189 11.2964 242.041 11.2538 241.885 11.2154C241.83 11.2017 241.774 11.1756 241.726 11.177C241.266 11.1976 240.803 11.2168 240.347 11.2511C240.108 11.2689 239.98 11.2195 239.82 11.1852C239.764 11.1729 239.704 11.1482 239.656 11.1509C239.261 11.1701 238.869 11.1948 238.474 11.2182C238.398 11.2552 238.314 11.2909 238.242 11.3307C238.166 11.3719 238.063 11.3897 237.911 11.3883C237.659 11.3883 237.411 11.446 237.16 11.3732C236.9 11.2991 236.88 11.3032 236.628 11.3211C236.309 11.3444 235.969 11.3389 235.67 11.3924C235.618 11.4021 235.562 11.4281 235.562 11.4473C235.558 11.4597 235.642 11.4775 235.694 11.4885C235.869 11.5214 236.073 11.4734 236.249 11.5077C236.365 11.5297 236.461 11.5626 236.577 11.5859C236.624 11.5955 236.696 11.5942 236.76 11.5928C236.828 11.5914 236.892 11.5818 236.956 11.5832C237.016 11.5846 237.08 11.5928 237.128 11.6051C237.348 11.6573 237.579 11.7053 237.775 11.7671C237.967 11.8274 238.146 11.7863 238.338 11.7835C239.105 11.8796 239.105 11.881 239.62 11.8508C239.748 11.8439 239.88 11.8357 240.012 11.8371C240.068 11.8371 240.12 11.8617 240.176 11.8755C240.335 11.9166 240.487 11.9537 240.711 11.9317C240.903 11.9125 241.106 11.9084 241.302 11.8961C241.566 11.881 241.566 11.881 242.013 11.9674C242.125 11.9894 242.245 11.9866 242.389 11.9757C242.513 11.966 242.64 11.9866 242.728 12.0264C242.764 12.0429 242.752 12.0703 242.764 12.0937C242.369 12.1156 241.969 12.1307 241.586 12.1636C241.338 12.1842 241.226 12.1252 241.063 12.0937C241.007 12.0827 240.947 12.0594 240.895 12.0621C240.503 12.0827 240.112 12.106 239.72 12.1334C239.672 12.1362 239.612 12.1678 239.608 12.187C239.601 12.2226 239.7 12.257 239.844 12.2556C240.036 12.2542 240.224 12.2309 240.395 12.2871C240.539 12.3365 240.719 12.3585 240.931 12.3366C241.058 12.3242 241.194 12.3242 241.322 12.3132C241.662 12.2803 241.969 12.2871 242.225 12.3805C242.421 12.4052 242.612 12.3818 242.8 12.3695C242.94 12.3599 243.076 12.3503 243.176 12.3763C243.387 12.4312 243.595 12.4861 243.887 12.4491C244.202 12.4875 244.442 12.5685 244.706 12.6343C244.83 12.6659 244.925 12.6837 245.069 12.6631C245.129 12.6549 245.201 12.6549 245.265 12.6508C245.397 12.6439 245.537 12.6233 245.656 12.6316C245.776 12.6412 245.876 12.681 245.984 12.7057C246.036 12.718 246.096 12.7386 246.148 12.7372C246.347 12.7304 246.543 12.7167 246.739 12.7057C246.935 12.6961 247.13 12.6865 247.326 12.6769C247.49 12.7125 247.658 12.7482 247.821 12.7839C248.085 12.7688 248.349 12.7537 248.609 12.74C248.9 12.7235 248.9 12.7249 249.319 12.81C249.507 12.8484 249.707 12.8237 249.887 12.8059C250.186 12.777 250.386 12.8292 250.598 12.8841C250.642 12.8951 250.722 12.9019 250.774 12.8964C250.981 12.8772 251.161 12.8923 251.313 12.9431C251.421 12.9788 251.529 12.9952 251.66 12.9884C252.12 12.9623 252.579 12.9348 253.039 12.9115C253.094 12.9088 253.158 12.9211 253.21 12.9321C253.618 13.0158 253.622 13.0199 253.921 12.998C254.189 12.9788 254.437 12.9705 254.648 13.046C254.692 13.0625 254.76 13.0858 254.808 13.0844C255.136 13.0707 255.467 13.0556 255.791 13.0323C255.939 13.0213 256.043 13.0254 256.158 13.057C256.306 13.0968 256.438 13.1448 256.682 13.127C257.357 13.0762 257.361 13.0844 258.16 13.1791C258.216 13.186 258.292 13.175 258.355 13.1695C258.491 13.1558 258.591 13.175 258.711 13.2066C258.979 13.2779 258.987 13.2738 259.242 13.2587C259.438 13.2463 259.642 13.2436 259.833 13.223C260.129 13.1928 260.325 13.2464 260.545 13.2971C260.72 13.3369 260.924 13.304 261.112 13.2916C261.315 13.2779 261.499 13.282 261.651 13.3342C261.755 13.3698 261.867 13.3891 261.999 13.3822C262.458 13.3575 262.917 13.3301 263.377 13.3054C263.433 13.3026 263.501 13.3136 263.553 13.3232C264.008 13.4083 264.008 13.4124 264.459 13.3808C264.603 13.3712 264.723 13.3685 264.831 13.3973C264.935 13.4247 265.047 13.4508 265.154 13.4769C265.35 13.4673 265.55 13.4645 265.742 13.4481C265.889 13.4357 265.993 13.4412 266.109 13.47C266.261 13.5071 266.389 13.5716 266.628 13.54C266.752 13.5249 266.896 13.529 267.02 13.5153C267.168 13.4975 267.268 13.5084 267.383 13.5441C267.527 13.5867 267.675 13.6306 267.907 13.6086C268.162 13.5839 268.434 13.5798 268.694 13.5606C268.837 13.5496 268.937 13.5606 269.053 13.5963C269.197 13.6415 269.361 13.6704 269.585 13.6525C270.04 13.6182 270.044 13.6251 270.487 13.7115C270.599 13.7335 270.719 13.7307 270.863 13.7198C270.987 13.7102 271.114 13.7307 271.202 13.7705C271.286 13.8145 271.278 13.8419 271.286 13.8652ZM235.69 1.48895C235.558 1.49581 235.426 1.50404 235.234 1.38465C235.222 1.36407 235.23 1.33938 235.202 1.32154C235.138 1.28449 235.039 1.25841 234.919 1.2543C234.703 1.24881 234.443 1.29546 234.447 1.33113C234.451 1.36132 234.519 1.38739 234.651 1.41209C234.707 1.4217 234.751 1.43817 234.803 1.44915C234.955 1.48071 235.075 1.54247 235.294 1.51091C235.274 1.46837 235.254 1.42583 235.294 1.51091C235.274 1.56305 235.334 1.6001 235.478 1.6152C235.518 1.61932 235.578 1.61656 235.61 1.60833C235.734 1.57814 235.754 1.53698 235.662 1.42858C235.646 1.44641 235.658 1.47797 235.694 1.4862C235.73 1.49443 235.818 1.48758 235.861 1.47797C235.973 1.4519 236.029 1.41759 236.001 1.38878C235.985 1.37368 235.909 1.35447 235.861 1.35447C235.778 1.35447 235.702 1.38466 235.69 1.48895ZM267.991 17.4029C267.699 17.4289 267.363 17.4193 267.072 17.4729C267.02 17.4825 266.968 17.5072 266.964 17.5264C266.96 17.5387 267.04 17.5566 267.088 17.5662C267.196 17.5881 267.316 17.5813 267.455 17.5744C267.667 17.5648 267.791 17.6279 267.955 17.6595C268.007 17.6691 268.075 17.6759 268.13 17.6732C268.454 17.6567 268.774 17.6389 269.097 17.6197C269.153 17.6156 269.213 17.606 269.261 17.5936C269.421 17.5538 269.405 17.5278 269.249 17.4976C269.077 17.4646 268.941 17.4097 268.766 17.3837C268.514 17.3466 268.258 17.396 267.991 17.4029ZM245.305 18.4046C245.109 18.4156 244.917 18.4266 244.722 18.4376C244.658 18.4417 244.59 18.443 244.53 18.4485C244.406 18.4581 244.314 18.4869 244.254 18.5322C244.346 18.5679 244.458 18.5885 244.582 18.5844C244.778 18.5761 244.969 18.5583 245.165 18.5542C245.377 18.5487 245.501 18.6105 245.664 18.642C245.716 18.6516 245.78 18.653 245.84 18.6544C246.136 18.6599 246.316 18.5885 246.26 18.4883C246.22 18.4101 246.068 18.3635 245.884 18.3731C245.692 18.3827 245.497 18.3936 245.305 18.4046ZM269.357 15.3747C269.405 15.3514 269.457 15.3349 269.481 15.3143C269.553 15.2443 269.525 15.1922 269.393 15.1373C269.233 15.0701 269.037 15.1153 268.857 15.1222C268.814 15.1236 268.766 15.1524 268.742 15.1702C268.726 15.1826 268.726 15.2087 268.75 15.2155C268.945 15.2704 269.153 15.3212 269.357 15.3747ZM234.703 11.3211C234.511 11.3321 234.316 11.3403 234.124 11.3554C234.076 11.3595 234.032 11.3856 234.004 11.4034C233.952 11.4364 234.008 11.4816 234.172 11.4858C234.359 11.4912 234.555 11.4679 234.751 11.4569C234.999 11.4432 235.146 11.3924 235.055 11.3485C234.967 11.306 234.847 11.2978 234.703 11.3211ZM24.4274 8.3886C24.5552 8.38174 24.687 8.37625 24.8149 8.36664C24.9347 8.35703 25.0266 8.32685 25.0866 8.28156C24.9867 8.24588 24.8748 8.22667 24.751 8.23079C24.5552 8.23902 24.3635 8.25 24.1718 8.26372C24.0519 8.27196 23.9361 8.30214 23.9082 8.3488C23.8802 8.38448 24.1478 8.40507 24.4274 8.3886ZM217.81 8.17727C217.861 8.18962 217.913 8.21432 217.965 8.21432C218.093 8.21432 218.225 8.20609 218.345 8.19236C218.397 8.18687 218.437 8.16217 218.461 8.14296C218.477 8.13061 218.473 8.10866 218.449 8.09769C218.333 8.03182 217.869 8.05514 217.794 8.13062C217.786 8.14434 217.806 8.16218 217.81 8.17727ZM205.206 0.662852C205.218 0.684808 205.222 0.706761 205.238 0.728717C205.27 0.769884 205.358 0.80008 205.486 0.820664C205.586 0.786357 205.638 0.747941 205.634 0.706773C205.63 0.684817 205.618 0.662847 205.602 0.640891C205.57 0.599724 205.482 0.569545 205.354 0.548962C205.254 0.581895 205.206 0.620312 205.206 0.662852ZM278.588 18.6434C278.552 18.6612 278.517 18.6791 278.477 18.6955C278.584 18.7353 278.684 18.7477 278.76 18.7257C278.808 18.712 278.836 18.6914 278.872 18.6736C278.764 18.6338 278.668 18.6228 278.588 18.6434ZM276.104 18.83C276.156 18.8424 276.204 18.8588 276.26 18.8671C276.351 18.8808 276.435 18.8575 276.499 18.8081C276.447 18.7957 276.399 18.7792 276.344 18.771C276.252 18.7573 276.168 18.7806 276.104 18.83ZM277.678 18.5789C277.65 18.6118 277.706 18.6393 277.853 18.6626C277.889 18.6448 277.937 18.6283 277.961 18.6091C278.001 18.5775 277.933 18.5487 277.79 18.5268C277.75 18.5432 277.714 18.5611 277.678 18.5789ZM269.245 17.0996C269.217 17.1325 269.273 17.16 269.421 17.1833C269.457 17.1655 269.505 17.149 269.529 17.1298C269.569 17.0982 269.501 17.0694 269.357 17.0475C269.317 17.0639 269.281 17.0818 269.245 17.0996ZM257.756 7.3896C257.72 7.40744 257.684 7.42528 257.644 7.44175C257.752 7.48154 257.852 7.49389 257.928 7.47193C257.976 7.45821 258.004 7.43763 258.04 7.41979C257.932 7.37999 257.836 7.36902 257.756 7.3896ZM246.751 2.23819C246.847 2.24779 246.927 2.22859 246.995 2.17782C246.943 2.16547 246.895 2.149 246.839 2.14076C246.747 2.12704 246.663 2.15038 246.599 2.19978C246.651 2.2135 246.703 2.22584 246.751 2.23819ZM240.907 1.91571C240.871 1.93355 240.835 1.95139 240.795 1.96786C240.903 2.00765 241.003 2.02 241.079 1.99804C241.126 1.98432 241.154 1.96374 241.19 1.9459C241.083 1.9061 240.987 1.8965 240.907 1.91571ZM201.276 0.661478C201.24 0.679318 201.204 0.697157 201.164 0.713624C201.272 0.753419 201.371 0.765766 201.447 0.74381C201.495 0.730087 201.523 0.709503 201.559 0.691664C201.451 0.651869 201.356 0.642267 201.276 0.661478ZM3.94269 11.8261C3.89076 11.8137 3.83888 11.8014 3.79094 11.7877C3.6751 11.8247 3.63915 11.859 3.70307 11.8851C3.74302 11.9015 3.80289 11.9112 3.85482 11.9235C3.97466 11.8865 4.00261 11.8535 3.94269 11.8261Z" fill="#FFE492"/>
</svg>
