<svg width="260" height="39" viewBox="0 0 260 39" fill="none" xmlns="http://www.w3.org/2000/svg">
<path d="M244.157 20.4871C243.801 20.5196 243.442 20.5419 243.093 20.5905C242.866 20.621 242.769 20.5318 242.618 20.4851C242.568 20.4689 242.514 20.4364 242.467 20.4405C242.115 20.4729 241.763 20.5094 241.41 20.5459C241.303 20.625 241.234 20.7304 241.069 20.769C240.907 20.8055 240.717 20.8055 240.537 20.8237C240.3 20.846 240.062 20.8683 239.825 20.8886C239.706 20.8988 239.609 20.9373 239.57 21.0103C239.563 21.0224 239.642 21.0528 239.685 21.0711C239.829 21.1319 239.969 21.2009 240.127 21.2475C240.278 21.2921 240.465 21.2191 240.627 21.2759C240.99 21.4036 240.993 21.4016 241.27 21.3773C241.508 21.355 241.745 21.3306 241.982 21.3144C242.029 21.3104 242.083 21.3408 242.133 21.357C242.284 21.4016 242.381 21.503 242.604 21.4645C242.773 21.434 242.96 21.428 243.136 21.4117C243.284 21.4705 243.42 21.5374 243.578 21.5841C243.726 21.6287 243.769 21.6632 243.69 21.722C243.618 21.7767 243.517 21.799 243.384 21.8031C243.266 21.8051 243.147 21.8233 243.028 21.8335C242.967 21.8396 242.91 21.8436 242.852 21.8497C242.626 21.872 242.626 21.872 242.212 21.7422C242.05 21.6915 241.867 21.7625 241.712 21.7138C241.608 21.6814 241.518 21.6328 241.418 21.5983C241.375 21.5841 241.306 21.5821 241.252 21.5861C241.073 21.6003 240.893 21.6104 240.72 21.6368C240.598 21.655 240.526 21.7118 240.54 21.7686C240.544 21.7909 240.63 21.8233 240.681 21.8254C240.796 21.8294 240.918 21.801 241.029 21.8152C241.137 21.8294 241.249 21.87 241.328 21.9146C241.49 22.0079 241.673 21.9247 241.827 21.9491C241.989 21.9754 242.122 22.0565 242.277 22.1052C242.316 22.1174 242.392 22.0971 242.453 22.091C242.629 22.0768 242.805 22.0646 242.982 22.0504C243.129 22.1092 243.287 22.162 243.42 22.2289C243.661 22.3505 243.92 22.3971 244.233 22.3383C244.409 22.3059 244.581 22.3181 244.722 22.3972C244.865 22.4783 245.031 22.4702 245.214 22.4539C245.383 22.4377 245.556 22.3931 245.728 22.4499C246.102 22.5756 246.106 22.5817 246.548 22.533C246.681 22.5188 246.782 22.5148 246.882 22.5614C246.976 22.604 247.076 22.6405 247.174 22.681C247.35 22.6668 247.529 22.6526 247.706 22.6364C247.932 22.6141 248.058 22.6425 248.112 22.756C248.144 22.825 248.159 22.8878 248.238 22.9345C248.331 22.9913 248.432 22.9892 248.568 22.973C248.698 22.9588 248.791 22.9365 248.845 22.8635C248.867 22.8331 248.91 22.8047 248.95 22.7804C248.982 22.7621 249.032 22.7338 249.061 22.7378C249.115 22.7459 249.187 22.7682 249.205 22.7946C249.381 23.0399 249.381 23.0419 249.561 23.1129C249.758 23.192 249.963 23.2629 250.143 23.3522C250.305 23.4312 250.467 23.3968 250.643 23.3968C250.776 23.3968 250.862 23.4495 250.851 23.5022C250.844 23.5326 250.794 23.5772 250.751 23.5813C250.398 23.6218 250.043 23.6563 249.687 23.6847C249.643 23.6887 249.59 23.6522 249.539 23.634C249.439 23.5975 249.349 23.5407 249.241 23.5286C249.133 23.5164 249.007 23.5468 248.888 23.5569C248.77 23.5671 248.644 23.5935 248.536 23.5772C248.428 23.561 248.342 23.5022 248.241 23.4637C248.195 23.4454 248.13 23.4191 248.09 23.4252C247.828 23.4738 247.634 23.4069 247.447 23.3177C247.407 23.2995 247.339 23.2873 247.289 23.2913C246.872 23.3258 246.458 23.3664 246.041 23.4049C245.872 23.4211 245.735 23.3501 245.7 23.2305C245.682 23.1636 245.646 23.0967 245.646 23.0298C245.646 22.9081 245.448 22.8412 245.304 22.8554C245.067 22.8757 244.826 22.8919 244.592 22.9223C244.402 22.9466 244.24 22.9223 244.11 22.8493C243.959 22.7662 243.787 22.7824 243.614 22.8047C243.485 22.8209 243.449 22.8878 243.456 23.0561C243.463 23.192 243.402 23.2346 243.168 23.2569C242.874 23.2852 242.575 23.3136 242.277 23.3359C242.23 23.34 242.176 23.3055 242.13 23.2873C242.029 23.2508 241.939 23.192 241.831 23.1798C241.723 23.1656 241.597 23.196 241.479 23.2082C241.36 23.2183 241.234 23.2467 241.126 23.2325C241.019 23.2183 240.929 23.1575 240.832 23.119C240.785 23.1008 240.727 23.0744 240.681 23.0784C240.443 23.0947 240.206 23.119 239.969 23.1413C239.703 23.1656 239.703 23.1656 239.325 23.0399C239.153 22.9831 238.98 23.0278 238.811 23.044C238.631 23.0602 238.462 23.0683 238.322 22.9872C238.229 22.9345 238.124 22.902 238.013 22.9122C237.715 22.9365 237.42 22.9669 237.121 22.9913C237.071 22.9953 237.003 22.9852 236.963 22.9669C236.773 22.8818 236.586 22.8148 236.32 22.8574C236.09 22.8939 235.842 22.896 235.611 22.9304C235.486 22.9487 235.428 23.0136 235.453 23.0642C235.468 23.0906 235.543 23.121 235.593 23.121C235.708 23.1231 235.834 23.0926 235.942 23.1048C236.165 23.1291 236.277 23.2994 236.568 23.2528C236.74 23.2244 236.92 23.2143 237.1 23.2062C237.147 23.2041 237.197 23.2427 237.247 23.263C237.391 23.3177 237.517 23.3887 237.725 23.3522C237.898 23.3238 238.081 23.3157 238.257 23.2995C238.538 23.2731 238.538 23.2751 238.901 23.3988C239.074 23.4576 239.246 23.411 239.415 23.3968C239.541 23.3866 239.66 23.3664 239.76 23.3948C239.915 23.4373 240.026 23.5346 240.217 23.5286C240.397 23.5225 240.573 23.4941 240.753 23.484C240.864 23.4779 240.968 23.5103 241.058 23.5651C241.152 23.6198 241.252 23.6441 241.374 23.632C241.551 23.6157 241.73 23.5955 241.91 23.5853C241.96 23.5833 242.018 23.6016 242.065 23.6178C242.165 23.6543 242.262 23.6969 242.36 23.7354C242.536 23.7232 242.716 23.7192 242.888 23.6948C243.021 23.6766 243.115 23.6847 243.222 23.7253C243.359 23.78 243.471 23.8773 243.693 23.8307C243.805 23.8084 243.934 23.8145 244.046 23.7942C244.182 23.7678 244.276 23.778 244.373 23.8388C244.556 23.9544 244.786 23.9564 245.024 23.9118C245.283 23.8631 245.477 23.9199 245.671 24.0091C245.876 24.1024 245.876 24.1004 246.034 24.3254C246.081 24.3903 246.214 24.4207 246.325 24.4086C246.512 24.3883 246.674 24.3984 246.81 24.4755C246.954 24.5586 247.127 24.5485 247.303 24.5262C247.537 24.4957 247.77 24.4694 247.961 24.587C248.054 24.6438 248.155 24.6579 248.281 24.6437C248.637 24.6073 248.996 24.585 249.345 24.5404C249.557 24.512 249.679 24.5768 249.823 24.6316C250.017 24.7066 250.229 24.7735 250.229 24.9337C250.229 24.9601 250.28 24.9905 250.323 25.0108C250.416 25.0533 250.517 25.0898 250.614 25.1304C250.758 25.1912 250.898 25.2419 251.096 25.2095C251.268 25.1831 251.452 25.175 251.628 25.1567C251.804 25.1385 251.966 25.1284 252.124 25.2054C252.308 25.2926 252.502 25.3757 252.71 25.4406C252.858 25.4872 253.052 25.4082 253.21 25.471C253.307 25.5096 253.4 25.5542 253.505 25.5866C253.548 25.6008 253.616 25.5906 253.674 25.5866C253.792 25.5785 253.915 25.5724 254.03 25.5521C254.163 25.5298 254.263 25.5339 254.364 25.5805C254.457 25.6231 254.551 25.6819 254.659 25.6941C254.821 25.7123 255 25.6312 255.162 25.7245C255.245 25.7711 255.349 25.8157 255.457 25.8299C255.565 25.8441 255.691 25.8137 255.806 25.8157C255.856 25.8157 255.917 25.8482 255.946 25.8745C255.964 25.8887 255.939 25.9272 255.914 25.9475C255.881 25.9718 255.834 26.0043 255.788 26.0084C255.432 26.0449 255.076 26.0753 254.72 26.1097C254.508 26.13 254.508 26.13 254.08 26.0023C253.979 25.9719 253.868 25.9779 253.742 25.9921C253.573 26.0104 253.4 26.0449 253.224 26.0084C252.994 25.8705 252.71 25.8583 252.408 25.911C252.282 25.9333 252.167 25.9333 252.074 25.8948C251.876 25.8177 251.668 25.7468 251.491 25.6556C251.355 25.5846 251.29 25.5785 251.233 25.6758C251.215 25.7062 251.197 25.7387 251.2 25.7671C251.222 25.8684 251.261 25.9678 251.283 26.0692C251.29 26.0976 251.261 26.13 251.243 26.1604C251.186 26.2456 251.11 26.2395 250.985 26.1685C250.859 26.0976 250.708 26.0509 250.506 26.0834C250.334 26.1118 250.147 26.1077 249.974 26.1381C249.708 26.1827 249.521 26.1178 249.331 26.0307C249.291 26.0124 249.223 26.0023 249.173 26.0063C248.637 26.053 248.105 26.1057 247.569 26.1523C247.454 26.1624 247.35 26.132 247.26 26.0773C247.166 26.0225 247.062 25.9942 246.947 26.0043C246.472 26.0469 245.998 26.0854 245.523 26.1381C245.329 26.1604 245.175 26.134 245.042 26.0631C244.941 26.0104 244.847 25.9942 244.722 26.0002C244.585 26.0063 244.488 26.0266 244.42 26.0854C244.355 26.1422 244.402 26.1766 244.545 26.2212C244.7 26.2699 244.844 26.3328 244.991 26.3895C245.11 26.3814 245.229 26.3652 245.344 26.3672C245.394 26.3672 245.441 26.4037 245.491 26.424C245.635 26.4828 245.768 26.5416 245.973 26.5092C246.145 26.4808 246.329 26.4747 246.505 26.4564C246.749 26.4341 246.749 26.4341 247.145 26.5619C247.245 26.5943 247.353 26.5923 247.483 26.574C247.594 26.5598 247.709 26.5882 247.788 26.6491C247.821 26.6734 247.81 26.714 247.742 26.8478C247.742 26.9471 247.817 26.9025 247.842 26.8376C247.882 26.7444 247.806 26.714 247.662 26.7647C247.562 26.8011 247.512 26.8539 247.537 26.8965C247.551 26.9188 247.619 26.9471 247.742 26.8478C248.058 26.7261 248.299 26.7119 248.529 26.6795C248.666 26.6612 248.752 26.6693 248.86 26.7221C248.989 26.7849 249.119 26.8518 249.331 26.8194C249.561 26.7829 249.805 26.7788 250.039 26.7484C250.255 26.72 250.366 26.8093 250.503 26.862C250.668 26.9248 250.851 26.8539 251.002 26.8904C251.161 26.9269 251.272 27.0161 251.455 27.0323C251.721 26.9775 251.89 27.0789 252.092 27.1458C252.25 27.1965 252.437 27.1519 252.606 27.1296C252.796 27.1053 252.955 27.1276 253.088 27.2006C253.239 27.2837 253.408 27.2655 253.58 27.2472C253.983 27.2067 253.997 27.2006 254.231 27.3121C254.4 27.3932 254.562 27.3567 254.731 27.3466C254.878 27.4013 255.022 27.4601 255.176 27.5088C255.216 27.5209 255.292 27.5007 255.353 27.4946C255.529 27.4784 255.709 27.4621 255.885 27.4459C256.003 27.4358 256.129 27.4054 256.237 27.4175C256.345 27.4317 256.435 27.4905 256.532 27.5291C256.629 27.5676 256.73 27.6061 256.823 27.6467C256.967 27.7075 257.103 27.7582 257.305 27.7278C257.477 27.7014 257.657 27.6933 257.837 27.6751C258.063 27.6527 258.056 27.6588 258.477 27.7805C258.703 27.8474 258.937 27.7663 259.167 27.7582C259.282 27.7541 259.394 27.7764 259.473 27.8352C259.505 27.8596 259.494 27.9001 259.505 27.9346C258.912 27.9893 258.315 28.036 257.729 28.1029C257.503 28.1292 257.384 28.0562 257.262 27.9954C257.06 27.8981 256.794 28.04 256.604 27.9143C256.489 27.8393 256.323 27.7967 256.126 27.8332C256.011 27.8535 255.888 27.8514 255.77 27.8697C255.468 27.9143 255.191 27.9163 254.95 27.7764C254.867 27.7278 254.749 27.7014 254.662 27.6548C254.562 27.6041 254.465 27.5757 254.346 27.5858C253.81 27.6345 253.278 27.6831 252.746 27.7359C252.699 27.7399 252.653 27.7703 252.613 27.7926C252.512 27.8494 252.545 27.894 252.707 27.9305C252.76 27.9427 252.804 27.969 252.854 27.9893C252.951 28.0278 253.041 28.0887 253.149 28.1029C253.257 28.1171 253.383 28.0887 253.501 28.0785C253.62 28.0684 253.746 28.038 253.853 28.0502C253.961 28.0643 254.051 28.1232 254.152 28.1597C254.199 28.1779 254.256 28.2083 254.303 28.2063C254.54 28.1941 254.774 28.1718 255.011 28.1536C255.159 28.2083 255.284 28.2874 255.461 28.3056C255.572 28.3178 255.691 28.2955 255.806 28.2995C255.856 28.3016 255.921 28.332 255.946 28.3584C255.96 28.3746 255.913 28.4151 255.878 28.4354C255.741 28.5125 255.554 28.4982 255.385 28.5226C255.202 28.5489 255.036 28.5408 254.896 28.4618C254.803 28.409 254.698 28.3807 254.583 28.3908C254.285 28.4172 253.99 28.4476 253.692 28.4699C253.641 28.4739 253.58 28.4557 253.533 28.4415C253.156 28.3178 253.156 28.3138 252.89 28.3401C252.498 28.3786 252.498 28.3786 252.236 28.2712C252.185 28.2509 252.131 28.2124 252.088 28.2144C251.671 28.2468 251.258 28.2793 250.844 28.3259C250.708 28.3401 250.614 28.3401 250.514 28.2874C250.427 28.2428 250.327 28.1921 250.219 28.1799C250.107 28.1678 249.985 28.1982 249.866 28.2083C249.748 28.2185 249.622 28.2448 249.518 28.2286C249.41 28.2124 249.316 28.1556 249.223 28.1151C249.126 28.0725 249.022 28.0745 248.888 28.0907C248.479 28.1373 248.475 28.1313 248.069 28.0056C248.022 27.9914 247.961 27.9751 247.911 27.9792C247.612 28.0035 247.317 28.0339 247.019 28.0583C246.904 28.0684 246.792 28.0421 246.713 27.9833C246.681 27.9589 246.692 27.9184 246.67 27.8393C246.645 27.821 246.674 27.8535 246.681 27.8839C246.735 27.8798 246.8 27.8839 246.839 27.8677C246.94 27.8291 246.99 27.7784 246.965 27.7359C246.951 27.7136 246.882 27.6852 246.839 27.6852C246.76 27.6852 246.692 27.7298 246.67 27.8393C246.444 27.9062 246.203 27.9204 245.969 27.9528C245.833 27.9731 245.746 27.963 245.638 27.9103C245.509 27.8454 245.376 27.7825 245.164 27.8149C244.934 27.8514 244.689 27.8575 244.452 27.8859C244.179 27.9184 244.06 27.7359 243.83 27.7399C243.593 27.744 243.355 27.7785 243.118 27.8028C242.91 27.8231 242.91 27.8231 242.478 27.6913C242.32 27.6426 242.133 27.7136 241.979 27.6629C241.874 27.6304 241.784 27.5818 241.684 27.5473C241.641 27.5331 241.572 27.5331 241.518 27.5372C241.22 27.5615 240.918 27.5777 240.63 27.6223C240.303 27.675 240.055 27.6183 239.821 27.4986C239.527 27.521 239.228 27.5331 238.937 27.5716C238.725 27.6 238.603 27.5331 238.459 27.4784C238.408 27.4601 238.365 27.4297 238.311 27.4216C238.258 27.4135 238.193 27.4297 238.135 27.4358C237.898 27.4581 237.653 27.4682 237.423 27.5047C237.139 27.5514 237.031 27.3851 236.812 27.3648C236.665 27.4642 236.586 27.6 236.294 27.6102C236.057 27.6183 235.82 27.6507 235.583 27.673C235.464 27.6832 235.345 27.6953 235.227 27.7055C235.036 27.7237 234.946 27.8028 234.986 27.9244C235.007 27.9914 235.025 28.0583 235.043 28.1252C235.079 28.2448 234.989 28.3462 234.838 28.3604C234.421 28.3989 234.008 28.4395 233.591 28.4739C233.479 28.4841 233.372 28.4496 233.282 28.3948C233.188 28.3401 233.084 28.3158 232.969 28.3259C232.552 28.3644 232.138 28.405 231.721 28.4395C231.675 28.4435 231.614 28.4232 231.567 28.407C231.466 28.3705 231.369 28.3279 231.272 28.2894C231.035 28.3077 230.801 28.3198 230.567 28.3442C230.19 28.3806 230.19 28.3827 229.913 28.2712C229.863 28.2509 229.812 28.2124 229.766 28.2144C229.586 28.2225 229.41 28.2428 229.23 28.261C228.701 28.3138 228.701 28.3137 228.547 28.2529C228.407 28.1961 228.281 28.1272 228.069 28.1597C227.839 28.1962 227.594 28.2083 227.357 28.2286C227.181 28.2428 227.004 28.259 226.828 28.2631C226.782 28.2651 226.731 28.2266 226.681 28.2063C226.537 28.1434 226.397 28.0927 226.199 28.1272C226.084 28.1475 225.962 28.1515 225.843 28.1617C225.534 28.1901 225.534 28.1901 225.027 28.0684C224.977 28.0562 224.916 28.042 224.865 28.0481C224.448 28.0846 224.035 28.1252 223.618 28.1597C223.567 28.1637 223.506 28.1515 223.456 28.1414C222.888 28.0238 222.888 28.0238 222.284 28.0806C222.054 28.1009 222.047 28.109 221.806 28.0015C221.698 27.9549 221.608 27.9326 221.482 27.9467C221.008 27.9954 220.53 28.0279 220.059 28.0846C219.846 28.109 219.724 28.0481 219.58 27.9934C219.53 27.9751 219.476 27.9346 219.433 27.9366C218.958 27.9751 218.484 28.0218 218.009 28.0603C217.966 28.0644 217.912 28.0238 217.862 28.0056C217.765 27.9691 217.671 27.9143 217.563 27.9021C217.452 27.89 217.33 27.9204 217.208 27.9305C216.909 27.9569 216.909 27.9549 216.564 27.8352C216.517 27.819 216.456 27.7967 216.409 27.8008C215.935 27.8413 215.457 27.8758 214.986 27.9346C214.716 27.967 214.533 27.9082 214.342 27.8231C214.303 27.8048 214.234 27.7967 214.184 27.8008C213.648 27.8474 213.116 27.9001 212.581 27.9467C212.469 27.9569 212.361 27.9224 212.271 27.8697C212.128 27.7866 211.959 27.7967 211.779 27.8149C211.365 27.8575 211.362 27.8555 211.117 27.7582C211.067 27.7379 211.024 27.7115 210.97 27.7014C210.92 27.6913 210.855 27.6974 210.801 27.7014C210.564 27.7217 210.326 27.744 210.089 27.7663C209.852 27.7886 209.611 27.8008 209.377 27.8352C209.09 27.8778 208.953 27.746 208.752 27.6852C208.457 27.7115 208.155 27.7278 207.864 27.7703C207.641 27.8028 207.537 27.7136 207.389 27.6669C207.339 27.6507 207.285 27.6162 207.238 27.6203C206.702 27.6649 206.167 27.7136 205.635 27.7683C205.505 27.7805 205.419 27.7643 205.311 27.7156C205.07 27.6061 205.059 27.6102 204.657 27.6507C204.481 27.669 204.312 27.6852 204.161 27.6021C204.028 27.527 203.866 27.5088 203.675 27.5331C203.442 27.5635 203.201 27.5798 202.963 27.6C202.726 27.6223 202.489 27.6527 202.252 27.6629C202.061 27.673 201.946 27.5777 201.795 27.5291C201.748 27.5149 201.684 27.5128 201.63 27.5169C201.392 27.5351 201.148 27.5493 200.918 27.5838C200.637 27.6264 200.483 27.5149 200.285 27.45C200.242 27.4358 200.17 27.4439 200.116 27.45C199.699 27.4865 199.285 27.527 198.868 27.5656C198.721 27.5108 198.57 27.4581 198.423 27.4034C198.185 27.4236 197.948 27.4459 197.711 27.4662C197.531 27.4824 197.348 27.4885 197.179 27.5189C196.959 27.5595 196.852 27.4642 196.704 27.4175C196.654 27.4013 196.6 27.3669 196.553 27.3709C196.255 27.3932 195.956 27.4175 195.662 27.452C195.381 27.4865 195.27 27.304 195.04 27.306C194.802 27.308 194.558 27.3344 194.328 27.3709C194.062 27.4135 193.875 27.3486 193.684 27.2614C193.645 27.2432 193.576 27.233 193.526 27.2371C193.228 27.2614 192.933 27.2918 192.634 27.3162C192.584 27.3202 192.523 27.3101 192.473 27.2979C191.905 27.1783 191.905 27.1763 191.657 27.2006C191.48 27.2168 191.301 27.2371 191.121 27.2472C191.071 27.2513 191.009 27.233 190.963 27.2168C190.589 27.0931 190.589 27.0911 190.319 27.1154C190.082 27.1377 189.844 27.16 189.607 27.1823C189.46 27.1276 189.309 27.0749 189.161 27.0201C188.867 27.0465 188.565 27.0668 188.273 27.1032C188.137 27.1195 188.047 27.1134 187.943 27.0627C187.813 27.0019 187.684 26.9309 187.468 26.9654C187.238 27.0019 186.994 27.0059 186.76 27.0363C186.479 27.0728 186.364 26.8883 186.138 26.8904C185.901 26.8924 185.656 26.9187 185.426 26.9552C185.16 26.9978 184.973 26.9329 184.782 26.8458C184.743 26.8275 184.675 26.8174 184.624 26.8214C183.97 26.8802 183.319 26.939 182.665 27.0019C182.262 27.0404 182.262 27.0424 181.496 26.9309C181.443 26.9228 181.385 26.9147 181.331 26.9188C181.094 26.937 180.849 26.9512 180.619 26.9857C180.339 27.0282 180.184 26.9187 179.986 26.8518C179.943 26.8376 179.875 26.8457 179.817 26.8498C179.638 26.864 179.462 26.8823 179.282 26.8985C179.045 26.9208 178.807 26.9431 178.57 26.9654C178.423 26.9127 178.272 26.8579 178.124 26.8052C177.829 26.8316 177.527 26.8458 177.236 26.8883C177.013 26.9208 176.909 26.8356 176.762 26.787C176.711 26.7707 176.657 26.7363 176.611 26.7383C176.075 26.7829 175.539 26.8295 175.007 26.8863C174.788 26.9106 174.687 26.8194 174.54 26.7727C174.489 26.7586 174.432 26.7322 174.385 26.7363C174.029 26.7646 173.673 26.7991 173.317 26.8336C173.116 26.8539 173.116 26.8539 172.677 26.7281C172.627 26.714 172.57 26.6998 172.519 26.7038C171.39 26.8052 170.265 26.9127 169.136 27.014C169.021 27.0242 168.917 26.9938 168.827 26.939C168.734 26.8843 168.629 26.8559 168.514 26.866C168.04 26.9086 167.561 26.9471 167.09 26.9999C166.896 27.0222 166.742 26.9958 166.609 26.9248C166.508 26.8721 166.415 26.8518 166.289 26.864C166.051 26.8883 165.814 26.9086 165.577 26.9309C165.34 26.9532 165.102 26.9755 164.865 26.9978C164.628 27.0201 164.387 27.0323 164.153 27.0668C163.866 27.1093 163.725 26.9836 163.528 26.9208C163.172 26.9512 162.816 26.9816 162.463 27.014C161.989 27.0566 161.514 27.1033 161.04 27.1438C160.997 27.1479 160.943 27.1114 160.892 27.0931C160.745 27.0424 160.637 26.9715 160.418 26.9938C159.354 27.1012 158.282 27.1925 157.214 27.2979C156.992 27.3202 156.894 27.233 156.743 27.1864C156.693 27.1722 156.636 27.1438 156.589 27.1479C155.996 27.1986 155.403 27.2553 154.809 27.3101C154.568 27.3324 154.568 27.3324 154.166 27.2067C154.119 27.1925 154.058 27.1742 154.008 27.1783C153.235 27.2472 152.465 27.3202 151.692 27.3912C151.577 27.4013 151.473 27.3729 151.38 27.3182C151.29 27.2634 151.182 27.233 151.07 27.2432C150.358 27.3081 149.643 27.3709 148.935 27.4419C148.744 27.4621 148.586 27.4439 148.449 27.3709C148.352 27.3182 148.255 27.2959 148.133 27.308C147.065 27.4074 145.997 27.5027 144.93 27.6081C144.725 27.6284 144.581 27.5899 144.452 27.523C144.347 27.4703 144.257 27.4601 144.128 27.4682C143.991 27.4784 143.909 27.5007 143.833 27.5615C143.736 27.6406 143.675 27.7399 143.445 27.746C143.208 27.7521 142.967 27.7764 142.733 27.8109C142.51 27.8454 142.406 27.7541 142.266 27.6994C142.161 27.6609 142.064 27.6548 141.931 27.673C141.809 27.6892 141.734 27.7237 141.662 27.7886C141.503 27.9265 141.489 27.9265 141.295 27.8393C141.191 27.7926 141.097 27.7561 140.982 27.7643C140.508 27.8048 140.033 27.8494 139.558 27.8961C139.285 27.9224 139.282 27.9265 139.077 27.8251C138.976 27.7744 138.879 27.7501 138.76 27.7622C137.455 27.8839 136.15 28.0015 134.845 28.1292C134.644 28.1495 134.507 28.1069 134.363 28.0461C134.317 28.0258 134.27 27.9974 134.216 27.9893C134.162 27.9812 134.101 27.9893 134.043 27.9934C133.094 28.0806 132.142 28.1637 131.196 28.261C130.98 28.2833 130.865 28.2185 130.718 28.1657C130.668 28.1475 130.624 28.1191 130.57 28.111C130.517 28.1049 130.452 28.1191 130.394 28.1252C129.445 28.2124 128.492 28.2955 127.547 28.3928C127.32 28.4151 127.223 28.33 127.076 28.2854C127.026 28.2691 126.972 28.2387 126.925 28.2428C126.627 28.2651 126.332 28.2955 126.033 28.3218C125.321 28.3888 124.61 28.4516 123.898 28.5206C123.624 28.5469 123.506 28.3665 123.276 28.3746C122.977 28.3847 122.683 28.4253 122.384 28.4536C122.147 28.476 121.91 28.4962 121.672 28.5206C121.439 28.5429 121.439 28.5429 120.856 28.4253C120.806 28.4151 120.745 28.4009 120.694 28.405C119.864 28.48 119.03 28.555 118.203 28.6361C118.012 28.6544 117.854 28.6443 117.718 28.5692C117.621 28.5165 117.52 28.4901 117.401 28.5023C116.154 28.6179 114.91 28.7335 113.662 28.847C113.615 28.8511 113.554 28.8308 113.508 28.8146C113.407 28.7781 113.31 28.7355 113.213 28.697C113.141 28.7436 113.047 28.7862 113.001 28.8389C112.936 28.9099 112.85 28.9301 112.713 28.9423C112.576 28.9545 112.49 28.9504 112.382 28.8977C112.253 28.8328 112.12 28.7821 111.908 28.8024C110.603 28.9301 109.298 29.0457 107.993 29.1714C107.777 29.1917 107.676 29.1025 107.525 29.0558C107.475 29.0417 107.417 29.0194 107.371 29.0234C106.835 29.0701 106.303 29.1207 105.767 29.1694C104.282 29.3073 102.798 29.4391 101.316 29.5851C101.047 29.6114 100.863 29.5607 100.673 29.4735C100.633 29.4553 100.565 29.4452 100.515 29.4492C98.4366 29.6398 96.3585 29.8324 94.2841 30.0251C94.1727 30.0352 94.0648 30.0028 93.9749 29.95C93.8814 29.8953 93.7772 29.8689 93.6621 29.8791C92.713 29.9663 91.7639 30.0535 90.8148 30.1427C90.5775 30.165 90.5739 30.167 90.3294 30.0697C90.2791 30.0494 90.2252 30.0109 90.1856 30.0149C90.1029 30.0251 90.0238 30.0757 89.9663 30.1447C89.9087 30.2177 89.8189 30.238 89.6858 30.2521C89.5492 30.2663 89.4594 30.2603 89.3551 30.2116C89.2221 30.1508 89.0998 30.092 88.8841 30.1123C86.1554 30.3718 83.4266 30.6212 80.6978 30.8787C80.4785 30.8989 80.3778 30.8138 80.2268 30.7672C80.1765 30.753 80.1262 30.7327 80.0723 30.7286C80.0148 30.7246 79.9536 30.7368 79.8961 30.7428C75.4453 31.1544 70.9944 31.5681 66.5436 31.9797C66.2775 32.004 66.2811 32.004 65.9899 32.1906C65.954 32.2129 65.9072 32.2433 65.8568 32.2473C64.4943 32.3771 63.1281 32.5028 61.7619 32.6285C61.1687 32.6833 60.5755 32.74 59.9823 32.7928C59.7702 32.811 59.7702 32.811 59.2633 33.03C59.2202 33.0482 59.1698 33.0726 59.1194 33.0766C56.7466 33.2976 54.3738 33.5186 51.9973 33.7356C51.8104 33.7518 51.6594 33.7883 51.5731 33.8856C51.512 33.9546 51.4329 33.9951 51.3143 34.0073C49.6533 34.1614 47.9924 34.3175 46.3278 34.4676C46.13 34.4858 46.0114 34.5426 45.9143 34.6278C45.8819 34.6561 45.8531 34.6886 45.8064 34.7088C45.7633 34.7271 45.6986 34.7332 45.6446 34.7393C44.2209 34.8711 42.7973 35.0069 41.37 35.1326C41.1579 35.1509 41.0715 35.2259 40.9673 35.305C40.9313 35.3313 40.9061 35.3678 40.8594 35.3861C40.8127 35.4023 40.7444 35.4023 40.6868 35.4064C39.5004 35.5159 38.314 35.6274 37.1276 35.7369C36.8975 35.7267 36.8472 35.8443 36.7357 35.9153C36.6962 35.9396 36.6675 35.9721 36.6207 35.9883C36.5704 36.0045 36.5056 36.0025 36.4445 36.0065C35.4954 36.0937 34.5463 36.187 33.5935 36.2681C33.3742 36.2863 33.3311 36.3897 33.2124 36.4607C33.1729 36.483 33.1334 36.5175 33.0866 36.5236C32.4934 36.5824 31.9002 36.6371 31.307 36.6898C31.1093 36.7081 31.1093 36.7061 30.7605 36.9068C30.721 36.9291 30.6742 36.9534 30.6239 36.9595C29.7359 37.0447 28.8443 37.1258 27.9527 37.2089C27.8376 37.2191 27.7586 37.2677 27.701 37.3367C27.6435 37.4056 27.5608 37.4502 27.4458 37.4603C26.7339 37.5272 26.022 37.5962 25.3102 37.657C25.1124 37.6732 24.983 37.7239 24.8968 37.8152C24.832 37.8841 24.7529 37.9186 24.6271 37.9307C23.9153 37.9956 23.2034 38.0666 22.488 38.1234C22.2795 38.1396 22.1716 38.2085 22.0853 38.2937C22.017 38.3626 21.9379 38.387 21.8048 38.3991C20.4998 38.5167 19.1912 38.6343 17.8897 38.7641C17.6704 38.7864 17.5589 38.7154 17.4151 38.6647C17.2102 38.5938 17.0197 38.5167 17.0197 38.3586C17.0197 38.3342 16.9586 38.3058 16.9154 38.2856C16.5955 38.1335 16.5954 38.1335 16.5451 37.9713C16.5164 37.8719 16.484 37.7706 16.4588 37.6692C16.4121 37.5029 16.297 37.4603 15.9662 37.4908C15.8476 37.5009 15.729 37.5151 15.6103 37.5232C15.4342 37.5374 15.3012 37.4705 15.2688 37.3488C15.2508 37.2819 15.2293 37.215 15.2113 37.1481C15.3911 37.1319 15.3874 37.1298 15.7038 36.8845C15.8368 36.7811 15.8369 36.7811 15.5816 36.6777C15.4846 36.6392 15.3911 36.5966 15.2868 36.5601C15.2401 36.5438 15.179 36.5337 15.1286 36.5378C14.8302 36.5621 14.5354 36.5905 14.2406 36.6189C13.7661 36.6635 13.766 36.6635 13.2842 36.4567C13.2447 36.4404 13.1836 36.41 13.1908 36.3938C13.2303 36.3188 13.3274 36.2863 13.4496 36.2782C13.6294 36.2661 13.8055 36.2458 13.9817 36.2296C14.1003 36.2194 14.219 36.2073 14.3376 36.1971C14.4491 36.1201 14.5642 36.0451 14.6684 35.966C14.8338 35.8443 14.8338 35.8403 14.6073 35.7551C14.4634 35.6983 14.3089 35.6476 14.1615 35.5949C13.9853 35.6111 13.8055 35.6294 13.6294 35.6436C13.4065 35.6618 13.3166 35.6233 13.2591 35.4915C13.2087 35.3759 13.2698 35.2766 13.4424 35.2523C13.6186 35.2279 13.784 35.2117 13.8739 35.1083C13.9602 35.009 14.1112 34.9704 14.2981 34.9623C14.4168 34.9562 14.5354 34.942 14.654 34.9299C14.8086 34.9137 14.8913 34.8102 14.859 34.6947C14.841 34.6196 14.805 34.5568 14.6648 34.5406C14.0429 34.4696 14.0356 34.4716 13.7264 34.3337C13.6977 34.3216 13.6762 34.2851 13.6869 34.2668C13.7049 34.2364 13.7445 34.1918 13.7876 34.1857C14.2011 34.1411 14.6145 34.1006 15.028 34.0702C15.1646 34.06 15.2652 34.0458 15.312 33.9708C15.3767 33.8674 15.3479 33.7721 15.2221 33.7011C15.1826 33.6788 15.1178 33.6504 15.0746 33.6525C14.6001 33.689 14.1291 33.7356 13.6546 33.7721C13.6114 33.7761 13.5324 33.7417 13.5144 33.7153C13.4784 33.6667 13.5323 33.6018 13.6582 33.5795C13.8235 33.5491 13.9925 33.547 14.104 33.4456C14.2586 33.3017 14.4491 33.1699 14.6216 33.032C14.6504 33.0077 14.6972 32.961 14.6864 32.957C14.5965 32.9124 14.4923 32.8779 14.3988 32.8353C14.2406 32.7644 14.2406 32.665 14.2765 32.5697C14.3053 32.4927 14.4131 32.4623 14.5462 32.4623C14.6037 32.4623 14.6756 32.4623 14.7223 32.444C14.8446 32.3994 14.8841 32.3426 14.823 32.3C14.787 32.2757 14.7224 32.2413 14.6792 32.2453C13.9099 32.3122 13.1368 32.3771 12.371 32.4602C12.1446 32.4846 12.0404 32.4075 11.9037 32.3528C11.7995 32.3102 11.7024 32.2939 11.5729 32.3244C11.4507 32.3528 11.3321 32.3366 11.2566 32.2696C11.1955 32.2149 11.3033 32.1683 11.5945 32.1155C11.6484 32.1054 11.7095 32.0993 11.7491 32.079C12.1661 31.8601 12.1661 31.858 12.4537 31.8296C12.7342 31.8033 12.7342 31.8013 12.8816 31.6837C12.9499 31.6289 13.0254 31.5742 13.0901 31.5174C13.1153 31.4951 13.1585 31.4545 13.1441 31.4424C13.065 31.3795 12.9571 31.3653 12.8312 31.3795C12.5508 31.414 12.2201 31.3856 12.0727 31.5782C12.0152 31.6512 11.9253 31.6715 11.7959 31.6837C10.4944 31.8013 9.1929 31.927 7.88785 32.0405C7.67573 32.0588 7.57872 32.1338 7.49603 32.2169C7.42412 32.2859 7.34501 32.3061 7.20839 32.3183C7.07178 32.3305 6.96387 32.3366 6.88477 32.2696C6.83803 32.2291 6.87759 32.1723 6.98545 32.1155C7.14004 32.0344 7.11127 31.9331 7.06093 31.8378C7.02498 31.7749 6.91353 31.7303 6.79489 31.7343C6.61873 31.7425 6.4498 31.7648 6.3024 31.6837C6.21611 31.637 6.10823 31.6046 6.01116 31.564C5.82421 31.4809 5.63726 31.3957 5.37481 31.4505C5.19505 31.4302 5.06921 31.3572 4.92541 31.3004C4.68453 31.2072 4.66296 31.193 4.83553 31.0936C5.02967 30.9821 4.87864 30.8361 4.9865 30.7266C5.10154 30.609 5.25978 30.5056 5.4 30.3961C5.43595 30.3677 5.46832 30.3414 5.50427 30.313C5.42158 30.2724 5.3461 30.2217 5.24903 30.1934C5.12319 30.1569 5.05848 30.1123 5.06567 29.9865C5.0405 29.9683 5.05121 30.0149 5.07997 30.0271C5.11233 30.0392 5.19149 30.0291 5.23103 30.0149C5.3317 29.9764 5.38198 29.9257 5.35681 29.8831C5.34243 29.8608 5.27418 29.8324 5.23103 29.8324C5.15194 29.8324 5.08364 29.877 5.06207 29.9865C4.65941 30.0697 4.2423 30.1102 3.82525 30.1427C3.78211 30.1467 3.72821 30.1062 3.67788 30.0859C3.5125 30.017 3.51248 30.019 3.02713 29.9987C2.9768 29.9967 2.90852 29.9683 2.88336 29.9399C2.7791 29.8162 2.78272 29.6804 2.73239 29.5486C2.82586 29.4634 2.91926 29.3803 3.01633 29.2971C3.21047 29.1289 3.46219 28.9808 3.61319 28.7963C3.58084 28.697 3.53769 28.5976 3.69588 28.5165C4.14528 28.4151 4.14171 28.4151 4.26395 28.3178C4.61268 28.0421 4.9578 27.7643 5.32091 27.4926C5.41798 27.4216 5.418 27.3831 5.24543 27.3527C5.1915 27.3446 5.1339 27.3425 5.07638 27.3466C4.89662 27.3608 4.71686 27.3973 4.54069 27.3892C4.36453 27.3831 4.2351 27.2939 4.09129 27.2391C3.94389 27.1823 3.7965 27.1235 3.64909 27.0647C3.48012 27.0708 3.31118 27.1276 3.1422 27.0363C3.01277 26.9654 2.851 26.9147 2.7036 26.8559C2.81505 26.7018 3.0236 26.5842 3.18539 26.4483C3.33279 26.3246 3.3363 26.3267 3.73178 26.2314C3.91873 26.1868 3.98344 25.9576 3.82525 25.8907C3.63471 25.8096 3.43342 25.7346 3.23928 25.6576C3.0703 25.6636 2.89777 25.7184 2.73599 25.6272C2.61015 25.5582 2.46632 25.5116 2.2578 25.5379C1.90547 25.5825 1.54596 25.6048 1.19003 25.6413C1.0678 25.6535 0.934734 25.6454 0.880806 25.5765C0.844854 25.5278 0.949122 25.4609 1.06776 25.4467C1.24752 25.4264 1.40929 25.4021 1.49917 25.3007C1.58545 25.1993 1.74363 25.1689 1.93058 25.1547C1.98091 25.1507 2.03847 25.1263 2.06364 25.102C2.19307 24.9844 2.33689 24.883 2.61372 24.8871C2.72876 24.8465 2.78984 24.7958 2.75389 24.7472C2.73232 24.7208 2.65686 24.6863 2.61372 24.6904C2.31532 24.7107 2.01692 24.731 1.72571 24.7675C1.5891 24.7837 1.48478 24.7877 1.39849 24.7269C1.33738 24.6863 1.36973 24.6316 1.48478 24.5728C1.58544 24.5221 1.61423 24.4633 1.60704 24.3944C1.58907 24.2342 1.48119 24.1875 1.13605 24.1977C0.887983 24.2058 0.826861 24.1794 0.772933 24.0415C0.758552 24.0091 0.722663 23.9645 0.74783 23.9422C0.902423 23.8043 1.0031 23.634 1.29431 23.5691C1.40935 23.5448 1.53154 23.5448 1.60344 23.4921C1.67535 23.4394 1.74009 23.3785 1.81559 23.3278C1.90907 23.267 1.97372 23.2102 1.93058 23.1717C1.85867 23.1028 1.74366 23.0967 1.61064 23.121C1.4956 23.1413 1.37336 23.1433 1.25472 23.1555C1.0426 23.1778 0.870073 23.1251 0.844907 23.0359C0.776598 22.8007 0.704673 22.5675 0.643555 22.3323C0.636364 22.3039 0.654291 22.2674 0.683053 22.2431C0.783718 22.1579 0.891617 22.0768 0.995877 21.9937C1.11811 21.8984 1.31229 21.9166 1.47767 21.8984C1.71135 21.872 1.71127 21.874 2.02406 21.6794C2.14629 21.6023 2.35842 21.6327 2.48425 21.5638C2.5238 21.5415 2.58492 21.505 2.57413 21.4847C2.55975 21.4584 2.48789 21.4381 2.43396 21.4259C2.38362 21.4138 2.32252 21.4077 2.26859 21.4138C1.61427 21.4726 0.963552 21.5354 0.309226 21.5922C0.197775 21.6023 0.0755343 21.5577 0.0359871 21.4949C-0.00356009 21.4361 0.0071904 21.3651 0 21.2982C0.104261 21.215 0.222857 21.138 0.312737 21.0488C0.381046 20.9798 0.460154 20.9494 0.596772 20.9454C0.776532 20.9393 0.952714 20.915 1.15404 20.8967C1.52795 20.6007 1.89463 20.2905 2.29729 19.9944C2.45908 19.8748 2.41959 19.7531 2.45195 19.6254C2.48431 19.5078 2.72517 19.5261 2.88696 19.4916C3.01638 19.4632 3.05947 19.3983 3.00914 19.3537C2.98037 19.3273 2.9157 19.2969 2.86536 19.2969C2.74672 19.2969 2.62808 19.3152 2.50944 19.3253C2.3908 19.3354 2.25419 19.3294 2.15712 19.3638C2.06364 19.3963 2.00249 19.4652 1.94137 19.524C1.87306 19.5889 1.78325 19.6112 1.64663 19.6153C1.47046 19.6193 1.29431 19.6376 1.11815 19.6518C0.924005 19.5727 0.722632 19.4956 0.535681 19.4125C0.499729 19.3963 0.4925 19.3497 0.496095 19.3192C0.503286 19.2402 0.449372 19.1915 0.33073 19.153C0.230065 19.1205 0.147368 19.0739 0.0538929 19.0333C0.125797 18.9786 0.204919 18.9259 0.262443 18.8671C0.388275 18.7434 0.546481 18.6542 0.819716 18.6582C0.927572 18.5792 1.01383 18.4818 1.15404 18.4271C1.28707 18.3744 1.51358 18.4271 1.61424 18.3074C1.66457 18.2486 1.74012 18.1817 1.83719 18.1574C1.99178 18.1189 2.19311 18.1392 2.28299 18.0256C2.33691 17.9607 2.41598 17.9019 2.52024 17.8857C2.63888 17.8675 2.76109 17.8634 2.84737 17.8249C2.89411 17.8046 2.94445 17.7722 2.94445 17.7438C2.94445 17.7255 2.8726 17.6971 2.82227 17.685C2.77553 17.6708 2.71434 17.6606 2.66041 17.6647C2.48065 17.6769 2.30449 17.6992 2.12473 17.7113C2.0744 17.7154 2.01689 17.7012 1.96296 17.689C1.80478 17.6566 1.81554 17.616 1.94137 17.543C2.0672 17.4721 2.15713 17.3808 2.26139 17.2977C2.37644 17.2835 2.52023 17.2896 2.59932 17.2511C2.73234 17.1882 2.8258 17.097 2.93365 17.0179C3.05229 17.0057 3.17452 17.0017 3.28597 16.9794C3.33271 16.9713 3.3543 16.9266 3.39385 16.9003C3.46575 16.8496 3.52692 16.7766 3.62399 16.7523C3.78218 16.7158 3.97632 16.73 4.06979 16.6184C4.12372 16.5536 4.20638 16.4846 4.30704 16.4806C4.58747 16.4725 4.70611 16.3609 4.84992 16.2555C4.95778 16.1764 5.18788 16.217 5.30652 16.1379C5.38561 16.0872 5.44317 16.0243 5.52226 15.9757C5.55462 15.9554 5.62291 15.9453 5.67683 15.9392C5.97164 15.9088 6.27003 15.8865 6.56484 15.854C6.61158 15.8479 6.65475 15.8175 6.6907 15.7932C6.7662 15.7405 6.81289 15.6675 6.90636 15.633C6.99984 15.5986 7.13284 15.5986 7.24789 15.5884C7.6182 15.558 7.64699 15.5661 7.81596 15.3938C7.95258 15.2538 8.28697 15.3532 8.39843 15.1991C8.46314 15.1099 8.58173 15.0369 8.79384 15.0268C9.09225 15.0126 9.38705 14.974 9.68545 14.9477C9.95149 14.9234 9.94791 14.9233 10.2355 14.7348C10.3649 14.6496 10.5555 14.6618 10.7245 14.6456C10.9043 14.6294 11.0696 14.605 11.1559 14.5037C11.2422 14.4043 11.4004 14.3718 11.5837 14.3576C11.7527 14.3435 11.9433 14.3536 12.0763 14.2725C12.3999 14.0778 12.3963 14.0758 12.6228 14.0555C12.9787 14.0231 13.3346 13.9906 13.6905 13.9562C13.9278 13.9339 14.1759 13.9298 14.3988 13.8852C14.5606 13.8528 14.6325 13.7392 14.7367 13.6602C15.0315 13.6297 15.3263 13.5993 15.6211 13.5709C16.0346 13.5304 16.4516 13.4939 16.8686 13.4554C17.0484 13.3783 17.0736 13.208 17.3756 13.1999C17.5554 13.1958 17.7315 13.1695 17.9113 13.1533C18.2097 13.1249 18.5045 13.0884 18.8029 13.0742C19.0294 13.064 19.0689 12.9545 19.1875 12.8856C19.2271 12.8613 19.2631 12.8268 19.3098 12.8207C19.7772 12.7639 20.2589 12.7518 20.7155 12.6686C20.7622 12.6605 20.8054 12.618 20.8162 12.5875C20.8234 12.5713 20.7622 12.5409 20.7227 12.5267C20.676 12.5105 20.6149 12.4943 20.5645 12.4983C19.0797 12.6342 17.5949 12.7721 16.1101 12.9079C15.9016 12.9282 15.9016 12.9262 15.3947 13.1492C15.3515 13.1674 15.3011 13.1877 15.2472 13.1938C15.0099 13.2181 14.7691 13.2323 14.5354 13.2627C14.3448 13.2871 14.1867 13.2627 14.0501 13.1897C13.953 13.137 13.8523 13.1208 13.73 13.1249C13.5934 13.1309 13.5036 13.1533 13.4245 13.208C13.3202 13.283 13.2663 13.3803 13.047 13.4006C12.0367 13.4878 11.0264 13.5851 10.0198 13.6784C9.87956 13.65 9.81126 13.6074 9.84721 13.5567C9.86878 13.5263 9.91194 13.4858 9.95509 13.4817C10.3685 13.4391 10.7856 13.4027 11.199 13.3621C11.2565 13.356 11.3356 13.3601 11.368 13.3398C11.5262 13.2485 11.5838 13.1005 11.8822 13.0904C12.0547 13.0843 12.2309 13.0539 12.3962 13.0255C12.443 13.0174 12.4861 12.9748 12.4969 12.9444C12.5005 12.9282 12.443 12.8978 12.3998 12.8836C12.2417 12.8248 12.0583 12.8958 11.9001 12.8552C11.8462 12.841 11.7707 12.8207 11.7599 12.7964C11.7527 12.7741 11.8138 12.7376 11.857 12.7153C11.8965 12.695 11.9504 12.6768 12.0043 12.6707C12.4789 12.624 12.9535 12.5754 13.4281 12.5389C13.6222 12.5247 13.7588 12.474 13.8451 12.3807C13.9098 12.3118 13.9889 12.2753 14.1112 12.2652C14.9416 12.1901 15.7721 12.107 16.6062 12.0381C16.8147 12.0218 16.9226 11.9549 17.0089 11.8677C17.0772 11.7988 17.1563 11.7745 17.2893 11.7623C18.4794 11.6569 19.6621 11.5393 20.8522 11.4379C21.0715 11.4196 21.1362 11.3325 21.2477 11.2574C21.2872 11.2311 21.3123 11.1986 21.3626 11.1824C21.413 11.1662 21.4777 11.1682 21.5388 11.1641C22.4879 11.077 23.4371 10.9837 24.3899 10.9026C24.6128 10.8844 24.6558 10.783 24.7709 10.712C24.8104 10.6897 24.8464 10.6532 24.8932 10.6471C25.605 10.5782 26.3168 10.5133 27.0287 10.4464C27.5033 10.4018 27.9778 10.3572 28.4524 10.3146C28.6861 10.2943 28.6861 10.2923 29.0024 10.0996C29.0384 10.0773 29.0888 10.051 29.1355 10.0449C30.5017 9.91513 31.8642 9.79147 33.2304 9.66373C33.3455 9.65359 33.4281 9.60693 33.4856 9.53799C33.5432 9.46905 33.6259 9.42242 33.7374 9.41228C34.8052 9.3109 35.8729 9.21155 36.9443 9.11626C37.1384 9.10004 37.275 9.05137 37.3613 8.96013C37.426 8.89119 37.5051 8.8547 37.6273 8.84456C38.6951 8.74724 39.7629 8.64381 40.8343 8.55054C41.0392 8.5323 41.1399 8.46337 41.2405 8.38226C41.2765 8.35387 41.3053 8.30723 41.3484 8.30318C41.8805 8.24641 42.409 8.1876 42.9446 8.14908C43.1675 8.13286 43.2431 8.04769 43.333 7.96659C43.4049 7.9017 43.4876 7.87941 43.6242 7.8713C43.9226 7.85305 44.2174 7.81859 44.5086 7.78412C44.5517 7.77804 44.6057 7.73343 44.6093 7.70504C44.6165 7.65232 44.5337 7.61582 44.3971 7.59757C42.9734 7.72937 41.5462 7.86115 40.1225 7.99295C39.8888 8.01525 39.8888 8.01526 39.5724 8.20789C39.5364 8.23019 39.4861 8.25655 39.4357 8.26264C38.0695 8.39038 36.707 8.51609 35.3408 8.64383C35.2258 8.65397 35.1431 8.7006 35.0856 8.76954C35.0281 8.83848 34.9453 8.88512 34.8339 8.89525C33.5288 9.01691 32.2238 9.1406 30.9151 9.25618C30.721 9.2724 30.5844 9.31901 30.4981 9.41228C30.4334 9.48122 30.3543 9.51773 30.2321 9.52787C28.9845 9.64142 27.7405 9.76103 26.4894 9.87052C26.3636 9.88066 26.2702 9.82186 26.2773 9.76711C26.2809 9.73873 26.3348 9.69211 26.3779 9.68806C27.0287 9.62115 27.6759 9.5522 28.3302 9.50151C28.5495 9.48529 28.6142 9.39607 28.7256 9.32105C28.7616 9.29469 28.7903 9.26022 28.8371 9.24603C28.8874 9.22981 28.9521 9.23184 29.0132 9.22779C30.5556 9.08383 32.098 8.93784 33.6439 8.80199C33.8668 8.78171 33.9099 8.68235 34.0249 8.61138C34.0645 8.58705 34.1005 8.55056 34.1472 8.54651C34.6218 8.49785 35.0963 8.45526 35.5709 8.41268C36.4014 8.33563 37.2318 8.25858 38.0659 8.18153C38.3068 8.15922 38.3068 8.15921 38.616 7.96862C38.652 7.94631 38.7023 7.91795 38.7491 7.91389C40.9457 7.7091 43.1424 7.50431 45.3391 7.30155C45.4541 7.29141 45.5368 7.24478 45.5943 7.17584C45.6519 7.10893 45.7345 7.06026 45.846 7.0481C48.8156 6.77234 51.7817 6.49657 54.7513 6.22487C54.9454 6.20662 55.082 6.16404 55.1683 6.06874C55.2294 5.9998 55.3121 5.96331 55.4344 5.95115C58.6988 5.64903 61.9632 5.34692 65.2313 5.04278C67.4279 4.84002 69.6246 4.6332 71.8213 4.43449C72.0226 4.41624 72.1305 4.35338 72.2311 4.27024C72.2635 4.24186 72.2959 4.19522 72.339 4.19116C72.81 4.14047 73.2809 4.09385 73.7519 4.04721C73.8993 4.10196 74.0467 4.15469 74.1941 4.20943C74.3055 4.13238 74.4135 4.0533 74.5249 3.97625C75.2368 3.91745 75.9378 3.82621 76.6568 3.79782C76.7036 3.79579 76.7539 3.83432 76.8042 3.8546C77.1386 3.98234 77.3291 3.9722 77.5412 3.80188C77.6167 3.74105 77.6814 3.6863 77.7965 3.67617C78.1524 3.63967 78.512 3.61534 78.8643 3.57276C79.0549 3.55045 79.213 3.57072 79.3496 3.64372C79.4467 3.69644 79.5474 3.71875 79.6661 3.70659C80.3204 3.64576 80.9711 3.58695 81.6254 3.52207C81.6722 3.51801 81.7153 3.48353 81.7512 3.4592C81.8267 3.40648 81.8915 3.34972 81.9634 3.29497C82.0604 3.32944 82.1683 3.35581 82.2474 3.40041C82.3481 3.45313 82.4415 3.45312 82.5781 3.43893C85.1882 3.19358 87.802 2.95433 90.4121 2.70696C90.635 2.68668 90.7321 2.77185 90.8831 2.81646C90.9334 2.83268 90.9837 2.85295 91.0376 2.857C91.0952 2.86106 91.1563 2.8489 91.2138 2.84282C93.1732 2.66033 95.1326 2.47986 97.092 2.29738C97.3508 2.27304 97.3508 2.27304 97.7355 2.39876C97.7823 2.41498 97.8434 2.43323 97.8937 2.42715C98.7853 2.34807 99.6769 2.26292 100.565 2.18181C100.68 2.17167 100.777 2.20411 100.881 2.25074C101.086 2.34199 101.101 2.342 101.252 2.20817C101.323 2.14532 101.399 2.10677 101.518 2.08853C101.647 2.06825 101.751 2.07435 101.852 2.11085C101.996 2.16154 102.1 2.24669 102.319 2.22438C103.269 2.12909 104.221 2.05002 105.167 1.95269C105.382 1.93039 105.498 1.99932 105.641 2.05001C105.692 2.06826 105.738 2.09665 105.792 2.10273C105.846 2.10882 105.911 2.09461 105.969 2.08853C107.155 1.97903 108.345 1.87159 109.528 1.75399C109.751 1.73168 109.848 1.81886 109.999 1.86346C110.049 1.87968 110.107 1.90809 110.153 1.90403C110.865 1.84117 111.581 1.77424 112.292 1.70733C112.548 1.683 112.548 1.68503 112.936 1.80871C112.983 1.82493 113.044 1.84116 113.094 1.8371C113.925 1.76208 114.759 1.68503 115.589 1.60798C115.845 1.58365 115.845 1.58365 116.582 1.68909C116.635 1.6972 116.693 1.70938 116.747 1.70533C117.696 1.61814 118.649 1.53297 119.598 1.4397C119.788 1.42145 119.947 1.43766 120.083 1.51066C120.18 1.56338 120.281 1.58569 120.4 1.57353C121.467 1.47417 122.539 1.37888 123.603 1.27344C123.808 1.25317 123.941 1.29776 124.085 1.35656C124.131 1.37683 124.178 1.40523 124.232 1.41334C124.286 1.42145 124.347 1.41333 124.405 1.40725C125.472 1.3079 126.544 1.21463 127.608 1.10717C127.824 1.08486 127.939 1.1538 128.083 1.20449C128.133 1.22274 128.187 1.25923 128.23 1.25721C128.647 1.22274 129.064 1.19233 129.477 1.14164C129.7 1.11326 129.797 1.20651 129.948 1.25112C129.999 1.26531 130.056 1.29574 130.103 1.29169C130.995 1.21261 131.886 1.12948 132.774 1.04432C132.9 1.03216 132.994 1.05039 133.094 1.10311C133.227 1.17407 133.382 1.20246 133.576 1.18016C133.99 1.13352 134.407 1.10109 134.824 1.06256C135.068 1.04026 135.068 1.04027 135.816 1.1457C135.87 1.15381 135.927 1.16597 135.981 1.16191C136.693 1.09703 137.409 1.03418 138.117 0.963212C138.307 0.942936 138.466 0.96118 138.602 1.03417C138.699 1.08689 138.796 1.10921 138.918 1.09704C139.573 1.03621 140.224 0.97538 140.878 0.914551C141.115 0.892248 141.352 0.853713 141.59 0.853713C141.762 0.855741 141.888 0.953062 142.043 1.00173C142.086 1.01592 142.158 0.999716 142.215 0.995661C143.046 0.918612 143.88 0.847638 144.707 0.76045C144.922 0.738147 145.038 0.807082 145.181 0.857772C145.232 0.876021 145.286 0.91252 145.329 0.910492C145.627 0.888188 145.922 0.857771 146.22 0.831412C146.576 0.79897 146.936 0.774639 147.288 0.730031C147.576 0.693534 147.684 0.869931 147.914 0.876014C148.09 0.882097 148.27 0.847633 148.446 0.831412C148.802 0.79897 149.158 0.762477 149.514 0.73409C149.639 0.723952 149.736 0.691496 149.776 0.618502C149.783 0.604309 149.722 0.573908 149.683 0.555659C149.204 0.348842 149.204 0.348832 148.723 0.39344C148.424 0.421826 148.129 0.450218 147.831 0.474549C147.781 0.478604 147.723 0.462385 147.673 0.450219C147.529 0.415749 147.543 0.375201 147.666 0.302207C147.788 0.229212 147.881 0.140005 147.986 0.0568728C148.133 0.109591 148.277 0.16229 148.424 0.215008C148.543 0.20487 148.662 0.192722 148.78 0.182584C149.373 0.129866 149.967 0.0751164 150.56 0.0264536C150.603 0.0223983 150.657 0.0629566 150.707 0.0832328C150.851 0.142034 150.98 0.19271 151.189 0.170407C151.721 0.111606 152.257 0.0690256 152.789 0.0183352C153.022 -0.00396862 153.022 -0.00396663 153.432 0.121746C153.479 0.135939 153.54 0.152161 153.59 0.148106C154.126 0.101471 154.658 0.050786 155.194 0.00212315C155.309 -0.00801494 155.42 0.0183431 155.503 0.077144C155.536 0.101475 155.528 0.14202 155.665 0.474549C156.089 0.744222 156.38 0.71585 156.675 0.691518C156.801 0.68138 156.912 0.671232 156.995 0.63068C157.038 0.608376 157.092 0.575929 157.092 0.54957C157.092 0.529294 157.013 0.496846 156.963 0.492791C156.607 0.452239 156.269 0.53741 155.92 0.555659C155.758 0.563769 155.618 0.492802 155.589 0.377228C155.582 0.344786 155.571 0.310318 155.561 0.277876C155.55 0.245434 155.543 0.210967 155.532 0.178525C155.392 0.168387 155.309 0.204878 155.248 0.273817C155.198 0.33059 155.126 0.395474 155.029 0.425888C154.932 0.45833 154.799 0.452258 154.68 0.462396C154.565 0.472535 154.439 0.498891 154.331 0.484697C154.223 0.468476 154.137 0.409665 154.036 0.373168C153.99 0.35492 153.932 0.328571 153.885 0.332626C153.472 0.367095 153.062 0.401552 152.652 0.44616C152.436 0.470491 152.329 0.385344 152.192 0.332626C152.084 0.292074 151.976 0.302199 151.958 0.395469C151.912 0.618507 152.077 0.711773 152.444 0.669193C152.746 0.632696 153.019 0.626632 153.256 0.76451C153.289 0.782758 153.364 0.790866 153.411 0.78681C153.706 0.762479 153.997 0.732062 154.292 0.70773C154.345 0.703675 154.403 0.711773 154.453 0.719883C155.187 0.829375 155.187 0.831413 155.435 0.807082C155.554 0.794916 155.669 0.784777 155.658 0.476579C155.884 0.146077 156.244 0.123777 156.593 0.0751144C156.819 0.0447002 156.916 0.133919 157.063 0.180555C157.114 0.196775 157.168 0.229211 157.214 0.225156C157.987 0.158245 158.757 0.0872683 159.526 0.0122464C159.656 8.06786e-05 159.749 0.0122484 159.85 0.0649664C159.979 0.131878 160.123 0.174467 160.328 0.150135C160.738 0.101472 161.155 0.0710651 161.572 0.0305128C161.784 0.0102366 161.784 0.0102158 162.212 0.135928C162.259 0.150121 162.32 0.166343 162.37 0.162288C162.787 0.127819 163.201 0.0852515 163.614 0.0487544C163.729 0.0386163 163.833 0.067 163.923 0.121746C164.013 0.176491 164.121 0.204875 164.232 0.194737C164.649 0.15824 165.063 0.1177 165.476 0.0812032C165.527 0.077148 165.588 0.0913403 165.634 0.105534C166.073 0.231246 166.073 0.231225 166.274 0.210949C166.569 0.180535 166.871 0.166357 167.162 0.125805C167.446 0.0852525 167.594 0.202844 167.788 0.267728C168.32 0.221093 168.856 0.182578 169.384 0.125805C169.6 0.101473 169.715 0.168379 169.859 0.221097C169.909 0.239346 169.959 0.277874 170.006 0.275847C170.186 0.267736 170.362 0.245436 170.538 0.229215C170.714 0.212994 170.894 0.196775 171.07 0.180555C171.272 0.239355 171.405 0.377232 171.692 0.330596C171.865 0.30221 172.048 0.296127 172.224 0.279906C172.401 0.263685 172.58 0.247466 172.757 0.231245C172.875 0.221107 172.997 0.215015 173.112 0.196767C173.325 0.166352 173.429 0.265717 173.58 0.310325C173.63 0.324518 173.688 0.348834 173.734 0.344779C174.09 0.316392 174.45 0.292063 174.799 0.245427C175.068 0.20893 175.252 0.269767 175.442 0.354927C175.482 0.373175 175.55 0.383312 175.6 0.379257C176.017 0.344788 176.431 0.302196 176.844 0.265699C176.956 0.255561 177.064 0.288001 177.153 0.34072C177.247 0.395465 177.351 0.421844 177.466 0.411706C177.88 0.375209 178.297 0.334645 178.71 0.298147C178.761 0.294092 178.822 0.310316 178.868 0.326537C179.271 0.452249 179.271 0.454279 179.508 0.429948C179.566 0.423865 179.627 0.419794 179.684 0.413711C179.979 0.385324 180.285 0.3752 180.572 0.326537C180.903 0.271791 181.144 0.340733 181.378 0.456308C181.673 0.431976 181.975 0.41778 182.262 0.377228C182.478 0.346813 182.593 0.423859 182.737 0.474549C182.787 0.492798 182.841 0.529295 182.884 0.52524C183.301 0.49077 183.718 0.460367 184.128 0.409676C184.351 0.38129 184.448 0.472516 184.599 0.519151C184.649 0.535372 184.703 0.563773 184.75 0.559718C184.987 0.543497 185.225 0.519154 185.462 0.49685C185.739 0.470491 185.739 0.472517 186.105 0.596201C186.278 0.655002 186.451 0.608365 186.62 0.594172C186.799 0.577951 186.968 0.565789 187.112 0.648921C187.202 0.701639 187.31 0.734082 187.421 0.725972C187.659 0.707723 187.9 0.689484 188.133 0.659069C188.32 0.634738 188.482 0.65095 188.619 0.725972C188.716 0.77869 188.816 0.805065 188.935 0.792899C189.467 0.744236 190.003 0.693527 190.535 0.646892C190.582 0.642837 190.646 0.661092 190.689 0.679341C190.79 0.715838 190.887 0.756381 190.984 0.796934C191.218 0.778685 191.459 0.770595 191.689 0.742209C191.933 0.713822 192.156 0.703681 192.347 0.8152C192.386 0.839531 192.444 0.873982 192.491 0.871955C192.67 0.863844 192.846 0.843574 193.023 0.827353C193.199 0.811132 193.379 0.794913 193.555 0.778692C193.76 0.829382 193.889 0.975369 194.177 0.928734C194.349 0.900347 194.533 0.894264 194.709 0.878043C194.885 0.861822 195.065 0.843576 195.241 0.829382C195.298 0.825327 195.363 0.815183 195.413 0.823294C195.467 0.831404 195.514 0.859797 195.561 0.880073C195.705 0.938874 195.838 0.997682 196.043 0.963212C196.215 0.934826 196.399 0.928741 196.575 0.910492C196.816 0.888188 196.816 0.888192 197.215 1.01593C197.376 1.06865 197.56 0.999714 197.714 1.04432C197.819 1.07474 197.909 1.12542 198.009 1.15989C198.052 1.17408 198.121 1.18015 198.171 1.1761C198.408 1.15785 198.649 1.13961 198.883 1.10919C199.073 1.08486 199.232 1.10919 199.365 1.18219C199.462 1.2349 199.559 1.25722 199.681 1.24505C200.274 1.18828 200.867 1.1396 201.457 1.07675C201.658 1.05444 201.82 1.08892 201.932 1.16191C202.122 1.28763 202.392 1.13961 202.589 1.24099C202.712 1.30385 202.834 1.37685 203.057 1.34643C203.467 1.29372 203.884 1.26531 204.297 1.22882C204.445 1.28356 204.592 1.33832 204.743 1.39307C204.98 1.37076 205.218 1.34844 205.455 1.32817C205.631 1.31195 205.811 1.2937 205.987 1.27951C206.044 1.27545 206.106 1.26734 206.16 1.27748C206.213 1.28762 206.257 1.31398 206.307 1.33426C206.555 1.43361 206.555 1.43565 206.965 1.3951C207.141 1.37685 207.31 1.36468 207.457 1.44579C207.594 1.52081 207.756 1.53499 207.943 1.51269C208.295 1.47214 208.651 1.44172 209.011 1.41334C209.122 1.4032 209.226 1.43767 209.32 1.49039C209.46 1.57352 209.633 1.56541 209.809 1.54311C210.042 1.51472 210.272 1.48634 210.47 1.59989C210.51 1.62422 210.571 1.65867 210.614 1.65664C210.909 1.64042 211.207 1.62826 211.495 1.58974C211.782 1.55121 211.923 1.67692 212.12 1.73775C212.415 1.71139 212.714 1.68503 213.008 1.65867C213.066 1.65259 213.134 1.63435 213.185 1.64449C213.397 1.68707 213.519 1.83914 213.81 1.7925C213.979 1.76614 214.162 1.75804 214.339 1.75196C214.385 1.74993 214.446 1.78438 214.479 1.81074C214.497 1.82494 214.479 1.86346 214.457 1.88373C214.393 1.94051 214.313 1.99324 214.256 2.05204C214.249 2.06015 214.317 2.09663 214.357 2.11286C214.454 2.14935 214.565 2.14328 214.695 2.12706C214.806 2.11287 214.921 2.14126 215 2.20208C215.032 2.22642 215.022 2.26696 214.953 2.40079C214.953 2.50014 215.029 2.45552 215.054 2.39064C215.094 2.29737 215.018 2.26696 214.874 2.31765C214.774 2.35414 214.723 2.40687 214.748 2.44945C214.763 2.47175 214.831 2.50014 214.953 2.40079C215.27 2.27913 215.507 2.25684 215.744 2.23453C215.805 2.22845 215.877 2.20816 215.921 2.22033C216.075 2.26899 216.219 2.3278 216.37 2.38254C216.542 2.37038 216.704 2.33995 216.873 2.41903C217.11 2.53055 217.121 2.52041 217.351 2.49811C217.47 2.48594 217.589 2.47582 217.707 2.46568C217.826 2.45555 217.919 2.48595 218.024 2.53259C218.236 2.62788 218.254 2.62788 218.394 2.49811C218.477 2.41903 218.534 2.39268 218.638 2.42918C218.984 2.55286 218.987 2.56097 219.282 2.52447C219.526 2.49405 219.757 2.48594 219.936 2.60152C220.059 2.68262 220.098 2.66438 220.195 2.57922C220.454 2.35415 220.573 2.3582 221.058 2.52041C221.284 2.59746 221.518 2.51434 221.748 2.5042C221.942 2.49609 222.079 2.54474 222.093 2.67248C222.104 2.75156 222.137 2.80834 222.266 2.8347C222.316 2.84484 222.377 2.85903 222.428 2.85497C222.726 2.83064 223.021 2.80225 223.319 2.77386C223.47 2.75967 223.553 2.66439 223.524 2.53868C223.492 2.40485 223.549 2.35617 223.765 2.31765C223.895 2.29534 223.999 2.29942 224.103 2.33591C224.218 2.37647 224.186 2.41296 224.085 2.48596C223.844 2.66439 223.873 2.77386 224.182 2.89754C224.29 2.94012 224.376 2.97866 224.402 3.04152C224.416 3.07396 224.402 3.11654 224.434 3.14087C224.61 3.27672 224.855 3.36392 225.128 3.4288C225.39 3.37406 225.57 3.46528 225.771 3.53828C225.93 3.59505 226.116 3.5464 226.285 3.52612C226.476 3.50382 226.634 3.52003 226.771 3.59506C226.868 3.64777 226.969 3.6721 227.087 3.66196C227.324 3.63966 227.565 3.62547 227.799 3.59303C228 3.56464 228.151 3.6052 228.277 3.67414C228.435 3.76132 228.612 3.70251 228.777 3.71468C229 3.72887 229.111 3.90932 229.403 3.86066C229.575 3.83228 229.755 3.82214 229.935 3.81403C229.981 3.812 230.039 3.84648 230.078 3.87081C230.269 3.98233 230.492 3.97624 230.736 3.9438C230.905 3.9215 231.071 3.90123 231.236 3.97828C231.509 4.10805 231.811 4.2216 232.099 4.34123C232.138 4.4345 232.11 4.54397 232.315 4.59872C232.422 4.6271 232.523 4.6697 232.606 4.71634C232.706 4.77108 232.8 4.78528 232.929 4.77108C233.163 4.7427 233.408 4.7366 233.638 4.7001C233.85 4.66766 233.983 4.73459 234.112 4.79744C234.216 4.84814 234.314 4.87246 234.439 4.83596C234.569 4.80149 234.662 4.82378 234.767 4.87853C234.914 4.95355 234.925 4.94545 235.414 4.96776C235.464 4.96979 235.525 5.00018 235.554 5.02654C235.568 5.04074 235.536 5.08131 235.511 5.10159C235.478 5.12592 235.428 5.15429 235.381 5.16037C234.849 5.21309 234.314 5.25973 233.781 5.31244C233.728 5.31853 233.67 5.33273 233.63 5.35301C233.587 5.37531 233.533 5.40571 233.533 5.4341C233.533 5.45437 233.605 5.47871 233.656 5.4929C233.814 5.53954 234.001 5.46858 234.155 5.52129C234.26 5.55576 234.346 5.60442 234.45 5.63686C234.493 5.65105 234.562 5.64903 234.616 5.64498C234.795 5.63078 234.971 5.61051 235.151 5.59834C235.202 5.59632 235.259 5.6166 235.306 5.63282C235.651 5.75448 235.651 5.75447 235.949 5.72811C236.068 5.71798 236.194 5.68756 236.305 5.69973C236.413 5.71189 236.507 5.76664 236.604 5.80111C236.805 5.8741 236.996 5.94506 237.01 6.10322C237.017 6.16405 237.136 6.21676 237.254 6.22081C237.369 6.22487 237.492 6.20258 237.61 6.19042C237.891 6.16609 237.891 6.16608 238.254 6.28977C238.355 6.32424 238.462 6.32829 238.592 6.30801C238.642 6.2999 238.703 6.30802 238.757 6.31816C238.933 6.34857 238.933 6.38709 238.818 6.46008C238.657 6.56755 238.671 6.57769 239.124 6.66893C239.296 6.7034 239.429 6.76829 239.573 6.82506C239.807 6.91631 239.803 6.91629 239.649 7.03592C239.613 7.06228 239.581 7.09067 239.545 7.11906C239.44 7.19814 239.358 7.28329 239.142 7.2914C238.905 7.29951 238.667 7.33196 238.43 7.35427C238.2 7.37657 238.139 7.42522 238.16 7.56309C238.186 7.72936 238.232 7.74761 238.646 7.74558C238.764 7.74558 238.869 7.7618 238.959 7.81655C238.915 7.88143 238.836 7.93212 238.721 7.94429C238.426 7.9747 238.128 8.00107 237.833 8.02743C237.596 8.04973 237.359 8.07203 237.121 8.09433C236.974 8.10852 236.881 8.21397 236.92 8.33157C236.942 8.39848 236.96 8.46539 236.978 8.5323C237.017 8.66612 237.093 8.7006 237.333 8.69452C237.395 8.69249 237.452 8.67626 237.51 8.68031C237.743 8.69451 237.855 8.8628 238.135 8.82833C238.369 8.79994 238.613 8.79386 238.844 8.75736C239.056 8.72492 239.174 8.79794 239.322 8.85268C239.372 8.87093 239.426 8.90943 239.469 8.90741C239.767 8.8851 240.066 8.86282 240.357 8.82429C240.494 8.80807 240.576 8.82023 240.684 8.86889C240.943 8.9865 240.95 8.98041 241.335 8.94391C241.615 8.91553 241.619 8.91958 241.979 9.04327C242.079 9.07773 242.187 9.07773 242.316 9.06151C242.485 9.04123 242.662 9.00879 242.838 9.03921C242.892 9.04732 242.96 9.07166 242.978 9.09801C242.989 9.11626 242.938 9.16087 242.895 9.17507C242.579 9.2805 242.209 9.26226 241.863 9.30484C241.756 9.317 241.648 9.27847 241.558 9.22373C241.464 9.16898 241.364 9.14669 241.241 9.15682C241.004 9.17913 240.763 9.19331 240.53 9.22576C240.328 9.25414 240.188 9.2075 240.048 9.14465C240.001 9.12437 239.947 9.08584 239.9 9.08787C239.368 9.12842 238.833 9.16898 238.304 9.22576C238.092 9.25009 237.97 9.18521 237.826 9.13046C237.776 9.11222 237.725 9.07369 237.679 9.07571C237.499 9.08382 237.323 9.10612 237.143 9.12235C236.489 9.18317 235.838 9.244 235.184 9.30078C235.14 9.30483 235.087 9.26225 235.036 9.244C234.939 9.2075 234.838 9.17303 234.738 9.13856C234.558 9.15478 234.382 9.17505 234.202 9.18722C234.073 9.19533 233.958 9.22373 233.94 9.30078C233.929 9.35147 234.048 9.39809 234.173 9.39404C234.296 9.38998 234.418 9.36565 234.518 9.39201C235.018 9.52178 235.018 9.52381 235.331 9.49745C235.604 9.47312 235.575 9.45283 235.816 9.56435C235.921 9.61302 236.014 9.64142 236.133 9.62925C236.428 9.60086 236.726 9.57247 237.024 9.54814C237.071 9.54409 237.132 9.56437 237.179 9.58059C237.531 9.70225 237.531 9.7063 237.822 9.67588C238.204 9.63938 238.218 9.62925 238.473 9.75293C238.649 9.83809 238.811 9.77929 238.98 9.77523C239.174 9.85431 239.386 9.92529 239.563 10.0145C239.771 10.1199 239.99 10.1017 240.228 10.0713C240.404 10.049 240.576 10.0408 240.72 10.124C240.857 10.201 241.022 10.2092 241.209 10.1889C241.378 10.1706 241.551 10.1321 241.727 10.1767C241.774 10.1889 241.845 10.2193 241.842 10.2375C241.838 10.2659 241.792 10.3065 241.745 10.3186C241.414 10.4018 241.051 10.3997 240.702 10.4383C240.655 10.4444 240.594 10.422 240.548 10.4058C240.447 10.3693 240.35 10.3268 240.253 10.2882C240.077 10.3004 239.897 10.3044 239.724 10.3288C239.591 10.347 239.491 10.345 239.394 10.2963C239.304 10.2517 239.207 10.197 239.099 10.1828C238.991 10.1686 238.865 10.199 238.746 10.2112C238.628 10.2233 238.491 10.2172 238.398 10.2497C238.304 10.2821 238.247 10.3531 238.186 10.4099C238.117 10.4727 238.024 10.493 237.887 10.4991C237.761 10.5052 237.661 10.4971 237.567 10.4403C237.528 10.416 237.474 10.3977 237.42 10.3815C237.369 10.3673 237.312 10.345 237.265 10.349C236.729 10.3957 236.197 10.4464 235.662 10.495C235.396 10.5194 235.399 10.5194 234.846 10.3997C234.795 10.3896 234.734 10.3754 234.684 10.3795C234.385 10.4038 234.091 10.4322 233.792 10.4606C233.49 10.489 233.494 10.4849 232.98 10.3572C232.886 10.3328 232.75 10.3653 232.638 10.3612C232.405 10.3511 232.289 10.1808 232.016 10.2132C231.783 10.2416 231.538 10.2477 231.304 10.2842C231.092 10.3166 230.97 10.2457 230.826 10.1909C230.776 10.1727 230.722 10.1321 230.679 10.1362C230.143 10.1808 229.611 10.2315 228.899 10.2375C228.723 10.2375 228.802 10.2801 228.917 10.2943C229.083 10.3166 229.136 10.274 229.047 10.1929C228.982 10.1362 228.888 10.1078 228.813 10.1219C228.773 10.1301 228.723 10.1686 228.899 10.2375C229.086 10.3146 229.075 10.3572 229.108 10.3815C229.187 10.4403 229.298 10.4646 229.413 10.4565C229.593 10.4423 229.769 10.422 229.949 10.4099C229.999 10.4058 230.06 10.42 230.107 10.4362C230.503 10.562 230.506 10.5701 230.927 10.5214C231.06 10.5072 231.157 10.5072 231.261 10.5457C231.405 10.5985 231.509 10.6877 231.729 10.6593C232.02 10.6207 232.318 10.5985 232.617 10.5762C232.663 10.5721 232.714 10.6086 232.768 10.6248C232.915 10.6735 233.023 10.7647 233.242 10.7262C233.411 10.6958 233.595 10.6877 233.774 10.6816C233.821 10.6795 233.893 10.712 233.914 10.7384C233.958 10.785 233.904 10.8397 233.781 10.8783C233.731 10.8945 233.663 10.8904 233.605 10.8965C233.368 10.9188 233.131 10.9431 232.893 10.9614C232.768 10.9715 232.649 11.002 232.635 11.077C232.624 11.1277 232.753 11.1723 232.875 11.1682C233.055 11.1621 233.235 11.1459 233.408 11.1195C233.713 11.0749 233.979 11.0871 234.227 11.2148C234.403 11.3041 234.393 11.2716 234.58 11.5352C234.626 11.6021 234.767 11.6082 234.889 11.6041C235.184 11.594 235.32 11.6244 235.295 11.6873C235.263 11.7643 235.158 11.7887 235.025 11.7988C234.788 11.815 234.551 11.8414 234.314 11.8637C234.256 11.8698 234.191 11.8819 234.137 11.8779C234.083 11.8738 234.033 11.8495 233.986 11.8312C233.886 11.7927 233.799 11.7339 233.692 11.7197C233.584 11.7055 233.458 11.7359 233.339 11.7481C233.221 11.7582 233.095 11.7887 232.987 11.7745C232.879 11.7603 232.789 11.6995 232.692 11.663C232.645 11.6447 232.588 11.6163 232.541 11.6183C232.304 11.6346 232.067 11.6609 231.829 11.6812C231.538 11.7076 231.538 11.7076 231.186 11.5818C231.085 11.5454 230.981 11.5474 230.848 11.5636C230.56 11.596 230.557 11.59 230.032 11.4723C229.981 11.4602 229.92 11.446 229.87 11.4521C229.334 11.4987 228.802 11.5494 228.27 11.5981C227.813 11.6406 227.813 11.6407 227.562 11.8434C227.375 11.9935 227.371 11.9935 227.555 12.0624C227.702 12.1192 227.835 12.2023 227.997 12.2327C228.148 12.2611 228.335 12.1699 228.5 12.2631C228.583 12.3098 228.691 12.3605 228.795 12.3686C228.96 12.3787 229.136 12.3199 229.295 12.4091C229.374 12.4537 229.492 12.5004 229.593 12.5024C229.769 12.5064 229.949 12.474 230.125 12.4598C230.179 12.4557 230.24 12.4557 230.291 12.4659C230.344 12.4781 230.391 12.5024 230.438 12.5227C230.582 12.5916 230.736 12.624 230.923 12.5896C231.229 12.5328 231.502 12.5612 231.739 12.6909C231.772 12.7092 231.851 12.7112 231.901 12.7031C232.031 12.6828 232.142 12.6808 232.239 12.7193C232.279 12.7356 232.336 12.7639 232.329 12.7822C232.318 12.8126 232.275 12.8532 232.228 12.8633C231.89 12.9322 231.527 12.9404 231.179 12.9768C231.132 12.9809 231.074 12.9545 231.028 12.9363C230.927 12.8998 230.841 12.839 230.733 12.8248C230.625 12.8106 230.499 12.8369 230.38 12.8471C230.262 12.8572 230.136 12.8876 230.028 12.8755C229.92 12.8613 229.82 12.8106 229.733 12.766C229.633 12.7153 229.536 12.7092 229.403 12.7295C229.23 12.7558 229.05 12.7599 228.874 12.7741C228.777 12.7356 228.68 12.693 228.579 12.6565C228.532 12.6382 228.475 12.6159 228.425 12.618C228.187 12.6342 227.95 12.6585 227.713 12.6808C227.475 12.7031 227.476 12.7031 227.073 12.5774C227.026 12.5632 226.965 12.547 226.915 12.5511C226.616 12.5754 226.321 12.6058 226.023 12.6301C225.908 12.6402 225.804 12.6119 225.71 12.5571C225.62 12.5024 225.512 12.472 225.401 12.4821C224.926 12.5247 224.452 12.5652 223.977 12.6159C223.787 12.6362 223.625 12.618 223.496 12.545C223.345 12.4618 223.176 12.4821 222.999 12.4983C222.6 12.5389 222.597 12.5368 222.342 12.4334C222.291 12.4132 222.241 12.3746 222.194 12.3767C221.781 12.4071 221.364 12.4355 220.954 12.4841C220.738 12.5105 220.623 12.4395 220.479 12.3868C220.429 12.3686 220.375 12.33 220.332 12.3341C220.033 12.3564 219.735 12.3767 219.444 12.4172C219.153 12.4578 219.041 12.2692 218.822 12.2712C218.523 12.2733 218.229 12.3199 217.934 12.3483C217.696 12.3706 217.459 12.3929 217.222 12.4152C216.985 12.4375 216.747 12.4557 216.51 12.4821C216.384 12.4963 216.291 12.478 216.187 12.4273C216.054 12.3604 215.895 12.3077 215.752 12.2469C215.532 12.1597 215.532 12.1597 215.266 12.184C215.209 12.1901 215.148 12.1942 215.09 12.2003C214.655 12.2449 214.655 12.2408 214.101 12.1131C214.076 12.107 214.011 12.1293 213.986 12.1455C213.911 12.1982 213.843 12.255 213.774 12.3098C213.677 12.2773 213.558 12.2591 213.494 12.2124C213.31 12.0806 213.023 12.2611 212.836 12.1313C212.768 12.0827 212.649 12.0401 212.541 12.0279C212.43 12.0157 212.304 12.0441 212.189 12.0563C211.89 12.0867 211.89 12.0847 211.635 12.2652C211.506 12.3544 211.319 12.3381 211.15 12.3584C210.974 12.3807 210.805 12.3929 210.657 12.3098C210.524 12.2347 210.362 12.2165 210.172 12.2408C209.938 12.2712 209.697 12.2895 209.46 12.3077C209.41 12.3118 209.348 12.3016 209.298 12.2895C208.748 12.1699 208.748 12.1678 208.482 12.1942C208.363 12.2064 208.241 12.2104 208.126 12.2286C207.932 12.2611 207.785 12.2185 207.644 12.1536C207.598 12.1333 207.544 12.0948 207.497 12.0969C207.26 12.107 207.026 12.1253 206.792 12.1435C206.613 12.1577 206.433 12.1658 206.26 12.1942C205.973 12.2408 205.832 12.109 205.635 12.0482C205.34 12.0745 205.041 12.0928 204.747 12.1293C204.61 12.1455 204.52 12.1394 204.416 12.0908C204.283 12.03 204.161 11.961 203.945 11.9914C203.657 12.032 203.355 12.0462 203.06 12.0705C202.863 12.0077 202.719 11.8799 202.435 11.9265C202.262 11.9549 202.079 11.961 201.903 11.9772C201.666 11.9995 201.428 12.0198 201.191 12.0442C200.936 12.0685 200.939 12.0624 200.547 11.9428C200.321 11.8718 200.087 11.9509 199.857 11.963C199.677 11.9732 199.588 12.0664 199.631 12.1861C199.674 12.3057 199.577 12.399 199.411 12.4152C198.998 12.4537 198.581 12.4943 198.167 12.5287C198.117 12.5328 198.056 12.5186 198.009 12.5044C197.567 12.3767 197.567 12.3787 197.369 12.397C197.074 12.4274 196.772 12.4436 196.481 12.4821C196.28 12.5085 196.132 12.4659 196.003 12.397C195.902 12.3442 195.809 12.3321 195.68 12.3442C194.256 12.4801 192.832 12.6058 191.412 12.7457C191.2 12.766 191.078 12.7072 190.934 12.6524C190.884 12.6342 190.837 12.5957 190.786 12.5957C190.668 12.5957 190.549 12.6139 190.431 12.6261C189.898 12.6747 189.366 12.7335 188.831 12.77C188.604 12.7863 188.543 12.8795 188.446 12.9566C188.37 13.0154 188.284 13.0397 188.151 13.0478C188.022 13.0559 187.928 13.0458 187.828 12.9931C187.698 12.9241 187.551 12.8815 187.349 12.9099C187.116 12.9424 186.878 12.9566 186.638 12.9789C186.515 12.989 186.422 13.0255 186.382 13.0985C186.375 13.1107 186.451 13.1411 186.494 13.1593C186.638 13.2202 186.774 13.2911 186.936 13.3337C187.101 13.3763 187.281 13.3276 187.454 13.3154C187.515 13.3114 187.572 13.2992 187.63 13.3013C187.684 13.3033 187.749 13.3134 187.788 13.3317C187.975 13.4229 188.173 13.4858 188.432 13.431C188.654 13.4574 188.77 13.6257 189.054 13.5811C189.226 13.5547 189.406 13.5426 189.586 13.5324C189.632 13.5304 189.683 13.5669 189.733 13.5851C189.877 13.6358 189.992 13.7169 190.208 13.6825C190.438 13.646 190.682 13.6399 190.916 13.6115C191.045 13.5953 191.139 13.6095 191.239 13.6622C191.369 13.7291 191.516 13.7798 191.718 13.7473C191.89 13.7189 192.074 13.7129 192.25 13.6946C192.48 13.6723 192.48 13.6743 192.89 13.8C192.936 13.8142 192.997 13.8305 193.048 13.8264C193.346 13.8021 193.641 13.7717 193.939 13.7473C194.054 13.7372 194.166 13.7635 194.245 13.8223C194.277 13.8467 194.267 13.8873 194.277 13.9217C193.684 13.9765 193.091 14.0231 192.501 14.09C192.278 14.1164 192.178 14.0332 192.03 13.9866C191.98 13.9704 191.926 13.9359 191.879 13.94C191.462 13.9744 191.049 14.0109 190.635 14.0555C190.506 14.0697 190.409 14.0616 190.312 14.0028C190.064 13.8467 189.762 13.9318 189.481 13.9542C189.266 13.9704 189.197 14.0332 189.223 14.1671C189.255 14.3252 189.384 14.3739 189.715 14.3455C189.834 14.3354 189.952 14.3212 190.071 14.313C190.186 14.3049 190.29 14.3313 190.384 14.386C190.474 14.4408 190.581 14.4692 190.693 14.4611C190.93 14.4428 191.171 14.4246 191.401 14.3942C191.592 14.3698 191.75 14.3901 191.883 14.4651C192.03 14.5482 192.203 14.53 192.376 14.5117C192.778 14.4712 192.782 14.4732 193.033 14.5746C193.084 14.5949 193.134 14.6334 193.181 14.6314C193.594 14.601 194.011 14.5746 194.418 14.526C194.63 14.5016 194.752 14.5665 194.892 14.6192C194.943 14.6375 194.993 14.678 195.04 14.674C195.338 14.6517 195.636 14.6293 195.928 14.5908C196.064 14.5726 196.147 14.5847 196.258 14.6334C196.524 14.753 196.532 14.749 196.909 14.7104C197.024 14.6983 197.15 14.676 197.258 14.6922C197.366 14.7084 197.452 14.7672 197.553 14.8037C197.599 14.82 197.657 14.8422 197.707 14.8382C197.944 14.822 198.182 14.7976 198.419 14.7753C198.642 14.753 198.642 14.7551 199.059 14.8808C199.228 14.9335 199.404 14.8889 199.573 14.8727C199.757 14.8544 199.922 14.8544 200.062 14.9335C200.202 15.0126 200.371 15.0085 200.551 14.9923C200.72 14.9761 200.893 14.9315 201.065 14.9862C201.461 15.1119 201.461 15.1139 201.705 15.0896C202.061 15.0551 202.413 15.0227 202.773 14.9923C202.82 14.9882 202.881 15.0126 202.927 15.0288C203.028 15.0653 203.114 15.1261 203.222 15.1403C203.33 15.1565 203.456 15.1322 203.571 15.12C203.941 15.0815 203.966 15.0673 204.215 15.2011C204.423 15.3106 204.682 15.1525 204.876 15.2782C204.988 15.3492 205.138 15.4059 205.347 15.3715C205.52 15.3431 205.699 15.335 205.879 15.3187C206.163 15.2924 206.163 15.2944 206.523 15.4161C206.569 15.4323 206.63 15.4526 206.677 15.4485C206.914 15.4323 207.155 15.4181 207.386 15.3816C207.655 15.339 207.828 15.4161 208.029 15.4911C208.187 15.5499 208.374 15.5012 208.543 15.481C208.727 15.4607 208.892 15.4667 209.028 15.5458C209.172 15.6269 209.341 15.6168 209.521 15.6006C209.69 15.5864 209.863 15.5397 210.035 15.5965C210.405 15.7222 210.405 15.7222 210.675 15.6979C210.912 15.6756 211.15 15.6513 211.387 15.6351C211.434 15.631 211.491 15.6573 211.538 15.6756C211.639 15.7121 211.725 15.7729 211.833 15.7871C211.941 15.8013 212.066 15.775 212.185 15.7648C212.304 15.7547 212.43 15.7243 212.537 15.7364C212.645 15.7486 212.746 15.7993 212.832 15.8439C212.933 15.8966 213.026 15.9027 213.163 15.8824C213.336 15.8561 213.515 15.85 213.691 15.8358C213.789 15.8743 213.889 15.9128 213.983 15.9554C214.08 16 214.184 15.996 214.317 15.9818C214.759 15.9331 214.763 15.9392 215.133 16.0649C215.302 16.1217 215.478 16.075 215.647 16.0608C215.827 16.0446 215.996 16.0365 216.136 16.1176C216.273 16.1947 216.442 16.2048 216.622 16.1805C216.737 16.1643 216.859 16.1541 216.977 16.148C217.031 16.146 217.096 16.1541 217.136 16.1703C217.326 16.2555 217.513 16.3326 217.776 16.2778C218.006 16.294 218.121 16.4603 218.398 16.4279C218.631 16.3995 218.876 16.3934 219.106 16.3569C219.318 16.3244 219.469 16.3812 219.577 16.4522C219.771 16.5779 220.044 16.4076 220.238 16.5313C220.35 16.6022 220.494 16.659 220.709 16.6286C220.947 16.5961 221.022 16.6387 221.09 16.7665C221.13 16.8394 221.123 16.8983 221.051 16.955C220.979 17.0138 220.9 17.0037 220.785 16.9368C220.652 16.8618 220.494 16.8476 220.303 16.8638C220.116 16.88 220.001 16.7746 219.846 16.734C219.692 16.6915 219.509 16.7624 219.347 16.7077C218.966 16.5799 218.966 16.5799 218.707 16.6043C218.531 16.6205 218.347 16.6286 218.175 16.657C217.97 16.6915 217.837 16.6286 217.697 16.5718C217.646 16.5515 217.596 16.513 217.553 16.515C217.139 16.5454 216.722 16.5738 216.312 16.6245C216.097 16.6509 215.982 16.5779 215.838 16.5272C215.788 16.509 215.734 16.4725 215.69 16.4765C215.334 16.5049 214.982 16.5414 214.626 16.5759C214.558 16.6306 214.482 16.6833 214.418 16.7421C214.349 16.803 214.256 16.8293 214.119 16.8273C213.893 16.8273 213.67 16.9125 213.443 16.805C213.21 16.6955 213.192 16.7016 212.965 16.7279C212.678 16.7624 212.372 16.7543 212.102 16.8334C212.056 16.8476 212.005 16.8861 212.005 16.9145C212.002 16.9327 212.077 16.9591 212.124 16.9753C212.282 17.024 212.465 16.953 212.624 17.0037C212.728 17.0361 212.814 17.0848 212.919 17.1193C212.962 17.1335 213.026 17.1314 213.084 17.1294C213.145 17.1274 213.203 17.1132 213.26 17.1152C213.314 17.1173 213.372 17.1294 213.415 17.1476C213.612 17.2247 213.821 17.2957 213.997 17.3869C214.17 17.4761 214.331 17.4153 214.504 17.4112C215.194 17.5532 215.194 17.5552 215.658 17.5106C215.773 17.5005 215.892 17.4883 216.01 17.4903C216.061 17.4903 216.107 17.5268 216.158 17.5471C216.302 17.6079 216.438 17.6627 216.64 17.6302C216.812 17.6018 216.995 17.5958 217.172 17.5775C217.409 17.5552 217.409 17.5552 217.812 17.6829C217.912 17.7154 218.02 17.7113 218.15 17.6951C218.261 17.6809 218.376 17.7113 218.455 17.7701C218.487 17.7945 218.477 17.835 218.487 17.8695C218.132 17.9019 217.772 17.9242 217.427 17.9729C217.204 18.0033 217.103 17.9161 216.956 17.8695C216.906 17.8533 216.852 17.8188 216.805 17.8229C216.453 17.8533 216.1 17.8877 215.748 17.9283C215.705 17.9323 215.651 17.979 215.647 18.0074C215.64 18.0601 215.73 18.1108 215.859 18.1087C216.032 18.1067 216.201 18.0722 216.356 18.1554C216.485 18.2284 216.647 18.2608 216.837 18.2284C216.952 18.2101 217.075 18.2101 217.19 18.1939C217.495 18.1452 217.772 18.1554 218.002 18.2933C218.178 18.3298 218.351 18.2953 218.52 18.277C218.646 18.2629 218.768 18.2486 218.858 18.2872C219.048 18.3683 219.235 18.4494 219.498 18.3946C219.782 18.4514 219.997 18.571 220.235 18.6684C220.346 18.715 220.432 18.7414 220.562 18.711C220.616 18.6988 220.681 18.6988 220.738 18.6927C220.857 18.6826 220.983 18.6521 221.09 18.6643C221.198 18.6785 221.288 18.7373 221.385 18.7738C221.432 18.7921 221.486 18.8225 221.533 18.8204C221.712 18.8103 221.889 18.79 222.065 18.7738C222.241 18.7596 222.417 18.7454 222.593 18.7312C222.741 18.7839 222.892 18.8367 223.039 18.8894C223.276 18.8671 223.514 18.8448 223.747 18.8245C224.01 18.8002 224.01 18.8022 224.387 18.9279C224.556 18.9847 224.736 18.9482 224.898 18.9218C225.167 18.8792 225.347 18.9563 225.538 19.0374C225.577 19.0536 225.649 19.0638 225.696 19.0556C225.883 19.0273 226.045 19.0496 226.181 19.1246C226.278 19.1773 226.375 19.2016 226.494 19.1915C226.907 19.153 227.321 19.1124 227.734 19.0779C227.785 19.0739 227.842 19.0921 227.889 19.1084C228.256 19.232 228.259 19.2381 228.529 19.2057C228.77 19.1773 228.993 19.1651 229.183 19.2766C229.223 19.301 229.284 19.3355 229.327 19.3334C229.622 19.3132 229.92 19.2908 230.211 19.2564C230.344 19.2402 230.438 19.2462 230.542 19.2929C230.675 19.3517 230.794 19.4227 231.013 19.3963C231.621 19.3213 231.624 19.3334 232.343 19.4733C232.394 19.4835 232.462 19.4672 232.52 19.4591C232.642 19.4389 232.732 19.4673 232.839 19.5139C233.08 19.6193 233.088 19.6132 233.318 19.5909C233.494 19.5727 233.677 19.5686 233.85 19.5382C234.116 19.4936 234.292 19.5727 234.49 19.6477C234.648 19.7065 234.831 19.6578 235 19.6396C235.184 19.6193 235.349 19.6254 235.486 19.7024C235.579 19.7552 235.68 19.7836 235.798 19.7734C236.212 19.7369 236.625 19.6964 237.039 19.6599C237.089 19.6558 237.15 19.672 237.197 19.6862C237.607 19.8119 237.607 19.818 238.013 19.7714C238.142 19.7572 238.25 19.7532 238.347 19.7957C238.441 19.8363 238.541 19.8748 238.639 19.9133C238.815 19.8991 238.994 19.8951 239.167 19.8708C239.3 19.8525 239.394 19.8606 239.498 19.9032C239.634 19.9579 239.749 20.0532 239.965 20.0066C240.077 19.9843 240.206 19.9904 240.318 19.9701C240.451 19.9437 240.54 19.96 240.645 20.0127C240.774 20.0755 240.907 20.1404 241.116 20.108C241.346 20.0715 241.59 20.0654 241.824 20.037C241.953 20.0208 242.043 20.037 242.147 20.0897C242.277 20.1566 242.424 20.1992 242.626 20.1729C243.036 20.1222 243.039 20.1323 243.438 20.26C243.539 20.2925 243.647 20.2884 243.776 20.2722C243.888 20.258 244.003 20.2884 244.082 20.3472C244.157 20.4121 244.15 20.4527 244.157 20.4871ZM212.12 2.20005C212.002 2.21019 211.883 2.22236 211.71 2.04595C211.7 2.01554 211.707 1.97905 211.682 1.95269C211.624 1.89795 211.534 1.85942 211.427 1.85334C211.232 1.84523 210.999 1.91416 211.002 1.96687C211.006 2.01148 211.067 2.05 211.186 2.0865C211.236 2.10069 211.276 2.12502 211.322 2.14125C211.459 2.18788 211.567 2.27914 211.764 2.2325C211.746 2.16965 211.728 2.10679 211.764 2.2325C211.746 2.30955 211.8 2.3643 211.93 2.3866C211.966 2.39269 212.02 2.38862 212.048 2.37646C212.16 2.33185 212.178 2.27103 212.095 2.11085C212.081 2.13721 212.092 2.18383 212.124 2.196C212.156 2.20816 212.235 2.19804 212.275 2.18384C212.376 2.14532 212.426 2.09462 212.401 2.05204C212.386 2.02974 212.318 2.00135 212.275 2.00135C212.199 2.00135 212.131 2.04596 212.12 2.20005ZM241.191 25.7143C240.929 25.7529 240.627 25.7387 240.364 25.8177C240.318 25.8319 240.271 25.8684 240.267 25.8968C240.264 25.9151 240.336 25.9414 240.379 25.9556C240.476 25.9881 240.584 25.9779 240.709 25.9678C240.9 25.9536 241.011 26.0469 241.159 26.0935C241.206 26.1077 241.267 26.1178 241.317 26.1138C241.608 26.0894 241.896 26.0631 242.187 26.0347C242.237 26.0286 242.291 26.0144 242.334 25.9962C242.478 25.9374 242.464 25.8989 242.324 25.8543C242.169 25.8056 242.047 25.7245 241.889 25.6859C241.662 25.6312 241.432 25.7042 241.191 25.7143ZM220.774 27.1945C220.598 27.2107 220.425 27.2269 220.249 27.2432C220.192 27.2493 220.13 27.2513 220.077 27.2594C219.965 27.2736 219.882 27.3161 219.828 27.3831C219.911 27.4358 220.012 27.4662 220.123 27.4601C220.299 27.4479 220.472 27.4216 220.648 27.4155C220.839 27.4074 220.95 27.4986 221.098 27.5453C221.144 27.5595 221.202 27.5615 221.256 27.5635C221.522 27.5716 221.684 27.4662 221.633 27.3182C221.597 27.2026 221.461 27.1337 221.295 27.1479C221.123 27.1621 220.947 27.1783 220.774 27.1945ZM242.421 22.7175C242.464 22.683 242.511 22.6587 242.532 22.6283C242.597 22.5249 242.572 22.4478 242.453 22.3667C242.309 22.2674 242.133 22.3343 241.971 22.3444C241.932 22.3465 241.889 22.389 241.867 22.4154C241.853 22.4336 241.853 22.4722 241.874 22.4823C242.05 22.5634 242.237 22.6384 242.421 22.7175ZM211.232 16.7279C211.06 16.7442 210.884 16.7563 210.711 16.7786C210.668 16.7847 210.628 16.8232 210.603 16.8496C210.556 16.8983 210.607 16.9652 210.754 16.9712C210.923 16.9794 211.099 16.9449 211.275 16.9287C211.498 16.9084 211.631 16.8334 211.549 16.7685C211.47 16.7056 211.362 16.6935 211.232 16.7279ZM21.9846 12.3949C22.0997 12.3848 22.2183 12.3767 22.3333 12.3625C22.4412 12.3483 22.5239 12.3037 22.5779 12.2368C22.488 12.184 22.3873 12.1557 22.2758 12.1617C22.0997 12.1739 21.9271 12.1901 21.7546 12.2104C21.6467 12.2226 21.5425 12.2672 21.5173 12.3361C21.4921 12.3888 21.7329 12.4193 21.9846 12.3949ZM196.028 12.0827C196.075 12.1009 196.122 12.1374 196.168 12.1374C196.283 12.1374 196.402 12.1252 196.51 12.105C196.557 12.0969 196.593 12.0604 196.614 12.032C196.629 12.0137 196.625 11.9813 196.604 11.9651C196.499 11.8677 196.082 11.9022 196.014 12.0137C196.007 12.034 196.025 12.0604 196.028 12.0827ZM184.685 0.979424C184.696 1.01187 184.7 1.0443 184.714 1.07675C184.743 1.13757 184.822 1.18219 184.937 1.21261C185.027 1.16191 185.074 1.10515 185.07 1.04432C185.067 1.01188 185.056 0.979417 185.041 0.946975C185.013 0.886147 184.933 0.841555 184.818 0.811141C184.729 0.859804 184.685 0.916568 184.685 0.979424ZM250.729 27.5473C250.697 27.5737 250.664 27.6 250.629 27.6244C250.726 27.6832 250.816 27.7014 250.884 27.669C250.927 27.6487 250.952 27.6183 250.985 27.5919C250.887 27.5331 250.801 27.5169 250.729 27.5473ZM248.493 27.8231C248.54 27.8413 248.583 27.8656 248.633 27.8778C248.716 27.8981 248.791 27.8636 248.849 27.7906C248.802 27.7724 248.759 27.748 248.709 27.7359C248.626 27.7156 248.551 27.7501 248.493 27.8231ZM249.909 27.452C249.884 27.5007 249.935 27.5412 250.068 27.5757C250.1 27.5493 250.143 27.525 250.165 27.4966C250.201 27.45 250.14 27.4074 250.01 27.375C249.974 27.3993 249.942 27.4257 249.909 27.452ZM242.32 25.2662C242.295 25.3149 242.345 25.3555 242.478 25.3899C242.511 25.3636 242.554 25.3392 242.575 25.3108C242.611 25.2642 242.55 25.2216 242.421 25.1892C242.385 25.2135 242.352 25.2399 242.32 25.2662ZM231.98 10.9188C231.948 10.9452 231.916 10.9715 231.88 10.9959C231.977 11.0547 232.067 11.0729 232.135 11.0405C232.178 11.0202 232.203 10.9898 232.236 10.9634C232.138 10.9046 232.052 10.8884 231.98 10.9188ZM222.075 3.30713C222.162 3.32132 222.234 3.29294 222.295 3.21792C222.248 3.19967 222.205 3.17534 222.155 3.16317C222.072 3.1429 221.996 3.17738 221.939 3.25037C221.986 3.27065 222.032 3.28888 222.075 3.30713ZM216.816 2.83064C216.783 2.857 216.751 2.88336 216.715 2.90769C216.812 2.96649 216.902 2.98473 216.97 2.95229C217.013 2.93202 217.039 2.9016 217.071 2.87524C216.974 2.81644 216.888 2.80225 216.816 2.83064ZM181.148 0.977395C181.115 1.00375 181.083 1.03011 181.047 1.05445C181.144 1.11325 181.234 1.13149 181.302 1.09905C181.345 1.07877 181.371 1.04836 181.403 1.022C181.306 0.963195 181.22 0.949008 181.148 0.977395ZM3.54842 17.4741C3.50168 17.4558 3.45498 17.4376 3.41184 17.4173C3.30758 17.4721 3.27523 17.5228 3.33276 17.5613C3.36871 17.5856 3.42259 17.5998 3.46933 17.6181C3.57719 17.5633 3.60234 17.5146 3.54842 17.4741Z" fill="#FFE492"/>
</svg>
