<svg width="190" height="24" viewBox="0 0 190 24" fill="none" xmlns="http://www.w3.org/2000/svg">
<path d="M178.673 12.7461C178.413 12.7651 178.15 12.7781 177.895 12.8065C177.729 12.8242 177.658 12.7722 177.547 12.745C177.511 12.7355 177.471 12.7166 177.437 12.7189C177.179 12.7379 176.921 12.7592 176.663 12.7804C176.584 12.8266 176.534 12.8881 176.413 12.9105C176.295 12.9318 176.156 12.9318 176.024 12.9425C175.85 12.9555 175.677 12.9685 175.503 12.9803C175.416 12.9862 175.345 13.0087 175.316 13.0513C175.311 13.0584 175.369 13.0761 175.4 13.0868C175.506 13.1223 175.608 13.1625 175.724 13.1897C175.835 13.2157 175.971 13.1731 176.09 13.2062C176.356 13.2807 176.358 13.2796 176.561 13.2654C176.734 13.2524 176.908 13.2382 177.082 13.2287C177.116 13.2263 177.155 13.2441 177.192 13.2535C177.303 13.2796 177.374 13.3387 177.537 13.3162C177.66 13.2985 177.797 13.2949 177.926 13.2855C178.034 13.3198 178.134 13.3588 178.25 13.386C178.358 13.412 178.389 13.4321 178.331 13.4664C178.279 13.4984 178.205 13.5114 178.108 13.5138C178.021 13.5149 177.934 13.5256 177.847 13.5315C177.803 13.535 177.76 13.5374 177.718 13.541C177.553 13.554 177.553 13.554 177.25 13.4783C177.132 13.4487 176.998 13.4901 176.884 13.4617C176.808 13.4428 176.742 13.4144 176.669 13.3943C176.637 13.386 176.587 13.3848 176.548 13.3872C176.416 13.3955 176.285 13.4014 176.158 13.4168C176.069 13.4274 176.016 13.4605 176.027 13.4936C176.029 13.5067 176.092 13.5256 176.129 13.5268C176.213 13.5291 176.303 13.5126 176.384 13.5208C176.463 13.5291 176.545 13.5528 176.603 13.5788C176.721 13.6332 176.855 13.5847 176.969 13.5989C177.087 13.6143 177.184 13.6616 177.297 13.69C177.326 13.6971 177.382 13.6852 177.426 13.6817C177.555 13.6734 177.684 13.6663 177.813 13.658C177.921 13.6923 178.037 13.7231 178.134 13.7621C178.31 13.8331 178.5 13.8603 178.729 13.826C178.858 13.8071 178.984 13.8142 179.086 13.8603C179.192 13.9076 179.313 13.9029 179.447 13.8934C179.571 13.884 179.697 13.8579 179.823 13.891C180.097 13.9644 180.099 13.9679 180.423 13.9395C180.52 13.9313 180.594 13.9289 180.668 13.9561C180.736 13.9809 180.81 14.0022 180.881 14.0259C181.01 14.0176 181.141 14.0093 181.27 13.9999C181.436 13.9869 181.528 14.0034 181.567 14.0696C181.591 14.1099 181.602 14.1465 181.66 14.1737C181.728 14.2068 181.802 14.2057 181.902 14.1962C181.996 14.1879 182.065 14.1749 182.104 14.1323C182.12 14.1146 182.152 14.098 182.18 14.0838C182.204 14.0732 182.241 14.0566 182.262 14.059C182.301 14.0637 182.354 14.0767 182.367 14.0921C182.496 14.2352 182.496 14.2364 182.628 14.2778C182.772 14.3239 182.922 14.3653 183.054 14.4174C183.172 14.4635 183.291 14.4434 183.42 14.4434C183.517 14.4434 183.58 14.4742 183.572 14.5049C183.567 14.5226 183.53 14.5487 183.499 14.551C183.241 14.5747 182.98 14.5948 182.72 14.6113C182.688 14.6137 182.649 14.5924 182.612 14.5818C182.538 14.5605 182.473 14.5274 182.394 14.5203C182.315 14.5132 182.223 14.5309 182.136 14.5368C182.049 14.5427 181.957 14.5581 181.878 14.5487C181.799 14.5392 181.736 14.5049 181.662 14.4824C181.628 14.4718 181.581 14.4564 181.552 14.46C181.36 14.4883 181.218 14.4493 181.081 14.3973C181.052 14.3866 181.002 14.3795 180.965 14.3819C180.66 14.402 180.357 14.4256 180.052 14.4481C179.928 14.4576 179.828 14.4162 179.802 14.3464C179.789 14.3074 179.763 14.2683 179.763 14.2293C179.763 14.1583 179.618 14.1193 179.513 14.1276C179.339 14.1394 179.163 14.1489 178.992 14.1666C178.852 14.1808 178.734 14.1666 178.639 14.124C178.529 14.0756 178.402 14.085 178.276 14.098C178.181 14.1075 178.155 14.1465 178.16 14.2447C178.166 14.3239 178.121 14.3488 177.95 14.3618C177.734 14.3783 177.516 14.3949 177.297 14.4079C177.263 14.4103 177.224 14.3902 177.19 14.3795C177.116 14.3582 177.05 14.3239 176.971 14.3168C176.892 14.3086 176.8 14.3263 176.713 14.3334C176.627 14.3393 176.534 14.3559 176.455 14.3476C176.377 14.3393 176.311 14.3038 176.24 14.2814C176.206 14.2707 176.163 14.2553 176.129 14.2577C175.956 14.2672 175.782 14.2814 175.608 14.2944C175.414 14.3086 175.414 14.3086 175.137 14.2352C175.011 14.2021 174.885 14.2281 174.761 14.2376C174.63 14.2471 174.506 14.2518 174.403 14.2045C174.335 14.1737 174.259 14.1548 174.177 14.1607C173.959 14.1749 173.743 14.1927 173.525 14.2068C173.488 14.2092 173.438 14.2033 173.409 14.1927C173.269 14.143 173.133 14.1039 172.938 14.1288C172.77 14.1501 172.588 14.1513 172.42 14.1714C172.328 14.182 172.285 14.2199 172.304 14.2494C172.314 14.2648 172.37 14.2825 172.406 14.2825C172.491 14.2837 172.583 14.266 172.662 14.2731C172.825 14.2873 172.906 14.3866 173.119 14.3594C173.246 14.3429 173.377 14.3369 173.509 14.3322C173.543 14.331 173.58 14.3535 173.617 14.3653C173.722 14.3973 173.814 14.4387 173.967 14.4174C174.093 14.4008 174.227 14.3961 174.356 14.3866C174.561 14.3713 174.561 14.3724 174.827 14.4446C174.953 14.4789 175.08 14.4517 175.203 14.4434C175.295 14.4375 175.382 14.4257 175.456 14.4422C175.569 14.4671 175.65 14.5238 175.79 14.5203C175.921 14.5167 176.05 14.5002 176.182 14.4942C176.263 14.4907 176.34 14.5096 176.406 14.5416C176.474 14.5735 176.548 14.5877 176.637 14.5806C176.766 14.5711 176.897 14.5593 177.029 14.5534C177.066 14.5522 177.108 14.5629 177.142 14.5723C177.216 14.5936 177.287 14.6184 177.358 14.6409C177.487 14.6338 177.618 14.6315 177.745 14.6173C177.842 14.6066 177.91 14.6113 177.989 14.635C178.089 14.6669 178.171 14.7237 178.334 14.6965C178.416 14.6835 178.51 14.687 178.592 14.6752C178.692 14.6598 178.76 14.6657 178.831 14.7012C178.965 14.7686 179.134 14.7698 179.307 14.7438C179.497 14.7154 179.639 14.7485 179.781 14.8006C179.931 14.855 179.931 14.8538 180.047 14.9851C180.081 15.0229 180.178 15.0407 180.26 15.0336C180.397 15.0218 180.515 15.0277 180.615 15.0726C180.72 15.1211 180.847 15.1152 180.975 15.1022C181.146 15.0844 181.318 15.0691 181.457 15.1377C181.525 15.1708 181.599 15.1791 181.691 15.1708C181.952 15.1495 182.215 15.1365 182.47 15.1105C182.625 15.0939 182.715 15.1318 182.82 15.1637C182.962 15.2074 183.117 15.2465 183.117 15.3399C183.117 15.3553 183.154 15.373 183.185 15.3849C183.254 15.4097 183.328 15.431 183.399 15.4546C183.504 15.4901 183.606 15.5197 183.751 15.5008C183.877 15.4854 184.012 15.4807 184.141 15.47C184.269 15.4594 184.388 15.4535 184.504 15.4984C184.638 15.5493 184.78 15.5978 184.932 15.6356C185.04 15.6628 185.182 15.6167 185.298 15.6533C185.369 15.6758 185.438 15.7018 185.514 15.7208C185.545 15.729 185.595 15.7231 185.638 15.7208C185.724 15.716 185.814 15.7125 185.898 15.7007C185.995 15.6877 186.069 15.69 186.143 15.7172C186.211 15.7421 186.28 15.7764 186.358 15.7834C186.477 15.7941 186.608 15.7468 186.727 15.8012C186.787 15.8284 186.864 15.8544 186.943 15.8627C187.021 15.871 187.114 15.8532 187.198 15.8544C187.235 15.8544 187.279 15.8733 187.3 15.8887C187.313 15.897 187.295 15.9195 187.277 15.9313C187.253 15.9455 187.219 15.9644 187.185 15.9668C186.924 15.9881 186.664 16.0058 186.403 16.0259C186.248 16.0377 186.248 16.0377 185.935 15.9632C185.861 15.9455 185.78 15.949 185.688 15.9573C185.564 15.968 185.438 15.9881 185.309 15.9668C185.14 15.8864 184.932 15.8792 184.711 15.91C184.619 15.923 184.535 15.923 184.467 15.9005C184.322 15.8556 184.169 15.8142 184.041 15.761C183.941 15.7196 183.893 15.716 183.851 15.7728C183.838 15.7905 183.825 15.8095 183.827 15.826C183.843 15.8852 183.872 15.9431 183.888 16.0023C183.893 16.0188 183.872 16.0377 183.859 16.0555C183.817 16.1052 183.762 16.1016 183.67 16.0602C183.578 16.0188 183.467 15.9916 183.32 16.0105C183.193 16.0271 183.057 16.0247 182.93 16.0425C182.736 16.0685 182.599 16.0306 182.459 15.9798C182.43 15.9691 182.38 15.9632 182.344 15.9656C181.952 15.9928 181.562 16.0235 181.17 16.0507C181.086 16.0567 181.01 16.0389 180.944 16.007C180.876 15.9751 180.799 15.9585 180.715 15.9644C180.368 15.9892 180.02 16.0117 179.673 16.0425C179.531 16.0555 179.418 16.0401 179.321 15.9987C179.247 15.9679 179.179 15.9585 179.086 15.962C178.986 15.9656 178.915 15.9774 178.865 16.0117C178.818 16.0448 178.852 16.0649 178.958 16.091C179.071 16.1193 179.176 16.156 179.284 16.1891C179.371 16.1844 179.457 16.1749 179.542 16.1761C179.578 16.1761 179.613 16.1974 179.65 16.2092C179.755 16.2435 179.852 16.2778 180.002 16.2589C180.128 16.2424 180.262 16.2388 180.391 16.2282C180.57 16.2152 180.57 16.2152 180.86 16.2897C180.933 16.3086 181.012 16.3074 181.107 16.2968C181.189 16.2885 181.273 16.305 181.331 16.3405C181.354 16.3547 181.346 16.3784 181.296 16.4564C181.296 16.5144 181.352 16.4884 181.37 16.4505C181.399 16.3961 181.344 16.3784 181.239 16.4079C181.165 16.4292 181.128 16.46 181.147 16.4848C181.157 16.4978 181.207 16.5144 181.296 16.4564C181.528 16.3855 181.704 16.3772 181.873 16.3583C181.973 16.3476 182.036 16.3523 182.115 16.3831C182.209 16.4198 182.304 16.4588 182.459 16.4399C182.628 16.4186 182.807 16.4162 182.978 16.3985C183.135 16.3819 183.217 16.434 183.317 16.4647C183.438 16.5014 183.572 16.46 183.683 16.4813C183.798 16.5026 183.88 16.5546 184.014 16.5641C184.209 16.5321 184.333 16.5913 184.48 16.6303C184.596 16.6599 184.732 16.6338 184.856 16.6208C184.996 16.6066 185.111 16.6197 185.209 16.6622C185.319 16.7107 185.443 16.7001 185.569 16.6894C185.864 16.6658 185.874 16.6622 186.045 16.7273C186.169 16.7746 186.287 16.7533 186.411 16.7474C186.519 16.7793 186.624 16.8136 186.737 16.842C186.766 16.8491 186.821 16.8373 186.866 16.8337C186.995 16.8243 187.127 16.8148 187.256 16.8053C187.342 16.7994 187.434 16.7817 187.513 16.7888C187.592 16.7971 187.658 16.8314 187.729 16.8538C187.8 16.8763 187.874 16.8988 187.942 16.9224C188.048 16.9579 188.147 16.9875 188.295 16.9697C188.421 16.9544 188.553 16.9496 188.684 16.939C188.85 16.926 188.845 16.9295 189.152 17.0005C189.318 17.0395 189.489 16.9922 189.658 16.9875C189.742 16.9851 189.823 16.9981 189.881 17.0324C189.905 17.0466 189.897 17.0703 189.905 17.0904C189.471 17.1223 189.034 17.1495 188.605 17.1886C188.439 17.2039 188.353 17.1613 188.263 17.1259C188.116 17.0691 187.921 17.1519 187.782 17.0786C187.698 17.0348 187.577 17.01 187.432 17.0313C187.348 17.0431 187.258 17.0419 187.171 17.0525C186.95 17.0786 186.748 17.0797 186.572 16.9981C186.511 16.9697 186.424 16.9544 186.361 16.9272C186.287 16.8976 186.216 16.881 186.13 16.8869C185.738 16.9153 185.348 16.9437 184.959 16.9745C184.925 16.9768 184.89 16.9946 184.861 17.0076C184.788 17.0407 184.811 17.0667 184.93 17.088C184.969 17.0951 185.001 17.1105 185.038 17.1223C185.109 17.1448 185.174 17.1803 185.253 17.1886C185.332 17.1968 185.424 17.1803 185.511 17.1744C185.598 17.1684 185.69 17.1507 185.769 17.1578C185.848 17.1661 185.914 17.2004 185.987 17.2217C186.022 17.2323 186.064 17.2501 186.098 17.2489C186.272 17.2418 186.443 17.2288 186.616 17.2181C186.724 17.2501 186.816 17.2962 186.945 17.3068C187.027 17.3139 187.114 17.3009 187.198 17.3033C187.235 17.3045 187.282 17.3222 187.3 17.3376C187.311 17.347 187.277 17.3707 187.25 17.3825C187.15 17.4275 187.014 17.4192 186.89 17.4334C186.756 17.4488 186.635 17.444 186.532 17.3979C186.464 17.3672 186.387 17.3506 186.303 17.3565C186.085 17.3719 185.869 17.3896 185.651 17.4026C185.614 17.405 185.569 17.3944 185.535 17.3861C185.259 17.3139 185.259 17.3116 185.064 17.3269C184.777 17.3494 184.777 17.3494 184.585 17.2867C184.548 17.2749 184.509 17.2524 184.477 17.2536C184.172 17.2725 183.87 17.2915 183.567 17.3187C183.467 17.3269 183.399 17.3269 183.325 17.2962C183.262 17.2702 183.188 17.2406 183.109 17.2335C183.028 17.2264 182.938 17.2441 182.851 17.2501C182.765 17.256 182.672 17.2713 182.596 17.2619C182.517 17.2524 182.449 17.2193 182.38 17.1957C182.309 17.1708 182.233 17.172 182.136 17.1815C181.836 17.2087 181.833 17.2051 181.536 17.1318C181.502 17.1235 181.457 17.114 181.42 17.1164C181.202 17.1306 180.986 17.1483 180.768 17.1625C180.683 17.1685 180.602 17.1531 180.544 17.1188C180.52 17.1046 180.528 17.0809 180.512 17.0348C180.494 17.0241 180.515 17.0431 180.52 17.0608C180.56 17.0585 180.607 17.0608 180.636 17.0514C180.71 17.0289 180.747 16.9993 180.728 16.9745C180.718 16.9615 180.668 16.9449 180.636 16.9449C180.578 16.9449 180.528 16.9709 180.512 17.0348C180.347 17.0738 180.17 17.0821 179.999 17.101C179.899 17.1129 179.836 17.107 179.757 17.0762C179.663 17.0384 179.565 17.0017 179.41 17.0206C179.242 17.0419 179.063 17.0454 178.889 17.062C178.689 17.0809 178.602 16.9745 178.434 16.9768C178.26 16.9792 178.087 16.9993 177.913 17.0135C177.76 17.0253 177.76 17.0253 177.445 16.9485C177.329 16.9201 177.192 16.9615 177.079 16.9319C177.003 16.913 176.937 16.8846 176.863 16.8645C176.832 16.8562 176.782 16.8562 176.742 16.8586C176.524 16.8728 176.303 16.8822 176.092 16.9082C175.853 16.939 175.672 16.9059 175.5 16.8361C175.285 16.8491 175.066 16.8562 174.853 16.8787C174.698 16.8952 174.609 16.8562 174.503 16.8243C174.467 16.8136 174.435 16.7959 174.395 16.7912C174.356 16.7864 174.309 16.7959 174.267 16.7994C174.093 16.8124 173.914 16.8184 173.746 16.8396C173.538 16.8669 173.459 16.7699 173.298 16.758C173.19 16.816 173.133 16.8952 172.919 16.9011C172.746 16.9059 172.572 16.9248 172.399 16.9378C172.312 16.9437 172.225 16.9508 172.138 16.9567C171.999 16.9674 171.933 17.0135 171.962 17.0845C171.978 17.1235 171.991 17.1625 172.004 17.2016C172.03 17.2713 171.964 17.3305 171.854 17.3388C171.549 17.3612 171.246 17.3849 170.941 17.405C170.859 17.4109 170.781 17.3908 170.715 17.3589C170.646 17.3269 170.57 17.3127 170.486 17.3187C170.181 17.3411 169.878 17.3648 169.573 17.3849C169.539 17.3873 169.494 17.3754 169.46 17.366C169.386 17.3447 169.315 17.3198 169.244 17.2974C169.07 17.308 168.899 17.3151 168.728 17.3293C168.452 17.3506 168.452 17.3518 168.25 17.2867C168.213 17.2749 168.176 17.2524 168.142 17.2536C168.01 17.2583 167.881 17.2702 167.75 17.2808C167.363 17.3116 167.363 17.3116 167.25 17.2761C167.147 17.243 167.055 17.2028 166.9 17.2217C166.731 17.243 166.553 17.2501 166.379 17.2619C166.25 17.2702 166.121 17.2796 165.992 17.282C165.958 17.2832 165.921 17.2607 165.884 17.2489C165.779 17.2122 165.676 17.1826 165.532 17.2027C165.448 17.2146 165.358 17.2169 165.271 17.2229C165.045 17.2394 165.045 17.2394 164.674 17.1684C164.637 17.1613 164.593 17.1531 164.556 17.1566C164.25 17.1779 163.948 17.2016 163.643 17.2217C163.606 17.224 163.561 17.2169 163.524 17.211C163.109 17.1424 163.109 17.1424 162.667 17.1755C162.498 17.1874 162.493 17.1921 162.317 17.1294C162.238 17.1022 162.172 17.0892 162.08 17.0975C161.733 17.1259 161.383 17.1448 161.038 17.1779C160.883 17.1921 160.793 17.1566 160.688 17.1247C160.651 17.114 160.612 17.0904 160.58 17.0916C160.233 17.114 159.886 17.1412 159.538 17.1637C159.507 17.1661 159.467 17.1424 159.431 17.1318C159.36 17.1105 159.291 17.0786 159.212 17.0715C159.131 17.0644 159.041 17.0821 158.952 17.088C158.733 17.1034 158.733 17.1022 158.481 17.0324C158.447 17.023 158.402 17.01 158.368 17.0123C158.02 17.036 157.67 17.0561 157.326 17.0904C157.129 17.1093 156.994 17.075 156.855 17.0253C156.826 17.0147 156.776 17.01 156.739 17.0123C156.347 17.0395 155.958 17.0703 155.566 17.0975C155.484 17.1034 155.405 17.0833 155.339 17.0525C155.234 17.004 155.111 17.01 154.979 17.0206C154.676 17.0454 154.674 17.0443 154.495 16.9875C154.458 16.9757 154.427 16.9603 154.387 16.9544C154.35 16.9485 154.303 16.952 154.263 16.9544C154.09 16.9662 153.916 16.9792 153.742 16.9922C153.569 17.0052 153.393 17.0123 153.222 17.0324C153.011 17.0573 152.911 16.9804 152.764 16.9449C152.548 16.9603 152.327 16.9697 152.114 16.9946C151.951 17.0135 151.875 16.9615 151.767 16.9343C151.73 16.9248 151.69 16.9047 151.656 16.9071C151.264 16.9331 150.872 16.9615 150.483 16.9934C150.388 17.0005 150.325 16.991 150.246 16.9626C150.07 16.8988 150.062 16.9011 149.767 16.9248C149.638 16.9354 149.514 16.9449 149.404 16.8964C149.307 16.8527 149.188 16.842 149.049 16.8562C148.878 16.8739 148.702 16.8834 148.528 16.8952C148.354 16.9082 148.181 16.926 148.007 16.9319C147.868 16.9378 147.783 16.8822 147.673 16.8538C147.639 16.8456 147.591 16.8444 147.552 16.8467C147.378 16.8574 147.199 16.8657 147.031 16.8858C146.826 16.9106 146.713 16.8456 146.568 16.8077C146.536 16.7994 146.484 16.8042 146.444 16.8077C146.139 16.829 145.836 16.8527 145.531 16.8751C145.423 16.8432 145.313 16.8124 145.205 16.7805C145.031 16.7923 144.858 16.8053 144.684 16.8172C144.553 16.8266 144.418 16.8302 144.295 16.8479C144.134 16.8716 144.055 16.816 143.947 16.7888C143.911 16.7793 143.871 16.7592 143.837 16.7616C143.619 16.7746 143.4 16.7888 143.184 16.8089C142.979 16.829 142.898 16.7225 142.729 16.7237C142.556 16.7249 142.377 16.7403 142.208 16.7616C142.014 16.7864 141.877 16.7486 141.737 16.6977C141.708 16.6871 141.659 16.6812 141.622 16.6835C141.403 16.6977 141.188 16.7155 140.969 16.7296C140.932 16.732 140.888 16.7261 140.851 16.719C140.435 16.6492 140.435 16.648 140.254 16.6622C140.125 16.6717 139.993 16.6835 139.862 16.6894C139.825 16.6918 139.78 16.6812 139.746 16.6717C139.472 16.5995 139.472 16.5984 139.275 16.6126C139.101 16.6256 138.928 16.6386 138.754 16.6516C138.646 16.6196 138.536 16.5889 138.428 16.557C138.212 16.5723 137.991 16.5842 137.778 16.6055C137.678 16.6149 137.612 16.6114 137.536 16.5818C137.441 16.5463 137.346 16.5049 137.188 16.525C137.02 16.5463 136.841 16.5487 136.67 16.5664C136.465 16.5877 136.381 16.4801 136.215 16.4813C136.041 16.4825 135.863 16.4978 135.694 16.5191C135.499 16.544 135.363 16.5061 135.223 16.4553C135.194 16.4446 135.144 16.4387 135.107 16.4411C134.629 16.4754 134.152 16.5096 133.674 16.5463C133.379 16.5688 133.379 16.57 132.819 16.5049C132.779 16.5002 132.737 16.4955 132.697 16.4978C132.524 16.5085 132.345 16.5168 132.177 16.5369C131.971 16.5617 131.858 16.4978 131.713 16.4588C131.682 16.4505 131.632 16.4552 131.59 16.4576C131.458 16.4659 131.329 16.4765 131.198 16.486C131.024 16.499 130.851 16.512 130.677 16.525C130.569 16.4943 130.459 16.4623 130.351 16.4316C130.135 16.447 129.914 16.4553 129.701 16.4801C129.538 16.499 129.461 16.4493 129.354 16.421C129.317 16.4115 129.277 16.3914 129.243 16.3926C128.851 16.4186 128.459 16.4458 128.07 16.4789C127.909 16.4931 127.835 16.4399 127.728 16.4127C127.691 16.4044 127.649 16.389 127.614 16.3914C127.354 16.4079 127.094 16.428 126.833 16.4482C126.686 16.46 126.686 16.46 126.365 16.3866C126.328 16.3784 126.286 16.3701 126.249 16.3725C125.423 16.4316 124.599 16.4943 123.773 16.5534C123.689 16.5593 123.613 16.5416 123.547 16.5097C123.479 16.4777 123.402 16.4612 123.318 16.4671C122.971 16.4919 122.621 16.5144 122.276 16.5451C122.134 16.5582 122.021 16.5428 121.924 16.5014C121.85 16.4706 121.782 16.4588 121.69 16.4659C121.516 16.4801 121.342 16.4919 121.169 16.5049C120.995 16.5179 120.821 16.531 120.648 16.544C120.474 16.557 120.298 16.5641 120.127 16.5842C119.916 16.609 119.814 16.5357 119.669 16.499C119.409 16.5168 119.148 16.5345 118.89 16.5534C118.543 16.5783 118.196 16.6055 117.848 16.6291C117.817 16.6315 117.777 16.6102 117.74 16.5995C117.633 16.57 117.554 16.5286 117.393 16.5416C116.614 16.6043 115.83 16.6575 115.049 16.719C114.886 16.732 114.815 16.6812 114.704 16.6539C114.668 16.6457 114.625 16.6291 114.591 16.6315C114.157 16.6611 113.723 16.6942 113.289 16.7261C113.113 16.7391 113.113 16.7391 112.818 16.6658C112.784 16.6575 112.739 16.6468 112.702 16.6492C112.137 16.6894 111.574 16.732 111.008 16.7734C110.924 16.7793 110.847 16.7628 110.779 16.7308C110.713 16.6989 110.634 16.6812 110.553 16.6871C110.032 16.7249 109.508 16.7616 108.99 16.803C108.85 16.8148 108.735 16.8042 108.635 16.7616C108.564 16.7308 108.493 16.7178 108.403 16.7249C107.622 16.7829 106.84 16.8385 106.059 16.9C105.909 16.9118 105.804 16.8893 105.709 16.8503C105.633 16.8195 105.567 16.8136 105.472 16.8184C105.372 16.8243 105.312 16.8373 105.257 16.8728C105.186 16.9189 105.141 16.9768 104.972 16.9804C104.799 16.9839 104.623 16.9981 104.452 17.0182C104.288 17.0384 104.212 16.9851 104.11 16.9532C104.033 16.9307 103.962 16.9272 103.865 16.9378C103.775 16.9473 103.72 16.9674 103.668 17.0052C103.552 17.0856 103.541 17.0857 103.399 17.0348C103.323 17.0076 103.254 16.9863 103.17 16.991C102.823 17.0147 102.476 17.0407 102.128 17.0679C101.928 17.0833 101.926 17.0857 101.776 17.0265C101.702 16.9969 101.631 16.9828 101.544 16.9898C100.589 17.0608 99.6343 17.1294 98.6792 17.2039C98.5319 17.2158 98.4319 17.1909 98.3267 17.1554C98.2925 17.1436 98.2583 17.127 98.2188 17.1223C98.1794 17.1176 98.1346 17.1223 98.0925 17.1247C97.398 17.1755 96.7007 17.224 96.0088 17.2808C95.8509 17.2938 95.7668 17.256 95.6589 17.2252C95.6221 17.2146 95.5905 17.198 95.551 17.1933C95.5115 17.1897 95.4642 17.198 95.4221 17.2016C94.7275 17.2524 94.0303 17.3009 93.3384 17.3577C93.1726 17.3707 93.1016 17.321 92.9937 17.295C92.9569 17.2855 92.9174 17.2678 92.8832 17.2702C92.6649 17.2832 92.4491 17.3009 92.2308 17.3163C91.7098 17.3553 91.1889 17.392 90.6679 17.4322C90.468 17.4476 90.3812 17.3423 90.2128 17.347C89.9944 17.353 89.7787 17.3766 89.5603 17.3932C89.3867 17.4062 89.213 17.418 89.0394 17.4322C88.8684 17.4452 88.8684 17.4452 88.4422 17.3766C88.4053 17.3707 88.3606 17.3624 88.3238 17.3648C87.716 17.4085 87.1057 17.4523 86.5005 17.4996C86.3611 17.5103 86.2453 17.5044 86.1453 17.4606C86.0743 17.4298 86.0007 17.4145 85.9138 17.4216C85.0009 17.489 84.0905 17.5564 83.1776 17.6226C83.1434 17.625 83.0987 17.6132 83.0645 17.6037C82.9908 17.5824 82.9198 17.5576 82.8487 17.5351C82.7961 17.5623 82.7278 17.5871 82.6936 17.6179C82.6462 17.6593 82.583 17.6711 82.4831 17.6782C82.3831 17.6853 82.32 17.6829 82.241 17.6522C82.1463 17.6143 82.049 17.5848 81.8937 17.5966C80.9387 17.6711 79.9836 17.7385 79.0286 17.8119C78.8707 17.8237 78.7971 17.7716 78.6866 17.7444C78.6498 17.7362 78.6076 17.7232 78.5734 17.7255C78.1814 17.7527 77.7921 17.7823 77.4 17.8107C76.3135 17.8911 75.2269 17.968 74.143 18.0532C73.9456 18.0685 73.8114 18.039 73.672 17.9881C73.6431 17.9774 73.5931 17.9715 73.5563 17.9739C72.0356 18.0851 70.5149 18.1974 68.9968 18.3098C68.9152 18.3157 68.8363 18.2968 68.7705 18.266C68.7021 18.2341 68.6258 18.2187 68.5416 18.2246C67.8471 18.2755 67.1525 18.3264 66.4579 18.3784C66.2843 18.3914 66.2816 18.3926 66.1027 18.3358C66.0659 18.324 66.0265 18.3015 65.9975 18.3039C65.937 18.3098 65.8791 18.3394 65.837 18.3796C65.7949 18.4222 65.7291 18.434 65.6318 18.4423C65.5318 18.4505 65.4661 18.447 65.3898 18.4186C65.2924 18.3831 65.203 18.3488 65.0451 18.3607C63.0482 18.5121 61.0513 18.6575 59.0544 18.8077C58.8939 18.8196 58.8202 18.7699 58.7097 18.7427C58.6729 18.7344 58.6361 18.7226 58.5966 18.7202C58.5545 18.7178 58.5098 18.7249 58.4677 18.7285C55.2106 18.9686 51.9535 19.2099 48.6964 19.45C48.5017 19.4642 48.5043 19.4642 48.2912 19.573C48.2649 19.586 48.2306 19.6037 48.1938 19.6061C47.1967 19.6818 46.1969 19.7551 45.1972 19.8284C44.7631 19.8604 44.329 19.8935 43.8949 19.9243C43.7396 19.9349 43.7396 19.9349 43.3687 20.0626C43.3371 20.0733 43.3002 20.0875 43.2634 20.0898C41.527 20.2188 39.7905 20.3477 38.0515 20.4742C37.9147 20.4837 37.8042 20.505 37.741 20.5618C37.6963 20.602 37.6384 20.6256 37.5516 20.6327C36.3361 20.7226 35.1206 20.8137 33.9025 20.9012C33.7578 20.9119 33.6709 20.945 33.5999 20.9946C33.5762 21.0112 33.5552 21.0301 33.521 21.0419C33.4894 21.0526 33.4421 21.0561 33.4026 21.0597C32.3607 21.1366 31.3189 21.2158 30.2744 21.2892C30.1192 21.2998 30.056 21.3436 29.9797 21.3897C29.9534 21.4051 29.935 21.4264 29.9008 21.437C29.8666 21.4465 29.8166 21.4465 29.7745 21.4488C28.9063 21.5127 28.0381 21.5777 27.1699 21.6416C27.0015 21.6357 26.9646 21.7043 26.8831 21.7457C26.8541 21.7599 26.8331 21.7788 26.7989 21.7883C26.7621 21.7977 26.7147 21.7965 26.67 21.7989C25.9754 21.8498 25.2808 21.9042 24.5836 21.9515C24.4231 21.9621 24.3916 22.0224 24.3047 22.0638C24.2758 22.0769 24.2469 22.097 24.2127 22.1005C23.7786 22.1348 23.3445 22.1667 22.9104 22.1975C22.7657 22.2081 22.7657 22.207 22.5105 22.3241C22.4815 22.3371 22.4473 22.3513 22.4105 22.3548C21.7606 22.4045 21.1082 22.4518 20.4557 22.5003C20.3715 22.5062 20.3136 22.5346 20.2715 22.5748C20.2294 22.615 20.1689 22.641 20.0847 22.6469C19.5638 22.686 19.0428 22.7262 18.5219 22.7617C18.3772 22.7711 18.2825 22.8007 18.2194 22.8539C18.172 22.8941 18.1141 22.9142 18.022 22.9213C17.5011 22.9592 16.9802 23.0006 16.4566 23.0337C16.304 23.0432 16.2251 23.0834 16.1619 23.1331C16.1119 23.1733 16.0541 23.1875 15.9567 23.1946C15.0017 23.2632 14.044 23.3318 13.0916 23.4074C12.9311 23.4205 12.8496 23.3791 12.7443 23.3495C12.5944 23.3081 12.455 23.2632 12.455 23.1709C12.455 23.1567 12.4102 23.1401 12.3787 23.1283C12.1445 23.0396 12.1445 23.0396 12.1077 22.945C12.0866 22.887 12.0629 22.8279 12.0445 22.7688C12.0103 22.6718 11.9261 22.647 11.684 22.6647C11.5972 22.6706 11.5104 22.6789 11.4236 22.6836C11.2947 22.6919 11.1973 22.6529 11.1737 22.5819C11.1605 22.5429 11.1447 22.5038 11.1316 22.4648C11.2631 22.4553 11.2605 22.4542 11.492 22.3111C11.5893 22.2507 11.5894 22.2507 11.4026 22.1904C11.3315 22.1679 11.2631 22.1431 11.1868 22.1218C11.1526 22.1123 11.1079 22.1064 11.0711 22.1088C10.8527 22.123 10.637 22.1395 10.4212 22.1561C10.074 22.1821 10.0739 22.1821 9.72137 22.0615C9.69242 22.052 9.6477 22.0343 9.65296 22.0248C9.6819 21.9811 9.75293 21.9621 9.84238 21.9574C9.97393 21.9503 10.1028 21.9385 10.2318 21.929C10.3186 21.9231 10.4054 21.916 10.4922 21.9101C10.5738 21.8652 10.658 21.8214 10.7343 21.7753C10.8553 21.7043 10.8553 21.7019 10.6895 21.6523C10.5843 21.6191 10.4712 21.5896 10.3633 21.5588C10.2344 21.5683 10.1028 21.5789 9.97393 21.5872C9.81081 21.5978 9.74503 21.5754 9.70293 21.4985C9.6661 21.4311 9.71083 21.3731 9.83711 21.3589C9.96603 21.3447 10.0871 21.3353 10.1529 21.275C10.216 21.217 10.3265 21.1945 10.4633 21.1898C10.5501 21.1862 10.637 21.178 10.7238 21.1709C10.8369 21.1614 10.8974 21.1011 10.8738 21.0337C10.8606 20.9899 10.8343 20.9532 10.7317 20.9438C10.2765 20.9024 10.2712 20.9036 10.045 20.8231C10.0239 20.816 10.0082 20.7948 10.0161 20.7841C10.0292 20.7664 10.0582 20.7404 10.0897 20.7368C10.3923 20.7108 10.6948 20.6871 10.9974 20.6694C11.0974 20.6635 11.1711 20.6552 11.2053 20.6114C11.2526 20.5511 11.2316 20.4955 11.1395 20.4541C11.1105 20.4411 11.0631 20.4246 11.0316 20.4257C10.6843 20.447 10.3396 20.4742 9.99236 20.4955C9.96079 20.4979 9.90294 20.4778 9.88978 20.4624C9.86347 20.434 9.90291 20.3962 9.99499 20.3832C10.116 20.3654 10.2397 20.3642 10.3212 20.3051C10.4344 20.2211 10.5738 20.1443 10.7001 20.0638C10.7211 20.0496 10.7554 20.0224 10.7475 20.0201C10.6817 19.994 10.6054 19.9739 10.537 19.9491C10.4212 19.9077 10.4212 19.8497 10.4475 19.7942C10.4686 19.7492 10.5475 19.7315 10.6448 19.7315C10.6869 19.7315 10.7395 19.7315 10.7737 19.7208C10.8632 19.6948 10.8921 19.6617 10.8474 19.6368C10.8211 19.6226 10.7738 19.6026 10.7422 19.6049C10.1792 19.6439 9.61349 19.6818 9.05309 19.7303C8.88734 19.7445 8.8111 19.6995 8.71112 19.6676C8.63482 19.6428 8.56374 19.6333 8.46903 19.651C8.37958 19.6676 8.29279 19.6581 8.23753 19.6191C8.19281 19.5872 8.27172 19.56 8.48483 19.5292C8.52429 19.5233 8.569 19.5198 8.59794 19.5079C8.90313 19.3802 8.90312 19.379 9.1136 19.3624C9.31881 19.3471 9.31886 19.3459 9.42673 19.2773C9.47672 19.2454 9.53193 19.2134 9.57928 19.1803C9.5977 19.1673 9.62931 19.1436 9.61879 19.1365C9.56091 19.0999 9.48195 19.0916 9.38986 19.0999C9.18465 19.12 8.94264 19.1034 8.83477 19.2158C8.79267 19.2584 8.72689 19.2702 8.63218 19.2773C7.67977 19.3459 6.72734 19.4192 5.7723 19.4855C5.61707 19.4961 5.54608 19.5399 5.48557 19.5884C5.43295 19.6286 5.37505 19.6404 5.27508 19.6475C5.1751 19.6546 5.09613 19.6581 5.03825 19.6191C5.00405 19.5955 5.033 19.5623 5.11193 19.5292C5.22506 19.4819 5.204 19.4228 5.16717 19.3672C5.14086 19.3305 5.0593 19.3045 4.97248 19.3069C4.84356 19.3116 4.71994 19.3246 4.61207 19.2773C4.54893 19.2501 4.46998 19.2312 4.39895 19.2075C4.26214 19.159 4.12532 19.1093 3.93326 19.1413C3.80172 19.1294 3.70963 19.0869 3.6044 19.0538C3.42812 18.9993 3.41234 18.9911 3.53862 18.9331C3.68069 18.8681 3.57017 18.7829 3.6491 18.719C3.73329 18.6504 3.84909 18.5901 3.9517 18.5263C3.97801 18.5097 4.0017 18.4943 4.02801 18.4778C3.9675 18.4541 3.91226 18.4245 3.84122 18.408C3.74914 18.3867 3.70178 18.3607 3.70704 18.2873C3.68862 18.2767 3.69646 18.3039 3.71751 18.311C3.74119 18.3181 3.79911 18.3122 3.82805 18.3039C3.90172 18.2814 3.93851 18.2519 3.9201 18.227C3.90957 18.214 3.85962 18.1974 3.82805 18.1974C3.77017 18.1974 3.72019 18.2235 3.7044 18.2873C3.40974 18.3358 3.1045 18.3595 2.79931 18.3784C2.76774 18.3808 2.7283 18.3571 2.69146 18.3453C2.57044 18.3051 2.57042 18.3062 2.21524 18.2944C2.17841 18.2932 2.12845 18.2767 2.11003 18.2601C2.03373 18.188 2.03638 18.1087 1.99955 18.0319C2.06796 17.9822 2.13631 17.9337 2.20734 17.8852C2.34941 17.787 2.53362 17.7007 2.64412 17.5931C2.62044 17.5351 2.58887 17.4772 2.70463 17.4298C3.0335 17.3707 3.03089 17.3707 3.12034 17.3139C3.37554 17.1531 3.6281 16.991 3.89383 16.8325C3.96486 16.7911 3.96487 16.7687 3.83859 16.7509C3.79912 16.7462 3.75697 16.745 3.71487 16.7474C3.58333 16.7557 3.45178 16.777 3.32287 16.7722C3.19395 16.7687 3.09923 16.7166 2.994 16.6847C2.88613 16.6516 2.77826 16.6173 2.67039 16.583C2.54674 16.5865 2.42311 16.6197 2.29945 16.5664C2.20474 16.525 2.08635 16.4955 1.97848 16.4612C2.06004 16.3713 2.21266 16.3027 2.33105 16.2234C2.43892 16.1513 2.4415 16.1525 2.7309 16.0969C2.86771 16.0709 2.91507 15.9372 2.79931 15.8982C2.65987 15.8509 2.51256 15.8071 2.37049 15.7622C2.24684 15.7657 2.12058 15.7976 2.00218 15.7444C1.9101 15.7042 1.80484 15.677 1.65225 15.6924C1.39441 15.7184 1.13133 15.7314 0.870861 15.7527C0.781409 15.7598 0.684035 15.7551 0.644571 15.7149C0.618262 15.6865 0.694564 15.6474 0.781386 15.6392C0.912934 15.6273 1.03131 15.6131 1.09709 15.554C1.16023 15.4949 1.27598 15.4771 1.41279 15.4688C1.44962 15.4665 1.49175 15.4523 1.51017 15.4381C1.60488 15.3695 1.71013 15.3104 1.91271 15.3127C1.9969 15.2891 2.0416 15.2595 2.01529 15.2311C1.9995 15.2157 1.94428 15.1956 1.91271 15.198C1.69434 15.2098 1.47598 15.2216 1.26287 15.2429C1.16289 15.2524 1.08656 15.2548 1.02341 15.2193C0.978687 15.1956 1.00236 15.1637 1.08655 15.1294C1.16022 15.0998 1.18129 15.0655 1.17603 15.0253C1.16287 14.9319 1.08393 14.9047 0.831359 14.9106C0.649823 14.9153 0.605094 14.8999 0.56563 14.8195C0.555106 14.8006 0.528842 14.7746 0.547259 14.7615C0.66039 14.6811 0.734062 14.5818 0.947169 14.5439C1.03136 14.5297 1.12078 14.5297 1.1734 14.499C1.22601 14.4682 1.27339 14.4327 1.32865 14.4032C1.39705 14.3677 1.44436 14.3346 1.41279 14.3121C1.36017 14.2719 1.27601 14.2684 1.17866 14.2825C1.09447 14.2944 1.00502 14.2955 0.918201 14.3026C0.762974 14.3157 0.636717 14.2849 0.6183 14.2329C0.568312 14.0957 0.515677 13.9597 0.470951 13.8225C0.465689 13.8059 0.478808 13.7846 0.499856 13.7704C0.573522 13.7207 0.652482 13.6734 0.72878 13.6249C0.818232 13.5693 0.960327 13.58 1.08135 13.5693C1.25236 13.554 1.2523 13.5551 1.4812 13.4416C1.57065 13.3967 1.72588 13.4144 1.81797 13.3742C1.84691 13.3612 1.89163 13.3399 1.88374 13.3281C1.87322 13.3127 1.82063 13.3009 1.78116 13.2938C1.74433 13.2867 1.69961 13.2831 1.66015 13.2867C1.18131 13.321 0.705124 13.3576 0.22629 13.3907C0.144731 13.3967 0.0552757 13.3706 0.0263352 13.334C-0.00260526 13.2997 0.00526191 13.2583 0 13.2192C0.0762977 13.1707 0.163086 13.1258 0.22886 13.0738C0.278848 13.0336 0.336739 13.0158 0.436715 13.0134C0.568263 13.0099 0.697193 12.9957 0.844526 12.9851C1.11815 12.8124 1.38648 12.6314 1.68115 12.4587C1.79954 12.389 1.77065 12.318 1.79433 12.2435C1.81801 12.1749 1.99427 12.1855 2.11266 12.1654C2.20738 12.1489 2.23891 12.111 2.20208 12.085C2.18103 12.0696 2.1337 12.0519 2.09686 12.0519C2.01004 12.0519 1.92322 12.0625 1.8364 12.0684C1.74958 12.0743 1.64961 12.0708 1.57857 12.0909C1.51017 12.1098 1.46542 12.15 1.42069 12.1843C1.3707 12.2222 1.30497 12.2352 1.205 12.2376C1.07608 12.2399 0.947172 12.2506 0.818255 12.2588C0.676184 12.2127 0.528819 12.1678 0.39201 12.1193C0.3657 12.1098 0.36041 12.0826 0.363041 12.0649C0.368303 12.0188 0.328849 11.9904 0.242027 11.9679C0.168361 11.949 0.107843 11.9218 0.0394386 11.8981C0.0920577 11.8662 0.149959 11.8354 0.192055 11.8011C0.284138 11.729 0.399913 11.6769 0.599865 11.6793C0.678794 11.6332 0.741919 11.5764 0.844526 11.5445C0.941872 11.5137 1.10763 11.5445 1.1813 11.4747C1.21813 11.4404 1.27341 11.4014 1.34445 11.3872C1.45758 11.3647 1.60491 11.3765 1.67068 11.3103C1.71015 11.2724 1.768 11.2381 1.8443 11.2287C1.93112 11.218 2.02055 11.2157 2.0837 11.1932C2.1179 11.1814 2.15474 11.1624 2.15474 11.1459C2.15474 11.1352 2.10216 11.1187 2.06533 11.1116C2.03112 11.1033 1.98635 11.0974 1.94688 11.0998C1.81533 11.1069 1.68642 11.1199 1.55487 11.127C1.51804 11.1293 1.47596 11.1211 1.43649 11.114C1.32073 11.095 1.32861 11.0714 1.42069 11.0288C1.51277 10.9874 1.57858 10.9342 1.65488 10.8857C1.73907 10.8774 1.84429 10.8809 1.90218 10.8585C1.99952 10.8218 2.06791 10.7686 2.14684 10.7225C2.23366 10.7154 2.3231 10.713 2.40466 10.7C2.43887 10.6953 2.45467 10.6692 2.48361 10.6539C2.53623 10.6243 2.58099 10.5817 2.65202 10.5675C2.76778 10.5462 2.90985 10.5545 2.97826 10.4895C3.01772 10.4516 3.07821 10.4114 3.15188 10.409C3.35709 10.4043 3.44392 10.3392 3.54916 10.2777C3.62808 10.2316 3.79647 10.2553 3.88329 10.2091C3.94117 10.1796 3.98329 10.1429 4.04117 10.1145C4.06485 10.1027 4.11482 10.0968 4.15429 10.0932C4.37003 10.0755 4.58839 10.0625 4.80413 10.0436C4.83833 10.04 4.86993 10.0223 4.89624 10.0081C4.95149 9.97733 4.98565 9.93475 5.05405 9.91464C5.12246 9.89454 5.21979 9.89454 5.30398 9.88863C5.57497 9.87089 5.59604 9.87561 5.71969 9.77507C5.81967 9.69346 6.06438 9.75142 6.14594 9.66153C6.1933 9.60949 6.28008 9.56692 6.43531 9.561C6.65367 9.55272 6.86941 9.53025 7.08778 9.51487C7.28247 9.50068 7.27984 9.50068 7.49032 9.39068C7.58504 9.341 7.7245 9.34811 7.84816 9.33865C7.97971 9.32918 8.10072 9.315 8.16386 9.25586C8.227 9.1979 8.34275 9.17897 8.47693 9.17069C8.60058 9.16241 8.74005 9.16833 8.8374 9.12102C9.07419 9.00748 9.07156 9.00629 9.23731 8.99446C9.49778 8.97554 9.75823 8.95661 10.0187 8.93651C10.1923 8.9235 10.3739 8.92114 10.537 8.89511C10.6554 8.87619 10.708 8.80996 10.7843 8.76383C11 8.74609 11.2157 8.72834 11.4315 8.71178C11.734 8.68813 12.0392 8.66684 12.3444 8.64437C12.476 8.59943 12.4944 8.50008 12.7154 8.49534C12.847 8.49298 12.9759 8.47761 13.1074 8.46814C13.3258 8.45159 13.5415 8.43029 13.7599 8.42201C13.9257 8.4161 13.9546 8.35223 14.0414 8.31201C14.0703 8.29782 14.0966 8.27772 14.1308 8.27417C14.4729 8.24105 14.8254 8.23396 15.1595 8.18547C15.1937 8.18073 15.2253 8.15589 15.2332 8.13815C15.2385 8.12869 15.1937 8.11096 15.1648 8.10268C15.1306 8.09322 15.0859 8.08375 15.049 8.08612C13.9625 8.16536 12.8759 8.24579 11.7893 8.32504C11.6367 8.33686 11.6367 8.33567 11.2658 8.46578C11.2342 8.47642 11.1973 8.48824 11.1579 8.49179C10.9842 8.50599 10.8079 8.51428 10.6369 8.53202C10.4975 8.54621 10.3818 8.532 10.2818 8.48943C10.2108 8.45867 10.1371 8.44922 10.0476 8.45158C9.94762 8.45513 9.88189 8.46815 9.82401 8.50008C9.74771 8.54384 9.70823 8.60061 9.54775 8.61244C8.80845 8.66329 8.0691 8.72007 7.33244 8.77447C7.22983 8.75791 7.17985 8.73308 7.20616 8.70351C7.22194 8.68577 7.25353 8.66211 7.2851 8.65975C7.58766 8.63491 7.89284 8.61363 8.1954 8.58997C8.23749 8.58642 8.29537 8.58878 8.31905 8.57695C8.43481 8.52372 8.47695 8.43739 8.69532 8.43147C8.8216 8.42792 8.9505 8.41019 9.07153 8.39363C9.10573 8.3889 9.13731 8.36406 9.1452 8.34632C9.14783 8.33686 9.10573 8.31911 9.07416 8.31083C8.9584 8.27653 8.82425 8.31794 8.70849 8.29428C8.66902 8.286 8.61374 8.27417 8.60584 8.25998C8.60058 8.24697 8.64531 8.22568 8.67688 8.21267C8.70582 8.20084 8.74527 8.1902 8.78473 8.18665C9.13202 8.15945 9.47936 8.13106 9.82664 8.10977C9.96871 8.10149 10.0687 8.07192 10.1318 8.01751C10.1792 7.9773 10.237 7.95601 10.3265 7.9501C10.9342 7.90634 11.542 7.85785 12.1524 7.81763C12.305 7.80817 12.3839 7.76914 12.4471 7.71829C12.4971 7.67807 12.5549 7.66388 12.6523 7.65678C13.5231 7.59528 14.3887 7.52668 15.2595 7.46754C15.42 7.4569 15.4674 7.40604 15.549 7.36228C15.5779 7.3469 15.5963 7.32798 15.6331 7.31851C15.6699 7.30905 15.7173 7.31023 15.762 7.30786C16.4566 7.257 17.1512 7.2026 17.8484 7.15529C18.0115 7.14465 18.0431 7.08551 18.1273 7.04411C18.1562 7.0311 18.1825 7.00982 18.2167 7.00627C18.7377 6.96605 19.2586 6.92821 19.7795 6.88918C20.1268 6.86316 20.4741 6.83713 20.8213 6.81229C20.9924 6.80047 20.9924 6.79928 21.2239 6.68692C21.2502 6.67391 21.2871 6.65853 21.3213 6.65498C22.321 6.57928 23.3181 6.50715 24.3179 6.43264C24.4021 6.42672 24.4626 6.39951 24.5047 6.35929C24.5468 6.31908 24.6073 6.29188 24.6889 6.28596C25.4703 6.22683 26.2517 6.16887 27.0357 6.11329C27.1778 6.10382 27.2777 6.07544 27.3409 6.02221C27.3882 5.982 27.4461 5.96071 27.5355 5.9548C28.3169 5.89803 29.0984 5.8377 29.8824 5.78329C30.0324 5.77265 30.106 5.73244 30.1797 5.68513C30.206 5.66857 30.227 5.64137 30.2586 5.639C30.648 5.60588 31.0347 5.57158 31.4267 5.54911C31.5899 5.53965 31.6451 5.48997 31.7109 5.44266C31.7635 5.40481 31.8241 5.39181 31.924 5.38708C32.1424 5.37643 32.3581 5.35633 32.5712 5.33623C32.6028 5.33268 32.6423 5.30665 32.6449 5.2901C32.6502 5.25934 32.5896 5.23805 32.4897 5.22741C31.4478 5.30429 30.4033 5.38116 29.3615 5.45804C29.1905 5.47105 29.1905 5.47105 28.9589 5.58342C28.9326 5.59643 28.8958 5.6118 28.8589 5.61535C27.8592 5.68987 26.8621 5.7632 25.8623 5.83771C25.7781 5.84362 25.7176 5.87083 25.6755 5.91104C25.6334 5.95125 25.5729 5.97846 25.4913 5.98437C24.5363 6.05533 23.5812 6.12749 22.6236 6.1949C22.4815 6.20436 22.3816 6.23156 22.3184 6.28596C22.2711 6.32618 22.2132 6.34747 22.1237 6.35339C21.2108 6.41962 20.3004 6.4894 19.3849 6.55327C19.2928 6.55918 19.2244 6.52488 19.2297 6.49294C19.2323 6.47639 19.2717 6.44919 19.3033 6.44683C19.7795 6.4078 20.2531 6.36758 20.7319 6.33801C20.8924 6.32855 20.9397 6.27651 21.0213 6.23274C21.0476 6.21737 21.0687 6.19726 21.1029 6.18898C21.1397 6.17952 21.1871 6.18071 21.2318 6.17834C22.3605 6.09437 23.4892 6.00921 24.6205 5.92997C24.7836 5.91814 24.8151 5.86018 24.8993 5.81878C24.9283 5.80459 24.9546 5.78331 24.9888 5.78094C25.3361 5.75255 25.6834 5.72771 26.0307 5.70288C26.6384 5.65793 27.2461 5.61298 27.8565 5.56804C28.0328 5.55503 28.0328 5.55502 28.2591 5.44385C28.2854 5.43084 28.3222 5.41429 28.3564 5.41192C29.964 5.29247 31.5715 5.17301 33.179 5.05473C33.2632 5.04882 33.3237 5.02161 33.3658 4.9814C33.4079 4.94237 33.4684 4.91398 33.5499 4.90689C35.7231 4.74603 37.8937 4.58517 40.0668 4.42668C40.2089 4.41604 40.3088 4.3912 40.372 4.33561C40.4167 4.2954 40.4772 4.27411 40.5667 4.26702C42.9556 4.09079 45.3445 3.91456 47.736 3.73715C49.3435 3.61887 50.9511 3.49823 52.5586 3.38232C52.7059 3.37168 52.7848 3.335 52.8585 3.28651C52.8822 3.26995 52.9059 3.24275 52.9374 3.24038C53.2821 3.21081 53.6267 3.18361 53.9714 3.15641C54.0792 3.18835 54.1871 3.2191 54.295 3.25104C54.3765 3.20609 54.4555 3.15996 54.5371 3.11502C55.058 3.08072 55.571 3.02749 56.0972 3.01094C56.1314 3.00975 56.1682 3.03223 56.2051 3.04406C56.4497 3.11857 56.5892 3.11265 56.7444 3.0133C56.7997 2.97782 56.847 2.94589 56.9312 2.93997C57.1917 2.91868 57.4548 2.90449 57.7127 2.87965C57.8521 2.86664 57.9678 2.87847 58.0678 2.92105C58.1388 2.9518 58.2125 2.96481 58.2994 2.95772C58.7782 2.92224 59.2544 2.88793 59.7332 2.85008C59.7674 2.84772 59.7989 2.8276 59.8253 2.81341C59.8805 2.78266 59.9279 2.74955 59.9805 2.71762C60.0515 2.73772 60.1305 2.7531 60.1884 2.77912C60.262 2.80987 60.3304 2.80987 60.4304 2.80159C62.3405 2.65847 64.2532 2.51891 66.1632 2.37462C66.3264 2.36279 66.3974 2.41247 66.5079 2.43849C66.5447 2.44795 66.5816 2.45977 66.621 2.46214C66.6631 2.4645 66.7078 2.45741 66.7499 2.45387C68.1838 2.34742 69.6177 2.24215 71.0516 2.1357C71.241 2.1215 71.241 2.12151 71.5225 2.19484C71.5567 2.2043 71.6014 2.21494 71.6383 2.2114C72.2908 2.16527 72.9432 2.1156 73.5931 2.06829C73.6772 2.06237 73.7483 2.08129 73.8246 2.1085C73.9746 2.16172 73.985 2.16173 74.0955 2.08366C74.1482 2.047 74.2034 2.02452 74.2902 2.01387C74.385 2.00204 74.4613 2.0056 74.535 2.02689C74.6402 2.05646 74.7165 2.10613 74.877 2.09312C75.5716 2.03753 76.2688 1.99141 76.9607 1.93464C77.1186 1.92163 77.2028 1.96184 77.308 1.99141C77.3448 2.00205 77.379 2.01861 77.4185 2.02216C77.4579 2.02571 77.5053 2.01742 77.5474 2.01387C78.4156 1.95 79.2864 1.88733 80.152 1.81873C80.3151 1.80572 80.3862 1.85657 80.4967 1.88259C80.5335 1.89205 80.5756 1.90862 80.6098 1.90625C81.1307 1.86959 81.6543 1.83054 82.1753 1.79151C82.3621 1.77732 82.362 1.7785 82.6462 1.85065C82.6804 1.86011 82.7251 1.86958 82.762 1.86721C83.3697 1.82345 83.9801 1.7785 84.5878 1.73356C84.7746 1.71937 84.7746 1.71937 85.314 1.78087C85.3534 1.7856 85.3955 1.79271 85.435 1.79034C86.1296 1.73949 86.8267 1.6898 87.5213 1.6354C87.6608 1.62475 87.7766 1.63421 87.8765 1.67679C87.9476 1.70754 88.0212 1.72056 88.108 1.71346C88.8894 1.65551 89.6735 1.59992 90.4522 1.53842C90.6022 1.52659 90.6995 1.5526 90.8047 1.5869C90.8389 1.59873 90.8732 1.61529 90.9127 1.62002C90.9521 1.62475 90.9968 1.62002 91.0389 1.61647C91.8203 1.55851 92.6043 1.50411 93.3831 1.44142C93.541 1.42841 93.6252 1.46863 93.7304 1.49819C93.7672 1.50884 93.8067 1.53013 93.8382 1.52895C94.1434 1.50884 94.4486 1.49111 94.7512 1.46154C94.9143 1.44498 94.9853 1.49937 95.0959 1.5254C95.1327 1.53367 95.1748 1.55142 95.209 1.54906C95.8614 1.50293 96.514 1.45444 97.1638 1.40477C97.2559 1.39767 97.3243 1.40831 97.3979 1.43906C97.4953 1.48045 97.6084 1.49701 97.7505 1.484C98.0531 1.4568 98.3582 1.43788 98.6634 1.41541C98.8423 1.4024 98.8424 1.4024 99.3896 1.4639C99.4291 1.46864 99.4711 1.47573 99.5106 1.47336C100.032 1.43551 100.555 1.39885 101.073 1.35745C101.213 1.34563 101.329 1.35627 101.429 1.39885C101.5 1.4296 101.571 1.44262 101.66 1.43552C102.139 1.40004 102.615 1.36455 103.094 1.32907C103.268 1.31606 103.441 1.29358 103.615 1.29358C103.741 1.29476 103.833 1.35153 103.946 1.37992C103.978 1.3882 104.031 1.37875 104.073 1.37638C104.68 1.33144 105.291 1.29004 105.896 1.23918C106.054 1.22617 106.138 1.26638 106.243 1.29595C106.28 1.30659 106.32 1.32788 106.351 1.3267C106.569 1.31369 106.785 1.29595 107.004 1.28057C107.264 1.26165 107.527 1.24746 107.785 1.22143C107.995 1.20015 108.074 1.30304 108.243 1.30659C108.372 1.31014 108.503 1.29003 108.632 1.28057C108.893 1.26165 109.153 1.24036 109.413 1.2238C109.506 1.21789 109.577 1.19896 109.606 1.15638C109.611 1.1481 109.566 1.13036 109.537 1.11972C109.187 0.99908 109.187 0.999074 108.835 1.02509C108.616 1.04165 108.401 1.05821 108.182 1.07241C108.145 1.07477 108.103 1.06531 108.066 1.05821C107.961 1.03811 107.972 1.01446 108.061 0.971876C108.151 0.929297 108.219 0.877261 108.295 0.828768C108.403 0.85952 108.508 0.89026 108.616 0.921012C108.703 0.915098 108.79 0.908012 108.877 0.902098C109.311 0.871347 109.745 0.83941 110.179 0.811024C110.211 0.808659 110.25 0.832317 110.287 0.844145C110.392 0.878444 110.487 0.908005 110.64 0.894995C111.029 0.860695 111.421 0.835857 111.81 0.806289C111.981 0.793278 111.981 0.793279 112.281 0.86661C112.315 0.874889 112.36 0.884352 112.397 0.881986C112.789 0.854783 113.178 0.825218 113.57 0.796832C113.655 0.790918 113.736 0.806293 113.797 0.840593C113.82 0.854786 113.815 0.878436 113.915 1.07241C114.226 1.22971 114.439 1.21316 114.654 1.19897C114.746 1.19306 114.828 1.18714 114.889 1.16348C114.92 1.15047 114.96 1.13154 114.96 1.11617C114.96 1.10434 114.902 1.08541 114.865 1.08305C114.604 1.05939 114.357 1.10908 114.102 1.11972C113.983 1.12445 113.881 1.08305 113.86 1.01564C113.855 0.996714 113.847 0.976608 113.839 0.957684C113.831 0.93876 113.826 0.918654 113.818 0.89973C113.715 0.893817 113.655 0.915103 113.61 0.955316C113.573 0.988433 113.52 1.02628 113.449 1.04402C113.378 1.06295 113.281 1.0594 113.194 1.06532C113.11 1.07123 113.018 1.08661 112.939 1.07833C112.86 1.06886 112.797 1.03456 112.723 1.01327C112.689 1.00262 112.647 0.987255 112.613 0.989621C112.31 1.00973 112.01 1.02983 111.71 1.05585C111.553 1.07004 111.474 1.02037 111.374 0.989621C111.295 0.965966 111.216 0.971872 111.203 1.02628C111.168 1.15638 111.289 1.21078 111.558 1.18595C111.779 1.16466 111.979 1.16112 112.152 1.24155C112.176 1.25219 112.231 1.25692 112.265 1.25456C112.481 1.24036 112.694 1.22262 112.91 1.20843C112.949 1.20606 112.992 1.21078 113.028 1.21552C113.565 1.27938 113.565 1.28057 113.747 1.26638C113.834 1.25928 113.918 1.25337 113.91 1.07359C114.076 0.880803 114.339 0.867795 114.594 0.839409C114.76 0.821668 114.831 0.873711 114.938 0.900914C114.975 0.910376 115.015 0.929297 115.049 0.926931C115.615 0.887901 116.178 0.846499 116.741 0.802737C116.835 0.79564 116.904 0.802738 116.977 0.833489C117.072 0.87252 117.177 0.897363 117.327 0.88317C117.627 0.854784 117.933 0.837047 118.238 0.813392C118.393 0.801564 118.393 0.801552 118.706 0.874883C118.74 0.883162 118.785 0.892625 118.822 0.890259C119.127 0.870152 119.43 0.845322 119.732 0.824033C119.816 0.818119 119.893 0.834676 119.958 0.86661C120.024 0.898544 120.103 0.915101 120.185 0.909187C120.49 0.887898 120.792 0.86425 121.095 0.842961C121.132 0.840595 121.177 0.848874 121.211 0.857153C121.532 0.930484 121.532 0.930471 121.679 0.918644C121.895 0.900903 122.116 0.892633 122.329 0.868978C122.537 0.845323 122.645 0.913916 122.787 0.951764C123.176 0.924561 123.568 0.902095 123.955 0.868978C124.113 0.854785 124.197 0.893812 124.302 0.924563C124.339 0.935208 124.376 0.957683 124.41 0.9565C124.541 0.951769 124.67 0.938761 124.799 0.929299C124.928 0.919837 125.06 0.910376 125.189 0.900914C125.336 0.935214 125.433 1.01564 125.644 0.988437C125.77 0.971878 125.904 0.96833 126.033 0.958868C126.162 0.949406 126.294 0.939945 126.423 0.930483C126.509 0.924569 126.599 0.921016 126.683 0.910371C126.838 0.89263 126.915 0.950591 127.025 0.976612C127.062 0.984891 127.104 0.999075 127.138 0.996709C127.399 0.980151 127.662 0.965959 127.917 0.938756C128.114 0.917466 128.249 0.952954 128.388 1.00263C128.417 1.01327 128.467 1.01919 128.504 1.01682C128.809 0.996715 129.111 0.97187 129.414 0.950581C129.496 0.944667 129.575 0.96359 129.64 0.994342C129.709 1.02628 129.785 1.04166 129.869 1.03575C130.172 1.01446 130.477 0.990798 130.78 0.969509C130.816 0.967143 130.861 0.976607 130.895 0.986069C131.19 1.0594 131.19 1.06058 131.364 1.04639C131.406 1.04284 131.45 1.04047 131.493 1.03692C131.708 1.02036 131.932 1.01445 132.142 0.986069C132.384 0.954135 132.561 0.99435 132.732 1.06177C132.947 1.04757 133.168 1.03929 133.379 1.01564C133.537 0.997896 133.621 1.04284 133.726 1.07241C133.763 1.08305 133.802 1.10434 133.834 1.10198C134.139 1.08187 134.444 1.06413 134.744 1.03457C134.907 1.01801 134.978 1.07122 135.089 1.09842C135.126 1.10789 135.165 1.12445 135.199 1.12209C135.373 1.11263 135.547 1.09843 135.72 1.08542C135.923 1.07004 135.923 1.07122 136.191 1.14337C136.318 1.17767 136.444 1.15046 136.568 1.14219C136.699 1.13272 136.823 1.12563 136.928 1.17412C136.994 1.20487 137.073 1.2238 137.154 1.21907C137.328 1.20842 137.504 1.19778 137.675 1.18004C137.812 1.16585 137.93 1.17531 138.03 1.21907C138.101 1.24982 138.175 1.2652 138.262 1.25811C138.651 1.22972 139.043 1.20014 139.433 1.17294C139.467 1.17057 139.514 1.18122 139.546 1.19187C139.619 1.21316 139.691 1.23681 139.762 1.26046C139.933 1.24982 140.109 1.2451 140.277 1.22854C140.456 1.21198 140.619 1.20606 140.759 1.27112C140.788 1.28531 140.83 1.3054 140.864 1.30422C140.995 1.29949 141.124 1.28767 141.253 1.2782C141.382 1.26874 141.514 1.25928 141.643 1.24982C141.793 1.27939 141.887 1.36455 142.098 1.33734C142.224 1.32078 142.358 1.31724 142.487 1.30777C142.616 1.29831 142.748 1.28767 142.877 1.27939C142.919 1.27702 142.966 1.27111 143.003 1.27584C143.042 1.28057 143.077 1.29713 143.111 1.30896C143.216 1.34326 143.313 1.37756 143.463 1.35745C143.59 1.3409 143.724 1.33735 143.853 1.3267C144.029 1.31369 144.029 1.31369 144.321 1.38821C144.439 1.41896 144.574 1.37875 144.687 1.40477C144.763 1.42251 144.829 1.45207 144.902 1.47218C144.934 1.48046 144.984 1.484 145.021 1.48163C145.194 1.47099 145.371 1.46035 145.542 1.44261C145.681 1.42842 145.797 1.44261 145.894 1.48519C145.965 1.51594 146.036 1.52895 146.126 1.52186C146.56 1.48874 146.994 1.46035 147.426 1.42368C147.573 1.41067 147.691 1.43078 147.773 1.47336C147.912 1.54669 148.11 1.46035 148.254 1.51949C148.344 1.55616 148.433 1.59874 148.596 1.581C148.896 1.55024 149.201 1.53368 149.504 1.51239C149.612 1.54432 149.72 1.57626 149.83 1.6082C150.004 1.59519 150.178 1.58217 150.351 1.57034C150.48 1.56088 150.612 1.55023 150.741 1.54196C150.783 1.53959 150.827 1.53486 150.867 1.54077C150.906 1.54669 150.938 1.56206 150.975 1.57389C151.156 1.63185 151.156 1.63304 151.456 1.60938C151.585 1.59874 151.709 1.59164 151.817 1.63895C151.917 1.68271 152.035 1.69098 152.172 1.67797C152.43 1.65432 152.69 1.63658 152.953 1.62002C153.035 1.61411 153.111 1.63421 153.179 1.66497C153.282 1.71346 153.408 1.70873 153.537 1.69572C153.708 1.67916 153.877 1.66261 154.021 1.72884C154.05 1.74303 154.095 1.76313 154.127 1.76195C154.342 1.75248 154.561 1.74539 154.771 1.72292C154.982 1.70045 155.084 1.77378 155.229 1.80926C155.445 1.79388 155.663 1.7785 155.879 1.76313C155.921 1.75958 155.971 1.74894 156.008 1.75486C156.163 1.77969 156.252 1.8684 156.466 1.84119C156.589 1.82582 156.723 1.82109 156.852 1.81755C156.886 1.81636 156.931 1.83646 156.955 1.85184C156.968 1.86011 156.955 1.88258 156.939 1.89441C156.892 1.92753 156.834 1.95829 156.792 1.99259C156.786 1.99732 156.836 2.0186 156.865 2.02806C156.936 2.04935 157.018 2.04581 157.113 2.03635C157.194 2.02807 157.278 2.04463 157.336 2.08011C157.36 2.09431 157.352 2.11796 157.302 2.19602C157.302 2.25397 157.357 2.22795 157.376 2.1901C157.405 2.13569 157.349 2.11795 157.244 2.14752C157.171 2.16881 157.134 2.19957 157.152 2.2244C157.163 2.23741 157.213 2.25397 157.302 2.19602C157.534 2.12505 157.707 2.11205 157.881 2.09904C157.926 2.09549 157.978 2.08366 158.01 2.09075C158.123 2.11914 158.228 2.15344 158.339 2.18538C158.465 2.17828 158.583 2.16053 158.707 2.20666C158.881 2.27171 158.889 2.2658 159.057 2.25279C159.144 2.24569 159.231 2.23979 159.317 2.23388C159.404 2.22796 159.473 2.2457 159.549 2.2729C159.704 2.32849 159.717 2.32848 159.82 2.25279C159.88 2.20666 159.923 2.19129 159.999 2.21258C160.251 2.28473 160.254 2.28945 160.47 2.26817C160.649 2.25042 160.817 2.24569 160.949 2.31311C161.038 2.36042 161.067 2.34978 161.138 2.3001C161.328 2.16882 161.414 2.17118 161.769 2.2658C161.935 2.31074 162.106 2.26225 162.275 2.25634C162.417 2.25161 162.517 2.27999 162.527 2.3545C162.535 2.40063 162.559 2.43375 162.654 2.44913C162.69 2.45504 162.735 2.46332 162.772 2.46095C162.99 2.44676 163.206 2.4302 163.424 2.41364C163.535 2.40536 163.595 2.34978 163.574 2.27645C163.551 2.19839 163.593 2.16999 163.751 2.14752C163.845 2.13451 163.922 2.13689 163.998 2.15818C164.082 2.18183 164.058 2.20312 163.985 2.2457C163.809 2.34978 163.83 2.41364 164.056 2.48579C164.135 2.51063 164.198 2.53311 164.216 2.56977C164.227 2.5887 164.216 2.61353 164.24 2.62773C164.369 2.70697 164.548 2.75783 164.748 2.79568C164.94 2.76375 165.071 2.81696 165.219 2.85954C165.334 2.89266 165.471 2.86428 165.595 2.85245C165.734 2.83944 165.85 2.8489 165.95 2.89266C166.021 2.92341 166.095 2.9376 166.182 2.93169C166.355 2.91868 166.532 2.9104 166.703 2.89148C166.85 2.87492 166.96 2.89858 167.052 2.93879C167.168 2.98965 167.297 2.95534 167.418 2.96244C167.581 2.97072 167.663 3.07598 167.876 3.04759C168.002 3.03103 168.134 3.02512 168.265 3.02039C168.3 3.01921 168.342 3.03932 168.371 3.05351C168.51 3.11856 168.673 3.11501 168.852 3.09609C168.976 3.08308 169.097 3.07126 169.218 3.1162C169.418 3.1919 169.639 3.25814 169.849 3.32792C169.878 3.38233 169.857 3.44618 170.007 3.47812C170.086 3.49467 170.16 3.51952 170.22 3.54672C170.294 3.57866 170.362 3.58694 170.457 3.57866C170.628 3.5621 170.807 3.55854 170.975 3.53725C171.13 3.51833 171.228 3.55737 171.322 3.59404C171.399 3.62361 171.47 3.63779 171.562 3.6165C171.657 3.5964 171.725 3.6094 171.801 3.64134C171.909 3.6851 171.917 3.68037 172.275 3.69338C172.312 3.69457 172.356 3.7123 172.378 3.72767C172.388 3.73595 172.364 3.75962 172.346 3.77145C172.322 3.78564 172.285 3.80219 172.251 3.80574C171.862 3.83649 171.47 3.86369 171.08 3.89445C171.041 3.89799 170.999 3.90628 170.97 3.91811C170.938 3.93112 170.899 3.94885 170.899 3.96541C170.899 3.97724 170.952 3.99143 170.988 3.99971C171.104 4.02692 171.241 3.98552 171.354 4.01627C171.43 4.03638 171.494 4.06476 171.57 4.08368C171.601 4.09196 171.651 4.09078 171.691 4.08842C171.822 4.08014 171.951 4.06831 172.083 4.06122C172.12 4.06004 172.162 4.07187 172.196 4.08133C172.449 4.15229 172.449 4.15229 172.667 4.13692C172.754 4.131 172.846 4.11326 172.927 4.12036C173.006 4.12745 173.075 4.15939 173.146 4.17949C173.293 4.22207 173.433 4.26347 173.443 4.35572C173.448 4.3912 173.535 4.42195 173.622 4.42432C173.706 4.42668 173.796 4.41368 173.882 4.40659C174.088 4.39239 174.088 4.39239 174.353 4.46454C174.427 4.48465 174.506 4.48701 174.601 4.47518C174.637 4.47045 174.682 4.47519 174.722 4.4811C174.851 4.49884 174.851 4.52131 174.766 4.56389C174.648 4.62657 174.659 4.63249 174.99 4.68571C175.116 4.70582 175.214 4.74367 175.319 4.77679C175.49 4.83001 175.487 4.83 175.374 4.89978C175.348 4.91516 175.324 4.93172 175.298 4.94828C175.222 4.99441 175.161 5.04408 175.003 5.04881C174.83 5.05354 174.656 5.07247 174.482 5.08548C174.314 5.09849 174.269 5.12687 174.285 5.2073C174.303 5.30428 174.338 5.31493 174.64 5.31375C174.727 5.31375 174.803 5.32321 174.869 5.35514C174.837 5.39299 174.78 5.42256 174.695 5.42965C174.48 5.44739 174.261 5.46277 174.046 5.47815C173.872 5.49116 173.698 5.50416 173.525 5.51718C173.417 5.52545 173.348 5.58696 173.377 5.65556C173.393 5.69459 173.406 5.73362 173.419 5.77265C173.448 5.85071 173.504 5.87083 173.68 5.86728C173.725 5.8661 173.767 5.85663 173.809 5.85899C173.98 5.86727 174.061 5.96544 174.267 5.94533C174.438 5.92877 174.616 5.92523 174.785 5.90394C174.94 5.88501 175.027 5.9276 175.135 5.95954C175.172 5.97018 175.211 5.99264 175.243 5.99146C175.461 5.97845 175.679 5.96545 175.892 5.94298C175.992 5.93351 176.053 5.94061 176.132 5.96899C176.321 6.03759 176.327 6.03404 176.608 6.01275C176.813 5.9962 176.816 5.99856 177.079 6.07071C177.153 6.09082 177.232 6.09081 177.326 6.08135C177.45 6.06952 177.579 6.0506 177.708 6.06834C177.747 6.07307 177.797 6.08727 177.81 6.10264C177.818 6.11329 177.782 6.13931 177.75 6.14759C177.518 6.20909 177.247 6.19845 176.995 6.22329C176.916 6.23038 176.837 6.20791 176.771 6.17597C176.703 6.14404 176.629 6.13104 176.54 6.13695C176.366 6.14996 176.19 6.15823 176.019 6.17716C175.871 6.19372 175.769 6.16651 175.666 6.12985C175.632 6.11802 175.593 6.09554 175.558 6.09673C175.169 6.12038 174.777 6.14404 174.39 6.17716C174.235 6.19135 174.146 6.15351 174.04 6.12157C174.003 6.11093 173.967 6.08845 173.932 6.08964C173.801 6.09437 173.672 6.10738 173.54 6.11684C173.062 6.15232 172.585 6.1878 172.107 6.22092C172.075 6.22329 172.036 6.19844 171.999 6.1878C171.928 6.16651 171.854 6.1464 171.78 6.12629C171.649 6.13576 171.52 6.14758 171.388 6.15468C171.294 6.15941 171.209 6.17598 171.196 6.22092C171.188 6.25049 171.275 6.27769 171.367 6.27532C171.457 6.27296 171.546 6.25876 171.62 6.27414C171.986 6.34983 171.986 6.35102 172.214 6.33564C172.414 6.32145 172.393 6.30962 172.57 6.37467C172.646 6.40305 172.714 6.41962 172.801 6.41252C173.017 6.39597 173.235 6.3794 173.454 6.36521C173.488 6.36285 173.533 6.37468 173.567 6.38414C173.825 6.4551 173.825 6.45747 174.038 6.43973C174.317 6.41844 174.327 6.41252 174.514 6.48467C174.643 6.53435 174.761 6.50004 174.885 6.49768C175.027 6.54381 175.182 6.58521 175.311 6.63725C175.464 6.69875 175.624 6.6881 175.798 6.67036C175.927 6.65735 176.053 6.65262 176.158 6.70111C176.258 6.74605 176.379 6.75079 176.516 6.73897C176.64 6.72832 176.766 6.70584 176.895 6.73186C176.929 6.73896 176.982 6.7567 176.979 6.76735C176.976 6.78391 176.942 6.80757 176.908 6.81466C176.666 6.86316 176.4 6.86197 176.145 6.88444C176.111 6.88799 176.066 6.87497 176.032 6.86551C175.958 6.84422 175.887 6.81939 175.816 6.79692C175.687 6.80401 175.556 6.80637 175.429 6.82057C175.332 6.83121 175.258 6.83004 175.187 6.80165C175.122 6.77563 175.051 6.74369 174.972 6.73541C174.893 6.72713 174.801 6.74488 174.714 6.75197C174.627 6.75907 174.527 6.75551 174.459 6.77444C174.39 6.79336 174.348 6.83476 174.303 6.86788C174.253 6.90455 174.185 6.91638 174.085 6.91993C173.993 6.92348 173.919 6.91874 173.851 6.88562C173.822 6.87143 173.782 6.86078 173.743 6.85132C173.706 6.84304 173.664 6.83003 173.63 6.83239C173.238 6.8596 172.848 6.88918 172.456 6.91756C172.262 6.93175 172.264 6.93174 171.859 6.86196C171.822 6.85605 171.778 6.84777 171.741 6.85014C171.522 6.86433 171.307 6.88089 171.088 6.89745C170.867 6.91401 170.87 6.91164 170.494 6.83713C170.425 6.82293 170.325 6.84186 170.244 6.8395C170.073 6.83358 169.989 6.73423 169.789 6.75316C169.618 6.76972 169.439 6.77326 169.268 6.79455C169.112 6.81347 169.023 6.77208 168.918 6.74015C168.881 6.7295 168.841 6.70585 168.81 6.70821C168.418 6.73423 168.029 6.7638 167.508 6.76735C167.379 6.76735 167.437 6.79219 167.521 6.80047C167.642 6.81348 167.681 6.78864 167.616 6.74133C167.568 6.70822 167.5 6.69165 167.444 6.69992C167.416 6.70466 167.379 6.72714 167.508 6.76735C167.644 6.81229 167.637 6.83713 167.66 6.85132C167.718 6.88562 167.8 6.89981 167.884 6.89508C168.015 6.8868 168.144 6.87498 168.276 6.86788C168.313 6.86551 168.357 6.87379 168.392 6.88326C168.681 6.95659 168.684 6.96132 168.992 6.93294C169.089 6.92466 169.16 6.92466 169.236 6.94713C169.341 6.97788 169.418 7.02991 169.578 7.01336C169.791 6.99088 170.01 6.97788 170.228 6.96487C170.262 6.96251 170.299 6.9838 170.339 6.99326C170.446 7.02164 170.525 7.07487 170.686 7.0524C170.809 7.03466 170.944 7.02991 171.075 7.02636C171.109 7.02518 171.162 7.04411 171.178 7.05949C171.209 7.08669 171.17 7.11863 171.08 7.1411C171.044 7.15056 170.994 7.1482 170.952 7.15174C170.778 7.16475 170.604 7.17894 170.431 7.18958C170.339 7.1955 170.252 7.21325 170.241 7.25701C170.233 7.28658 170.328 7.31259 170.417 7.31023C170.549 7.30668 170.681 7.29722 170.807 7.28184C171.03 7.25582 171.225 7.26292 171.407 7.33743C171.536 7.38947 171.528 7.37056 171.665 7.52431C171.699 7.56334 171.801 7.56689 171.891 7.56452C172.107 7.55861 172.207 7.57635 172.188 7.61302C172.164 7.65796 172.088 7.67215 171.991 7.67806C171.817 7.68752 171.643 7.70291 171.47 7.71592C171.428 7.71947 171.38 7.72656 171.341 7.72419C171.301 7.72182 171.265 7.70763 171.23 7.69699C171.157 7.67452 171.094 7.64021 171.015 7.63193C170.936 7.62365 170.844 7.6414 170.757 7.64849C170.67 7.65441 170.578 7.67215 170.499 7.66387C170.42 7.65559 170.354 7.62012 170.283 7.59883C170.249 7.58818 170.207 7.57161 170.173 7.57279C169.999 7.58226 169.826 7.59764 169.652 7.60947C169.439 7.62484 169.439 7.62484 169.181 7.55151C169.107 7.53022 169.031 7.53141 168.934 7.54087C168.723 7.5598 168.721 7.55624 168.336 7.48764C168.3 7.48054 168.255 7.47227 168.218 7.47582C167.826 7.50302 167.437 7.53258 167.047 7.56097C166.713 7.58581 166.713 7.58582 166.529 7.70409C166.392 7.79162 166.389 7.79161 166.524 7.83182C166.632 7.86494 166.729 7.91343 166.847 7.93117C166.958 7.94773 167.095 7.89451 167.216 7.94892C167.276 7.97612 167.355 8.00569 167.431 8.01042C167.552 8.01633 167.681 7.98203 167.797 8.03407C167.855 8.06009 167.942 8.0873 168.015 8.08849C168.144 8.09085 168.276 8.07192 168.405 8.06364C168.444 8.06127 168.489 8.06128 168.526 8.06719C168.565 8.07429 168.599 8.08848 168.634 8.10031C168.739 8.14052 168.852 8.15944 168.989 8.13934C169.213 8.10622 169.412 8.12278 169.586 8.19847C169.61 8.20912 169.668 8.21031 169.704 8.20558C169.799 8.19375 169.881 8.19256 169.952 8.21503C169.981 8.2245 170.023 8.24105 170.018 8.25169C170.01 8.26943 169.978 8.29309 169.944 8.299C169.697 8.33922 169.431 8.34396 169.176 8.36525C169.141 8.36761 169.099 8.35223 169.065 8.34158C168.992 8.32029 168.928 8.28482 168.849 8.27654C168.771 8.26826 168.678 8.28363 168.592 8.28955C168.505 8.29546 168.413 8.3132 168.334 8.30611C168.255 8.29783 168.181 8.26826 168.118 8.24224C168.044 8.21267 167.973 8.20913 167.876 8.22095C167.75 8.23633 167.618 8.23869 167.489 8.24697C167.418 8.2245 167.347 8.19965 167.273 8.17836C167.239 8.16772 167.197 8.15471 167.16 8.1559C166.987 8.16536 166.813 8.17954 166.639 8.19255C166.466 8.20556 166.466 8.20558 166.171 8.13225C166.137 8.12397 166.092 8.11451 166.055 8.11687C165.837 8.13106 165.621 8.14879 165.403 8.16299C165.319 8.1689 165.242 8.15234 165.174 8.12041C165.108 8.08847 165.029 8.07073 164.948 8.07665C164.6 8.10149 164.253 8.12514 163.906 8.15471C163.766 8.16654 163.648 8.1559 163.553 8.11332C163.443 8.06483 163.319 8.07666 163.19 8.08612C162.898 8.10977 162.896 8.10858 162.709 8.04826C162.672 8.03643 162.635 8.01396 162.601 8.01514C162.298 8.03288 161.993 8.04945 161.693 8.07783C161.535 8.09321 161.451 8.05181 161.346 8.02106C161.309 8.01042 161.27 7.98794 161.238 7.99031C161.02 8.00332 160.801 8.01515 160.588 8.03881C160.375 8.06246 160.294 7.95247 160.133 7.95365C159.915 7.95483 159.699 7.98204 159.483 7.9986C159.31 8.01161 159.136 8.02461 158.962 8.03762C158.789 8.05063 158.615 8.06127 158.441 8.07665C158.349 8.08493 158.281 8.07428 158.205 8.04471C158.107 8.00568 157.991 7.97494 157.886 7.93946C157.726 7.8886 157.726 7.88859 157.531 7.90279C157.489 7.90633 157.444 7.9087 157.402 7.91224C157.084 7.93826 157.084 7.93591 156.679 7.86139C156.66 7.85784 156.613 7.87086 156.594 7.88032C156.539 7.91107 156.489 7.94418 156.439 7.97612C156.368 7.95719 156.281 7.94655 156.234 7.91935C156.1 7.84247 155.889 7.94773 155.753 7.87203C155.703 7.84365 155.616 7.81881 155.537 7.81171C155.455 7.80462 155.363 7.82118 155.279 7.82827C155.061 7.84601 155.061 7.84483 154.874 7.9501C154.779 8.00214 154.642 7.99267 154.519 8.0045C154.39 8.01751 154.266 8.02461 154.158 7.97612C154.061 7.93235 153.942 7.92171 153.803 7.93591C153.632 7.95365 153.456 7.96429 153.282 7.97493C153.245 7.9773 153.2 7.97139 153.164 7.96429C152.761 7.89451 152.761 7.89333 152.566 7.90871C152.48 7.9158 152.39 7.91816 152.306 7.9288C152.164 7.94773 152.056 7.92289 151.953 7.88504C151.919 7.87321 151.88 7.85075 151.846 7.85194C151.672 7.85785 151.501 7.86849 151.33 7.87914C151.198 7.88742 151.067 7.89215 150.94 7.90871C150.73 7.93591 150.627 7.85902 150.483 7.82354C150.267 7.83891 150.049 7.84956 149.833 7.87085C149.733 7.88031 149.667 7.87677 149.591 7.84838C149.494 7.8129 149.404 7.77269 149.246 7.79043C149.036 7.81409 148.815 7.82237 148.599 7.83656C148.454 7.79989 148.349 7.72537 148.141 7.75257C148.015 7.76913 147.881 7.77268 147.752 7.78214C147.578 7.79515 147.405 7.80699 147.231 7.82118C147.044 7.83538 147.047 7.83183 146.76 7.76205C146.594 7.72065 146.423 7.76677 146.255 7.77387C146.123 7.77978 146.057 7.83419 146.089 7.90397C146.121 7.97375 146.05 8.02816 145.929 8.03762C145.626 8.06009 145.321 8.08374 145.018 8.10385C144.981 8.10621 144.937 8.09794 144.902 8.08966C144.579 8.01514 144.579 8.01634 144.434 8.02698C144.218 8.04472 143.997 8.05418 143.784 8.07665C143.637 8.09202 143.529 8.06719 143.434 8.02698C143.361 7.99623 143.292 7.98913 143.198 7.99623C142.156 8.07547 141.114 8.1488 140.075 8.23041C139.919 8.24224 139.83 8.20794 139.725 8.17601C139.688 8.16536 139.654 8.14289 139.617 8.14289C139.53 8.14289 139.443 8.15354 139.356 8.16063C138.967 8.18902 138.578 8.22331 138.186 8.2446C138.02 8.25406 137.975 8.30848 137.904 8.35342C137.849 8.38772 137.786 8.40191 137.688 8.40664C137.594 8.41137 137.525 8.40545 137.452 8.3747C137.357 8.33449 137.249 8.30965 137.102 8.32621C136.931 8.34513 136.757 8.35342 136.581 8.36643C136.491 8.37234 136.423 8.39363 136.394 8.43621C136.389 8.4433 136.444 8.46105 136.476 8.4717C136.581 8.50718 136.681 8.54857 136.799 8.57341C136.92 8.59825 137.052 8.56985 137.178 8.56276C137.223 8.56039 137.265 8.5533 137.307 8.55448C137.346 8.55566 137.394 8.56158 137.423 8.57223C137.56 8.62545 137.704 8.66211 137.894 8.63018C138.057 8.64556 138.141 8.74372 138.349 8.7177C138.475 8.70233 138.607 8.69523 138.738 8.68932C138.772 8.68813 138.809 8.70943 138.846 8.72007C138.951 8.74964 139.035 8.79695 139.193 8.77684C139.362 8.75555 139.541 8.752 139.712 8.73545C139.806 8.72598 139.875 8.73426 139.948 8.76502C140.043 8.80405 140.151 8.83361 140.298 8.81468C140.425 8.79812 140.559 8.79457 140.688 8.78393C140.856 8.77092 140.856 8.7721 141.156 8.84543C141.19 8.85371 141.235 8.86318 141.272 8.86081C141.49 8.84662 141.706 8.82887 141.924 8.81468C142.008 8.80877 142.09 8.82414 142.148 8.85844C142.172 8.87264 142.164 8.8963 142.172 8.91641C141.737 8.94834 141.303 8.97554 140.872 9.01457C140.709 9.02995 140.635 8.98146 140.527 8.95425C140.49 8.94479 140.451 8.92469 140.417 8.92705C140.111 8.94716 139.809 8.96844 139.506 8.99446C139.412 9.00274 139.341 8.99801 139.27 8.96371C139.088 8.87264 138.867 8.92231 138.662 8.93532C138.504 8.94479 138.454 8.98146 138.472 9.05952C138.496 9.15177 138.591 9.18016 138.833 9.1636C138.92 9.15769 139.006 9.1494 139.093 9.14467C139.177 9.13994 139.254 9.15532 139.322 9.18725C139.388 9.21918 139.467 9.23574 139.548 9.23101C139.722 9.22037 139.898 9.20973 140.067 9.19199C140.206 9.17779 140.322 9.18962 140.419 9.23338C140.527 9.28187 140.654 9.27122 140.78 9.26058C141.074 9.23693 141.077 9.23812 141.261 9.29725C141.298 9.30908 141.335 9.33156 141.369 9.33037C141.672 9.31263 141.977 9.29725 142.274 9.26887C142.429 9.25467 142.519 9.29252 142.621 9.32327C142.658 9.33391 142.695 9.35757 142.729 9.35521C142.948 9.3422 143.166 9.32918 143.379 9.30671C143.479 9.29606 143.54 9.30316 143.621 9.33154C143.816 9.40132 143.821 9.39896 144.097 9.37649C144.182 9.36939 144.274 9.35638 144.353 9.36585C144.432 9.37531 144.495 9.40961 144.568 9.4309C144.603 9.44037 144.645 9.45337 144.681 9.451C144.855 9.44154 145.029 9.42735 145.202 9.41434C145.365 9.40133 145.366 9.40252 145.671 9.47585C145.794 9.5066 145.923 9.48058 146.047 9.47111C146.181 9.46047 146.302 9.46047 146.405 9.5066C146.507 9.55273 146.631 9.55035 146.763 9.54089C146.886 9.53143 147.012 9.50542 147.139 9.53735C147.428 9.61068 147.428 9.61185 147.607 9.59766C147.868 9.57755 148.125 9.55863 148.388 9.54089C148.423 9.53853 148.467 9.55273 148.502 9.56219C148.575 9.58348 148.638 9.61895 148.717 9.62723C148.796 9.63669 148.888 9.6225 148.973 9.61541C149.244 9.59293 149.262 9.58466 149.444 9.66272C149.596 9.72659 149.786 9.63433 149.928 9.70766C150.009 9.74906 150.12 9.78217 150.272 9.76206C150.399 9.74551 150.53 9.74077 150.662 9.73131C150.869 9.71594 150.869 9.71713 151.133 9.7881C151.167 9.79756 151.211 9.80938 151.246 9.80701C151.419 9.79755 151.596 9.78927 151.764 9.76798C151.961 9.74315 152.088 9.7881 152.235 9.83186C152.351 9.86616 152.488 9.83777 152.611 9.82594C152.745 9.81411 152.866 9.81765 152.966 9.86378C153.072 9.91109 153.195 9.90518 153.327 9.89572C153.45 9.88744 153.577 9.86023 153.703 9.89335C153.974 9.96668 153.974 9.96668 154.171 9.95249C154.345 9.93948 154.519 9.92529 154.692 9.91583C154.726 9.91346 154.769 9.92883 154.803 9.93948C154.876 9.96077 154.94 9.99626 155.018 10.0045C155.097 10.0128 155.189 9.99744 155.276 9.99153C155.363 9.98561 155.455 9.96787 155.534 9.97497C155.613 9.98206 155.687 10.0116 155.75 10.0377C155.824 10.0684 155.892 10.0719 155.992 10.0601C156.118 10.0447 156.25 10.0412 156.379 10.0329C156.45 10.0554 156.523 10.0779 156.592 10.1027C156.663 10.1287 156.739 10.1264 156.836 10.1181C157.16 10.0897 157.163 10.0932 157.434 10.1666C157.557 10.1997 157.686 10.1725 157.81 10.1642C157.942 10.1547 158.065 10.15 158.168 10.1973C158.268 10.2423 158.391 10.2482 158.523 10.234C158.607 10.2245 158.697 10.2186 158.783 10.2151C158.823 10.2139 158.87 10.2186 158.899 10.2281C159.039 10.2778 159.175 10.3227 159.367 10.2908C159.536 10.3002 159.62 10.3972 159.823 10.3783C159.994 10.3617 160.173 10.3582 160.341 10.3369C160.496 10.318 160.607 10.3511 160.686 10.3925C160.828 10.4658 161.028 10.3665 161.17 10.4386C161.251 10.48 161.356 10.5131 161.514 10.4954C161.688 10.4765 161.743 10.5013 161.793 10.5758C161.822 10.6184 161.817 10.6527 161.764 10.6858C161.712 10.7201 161.654 10.7142 161.57 10.6752C161.472 10.6314 161.356 10.6231 161.217 10.6326C161.08 10.642 160.996 10.5805 160.883 10.5569C160.77 10.532 160.636 10.5734 160.517 10.5415C160.238 10.467 160.238 10.467 160.049 10.4812C159.92 10.4906 159.786 10.4954 159.66 10.5119C159.51 10.532 159.412 10.4954 159.31 10.4623C159.273 10.4504 159.236 10.428 159.204 10.4291C158.902 10.4469 158.597 10.4634 158.297 10.493C158.139 10.5084 158.055 10.4658 157.949 10.4362C157.913 10.4256 157.873 10.4043 157.841 10.4067C157.581 10.4232 157.323 10.4445 157.063 10.4646C157.013 10.4966 156.957 10.5273 156.91 10.5616C156.86 10.5971 156.792 10.6125 156.692 10.6113C156.526 10.6113 156.363 10.661 156.197 10.5983C156.026 10.5344 156.013 10.538 155.847 10.5533C155.637 10.5734 155.413 10.5687 155.216 10.6148C155.182 10.6231 155.145 10.6456 155.145 10.6621C155.142 10.6728 155.197 10.6882 155.232 10.6976C155.347 10.726 155.482 10.6846 155.597 10.7142C155.674 10.7331 155.737 10.7615 155.813 10.7816C155.845 10.7899 155.892 10.7887 155.934 10.7875C155.979 10.7863 156.021 10.7781 156.063 10.7792C156.102 10.7804 156.145 10.7875 156.176 10.7982C156.321 10.8431 156.473 10.8845 156.602 10.9377C156.729 10.9898 156.847 10.9543 156.973 10.9519C157.478 11.0347 157.478 11.0359 157.818 11.0099C157.902 11.004 157.989 10.9969 158.076 10.998C158.113 10.998 158.147 11.0193 158.184 11.0312C158.289 11.0666 158.389 11.0986 158.536 11.0796C158.662 11.0631 158.797 11.0595 158.925 11.0489C159.099 11.0359 159.099 11.0359 159.394 11.1104C159.467 11.1293 159.546 11.127 159.641 11.1175C159.723 11.1092 159.807 11.127 159.865 11.1613C159.888 11.1755 159.88 11.1991 159.888 11.2192C159.628 11.2381 159.365 11.2512 159.112 11.2795C158.949 11.2973 158.875 11.2464 158.768 11.2192C158.731 11.2098 158.691 11.1897 158.657 11.192C158.399 11.2098 158.141 11.2299 157.884 11.2535C157.852 11.2559 157.813 11.2831 157.81 11.2996C157.805 11.3304 157.87 11.36 157.965 11.3588C158.091 11.3576 158.215 11.3375 158.328 11.386C158.423 11.4286 158.541 11.4475 158.681 11.4286C158.765 11.4179 158.854 11.4179 158.939 11.4085C159.162 11.3801 159.365 11.386 159.533 11.4664C159.662 11.4877 159.788 11.4676 159.912 11.457C160.004 11.4487 160.094 11.4404 160.159 11.4629C160.299 11.5102 160.436 11.5575 160.628 11.5255C160.836 11.5587 160.993 11.6284 161.167 11.6852C161.249 11.7124 161.312 11.7278 161.406 11.7101C161.446 11.703 161.493 11.703 161.535 11.6994C161.622 11.6935 161.714 11.6758 161.793 11.6828C161.872 11.6911 161.938 11.7254 162.009 11.7467C162.043 11.7574 162.083 11.7751 162.117 11.7739C162.248 11.768 162.377 11.7562 162.506 11.7467C162.635 11.7384 162.764 11.7302 162.893 11.7219C163.001 11.7526 163.111 11.7834 163.219 11.8141C163.393 11.8011 163.566 11.7881 163.737 11.7763C163.93 11.7621 163.93 11.7633 164.206 11.8366C164.329 11.8697 164.461 11.8484 164.579 11.8331C164.777 11.8082 164.908 11.8532 165.048 11.9005C165.077 11.9099 165.129 11.9159 165.163 11.9111C165.3 11.8946 165.419 11.9076 165.519 11.9513C165.59 11.9821 165.661 11.9963 165.748 11.9904C166.05 11.9679 166.353 11.9442 166.655 11.9241C166.692 11.9218 166.734 11.9324 166.768 11.9419C167.037 12.014 167.039 12.0176 167.237 11.9986C167.413 11.9821 167.576 11.975 167.715 12.04C167.744 12.0542 167.789 12.0743 167.821 12.0732C168.036 12.0613 168.255 12.0483 168.468 12.0282C168.565 12.0188 168.634 12.0223 168.71 12.0495C168.807 12.0838 168.894 12.1252 169.055 12.1098C169.499 12.0661 169.502 12.0732 170.028 12.1548C170.065 12.1607 170.115 12.1512 170.157 12.1465C170.246 12.1347 170.312 12.1512 170.391 12.1784C170.567 12.2399 170.573 12.2364 170.741 12.2234C170.87 12.2127 171.004 12.2104 171.13 12.1926C171.325 12.1666 171.454 12.2127 171.599 12.2565C171.715 12.2908 171.849 12.2624 171.972 12.2518C172.107 12.2399 172.228 12.2435 172.328 12.2884C172.396 12.3192 172.47 12.3357 172.556 12.3298C172.859 12.3085 173.162 12.2849 173.464 12.2636C173.501 12.2612 173.546 12.2707 173.58 12.279C173.88 12.3523 173.88 12.3558 174.177 12.3286C174.272 12.3204 174.351 12.318 174.422 12.3428C174.49 12.3665 174.564 12.389 174.635 12.4114C174.764 12.4031 174.895 12.4008 175.022 12.3866C175.119 12.3759 175.187 12.3807 175.264 12.4055C175.364 12.4375 175.448 12.493 175.606 12.4658C175.687 12.4528 175.782 12.4564 175.864 12.4445C175.961 12.4292 176.027 12.4386 176.103 12.4694C176.198 12.506 176.295 12.5439 176.448 12.525C176.616 12.5037 176.795 12.5001 176.966 12.4836C177.061 12.4741 177.126 12.4836 177.203 12.5143C177.297 12.5534 177.405 12.5782 177.553 12.5628C177.853 12.5333 177.855 12.5392 178.147 12.6137C178.221 12.6326 178.3 12.6302 178.395 12.6208C178.476 12.6125 178.56 12.6302 178.618 12.6645C178.673 12.7024 178.668 12.726 178.673 12.7461ZM155.229 2.07893C155.142 2.08484 155.055 2.09194 154.929 1.98904C154.921 1.9713 154.926 1.95001 154.908 1.93464C154.866 1.9027 154.8 1.88023 154.721 1.87668C154.579 1.87195 154.408 1.91216 154.411 1.94291C154.413 1.96893 154.458 1.9914 154.545 2.01269C154.582 2.02097 154.611 2.03516 154.645 2.04462C154.745 2.07183 154.824 2.12506 154.969 2.09786C154.955 2.06119 154.942 2.02453 154.969 2.09786C154.955 2.1428 154.995 2.17474 155.09 2.18775C155.116 2.19129 155.155 2.18892 155.176 2.18183C155.258 2.15581 155.271 2.12033 155.211 2.02689C155.2 2.04227 155.208 2.06946 155.232 2.07656C155.255 2.08366 155.313 2.07775 155.342 2.06947C155.416 2.047 155.453 2.01743 155.434 1.99259C155.424 1.97958 155.374 1.96302 155.342 1.96302C155.287 1.96302 155.237 1.98904 155.229 2.07893ZM176.503 15.7953C176.311 15.8177 176.09 15.8095 175.898 15.8556C175.864 15.8639 175.829 15.8852 175.827 15.9017C175.824 15.9124 175.877 15.9277 175.908 15.936C175.979 15.955 176.058 15.949 176.15 15.9431C176.29 15.9348 176.371 15.9892 176.479 16.0164C176.513 16.0247 176.558 16.0306 176.595 16.0283C176.808 16.0141 177.019 15.9987 177.232 15.9822C177.268 15.9786 177.308 15.9703 177.34 15.9597C177.445 15.9254 177.434 15.9029 177.332 15.8769C177.218 15.8485 177.129 15.8012 177.013 15.7787C176.848 15.7468 176.679 15.7894 176.503 15.7953ZM161.562 16.6587C161.433 16.6681 161.306 16.6776 161.178 16.6871C161.135 16.6906 161.091 16.6918 161.051 16.6965C160.97 16.7048 160.909 16.7296 160.87 16.7687C160.93 16.7994 161.004 16.8172 161.085 16.8136C161.214 16.8065 161.341 16.7911 161.47 16.7876C161.609 16.7829 161.691 16.8361 161.798 16.8633C161.833 16.8716 161.875 16.8728 161.914 16.8739C162.109 16.8787 162.227 16.8172 162.19 16.7308C162.164 16.6634 162.064 16.6232 161.943 16.6315C161.817 16.6398 161.688 16.6492 161.562 16.6587ZM177.403 14.0472C177.434 14.0271 177.468 14.0129 177.484 13.9951C177.532 13.9348 177.513 13.8899 177.426 13.8426C177.321 13.7846 177.192 13.8236 177.074 13.8295C177.045 13.8307 177.013 13.8556 176.997 13.8709C176.987 13.8816 176.987 13.9041 177.003 13.91C177.132 13.9573 177.268 14.001 177.403 14.0472ZM154.579 10.5533C154.453 10.5628 154.324 10.5699 154.198 10.5829C154.166 10.5864 154.137 10.6089 154.119 10.6243C154.085 10.6527 154.121 10.6917 154.229 10.6953C154.353 10.7 154.482 10.6799 154.611 10.6704C154.774 10.6586 154.871 10.6148 154.811 10.577C154.753 10.5403 154.674 10.5332 154.579 10.5533ZM16.0883 8.0258C16.1725 8.01988 16.2593 8.01515 16.3435 8.00687C16.4224 7.99859 16.4829 7.97257 16.5224 7.93354C16.4566 7.90279 16.3829 7.88623 16.3014 7.88978C16.1725 7.89687 16.0462 7.90634 15.9199 7.91816C15.841 7.92526 15.7647 7.95128 15.7463 7.99149C15.7279 8.02224 15.9041 8.03999 16.0883 8.0258ZM143.453 7.84365C143.487 7.85429 143.521 7.87559 143.555 7.87559C143.64 7.87559 143.726 7.86849 143.805 7.85666C143.84 7.85193 143.866 7.83064 143.882 7.81408C143.892 7.80344 143.89 7.78452 143.874 7.77505C143.797 7.71828 143.492 7.73839 143.442 7.80344C143.437 7.81527 143.45 7.83064 143.453 7.84365ZM135.152 1.36691C135.16 1.38583 135.163 1.40476 135.173 1.42368C135.194 1.45916 135.252 1.48519 135.336 1.50293C135.402 1.47336 135.436 1.44025 135.434 1.40477C135.431 1.38584 135.423 1.36691 135.413 1.34798C135.392 1.3125 135.334 1.28649 135.25 1.26875C135.184 1.29713 135.152 1.33025 135.152 1.36691ZM183.483 16.8645C183.459 16.8799 183.435 16.8952 183.409 16.9094C183.48 16.9437 183.546 16.9544 183.596 16.9354C183.628 16.9236 183.646 16.9059 183.67 16.8905C183.599 16.8562 183.535 16.8467 183.483 16.8645ZM181.846 17.0253C181.881 17.036 181.912 17.0502 181.949 17.0573C182.009 17.0691 182.065 17.049 182.107 17.0064C182.073 16.9958 182.041 16.9816 182.004 16.9745C181.944 16.9626 181.888 16.9828 181.846 17.0253ZM182.883 16.8089C182.864 16.8373 182.901 16.8609 182.999 16.881C183.022 16.8657 183.054 16.8515 183.07 16.8349C183.096 16.8077 183.051 16.7829 182.957 16.764C182.93 16.7781 182.907 16.7935 182.883 16.8089ZM177.329 15.5339C177.311 15.5623 177.347 15.5859 177.445 15.606C177.468 15.5907 177.5 15.5765 177.516 15.5599C177.542 15.5327 177.497 15.5079 177.403 15.4889C177.376 15.5031 177.353 15.5185 177.329 15.5339ZM169.762 7.16475C169.739 7.18013 169.715 7.1955 169.689 7.2097C169.76 7.244 169.825 7.25464 169.875 7.23571C169.907 7.22389 169.925 7.20614 169.949 7.19077C169.878 7.15647 169.815 7.14701 169.762 7.16475ZM162.514 2.7247C162.577 2.73298 162.63 2.71643 162.675 2.67267C162.64 2.66203 162.609 2.64783 162.572 2.64073C162.511 2.62891 162.456 2.64902 162.414 2.6916C162.448 2.70343 162.483 2.71406 162.514 2.7247ZM158.665 2.44676C158.641 2.46214 158.618 2.47751 158.591 2.49171C158.662 2.52601 158.728 2.53665 158.778 2.51772C158.81 2.5059 158.828 2.48815 158.852 2.47278C158.781 2.43848 158.718 2.4302 158.665 2.44676ZM132.563 1.36573C132.54 1.3811 132.516 1.39648 132.49 1.41067C132.561 1.44497 132.626 1.45561 132.676 1.43669C132.708 1.42486 132.726 1.40712 132.75 1.39174C132.679 1.35744 132.616 1.34917 132.563 1.36573ZM2.59672 10.9886C2.56252 10.9779 2.52835 10.9673 2.49677 10.9555C2.42048 10.9874 2.39681 11.017 2.4389 11.0394C2.46521 11.0536 2.50464 11.0619 2.53885 11.0726C2.61777 11.0406 2.63618 11.0122 2.59672 10.9886Z" fill="#FFE492"/>
</svg>
