<svg width="194" height="25" viewBox="0 0 194 25" fill="none" xmlns="http://www.w3.org/2000/svg">
<path d="M182.321 13.4638C182.055 13.4841 181.787 13.4981 181.526 13.5286C181.357 13.5477 181.285 13.4918 181.172 13.4625C181.134 13.4524 181.094 13.432 181.059 13.4346C180.796 13.4549 180.533 13.4778 180.27 13.5006C180.189 13.5502 180.138 13.6163 180.015 13.6404C179.894 13.6633 179.752 13.6633 179.618 13.6748C179.44 13.6887 179.263 13.7027 179.086 13.7154C178.997 13.7218 178.925 13.7459 178.895 13.7917C178.89 13.7993 178.949 13.8184 178.981 13.8298C179.089 13.8679 179.193 13.9111 179.311 13.9404C179.424 13.9683 179.564 13.9226 179.685 13.9582C179.956 14.0382 179.959 14.0369 180.165 14.0217C180.342 14.0077 180.52 13.9925 180.697 13.9823C180.732 13.9798 180.772 13.9988 180.81 14.009C180.922 14.0369 180.995 14.1005 181.161 14.0763C181.287 14.0573 181.427 14.0535 181.559 14.0433C181.669 14.0802 181.771 14.1221 181.889 14.1513C181.999 14.1793 182.031 14.2009 181.972 14.2377C181.918 14.2721 181.843 14.286 181.744 14.2886C181.655 14.2899 181.567 14.3013 181.478 14.3076C181.432 14.3114 181.389 14.314 181.346 14.3178C181.177 14.3318 181.177 14.3318 180.869 14.2505C180.748 14.2187 180.611 14.2632 180.495 14.2327C180.418 14.2123 180.35 14.1818 180.275 14.1602C180.243 14.1513 180.192 14.1501 180.152 14.1526C180.018 14.1615 179.883 14.1678 179.754 14.1844C179.663 14.1958 179.61 14.2314 179.62 14.267C179.623 14.281 179.687 14.3013 179.725 14.3026C179.811 14.3051 179.902 14.2873 179.985 14.2962C180.066 14.3051 180.149 14.3305 180.208 14.3585C180.329 14.4169 180.466 14.3648 180.581 14.3801C180.702 14.3966 180.801 14.4474 180.917 14.4779C180.946 14.4856 181.003 14.4728 181.048 14.469C181.18 14.4601 181.312 14.4525 181.443 14.4436C181.553 14.4805 181.671 14.5135 181.771 14.5555C181.951 14.6317 182.144 14.6609 182.377 14.6241C182.509 14.6037 182.638 14.6114 182.742 14.6609C182.85 14.7118 182.973 14.7067 183.11 14.6965C183.236 14.6864 183.365 14.6584 183.494 14.694C183.773 14.7728 183.776 14.7766 184.106 14.7461C184.206 14.7372 184.281 14.7347 184.356 14.7639C184.426 14.7906 184.501 14.8134 184.573 14.8389C184.705 14.83 184.839 14.8211 184.971 14.8109C185.14 14.7969 185.234 14.8147 185.274 14.8859C185.298 14.9291 185.309 14.9685 185.368 14.9977C185.438 15.0333 185.513 15.032 185.615 15.0219C185.712 15.013 185.782 14.999 185.822 14.9532C185.838 14.9342 185.87 14.9164 185.9 14.9011C185.924 14.8897 185.961 14.8719 185.983 14.8744C186.023 14.8795 186.077 14.8935 186.09 14.91C186.222 15.0638 186.222 15.0651 186.356 15.1096C186.504 15.1591 186.657 15.2036 186.791 15.2595C186.912 15.3091 187.033 15.2875 187.164 15.2875C187.263 15.2875 187.328 15.3205 187.32 15.3536C187.314 15.3726 187.277 15.4006 187.245 15.4031C186.982 15.4285 186.716 15.4501 186.45 15.4679C186.418 15.4705 186.378 15.4476 186.34 15.4362C186.265 15.4133 186.198 15.3777 186.117 15.3701C186.037 15.3624 185.943 15.3815 185.854 15.3879C185.765 15.3942 185.671 15.4107 185.591 15.4006C185.51 15.3904 185.446 15.3536 185.371 15.3294C185.336 15.318 185.288 15.3015 185.258 15.3053C185.062 15.3358 184.917 15.2938 184.777 15.2379C184.748 15.2265 184.697 15.2188 184.659 15.2214C184.348 15.243 184.039 15.2684 183.728 15.2925C183.602 15.3027 183.5 15.2582 183.473 15.1833C183.459 15.1413 183.432 15.0994 183.432 15.0574C183.432 14.9812 183.285 14.9393 183.177 14.9482C183 14.9609 182.82 14.971 182.646 14.9901C182.504 15.0053 182.383 14.9901 182.286 14.9443C182.173 14.8922 182.044 14.9024 181.916 14.9164C181.819 14.9265 181.792 14.9685 181.797 15.074C181.803 15.1591 181.757 15.1858 181.583 15.1998C181.363 15.2176 181.14 15.2354 180.917 15.2493C180.882 15.2519 180.842 15.2303 180.807 15.2188C180.732 15.196 180.665 15.1591 180.584 15.1515C180.503 15.1426 180.409 15.1617 180.321 15.1693C180.232 15.1756 180.138 15.1934 180.058 15.1845C179.977 15.1756 179.91 15.1375 179.838 15.1134C179.803 15.1019 179.76 15.0854 179.725 15.0879C179.548 15.0981 179.371 15.1134 179.193 15.1273C178.995 15.1426 178.995 15.1426 178.713 15.0638C178.584 15.0282 178.455 15.0562 178.329 15.0663C178.195 15.0765 178.068 15.0816 177.964 15.0308C177.894 14.9977 177.816 14.9774 177.733 14.9837C177.51 14.999 177.29 15.0181 177.067 15.0333C177.03 15.0358 176.979 15.0295 176.949 15.0181C176.807 14.9647 176.667 14.9227 176.468 14.9494C176.297 14.9723 176.111 14.9736 175.94 14.9952C175.846 15.0066 175.803 15.0473 175.821 15.0791C175.832 15.0956 175.889 15.1146 175.926 15.1146C176.012 15.1159 176.106 15.0968 176.187 15.1045C176.353 15.1197 176.436 15.2265 176.654 15.1972C176.783 15.1794 176.917 15.1731 177.051 15.168C177.086 15.1667 177.123 15.1909 177.161 15.2036C177.268 15.2379 177.362 15.2824 177.518 15.2595C177.647 15.2417 177.784 15.2366 177.915 15.2265C178.125 15.21 178.125 15.2112 178.396 15.2887C178.525 15.3256 178.654 15.2964 178.78 15.2875C178.874 15.2811 178.962 15.2684 179.038 15.2862C179.153 15.3129 179.236 15.3739 179.379 15.3701C179.513 15.3663 179.644 15.3485 179.779 15.3421C179.862 15.3383 179.94 15.3586 180.007 15.3929C180.077 15.4273 180.152 15.4425 180.243 15.4349C180.375 15.4247 180.509 15.412 180.643 15.4057C180.681 15.4044 180.724 15.4158 180.759 15.426C180.834 15.4489 180.906 15.4756 180.979 15.4997C181.11 15.4921 181.244 15.4895 181.373 15.4743C181.473 15.4628 181.542 15.4679 181.623 15.4934C181.725 15.5277 181.808 15.5887 181.975 15.5594C182.058 15.5455 182.155 15.5493 182.238 15.5366C182.34 15.52 182.41 15.5264 182.482 15.5645C182.619 15.6369 182.791 15.6382 182.968 15.6103C183.161 15.5798 183.306 15.6154 183.451 15.6713C183.604 15.7297 183.604 15.7285 183.722 15.8695C183.757 15.9102 183.857 15.9293 183.94 15.9216C184.079 15.9089 184.2 15.9153 184.302 15.9636C184.41 16.0157 184.538 16.0093 184.67 15.9953C184.845 15.9763 185.019 15.9598 185.161 16.0335C185.231 16.069 185.306 16.0779 185.4 16.069C185.666 16.0462 185.935 16.0322 186.195 16.0042C186.353 15.9864 186.445 16.0271 186.552 16.0614C186.697 16.1084 186.855 16.1504 186.855 16.2508C186.855 16.2673 186.893 16.2864 186.925 16.2991C186.995 16.3258 187.07 16.3486 187.143 16.374C187.25 16.4122 187.355 16.4439 187.502 16.4236C187.631 16.4071 187.768 16.402 187.9 16.3906C188.031 16.3791 188.152 16.3728 188.27 16.4211C188.407 16.4757 188.552 16.5278 188.708 16.5685C188.818 16.5977 188.963 16.5482 189.081 16.5876C189.153 16.6117 189.223 16.6397 189.301 16.66C189.333 16.6689 189.384 16.6625 189.427 16.66C189.516 16.6549 189.607 16.6511 189.693 16.6384C189.792 16.6244 189.868 16.627 189.943 16.6562C190.013 16.6829 190.082 16.7197 190.163 16.7273C190.284 16.7388 190.418 16.688 190.539 16.7464C190.6 16.7756 190.678 16.8036 190.759 16.8125C190.839 16.8214 190.933 16.8023 191.019 16.8036C191.057 16.8036 191.103 16.8239 191.124 16.8405C191.137 16.8493 191.119 16.8735 191.1 16.8862C191.076 16.9015 191.041 16.9218 191.006 16.9243C190.74 16.9472 190.474 16.9663 190.209 16.9879C190.05 17.0006 190.05 17.0006 189.731 16.9205C189.655 16.9015 189.572 16.9053 189.478 16.9142C189.352 16.9256 189.223 16.9472 189.092 16.9243C188.92 16.8379 188.708 16.8303 188.482 16.8633C188.388 16.8773 188.302 16.8773 188.233 16.8532C188.085 16.8049 187.929 16.7604 187.798 16.7032C187.696 16.6587 187.647 16.6549 187.604 16.7159C187.591 16.735 187.578 16.7553 187.58 16.7731C187.596 16.8366 187.626 16.8989 187.642 16.9625C187.647 16.9802 187.626 17.0006 187.612 17.0196C187.57 17.073 187.513 17.0692 187.419 17.0247C187.325 16.9802 187.212 16.951 187.062 16.9714C186.933 16.9891 186.794 16.9866 186.665 17.0057C186.466 17.0336 186.327 16.993 186.184 16.9383C186.155 16.9269 186.104 16.9205 186.066 16.9231C185.666 16.9523 185.269 16.9853 184.869 17.0146C184.783 17.0209 184.705 17.0018 184.638 16.9675C184.568 16.9332 184.49 16.9154 184.404 16.9218C184.05 16.9485 183.696 16.9726 183.341 17.0057C183.196 17.0196 183.081 17.0031 182.981 16.9586C182.906 16.9256 182.836 16.9154 182.742 16.9192C182.64 16.9231 182.568 16.9358 182.517 16.9726C182.469 17.0082 182.504 17.0298 182.611 17.0578C182.726 17.0883 182.834 17.1277 182.944 17.1633C183.032 17.1582 183.121 17.148 183.207 17.1493C183.244 17.1493 183.279 17.1721 183.317 17.1848C183.424 17.2217 183.524 17.2586 183.677 17.2382C183.806 17.2204 183.943 17.2166 184.074 17.2052C184.257 17.1912 184.257 17.1912 184.552 17.2713C184.627 17.2916 184.708 17.2903 184.804 17.2789C184.888 17.27 184.973 17.2878 185.033 17.3259C185.057 17.3412 185.049 17.3666 184.998 17.4505C184.998 17.5127 185.054 17.4848 185.073 17.4441C185.102 17.3856 185.046 17.3666 184.939 17.3984C184.863 17.4212 184.826 17.4543 184.845 17.481C184.855 17.4949 184.906 17.5127 184.998 17.4505C185.234 17.3742 185.414 17.3653 185.586 17.345C185.688 17.3335 185.752 17.3386 185.833 17.3717C185.929 17.4111 186.026 17.453 186.184 17.4327C186.356 17.4098 186.539 17.4072 186.713 17.3882C186.874 17.3704 186.957 17.4263 187.059 17.4594C187.183 17.4988 187.32 17.4543 187.433 17.4771C187.551 17.5 187.634 17.5559 187.771 17.5661C187.97 17.5318 188.096 17.5953 188.246 17.6373C188.364 17.6691 188.504 17.6411 188.63 17.6271C188.772 17.6119 188.89 17.6258 188.99 17.6716C189.102 17.7237 189.229 17.7123 189.358 17.7008C189.658 17.6754 189.669 17.6716 189.843 17.7415C189.97 17.7923 190.09 17.7694 190.217 17.7631C190.327 17.7974 190.434 17.8343 190.549 17.8648C190.579 17.8724 190.635 17.8597 190.681 17.8559C190.813 17.8457 190.947 17.8355 191.078 17.8254C191.167 17.819 191.261 17.7999 191.341 17.8076C191.422 17.8165 191.489 17.8533 191.562 17.8775C191.634 17.9016 191.709 17.9258 191.779 17.9512C191.886 17.9893 191.988 18.0211 192.139 18.002C192.268 17.9855 192.402 17.9804 192.536 17.969C192.705 17.955 192.7 17.9588 193.014 18.0351C193.183 18.077 193.358 18.0262 193.529 18.0211C193.615 18.0185 193.699 18.0325 193.758 18.0694C193.782 18.0846 193.774 18.11 193.782 18.1316C193.339 18.166 192.893 18.1952 192.456 18.2371C192.286 18.2536 192.198 18.2079 192.107 18.1698C191.956 18.1088 191.758 18.1977 191.615 18.1189C191.529 18.0719 191.406 18.0452 191.258 18.0681C191.172 18.0808 191.081 18.0795 190.992 18.091C190.767 18.1189 190.56 18.1202 190.38 18.0325C190.319 18.002 190.23 17.9855 190.166 17.9563C190.09 17.9245 190.018 17.9067 189.929 17.913C189.529 17.9435 189.132 17.974 188.735 18.0071C188.7 18.0096 188.665 18.0287 188.635 18.0427C188.56 18.0783 188.584 18.1062 188.705 18.1291C188.745 18.1367 188.778 18.1532 188.815 18.1659C188.888 18.1901 188.955 18.2282 189.035 18.2371C189.116 18.246 189.21 18.2282 189.298 18.2219C189.387 18.2155 189.481 18.1964 189.562 18.2041C189.642 18.213 189.709 18.2498 189.784 18.2727C189.819 18.2841 189.862 18.3032 189.897 18.3019C190.074 18.2943 190.249 18.2803 190.426 18.2689C190.536 18.3032 190.63 18.3528 190.762 18.3642C190.845 18.3718 190.933 18.3578 191.019 18.3604C191.057 18.3617 191.105 18.3807 191.124 18.3972C191.135 18.4074 191.1 18.4328 191.073 18.4455C190.971 18.4938 190.831 18.4849 190.705 18.5002C190.568 18.5167 190.445 18.5116 190.34 18.4621C190.27 18.429 190.192 18.4112 190.106 18.4176C189.884 18.4341 189.664 18.4532 189.441 18.4671C189.403 18.4697 189.357 18.4583 189.323 18.4494C189.041 18.3718 189.041 18.3693 188.842 18.3858C188.549 18.41 188.549 18.4099 188.353 18.3426C188.316 18.3299 188.276 18.3058 188.243 18.307C187.932 18.3274 187.623 18.3477 187.314 18.3769C187.212 18.3858 187.143 18.3858 187.067 18.3528C187.003 18.3248 186.928 18.293 186.847 18.2854C186.764 18.2778 186.673 18.2969 186.584 18.3032C186.496 18.3096 186.402 18.3261 186.324 18.3159C186.243 18.3057 186.173 18.2702 186.104 18.2448C186.031 18.2181 185.953 18.2193 185.854 18.2295C185.548 18.2587 185.545 18.2549 185.242 18.1761C185.207 18.1672 185.161 18.1571 185.124 18.1596C184.901 18.1748 184.681 18.1939 184.458 18.2092C184.372 18.2155 184.289 18.199 184.23 18.1621C184.206 18.1469 184.214 18.1215 184.198 18.0719C184.179 18.0605 184.2 18.0808 184.206 18.0999C184.246 18.0973 184.294 18.0999 184.324 18.0897C184.399 18.0655 184.436 18.0338 184.418 18.0071C184.407 17.9931 184.356 17.9753 184.324 17.9753C184.265 17.9753 184.214 18.0033 184.198 18.0719C184.028 18.1138 183.849 18.1227 183.674 18.1431C183.572 18.1558 183.508 18.1494 183.427 18.1164C183.33 18.0757 183.231 18.0363 183.073 18.0567C182.901 18.0795 182.718 18.0834 182.541 18.1011C182.337 18.1215 182.248 18.0071 182.077 18.0096C181.899 18.0122 181.722 18.0338 181.545 18.049C181.389 18.0617 181.389 18.0617 181.067 17.9791C180.949 17.9486 180.81 17.9931 180.694 17.9613C180.616 17.941 180.549 17.9105 180.474 17.8889C180.442 17.88 180.391 17.88 180.35 17.8825C180.128 17.8978 179.902 17.908 179.687 17.9359C179.443 17.969 179.258 17.9334 179.083 17.8584C178.863 17.8724 178.64 17.88 178.423 17.9042C178.264 17.9219 178.173 17.88 178.066 17.8457C178.028 17.8343 177.996 17.8152 177.956 17.8101C177.915 17.805 177.867 17.8152 177.824 17.819C177.647 17.833 177.464 17.8393 177.293 17.8622C177.08 17.8915 177 17.7872 176.836 17.7745C176.726 17.8368 176.667 17.9219 176.45 17.9283C176.272 17.9334 176.095 17.9537 175.918 17.9677C175.829 17.9741 175.741 17.9817 175.652 17.988C175.51 17.9995 175.443 18.049 175.472 18.1253C175.489 18.1672 175.502 18.2092 175.515 18.2511C175.542 18.3261 175.475 18.3896 175.362 18.3985C175.051 18.4227 174.742 18.4481 174.431 18.4697C174.348 18.476 174.267 18.4544 174.2 18.4201C174.13 18.3858 174.052 18.3706 173.966 18.3769C173.655 18.4011 173.346 18.4265 173.035 18.4481C173 18.4506 172.954 18.4379 172.919 18.4277C172.844 18.4049 172.772 18.3782 172.699 18.354C172.522 18.3655 172.347 18.3731 172.173 18.3883C171.891 18.4112 171.891 18.4125 171.684 18.3426C171.647 18.3299 171.609 18.3058 171.574 18.307C171.44 18.3121 171.309 18.3248 171.174 18.3362C170.78 18.3693 170.78 18.3693 170.664 18.3312C170.559 18.2956 170.465 18.2524 170.307 18.2727C170.135 18.2956 169.953 18.3032 169.776 18.3159C169.644 18.3248 169.512 18.335 169.381 18.3375C169.346 18.3388 169.308 18.3146 169.271 18.3019C169.163 18.2625 169.059 18.2308 168.911 18.2524C168.825 18.2651 168.734 18.2676 168.645 18.274C168.414 18.2918 168.414 18.2918 168.036 18.2155C167.998 18.2079 167.953 18.199 167.915 18.2028C167.604 18.2257 167.295 18.2511 166.983 18.2727C166.946 18.2752 166.9 18.2676 166.863 18.2613C166.439 18.1875 166.439 18.1876 165.987 18.2231C165.816 18.2358 165.81 18.2409 165.63 18.1736C165.55 18.1443 165.483 18.1304 165.389 18.1393C165.034 18.1698 164.677 18.1901 164.326 18.2257C164.167 18.2409 164.076 18.2028 163.969 18.1685C163.931 18.157 163.891 18.1316 163.859 18.1329C163.504 18.1571 163.15 18.1863 162.795 18.2104C162.763 18.213 162.723 18.1876 162.685 18.1761C162.613 18.1532 162.543 18.1189 162.462 18.1113C162.379 18.1037 162.288 18.1227 162.197 18.1291C161.974 18.1456 161.974 18.1444 161.716 18.0694C161.681 18.0592 161.636 18.0452 161.601 18.0478C161.246 18.0732 160.889 18.0948 160.538 18.1316C160.336 18.152 160.199 18.1151 160.057 18.0617C160.028 18.0503 159.977 18.0452 159.939 18.0478C159.539 18.077 159.142 18.11 158.742 18.1393C158.658 18.1456 158.578 18.124 158.511 18.091C158.403 18.0389 158.277 18.0452 158.143 18.0567C157.834 18.0833 157.831 18.0821 157.649 18.0211C157.611 18.0084 157.579 17.9918 157.539 17.9855C157.501 17.9791 157.453 17.983 157.413 17.9855C157.236 17.9982 157.058 18.0122 156.881 18.0262C156.704 18.0401 156.524 18.0478 156.35 18.0694C156.135 18.0961 156.033 18.0134 155.882 17.9753C155.662 17.9918 155.437 18.002 155.219 18.0287C155.053 18.049 154.975 17.9931 154.865 17.9639C154.827 17.9537 154.787 17.9321 154.752 17.9347C154.352 17.9626 153.952 17.9931 153.555 18.0274C153.458 18.035 153.394 18.0249 153.313 17.9944C153.133 17.9258 153.125 17.9283 152.825 17.9537C152.693 17.9652 152.567 17.9753 152.454 17.9232C152.355 17.8762 152.234 17.8648 152.092 17.88C151.917 17.8991 151.737 17.9092 151.56 17.9219C151.383 17.9359 151.206 17.955 151.029 17.9613C150.886 17.9677 150.8 17.908 150.688 17.8775C150.653 17.8686 150.604 17.8673 150.564 17.8698C150.387 17.8813 150.204 17.8902 150.033 17.9118C149.823 17.9385 149.708 17.8686 149.56 17.8279C149.528 17.819 149.474 17.8241 149.434 17.8279C149.122 17.8508 148.814 17.8762 148.502 17.9003C148.392 17.866 148.279 17.833 148.169 17.7987C147.992 17.8114 147.815 17.8254 147.638 17.8381C147.504 17.8482 147.367 17.8521 147.24 17.8711C147.077 17.8965 146.996 17.8368 146.886 17.8076C146.848 17.7974 146.808 17.7758 146.773 17.7783C146.551 17.7923 146.328 17.8076 146.108 17.8292C145.898 17.8508 145.815 17.7364 145.643 17.7377C145.466 17.7389 145.283 17.7555 145.112 17.7783C144.913 17.805 144.773 17.7644 144.631 17.7097C144.601 17.6983 144.55 17.6919 144.513 17.6945C144.29 17.7097 144.07 17.7288 143.847 17.744C143.809 17.7466 143.764 17.7402 143.726 17.7326C143.302 17.6576 143.302 17.6563 143.117 17.6716C142.985 17.6818 142.851 17.6945 142.717 17.7008C142.679 17.7034 142.634 17.6919 142.599 17.6818C142.319 17.6042 142.319 17.603 142.118 17.6182C141.941 17.6322 141.764 17.6462 141.587 17.6601C141.476 17.6258 141.364 17.5928 141.254 17.5585C141.034 17.575 140.808 17.5877 140.591 17.6106C140.489 17.6207 140.421 17.6169 140.344 17.5852C140.247 17.547 140.15 17.5026 139.989 17.5242C139.817 17.547 139.635 17.5496 139.46 17.5686C139.251 17.5915 139.165 17.4759 138.996 17.4771C138.819 17.4784 138.636 17.4949 138.464 17.5178C138.266 17.5445 138.126 17.5038 137.984 17.4492C137.954 17.4378 137.903 17.4314 137.866 17.4339C137.377 17.4708 136.891 17.5076 136.402 17.547C136.102 17.5712 136.102 17.5725 135.53 17.5026C135.49 17.4975 135.447 17.4924 135.406 17.4949C135.229 17.5064 135.047 17.5153 134.875 17.5369C134.665 17.5636 134.55 17.4949 134.402 17.453C134.37 17.4441 134.319 17.4492 134.276 17.4517C134.142 17.4606 134.01 17.4721 133.876 17.4822C133.699 17.4962 133.522 17.5102 133.345 17.5242C133.235 17.4911 133.122 17.4568 133.012 17.4238C132.792 17.4403 132.566 17.4492 132.349 17.4759C132.182 17.4962 132.104 17.4428 131.994 17.4123C131.957 17.4022 131.916 17.3806 131.882 17.3818C131.481 17.4098 131.081 17.439 130.684 17.4746C130.52 17.4899 130.445 17.4327 130.335 17.4034C130.298 17.3945 130.255 17.378 130.22 17.3806C129.954 17.3984 129.688 17.42 129.422 17.4416C129.272 17.4543 129.272 17.4543 128.944 17.3755C128.907 17.3666 128.864 17.3577 128.826 17.3602C127.983 17.4238 127.143 17.4911 126.3 17.5547C126.214 17.561 126.136 17.542 126.069 17.5077C125.999 17.4733 125.922 17.4555 125.836 17.4619C125.481 17.4886 125.124 17.5127 124.773 17.5458C124.628 17.5598 124.512 17.5432 124.413 17.4987C124.338 17.4657 124.268 17.453 124.174 17.4606C123.997 17.4759 123.819 17.4886 123.642 17.5026C123.465 17.5165 123.288 17.5305 123.111 17.5445C122.934 17.5585 122.754 17.5661 122.579 17.5877C122.364 17.6144 122.26 17.5356 122.112 17.4962C121.846 17.5153 121.58 17.5343 121.317 17.5547C120.963 17.5814 120.609 17.6106 120.254 17.636C120.222 17.6385 120.182 17.6157 120.144 17.6042C120.034 17.5725 119.954 17.528 119.79 17.542C118.995 17.6093 118.195 17.6665 117.398 17.7326C117.231 17.7466 117.159 17.6919 117.046 17.6627C117.008 17.6538 116.966 17.636 116.931 17.6386C116.488 17.6703 116.045 17.7059 115.602 17.7402C115.422 17.7542 115.422 17.7542 115.121 17.6754C115.086 17.6665 115.041 17.6551 115.003 17.6576C114.426 17.7008 113.851 17.7466 113.274 17.791C113.188 17.7974 113.11 17.7796 113.041 17.7453C112.973 17.711 112.893 17.6919 112.81 17.6983C112.278 17.7389 111.744 17.7783 111.215 17.8228C111.073 17.8355 110.955 17.8241 110.852 17.7783C110.78 17.7453 110.708 17.7313 110.616 17.7389C109.819 17.8012 109.022 17.861 108.224 17.927C108.071 17.9397 107.964 17.9156 107.867 17.8737C107.789 17.8406 107.722 17.8343 107.626 17.8393C107.524 17.8457 107.462 17.8597 107.405 17.8978C107.333 17.9474 107.287 18.0096 107.115 18.0134C106.938 18.0173 106.758 18.0325 106.584 18.0541C106.417 18.0757 106.34 18.0185 106.235 17.9842C106.157 17.9601 106.085 17.9563 105.985 17.9677C105.894 17.9779 105.838 17.9995 105.784 18.0401C105.666 18.1265 105.655 18.1265 105.51 18.0719C105.432 18.0427 105.362 18.0198 105.276 18.0249C104.922 18.0503 104.568 18.0783 104.213 18.1075C104.009 18.124 104.007 18.1266 103.854 18.063C103.778 18.0312 103.706 18.016 103.617 18.0236C102.643 18.0999 101.668 18.1736 100.694 18.2536C100.543 18.2663 100.441 18.2397 100.334 18.2015C100.299 18.1888 100.264 18.171 100.224 18.1659C100.184 18.1609 100.138 18.1659 100.095 18.1685C99.3863 18.2231 98.6749 18.2752 97.9688 18.3362C97.8077 18.3502 97.7218 18.3096 97.6118 18.2765C97.5742 18.2651 97.5419 18.2473 97.5017 18.2422C97.4614 18.2384 97.4131 18.2473 97.3701 18.2511C96.6614 18.3057 95.9499 18.3579 95.2439 18.4189C95.0747 18.4328 95.0022 18.3795 94.8922 18.3515C94.8546 18.3413 94.8143 18.3223 94.7794 18.3248C94.5566 18.3388 94.3365 18.3578 94.1136 18.3744C93.5821 18.4163 93.0505 18.4557 92.5189 18.4989C92.3149 18.5154 92.2263 18.4023 92.0545 18.4074C91.8316 18.4138 91.6115 18.4392 91.3887 18.457C91.2115 18.471 91.0343 18.4837 90.8571 18.4989C90.6826 18.5129 90.6826 18.5129 90.2477 18.4392C90.2101 18.4328 90.1645 18.4239 90.1269 18.4265C89.5067 18.4735 88.8839 18.5205 88.2664 18.5714C88.1241 18.5828 88.006 18.5764 87.904 18.5294C87.8315 18.4964 87.7564 18.4798 87.6678 18.4875C86.7362 18.5599 85.8073 18.6324 84.8757 18.7035C84.8408 18.7061 84.7951 18.6934 84.7602 18.6832C84.6851 18.6603 84.6126 18.6336 84.5401 18.6095C84.4864 18.6387 84.4166 18.6654 84.3817 18.6984C84.3334 18.7429 84.269 18.7556 84.1669 18.7633C84.0649 18.7709 84.0005 18.7683 83.92 18.7353C83.8233 18.6946 83.724 18.6628 83.5656 18.6756C82.591 18.7556 81.6165 18.8281 80.6419 18.9069C80.4809 18.9196 80.4057 18.8636 80.293 18.8344C80.2554 18.8255 80.2124 18.8115 80.1775 18.8141C79.7775 18.8433 79.3802 18.8751 78.9802 18.9056C77.8714 18.992 76.7627 19.0746 75.6566 19.1661C75.4552 19.1826 75.3183 19.1509 75.176 19.0962C75.1465 19.0848 75.0955 19.0784 75.0579 19.081C73.5062 19.2004 71.9544 19.3212 70.4053 19.4419C70.3221 19.4482 70.2416 19.4279 70.1744 19.3949C70.1046 19.3606 70.0268 19.344 69.9409 19.3504C69.2322 19.405 68.5234 19.4597 67.8147 19.5156C67.6375 19.5296 67.6348 19.5308 67.4522 19.4698C67.4146 19.4571 67.3744 19.433 67.3449 19.4355C67.2831 19.4419 67.224 19.4737 67.1811 19.5169C67.1381 19.5626 67.071 19.5753 66.9716 19.5842C66.8696 19.5931 66.8025 19.5893 66.7247 19.5588C66.6254 19.5207 66.5341 19.4838 66.373 19.4965C64.3353 19.6592 62.2976 19.8155 60.26 19.9769C60.0962 19.9896 60.021 19.9363 59.9083 19.907C59.8707 19.8981 59.8331 19.8854 59.7929 19.8829C59.7499 19.8803 59.7043 19.888 59.6613 19.8918C56.3377 20.1498 53.0141 20.409 49.6905 20.667C49.4918 20.6822 49.4945 20.6822 49.277 20.7992C49.2502 20.8131 49.2153 20.8322 49.1777 20.8347C48.1602 20.9161 47.14 20.9949 46.1199 21.0737C45.6769 21.108 45.234 21.1436 44.791 21.1766C44.6326 21.188 44.6326 21.188 44.254 21.3253C44.2218 21.3367 44.1842 21.352 44.1466 21.3545C42.3747 21.493 40.6028 21.6316 38.8283 21.7675C38.6887 21.7777 38.5759 21.8006 38.5115 21.8616C38.4659 21.9048 38.4068 21.9302 38.3182 21.9378C37.0779 22.0344 35.8376 22.1323 34.5946 22.2263C34.447 22.2378 34.3583 22.2734 34.2859 22.3267C34.2617 22.3445 34.2402 22.3648 34.2053 22.3776C34.1731 22.389 34.1248 22.3928 34.0845 22.3966C33.0214 22.4792 31.9583 22.5644 30.8925 22.6432C30.7341 22.6546 30.6696 22.7016 30.5917 22.7512C30.5649 22.7677 30.5461 22.7906 30.5112 22.802C30.4763 22.8122 30.4253 22.8122 30.3823 22.8147C29.4964 22.8834 28.6105 22.9533 27.7245 23.0219C27.5527 23.0155 27.5151 23.0892 27.4319 23.1337C27.4024 23.149 27.3809 23.1693 27.346 23.1795C27.3084 23.1896 27.2601 23.1884 27.2144 23.1909C26.5057 23.2455 25.7969 23.304 25.0855 23.3548C24.9217 23.3663 24.8895 23.4311 24.8009 23.4756C24.7714 23.4895 24.7419 23.5112 24.707 23.515C24.264 23.5518 23.8211 23.5861 23.3781 23.6192C23.2304 23.6306 23.2304 23.6294 22.97 23.7552C22.9405 23.7691 22.9055 23.7844 22.868 23.7882C22.2048 23.8416 21.5391 23.8924 20.8733 23.9445C20.7874 23.9509 20.7283 23.9814 20.6854 24.0246C20.6424 24.0678 20.5807 24.0958 20.4948 24.1021C19.9632 24.144 19.4316 24.1872 18.9 24.2254C18.7524 24.2355 18.6557 24.2673 18.5913 24.3245C18.543 24.3677 18.4839 24.3893 18.39 24.3969C17.8584 24.4376 17.3268 24.4821 16.7926 24.5177C16.6369 24.5278 16.5563 24.571 16.4919 24.6244C16.4409 24.6676 16.3818 24.6829 16.2825 24.6905C15.3079 24.7642 14.3307 24.8379 13.3589 24.9193C13.1951 24.9332 13.1119 24.8888 13.0045 24.857C12.8515 24.8125 12.7092 24.7642 12.7092 24.6651C12.7092 24.6498 12.6636 24.632 12.6314 24.6193C12.3924 24.524 12.3924 24.524 12.3548 24.4224C12.3334 24.3601 12.3092 24.2966 12.2904 24.233C12.2555 24.1288 12.1696 24.1021 11.9226 24.1212C11.834 24.1275 11.7454 24.1364 11.6568 24.1415C11.5252 24.1504 11.4259 24.1085 11.4018 24.0322C11.3883 23.9903 11.3723 23.9483 11.3588 23.9064C11.4931 23.8962 11.4903 23.895 11.7266 23.7412C11.8259 23.6764 11.826 23.6764 11.6354 23.6116C11.5629 23.5874 11.4931 23.5607 11.4152 23.5378C11.3803 23.5277 11.3347 23.5213 11.2971 23.5239C11.0743 23.5391 10.8541 23.5569 10.634 23.5747C10.2796 23.6027 10.2796 23.6027 9.91983 23.473C9.89029 23.4629 9.84465 23.4438 9.85002 23.4336C9.87955 23.3866 9.95203 23.3663 10.0433 23.3612C10.1775 23.3536 10.3091 23.3409 10.4406 23.3307C10.5292 23.3243 10.6178 23.3167 10.7064 23.3104C10.7896 23.2621 10.8756 23.2151 10.9534 23.1655C11.0769 23.0892 11.0769 23.0867 10.9078 23.0333C10.8004 22.9977 10.6849 22.966 10.5749 22.9329C10.4433 22.9431 10.3091 22.9545 10.1775 22.9634C10.0111 22.9748 9.94397 22.9507 9.90101 22.8681C9.86343 22.7957 9.90907 22.7334 10.0379 22.7181C10.1695 22.7029 10.293 22.6927 10.3601 22.6279C10.4246 22.5656 10.5373 22.5415 10.6769 22.5364C10.7655 22.5326 10.8541 22.5237 10.9427 22.5161C11.0581 22.5059 11.1199 22.4411 11.0957 22.3687C11.0823 22.3216 11.0555 22.2822 10.9508 22.2721C10.4863 22.2276 10.4809 22.2289 10.25 22.1424C10.2286 22.1348 10.2125 22.112 10.2205 22.1005C10.234 22.0815 10.2635 22.0535 10.2957 22.0497C10.6045 22.0217 10.9132 21.9963 11.2219 21.9772C11.3239 21.9709 11.3991 21.962 11.434 21.915C11.4823 21.8501 11.4609 21.7904 11.3669 21.7459C11.3374 21.732 11.289 21.7142 11.2568 21.7154C10.9024 21.7383 10.5507 21.7675 10.1964 21.7904C10.1641 21.793 10.1051 21.7714 10.0917 21.7548C10.0648 21.7243 10.1051 21.6837 10.199 21.6697C10.3225 21.6506 10.4487 21.6494 10.5319 21.5858C10.6474 21.4956 10.7896 21.413 10.9185 21.3266C10.94 21.3113 10.9749 21.2821 10.9669 21.2795C10.8998 21.2516 10.8219 21.23 10.7521 21.2033C10.634 21.1588 10.6339 21.0965 10.6608 21.0368C10.6823 20.9885 10.7628 20.9695 10.8621 20.9695C10.9051 20.9695 10.9588 20.9695 10.9937 20.958C11.085 20.9301 11.1145 20.8945 11.0689 20.8678C11.042 20.8525 10.9937 20.8309 10.9615 20.8335C10.387 20.8754 9.80974 20.9161 9.23791 20.9682C9.06878 20.9834 8.99097 20.9351 8.88896 20.9008C8.8111 20.8741 8.73857 20.864 8.64192 20.883C8.55064 20.9008 8.46208 20.8907 8.4057 20.8487C8.36006 20.8144 8.44059 20.7852 8.65805 20.7521C8.69832 20.7458 8.74394 20.742 8.77347 20.7293C9.08489 20.592 9.08488 20.5907 9.29965 20.5729C9.50906 20.5564 9.50911 20.5552 9.61918 20.4814C9.67019 20.4471 9.72652 20.4128 9.77484 20.3772C9.79364 20.3633 9.82589 20.3378 9.81515 20.3302C9.75609 20.2908 9.67552 20.2819 9.58155 20.2908C9.37215 20.3124 9.1252 20.2946 9.01513 20.4154C8.97217 20.4611 8.90505 20.4738 8.8084 20.4814C7.83655 20.5552 6.86467 20.634 5.89014 20.7051C5.73174 20.7166 5.6593 20.7636 5.59755 20.8157C5.54386 20.8589 5.48478 20.8716 5.38277 20.8792C5.28075 20.8868 5.20017 20.8907 5.14111 20.8487C5.10621 20.8233 5.13575 20.7877 5.21629 20.7521C5.33173 20.7013 5.31024 20.6378 5.27265 20.578C5.24581 20.5386 5.16259 20.5107 5.07399 20.5132C4.94244 20.5183 4.8163 20.5323 4.70623 20.4814C4.64179 20.4522 4.56124 20.4319 4.48875 20.4065C4.34915 20.3544 4.20954 20.301 4.01356 20.3353C3.87933 20.3226 3.78536 20.2768 3.67798 20.2413C3.49811 20.1828 3.482 20.1739 3.61086 20.1116C3.75583 20.0417 3.64306 19.9502 3.7236 19.8816C3.80951 19.8079 3.92767 19.7431 4.03237 19.6745C4.05922 19.6567 4.08339 19.6401 4.11024 19.6224C4.04849 19.5969 3.99212 19.5652 3.91964 19.5474C3.82567 19.5245 3.77735 19.4965 3.78272 19.4177C3.76392 19.4063 3.77192 19.4355 3.7934 19.4432C3.81756 19.4508 3.87667 19.4444 3.9062 19.4355C3.98137 19.4114 4.01892 19.3796 4.00012 19.3529C3.98939 19.339 3.93842 19.3212 3.9062 19.3212C3.84714 19.3212 3.79614 19.3491 3.78003 19.4177C3.47935 19.4699 3.16788 19.4953 2.85646 19.5156C2.82424 19.5181 2.78399 19.4927 2.74641 19.48C2.62291 19.4368 2.6229 19.4381 2.26047 19.4254C2.22288 19.4241 2.1719 19.4063 2.15311 19.3885C2.07525 19.311 2.07796 19.2258 2.04037 19.1432C2.11017 19.0899 2.17992 19.0378 2.25241 18.9857C2.39738 18.8802 2.58535 18.7874 2.6981 18.6718C2.67394 18.6095 2.64172 18.5472 2.75984 18.4964C3.09543 18.4328 3.09276 18.4328 3.18404 18.3718C3.44445 18.199 3.70217 18.0249 3.97332 17.8546C4.0458 17.8101 4.04581 17.786 3.91695 17.7669C3.87668 17.7618 3.83367 17.7606 3.79071 17.7631C3.65648 17.772 3.52225 17.7949 3.3907 17.7898C3.25915 17.786 3.1625 17.73 3.05512 17.6957C2.94505 17.6602 2.83498 17.6233 2.72491 17.5864C2.59873 17.5903 2.47257 17.6258 2.34639 17.5686C2.24975 17.5242 2.12894 17.4924 2.01887 17.4555C2.1021 17.359 2.25783 17.2852 2.37864 17.2001C2.48871 17.1226 2.49134 17.1239 2.78665 17.0641C2.92625 17.0362 2.97458 16.8926 2.85646 16.8506C2.71417 16.7998 2.56386 16.7528 2.41889 16.7045C2.29271 16.7083 2.16387 16.7426 2.04306 16.6854C1.9491 16.6422 1.84169 16.613 1.68598 16.6295C1.42288 16.6574 1.15442 16.6714 0.88864 16.6943C0.797361 16.7019 0.698 16.6968 0.65773 16.6536C0.630883 16.6231 0.708744 16.5812 0.797338 16.5723C0.931571 16.5596 1.05237 16.5443 1.11948 16.4808C1.18392 16.4173 1.30203 16.3982 1.44163 16.3893C1.47922 16.3868 1.5222 16.3715 1.541 16.3562C1.63764 16.2825 1.74504 16.219 1.95176 16.2215C2.03767 16.1961 2.08328 16.1644 2.05643 16.1339C2.04032 16.1173 1.98397 16.0957 1.95176 16.0983C1.72893 16.111 1.50611 16.1237 1.28865 16.1466C1.18664 16.1567 1.10874 16.1593 1.04431 16.1211C0.998667 16.0957 1.02283 16.0614 1.10874 16.0246C1.18391 15.9928 1.20541 15.9559 1.20004 15.9127C1.18661 15.8123 1.10606 15.7831 0.848331 15.7895C0.663089 15.7945 0.617447 15.778 0.577177 15.6916C0.566438 15.6713 0.539639 15.6433 0.558431 15.6293C0.673872 15.5429 0.749048 15.4362 0.966506 15.3955C1.05241 15.3802 1.14366 15.3802 1.19735 15.3472C1.25104 15.3142 1.29939 15.276 1.35577 15.2443C1.42557 15.2061 1.47385 15.1706 1.44163 15.1464C1.38794 15.1032 1.30206 15.0994 1.20272 15.1146C1.11682 15.1273 1.02554 15.1286 0.936946 15.1362C0.77855 15.1502 0.649715 15.1172 0.630923 15.0613C0.579914 14.9138 0.526205 14.7677 0.480566 14.6203C0.475196 14.6025 0.488583 14.5796 0.51006 14.5644C0.585231 14.511 0.665802 14.4601 0.743658 14.408C0.834936 14.3483 0.979932 14.3598 1.10343 14.3483C1.27793 14.3318 1.27787 14.3331 1.51144 14.2111C1.60271 14.1628 1.76112 14.1818 1.85508 14.1386C1.88461 14.1246 1.93025 14.1018 1.9222 14.0891C1.91146 14.0725 1.85779 14.0598 1.81752 14.0522C1.77994 14.0446 1.73431 14.0408 1.69404 14.0446C1.20543 14.0814 0.719519 14.1208 0.23091 14.1564C0.147685 14.1628 0.0564042 14.1348 0.0268729 14.0954C-0.00265845 14.0586 0.00536933 14.0141 0 13.9721C0.0778553 13.92 0.166415 13.8717 0.233532 13.8158C0.28454 13.7726 0.343614 13.7535 0.445631 13.751C0.579864 13.7472 0.711426 13.7319 0.861767 13.7205C1.14097 13.535 1.41479 13.3405 1.71547 13.155C1.83628 13.08 1.8068 13.0037 1.83096 12.9237C1.85512 12.85 2.03498 12.8614 2.15579 12.8398C2.25244 12.822 2.28462 12.7813 2.24703 12.7534C2.22555 12.7369 2.17726 12.7178 2.13967 12.7178C2.05108 12.7178 1.96249 12.7292 1.87389 12.7356C1.7853 12.7419 1.68329 12.7381 1.6108 12.7597C1.541 12.7801 1.49533 12.8233 1.44969 12.8601C1.39868 12.9008 1.33161 12.9148 1.2296 12.9173C1.09805 12.9199 0.966508 12.9313 0.83496 12.9402C0.689988 12.8906 0.539615 12.8424 0.400013 12.7902C0.373166 12.7801 0.367768 12.7509 0.370452 12.7318C0.375822 12.6822 0.335562 12.6517 0.246968 12.6276C0.171798 12.6072 0.110045 12.578 0.0402438 12.5526C0.0939371 12.5183 0.153021 12.4852 0.195975 12.4484C0.289939 12.3709 0.408077 12.315 0.612112 12.3175C0.692652 12.2679 0.757065 12.2069 0.861767 12.1726C0.9611 12.1396 1.13024 12.1726 1.20541 12.0976C1.243 12.0608 1.29941 12.0188 1.37189 12.0036C1.48733 11.9794 1.63767 11.9922 1.70479 11.921C1.74506 11.8803 1.8041 11.8435 1.88195 11.8333C1.97055 11.8219 2.0618 11.8193 2.12623 11.7952C2.16113 11.7825 2.19873 11.7621 2.19873 11.7443C2.19873 11.7329 2.14507 11.7151 2.10749 11.7075C2.07259 11.6986 2.0269 11.6922 1.98663 11.6948C1.85239 11.7024 1.72085 11.7164 1.58661 11.724C1.54903 11.7265 1.50609 11.7176 1.46582 11.71C1.34769 11.6897 1.35573 11.6643 1.44969 11.6185C1.54366 11.574 1.61081 11.5168 1.68867 11.4647C1.77457 11.4558 1.88195 11.4597 1.94101 11.4355C2.04034 11.3961 2.11012 11.3389 2.19066 11.2894C2.27926 11.2817 2.37053 11.2792 2.45376 11.2652C2.48866 11.2601 2.50478 11.2322 2.53431 11.2157C2.588 11.1839 2.63368 11.1381 2.70616 11.1229C2.82429 11.1 2.96926 11.1089 3.03906 11.039C3.07933 10.9983 3.14105 10.9551 3.21622 10.9526C3.42563 10.9475 3.51422 10.8776 3.62161 10.8115C3.70215 10.762 3.87397 10.7874 3.96257 10.7378C4.02163 10.706 4.06461 10.6666 4.12367 10.6361C4.14784 10.6234 4.19883 10.6171 4.2391 10.6133C4.45924 10.5942 4.68206 10.5802 4.9022 10.5599C4.9371 10.5561 4.96934 10.537 4.99619 10.5218C5.05257 10.4887 5.08743 10.443 5.15723 10.4214C5.22703 10.3998 5.32635 10.3998 5.41226 10.3934C5.68878 10.3744 5.71028 10.3794 5.83646 10.2714C5.93848 10.1837 6.18818 10.246 6.27141 10.1494C6.31973 10.0935 6.40829 10.0477 6.56668 10.0414C6.78951 10.0325 7.00965 10.0083 7.23247 9.99183C7.43114 9.97658 7.42846 9.97657 7.64323 9.85838C7.73988 9.805 7.8822 9.81264 8.00838 9.80247C8.14261 9.7923 8.26609 9.77706 8.33052 9.71352C8.39496 9.65125 8.51307 9.6309 8.64998 9.622C8.77616 9.61311 8.91848 9.61947 9.01781 9.56864C9.25943 9.44664 9.25676 9.44536 9.42589 9.43265C9.69167 9.41231 9.95744 9.39198 10.2232 9.37038C10.4004 9.3564 10.5856 9.35386 10.7521 9.3259C10.8729 9.30557 10.9266 9.2344 11.0044 9.18484C11.2246 9.16578 11.4447 9.1467 11.6649 9.12891C11.9736 9.10349 12.285 9.08063 12.5964 9.05648C12.7307 9.00819 12.7495 8.90144 12.975 8.89635C13.1092 8.89381 13.2408 8.87729 13.375 8.86712C13.5978 8.84933 13.818 8.82646 14.0408 8.81756C14.2099 8.81121 14.2394 8.74257 14.328 8.69936C14.3576 8.68411 14.3844 8.66252 14.4193 8.6587C14.7683 8.62312 15.1281 8.61549 15.469 8.56339C15.5039 8.55831 15.5361 8.53162 15.5442 8.51255C15.5496 8.50239 15.5039 8.48333 15.4744 8.47444C15.4395 8.46427 15.3939 8.4541 15.3563 8.45664C14.2475 8.54179 13.1388 8.62821 12.03 8.71336C11.8743 8.72607 11.8743 8.72479 11.4958 8.86458C11.4635 8.87602 11.4259 8.88872 11.3856 8.89254C11.2085 8.90779 11.0286 8.91669 10.8541 8.93576C10.7118 8.95101 10.5937 8.93574 10.4917 8.88999C10.4192 8.85695 10.344 8.84679 10.2527 8.84933C10.1507 8.85314 10.0836 8.86713 10.0246 8.90144C9.94671 8.94846 9.90643 9.00946 9.74266 9.02217C8.98827 9.07681 8.23383 9.13781 7.48213 9.19627C7.37743 9.17848 7.32642 9.15179 7.35327 9.12002C7.36938 9.10096 7.40161 9.07554 7.43382 9.073C7.74256 9.04631 8.05397 9.02344 8.36271 8.99803C8.40566 8.99421 8.46472 8.99674 8.48888 8.98403C8.607 8.92685 8.65001 8.83407 8.87283 8.82772C9.0017 8.82391 9.13323 8.80485 9.25672 8.78706C9.29162 8.78198 9.32385 8.75529 9.3319 8.73622C9.33458 8.72606 9.29162 8.70699 9.25941 8.69809C9.14128 8.66124 9.00439 8.70573 8.88627 8.68031C8.846 8.67142 8.78958 8.6587 8.78153 8.64345C8.77616 8.62947 8.82181 8.6066 8.85402 8.59262C8.88355 8.57991 8.9238 8.56847 8.96407 8.56466C9.31844 8.53543 9.67288 8.50493 10.0273 8.48205C10.1722 8.47316 10.2742 8.44138 10.3386 8.38292C10.387 8.33971 10.446 8.31685 10.5373 8.31049C11.1575 8.26347 11.7776 8.21137 12.4005 8.16816C12.5562 8.15799 12.6367 8.11606 12.7012 8.06141C12.7522 8.0182 12.8112 8.00295 12.9106 7.99532C13.7992 7.92924 14.6824 7.85553 15.5711 7.79199C15.7348 7.78055 15.7832 7.7259 15.8664 7.67888C15.8959 7.66236 15.9147 7.64203 15.9523 7.63186C15.9898 7.62169 16.0382 7.62295 16.0838 7.62041C16.7926 7.56576 17.5014 7.50732 18.2128 7.45648C18.3792 7.44504 18.4114 7.38149 18.4973 7.33701C18.5268 7.32303 18.5537 7.30017 18.5886 7.29635C19.1202 7.25314 19.6517 7.21248 20.1833 7.17054C20.5377 7.14258 20.892 7.11462 21.2464 7.08793C21.4209 7.07522 21.4209 7.07395 21.6572 6.95321C21.684 6.93923 21.7216 6.92271 21.7565 6.9189C22.7767 6.83756 23.7942 6.76006 24.8143 6.67999C24.9003 6.67364 24.962 6.64439 25.0049 6.60119C25.0479 6.55798 25.1097 6.52875 25.1929 6.52239C25.9903 6.45885 26.7876 6.39658 27.5876 6.33685C27.7326 6.32669 27.8346 6.29618 27.899 6.239C27.9473 6.19579 28.0064 6.17292 28.0977 6.16656C28.895 6.10556 29.6924 6.04074 30.4924 5.98228C30.6455 5.97084 30.7206 5.92764 30.7958 5.87681C30.8226 5.85901 30.8441 5.82978 30.8763 5.82724C31.2737 5.79166 31.6683 5.7548 32.0683 5.73065C32.2348 5.72049 32.2912 5.66711 32.3583 5.61627C32.412 5.57561 32.4737 5.56163 32.5758 5.55655C32.7986 5.54511 33.0187 5.52351 33.2362 5.50191C33.2684 5.4981 33.3087 5.47014 33.3113 5.45235C33.3167 5.4193 33.2549 5.39642 33.1529 5.38499C32.0898 5.46759 31.024 5.55019 29.9609 5.6328C29.7864 5.64678 29.7864 5.64678 29.5501 5.76751C29.5233 5.78149 29.4857 5.79802 29.4481 5.80183C28.4279 5.88189 27.4104 5.96069 26.3903 6.04075C26.3044 6.0471 26.2426 6.07633 26.1997 6.11954C26.1567 6.16275 26.0949 6.19198 26.0117 6.19834C25.0372 6.27459 24.0627 6.35211 23.0854 6.42455C22.9405 6.43472 22.8385 6.46393 22.774 6.52239C22.7257 6.5656 22.6667 6.58849 22.5754 6.59484C21.6438 6.66601 20.7149 6.74098 19.7806 6.80961C19.6866 6.81596 19.6169 6.77911 19.6222 6.74479C19.6249 6.727 19.6651 6.69778 19.6974 6.69524C20.1833 6.6533 20.6666 6.61009 21.1552 6.57832C21.3189 6.56815 21.3672 6.51223 21.4504 6.46521C21.4773 6.44869 21.4988 6.42709 21.5337 6.41819C21.5713 6.40802 21.6196 6.4093 21.6652 6.40676C22.817 6.31653 23.9687 6.22503 25.1231 6.13988C25.2896 6.12717 25.3217 6.06489 25.4076 6.02041C25.4372 6.00516 25.464 5.98229 25.4989 5.97975C25.8533 5.94925 26.2077 5.92256 26.5621 5.89587C27.1822 5.84758 27.8024 5.79928 28.4252 5.75099C28.6051 5.73701 28.6051 5.73701 28.836 5.61755C28.8628 5.60357 28.9004 5.58579 28.9353 5.58325C30.5757 5.45489 32.216 5.32653 33.8563 5.19945C33.9423 5.19309 34.004 5.16386 34.0469 5.12065C34.0899 5.07872 34.1516 5.04822 34.2349 5.04059C36.4524 4.86775 38.6672 4.69491 40.8848 4.52462C41.0297 4.51318 41.1317 4.48649 41.1962 4.42676C41.2418 4.38355 41.3036 4.36068 41.3948 4.35305C43.8325 4.1637 46.2702 3.97434 48.7106 3.78372C50.3509 3.65663 51.9912 3.527 53.6316 3.40246C53.7819 3.39102 53.8624 3.35162 53.9376 3.29951C53.9617 3.28172 53.9859 3.25249 54.0181 3.24995C54.3698 3.21818 54.7215 3.18895 55.0732 3.15972C55.1833 3.19404 55.2933 3.22708 55.4034 3.2614C55.4866 3.2131 55.5672 3.16354 55.6504 3.11525C56.182 3.07839 56.7055 3.0212 57.2424 3.00341C57.2773 3.00214 57.3149 3.02629 57.3525 3.039C57.6021 3.11906 57.7444 3.11271 57.9028 3.00595C57.9592 2.96783 58.0075 2.93352 58.0934 2.92716C58.3592 2.90429 58.6277 2.88904 58.8908 2.86235C59.0331 2.84837 59.1512 2.86107 59.2532 2.90682C59.3257 2.93987 59.4009 2.95385 59.4895 2.94623C59.9781 2.9081 60.464 2.87124 60.9527 2.83058C60.9876 2.82803 61.0197 2.80642 61.0466 2.79117C61.103 2.75813 61.1513 2.72255 61.205 2.68824C61.2775 2.70985 61.358 2.72637 61.4171 2.75433C61.4923 2.78737 61.562 2.78736 61.6641 2.77847C63.6131 2.62469 65.5649 2.47473 67.514 2.31969C67.6804 2.30698 67.7529 2.36036 67.8657 2.38832C67.9032 2.39849 67.9408 2.41119 67.9811 2.41373C68.024 2.41627 68.0697 2.40866 68.1126 2.40484C69.5758 2.29047 71.0389 2.17735 72.5021 2.06298C72.6954 2.04773 72.6954 2.04773 72.9827 2.12652C73.0176 2.13669 73.0632 2.14812 73.1008 2.14431C73.7666 2.09475 74.4323 2.04138 75.0955 1.99054C75.1814 1.98419 75.2539 2.00452 75.3317 2.03375C75.4848 2.09094 75.4954 2.09094 75.6082 2.00707C75.6619 1.96767 75.7183 1.94351 75.8069 1.93207C75.9035 1.91937 75.9814 1.92319 76.0566 1.94607C76.164 1.97784 76.2418 2.03121 76.4056 2.01723C77.1144 1.9575 77.8258 1.90794 78.5318 1.84694C78.6929 1.83296 78.7788 1.87616 78.8862 1.90794C78.9238 1.91937 78.9587 1.93717 78.999 1.94098C79.0392 1.94479 79.0876 1.93589 79.1305 1.93207C80.0164 1.86345 80.905 1.79611 81.7883 1.7224C81.9547 1.70842 82.0273 1.76305 82.14 1.79101C82.1776 1.80118 82.2205 1.81898 82.2554 1.81644C82.787 1.77704 83.3213 1.73509 83.8529 1.69315C84.0435 1.6779 84.0434 1.67917 84.3334 1.7567C84.3683 1.76686 84.414 1.77703 84.4515 1.77449C85.0717 1.72747 85.6945 1.67918 86.3147 1.63088C86.5053 1.61563 86.5053 1.61564 87.0556 1.68172C87.0959 1.6868 87.1389 1.69444 87.1791 1.6919C87.8879 1.63725 88.5993 1.58387 89.3081 1.52541C89.4503 1.51397 89.5685 1.52413 89.6705 1.56988C89.743 1.60293 89.8181 1.61691 89.9067 1.60929C90.7041 1.54702 91.5041 1.48729 92.2988 1.4212C92.4518 1.4085 92.5511 1.43644 92.6585 1.4733C92.6934 1.48601 92.7284 1.5038 92.7686 1.50889C92.8089 1.51397 92.8545 1.50888 92.8975 1.50507C93.6948 1.4428 94.4948 1.38434 95.2895 1.31699C95.4506 1.30301 95.5365 1.34621 95.6439 1.37798C95.6815 1.38942 95.7217 1.4123 95.7539 1.41103C96.0654 1.38942 96.3768 1.37037 96.6855 1.3386C96.852 1.3208 96.9245 1.37925 97.0372 1.40721C97.0748 1.41611 97.1177 1.43518 97.1526 1.43264C97.8184 1.38307 98.4843 1.33097 99.1474 1.2776C99.2414 1.26997 99.3111 1.2814 99.3863 1.31444C99.4856 1.35892 99.6011 1.37671 99.7461 1.36273C100.055 1.33351 100.366 1.31318 100.678 1.28903C100.86 1.27505 100.86 1.27506 101.419 1.34114C101.459 1.34622 101.502 1.35384 101.542 1.3513C102.074 1.31063 102.608 1.27124 103.137 1.22676C103.279 1.21405 103.397 1.22549 103.499 1.27124C103.572 1.30428 103.644 1.31827 103.735 1.31064C104.224 1.27252 104.71 1.23439 105.199 1.19626C105.376 1.18228 105.553 1.15813 105.73 1.15813C105.859 1.1594 105.953 1.2204 106.068 1.2509C106.101 1.2598 106.154 1.24964 106.197 1.2471C106.817 1.19881 107.44 1.15432 108.058 1.09968C108.219 1.0857 108.305 1.1289 108.412 1.16067C108.45 1.17211 108.49 1.19499 108.522 1.19372C108.745 1.17974 108.965 1.16067 109.188 1.14415C109.454 1.12382 109.722 1.10857 109.985 1.08061C110.2 1.05773 110.281 1.16829 110.452 1.17211C110.584 1.17592 110.718 1.15432 110.85 1.14415C111.116 1.12382 111.381 1.10095 111.647 1.08315C111.741 1.0768 111.814 1.05646 111.843 1.01071C111.849 1.00181 111.803 0.982756 111.773 0.971318C111.416 0.841691 111.416 0.841685 111.057 0.869643C110.834 0.887435 110.614 0.90523 110.391 0.920481C110.353 0.923022 110.31 0.912856 110.273 0.905231C110.165 0.883627 110.176 0.858212 110.267 0.812461C110.359 0.766711 110.428 0.710798 110.506 0.658693C110.616 0.691735 110.724 0.724766 110.834 0.757808C110.922 0.751454 111.011 0.74384 111.1 0.737485C111.542 0.704443 111.985 0.670128 112.428 0.639627C112.461 0.637086 112.501 0.662506 112.538 0.675215C112.646 0.71207 112.743 0.743832 112.898 0.729853C113.296 0.692998 113.696 0.66631 114.093 0.634539C114.267 0.620559 114.267 0.620561 114.573 0.699354C114.608 0.70825 114.654 0.718417 114.692 0.715875C115.092 0.686646 115.489 0.654878 115.889 0.624378C115.975 0.618023 116.058 0.634544 116.12 0.671399C116.144 0.686649 116.139 0.712061 116.241 0.920481C116.557 1.0895 116.775 1.07172 116.995 1.05647C117.089 1.05012 117.172 1.04376 117.234 1.01834C117.266 1.00436 117.306 0.984023 117.306 0.967502C117.306 0.954793 117.247 0.934456 117.21 0.931914C116.944 0.906497 116.692 0.95988 116.431 0.971318C116.31 0.976401 116.206 0.931921 116.184 0.859482C116.179 0.839149 116.171 0.817545 116.163 0.797212C116.155 0.776878 116.149 0.755275 116.141 0.734941C116.037 0.728587 115.975 0.751459 115.929 0.794667C115.892 0.830251 115.838 0.870919 115.765 0.889981C115.693 0.910315 115.594 0.906509 115.505 0.912864C115.419 0.919218 115.325 0.935737 115.245 0.926841C115.164 0.916674 115.1 0.879813 115.024 0.856938C114.99 0.8455 114.947 0.828985 114.912 0.831527C114.603 0.853132 114.297 0.874728 113.991 0.902687C113.83 0.917937 113.749 0.864569 113.647 0.831527C113.567 0.80611 113.486 0.812456 113.473 0.870916C113.438 1.01071 113.561 1.06917 113.835 1.04248C114.061 1.0196 114.265 1.0158 114.442 1.10222C114.466 1.11366 114.522 1.11874 114.557 1.1162C114.777 1.10095 114.995 1.08188 115.215 1.06663C115.255 1.06409 115.298 1.06917 115.336 1.07425C115.884 1.14287 115.884 1.14415 116.069 1.1289C116.157 1.12128 116.243 1.11492 116.235 0.921753C116.404 0.714604 116.673 0.700627 116.933 0.670126C117.102 0.651064 117.175 0.706984 117.285 0.736213C117.323 0.74638 117.363 0.76671 117.398 0.764168C117.975 0.72223 118.549 0.677744 119.124 0.630723C119.221 0.623097 119.29 0.630724 119.366 0.663766C119.462 0.705704 119.57 0.732398 119.723 0.717147C120.029 0.686647 120.34 0.667588 120.652 0.642171C120.81 0.629463 120.81 0.62945 121.129 0.708243C121.164 0.717139 121.21 0.727306 121.248 0.724764C121.559 0.70316 121.868 0.67648 122.176 0.653605C122.262 0.64725 122.34 0.665041 122.407 0.699354C122.474 0.733667 122.555 0.751457 122.638 0.745102C122.95 0.722227 123.258 0.696818 123.567 0.673943C123.605 0.671401 123.65 0.680296 123.685 0.689192C124.013 0.767985 124.013 0.767972 124.163 0.755264C124.383 0.736201 124.609 0.727315 124.826 0.701898C125.038 0.676481 125.148 0.750184 125.293 0.790851C125.691 0.761622 126.091 0.737482 126.485 0.701898C126.646 0.686648 126.732 0.728582 126.84 0.761624C126.877 0.773062 126.915 0.79721 126.95 0.79594C127.084 0.790856 127.216 0.776879 127.347 0.766712C127.479 0.756546 127.613 0.74638 127.744 0.736213C127.895 0.773068 127.994 0.859485 128.209 0.830255C128.338 0.812463 128.475 0.808651 128.606 0.798484C128.738 0.788317 128.872 0.778151 129.004 0.767985C129.092 0.76163 129.183 0.757812 129.269 0.746374C129.428 0.727312 129.506 0.789591 129.618 0.81755C129.656 0.826446 129.699 0.841686 129.734 0.839144C130 0.821352 130.268 0.806103 130.528 0.776874C130.73 0.753998 130.867 0.792129 131.009 0.845505C131.039 0.856942 131.09 0.863296 131.127 0.860754C131.439 0.83915 131.747 0.812454 132.056 0.789579C132.139 0.783225 132.22 0.803558 132.287 0.8366C132.357 0.870913 132.435 0.887447 132.52 0.881092C132.829 0.858217 133.141 0.832792 133.449 0.809917C133.487 0.807375 133.533 0.817544 133.567 0.827711C133.868 0.906504 133.868 0.907776 134.045 0.892526C134.088 0.888713 134.134 0.886161 134.177 0.882349C134.397 0.864557 134.625 0.858211 134.84 0.827711C135.087 0.793398 135.267 0.836609 135.441 0.909047C135.662 0.893797 135.887 0.884899 136.102 0.859482C136.263 0.840419 136.349 0.888709 136.456 0.920481C136.494 0.931918 136.534 0.954794 136.566 0.952252C136.878 0.930647 137.189 0.911592 137.495 0.87982C137.662 0.862028 137.734 0.919206 137.847 0.948436C137.884 0.958603 137.925 0.976404 137.96 0.973862C138.137 0.963695 138.314 0.948438 138.491 0.934458C138.698 0.917937 138.698 0.919207 138.972 0.996729C139.101 1.03358 139.229 1.00435 139.356 0.995457C139.49 0.98529 139.616 0.977667 139.723 1.02977C139.791 1.06281 139.871 1.08315 139.954 1.07807C140.131 1.06663 140.311 1.0552 140.486 1.03613C140.625 1.02088 140.746 1.03104 140.848 1.07807C140.921 1.11111 140.996 1.12764 141.085 1.12001C141.482 1.08951 141.882 1.05773 142.279 1.0285C142.314 1.02596 142.362 1.0374 142.395 1.04884C142.47 1.07171 142.542 1.09712 142.615 1.12254C142.789 1.1111 142.969 1.10603 143.141 1.08824C143.324 1.07045 143.49 1.06409 143.632 1.13399C143.662 1.14924 143.705 1.17083 143.74 1.16956C143.874 1.16448 144.005 1.15177 144.137 1.14161C144.269 1.13144 144.403 1.12128 144.534 1.11111C144.687 1.14288 144.784 1.23438 144.999 1.20515C145.128 1.18736 145.265 1.18355 145.396 1.17338C145.528 1.16321 145.662 1.15178 145.793 1.14288C145.836 1.14034 145.885 1.13398 145.922 1.13906C145.963 1.14415 145.997 1.16194 146.032 1.17465C146.14 1.21151 146.239 1.24836 146.392 1.22676C146.521 1.20897 146.658 1.20515 146.789 1.19372C146.969 1.17974 146.969 1.17974 147.267 1.2598C147.388 1.29285 147.525 1.24964 147.64 1.2776C147.718 1.29666 147.785 1.32842 147.861 1.35003C147.893 1.35893 147.944 1.36273 147.981 1.36019C148.159 1.34875 148.338 1.33732 148.513 1.31826C148.655 1.30301 148.773 1.31826 148.873 1.36401C148.945 1.39705 149.018 1.41104 149.109 1.40341C149.552 1.36783 149.995 1.33732 150.435 1.29792C150.586 1.28394 150.706 1.30555 150.79 1.3513C150.932 1.43009 151.133 1.33732 151.281 1.40087C151.372 1.44026 151.463 1.48602 151.63 1.46695C151.936 1.43391 152.247 1.41611 152.556 1.39323C152.666 1.42755 152.776 1.46187 152.889 1.49618C153.066 1.4822 153.243 1.46821 153.421 1.4555C153.552 1.44534 153.686 1.4339 153.818 1.42501C153.861 1.42246 153.906 1.41738 153.947 1.42373C153.987 1.43009 154.019 1.44661 154.057 1.45932C154.242 1.52159 154.242 1.52287 154.548 1.49745C154.68 1.48602 154.806 1.47839 154.916 1.52922C155.018 1.57625 155.139 1.58514 155.278 1.57116C155.541 1.54574 155.807 1.52668 156.076 1.50889C156.159 1.50253 156.237 1.52414 156.307 1.55718C156.411 1.60928 156.54 1.6042 156.672 1.59022C156.846 1.57243 157.018 1.55464 157.166 1.62581C157.195 1.64106 157.241 1.66265 157.273 1.66138C157.493 1.65122 157.716 1.6436 157.931 1.61945C158.146 1.5953 158.25 1.67409 158.398 1.71222C158.618 1.6957 158.841 1.67918 159.061 1.66265C159.104 1.65884 159.155 1.64741 159.193 1.65377C159.351 1.68045 159.442 1.77576 159.66 1.74653C159.786 1.73001 159.923 1.72494 160.054 1.72112C160.089 1.71985 160.135 1.74145 160.159 1.75797C160.173 1.76686 160.159 1.79101 160.143 1.80372C160.095 1.8393 160.036 1.87235 159.993 1.90921C159.987 1.91429 160.038 1.93716 160.068 1.94732C160.14 1.9702 160.223 1.9664 160.32 1.95623C160.403 1.94733 160.489 1.96512 160.548 2.00325C160.573 2.0185 160.564 2.04391 160.513 2.12779C160.513 2.19006 160.57 2.1621 160.589 2.12143C160.618 2.06297 160.562 2.04391 160.454 2.07568C160.379 2.09856 160.342 2.1316 160.36 2.15829C160.371 2.17227 160.422 2.19006 160.513 2.12779C160.75 2.05154 160.927 2.03757 161.104 2.02359C161.15 2.01977 161.203 2.00706 161.236 2.01468C161.351 2.04518 161.458 2.08204 161.571 2.11636C161.7 2.10873 161.821 2.08966 161.947 2.13922C162.124 2.20912 162.132 2.20277 162.304 2.18879C162.393 2.18116 162.481 2.17482 162.57 2.16847C162.659 2.16211 162.728 2.18117 162.806 2.2104C162.965 2.27013 162.978 2.27012 163.083 2.18879C163.144 2.13923 163.187 2.12271 163.265 2.14558C163.523 2.22311 163.526 2.22819 163.746 2.20531C163.928 2.18625 164.1 2.18117 164.234 2.2536C164.326 2.30444 164.355 2.293 164.428 2.23963C164.621 2.09856 164.71 2.1011 165.072 2.20277C165.241 2.25106 165.416 2.19896 165.587 2.19261C165.732 2.18752 165.834 2.21802 165.845 2.29808C165.853 2.34764 165.877 2.38323 165.974 2.39975C166.012 2.40611 166.057 2.415 166.095 2.41246C166.318 2.39721 166.538 2.37942 166.761 2.36162C166.873 2.35273 166.935 2.29301 166.914 2.21422C166.89 2.13034 166.932 2.09983 167.094 2.07568C167.19 2.0617 167.268 2.06425 167.346 2.08713C167.432 2.11255 167.408 2.13542 167.333 2.18117C167.153 2.29301 167.174 2.36162 167.405 2.43914C167.486 2.46583 167.55 2.48999 167.569 2.52938C167.579 2.54972 167.569 2.5764 167.593 2.59165C167.724 2.6768 167.907 2.73145 168.111 2.77212C168.307 2.73781 168.441 2.79499 168.592 2.84074C168.71 2.87632 168.849 2.84583 168.975 2.83312C169.118 2.81914 169.236 2.8293 169.338 2.87632C169.41 2.90937 169.486 2.92461 169.574 2.91826C169.751 2.90428 169.931 2.89539 170.106 2.87505C170.256 2.85726 170.369 2.88268 170.463 2.92589C170.581 2.98054 170.713 2.94368 170.836 2.9513C171.002 2.9602 171.086 3.0733 171.303 3.0428C171.432 3.02501 171.566 3.01865 171.7 3.01357C171.735 3.0123 171.778 3.03391 171.808 3.04916C171.95 3.11906 172.117 3.11524 172.299 3.09491C172.425 3.08093 172.549 3.06823 172.672 3.11652C172.876 3.19785 173.102 3.26902 173.317 3.34401C173.346 3.40246 173.325 3.47108 173.478 3.50539C173.558 3.52318 173.633 3.54988 173.695 3.57911C173.77 3.61342 173.84 3.62232 173.937 3.61343C174.111 3.59563 174.294 3.59181 174.466 3.56893C174.624 3.5486 174.723 3.59055 174.82 3.62995C174.898 3.66172 174.97 3.67696 175.064 3.65409C175.161 3.63248 175.231 3.64646 175.309 3.68077C175.419 3.72779 175.427 3.72271 175.792 3.73669C175.829 3.73797 175.875 3.75702 175.897 3.77354C175.907 3.78243 175.883 3.80787 175.864 3.82057C175.84 3.83582 175.803 3.85361 175.768 3.85742C175.37 3.89046 174.97 3.91969 174.573 3.95273C174.533 3.95655 174.49 3.96545 174.46 3.97816C174.428 3.99214 174.388 4.01119 174.388 4.02898C174.388 4.04169 174.441 4.05694 174.479 4.06584C174.597 4.09507 174.737 4.05059 174.852 4.08363C174.93 4.10524 174.995 4.13573 175.072 4.15607C175.105 4.16496 175.156 4.1637 175.196 4.16115C175.33 4.15226 175.462 4.13955 175.596 4.13193C175.634 4.13066 175.676 4.14337 175.711 4.15354C175.969 4.22979 175.969 4.22979 176.192 4.21326C176.281 4.20691 176.374 4.18784 176.458 4.19547C176.538 4.2031 176.608 4.23741 176.681 4.25901C176.831 4.30476 176.973 4.34924 176.984 4.44837C176.989 4.48649 177.078 4.51953 177.166 4.52207C177.252 4.52461 177.344 4.51065 177.432 4.50302C177.642 4.48777 177.642 4.48777 177.913 4.56529C177.988 4.5869 178.068 4.58943 178.165 4.57673C178.203 4.57164 178.248 4.57673 178.289 4.58309C178.42 4.60215 178.42 4.62629 178.334 4.67204C178.213 4.7394 178.224 4.74575 178.562 4.80294C178.691 4.82455 178.791 4.86522 178.898 4.9008C179.073 4.95799 179.07 4.95798 178.954 5.03296C178.928 5.04948 178.903 5.06727 178.877 5.08507C178.799 5.13463 178.737 5.188 178.576 5.19309C178.399 5.19817 178.221 5.21851 178.044 5.23249C177.872 5.24647 177.827 5.27696 177.843 5.36338C177.862 5.46759 177.897 5.47903 178.205 5.47776C178.294 5.47776 178.372 5.48792 178.439 5.52223C178.407 5.5629 178.348 5.59467 178.262 5.6023C178.042 5.62136 177.819 5.63789 177.599 5.65441C177.421 5.66839 177.244 5.68236 177.067 5.69634C176.957 5.70524 176.887 5.77132 176.917 5.84503C176.933 5.88697 176.946 5.92891 176.96 5.97085C176.989 6.05472 177.046 6.07633 177.225 6.07252C177.271 6.07125 177.314 6.06108 177.357 6.06362C177.532 6.07251 177.615 6.17799 177.824 6.15639C177.999 6.13859 178.181 6.13479 178.353 6.11191C178.511 6.09158 178.6 6.13734 178.71 6.17165C178.748 6.18309 178.788 6.20722 178.82 6.20595C179.043 6.19197 179.266 6.178 179.483 6.15386C179.585 6.14369 179.647 6.15131 179.728 6.18181C179.921 6.25552 179.926 6.25171 180.214 6.22883C180.423 6.21104 180.426 6.21358 180.694 6.2911C180.769 6.31271 180.85 6.3127 180.946 6.30254C181.073 6.28983 181.204 6.2695 181.336 6.28856C181.376 6.29364 181.427 6.3089 181.44 6.32542C181.448 6.33686 181.411 6.36482 181.379 6.37371C181.142 6.4398 180.866 6.42836 180.608 6.45505C180.528 6.46267 180.447 6.43853 180.38 6.40421C180.31 6.3699 180.235 6.35593 180.144 6.36228C179.967 6.37626 179.787 6.38515 179.612 6.40548C179.462 6.42328 179.357 6.39404 179.252 6.35465C179.217 6.34194 179.177 6.31779 179.142 6.31906C178.745 6.34448 178.345 6.3699 177.95 6.40548C177.792 6.42073 177.701 6.38007 177.593 6.34576C177.556 6.33432 177.518 6.31017 177.483 6.31144C177.349 6.31653 177.217 6.3305 177.083 6.34067C176.595 6.3788 176.109 6.41692 175.62 6.45251C175.588 6.45505 175.548 6.42836 175.51 6.41692C175.438 6.39404 175.362 6.37244 175.287 6.35083C175.153 6.361 175.021 6.37371 174.887 6.38133C174.79 6.38641 174.705 6.40421 174.691 6.45251C174.683 6.48428 174.772 6.5135 174.866 6.51096C174.957 6.50842 175.048 6.49317 175.123 6.50969C175.497 6.59102 175.497 6.5923 175.73 6.57577C175.934 6.56052 175.913 6.54781 176.093 6.61771C176.17 6.64821 176.24 6.66601 176.329 6.65838C176.549 6.64059 176.772 6.6228 176.995 6.60755C177.03 6.605 177.075 6.61772 177.11 6.62788C177.373 6.70414 177.373 6.70667 177.591 6.68761C177.875 6.66473 177.886 6.65838 178.077 6.7359C178.208 6.78928 178.329 6.75242 178.455 6.74988C178.6 6.79944 178.758 6.84393 178.89 6.89985C179.046 6.96593 179.209 6.95448 179.387 6.93542C179.518 6.92144 179.647 6.91636 179.754 6.96846C179.856 7.01676 179.98 7.02185 180.12 7.00914C180.246 6.9977 180.375 6.97355 180.506 7.00151C180.541 7.00913 180.595 7.0282 180.592 7.03964C180.589 7.05743 180.554 7.08285 180.52 7.09048C180.273 7.14258 180.001 7.14131 179.741 7.16545C179.706 7.16926 179.661 7.15528 179.626 7.14511C179.55 7.12224 179.478 7.09556 179.405 7.07141C179.274 7.07904 179.14 7.08157 179.011 7.09682C178.911 7.10826 178.836 7.107 178.764 7.0765C178.697 7.04854 178.624 7.01422 178.544 7.00532C178.463 6.99643 178.369 7.01549 178.281 7.02312C178.192 7.03074 178.09 7.02692 178.02 7.04726C177.95 7.06759 177.907 7.11207 177.862 7.14766C177.811 7.18705 177.741 7.19977 177.639 7.20358C177.545 7.2074 177.47 7.20231 177.4 7.16672C177.37 7.15147 177.33 7.14003 177.29 7.12986C177.252 7.12097 177.209 7.10698 177.174 7.10953C176.774 7.13876 176.377 7.17054 175.977 7.20104C175.778 7.21629 175.781 7.21628 175.368 7.1413C175.33 7.13494 175.284 7.12605 175.247 7.12859C175.024 7.14384 174.804 7.16164 174.581 7.17943C174.356 7.19722 174.358 7.19468 173.974 7.11461C173.905 7.09936 173.803 7.1197 173.719 7.11716C173.545 7.1108 173.459 7.00406 173.255 7.02439C173.08 7.04218 172.898 7.04599 172.723 7.06887C172.565 7.0892 172.474 7.04472 172.366 7.01041C172.329 6.99897 172.288 6.97355 172.256 6.9761C171.856 7.00405 171.459 7.03583 170.927 7.03964C170.796 7.03964 170.855 7.06633 170.941 7.07523C171.064 7.08921 171.104 7.06252 171.037 7.01168C170.989 6.9761 170.919 6.9583 170.863 6.96719C170.833 6.97228 170.796 6.99643 170.927 7.03964C171.067 7.08793 171.059 7.11461 171.083 7.12986C171.142 7.16672 171.225 7.18197 171.311 7.17689C171.445 7.16799 171.577 7.15528 171.711 7.14766C171.749 7.14512 171.794 7.15401 171.829 7.16418C172.125 7.24297 172.127 7.24806 172.441 7.21756C172.541 7.20867 172.613 7.20866 172.691 7.23281C172.798 7.26585 172.876 7.32176 173.04 7.30397C173.258 7.27982 173.48 7.26586 173.703 7.25188C173.738 7.24934 173.776 7.27221 173.816 7.28238C173.926 7.31288 174.007 7.37006 174.17 7.34592C174.297 7.32686 174.433 7.32176 174.568 7.31795C174.603 7.31668 174.656 7.33701 174.672 7.35354C174.705 7.38277 174.664 7.41709 174.573 7.44123C174.535 7.4514 174.484 7.44885 174.441 7.45267C174.264 7.46665 174.087 7.48189 173.91 7.49333C173.816 7.49968 173.727 7.51875 173.717 7.56577C173.709 7.59754 173.805 7.6255 173.897 7.62296C174.031 7.61914 174.165 7.60898 174.294 7.59246C174.522 7.5645 174.721 7.57212 174.906 7.65218C175.037 7.7081 175.029 7.68778 175.169 7.85299C175.204 7.89493 175.309 7.89873 175.4 7.89619C175.62 7.88984 175.722 7.9089 175.703 7.9483C175.679 7.99659 175.601 8.01183 175.502 8.01819C175.325 8.02836 175.148 8.04489 174.97 8.05887C174.927 8.06268 174.879 8.0703 174.839 8.06775C174.799 8.06521 174.761 8.04996 174.726 8.03853C174.651 8.01438 174.586 7.97752 174.506 7.96862C174.425 7.95973 174.331 7.97879 174.243 7.98642C174.154 7.99277 174.06 8.01184 173.98 8.00294C173.899 7.99404 173.832 7.95593 173.76 7.93305C173.725 7.92161 173.682 7.90381 173.647 7.90508C173.47 7.91525 173.292 7.93178 173.115 7.94449C172.898 7.96101 172.898 7.96101 172.635 7.88221C172.56 7.85934 172.482 7.86061 172.382 7.87078C172.168 7.89112 172.165 7.88729 171.773 7.81358C171.735 7.80596 171.69 7.79707 171.652 7.80088C171.252 7.83011 170.855 7.86188 170.457 7.89238C170.116 7.91906 170.116 7.91907 169.929 8.04616C169.789 8.1402 169.786 8.1402 169.923 8.18341C170.033 8.21899 170.133 8.27109 170.253 8.29015C170.366 8.30795 170.506 8.25076 170.629 8.30922C170.691 8.33845 170.772 8.37022 170.849 8.37531C170.973 8.38166 171.104 8.3448 171.223 8.40072C171.282 8.42868 171.37 8.45792 171.445 8.45919C171.577 8.46173 171.711 8.44138 171.843 8.43249C171.883 8.42995 171.929 8.42995 171.966 8.4363C172.007 8.44393 172.041 8.45918 172.076 8.47189C172.184 8.5151 172.299 8.53543 172.439 8.51382C172.667 8.47824 172.871 8.49603 173.048 8.57737C173.072 8.5888 173.131 8.59008 173.169 8.585C173.266 8.57229 173.349 8.57101 173.421 8.59516C173.451 8.60533 173.494 8.62311 173.488 8.63455C173.48 8.65361 173.448 8.67903 173.413 8.68539C173.161 8.7286 172.89 8.73369 172.629 8.75656C172.594 8.7591 172.552 8.74257 172.517 8.73114C172.441 8.70826 172.377 8.67014 172.296 8.66125C172.216 8.65235 172.122 8.66887 172.033 8.67523C171.945 8.68158 171.851 8.70064 171.77 8.69302C171.69 8.68412 171.615 8.65235 171.55 8.62439C171.475 8.59262 171.402 8.58881 171.303 8.60152C171.174 8.61804 171.04 8.62058 170.909 8.62948C170.836 8.60533 170.764 8.57863 170.688 8.55576C170.653 8.54432 170.611 8.53035 170.573 8.53162C170.396 8.54179 170.218 8.55703 170.041 8.57101C169.864 8.58499 169.864 8.585 169.563 8.50621C169.529 8.49731 169.483 8.48714 169.445 8.48969C169.222 8.50494 169.002 8.52399 168.78 8.53924C168.694 8.54559 168.616 8.5278 168.546 8.49349C168.479 8.45917 168.398 8.44011 168.315 8.44647C167.961 8.47315 167.606 8.49858 167.252 8.53035C167.11 8.54305 166.989 8.53162 166.892 8.48587C166.779 8.43376 166.653 8.44648 166.522 8.45664C166.224 8.48206 166.221 8.48078 166.03 8.41597C165.993 8.40326 165.955 8.37911 165.92 8.38038C165.612 8.39944 165.3 8.41724 164.994 8.44774C164.833 8.46426 164.747 8.41978 164.64 8.38674C164.602 8.3753 164.562 8.35115 164.53 8.3537C164.307 8.36768 164.084 8.38039 163.867 8.40581C163.649 8.43122 163.566 8.31304 163.402 8.31431C163.179 8.31558 162.959 8.34481 162.739 8.3626C162.562 8.37658 162.385 8.39055 162.207 8.40453C162.03 8.41851 161.853 8.42994 161.676 8.44647C161.582 8.45536 161.512 8.44392 161.434 8.41215C161.335 8.37021 161.217 8.33718 161.109 8.29906C160.946 8.24441 160.946 8.2444 160.747 8.25965C160.704 8.26347 160.658 8.266 160.615 8.26982C160.291 8.29777 160.291 8.29524 159.877 8.21518C159.858 8.21136 159.81 8.22535 159.791 8.23552C159.735 8.26856 159.684 8.30413 159.633 8.33845C159.56 8.31811 159.472 8.30668 159.424 8.27745C159.287 8.19484 159.072 8.30795 158.932 8.22661C158.881 8.19611 158.793 8.16942 158.712 8.1618C158.629 8.15417 158.535 8.17196 158.449 8.17959C158.226 8.19865 158.226 8.19739 158.035 8.31049C157.939 8.36641 157.799 8.35624 157.673 8.36895C157.542 8.38292 157.415 8.39055 157.305 8.33845C157.206 8.29142 157.085 8.27999 156.943 8.29524C156.768 8.3143 156.589 8.32574 156.411 8.33717C156.374 8.33972 156.328 8.33337 156.29 8.32574C155.88 8.25076 155.88 8.24949 155.681 8.26601C155.592 8.27364 155.501 8.27617 155.415 8.28761C155.27 8.30794 155.16 8.28126 155.056 8.24059C155.021 8.22788 154.98 8.20375 154.945 8.20502C154.768 8.21137 154.594 8.22281 154.419 8.23424C154.285 8.24314 154.151 8.24822 154.022 8.26601C153.807 8.29524 153.702 8.21263 153.555 8.1745C153.335 8.19102 153.112 8.20246 152.892 8.22534C152.79 8.23551 152.723 8.2317 152.645 8.2012C152.545 8.16307 152.454 8.11987 152.293 8.13893C152.078 8.16435 151.853 8.17324 151.633 8.18849C151.485 8.1491 151.378 8.06902 151.165 8.09825C151.037 8.11605 150.9 8.11986 150.768 8.13002C150.591 8.144 150.414 8.15672 150.237 8.17197C150.046 8.18722 150.049 8.18341 149.756 8.10843C149.587 8.06395 149.412 8.11351 149.241 8.12114C149.106 8.12749 149.039 8.18595 149.071 8.26093C149.104 8.33591 149.031 8.39437 148.908 8.40453C148.599 8.42868 148.287 8.45409 147.979 8.47569C147.941 8.47823 147.896 8.46934 147.861 8.46044C147.53 8.38038 147.53 8.38166 147.383 8.3931C147.163 8.41216 146.937 8.42232 146.72 8.44647C146.569 8.46299 146.459 8.43631 146.363 8.3931C146.287 8.36006 146.218 8.35243 146.121 8.36006C145.058 8.4452 143.995 8.52399 142.934 8.61168C142.776 8.62439 142.685 8.58754 142.577 8.55323C142.54 8.54179 142.505 8.51764 142.467 8.51764C142.379 8.51764 142.29 8.52908 142.201 8.53671C141.804 8.56721 141.407 8.60406 141.007 8.62693C140.838 8.6371 140.792 8.69556 140.719 8.74386C140.663 8.78071 140.599 8.79595 140.499 8.80104C140.403 8.80612 140.333 8.79976 140.258 8.76672C140.161 8.72351 140.051 8.69682 139.901 8.71461C139.726 8.73495 139.549 8.74385 139.369 8.75783C139.278 8.76419 139.208 8.78706 139.178 8.83281C139.173 8.84043 139.229 8.8595 139.262 8.87094C139.369 8.90907 139.471 8.95354 139.592 8.98023C139.715 9.00692 139.85 8.97641 139.978 8.96878C140.024 8.96624 140.067 8.95862 140.11 8.95989C140.15 8.96117 140.199 8.96752 140.228 8.97896C140.368 9.03615 140.515 9.07554 140.709 9.04123C140.875 9.05775 140.961 9.16323 141.173 9.13527C141.302 9.11875 141.436 9.11113 141.57 9.10477C141.605 9.1035 141.643 9.12638 141.681 9.13782C141.788 9.16959 141.874 9.22042 142.035 9.19882C142.207 9.17594 142.389 9.17213 142.564 9.15434C142.66 9.14417 142.73 9.15307 142.805 9.18611C142.902 9.22805 143.012 9.25981 143.162 9.23948C143.291 9.22168 143.428 9.21787 143.56 9.20643C143.732 9.19245 143.732 9.19373 144.038 9.27252C144.073 9.28142 144.118 9.29158 144.156 9.28904C144.379 9.27379 144.599 9.25473 144.822 9.23948C144.907 9.23312 144.991 9.24964 145.05 9.2865C145.074 9.30175 145.066 9.32718 145.074 9.34878C144.631 9.3831 144.188 9.41232 143.748 9.45426C143.581 9.47078 143.506 9.41867 143.396 9.38944C143.358 9.37928 143.318 9.35767 143.283 9.36022C142.972 9.38182 142.663 9.40469 142.354 9.43265C142.258 9.44154 142.185 9.43646 142.113 9.3996C141.928 9.30175 141.702 9.35513 141.493 9.36911C141.332 9.37927 141.281 9.41867 141.299 9.50255C141.323 9.60168 141.42 9.63218 141.667 9.61439C141.756 9.60803 141.844 9.59913 141.933 9.59405C142.019 9.58897 142.097 9.60548 142.166 9.6398C142.234 9.67411 142.314 9.6919 142.397 9.68682C142.574 9.67538 142.754 9.66395 142.926 9.64489C143.068 9.62964 143.187 9.64234 143.286 9.68936C143.396 9.74147 143.525 9.73003 143.654 9.71859C143.954 9.69317 143.957 9.69445 144.145 9.75799C144.183 9.7707 144.22 9.79485 144.255 9.79358C144.564 9.77452 144.875 9.75799 145.179 9.72749C145.337 9.71224 145.428 9.75291 145.533 9.78595C145.571 9.79739 145.608 9.82281 145.643 9.82026C145.866 9.80628 146.089 9.7923 146.306 9.76816C146.408 9.75672 146.47 9.76434 146.553 9.79484C146.752 9.86982 146.757 9.86728 147.039 9.84313C147.125 9.83551 147.219 9.82153 147.3 9.8317C147.38 9.84186 147.444 9.87873 147.52 9.9016C147.555 9.91177 147.598 9.92574 147.635 9.92319C147.812 9.91303 147.989 9.89779 148.167 9.88381C148.333 9.86983 148.333 9.8711 148.645 9.94989C148.771 9.98294 148.902 9.95497 149.028 9.94481C149.165 9.93337 149.289 9.93337 149.394 9.98294C149.498 10.0325 149.624 10.0299 149.759 10.0198C149.885 10.0096 150.014 9.98167 150.143 10.016C150.438 10.0948 150.438 10.096 150.62 10.0808C150.886 10.0592 151.149 10.0388 151.418 10.0198C151.453 10.0172 151.498 10.0325 151.533 10.0427C151.608 10.0655 151.673 10.1037 151.753 10.1126C151.834 10.1227 151.928 10.1075 152.014 10.0998C152.29 10.0757 152.309 10.0668 152.494 10.1507C152.65 10.2193 152.843 10.1202 152.988 10.199C153.072 10.2435 153.184 10.279 153.34 10.2574C153.469 10.2396 153.603 10.2346 153.737 10.2244C153.949 10.2079 153.949 10.2091 154.218 10.2854C154.253 10.2956 154.298 10.3083 154.333 10.3057C154.511 10.2956 154.69 10.2867 154.862 10.2638C155.064 10.2371 155.192 10.2854 155.343 10.3324C155.461 10.3693 155.601 10.3388 155.727 10.3261C155.864 10.3134 155.987 10.3172 156.089 10.3667C156.196 10.4176 156.323 10.4112 156.457 10.401C156.583 10.3921 156.712 10.3629 156.841 10.3985C157.117 10.4773 157.117 10.4773 157.319 10.462C157.496 10.4481 157.673 10.4328 157.85 10.4226C157.885 10.4201 157.928 10.4366 157.963 10.4481C158.038 10.4709 158.103 10.5091 158.183 10.518C158.264 10.5269 158.358 10.5103 158.446 10.504C158.535 10.4976 158.629 10.4786 158.709 10.4862C158.79 10.4938 158.865 10.5256 158.93 10.5535C159.005 10.5866 159.074 10.5904 159.176 10.5777C159.305 10.5612 159.44 10.5574 159.571 10.5485C159.644 10.5726 159.719 10.5967 159.789 10.6234C159.861 10.6514 159.939 10.6489 160.038 10.64C160.368 10.6095 160.371 10.6133 160.648 10.6921C160.774 10.7277 160.905 10.6984 161.032 10.6895C161.166 10.6794 161.292 10.6743 161.397 10.7251C161.499 10.7734 161.625 10.7797 161.759 10.7645C161.845 10.7543 161.936 10.748 162.025 10.7442C162.065 10.7429 162.114 10.748 162.143 10.7582C162.285 10.8115 162.425 10.8598 162.621 10.8255C162.793 10.8357 162.879 10.9399 163.085 10.9196C163.26 10.9018 163.442 10.8979 163.614 10.8751C163.773 10.8547 163.885 10.8903 163.966 10.9348C164.111 11.0136 164.315 10.9068 164.46 10.9844C164.543 11.0288 164.651 11.0644 164.812 11.0454C164.989 11.025 165.045 11.0517 165.096 11.1318C165.126 11.1775 165.12 11.2144 165.067 11.25C165.013 11.2868 164.954 11.2805 164.868 11.2385C164.769 11.1915 164.651 11.1826 164.508 11.1928C164.369 11.2029 164.283 11.1369 164.167 11.1115C164.052 11.0848 163.915 11.1292 163.794 11.0949C163.51 11.0149 163.51 11.0149 163.316 11.0301C163.185 11.0403 163.048 11.0454 162.919 11.0632C162.766 11.0848 162.667 11.0454 162.562 11.0098C162.524 10.9971 162.487 10.9729 162.454 10.9742C162.146 10.9933 161.834 11.0111 161.528 11.0428C161.367 11.0593 161.281 11.0136 161.174 10.9818C161.136 10.9704 161.096 10.9475 161.064 10.9501C160.798 10.9678 160.535 10.9907 160.269 11.0123C160.218 11.0466 160.162 11.0797 160.113 11.1165C160.062 11.1547 159.993 11.1712 159.891 11.1699C159.721 11.1699 159.555 11.2233 159.386 11.1559C159.211 11.0873 159.198 11.0911 159.029 11.1076C158.814 11.1292 158.586 11.1242 158.385 11.1737C158.35 11.1826 158.312 11.2068 158.312 11.2245C158.309 11.236 158.366 11.2525 158.401 11.2627C158.519 11.2932 158.656 11.2487 158.774 11.2805C158.852 11.3008 158.916 11.3313 158.994 11.3529C159.026 11.3618 159.074 11.3605 159.117 11.3593C159.163 11.358 159.206 11.3491 159.249 11.3504C159.289 11.3516 159.332 11.3593 159.364 11.3707C159.512 11.419 159.668 11.4635 159.799 11.5207C159.928 11.5766 160.049 11.5385 160.178 11.5359C160.693 11.6249 160.693 11.6261 161.04 11.5982C161.126 11.5918 161.214 11.5842 161.303 11.5855C161.34 11.5855 161.375 11.6083 161.413 11.6211C161.52 11.6592 161.622 11.6935 161.773 11.6732C161.901 11.6554 162.038 11.6516 162.17 11.6401C162.347 11.6261 162.347 11.6261 162.648 11.7062C162.723 11.7265 162.803 11.724 162.9 11.7138C162.983 11.7049 163.069 11.724 163.128 11.7609C163.152 11.7761 163.144 11.8015 163.152 11.8231C162.887 11.8435 162.618 11.8574 162.361 11.8879C162.194 11.907 162.119 11.8524 162.009 11.8231C161.971 11.813 161.931 11.7914 161.896 11.7939C161.633 11.813 161.37 11.8346 161.107 11.86C161.075 11.8625 161.034 11.8917 161.032 11.9095C161.026 11.9426 161.093 11.9744 161.19 11.9731C161.319 11.9718 161.445 11.9502 161.56 12.0023C161.657 12.0481 161.778 12.0684 161.92 12.0481C162.006 12.0366 162.097 12.0366 162.183 12.0265C162.412 11.996 162.618 12.0023 162.79 12.0887C162.922 12.1116 163.05 12.09 163.177 12.0786C163.271 12.0697 163.362 12.0608 163.429 12.0849C163.571 12.1358 163.711 12.1866 163.907 12.1523C164.119 12.1879 164.28 12.2628 164.457 12.3238C164.54 12.3531 164.605 12.3696 164.702 12.3505C164.742 12.3429 164.79 12.3429 164.833 12.3391C164.922 12.3327 165.016 12.3137 165.096 12.3213C165.177 12.3302 165.244 12.367 165.316 12.3899C165.351 12.4014 165.391 12.4204 165.426 12.4192C165.561 12.4128 165.692 12.4001 165.824 12.3899C165.955 12.381 166.087 12.3721 166.218 12.3632C166.328 12.3963 166.441 12.4293 166.551 12.4624C166.728 12.4484 166.906 12.4344 167.08 12.4217C167.276 12.4064 167.276 12.4077 167.558 12.4865C167.684 12.5221 167.818 12.4992 167.939 12.4827C168.141 12.456 168.275 12.5043 168.417 12.5551C168.447 12.5653 168.5 12.5717 168.535 12.5666C168.675 12.5488 168.796 12.5628 168.898 12.6098C168.97 12.6428 169.043 12.6581 169.131 12.6517C169.44 12.6276 169.749 12.6022 170.057 12.5806C170.095 12.578 170.138 12.5895 170.173 12.5996C170.447 12.6771 170.449 12.681 170.651 12.6606C170.831 12.6428 170.997 12.6352 171.139 12.7051C171.169 12.7203 171.215 12.742 171.247 12.7407C171.467 12.728 171.69 12.714 171.907 12.6924C172.007 12.6822 172.076 12.686 172.154 12.7153C172.253 12.7521 172.342 12.7966 172.506 12.7801C172.96 12.7331 172.962 12.7407 173.499 12.8284C173.537 12.8347 173.588 12.8246 173.631 12.8195C173.722 12.8068 173.789 12.8246 173.87 12.8538C174.05 12.9199 174.055 12.9161 174.227 12.9021C174.358 12.8906 174.495 12.8881 174.624 12.869C174.823 12.8411 174.954 12.8906 175.102 12.9377C175.22 12.9745 175.357 12.944 175.483 12.9326C175.62 12.9199 175.744 12.9237 175.846 12.972C175.915 13.005 175.991 13.0228 176.079 13.0165C176.388 12.9936 176.697 12.9682 177.005 12.9453C177.043 12.9427 177.089 12.9529 177.123 12.9618C177.43 13.0406 177.43 13.0444 177.733 13.0152C177.83 13.0063 177.91 13.0038 177.983 13.0304C178.052 13.0559 178.128 13.08 178.2 13.1041C178.332 13.0952 178.466 13.0927 178.595 13.0775C178.694 13.066 178.764 13.0711 178.842 13.0978C178.944 13.1321 179.03 13.1918 179.191 13.1626C179.274 13.1486 179.371 13.1524 179.454 13.1397C179.553 13.1232 179.62 13.1334 179.698 13.1664C179.795 13.2058 179.894 13.2465 180.05 13.2261C180.222 13.2033 180.404 13.1995 180.579 13.1817C180.675 13.1715 180.742 13.1817 180.82 13.2147C180.917 13.2566 181.027 13.2833 181.177 13.2668C181.483 13.235 181.486 13.2414 181.784 13.3215C181.859 13.3418 181.94 13.3393 182.036 13.3291C182.12 13.3202 182.206 13.3393 182.265 13.3761C182.321 13.4168 182.316 13.4422 182.321 13.4638ZM158.398 2.00198C158.309 2.00833 158.221 2.01596 158.092 1.90539C158.084 1.88633 158.089 1.86346 158.07 1.84694C158.027 1.81262 157.96 1.78848 157.88 1.78467C157.735 1.77958 157.56 1.82278 157.563 1.85583C157.566 1.88379 157.611 1.90793 157.7 1.9308C157.737 1.9397 157.767 1.95495 157.802 1.96512C157.904 1.99435 157.984 2.05154 158.132 2.02232C158.105 1.94352 158.119 1.98292 158.132 2.02232C158.119 2.07061 158.159 2.10492 158.256 2.1189C158.282 2.12271 158.323 2.12017 158.344 2.11254C158.427 2.08458 158.441 2.04646 158.379 1.94607C158.368 1.96259 158.376 1.99181 158.401 1.99943C158.425 2.00706 158.484 2.00071 158.513 1.99182C158.589 1.96767 158.626 1.9359 158.607 1.90921C158.597 1.89523 158.546 1.87744 158.513 1.87744C158.457 1.87744 158.406 1.90539 158.398 2.00198ZM180.106 16.74C179.91 16.7642 179.685 16.7553 179.489 16.8049C179.454 16.8138 179.419 16.8366 179.416 16.8544C179.414 16.8659 179.467 16.8824 179.499 16.8913C179.572 16.9116 179.652 16.9053 179.746 16.8989C179.889 16.89 179.972 16.9485 180.082 16.9777C180.117 16.9866 180.163 16.9929 180.2 16.9904C180.418 16.9752 180.632 16.9586 180.85 16.9409C180.887 16.937 180.928 16.9281 180.96 16.9167C181.067 16.8798 181.057 16.8557 180.952 16.8277C180.836 16.7972 180.745 16.7464 180.627 16.7223C180.458 16.6879 180.286 16.7337 180.106 16.74ZM164.86 17.6678C164.728 17.6779 164.599 17.6881 164.468 17.6983C164.425 17.7021 164.379 17.7034 164.339 17.7084C164.256 17.7173 164.194 17.744 164.154 17.786C164.216 17.819 164.291 17.8381 164.374 17.8343C164.506 17.8266 164.634 17.8101 164.766 17.8063C164.908 17.8012 164.991 17.8584 165.102 17.8876C165.136 17.8965 165.179 17.8978 165.22 17.8991C165.418 17.9042 165.539 17.8381 165.502 17.7453C165.475 17.6729 165.373 17.6297 165.249 17.6386C165.12 17.6474 164.989 17.6576 164.86 17.6678ZM181.024 14.8617C181.057 14.8401 181.091 14.8249 181.108 14.8058C181.156 14.741 181.137 14.6927 181.048 14.6419C180.941 14.5796 180.81 14.6215 180.689 14.6279C180.659 14.6292 180.627 14.6558 180.611 14.6724C180.6 14.6838 180.6 14.708 180.616 14.7143C180.748 14.7652 180.887 14.8122 181.024 14.8617ZM157.735 11.1076C157.606 11.1178 157.474 11.1254 157.346 11.1394C157.313 11.1432 157.284 11.1674 157.265 11.1839C157.23 11.2144 157.268 11.2563 157.378 11.2601C157.504 11.2652 157.635 11.2436 157.767 11.2335C157.933 11.2207 158.033 11.1737 157.971 11.133C157.912 11.0937 157.831 11.086 157.735 11.1076ZM16.4167 8.39183C16.5026 8.38547 16.5912 8.38039 16.6771 8.37149C16.7576 8.36259 16.8194 8.33464 16.8597 8.2927C16.7926 8.25966 16.7174 8.24186 16.6342 8.24568C16.5026 8.2533 16.3738 8.26347 16.2449 8.27618C16.1644 8.2838 16.0865 8.31176 16.0677 8.35497C16.049 8.38801 16.2288 8.40708 16.4167 8.39183ZM146.381 8.19611C146.416 8.20755 146.451 8.23043 146.486 8.23043C146.572 8.23043 146.661 8.2228 146.741 8.21009C146.776 8.20501 146.803 8.18213 146.819 8.16434C146.83 8.1529 146.827 8.13257 146.811 8.12241C146.733 8.06141 146.422 8.08301 146.371 8.15291C146.365 8.16562 146.379 8.18213 146.381 8.19611ZM137.911 1.23692C137.919 1.25726 137.922 1.27759 137.933 1.29792C137.954 1.33605 138.013 1.36401 138.099 1.38307C138.166 1.3513 138.201 1.31572 138.199 1.2776C138.196 1.25726 138.188 1.23692 138.177 1.21658C138.156 1.17846 138.097 1.15051 138.011 1.13145C137.943 1.16195 137.911 1.19753 137.911 1.23692ZM187.229 17.8889C187.204 17.9054 187.18 17.9219 187.153 17.9372C187.226 17.9741 187.293 17.9855 187.344 17.9652C187.376 17.9524 187.395 17.9334 187.419 17.9169C187.347 17.88 187.282 17.8698 187.229 17.8889ZM185.559 18.0617C185.594 18.0732 185.626 18.0884 185.663 18.0961C185.725 18.1088 185.782 18.0872 185.824 18.0414C185.79 18.03 185.757 18.0147 185.72 18.0071C185.658 17.9944 185.602 18.016 185.559 18.0617ZM186.616 17.8292C186.598 17.8597 186.635 17.8851 186.735 17.9067C186.759 17.8902 186.791 17.8749 186.807 17.8571C186.834 17.8279 186.788 17.8012 186.692 17.7809C186.665 17.7961 186.641 17.8127 186.616 17.8292ZM180.949 16.4592C180.93 16.4897 180.968 16.5151 181.067 16.5367C181.091 16.5202 181.124 16.5049 181.14 16.4872C181.167 16.4579 181.121 16.4312 181.024 16.4109C180.997 16.4262 180.973 16.4427 180.949 16.4592ZM173.228 7.46664C173.204 7.48316 173.18 7.49969 173.153 7.51494C173.225 7.55179 173.292 7.56323 173.343 7.54289C173.376 7.53018 173.394 7.51112 173.419 7.4946C173.346 7.45774 173.282 7.44758 173.228 7.46664ZM165.832 2.69586C165.896 2.70475 165.95 2.68697 165.996 2.63995C165.961 2.62851 165.928 2.61326 165.891 2.60563C165.829 2.59292 165.773 2.61454 165.73 2.66029C165.765 2.67299 165.8 2.68442 165.832 2.69586ZM161.904 2.39721C161.88 2.41373 161.856 2.43025 161.829 2.4455C161.901 2.48236 161.969 2.49379 162.02 2.47346C162.052 2.46075 162.071 2.44169 162.095 2.42517C162.022 2.38831 161.958 2.37942 161.904 2.39721ZM135.27 1.23565C135.245 1.25217 135.221 1.26869 135.194 1.28394C135.267 1.3208 135.334 1.33223 135.385 1.3119C135.417 1.29919 135.436 1.28013 135.46 1.2636C135.388 1.22675 135.323 1.21786 135.27 1.23565ZM2.64973 11.5753C2.61483 11.5639 2.57996 11.5524 2.54774 11.5397C2.46989 11.574 2.44574 11.6058 2.48869 11.63C2.51554 11.6452 2.55578 11.6541 2.59068 11.6655C2.67122 11.6312 2.69 11.6007 2.64973 11.5753Z" fill="#FFE492"/>
</svg>
